<?xml version="1.0" encoding="utf-8"?>
<!-- Generator: Adobe Illustrator 20.0.0, SVG Export Plug-In . SVG Version: 6.00 Build 0)  -->
<svg version="1.1" id="Layer_1" xmlns="http://www.w3.org/2000/svg" xmlns:xlink="http://www.w3.org/1999/xlink" x="0px" y="0px"
	 viewBox="0 0 763.2 423.9" style="enable-background:new 0 0 763.2 423.9;" xml:space="preserve">
<style type="text/css">
	.st0{fill:#77408F;}
</style>
<path class="st0" d="M46.9,64.1c-0.2,0.1-0.4,0.1-0.6,0.2c-0.3,0.1-0.5,0.3-0.8,0.5c-0.2,0.1-0.3,0.4-0.4,0.7
	c-0.1,0.2-0.2,0.5-0.3,0.8c-0.3,1.1-0.1,2.3-0.1,3.4c0,0.6,0,1.2,0,1.8c0,0.6,0,1.3,0,1.9c0,0.8,0,1.7,0.1,2.5
	c0,1.9,0.1,3.8,0.1,5.7c0,2,0,4.1,0,6.1c0,0.8,0,1.6,0,2.4c0,0.9-0.1,1.8-0.1,2.7c0,0.4,0,0.8,0.1,1.1c0,0.3,0.1,0.6,0.2,0.9
	c0.2,0.4,0.6,0.7,1,0.8c0.9,0.2,1.9-0.3,2.1-1.2c0.2-1,0.3-2,0.2-3c0-0.9-0.1-1.9-0.1-2.8c-0.1-1.7-0.1-3.4-0.2-5.1
	c-0.1-2-0.2-4-0.2-5.9c-0.1-1.2-0.1-2.4-0.1-3.6c-0.1-1.3-0.1-2.6-0.1-3.9c0-0.9-0.1-1.8-0.1-2.7c0.1,0,0.1,0,0.2,0
	c0.8-0.2,1.3-1.1,1.1-1.9c0-0.1-0.1-0.2-0.1-0.2c-0.1-0.3-0.3-0.5-0.5-0.8c-0.3-0.3-0.7-0.4-1.1-0.4C47.2,64.1,47.1,64.1,46.9,64.1
	L46.9,64.1z"/>
<path class="st0" d="M70.6,70.8c-3.3,0.9-6.5,2-9.7,3.1c-3.2,1-6.3,2.1-9.5,3.1c-0.7,0.2-1.5,0.5-2.2,0.7c-0.8,0.3-1.3,1-1,1.8
	c0.2,0.8,1.1,1.3,1.8,1c3.8-1.3,7.6-2.5,11.3-3.8c3-1,5.9-2,8.9-3c0.4-0.1,0.8-0.3,1.2-0.4c0.3-0.1,0.6-0.3,0.8-0.6
	c0.2-0.3,0.2-0.7,0.1-1c-0.2-0.6-0.7-1-1.3-1C70.8,70.8,70.7,70.8,70.6,70.8L70.6,70.8z"/>
<path class="st0" d="M67,55.2c0,0.3,0.2,0.6,0.6,0.6s0.6-0.2,0.6-0.6s-0.2-0.6-0.6-0.6S67,54.9,67,55.2L67,55.2z"/>
<path class="st0" d="M67,54.1c-0.3,0.3-0.7,0.9-0.6,1.4c1.1,9.9,2.3,19.8,3.4,29.7c0.1,1.4,0.3,2.8,0.4,4.2c0.2,1.5,0.3,3.1,0.7,4.6
	c0.2,0.8,1,1.4,1.8,1.4c1,0,1.8-0.8,1.9-1.9c0.1-2.2-0.2-4.4-0.5-6.5c-0.3-2.4-0.5-4.8-0.8-7.2c-0.5-4.1-1-8.2-1.4-12.3
	c-0.5-4-0.9-8-1.4-12c-0.1-0.6-0.2-1-0.6-1.4c-0.4-0.4-0.9-0.6-1.4-0.6S67.3,53.8,67,54.1L67,54.1z"/>
<path class="st0" d="M94.3,66.1c-0.3,0-0.6,0.2-1,0.3c-0.3,0.1-0.6,0.3-0.9,0.4c-0.6,0.3-1.2,0.6-1.8,0.9c-0.5,0.3-0.6,0.9-0.4,1.4
	c0.3,0.5,0.9,0.6,1.4,0.4c0.9-0.5,1.8-0.9,2.7-1.3c0.3-0.1,0.6-0.2,0.9-0.3c0.1,0,0.2,0,0.2,0c0.2,0,0.4-0.1,0.6-0.3
	c0.2-0.2,0.3-0.4,0.3-0.6c0-0.5-0.4-0.9-0.9-0.9c-0.2,0-0.4,0-0.5,0C94.7,66,94.5,66.1,94.3,66.1L94.3,66.1z"/>
<path class="st0" d="M95.6,73.4c-0.3,0.3-0.5,0.7-0.5,1.1c0.3,2.8,0.7,5.6,1,8.5c0.3,2.6,0.4,5.2,0.8,7.8c0.1,0.3,0.2,0.5,0.4,0.8
	c0.3,0.3,0.8,0.5,1.2,0.5s0.9-0.2,1.2-0.5c0.3-0.3,0.6-0.8,0.5-1.2c-0.2-1.4-0.4-2.8-0.6-4.2c-0.5-3.8-1-7.7-1.4-11.5
	c-0.1-0.4-0.1-0.8-0.5-1.1c-0.3-0.3-0.7-0.4-1.1-0.4C96.3,72.9,95.9,73.1,95.6,73.4L95.6,73.4z"/>
<path class="st0" d="M124.1,52.5c-0.2,0.1-0.5,0.3-0.6,0.6c-0.1,0.3-0.3,0.6-0.3,1c-0.1,0.6-0.1,1.2-0.1,1.7
	c-0.1,0.6-0.1,1.2-0.2,1.8c-0.1,1.1-0.2,2.1-0.3,3.2c-0.1,1-0.2,2-0.2,3c0,1.3,0.1,2.5,0.2,3.8c0,0.4,0.1,0.7,0.4,1
	c0.3,0.3,0.6,0.4,1,0.4c0.8,0,1.5-0.7,1.5-1.5c-0.1-2.2-0.1-4.4-0.1-6.6c0-1,0-2,0-3c0-0.4,0-0.9,0-1.4c0-0.2,0-0.4,0-0.6
	c0.3-0.2,0.4-0.5,0.4-0.8c0-0.6-0.1-1.2-0.1-1.8c0-0.4-0.2-0.7-0.5-0.9c-0.2-0.1-0.4-0.1-0.5-0.1C124.4,52.4,124.2,52.4,124.1,52.5
	L124.1,52.5z"/>
<path class="st0" d="M126.5,86.5c-0.3,0.6-0.7,1.2-1,1.8c-0.2,0.3-0.3,0.6-0.4,0.9c-0.1,0.3-0.2,0.6-0.2,1c0,0,0,0.1,0,0.1
	c-0.1,0.4,0.1,0.9,0.4,1.2c0.2,0.3,0.4,0.5,0.6,0.6c0.6,0.4,1.4,0.4,2,0.1c0.2-0.1,0.4-0.1,0.5-0.2c0.1-0.1,0.3-0.2,0.4-0.3
	c0.1-0.1,0.2-0.3,0.3-0.4c0.1-0.2,0.2-0.3,0.2-0.5c0.2-0.7-0.1-1.5-0.7-2c0.1-0.2,0.3-0.5,0.4-0.7c0.4-0.7,0.2-1.7-0.5-2.1
	c-0.2-0.1-0.5-0.2-0.8-0.2C127.3,85.8,126.7,86,126.5,86.5L126.5,86.5z"/>
<path class="st0" d="M46.8,61.1c-0.4,0.1-0.8,0.4-1,0.8c-0.2,0.3-0.2,0.6-0.2,0.9c0,0,0,0,0,0c-0.1,0.6,0,1.2,0,1.9c0,0.7,0,1.3,0,2
	c0,0.6,0,1.2,0,1.7c0,1.1,0.2,2.1,0.5,3.2c0.2,0.6,0.5,1,1,1.3c0.5,0.3,1.1,0.4,1.7,0.2c0.6-0.2,1-0.5,1.3-1
	c0.3-0.5,0.3-1.1,0.2-1.7c0-0.1-0.1-0.3-0.1-0.4c-0.1-0.6-0.1-1.3-0.2-1.9c-0.1-0.7-0.2-1.4-0.3-2.1c-0.1-0.6-0.2-1.2-0.3-1.8
	c0-0.2-0.1-0.5-0.1-0.7c-0.1-0.2-0.1-0.4-0.2-0.7c-0.1-0.3-0.2-0.6-0.3-0.8c-0.3-0.6-0.9-0.9-1.5-0.9C47.1,61,46.9,61.1,46.8,61.1
	L46.8,61.1z"/>
<path class="st0" d="M88.6,119.2c-0.7,0.4-1,1.1-1.1,1.8c-0.2,2.1-0.4,4.2-0.5,6.3c0,1.5-0.1,3.1-0.1,4.6c-0.1,2.1,0,4.3,0.1,6.4
	c0.1,1.1,0.1,2.2,0.2,3.3c0.1,0.8,0.1,1.5,0.2,2.3c0.1,0.6,0.2,1.3,0.3,1.9c0.2,1.1,0.4,2.1,0.7,3.2c0.3,1.3,0.7,2.5,1.1,3.8
	c0.2,0.6,0.5,1,1,1.4c0.5,0.3,1.2,0.4,1.7,0.2c1.2-0.3,1.9-1.6,1.6-2.8c-0.4-1.4-0.8-2.9-1.1-4.4c-0.2-0.7-0.3-1.4-0.4-2.1
	c-0.1-0.7-0.2-1.4-0.3-2c-0.1-1.4-0.3-2.9-0.4-4.3c-0.1-0.7-0.2-1.5-0.2-2.2c0-1-0.1-1.9-0.1-2.9c-0.1-1.5,0-3,0-4.5
	c0-0.9,0-1.8,0-2.7c0-0.8,0.1-1.6,0.1-2.4c0.3-0.2,0.5-0.4,0.7-0.7c0.3-0.5,0.3-1,0.2-1.6c-0.1-0.6-0.3-1.1-0.7-1.5
	c-0.3-0.3-0.7-0.6-1-0.9c-0.3-0.2-0.6-0.3-1-0.3C89.3,118.9,88.9,119,88.6,119.2L88.6,119.2z"/>
<path class="st0" d="M148.6,127.3c-0.6,0.2-1.2,0.4-1.7,0.7c-0.6,0.3-1.2,0.7-1.7,1.1c-2.2,1.6-3.9,3.8-5.2,6.2
	c-0.7,1.2-1.2,2.5-1.6,3.9c-0.4,1.3-0.8,2.6-0.9,4c-0.1,0.6-0.1,1.2,0,1.9c0.1,0.6,0.2,1.2,0.3,1.9c0.3,1.3,1.5,2.4,2.8,2.7
	c0.7,0.2,1.4,0.1,2.1-0.1c0.7-0.1,1.5-0.5,2.1-0.9c0.6-0.3,1.1-0.7,1.6-1.1c0.6-0.5,1.1-1,1.6-1.5c1-1,1.8-2.1,2.5-3.2
	c0.7-1.1,1.4-2.2,2.1-3.3c0.2-0.3,0.4-0.6,0.6-1c0,0,0,0,0,0c0.1,0.7,0.3,1.4,0.4,2c0.2,1,0.4,2.1,0.6,3.1c0.2,0.9,0.4,1.8,0.6,2.6
	c0.1,0.6,0.3,1.2,0.4,1.7c0.2,0.7,0.5,1.4,0.9,2c0.3,0.4,0.6,0.7,1,1c0.2,0.2,0.4,0.3,0.7,0.4c1,0.6,2.3,0.2,2.9-0.8
	c0.3-0.5,0.4-1.1,0.2-1.6c-0.2-0.6-0.5-0.9-1-1.3c0,0,0,0,0,0c0,0,0,0,0,0c-0.1-0.1-0.1-0.2-0.1-0.3c-0.2-0.6-0.3-1.3-0.5-1.9
	c-0.1-0.4-0.2-0.8-0.3-1.2c-0.3-1-0.5-2.1-0.8-3.1c-0.2-1-0.5-1.9-0.7-2.9c-0.1-0.6-0.3-1.1-0.4-1.7c-0.1-0.6-0.3-1.1-0.5-1.7
	c-0.1-0.4-0.3-0.8-0.5-1.1c-0.2-0.3-0.4-0.6-0.6-0.8c-0.2-0.2-0.4-0.4-0.6-0.6c0-0.4,0-0.8-0.1-1.2c-0.3-1.4-1-2.6-2.1-3.3
	c-0.5-0.3-1.1-0.6-1.7-0.7c-0.2,0-0.5-0.1-0.7-0.1C149.7,127.1,149.1,127.2,148.6,127.3L148.6,127.3z M149.8,131c0.1,0,0.1,0,0.2,0
	C150,131,149.9,131,149.8,131L149.8,131z M150.2,131c0.1,0.1,0.3,0.2,0.4,0.2c0,0,0,0,0.1,0.1c0,0,0.1,0.1,0.1,0.1
	c0.1,0.2,0.1,0.3,0.1,0.5c0,0.7,0,1.4-0.1,2.2c-0.2,0.4-0.4,0.8-0.6,1.2c-0.3,0.5-0.6,1.1-0.9,1.6c-1,1.8-2.1,3.5-3.3,5.1
	c-0.7,0.9-1.5,1.7-2.4,2.5c-0.5,0.3-1,0.6-1.5,0.9c-0.1,0-0.3,0.1-0.4,0.1c0-0.2-0.1-0.3-0.1-0.5c0-0.6,0-1.1,0-1.6
	c0.3-1.6,0.8-3.2,1.4-4.8c0.6-1.3,1.3-2.5,2.1-3.7c0.7-0.9,1.5-1.7,2.3-2.4c0.6-0.4,1.3-0.8,1.9-1.1
	C149.6,131.2,149.9,131.1,150.2,131C150.2,131,150.2,131,150.2,131L150.2,131z M149.9,131.1c0,0-0.1,0-0.1,0
	C149.8,131.1,149.9,131.1,149.9,131.1L149.9,131.1z M150.8,131.5C150.8,131.5,150.9,131.6,150.8,131.5
	C150.9,131.6,150.8,131.5,150.8,131.5L150.8,131.5z M150.9,131.7C150.9,131.7,150.9,131.7,150.9,131.7
	C150.9,131.7,150.9,131.7,150.9,131.7L150.9,131.7z M143.1,138.1c0,0.1,0,0.1-0.1,0.2C143.1,138.2,143.1,138.2,143.1,138.1
	L143.1,138.1z M141.8,145.7C141.8,145.7,141.8,145.7,141.8,145.7C141.8,145.7,141.8,145.7,141.8,145.7L141.8,145.7z M159.4,147.5
	c0.1,0.1,0.2,0.1,0.3,0.2C159.6,147.6,159.5,147.6,159.4,147.5L159.4,147.5z"/>
<path class="st0" d="M183.3,123.5c-1.2,0-2.3,0.5-3.1,1.3c-0.7,0.7-1.1,1.7-1.5,2.6c-0.1-0.1-0.1-0.3-0.2-0.4
	c-0.5-1-1.4-1.5-2.2-2.1c-0.8-0.6-1.9-0.3-2.6,0.3c-0.3,0.3-0.6,0.6-0.9,0.9c-0.4,0.4-0.6,0.9-0.9,1.3c-0.1,0.2-0.2,0.5-0.3,0.7
	c-0.3-0.1-0.6-0.2-1-0.2c-0.6,0-1.2,0.3-1.7,0.7c-0.5,0.5-0.7,1-0.7,1.7c-0.1,1.7-0.2,3.5-0.4,5.2c-0.1,0.8-0.2,1.7-0.2,2.5
	c0,1,0.1,1.9,0.4,2.9c0.3,1,1.2,1.7,2.3,1.7c1,0,2.1-0.7,2.3-1.7c0.3-1.4,0.6-2.7,0.9-4.1c0.3-1,0.5-2,0.8-3
	c0.2-0.6,0.4-1.2,0.6-1.8c0.2-0.5,0.3-0.9,0.5-1.4c0,0,0,0,0,0c0.1,0.2,0.1,0.5,0.2,0.7c0.2,0.9,0.3,1.7,0.5,2.6
	c0.1,0.9,0.2,1.9,0.3,2.8c0,0.4,0.1,0.8,0.1,1.2c0,0,0,0.1,0,0.1c0,0.1,0,0.3,0,0.4c-0.1,0.6-0.2,1.3-0.2,1.9c0,0.4,0.1,0.8,0.2,1.2
	c0.2,0.7,0.6,1,1.2,1.4c0.6,0.5,1.6,0.4,2.2,0c0.7-0.4,1.1-1.1,1.1-1.9c0-0.6,0-1.3-0.1-1.9c0-0.3,0.1-0.6,0.1-0.9
	c0.1-0.8,0.2-1.5,0.2-2.3c0.2-1.2,0.4-2.4,0.6-3.6c0.2-1.2,0.5-2.3,1-3.4c0.2-0.4,0.4-0.8,0.6-1.2c0,0,0.1,0.1,0.1,0.1
	c0.5,0.7,0.9,1.4,1.2,2.2c0.4,1,0.7,2.1,1,3.2c0.3,1.1,0.6,2.2,0.7,3.3c0.1,0.8,0.2,1.7,0.4,2.5c0.2,1.9,0.4,3.9,0.6,5.8
	c0,0.6,0.2,1.2,0.7,1.6c0.4,0.4,1,0.7,1.6,0.7c1.2,0,2.4-1,2.3-2.3c-0.1-1.9-0.3-3.8-0.6-5.8c-0.1-1-0.3-2-0.5-3
	c-0.3-1.9-0.8-3.7-1.4-5.6c-0.7-2.1-1.6-4.3-3.2-6C185.6,123.9,184.5,123.5,183.3,123.5C183.4,123.5,183.4,123.5,183.3,123.5
	L183.3,123.5z M183.3,127.9c-0.1,0.1-0.1,0.1-0.2,0.2C183.2,128,183.2,128,183.3,127.9L183.3,127.9z"/>
<path class="st0" d="M240.4,117.8c-0.9,0.3-1.7,0.9-2.4,1.4c-1.3,1-2.2,2.4-2.9,3.8c-0.9,1.7-1.6,3.4-2.1,5.2
	c-0.5,1.7-0.8,3.4-1,5.1c-0.1,0.7-0.1,1.4,0,2.1c0.1,0.5,0.1,1,0.2,1.4c0.1,0.5,0.3,0.9,0.5,1.3c0.7,1.5,2.1,2.5,3.7,2.9
	c1.9,0.4,3.7-0.4,5.3-1.4c1.3-0.9,2.5-1.9,3.6-3.1c1.1-1.2,2.2-2.6,3.2-3.9c0.4-0.5,0.7-0.9,1.1-1.4c0.1,0.3,0.2,0.5,0.3,0.7
	c0.4,1.3,1.1,2.5,1.8,3.6c0.4,0.7,1,1.4,1.5,2c0.5,0.7,1.1,1.4,1.6,2.1c0.4,0.5,1.2,0.8,1.9,0.8c0.7,0,1.4-0.3,1.9-0.8
	c0.5-0.5,0.8-1.2,0.8-1.9c0-0.8-0.3-1.3-0.8-1.9c-0.2-0.3-0.4-0.5-0.7-0.8c-1.1-1.5-2.2-3-3-4.7c-0.1-0.3-0.2-0.7-0.4-1
	c0.1-0.1,0.1-0.1,0.2-0.2c0.4-0.4,0.7-1,0.7-1.6c0-0.6-0.2-1.3-0.7-1.6c-2.6-2.1-5.2-4.1-7.8-6.2c-0.6-0.5-1.2-0.9-1.8-1.3
	c-0.7-0.4-1.6-0.7-2.4-0.8c-0.3-0.1-0.6-0.1-1-0.1C241.3,117.6,240.9,117.7,240.4,117.8L240.4,117.8z M242.4,122.3
	c-0.1,0-0.2,0-0.3,0C242.2,122.4,242.3,122.3,242.4,122.3L242.4,122.3z M241.9,122.4c0.3,0.1,0.5,0.1,0.8,0.2
	c0.5,0.3,0.9,0.6,1.4,0.9c0.3,0.2,0.6,0.4,0.9,0.7c0.7,0.5,1.4,1.1,2.1,1.6c0,0-0.1,0.1-0.1,0.1c-0.3,0.5-0.6,1-0.9,1.4
	c-0.7,0.9-1.3,1.8-2,2.7c-0.7,0.9-1.4,1.7-2.2,2.5c-0.7,0.7-1.3,1.5-2.1,2.1c-0.6,0.4-1.2,0.9-1.9,1.2c-0.1,0-0.2,0.1-0.3,0.1
	c0,0-0.1,0-0.1,0c-0.1-0.1-0.1-0.2-0.2-0.3c-0.1-0.2-0.1-0.4-0.2-0.6c-0.1-0.7,0-1.5,0.1-2.2c0.3-2.1,0.8-4.1,1.6-6.1
	c0.5-1.1,1-2.1,1.7-3.1c0.3-0.4,0.7-0.7,1.1-1.1C241.7,122.6,241.8,122.5,241.9,122.4L241.9,122.4z M243.9,130.4
	c0,0.1-0.1,0.1-0.1,0.2C243.8,130.5,243.8,130.4,243.9,130.4L243.9,130.4z M237.3,132.5c0,0.1,0,0.1,0,0.2
	C237.2,132.7,237.3,132.6,237.3,132.5L237.3,132.5z M237.2,135.8c0,0.1,0.1,0.1,0.1,0.2C237.3,135.9,237.3,135.9,237.2,135.8
	L237.2,135.8z M237.2,136.1c0.1,0,0.2,0,0.3,0C237.3,136.1,237.2,136.1,237.2,136.1L237.2,136.1z M237.7,136.2
	C237.7,136.2,237.8,136.2,237.7,136.2C237.8,136.2,237.7,136.2,237.7,136.2L237.7,136.2z"/>
<path class="st0" d="M293.4,95.9c-0.4,0.4-0.4,0.8-0.5,1.2c0,0,0,0,0,0.1c0-0.1,0-0.1,0-0.2c0,0.1,0,0.1,0,0.2c0,0.1,0,0.2,0,0.3
	c0-0.1,0-0.2,0-0.3c-0.1,0.8-0.2,1.6-0.3,2.4c0,0.6-0.1,1.2-0.1,1.9c-0.1,1.4-0.2,2.8-0.2,4.2c-0.1,2.2-0.1,4.5-0.2,6.7
	c0,1.2-0.1,2.3-0.1,3.5c0,1.6,0,3.2,0.1,4.8c0.1,1.6,0.1,3.2,0.4,4.8c0.1,0.8,0.2,1.5,0.4,2.3c0.1,0.7,0.3,1.3,0.5,1.9
	c0.1,0.4,0.3,0.7,0.5,1.1c0.2,0.3,0.5,0.6,0.7,0.9c0.5,0.6,1.2,1.1,1.9,1.5c1.2,0.7,2.7,0.9,4,0.8c0.7-0.1,1.4-0.2,2.1-0.5
	c0.8-0.3,1.6-0.8,2.4-1.2c1.4-0.9,2.7-2.1,3.9-3.4c0.8-0.8,1.6-1.7,2.3-2.6c1.1-1.2,2.1-2.5,3.1-3.8c0.2-0.3,0.3-0.7,0.3-1
	c0-0.5-0.2-1-0.6-1.4c-0.4-0.4-0.9-0.6-1.4-0.6c-0.5,0-1.1,0.2-1.4,0.6c-0.9,1-1.8,2-2.7,3c-1.6,1.7-3.2,3.5-5,4.9
	c-0.7,0.5-1.4,1-2.2,1.4c-0.3,0.1-0.7,0.2-1,0.3c-0.3,0-0.7,0-1,0c-0.2,0-0.3-0.1-0.5-0.1c-0.2-0.1-0.4-0.2-0.6-0.4
	c-0.2-0.2-0.4-0.4-0.6-0.6c-0.1-0.2-0.2-0.3-0.3-0.5c-0.4-1.2-0.7-2.5-0.9-3.8c-0.7-5.5-0.5-11.1-0.4-16.7c0-1.2,0.1-2.5,0.1-3.7
	c0-1.1,0.1-2.2,0.1-3.3c0-0.4,0-0.8,0.1-1.2c0.1-0.1,0.2-0.2,0.3-0.3c0.3-0.4,0.3-0.9,0.2-1.4c-0.1-0.3-0.2-0.6-0.3-0.9
	c-0.1-0.3-0.2-0.6-0.5-0.8c-0.3-0.3-0.8-0.5-1.2-0.5C294.2,95.4,293.8,95.6,293.4,95.9L293.4,95.9z M293.1,98c0,0,0,0.1,0.1,0.1
	c0,0,0,0,0,0C293.2,98,293.1,98,293.1,98L293.1,98z M292.9,97.3C292.9,97.3,292.9,97.3,292.9,97.3C292.9,97.3,292.9,97.3,292.9,97.3
	C292.9,97.3,292.9,97.3,292.9,97.3L292.9,97.3z"/>
<path class="st0" d="M315.8,101.9c-0.7,0.4-1.4,0.8-2.1,1.3c-0.7,0.5-1.5,1-2.2,1.6c-0.2,0.2-0.4,0.3-0.4,0.6
	c-0.1,0.3,0,0.5,0.1,0.8c0.1,0.2,0.3,0.4,0.6,0.4c0.2,0.1,0.5,0,0.8-0.1c0.7-0.5,1.5-1,2.2-1.6c0.7-0.5,1.4-0.9,2.1-1.3
	c0.5-0.3,0.6-0.9,0.3-1.3c-0.2-0.3-0.5-0.5-0.8-0.5C316.1,101.8,315.9,101.8,315.8,101.9L315.8,101.9z"/>
<path class="st0" d="M315.2,111.9c-0.1,2.7-0.3,5.4-0.3,8.1c0,1,0,2,0.1,3c0.2,1.6,0.3,3.1,0.9,4.6c0.2,0.5,0.4,0.9,0.9,1.1
	c0.4,0.3,1,0.3,1.4,0.2c0.9-0.3,1.6-1.3,1.3-2.3c-0.3-0.8-0.4-1.5-0.5-2.3c-0.1-0.9-0.2-1.9-0.2-2.8c-0.1-1,0-1.9,0-2.9
	c0-0.8,0.1-1.7,0.1-2.5c0.1-1.4,0.1-2.8,0.2-4.1c0.1-1.1-0.9-1.9-1.9-1.9C316.1,110,315.3,110.9,315.2,111.9L315.2,111.9z"/>
<path class="st0" d="M338.2,103.4c0,0.2,0,0.4,0,0.5c-0.3,1.4-0.6,2.8-1,4.2c-0.7,2.5-1.5,5-2.5,7.4c-0.5,1.1-1,2.1-1.5,3.2
	c-0.3,0.7-0.7,1.4-1.1,2.1c0-0.2-0.1-0.4-0.1-0.7c-0.5-3.9-1-7.7-1.5-11.6c0-0.3-0.1-0.5-0.1-0.8c-0.1-0.5-0.4-0.9-0.7-1.3
	c-0.5-0.5-1.3-0.8-2-0.8c-0.8,0-1.5,0.3-2,0.8c-0.5,0.5-0.9,1.3-0.8,2c0.5,4.1,1,8.3,1.6,12.4c0.1,1.1,0.3,2.3,0.5,3.4
	c0.2,1,0.5,2,0.9,3c0.3,1,1,1.7,2,2c0.5,0.1,1,0.1,1.5,0c0.5-0.1,0.9-0.4,1.3-0.7c1-0.9,2.1-1.6,2.9-2.7c1-1.2,1.7-2.5,2.4-3.9
	c1.4-2.8,2.6-5.7,3.5-8.7c0.5-1.6,0.8-3.1,1.1-4.7c0.1-0.6,0.2-1.1,0.3-1.7c0.2-1.3,0.3-2.8-0.2-4c-0.1-0.4-0.3-0.7-0.6-1
	c-0.4-0.4-1-0.6-1.6-0.6C339.2,101.2,338.3,102.2,338.2,103.4L338.2,103.4z M331.9,119.5c0,0.2,0.1,0.4,0.1,0.7
	C332,120,331.9,119.7,331.9,119.5L331.9,119.5z"/>
<path class="st0" d="M357.5,96c-0.4,0.1-0.8,0.2-1.2,0.4c-0.6,0.3-1.1,0.8-1.6,1.2c-0.5,0.4-0.9,0.9-1.2,1.4
	c-0.5,0.6-0.9,1.2-1.3,1.8c-0.5,0.7-0.8,1.5-1.2,2.3c-0.6,1.4-1.1,2.9-1.4,4.4c-0.1,0.3-0.1,0.6-0.2,0.9c-0.2,0.1-0.5,0.2-0.7,0.3
	c-0.3,0.1-0.6,0.2-0.9,0.3c-0.9,0.1-1.4,1.2-1.1,2c0.1,0.4,0.4,0.8,0.8,1c0.4,0.2,0.8,0.2,1.3,0.2c0.3,0,0.5-0.1,0.8-0.2
	c0,0.1,0,0.3,0.1,0.4c0.2,1.3,0.7,2.6,1.4,3.7c0.8,1.2,2.1,2.2,3.4,2.9c1.2,0.6,2.5,1.1,3.8,1.4c1.7,0.3,3.4,0.1,5.1-0.1
	c3.2-0.5,6.2-1.5,9.1-2.9c1.4-0.7,2.6-1.6,3.9-2.6c1.4-1.1,2.9-2.2,4.2-3.4c1.7-1.4,3.4-2.9,5.1-4.4c2-1.7,4-3.4,5.9-5.2
	c1-0.9,0.9-2.6,0-3.5c-1-1-2.5-0.9-3.5,0c-1.6,1.6-3.3,3-5,4.5c-3.3,2.9-6.5,5.8-10,8.5c-0.7,0.5-1.4,1-2.1,1.5
	c-0.9,0.6-1.9,1.1-2.9,1.5c-1,0.4-2.1,0.7-3.1,1c-1.2,0.3-2.4,0.6-3.6,0.8c-0.8,0.1-1.5,0.1-2.3,0c-0.7-0.1-1.5-0.3-2.2-0.6
	c-0.6-0.3-1.2-0.6-1.8-1c-0.2-0.2-0.5-0.4-0.7-0.6c-0.2-0.3-0.3-0.5-0.5-0.8c-0.2-0.7-0.4-1.4-0.5-2.1c0-0.4-0.1-0.7-0.1-1.1
	c1-0.7,1.9-1.5,2.9-2.4c1.1-0.9,2.1-2,3-3c1-1.1,2-2.4,2.3-3.8c0.2-0.8,0.1-1.5,0-2.3c-0.1-0.7-0.5-1.3-0.9-1.8
	c-0.1,0-0.1-0.1-0.2-0.1c-0.2-0.2-0.5-0.4-0.8-0.5c-0.3-0.1-0.6-0.2-1-0.2c-0.1,0-0.2,0-0.3,0C358,95.9,357.8,95.9,357.5,96
	L357.5,96z M357.9,99.1C357.9,99.1,357.9,99.2,357.9,99.1C357.9,99.2,357.9,99.1,357.9,99.1L357.9,99.1z M358.5,99.6
	C358.5,99.7,358.6,99.7,358.5,99.6C358.6,99.7,358.5,99.7,358.5,99.6L358.5,99.6z M358,99.7c0,0.1,0,0.2,0,0.3
	c0,0.1-0.1,0.3-0.1,0.4c-0.3,0.5-0.6,0.9-0.9,1.4c-0.7,0.9-1.6,1.8-2.4,2.7c0.5-1.2,1.2-2.3,2-3.4c0.4-0.5,0.8-0.9,1.2-1.3
	C357.9,99.8,358,99.8,358,99.7L358,99.7z M356.8,100.8c0,0-0.1,0.1-0.1,0.1C356.8,100.9,356.8,100.9,356.8,100.8L356.8,100.8z
	 M368.4,114.2c-0.1,0-0.2,0.1-0.2,0.1C368.2,114.3,368.3,114.2,368.4,114.2L368.4,114.2z"/>
<path class="st0" d="M130.8,182.6c-0.3,1.1-0.6,2.2-0.8,3.3c-0.2,1.4-0.2,2.8-0.2,4.2c0,1.5,0.1,2.9,0.2,4.4
	c0.1,1.8,0.2,3.7,0.3,5.6c0.2,1.7,0.3,3.5,0.5,5.2c0.1,0.9,0.2,1.7,0.3,2.6c0.2,1.5,0.2,3.1,0.6,4.5c0.3,1.1,1.3,1.8,2.4,1.8
	c1.2,0,2.1-0.8,2.4-1.8c0-0.1,0.1-0.3,0.1-0.4c0.1,0.1,0.2,0.2,0.3,0.3c0.3,0.1,0.6,0.3,0.9,0.4c0.4,0.1,0.8,0.1,1.3,0.2
	c0.6,0,1.2-0.1,1.7-0.3c0.9-0.3,1.8-0.8,2.6-1.4c0.5-0.4,0.9-0.7,1.4-1.2c0.4-0.4,0.8-0.9,1.1-1.4c0.5-0.7,0.9-1.6,1.3-2.4
	c0.5-1.1,0.8-2.2,1-3.4c0.1-0.5,0.1-1,0.2-1.5c0-0.6-0.1-1.2-0.2-1.8c-0.1-0.5-0.2-0.9-0.4-1.4c-0.2-0.5-0.5-1-0.8-1.5
	c-1.2-1.9-3.3-3.2-5.6-3c-0.5,0.1-0.9,0.2-1.4,0.4c-0.5,0.2-1,0.4-1.5,0.8c-0.9,0.7-1.7,1.6-2.4,2.5c-0.5,0.7-1,1.5-1.4,2.4
	c0-0.5-0.1-0.9-0.1-1.4c-0.1-1.4-0.2-2.9-0.3-4.3c-0.1-1-0.1-2-0.1-3c-0.1-1.5-0.1-3,0.1-4.5c0-0.1,0-0.1,0-0.2
	c0.2,0,0.3-0.1,0.5-0.2c1-0.6,1.3-1.9,0.8-2.9c-0.3-0.6-0.8-1-1.2-1.5c-0.4-0.4-0.9-0.6-1.4-0.6C131.9,181.1,131,181.7,130.8,182.6
	L130.8,182.6z M142.4,198.2c-0.1,0-0.2,0-0.3,0C142.2,198.2,142.3,198.2,142.4,198.2L142.4,198.2z M141.9,198.3c0,0,0.1,0,0.1,0
	c0.1,0,0.2,0,0.3,0.1c0,0,0.1,0,0.1,0.1c0.2,0.1,0.3,0.3,0.4,0.5c0.2,0.3,0.3,0.5,0.5,0.8c0.1,0.3,0.2,0.6,0.3,1c0,0.3,0,0.6,0,0.9
	c-0.1,0.7-0.3,1.5-0.6,2.2c-0.3,0.7-0.7,1.5-1.2,2.1c-0.3,0.3-0.5,0.6-0.9,0.9c-0.4,0.3-0.9,0.6-1.3,0.8c-0.2,0.1-0.3,0.1-0.5,0.1
	c-0.4-0.4-1-0.6-1.6-0.6c0.4-1.7,0.8-3.3,1.5-4.9c0.4-0.9,0.8-1.7,1.4-2.5c0.3-0.4,0.6-0.7,1-1.1
	C141.6,198.5,141.7,198.4,141.9,198.3C141.9,198.3,141.9,198.3,141.9,198.3L141.9,198.3z M142.1,198.3
	C142.1,198.3,142.2,198.3,142.1,198.3C142.2,198.3,142.2,198.3,142.1,198.3C142.2,198.3,142.1,198.3,142.1,198.3L142.1,198.3z
	 M142.2,198.3c0,0,0.1,0,0.1,0c0,0,0,0,0,0C142.3,198.3,142.2,198.3,142.2,198.3C142.2,198.3,142.2,198.3,142.2,198.3L142.2,198.3z
	 M142.3,198.3c0.1,0,0.1,0,0.2,0C142.4,198.3,142.4,198.3,142.3,198.3C142.3,198.3,142.3,198.3,142.3,198.3L142.3,198.3z M143.6,201
	c0,0,0,0.1,0,0.1C143.7,201,143.6,201,143.6,201L143.6,201z M138.5,207.6C138.6,207.6,138.6,207.6,138.5,207.6
	C138.6,207.6,138.6,207.6,138.5,207.6L138.5,207.6z"/>
<path class="st0" d="M156.3,189.8c-0.5,0.5-0.9,1.3-0.8,2c0.2,1.7,0.4,3.5,0.6,5.2c0.1,0.9,0.2,1.9,0.4,2.8c0.1,0.8,0.3,1.5,0.4,2.3
	c0.1,0.4,0.1,0.8,0.3,1.2c0.2,0.6,0.5,1.1,0.9,1.6c1,1.1,2.6,2,4.2,1.8c0.4,0,0.8-0.1,1.1-0.2c0.5-0.1,1-0.4,1.4-0.7
	c0.8-0.5,1.6-1.2,2.3-1.8c0.6-0.5,1.1-1.1,1.5-1.7c0.1-0.1,0.2-0.2,0.2-0.3c0.2,0.7,0.5,1.3,0.8,1.9c0.4,0.8,1,1.5,1.6,2.1
	c0.7,0.8,2.1,0.9,3,0.4c1.1-0.6,1.6-2.2,0.9-3.4c-0.3-0.5-0.7-1-0.9-1.5c-0.2-0.5-0.3-1.1-0.4-1.6c-0.1-0.6-0.1-1.2-0.2-1.7
	c-0.1-1.4,0-2.8-0.1-4.2c-0.1-0.9-0.5-1.8-1.3-2.3c-0.4-0.2-0.9-0.4-1.3-0.4c-0.8,0-1.3,0.3-1.9,0.8c-1,0.8-1.5,2.1-2.2,3.1
	c-0.7,1-1.4,2-2.1,3c-0.7,0.8-1.4,1.5-2.2,2.2c0-0.3-0.1-0.5-0.1-0.8c-0.1-0.6-0.2-1.2-0.3-1.8c-0.2-2.1-0.5-4.1-0.7-6.2
	c-0.1-0.8-0.3-1.5-0.8-2c-0.5-0.5-1.3-0.8-2-0.8C157.6,189,156.9,189.3,156.3,189.8L156.3,189.8z M161.5,201c0,0,0.1,0,0.1,0
	c0,0,0,0,0,0C161.6,201,161.5,201,161.5,201L161.5,201z M162.5,201.3C162.5,201.3,162.6,201.3,162.5,201.3
	C162.5,201.3,162.5,201.3,162.5,201.3L162.5,201.3z"/>
<path class="st0" d="M186,188.6c-0.4,0.2-0.8,0.5-1.1,0.8c-0.2,0.2-0.4,0.5-0.6,0.7c-0.1-0.1-0.1-0.1-0.2-0.2
	c-0.5-0.5-1.3-0.9-2.1-0.9c-0.8,0-1.5,0.3-2.1,0.9c-0.5,0.5-0.9,1.3-0.9,2.1c0.1,1.1,0.2,2.2,0.3,3.3c0.1,0.7,0.2,1.4,0.3,2
	c0.2,0.6,0.5,1.1,0.8,1.7c0.5,0.9,1.5,1.4,2.5,1.4c1,0,2-0.5,2.5-1.4c1-2,1.8-4.1,2.9-6c0,0,0,0,0,0c0,0,0.1,0,0.1,0.1
	c0.2,0.2,0.4,0.4,0.7,0.7c1.2,1.7,2,3.7,3,5.5c0.6,1.2,2.2,1.5,3.3,0.9c1.2-0.7,1.5-2.1,0.9-3.3c-0.4-0.8-0.7-1.6-1.1-2.3
	c-0.6-1.1-1.2-2.2-1.9-3.2c-0.6-0.8-1.2-1.5-2-2.1c-0.8-0.6-1.6-0.9-2.6-1c-0.2,0-0.4,0-0.6,0C187.4,188.1,186.6,188.2,186,188.6
	L186,188.6z M188.7,192.9c0,0,0.1,0,0.1,0C188.7,192.9,188.7,192.9,188.7,192.9L188.7,192.9z M188.2,192.9c-0.1,0.1-0.2,0.1-0.4,0.2
	C188,193,188.1,193,188.2,192.9L188.2,192.9z M188.7,193.1c0.1,0.1,0.2,0.1,0.2,0.2C188.9,193.2,188.8,193.1,188.7,193.1
	L188.7,193.1z"/>
<path class="st0" d="M209,185.3c-0.8,0.1-1.6,0.4-2.1,1c-0.1,0.1-0.2,0.2-0.2,0.3c-0.5-0.4-1.1-0.6-1.7-0.6c-1.5,0-2.9,1.3-2.9,2.9
	c0,1.2,0.1,2.5,0.1,3.7c0,1.3,0.2,2.5,0.4,3.8c0.1,0.5,0.4,0.9,0.7,1.3c0.5,0.5,1.3,0.8,2,0.8c0.5,0,1-0.1,1.4-0.4
	c0.2-0.1,0.4-0.3,0.6-0.4c0.4-0.4,0.6-0.8,0.7-1.3c0.5-1.2,0.8-2.4,1.2-3.6c0.3-0.8,0.5-1.6,0.8-2.3c0.3,0.3,0.5,0.6,0.8,0.9
	c0.8,1.1,1.5,2.3,2.1,3.5c0.3,0.7,0.7,1.4,1,2.1c0.2,0.4,0.4,0.9,0.5,1.3c0.2,0.6,0.5,1.1,1.1,1.4c0.6,0.3,1.2,0.4,1.9,0.2
	c0.6-0.2,1.1-0.6,1.4-1.1c0.3-0.5,0.5-1.3,0.2-1.9c-0.5-1.3-1.1-2.6-1.7-3.9c-0.4-0.8-0.8-1.5-1.2-2.3c-0.8-1.4-1.8-2.6-2.8-3.8
	c-0.5-0.5-1.1-1-1.7-1.3c-0.6-0.3-1.2-0.4-1.8-0.4C209.6,185.3,209.3,185.3,209,185.3L209,185.3z M209.2,189.8
	c0.1,0,0.2,0.1,0.3,0.1C209.4,189.9,209.3,189.8,209.2,189.8L209.2,189.8z M209.4,190c0,0,0.1,0,0.1,0
	C209.5,190,209.5,190,209.4,190L209.4,190z"/>
<path class="st0" d="M240.2,184.9c-0.4,0.3-0.7,0.7-1,1.2c-0.5,0.6-1.1,1.1-1.7,1.6c0-0.5-0.1-1-0.4-1.5c-0.7-1.3-2.4-1.7-3.7-1
	c-0.7,0.4-1.4,0.9-2,1.6c-0.3,0.4-0.7,0.9-0.8,1.5c-0.1,0.5-0.2,1-0.1,1.5c0,0.9,0.4,1.9,0.9,2.7c0.3,0.4,0.7,1,1.2,1.2
	c0.3,0.1,0.6,0.3,0.9,0.4c0.3,0.1,0.7,0.2,1,0.2c1.2,0.1,2.4-0.2,3.4-0.7c-0.5,2.5-1,4.9-1.5,7.4c-1,5-2,9.9-2.4,15
	c-0.1,1.3,1.2,2.5,2.5,2.5c0.7,0,1.3-0.3,1.8-0.7c0.5-0.5,0.7-1.1,0.7-1.8c0.1-0.7,0.2-1.4,0.3-2.1c0.3-2,0.6-4,0.9-6
	c0.4-2.3,0.8-4.7,1.2-7c0.8-4.5,1.7-9.1,2.6-13.6c0.2-1-0.1-2.1-1.1-2.6c-0.4-0.2-0.8-0.3-1.2-0.3
	C241.2,184.2,240.7,184.5,240.2,184.9L240.2,184.9z M235.7,190.1c0,0,0,0.1-0.1,0.1C235.7,190.2,235.7,190.2,235.7,190.1
	C235.7,190.1,235.7,190.1,235.7,190.1L235.7,190.1z"/>
<path class="st0" d="M254.7,169.5c-0.1,3.2-0.2,6.4-0.2,9.6c0,2.9,0,5.8,0.2,8.6c0,0.6,0.2,1.2,0.7,1.6c0.4,0.4,1,0.7,1.6,0.7
	c1.2,0,2.3-1,2.3-2.3c-0.1-2.8,0-5.7,0.1-8.5c0.1-3.2,0.1-6.5,0.2-9.8c0-1.3-1.1-2.4-2.4-2.4C255.7,167,254.7,168.1,254.7,169.5
	L254.7,169.5z"/>
<path class="st0" d="M260.9,195.4c-0.5,0.8-1,1.5-1.5,2.3c-0.6,1.1-0.3,2.6,0.8,3.2c0.5,0.3,1.2,0.4,1.8,0.2c0.6-0.2,1-0.6,1.4-1.1
	c0.5-0.8,1.1-1.5,1.6-2.3c0.7-1.1,0.2-2.6-0.9-3.3c-0.4-0.2-0.8-0.3-1.2-0.3C262.2,194.2,261.4,194.7,260.9,195.4L260.9,195.4z"/>
<path class="st0" d="M290.1,174.7c0,3.4-0.1,6.8,0,10.2c0,1.8,0,3.6,0,5.3c0,0.8,0,1.6,0,2.4c0,1.5,0,3.1,0.4,4.5
	c0.3,1,1.2,1.8,2.3,1.8c1.3,0,2.4-1.1,2.4-2.4c0-0.1,0-0.2,0-0.4c-0.1-3.8-0.2-7.5-0.3-11.3c-0.1-3.4-0.1-6.8-0.1-10.2
	c0-1.3-1.1-2.4-2.4-2.4S290.1,173.4,290.1,174.7L290.1,174.7z"/>
<path class="st0" d="M309.2,164.6c-0.3,0-0.6,0.3-0.9,0.4c-0.3,0.2-0.5,0.4-0.8,0.6c-0.3,0.2-0.5,0.6-0.7,0.8
	c-0.2,0.3-0.4,0.5-0.5,0.8c-1,1.5-1.9,3.1-2.9,4.7c-0.6,1-1.1,2-1.7,2.9c-0.5,0.9-1.1,1.9-1.6,2.8c-0.3,0.5-0.7,1.1-1.1,1.6
	c-0.3,0.4-0.5,0.8-0.8,1.2c-0.2,0.2-0.4,0.4-0.6,0.6c-0.1,0.1-0.2,0.2-0.4,0.2c-0.1,0-0.1,0-0.2,0.1c-0.2-0.2-0.4-0.4-0.5-0.6
	c-0.9-1.2-1.7-2.4-2.6-3.5c-0.2-0.3-0.5-0.7-0.8-0.9c-0.4-0.4-0.9-0.5-1.5-0.5c-0.5,0-0.9,0.3-1.1,0.7c-0.1,0.2-0.2,0.4-0.2,0.6
	c-0.1,0.3-0.1,0.6-0.2,1c-0.1,0.7-0.1,1.4-0.2,2.1c-0.1,0.7-0.1,1.3-0.2,2c-0.1,0.5,0.4,0.9,0.9,0.9c0.5,0,0.8-0.4,0.9-0.9
	c0-0.3,0.1-0.6,0.1-0.9c0.1-0.4,0.1-0.9,0.2-1.3c0.1-0.5,0.1-0.9,0.2-1.4c0.2,0.3,0.4,0.7,0.6,1c0.2,0.4,0.5,0.9,0.7,1.3
	c0.5,0.9,0.9,1.8,1.4,2.7c0.2,0.4,0.5,0.7,0.9,0.9c0.4,0.2,0.8,0.3,1.2,0.4c0.4,0.1,0.8,0,1.2-0.1c0.5-0.1,0.9-0.3,1.3-0.4
	c0.3-0.1,0.6-0.4,0.9-0.7c0.3-0.2,0.5-0.4,0.7-0.7c0.6-0.6,1-1.3,1.5-2c0,0-0.1,0.1-0.1,0.1c0.7-1,1.4-1.9,2-3
	c0.4-0.6,0.7-1.2,1.1-1.8c0.5-0.9,1.1-1.8,1.6-2.6c0.9-1.5,1.9-3,2.8-4.4c0,0.1,0.1,0.2,0.1,0.3c0.5,1.2,0.7,2.5,0.9,3.8
	c0.9,7,0.6,14.1,0.9,21.1c0,0.6,0.2,1.2,0.7,1.6c0.4,0.4,1,0.7,1.6,0.7c1.3,0,2.3-1.1,2.3-2.3c-0.1-3.7-0.2-7.4-0.4-11.2
	c-0.2-3.8-0.4-7.7-1.1-11.5c-0.2-1.1-0.5-2.2-0.9-3.3c-0.4-1.2-1.1-2.3-2-3.2c-0.5-0.4-1-0.8-1.6-0.9c-0.2,0-0.4,0-0.6-0.1
	C309.7,164.5,309.4,164.6,309.2,164.6L309.2,164.6z M309,168.4c0.1,0,0.1,0,0.2,0.1C309.1,168.5,309.1,168.5,309,168.4L309,168.4z
	 M291.4,177.8c0,0,0.1,0.1,0.1,0.1C291.5,177.9,291.4,177.8,291.4,177.8L291.4,177.8z M291.6,181.4c0,0,0,0.1,0,0.1
	C291.6,181.5,291.6,181.4,291.6,181.4L291.6,181.4z M296.8,181.4c0,0,0.1,0,0.1,0.1c0,0,0,0,0,0
	C296.9,181.5,296.8,181.4,296.8,181.4L296.8,181.4z M297.2,181.4C297.2,181.4,297.1,181.5,297.2,181.4
	C297.1,181.5,297.2,181.4,297.2,181.4L297.2,181.4z M297.1,181.5C297.2,181.5,297.2,181.5,297.1,181.5
	C297.2,181.5,297.2,181.5,297.1,181.5C297.1,181.5,297.1,181.5,297.1,181.5L297.1,181.5z"/>
<path class="st0" d="M339.1,176.9c-1,1.5-2,2.9-3.1,4.3c-0.5,0.7-1.1,1.3-1.7,2c-0.6,0.7-1.1,1.3-1.8,1.8c-0.3,0.2-0.7,0.5-1,0.7
	c-0.5-1.7-0.8-3.4-1.1-5.2c0-0.2,0-0.3-0.1-0.5c-0.1-0.8-0.2-1.4-0.8-1.9c-0.5-0.5-1.2-0.8-1.9-0.8c-0.7,0-1.4,0.3-1.9,0.8
	c-0.5,0.5-0.9,1.2-0.8,1.9c0.2,1.7,0.4,3.3,0.8,4.9c0.2,1,0.4,2,0.8,2.9c0.4,1,0.9,1.8,1.6,2.6c0.8,0.8,1.8,1.1,2.9,1.1
	c0.8,0,1.7-0.3,2.4-0.7c0.4-0.2,0.8-0.4,1.2-0.7c-0.5,1.6-1.1,3.1-1.5,4.7c-0.9,2.8-1.8,5.7-2.6,8.5c-0.4,1.4-0.8,2.7-1.1,4.1
	c-0.3,1.5-0.6,3-0.9,4.6c-0.4,2.2-0.7,4.5-1,6.7c-0.1,0.6,0.3,1.4,0.7,1.8c0.5,0.5,1.1,0.7,1.8,0.7c0.7,0,1.3-0.3,1.8-0.7
	c0.5-0.5,0.7-1.1,0.7-1.8c0-0.2,0-0.3,0.1-0.5c0.4-2.8,0.9-5.5,1.4-8.3c0.3-1.4,0.6-2.7,1-4c0.3-1.2,0.6-2.4,0.9-3.5
	c0.8-2.7,1.6-5.5,2.5-8.2c0.9-2.8,1.9-5.7,2.8-8.5c0.8-2.3,1.5-4.6,2.3-6.8c0.4-1.1-0.2-2.3-1.2-2.9c-0.4-0.2-0.8-0.3-1.3-0.3
	C340.5,175.6,339.6,176.1,339.1,176.9L339.1,176.9z"/>
<path class="st0" d="M375.5,165.7c-0.3,0.1-0.6,0.2-0.9,0.3c-0.3,0.2-0.5,0.4-0.7,0.6c-0.1,0.1-0.1,0.2-0.2,0.2c-0.1,0-0.3,0-0.4,0
	c-0.8,0-1.5,0.3-2,0.8c-0.2,0.2-0.3,0.4-0.5,0.6c-0.3,0.4-0.4,0.9-0.4,1.5c-0.3,2.4-0.6,4.7-0.9,7.1c-0.3,1.2-0.6,2.4-0.7,3.7
	c-0.1,0.7-0.2,1.5-0.3,2.2c-0.1,0.7,0,1.4,0,2.1c0,1.3,0.9,2.4,2.1,2.8c0.8,0.2,1.6,0.1,2.2-0.3c0.7-0.4,1.1-1,1.3-1.7
	c0.3-1,0.4-2,0.5-3c0.1-0.5,0.1-1.1,0.2-1.6c0.1-1.1,0.3-2.2,0.4-3.3c0-0.2,0.1-0.5,0.1-0.7c0.3-1.1,0.6-2.2,1-3.3
	c0.2-0.7,0.4-1.3,0.7-2c0.2,0.4,0.4,0.7,0.6,1.1c1,2.6,1.6,5.4,2.2,8.1c0.4,1.9,1,3.9,1.9,5.7c0.5,0.9,1.6,1.3,2.5,1
	c1.1-0.3,2-1.6,1.6-2.8c-0.7-1.9-1-4-1.5-6c-0.4-1.6-0.7-3.1-1.1-4.6c-0.7-2.4-1.5-4.8-3.1-6.7c-0.7-0.9-1.6-1.5-2.6-1.7
	c-0.3-0.1-0.7-0.1-1-0.1C376.1,165.6,375.8,165.6,375.5,165.7L375.5,165.7z M376.2,170.5c0,0,0.1,0,0.1,0c0,0,0,0,0,0
	C376.3,170.5,376.2,170.5,376.2,170.5L376.2,170.5z"/>
<path class="st0" d="M401.6,162.2c-1,0.1-1.9,0.4-2.8,0.9c-0.7,0.4-1.4,1.1-2,1.7c-0.6,0.6-1.2,1.3-1.6,2.1c-0.9,1.4-1.7,3-2.2,4.6
	c-0.3,0.8-0.3,1.7-0.3,2.6c0,1,0.4,2.2,1.1,2.9c0.4,0.4,0.9,0.6,1.4,0.8c0.5,0.2,1.2,0.1,1.7,0c0.9-0.1,1.7-0.6,2.4-1.2
	c1.3-1.1,2.3-2.5,3.1-4c0.1,0.6,0.3,1.2,0.4,1.8c0.2,0.6,0.4,1.3,0.5,1.9c0.4,1.4,1.1,2.8,1.9,4.1c0.7,1.1,2.1,1.5,3.2,0.8
	c1.1-0.6,1.4-2.1,0.8-3.2c-0.3-0.5-0.5-0.9-0.7-1.4c-0.5-1.4-0.9-2.9-1.3-4.4c-0.2-0.9-0.5-1.9-0.7-2.8c-0.2-0.7-0.4-1.5-0.7-2.2
	c-0.2-0.4-0.3-0.8-0.6-1.1c0.1-0.2,0.2-0.4,0.3-0.6c0.4-1.4-0.4-2.7-1.8-3.1c-0.6-0.2-1.1-0.2-1.7-0.2
	C402,162.1,401.8,162.2,401.6,162.2L401.6,162.2z M396,172.5C396,172.5,396,172.5,396,172.5C396,172.5,396,172.5,396,172.5
	C396,172.5,396,172.5,396,172.5L396,172.5z"/>
<path class="st0" d="M431,157.9c-1.5,0.7-2.6,2.1-3.5,3.4c-0.3,0.5-0.6,1.1-0.9,1.6c-0.9-1.1-2-2-3.5-2.1c-0.8-0.1-1.6,0.2-2.3,0.5
	c0-0.2,0-0.4,0-0.5c-0.1-0.8-0.3-1.5-0.9-2.1c-0.6-0.6-1.3-0.9-2.1-0.9s-1.6,0.3-2.1,0.9c-0.5,0.5-0.9,1.4-0.9,2.1
	c0.3,3.5,0.5,7.1,0.8,10.6c0,0.5,0.1,1,0.4,1.5c0.4,0.7,1,1.2,1.8,1.4c0.5,0.1,1.1,0.1,1.6,0c0.7-0.2,1.5-0.7,1.8-1.4
	c0.2-0.5,0.4-0.9,0.6-1.4c0.1-0.5,0.2-1,0.2-1.5c0.2-1.2,0.6-2.5,1-3.6c0-0.1,0.1-0.2,0.1-0.3c0,0,0.1,0.1,0.1,0.1
	c0.5,0.7,0.8,1.4,1.2,2.2c0.2,0.5,0.4,1.1,0.5,1.7c0,0,0,0,0,0c0,0.2,0,0.5-0.1,0.7c-0.1,1.3,1.2,2.4,2.4,2.4c0.6,0,1.3-0.3,1.7-0.7
	c0.5-0.5,0.7-1.1,0.7-1.7c0,0,0-0.1,0-0.1c0-0.4,0.1-0.8,0.1-1.2c0.2-1.6,0.6-3.2,1.2-4.8c0.3-0.8,0.7-1.5,1.2-2.1
	c0.2-0.2,0.4-0.4,0.6-0.6c0.1-0.1,0.3-0.2,0.4-0.3c0.2,0,0.3-0.1,0.5-0.1c0,0,0,0,0,0c0,0,0.1,0,0.1,0c0.3,0.1,0.5,0.3,0.7,0.4
	c0.2,0.1,0.3,0.3,0.4,0.5c0.4,0.6,0.8,1.3,1.2,2c0.8,1.9,1.3,3.9,1.9,5.9c0.3,1.2,1.6,1.9,2.7,1.5c1.2-0.3,1.8-1.5,1.5-2.7
	c-0.4-1.6-0.8-3.2-1.4-4.8c-1.1-2.8-2.6-6-5.7-7c-0.5-0.2-1.1-0.3-1.6-0.3C432.7,157.3,431.8,157.5,431,157.9L431,157.9z
	 M433.3,161.5c0.1,0,0.1,0,0.2,0C433.4,161.5,433.4,161.5,433.3,161.5L433.3,161.5z"/>
<path class="st0" d="M455.8,151.2c-1.6,0.6-2.7,1.9-3.5,3.4c-0.7,1.3-1.2,2.8-1.5,4.2c-0.1,0-0.3,0.1-0.4,0.1
	c-1.3,0.3-2,1.7-1.7,2.9c0.3,0.9,1,1.6,1.9,1.7c0.1,0.6,0.2,1.2,0.4,1.9c0.3,0.9,0.8,1.7,1.2,2.5c0.5,0.8,1.1,1.6,1.7,2.3
	c0.6,0.7,1.1,1.5,1.9,2.1c0.2,0.2,0.5,0.4,0.8,0.6c0.3,0.1,0.6,0.3,0.9,0.4c0.7,0.1,1.3,0.2,2,0.1c0.6-0.1,1.2-0.2,1.8-0.4
	c0.7-0.3,1.4-0.6,2.1-1c1.2-0.8,2.1-1.7,3-2.8c1.1-1.4,1.9-3,2.7-4.6c0.6-1.1,1.1-2.2,1.5-3.4c0.1-0.4,0.1-0.8,0-1.2
	c-0.2-0.6-0.6-1.1-1.1-1.4c-0.5-0.3-1.2-0.4-1.8-0.2c-0.5,0.1-1.2,0.6-1.4,1.1c-0.4,0.9-0.8,1.7-1.3,2.6c-0.8,1.4-1.6,2.7-2.5,4
	c-0.5,0.6-1,1.1-1.5,1.5c-0.4,0.3-0.8,0.5-1.3,0.8c-0.3,0.1-0.6,0.2-0.8,0.2c-0.8-0.7-1.4-1.5-2.1-2.3c-0.5-0.7-0.9-1.4-1.3-2.2
	c-0.1-0.4-0.2-0.8-0.3-1.2c0-0.1,0-0.2,0-0.4c0.5-0.2,1-0.4,1.5-0.7c1.6-0.8,3.2-2,3.9-3.7c0.2-0.4,0.3-0.8,0.4-1.2
	c0.1-0.5,0.1-0.9,0.1-1.3c0-0.4-0.1-0.9-0.1-1.3c-0.1-0.5-0.2-1-0.4-1.4c-0.4-0.7-1-1.2-1.7-1.5c-0.5-0.2-0.9-0.4-1.5-0.4
	c-0.1,0-0.1,0-0.2,0C456.6,150.9,456.2,151,455.8,151.2L455.8,151.2z M457.6,155.5c-0.1,0-0.1,0-0.2,0
	C457.5,155.5,457.6,155.5,457.6,155.5L457.6,155.5z M458.5,168.3c0.1,0,0.1,0.1,0.2,0.1C458.7,168.4,458.6,168.4,458.5,168.3
	L458.5,168.3z M458.5,168.5c0.1,0,0.1,0,0.2,0.1C458.6,168.5,458.6,168.5,458.5,168.5L458.5,168.5z M459,168.6c0.1,0,0.1,0,0.2,0
	C459.1,168.6,459,168.6,459,168.6L459,168.6z"/>
<path class="st0" d="M492.6,147.2c0,1.6,1.4,3,3,3s3-1.4,3-3s-1.4-3-3-3S492.6,145.5,492.6,147.2L492.6,147.2z"/>
<path class="st0" d="M495.4,152.9c-0.3,1.6-0.6,3.2-0.9,4.7c-0.3,1.6-0.6,3.3-0.6,4.9c0,1.2,1,2.2,2.2,2.2c1.1,0,2.2-1,2.2-2.2
	c0-0.7,0-1.4,0-2c0-0.5,0.1-0.9,0.1-1.4c0.3-1.7,0.5-3.5,0.9-5.2c0.1-0.5,0.1-1-0.2-1.5c-0.3-0.4-0.7-0.8-1.2-0.9
	c-0.2,0-0.3-0.1-0.5-0.1C496.5,151.4,495.6,152,495.4,152.9L495.4,152.9z"/>
<path class="st0" d="M513.8,144.8c-0.7,0-1.3,0.4-1.9,0.7c-1,0.6-2,1.4-2.9,2.2c-0.5,0.4-0.8,0.9-1.2,1.4c-0.5,0.6-0.6,1.5-0.6,2.2
	c0,0.6,0.3,1.3,0.6,1.8c0.4,0.7,1,1.2,1.7,1.7c0.8,0.6,1.5,1.1,2.3,1.6c0.9,0.5,1.7,1.1,2.5,1.7c0.2,0.1,0.3,0.3,0.5,0.4
	c0,0,0,0.1,0.1,0.1c0,0.1,0,0.1,0.1,0.2c0,0.2,0,0.3,0,0.5c-0.1,0.3-0.2,0.7-0.3,1c-0.3,0.6-0.7,1.2-1.1,1.8
	c-0.6,0.7-1.2,1.3-1.9,1.9c-0.3,0.2-0.6,0.4-1,0.6c-0.2,0.1-0.3,0.1-0.5,0.1c-0.4,0-0.8,0-1.3,0c-0.2,0-0.4-0.1-0.7-0.1
	c-0.7-0.1-1.4-0.1-2,0.3c-0.6,0.3-1,0.9-1.2,1.6c-0.4,1.3,0.4,3,1.9,3.3c0.8,0.2,1.6,0.3,2.4,0.4c0.8,0.1,1.6,0,2.4-0.2
	c0.8-0.1,1.5-0.5,2.2-0.9c0.8-0.5,1.5-1.1,2.1-1.7c1.1-1,2-2.3,2.7-3.6c0.8-1.5,1.3-3.1,1.3-4.9c0-1.5-0.7-3.1-1.9-4
	c-0.8-0.6-1.6-1.2-2.5-1.7c-1.3-0.8-2.8-1.4-4.1-2.3c0,0,0,0,0,0c0.2-0.3,0.4-0.6,0.6-0.9c0.1-0.1,0.2-0.2,0.3-0.3
	c-0.2,0.7,0.3,1.4,0.9,1.5c0.7,0.2,1.4-0.2,1.6-0.9c0.3-0.8,0.5-1.5,0.8-2.3c0.1-0.1,0.1-0.2,0.1-0.3c0.1-0.3,0.2-0.6,0.2-0.9
	c0-0.5-0.3-1-0.7-1.3c-0.4-0.3-0.9-0.5-1.4-0.5C513.8,144.8,513.8,144.8,513.8,144.8L513.8,144.8z M511.3,150.5c0,0.1,0,0.1,0,0.2
	c0,0,0,0,0,0C511.3,150.6,511.3,150.6,511.3,150.5L511.3,150.5z M511.4,150.8c0,0,0.1,0.1,0.1,0.1
	C511.5,150.9,511.5,150.9,511.4,150.8L511.4,150.8z M511.4,150.9c0,0.1,0,0.1,0.1,0.2C511.4,151,511.4,150.9,511.4,150.9
	C511.4,150.9,511.4,150.9,511.4,150.9L511.4,150.9z M511.4,151c0,0.1,0,0.2,0,0.2C511.3,151.2,511.3,151.1,511.4,151L511.4,151z"/>
<path class="st0" d="M246.8,0.2c-1.6,0.2-3.2,0.6-4.7,1.1c-1.1,0.3-2.2,0.8-3.3,1.3c-1.5,0.7-3,1.4-4.5,2.3
	c-2.3,1.3-4.5,2.8-6.5,4.4c-1.9,1.5-3.8,2.9-5.7,4.4c0,0-0.1,0-0.1,0c-0.3-0.2-0.6-0.4-0.9-0.6c0.2,0.1,0.3,0.2,0.5,0.4
	c-1.9-1.6-3.6-3.5-5.5-5.1c-0.9-0.7-1.8-1.4-2.7-2c-1-0.7-2.2-1.1-3.3-1.5c-1.2-0.4-2.4-0.6-3.7-0.7c-1.3-0.2-2.7,0-4.1,0.1
	c-2.8,0.3-5.7,1.1-8.3,2.3c-1.3,0.6-2.5,1.2-3.8,1.9c-1.1,0.6-2.2,1.4-3.2,2.1c-1.8,1.2-3.5,2.6-5.1,4c-0.8,0.7-1.7,1.4-2.5,2.1
	c-0.9,0.8-1.9,1.6-2.8,2.4c-0.1,0.1-0.2,0.1-0.3,0.2c-0.1,0-0.1-0.1-0.2-0.1c-1.4-1.4-2.6-3-3.9-4.6c-1.5-1.9-3.2-3.4-5.2-4.8
	c-1.7-1.2-3.6-1.9-5.6-2.3c-1.2-0.3-2.4-0.3-3.6-0.4c-1.1,0-2.3,0.2-3.4,0.4c-2.1,0.4-4.1,1.2-6.1,2.1c-2.5,1.1-4.7,2.7-6.9,4.2
	c-2.1,1.5-4.1,3.1-6.3,4.5c0,0,0,0,0,0c-0.3,0-0.6,0-1-0.1c0.1,0,0.3,0,0.4,0.1c0,0,0,0,0,0c0,0,0,0,0,0c0.1,0,0.1,0,0.2,0
	c-0.1,0-0.2-0.1-0.3-0.1c-0.1,0-0.2-0.1-0.2-0.1c-0.4-0.4-0.9-0.9-1.2-1.4c-1.2-1.6-2.1-3.4-3.1-5.2c-0.6-1-1.2-2-1.9-2.9
	c-0.4-0.5-0.7-0.9-1.2-1.3c-0.4-0.4-0.8-0.7-1.2-1c-1.5-1.2-3.2-1.8-5-2.1c-1.2-0.2-2.4-0.2-3.6,0c-1.2,0.1-2.4,0.5-3.5,0.9
	c-2.1,0.8-4.1,1.9-6,3.2c-1.2,0.8-2.4,1.7-3.5,2.5c-1.5,1.1-2.9,2.3-4.4,3.5c-1.1-1.8-2.1-3.7-3.5-5.4c-0.6-0.8-1.2-1.5-2-2.1
	c-0.5-0.4-1-0.7-1.6-1c-0.7-0.4-1.6-0.7-2.4-1c-0.5-0.2-1.1-0.3-1.7-0.3c-0.6-0.1-1.3-0.2-1.9-0.2c-1.4-0.1-2.9,0.3-4.2,0.6
	C81.3,4.9,80.1,5.5,79,6c-1.4,0.6-2.6,1.5-3.8,2.4c-2.4,1.9-4.5,4.1-6.4,6.5c-1,1.3-2,2.6-3,4c-1.3,1.8-2.5,3.6-3.8,5.3
	c-0.6-0.5-1.3-1.1-1.9-1.7c-0.4-0.3-0.8-0.6-1.2-0.9c-0.5-0.3-1-0.6-1.6-0.8c-0.5-0.2-1-0.4-1.5-0.5c-0.5-0.1-1.1-0.1-1.6-0.1
	c-0.5,0.1-1.1,0.1-1.6,0.2c-0.3,0.1-0.6,0.2-0.9,0.3c-0.4,0.2-0.9,0.4-1.3,0.6c-2.2,1.2-4.1,2.8-5.9,4.5c-0.4,0.4-0.9,0.9-1.3,1.3
	c-0.1,0.1-0.3,0.3-0.4,0.4c-0.1,0.2-0.3,0.3-0.4,0.5c-0.2,0.2-0.3,0.4-0.5,0.6c-1,0.2-1.8,1.3-1.8,2.4c0,0.7,0.3,1.3,0.7,1.8
	c0.4,0.4,1.1,0.8,1.8,0.7c0.2,0,0.4,0,0.6-0.1c-1.2,0.5-2.4,1.1-3.6,1.7c-2.1,1-4.2,2.2-6.3,3.4c-4.2,2.5-8.1,5.4-11.8,8.6
	c-3.5,3.1-6.5,6.6-9.4,10.3c-3.1,4-5.6,8.5-7.8,13.1c-1.9,4.1-3.2,8.4-3.9,12.9C0.2,85.6,0,87.7,0,89.8c0,2.7,0.5,5.4,1.3,8
	c0.6,2.1,1.6,4,2.7,5.9c0.6,1,1.4,2,2.2,2.9c0.8,1,1.7,1.8,2.6,2.7c0.5,0.5,1.1,0.9,1.7,1.4c0.7,0.5,1.3,0.9,2.1,1.3
	c0.3,0.1,0.6,0.3,0.8,0.4c-0.3,1.3-0.7,2.7-0.9,4c-0.3,1.7-0.7,3.3-1,5c-0.1,0.6-0.2,1.3-0.3,1.9c-0.2,1.2-0.3,2.4-0.5,3.6
	c-0.5,3.4-0.7,6.9-0.5,10.3c0.1,1.9,0.4,3.7,0.8,5.5c0.4,2.1,1.3,4,2.3,5.9c0.8,1.4,1.9,2.7,3,3.8c0.5,0.5,1.2,1,1.8,1.5
	c1,0.7,2.1,1.3,3.3,1.9c3.2,1.5,6.7,2.3,10.2,2.9c1.2,0.2,2.4,0.3,3.7,0.5c0,0.2-0.1,0.3-0.1,0.5c-0.2,0.7-0.4,1.4-0.5,2
	c-0.1,0.4-0.2,0.7-0.3,1.1c-0.3,1.1-0.6,2.1-0.8,3.2c-0.3,1.2-0.5,2.4-0.8,3.6c-0.2,0.8-0.4,1.6-0.5,2.5c-0.2,1.3-0.4,2.6-0.6,4
	c-0.1,1-0.3,2-0.4,2.9c-0.2,2.4-0.4,4.7-0.6,7.1c-0.1,0.7-0.1,1.5-0.1,2.2c-0.1,1.5-0.1,2.9-0.2,4.4c-0.1,1.8,0,3.5,0.1,5.3
	c0.1,1.2,0.2,2.5,0.4,3.7c0.3,1.7,0.6,3.3,1.1,4.9c0.3,1.1,0.8,2.1,1.2,3.2c0.5,1.2,1.3,2.4,2.1,3.4c1.6,2.1,3.6,3.7,5.8,5.1
	c1.3,0.8,2.6,1.5,4,2.1c0.4,0.2,0.9,0.4,1.3,0.5c-0.7,2.9-1.4,5.8-2.1,8.7c-1.2,5.1-2.1,10.2-2.2,15.4c0,1.3,0.2,2.5,0.4,3.8
	c0.2,1.1,0.5,2.2,1,3.2c0.3,0.6,0.6,1.2,1,1.8c0.3,0.4,0.7,0.9,1,1.3c0.3,0.4,0.7,0.8,1.1,1.2c0.5,0.5,1.2,0.9,1.8,1.2
	c0.9,0.4,1.8,0.6,2.7,0.7c0.5,0.1,1,0.1,1.5,0.1c0.8,0,1.6-0.2,2.4-0.3c1.5-0.2,2.8-0.7,4.2-1.2c0,0,0,0.1,0,0.1
	c0.2,0.5,0.3,1,0.4,1.5c0.2,1.8,0.3,3.6,0.4,5.4c0,1.2,0,2.4,0,3.5c0,1.9,0,3.8,0.1,5.7c0.1,1.9,0.3,3.8,0.7,5.6
	c0.3,1.7,1.1,3.3,2,4.7c0.4,0.6,0.8,1.1,1.3,1.6c0.5,0.5,1,1,1.6,1.4c0.6,0.4,1.1,0.8,1.7,1.1c0.2,0.1,0.3,0.1,0.5,0.2
	c0.5,0.2,0.9,0.4,1.4,0.5c0,0,0,0,0.1,0c0.3,0.3,0.5,0.5,0.7,0.9c-0.1-0.1-0.2-0.3-0.3-0.4c0.4,0.6,0.7,1.2,1,1.8
	c1.6,4.6,2.5,9.3,4.1,13.9c0.7,2.1,1.6,4.1,2.6,6c0.5,1,1.1,1.9,1.8,2.7c0.4,0.5,0.9,1.1,1.4,1.5c0.5,0.5,1,0.9,1.6,1.3
	c1.5,1.2,3.2,1.9,4.9,2.5c1,0.4,2,0.6,3.1,0.7c1.1,0.2,2.3,0.2,3.4,0.2c2,0,4.1-0.5,6-1.1c1-0.3,1.9-0.8,2.9-1.2
	c0.7-0.3,1.4-0.8,2.1-1.3c0,0,0,0,0,0c1,0.8,1.9,1.7,2.7,2.7c1,1.1,2,2.1,3,3.2c1,1,2.2,1.9,3.3,2.8c1.3,1,2.8,1.8,4.3,2.4
	c1.4,0.6,2.9,1,4.4,1.3c1.5,0.3,3.1,0.3,4.6,0.2c3-0.3,5.9-1.4,8.5-2.9c2.8-1.6,5.2-3.7,7.5-5.8c1.1-1,2.2-2,3.3-3
	c0.8-0.7,1.5-1.5,2.4-2.1c1.1-0.8,2.1-1.7,3.2-2.5c0.4-0.3,0.8-0.6,1.3-0.9c0.5-0.3,1.1-0.6,1.7-0.9c-0.2,0.1-0.3,0.1-0.5,0.2
	c0.3-0.1,0.5-0.2,0.8-0.2c0.1,0,0.3,0,0.4,0c0.3,0,0.5,0.1,0.8,0.2c0.7,0.4,1.4,0.8,2.1,1.2c1.1,1,2.2,2,3.3,3.1
	c1.1,1.1,2.1,2.2,3.3,3.2c1.1,1,2.3,1.9,3.4,2.7c1.3,0.9,2.7,1.6,4.1,2.3c0.5,0.2,0.9,0.4,1.4,0.5c0.9,0.3,1.8,0.5,2.7,0.6
	c1.4,0.2,2.8,0.2,4.3,0c1.5-0.1,2.9-0.5,4.3-1c0.8-0.3,1.6-0.7,2.4-1c0.9-0.4,1.9-0.9,2.8-1.4c3.9-2.1,7.5-4.8,11.1-7.4
	c0.9-0.7,1.9-1.4,2.8-2c1.2-0.9,2.4-1.8,3.7-2.6c0.1,0,0.1-0.1,0.2-0.1c0,0,0,0,0,0c0.1,0.1,0.2,0.1,0.3,0.2
	c0.3,0.3,0.5,0.6,0.8,0.9c-0.1-0.1-0.2-0.3-0.3-0.4c0.7,1,1.3,1.9,2,2.9c0.9,1.3,2,2.4,3.2,3.5c0.9,0.8,2,1.5,3.1,2.1
	c1.4,0.8,2.9,1.1,4.5,1.4c1.2,0.2,2.4,0.2,3.6,0.1c1.4-0.1,2.7-0.5,4-0.9c1-0.4,2-0.8,3-1.3c0.4-0.2,0.8-0.4,1.2-0.7
	c0.2-0.1,0.4-0.2,0.6-0.4c0.3-0.2,0.6-0.4,0.9-0.5c0.2,0,0.3-0.1,0.5-0.1c0.2,0,0.5,0,0.7,0c0.2,0,0.4,0.1,0.6,0.1
	c0.5,0.2,1,0.4,1.6,0.6c1.4,0.6,2.8,1.4,4.2,2c0.8,0.4,1.7,0.8,2.5,1.1c1,0.4,1.9,0.7,2.9,1.1c1.5,0.5,3,0.8,4.5,1
	c1,0.1,2,0.2,3.1,0.2c0.9,0,1.7-0.2,2.6-0.3c1.7-0.2,3.3-0.9,4.9-1.5c1.7-0.6,3.3-1.5,4.8-2.4c1.6-0.9,3.1-1.9,4.6-2.9
	c0.8-0.5,1.5-1,2.3-1.5c0.8-0.5,1.6-0.9,2.4-1.2c0.4-0.1,0.8-0.2,1.1-0.3c0.8-0.1,1.5-0.1,2.3,0c0.5,0.1,1.1,0.2,1.6,0.4
	c0.5,0.2,1.1,0.4,1.6,0.6c1.6,0.7,3.1,1.5,4.6,2.3c0.8,0.4,1.7,0.8,2.5,1.2c0.8,0.4,1.6,0.7,2.3,1c1,0.4,2,0.7,3.1,0.9
	c0.8,0.2,1.6,0.2,2.4,0.3c2.1,0.2,4.3-0.2,6.3-0.7c2.9-0.8,5.6-2.3,8.2-3.8c2.2-1.3,4.4-2.5,6.8-3.5c0.4-0.2,0.9-0.3,1.4-0.4
	c0.6-0.1,1.1-0.1,1.7,0c-0.2,0-0.4-0.1-0.5-0.1c0.7,0.1,1.4,0.2,2,0.4c0.9,0.2,1.8,0.6,2.6,0.9c2.2,1,4.3,2.1,6.4,3.2
	c2.1,1.1,4.2,2,6.4,2.7c2,0.7,4.2,1.1,6.3,1.3c2.1,0.2,4.2-0.1,6.2-0.5c2-0.4,3.9-1.3,5.7-2.1c1.7-0.8,3.4-1.9,4.9-2.9
	c0.9-0.6,1.8-1.2,2.6-1.8c0.4-0.2,0.7-0.5,1.1-0.7c0.5-0.3,1-0.6,1.5-0.9c0.5-0.3,1-0.6,1.5-0.8c0,0,0,0,0,0c0,0,0,0,0,0
	c0.1,0,0.2-0.1,0.3-0.1c-0.1,0-0.2,0.1-0.3,0.1c0.1,0,0.1,0,0.2,0c-0.1,0-0.1,0-0.2,0c-0.1,0-0.1,0.1-0.2,0.1c0.2,0,0.4-0.1,0.6-0.1
	c0.3,0,0.5,0,0.8,0c0.2,0,0.4,0.1,0.5,0.1c0.4,0.1,0.8,0.2,1.2,0.4c2.3,1.1,4.3,2.7,6.5,4c1.9,1.1,4,2,6.2,2.3
	c0.6,0.1,1.2,0.2,1.8,0.1c0.5,0,1-0.1,1.5-0.1c0.6-0.1,1.2-0.2,1.8-0.3c0.6-0.1,1.2-0.3,1.8-0.6c1-0.4,2.1-0.9,3.1-1.3
	c0.5-0.3,1.1-0.5,1.6-0.8c0.8-0.4,1.5-0.7,2.3-1c1.7-0.7,3.3-1.2,5.1-1.5c1.8-0.1,3.6-0.1,5.4,0.1c2.1,0.3,4.1,0.7,6.2,1.1
	c1.9,0.3,3.8,0.7,5.7,0.9c2,0.2,4,0.2,6,0.2c2.2-0.1,4.3-0.6,6.3-1.2c3.5-1.1,6.6-3,9.4-5.2c1.6-1.3,3.2-2.7,4.7-4.1
	c0.8-0.7,1.5-1.4,2.3-2.1c1-0.9,2-1.8,3.1-2.6c0.7-0.6,1.5-1.1,2.3-1.5c0.7-0.4,1.5-0.8,2.2-1.1c2.7-1.1,5.5-1.7,8.4-2.1
	c1.6-0.2,3.2-0.3,4.8-0.5c1.4-0.1,2.8-0.2,4.2-0.3c1.9-0.2,3.7-0.6,5.5-1.3c1.4-0.5,2.8-1.4,4-2.2c1.5-1,2.9-2.2,4.3-3.4
	c1.4-1.3,2.6-2.8,3.9-4.2c1.2-1.3,2.2-2.8,3.3-4.2c-0.1,0.1-0.2,0.3-0.3,0.4c1.4-1.8,2.8-3.6,4.1-5.4c0.4-0.5,0.8-0.9,1.2-1.3
	c0,0,0,0,0,0c0.1,0,0.3,0,0.4,0c0,0,0,0,0.1,0c-0.1,0-0.2,0-0.3,0c0.2,0.1,0.4,0.1,0.6,0.2c0.2,0.1,0.3,0.2,0.5,0.2
	c0.5,0.3,1.1,0.7,1.6,1.1c0.9,0.6,1.8,1.3,2.7,1.9c0.9,0.6,1.9,1.2,3,1.7c1,0.5,2.1,0.8,3.1,1.1c0.7,0.2,1.6,0.2,2.3,0.2
	c0.5,0,1-0.1,1.4-0.1c0.6-0.1,1.2-0.2,1.8-0.3c1.1-0.2,2.1-0.7,3.1-1.1c1.1-0.5,2.2-1.2,3.2-1.9c1.7-1.1,3.3-2.5,4.8-3.8
	c1.5-1.3,2.8-2.7,4.2-4.1c1.7-1.8,3.4-3.6,5.3-5.1c0.2-0.1,0.4-0.3,0.6-0.4c0.4-0.3,0.8-0.5,1.3-0.7c0.2-0.1,0.5-0.2,0.7-0.2
	c0.5-0.1,1-0.2,1.5-0.3c0.6-0.1,1.3-0.1,1.9-0.1c1.1,0,2.1-0.1,3.2-0.2c1.5-0.1,3-0.5,4.5-0.9c1.4-0.4,2.7-1.1,3.9-1.9
	c1.2-0.8,2.2-1.7,3.2-2.7c2.2-2,3.9-4.6,5.4-7.1c1.9-3.2,3.2-6.8,4.2-10.4c1.4-5,2-10.2,2.5-15.4c0.1-1.1,0.2-2.2,0.2-3.3
	c0.1-1.3,0.1-2.6,0.2-3.9c0,0,0,0,0-0.1c0.3-0.3,0.6-0.7,0.8-1c0.8-1,1.5-2,2.1-3.1c1.2-1.9,2.2-4,3.2-6.1c1.9-4,3.5-8.2,4.6-12.4
	c0.6-2.2,1-4.4,1.2-6.6c0.1-1,0.2-1.9,0.3-2.9c0.1-1.3,0.1-2.6,0-3.8c-0.1-2.1-0.6-4.2-1.2-6.3c-0.6-1.9-1.6-3.7-2.6-5.5
	c-0.2-0.6-0.5-1.3-0.7-1.9c-0.2-0.7-0.3-1.4-0.4-2.2c-0.2-2.2-0.3-4.5-0.2-6.7c0-1.3,0-2.7,0.1-4c0-1.2,0-2.4,0-3.6
	c0-2.4-0.2-4.8-0.6-7.2c-0.4-2.4-1.1-4.8-1.9-7.1c-0.9-2.3-2-4.4-3.3-6.4c-1.1-1.6-2.4-3-3.7-4.5c-0.7-0.8-1.4-1.6-2-2.4
	c-1.1-1.5-2.1-3-3-4.7c-0.8-1.5-1.5-3-2.2-4.6c-0.9-2.5-1.9-5-2.8-7.6c-1-2.8-2.2-5.4-3.7-8c-0.6-1-1.3-2-2-2.9
	c-1-1.2-2.1-2.4-3.3-3.4c-0.5-0.4-1-0.8-1.6-1.1c-0.5-0.3-1.1-0.6-1.7-0.9c-1.4-0.7-2.8-1.1-4.3-1.4c-1.2-0.2-2.4-0.3-3.5-0.4
	c-0.6,0-1.3,0-1.9,0.1c-0.8,0.1-1.7,0.2-2.5,0.3c-3,0.4-5.9,1.1-8.8,1.8c0,0-0.1,0-0.1,0c-0.1,0-0.2,0-0.3-0.1
	c-0.1,0-0.2-0.1-0.3-0.1c-0.1-0.1-0.2-0.1-0.3-0.2c-0.3-0.3-0.6-0.6-0.9-1c-0.7-0.9-1.3-1.9-1.9-2.8c-0.8-1.2-1.7-2.4-2.6-3.6
	c-0.8-1.1-1.8-2-2.8-2.9c-1.1-0.9-2.4-1.6-3.8-2.2c-2.4-1.1-5.1-1.3-7.7-1.1c-1.3,0.1-2.6,0.4-3.9,0.7c-1.8,0.4-3.5,1.1-5.2,1.6
	c-2.8,1-5.5,2.3-8.3,3.5c-1,0.4-2,0.9-3,1.3c-2.2,0.9-4.4,1.9-6.6,2.8c-1.5,0.6-3.1,1.2-4.6,1.8c-1.8,0.7-3.7,1.3-5.6,1.7
	c-0.2,0-0.4,0-0.6,0.1c-0.5,0-1,0-1.5,0c-0.1,0-0.2,0-0.4-0.1c-0.4-0.1-0.8-0.2-1.2-0.4c0,0,0,0,0.1,0.1c0,0,0,0-0.1-0.1
	c-0.1-0.1-0.2-0.1-0.3-0.2c0.1,0,0.2,0.1,0.3,0.1c0,0-0.1-0.1-0.1-0.1c0,0,0.1,0.1,0.1,0.1c0.1,0,0.2,0.1,0.3,0.1
	c-0.2-0.1-0.4-0.3-0.6-0.4c-0.3-0.2-0.6-0.5-0.8-0.8c-0.4-0.4-0.8-0.9-1.1-1.3c0.1,0.2,0.3,0.3,0.4,0.5c-0.5-0.7-1-1.4-1.4-2.2
	c-0.4-0.7-0.7-1.5-1-2.2c0.1,0.1,0.1,0.2,0.2,0.4c-0.4-1-0.8-1.9-1.3-2.9c-0.9-2.2-1.8-4.4-2.8-6.5c-0.6-1.2-1.2-2.4-1.8-3.6
	c-0.6-1.1-1.4-2.2-2.2-3.2c-1.5-2-3.2-3.6-5.1-5.1c-0.9-0.7-1.9-1.3-2.9-1.9c-1.4-0.8-2.9-1.3-4.4-1.8c-1.3-0.4-2.6-0.7-4-0.9
	c-1.2-0.2-2.4-0.3-3.6-0.4c-2.5-0.1-5.1,0.1-7.6,0.3c-1.2,0.1-2.3,0.2-3.5,0.3c-0.8,0.1-1.7,0.1-2.5,0.2c-1.5,0.1-3,0.1-4.6-0.1
	c-0.9-0.2-1.7-0.4-2.6-0.7c0.2,0.1,0.4,0.2,0.6,0.2c-0.6-0.2-1.2-0.5-1.8-0.8c-0.7-0.4-1.4-0.8-2.1-1.3c-0.7-0.6-1.4-1.3-2-2
	c-0.6-0.6-1.1-1.3-1.6-2c0,0,0.1,0.1,0.1,0.1c-1-1.4-1.9-2.9-2.9-4.4c-0.5-0.8-1.1-1.6-1.6-2.5c-0.5-0.8-1.1-1.6-1.6-2.3
	c-0.9-1.1-1.8-2.1-2.9-3.1c-1.2-1.2-2.7-2.1-4.2-2.9c-3-1.5-6.3-2-9.6-1.9c-1.6,0-3.1,0.3-4.6,0.5c-2,0.4-4,1-6,1.6
	c-1.6,0.5-3.2,1.2-4.8,1.9c-1,0.4-1.9,0.8-2.9,1.2c-1.7,0.7-3.3,1.5-5,2.2c-2.4,1-4.7,2-7.1,3c0.1,0,0.1-0.1,0.2-0.1
	c-0.1,0.1-0.3,0.1-0.4,0.2c0,0-0.1,0-0.1,0c0,0,0,0,0,0c-0.5,0.2-0.9,0.4-1.4,0.6c-1,0.4-2,0.7-3,0.9c-0.1,0-0.2,0-0.2,0
	c0,0,0,0,0,0c-0.1-0.1-0.3-0.2-0.4-0.3c-0.3-0.3-0.6-0.5-0.8-0.8c-0.1-0.1-0.2-0.2-0.3-0.3c-0.3-0.5-0.6-1-0.8-1.6
	c-0.4-0.8-0.7-1.6-1.1-2.4c-0.5-1.2-1-2.4-1.5-3.5c-0.8-1.7-1.6-3.3-2.6-4.9c-0.8-1.2-1.8-2.4-3-3.2c-0.2-0.2-0.5-0.3-0.7-0.5
	c-0.5-0.3-1-0.6-1.6-0.8c-0.8-0.3-1.5-0.5-2.4-0.7c-1.9-0.4-3.8-0.3-5.6,0c-1.6,0.2-3.2,0.6-4.7,1c-2,0.6-3.9,1.2-5.9,1.6
	c-0.6,0-1.1,0-1.7,0c-0.1,0-0.3,0-0.4-0.1c-0.5-0.1-0.9-0.2-1.4-0.4c-0.3-0.1-0.6-0.3-0.8-0.4c-0.5-0.3-1-0.6-1.4-1
	c0.1,0.1,0.3,0.2,0.4,0.3c-0.7-0.6-1.3-1.1-1.9-1.7c-0.8-0.8-1.6-1.7-2.3-2.6c-0.6-0.7-1.2-1.3-1.8-2c-0.9-1-1.8-1.8-2.8-2.7
	c-1.5-1.4-3.4-2.6-5.4-3.3c-0.3-0.1-0.7-0.2-1-0.4c-0.6-0.2-1.3-0.3-1.9-0.4c-1.2-0.2-2.3-0.3-3.5-0.3c-0.9,0-1.9,0.1-2.8,0.2
	c-1.4,0.2-2.9,0.5-4.3,0.9c-1,0.3-2,0.7-3,1c-1.2,0.4-2.3,0.9-3.5,1.4c-2.6,1.1-5,2.4-7.5,3.6c0.2-0.1,0.4-0.1,0.5-0.2
	c-0.3,0.1-0.6,0.3-0.9,0.3c-0.1,0-0.2,0-0.3,0c-0.1,0-0.3-0.1-0.4-0.1c0.1,0,0.1,0.1,0.2,0.1c0,0,0,0,0,0c0,0,0,0,0.1,0
	c0.1,0,0.1,0.1,0.2,0.1c0,0,0,0,0,0c-0.3-0.1-0.5-0.2-0.7-0.4c-0.3-0.3-0.6-0.6-0.9-0.9c0.1,0.1,0.2,0.2,0.2,0.3
	c-0.4-0.4-0.7-0.9-1-1.3c-0.3-0.5-0.6-1.1-0.9-1.6c-0.7-1.4-1.5-2.7-2.3-4.1c-1.2-2.1-2.7-4.1-4.5-5.6c-1.8-1.5-4.1-2.4-6.5-2.6
	c-0.6,0-1.1-0.1-1.7-0.1C248.7,0,247.8,0.1,246.8,0.2L246.8,0.2z M251.3,4.4C251.3,4.4,251.3,4.4,251.3,4.4c0.1,0,0.2,0,0.4,0.1
	c0.5,0.1,0.9,0.2,1.4,0.4c0.7,0.3,1.2,0.7,1.8,1.1c0.7,0.6,1.3,1.2,1.9,1.9c1.7,2.3,3,4.9,4.4,7.5c0.6,1.2,1.4,2.2,2.3,3.2
	c0.4,0.5,1,0.9,1.6,1.3c0.2,0.1,0.5,0.2,0.7,0.3c0.4,0.2,0.8,0.3,1.3,0.4c1.1,0.2,2.1,0.1,3.1-0.3c1.2-0.5,2.3-1.1,3.5-1.7
	c1.8-0.9,3.5-1.7,5.3-2.5c1.3-0.5,2.6-1,3.8-1.4c1.7-0.6,3.4-0.9,5.2-1.2c0.6-0.1,1.2-0.1,1.8-0.1c0.8,0,1.6,0.1,2.4,0.2
	c0.3,0.1,0.6,0.1,0.9,0.2c0.6,0.1,1.2,0.3,1.7,0.5c0.5,0.2,1.1,0.5,1.6,0.8c0.5,0.3,0.9,0.6,1.4,0.9c1.2,1,2.4,2.1,3.4,3.3
	c1.2,1.3,2.3,2.6,3.5,4c0.9,1,1.9,1.9,2.9,2.7c0.2,0.2,0.4,0.3,0.7,0.5c0.5,0.4,1,0.7,1.6,0.9c0.8,0.4,1.6,0.6,2.4,0.8
	c0.5,0.1,1,0.1,1.6,0.2c0.9,0,1.7,0,2.6-0.1c0.3-0.1,0.7-0.1,1-0.2c0.7-0.2,1.3-0.3,2-0.5c0.2-0.1,0.5-0.1,0.7-0.2
	c2.2-0.6,4.4-1.3,6.7-1.7c-0.2,0-0.4,0.1-0.6,0.1c0.7-0.1,1.4-0.2,2.1-0.2c0.6,0,1.2,0,1.8,0c0.2,0,0.4,0.1,0.6,0.1
	c0.6,0.1,1.1,0.3,1.7,0.5c0.2,0.1,0.3,0.1,0.5,0.2c0.3,0.2,0.7,0.4,1,0.6c0.5,0.5,1,1,1.5,1.5c1.3,1.9,2.2,3.9,3.1,6
	c0.8,2.1,1.7,4.2,2.7,6.3c0.5,0.9,1.2,1.8,1.9,2.5c0.6,0.7,1.5,1.2,2.3,1.6c0.4,0.2,0.8,0.4,1.3,0.4c0.5,0.1,1,0.1,1.5,0
	c1.2-0.2,2.4-0.6,3.6-1.1c1.2-0.5,2.4-1,3.6-1.5c3.8-1.6,7.6-3.3,11.3-4.9c2.1-0.9,4.3-1.8,6.5-2.5c2.2-0.8,4.5-1.3,6.9-1.7
	c0.8-0.1,1.7-0.2,2.5-0.2c1,0,2,0,3,0.1c-0.2,0-0.4-0.1-0.6-0.1c0.6,0.1,1.3,0.2,1.9,0.3c0.9,0.2,1.8,0.5,2.7,0.8
	c-0.2-0.1-0.4-0.2-0.6-0.2c0.6,0.2,1.2,0.5,1.7,0.8c0.5,0.2,0.9,0.5,1.3,0.8c1.3,1,2.4,2.2,3.4,3.4c1.3,1.7,2.4,3.6,3.6,5.4
	c0.6,0.9,1.1,1.8,1.7,2.6c0.7,1,1.5,2,2.2,2.9c0.6,0.8,1.3,1.5,2,2.2c0.8,0.8,1.9,1.5,2.8,2.2c0.8,0.5,1.7,0.9,2.6,1.3
	c1.1,0.5,2.2,0.7,3.3,0.9c3.4,0.6,6.8,0.1,10.1-0.2c1.3-0.1,2.6-0.2,4-0.3c2.6-0.2,5.2-0.2,7.8,0.1c0.9,0.1,1.9,0.3,2.8,0.5
	c1,0.2,1.9,0.6,2.9,1c0.5,0.2,1,0.4,1.4,0.7c0.8,0.4,1.6,1,2.3,1.5c0.6,0.5,1.2,1,1.8,1.5c0.8,0.8,1.6,1.6,2.3,2.5
	c0.9,1.3,1.8,2.6,2.5,4c0.8,1.4,1.4,2.8,2,4.3c0.8,2,1.6,4.1,2.5,6.1c0.4,1,0.8,1.9,1.2,2.8c0.5,1.1,1.1,2.1,1.8,3
	c0.6,0.9,1.3,1.7,2.1,2.4c0.4,0.3,0.8,0.6,1.1,0.9c0.2,0.1,0.5,0.3,0.7,0.4c0.4,0.2,0.9,0.4,1.3,0.6c0.5,0.2,1.1,0.3,1.7,0.3
	c0.5,0.1,1,0.1,1.5,0.1c1.2,0.1,2.3-0.1,3.5-0.4c0.7-0.2,1.3-0.4,2-0.6c0.7-0.2,1.3-0.4,2-0.6c1.6-0.5,3.2-1.2,4.8-1.8
	c2.4-1,4.8-2,7.1-3c3-1.3,6-2.6,9-3.9c3.2-1.3,6.4-2.5,9.8-3.1c0.5-0.1,1-0.1,1.4-0.1c0.8,0,1.6,0,2.4,0.1c0.8,0.2,1.6,0.4,2.5,0.6
	c0.4,0.2,0.8,0.4,1.1,0.6c0.5,0.3,0.9,0.6,1.4,0.9c0.4,0.3,0.8,0.7,1.1,1.1c0.4,0.5,0.8,0.9,1.2,1.4c0.7,0.9,1.3,1.8,1.9,2.7
	c0.8,1.1,1.5,2.3,2.3,3.4c0.4,0.5,0.8,1,1.2,1.4c0.4,0.3,0.8,0.7,1.2,1c0.5,0.2,1,0.4,1.5,0.6c0.3,0.1,0.6,0.1,0.9,0.2
	c0.5,0.1,1,0.1,1.4,0c1.2-0.1,2.3-0.5,3.5-0.8c2-0.5,3.9-0.9,5.9-1.2c0.8-0.1,1.6-0.2,2.4-0.2c1-0.1,1.9,0,2.9,0.1
	c-0.2,0-0.4-0.1-0.6-0.1c0.7,0.1,1.3,0.2,2,0.3c0.8,0.2,1.6,0.4,2.3,0.7c0.5,0.3,1.1,0.5,1.6,0.9c0.4,0.2,0.7,0.5,1.1,0.8
	c0.5,0.4,1,0.9,1.5,1.4c0.4,0.4,0.7,0.8,1.1,1.3c0.7,1,1.4,2,2,3.1c0.6,1.1,1.2,2.3,1.7,3.4c1.7,4.1,3,8.4,4.9,12.5
	c0.8,1.8,1.7,3.5,2.8,5.2c0.9,1.5,2,2.8,3,4.2c0.5,0.6,1,1.2,1.5,1.7c1,1.1,2,2.2,2.9,3.3c0.5,0.7,1,1.4,1.4,2.1
	c0.6,1,1.1,2,1.6,3.1c0.4,1.1,0.8,2.2,1.2,3.3c0.5,1.6,0.8,3.3,1.1,5c0.4,3.7,0.3,7.3,0.2,11c0,3.1-0.1,6.3,0.3,9.4
	c0.1,0.6,0.2,1.3,0.3,1.9c0.2,0.8,0.5,1.6,0.8,2.4c0.3,0.8,0.7,1.5,1.1,2.3c0.2,0.3,0.4,0.6,0.5,0.9c0.3,0.5,0.5,1,0.7,1.5
	c0.7,1.7,1.1,3.5,1.4,5.4c0.1,1.2,0.2,2.5,0.2,3.7c0,1.1-0.2,2.3-0.3,3.4c-0.4,2.6-0.9,5.1-1.7,7.6c-0.7,2.3-1.5,4.6-2.5,6.8
	c0,0,0,0,0,0c-0.9,2.1-1.9,4.2-2.9,6.2c-0.9,1.8-2,3.5-3.3,5.2c-0.3,0.3-0.6,0.6-0.8,1c-0.3,0.3-0.5,0.7-0.7,1.1
	c-0.1,0.4-0.2,0.8-0.2,1.3c0,0.6-0.1,1.1-0.1,1.7c0,1.1,0,2.1-0.1,3.2c-0.2,2.8-0.4,5.6-0.8,8.3c-0.3,2.3-0.8,4.5-1.3,6.7
	c-0.6,2.7-1.5,5.3-2.5,7.8c-1.1,2.6-2.5,5-4.2,7.2c-1.3,1.6-2.6,3-4.2,4.2c-0.4,0.3-0.8,0.5-1.2,0.8c-0.4,0.2-0.8,0.5-1.3,0.7
	c-0.6,0.2-1.1,0.4-1.7,0.6c-0.8,0.3-1.7,0.4-2.5,0.5c-0.7,0.1-1.3,0.1-2,0.2c-0.4,0-0.7,0-1.1,0.1c-0.7,0-1.4,0.1-2.2,0.2
	c-1.2,0.1-2.6,0.4-3.7,1c-0.6,0.3-1.1,0.6-1.6,0.9c-0.6,0.4-1.2,0.9-1.8,1.4c-0.7,0.6-1.4,1.3-2.1,1.9c-1,1-2,2.1-3,3.1
	c-0.9,0.9-1.8,1.8-2.7,2.7c-1.3,1.2-2.6,2.4-4,3.5c-1.6,1.2-3.4,2.3-5.2,3.1c-0.5,0.2-1,0.3-1.5,0.5c-0.6,0.1-1.2,0.2-1.8,0.3
	c0.2,0,0.4,0,0.5-0.1c-0.3,0-0.6,0-0.9,0.1c-0.6,0-1.2,0-1.8-0.1c0.2,0,0.4,0.1,0.5,0.1c-0.8-0.2-1.6-0.5-2.4-0.8
	c-1.4-0.7-2.8-1.6-4.1-2.5c-0.7-0.5-1.4-1-2.1-1.5c-0.5-0.4-1.1-0.7-1.7-0.9c-0.4-0.2-0.7-0.3-1.1-0.4c-0.2,0-0.3,0-0.5-0.1
	c-0.4-0.1-0.9-0.1-1.3,0c-0.2,0-0.3,0-0.5,0.1c-0.4,0.1-0.7,0.3-1,0.5c-0.5,0.3-0.9,0.8-1.3,1.3c-0.7,0.8-1.3,1.6-1.9,2.5
	c-1.1,1.4-2.2,2.8-3.3,4.2c-1.2,1.5-2.4,3-3.7,4.4c-0.6,0.7-1.3,1.4-1.9,2.1c-0.9,0.9-1.8,1.7-2.8,2.5c-0.7,0.5-1.5,1.1-2.2,1.6
	c-0.8,0.5-1.7,1-2.6,1.4c-0.5,0.2-1,0.4-1.6,0.5c-0.9,0.3-1.9,0.4-2.9,0.6c-1.3,0.1-2.6,0.2-3.9,0.3c-0.9,0.1-1.9,0.2-2.8,0.3
	c-3.1,0.3-6.1,0.8-9,1.7c-1.4,0.4-2.7,0.9-4,1.5c-1.6,0.7-3.2,1.7-4.6,2.8c-1.7,1.3-3.2,2.7-4.8,4.1c-1.5,1.4-3,2.7-4.6,4
	c-1,0.7-2,1.4-3,2.1c-1.2,0.8-2.5,1.5-3.9,2.1c-1.8,0.7-3.6,1.2-5.4,1.5c-2.7,0.3-5.5,0.2-8.2-0.1c-2.4-0.4-4.8-0.8-7.2-1.3
	c-1.3-0.2-2.6-0.5-3.9-0.7c-1.3-0.1-2.6-0.2-3.9-0.2c-2.5,0-4.9,0.6-7.2,1.4c-2.2,0.8-4.2,1.9-6.3,2.8c-0.7,0.3-1.5,0.6-2.2,0.9
	c-0.7,0.2-1.5,0.4-2.2,0.5c-0.3,0-0.6,0-0.9,0.1c-0.6,0-1.2,0-1.8-0.1c0.2,0,0.4,0.1,0.6,0.1c-0.8-0.2-1.6-0.4-2.4-0.7
	c-1.3-0.6-2.5-1.3-3.7-2c-0.8-0.5-1.5-1-2.3-1.5c-0.9-0.6-1.8-1-2.7-1.5c-0.4-0.2-0.9-0.4-1.3-0.5c-0.3-0.1-0.6-0.2-0.9-0.2
	c-0.5-0.1-0.9-0.2-1.4-0.2c-0.7,0-1.4,0-2,0.1c-0.2,0.1-0.5,0.1-0.7,0.2c-0.5,0.2-1,0.4-1.4,0.6c-0.6,0.3-1.1,0.6-1.7,1
	c-0.5,0.3-1.1,0.7-1.6,1c-0.8,0.5-1.5,1-2.3,1.5c-0.7,0.5-1.5,1-2.2,1.5c-1.5,1-3.1,1.8-4.7,2.5c-0.8,0.3-1.5,0.6-2.3,0.8
	c-0.8,0.2-1.7,0.4-2.5,0.5c-0.5,0.1-1,0.1-1.6,0.1c-0.9,0-1.7,0-2.6-0.1c-1.2-0.2-2.3-0.4-3.5-0.7c-1.4-0.4-2.7-0.9-4-1.4
	c-1.4-0.6-2.9-1.3-4.3-2.1c-0.9-0.5-1.9-0.9-2.8-1.4c-0.8-0.4-1.6-0.8-2.4-1.1c-0.6-0.3-1.3-0.5-2-0.7c-1-0.3-2-0.5-3.1-0.7
	c-1.6-0.2-3.2,0-4.8,0.5c-0.4,0.2-0.8,0.4-1.3,0.6c-0.8,0.3-1.6,0.7-2.3,1.1c-0.9,0.4-1.7,0.9-2.6,1.4c-2,1.1-4.1,2.3-6.2,3.3
	c-0.8,0.3-1.7,0.6-2.5,0.9c-0.8,0.2-1.6,0.4-2.4,0.5c-1.2,0.1-2.4,0.1-3.6,0c-0.2,0-0.3-0.1-0.5-0.1c-0.7-0.1-1.4-0.3-2.1-0.6
	c-0.8-0.3-1.6-0.6-2.4-0.9c-1.1-0.5-2.2-1.1-3.3-1.6c-1.3-0.6-2.6-1.4-4-1.9c-0.5-0.2-0.9-0.4-1.4-0.6c-0.9-0.4-1.9-0.6-2.9-0.8
	c-1.2-0.2-2.4-0.2-3.6,0c-0.6,0.1-1.2,0.2-1.8,0.4c-0.5,0.2-1,0.4-1.4,0.6c-1.4,0.6-2.7,1.5-4,2.3c-2.6,1.6-5.2,3.2-8,4.5
	c-1.8,0.7-3.6,1.3-5.4,1.6c0.2,0,0.4-0.1,0.6-0.1c-0.7,0.1-1.3,0.2-2,0.2c-1,0.1-2.1-0.1-3.1-0.2c0.2,0,0.4,0.1,0.6,0.1
	c-1-0.2-2-0.4-3-0.6c-1.2-0.3-2.5-0.8-3.6-1.2c-1.5-0.7-3-1.4-4.5-2.1c-0.7-0.4-1.5-0.7-2.3-1c-0.3-0.1-0.6-0.2-0.9-0.4
	c-0.6-0.2-1.2-0.4-1.9-0.5c-0.7-0.1-1.5-0.1-2.2,0c-0.3,0.1-0.7,0.1-1,0.2c-0.4,0.2-0.8,0.3-1.2,0.5c-0.2,0.1-0.5,0.3-0.7,0.4
	c-0.4,0.2-0.7,0.5-1.1,0.7c-0.6,0.4-1.3,0.6-1.9,0.9c0,0,0.1,0,0.1-0.1c-0.6,0.2-1.1,0.4-1.7,0.6c-0.7,0.2-1.4,0.4-2.2,0.5
	c-0.3,0-0.6,0-0.8,0.1c-0.6,0-1.1,0-1.7,0c-0.3,0-0.5-0.1-0.8-0.1c-0.7-0.1-1.3-0.3-2-0.6c-0.5-0.2-0.9-0.4-1.4-0.7
	c-0.6-0.4-1.2-0.8-1.7-1.2c0.2,0.1,0.3,0.2,0.4,0.3c-0.5-0.4-1.1-0.9-1.5-1.4c-0.3-0.4-0.7-0.8-1-1.2c-0.5-0.7-1-1.5-1.6-2.2
	c-0.3-0.4-0.5-0.7-0.8-1c-0.3-0.4-0.6-0.8-1-1.1c-0.7-0.6-1.5-0.9-2.4-1.2c-0.4-0.1-0.8-0.1-1.3,0c-0.4,0-0.9,0.1-1.3,0.3
	c-0.7,0.3-1.4,0.7-2,1.2c-0.4,0.3-0.8,0.6-1.2,0.9c-0.8,0.5-1.5,1.1-2.2,1.6c-1.6,1.2-3.2,2.3-4.8,3.4c-1.4,1-2.9,2-4.3,3
	c-2.3,1.5-4.7,2.8-7.2,3.9c-0.5,0.2-1.1,0.4-1.6,0.6c-0.8,0.3-1.6,0.4-2.4,0.5c-0.5,0.1-1.1,0.1-1.6,0.1c-0.7,0-1.5,0-2.2-0.1
	c-0.9-0.2-1.7-0.4-2.5-0.7c-0.7-0.3-1.4-0.7-2.1-1c-1-0.5-1.9-1.2-2.7-1.8c-1-0.8-1.9-1.6-2.8-2.5c-0.9-0.8-1.7-1.7-2.6-2.6
	c-1-0.9-1.9-1.8-2.9-2.6c-0.9-0.7-1.8-1.2-2.8-1.7c-0.4-0.2-0.9-0.4-1.3-0.5c-0.5-0.1-0.9-0.1-1.4-0.2c-0.5,0-0.9,0.1-1.4,0.2
	c-0.5,0.1-0.9,0.3-1.3,0.5c-0.6,0.2-1.2,0.5-1.7,0.9c-0.6,0.4-1.1,0.8-1.7,1.2c-0.3,0.2-0.6,0.5-0.9,0.7c-1,0.8-1.9,1.5-2.9,2.2
	c-0.6,0.5-1.2,1.1-1.8,1.6c-2.4,2.1-4.7,4.3-7.1,6.3c-1.6,1.1-3.2,2.2-5,3c-0.8,0.3-1.5,0.6-2.3,0.8c-0.8,0.2-1.6,0.4-2.4,0.5
	c-1,0.1-2,0.1-3,0c0.2,0,0.4,0.1,0.6,0.1c-0.7-0.1-1.4-0.2-2.1-0.3c-0.9-0.2-1.8-0.5-2.6-0.8c-0.8-0.4-1.6-0.8-2.4-1.2
	c-0.7-0.4-1.3-0.9-2-1.4c-0.7-0.6-1.4-1.2-2.1-1.8c-0.6-0.6-1.2-1.2-1.8-1.9c-0.6-0.6-1.2-1.3-1.8-1.9c-0.8-0.8-1.6-1.6-2.5-2.3
	c-0.5-0.4-1-0.7-1.6-0.9c-0.2,0-0.4-0.1-0.6-0.1c-0.4-0.1-0.8-0.1-1.1,0c-0.2,0-0.4,0.1-0.6,0.1c-0.4,0.1-0.8,0.4-1.1,0.7
	c-0.7,0.5-1.5,0.9-2.2,1.2c-1.6,0.6-3.2,1-4.8,1.3c-0.5,0.1-1,0.1-1.5,0.1c-0.8,0-1.6,0-2.5-0.1c-0.6-0.1-1.2-0.2-1.8-0.4
	c-0.5-0.2-1.1-0.3-1.6-0.5c-1-0.4-1.9-0.9-2.8-1.5c0.2,0.1,0.3,0.2,0.5,0.4c-0.6-0.4-1.1-0.8-1.6-1.3c-0.4-0.4-0.8-0.8-1.2-1.3
	c-1.2-1.6-2.1-3.4-2.9-5.2c-0.8-2-1.4-4-2-6c-0.7-2.5-1.3-4.9-2.1-7.4c-0.3-0.8-0.5-1.6-0.8-2.4c-0.4-1-0.8-1.8-1.4-2.7
	c-0.4-0.6-0.9-1.1-1.4-1.6c-0.5-0.5-1.2-0.7-1.9-0.9c-0.5-0.3-1-0.5-1.5-0.9c-0.7-0.6-1.3-1.2-1.9-1.8c-0.2-0.3-0.4-0.6-0.6-0.9
	c-0.3-0.5-0.6-1.1-0.8-1.7c0.1,0.2,0.2,0.4,0.2,0.5c-0.4-1.1-0.6-2.1-0.8-3.2c-0.3-2.4-0.3-4.8-0.3-7.2c0-2.9,0-5.9-0.3-8.8
	c-0.1-1.6-0.3-3.3-1-4.8c-0.3-0.6-0.5-1.2-1-1.7c-0.4-0.4-0.8-0.8-1.4-1c-0.2,0-0.3-0.1-0.5-0.1c-0.4-0.1-0.8-0.1-1.2-0.1
	c-0.6,0-1.1,0.2-1.7,0.4c-1.1,0.4-2.3,0.6-3.5,0.8c-0.5,0-0.9,0.1-1.4,0.1c-0.3,0-0.7,0-1,0c-0.4-0.1-0.8-0.2-1.2-0.3
	c-0.2-0.1-0.4-0.2-0.5-0.3c-0.4-0.3-0.7-0.7-1-1.1c-0.1-0.1-0.2-0.3-0.3-0.4c-0.3-0.5-0.6-1-0.9-1.5c-0.2-0.5-0.3-0.9-0.4-1.4
	c-0.1-0.4-0.2-0.9-0.3-1.3c-0.2-2.5,0-5,0.2-7.5c0.4-2.7,0.9-5.4,1.5-8c0.4-1.7,0.8-3.4,1.2-5.1c0.3-1.1,0.6-2.3,0.8-3.4
	c0.2-0.8,0.3-1.6,0.5-2.4c0.1-0.6,0.1-1.3,0-1.9c-0.1-0.4-0.3-0.8-0.6-1c-0.4-0.3-0.8-0.8-1.4-0.9c-0.6-0.1-1.2-0.3-1.9-0.5
	c-1.9-0.9-3.7-1.9-5.4-3.1c-1.1-0.9-2.1-1.8-3-2.9c-0.3-0.4-0.6-0.8-0.8-1.2c-0.5-0.7-0.8-1.5-1.2-2.3c-0.8-2.3-1.4-4.6-1.7-6.9
	c-0.5-4.3-0.2-8.6-0.1-12.8c0-1,0.1-2,0.2-3c0.1-1.6,0.3-3.2,0.4-4.9c0.3-1.9,0.6-3.8,0.8-5.8c0.1-0.7,0.2-1.3,0.4-2
	c0.3-1.3,0.5-2.6,0.8-3.9c0.2-0.8,0.4-1.6,0.6-2.4c0.3-1.4,0.7-2.8,1.1-4.2c0.1-0.6,0.2-1.3,0.3-1.9c0.1-0.5,0.1-0.9,0-1.4
	c0-0.4-0.1-0.8-0.3-1.2c-0.2-0.4-0.5-0.7-0.9-0.9c-0.3-0.3-0.6-0.5-1-0.6c-0.5-0.1-1-0.1-1.6-0.2c-0.3,0-0.5-0.1-0.8-0.1
	c-3.7-0.6-7.3-1.3-10.8-2.7c-0.5-0.2-1-0.5-1.5-0.7c-0.8-0.4-1.5-0.8-2.2-1.3c-0.9-0.7-1.6-1.5-2.3-2.4c-0.6-0.9-1.1-1.8-1.6-2.7
	c-0.3-0.7-0.6-1.5-0.8-2.2c-0.3-0.9-0.4-1.9-0.6-2.8c-0.4-3.8-0.2-7.6,0.2-11.3c0.2-1.3,0.4-2.7,0.6-4c0.2-1.1,0.4-2.3,0.6-3.4
	c0.2-1.3,0.5-2.6,0.8-3.9c0.2-0.9,0.4-1.9,0.6-2.8c0.2-0.7,0.3-1.3,0.4-2c0-0.2,0.1-0.4,0.1-0.7c0-0.4-0.1-0.8-0.2-1.2
	c-0.2-0.8-1-1.5-1.7-1.7c-0.5-0.1-1-0.3-1.5-0.4c-0.8-0.4-1.5-0.8-2.2-1.3c-1.4-1.2-2.7-2.5-3.9-3.9c-0.6-0.8-1.1-1.6-1.6-2.4
	C7,99.6,6.7,98.8,6.3,98c-0.3-0.8-0.6-1.6-0.9-2.5c-0.3-1-0.5-2-0.7-3c-0.1-1.2-0.2-2.5-0.2-3.7c0-1.4,0.1-2.9,0.3-4.3
	c0.6-3.9,1.7-7.7,3.1-11.3c2.3-5.3,5.3-10.3,8.8-14.9c1.7-2.1,3.5-4.2,5.4-6.1c1.9-1.9,3.9-3.6,6-5.3C33.4,43,39,39.6,45,37
	c1-0.4,2.1-0.8,3.1-1.3c0.9-0.4,1.7-1,2.5-1.6c0.8-0.7,0.7-2,0-2.7c-0.4-0.4-0.9-0.6-1.4-0.6c-0.6,0-0.9,0.2-1.4,0.6c0,0,0,0,0,0
	c-0.8,0.5-1.6,1-2.4,1.4c-0.2,0.1-0.3,0.1-0.5,0.2c0,0,0,0,0,0c0.4-0.3,0.8-0.6,1.2-1c0.3-0.3,0.6-0.6,0.8-0.9
	c1.3-1.4,2.6-2.8,4.1-4c0.4-0.3,0.8-0.6,1.2-0.8c0.5-0.3,0.9-0.5,1.4-0.7c-0.2,0.1-0.4,0.2-0.6,0.2c0.4-0.2,0.8-0.3,1.3-0.4
	c0.2,0,0.4,0,0.6,0c0.2,0,0.3,0.1,0.5,0.1c0.1,0.1,0.2,0.1,0.3,0.2c0.3,0.2,0.6,0.3,0.9,0.5c0.9,0.8,1.8,1.6,2.7,2.4
	c0.5,0.3,1,0.7,1.5,0.8c0.6,0.1,1.1,0.2,1.7,0.2c0.5,0,0.9-0.1,1.3-0.3c0.2-0.1,0.3-0.2,0.5-0.3c0.3-0.2,0.7-0.5,1-0.8
	c0.2-0.2,0.3-0.4,0.5-0.6c0.3-0.4,0.6-0.8,0.8-1.1c0.2-0.3,0.4-0.6,0.6-0.8c1.7-2.5,3.4-5,5.2-7.4c1.8-2.3,3.8-4.5,6.1-6.3
	c0.4-0.3,0.8-0.6,1.2-0.8c0.8-0.6,1.7-1,2.6-1.4c-0.2,0.1-0.4,0.2-0.6,0.2c0.6-0.3,1.3-0.5,1.9-0.7c0.6-0.2,1.1-0.3,1.7-0.4
	c0.4,0,0.8-0.1,1.3-0.1c0.6,0,1.3,0,1.9,0.1c-0.2,0-0.4-0.1-0.6-0.1c0.6,0.1,1.3,0.3,1.9,0.5c0.2,0.1,0.3,0.2,0.5,0.2
	c0.4,0.2,0.8,0.4,1.1,0.7c0.5,0.4,0.9,0.9,1.2,1.4c1.1,1.6,2,3.3,3,5c0.4,0.6,0.8,1.1,1.2,1.6c0.3,0.3,0.7,0.5,1,0.7
	c0.4,0.2,0.7,0.3,1.2,0.3c0.2,0,0.4,0.1,0.6,0.1c0.4,0,0.8-0.1,1.2-0.3c0.4-0.1,0.7-0.4,1-0.7c0.4-0.3,0.8-0.7,1.2-1
	c0.9-0.7,1.7-1.4,2.6-2.1c0.8-0.6,1.6-1.2,2.4-1.8c2.1-1.6,4.4-2.9,6.8-4c0.3-0.1,0.6-0.2,0.8-0.3c0.5-0.2,1.1-0.3,1.6-0.4
	c0.2,0,0.5-0.1,0.7-0.1c0.6,0,1.1,0,1.7,0c0.2,0,0.4,0.1,0.6,0.1c0.5,0.1,1,0.3,1.5,0.5c0.4,0.2,0.8,0.4,1.1,0.6
	c0.3,0.2,0.5,0.4,0.7,0.7c0.4,0.4,0.8,0.9,1.2,1.4c-0.1-0.2-0.2-0.3-0.4-0.5c0.5,0.8,1,1.6,1.5,2.5c0.4,0.7,0.8,1.5,1.2,2.2
	c0.5,0.8,0.9,1.6,1.4,2.4c0.4,0.6,0.9,1.3,1.4,1.9c0.5,0.6,1,1.1,1.6,1.6c0.2,0.1,0.4,0.3,0.6,0.4c0.4,0.2,0.8,0.3,1.3,0.5
	c0.2,0,0.4,0.1,0.6,0.1c0.5,0.1,1,0.1,1.5,0c0.2,0,0.4-0.1,0.6-0.1c0.4-0.2,0.8-0.3,1.2-0.5c1.9-1.3,3.8-2.8,5.6-4.1
	c1-0.8,2.1-1.5,3.2-2.2c1.6-1.1,3.4-2,5.1-2.8c1.7-0.7,3.4-1.1,5.1-1.5c0.4,0,0.9-0.1,1.3-0.1c0.5,0,1.1,0,1.6,0.1
	c0.6,0.1,1.2,0.2,1.7,0.4c0.4,0.1,0.9,0.3,1.3,0.4c1,0.5,1.9,1,2.8,1.7c1.3,1.1,2.4,2.2,3.5,3.5c0.3,0.3,0.5,0.7,0.8,1
	c0.5,0.7,1,1.4,1.6,2c0.4,0.5,0.8,0.9,1.2,1.4c0.5,0.6,1.1,1,1.7,1.4c0.4,0.2,0.8,0.4,1.3,0.5c0.2,0,0.4,0.1,0.6,0.1
	c0.5,0.1,0.9,0.1,1.4,0c0.4-0.2,0.8-0.3,1.2-0.5c0.6-0.4,1.2-0.9,1.7-1.3c0.6-0.5,1.2-1,1.8-1.5c0.4-0.3,0.7-0.6,1.1-0.9
	c1.6-1.4,3.2-2.7,4.9-4.1c1.3-0.9,2.5-1.8,3.9-2.7c1.4-0.9,2.9-1.6,4.4-2.3c0.9-0.4,1.8-0.7,2.7-1c1.2-0.4,2.5-0.6,3.8-0.8
	c0.6-0.1,1.2-0.1,1.8-0.1c0.9-0.1,1.7,0,2.6,0.1c0.3,0.1,0.6,0.1,0.9,0.2c0.7,0.2,1.4,0.4,2,0.7c0.4,0.2,0.9,0.4,1.3,0.7
	c0.5,0.3,1,0.7,1.5,1.1c-0.2-0.1-0.3-0.2-0.5-0.4c0.5,0.4,0.9,0.7,1.4,1.1c0.7,0.6,1.3,1.2,1.9,1.8c0.5,0.5,1,1,1.5,1.5
	c0.6,0.6,1.2,1.1,1.9,1.6c0.4,0.4,0.9,0.7,1.4,0.9c0.2,0.1,0.4,0.2,0.6,0.2c0.5,0.1,0.9,0.2,1.4,0.2c0.5,0,0.9-0.1,1.4-0.2
	c0.6-0.2,1.1-0.5,1.6-0.9c1.8-1.6,3.7-3.1,5.6-4.6c1.6-1.2,3.3-2.4,5-3.5c1.9-1.2,3.8-2.2,5.8-3c2-0.8,4-1.4,6.2-1.7
	C248.9,4.4,250.1,4.4,251.3,4.4L251.3,4.4z M85.2,8.8c-0.1,0-0.2,0-0.3,0C85,8.8,85.1,8.8,85.2,8.8L85.2,8.8z M121.5,8.9
	c0.1,0,0.1,0.1,0.2,0.1C121.6,8.9,121.6,8.9,121.5,8.9L121.5,8.9z M122.5,9.3c0.1,0.1,0.3,0.2,0.4,0.3
	C122.8,9.5,122.6,9.4,122.5,9.3L122.5,9.3z M209.3,9.4c0.2,0.1,0.3,0.1,0.5,0.2C209.7,9.5,209.5,9.4,209.3,9.4L209.3,9.4z
	 M91.5,10.2c0.1,0.1,0.3,0.2,0.4,0.3C91.8,10.4,91.6,10.3,91.5,10.2L91.5,10.2z M156.4,11.5c-0.1,0-0.3,0-0.4,0.1
	C156.2,11.6,156.3,11.6,156.4,11.5L156.4,11.5z M159.7,11.6c0,0,0.1,0,0.1,0C159.8,11.6,159.8,11.6,159.7,11.6L159.7,11.6z M78.4,12
	c-0.1,0.1-0.2,0.1-0.3,0.2C78.2,12.1,78.3,12,78.4,12L78.4,12z M162.8,12.4c0,0,0.1,0,0.1,0.1C162.9,12.5,162.9,12.5,162.8,12.4
	L162.8,12.4z M222.3,13.8c0.1,0,0.1,0,0.2,0.1C222.5,13.9,222.4,13.8,222.3,13.8L222.3,13.8z M294.4,13.9c0.1,0,0.1,0.1,0.2,0.1
	C294.5,14,294.5,13.9,294.4,13.9L294.4,13.9z M105.5,15.2c0,0-0.1,0.1-0.1,0.1C105.4,15.3,105.5,15.2,105.5,15.2L105.5,15.2z
	 M266.7,15.6c0.1,0.1,0.2,0.2,0.3,0.3C266.9,15.8,266.8,15.7,266.7,15.6L266.7,15.6z M267.9,16.2c0,0,0.1,0,0.1,0
	C267.9,16.3,267.9,16.3,267.9,16.2C267.9,16.2,267.9,16.2,267.9,16.2L267.9,16.2z M135.7,18.1c-0.1,0-0.2,0-0.3,0
	C135.5,18.1,135.6,18.1,135.7,18.1L135.7,18.1z M311.6,23.1c0.1,0.1,0.3,0.1,0.4,0.2C311.8,23.2,311.7,23.2,311.6,23.1L311.6,23.1z
	 M314.1,23.8c0.1,0,0.2,0,0.3,0C314.3,23.8,314.2,23.8,314.1,23.8L314.1,23.8z M62.3,24c-0.1,0.1-0.1,0.2-0.2,0.3l0,0
	C62.2,24.2,62.3,24.1,62.3,24L62.3,24z M62,24.2c0,0,0.1,0.1,0.1,0.1c0,0,0,0,0,0C62.1,24.3,62,24.2,62,24.2L62,24.2z M62.8,24.7
	c0.1,0,0.1,0,0.2,0.1C62.9,24.7,62.8,24.7,62.8,24.7L62.8,24.7z M61.6,24.8c-0.1,0-0.1,0.1-0.2,0.1C61.5,24.9,61.5,24.9,61.6,24.8
	L61.6,24.8z M55,25.2c0,0-0.1,0-0.1,0c0,0,0,0,0,0C54.9,25.2,55,25.2,55,25.2L55,25.2z M54.8,25.3C54.8,25.3,54.8,25.3,54.8,25.3
	C54.8,25.3,54.8,25.3,54.8,25.3C54.8,25.3,54.8,25.3,54.8,25.3L54.8,25.3z M56.7,26.1c0.1,0.1,0.3,0.2,0.4,0.3
	C57,26.4,56.9,26.3,56.7,26.1L56.7,26.1z M333.8,26.8c0.1,0.1,0.2,0.2,0.3,0.3C334.1,27,334,26.9,333.8,26.8L333.8,26.8z M404.9,45
	c0,0,0.1,0.1,0.1,0.1C405,45.1,405,45,404.9,45L404.9,45z M17,58c0,0-0.1,0.1-0.1,0.1C17,58.1,17,58,17,58L17,58z M8,73.3
	c0,0.1-0.1,0.2-0.2,0.4C7.9,73.6,7.9,73.4,8,73.3L8,73.3z M505.3,75.6c-0.1,0-0.2,0-0.3,0C505.1,75.6,505.2,75.6,505.3,75.6
	L505.3,75.6z M511.3,75.9c0.2,0.1,0.3,0.1,0.5,0.2C511.7,76.1,511.5,76,511.3,75.9L511.3,75.9z M514.1,77.4c0,0,0.1,0.1,0.1,0.1
	C514.2,77.5,514.1,77.4,514.1,77.4L514.1,77.4z M495.6,78.7c-0.1,0-0.1,0-0.2,0.1C495.5,78.7,495.5,78.7,495.6,78.7L495.6,78.7z
	 M524.5,82.7c0.1,0.1,0.2,0.2,0.3,0.4C524.7,83,524.6,82.8,524.5,82.7L524.5,82.7z M548.3,89.9c0.1,0.1,0.3,0.2,0.4,0.3
	C548.6,90.1,548.4,90,548.3,89.9L548.3,89.9z M46.8,246.2c0,0.1,0,0.2,0,0.3C46.8,246.3,46.8,246.2,46.8,246.2L46.8,246.2z
	 M552.4,251.2c-0.1,0-0.2,0.1-0.3,0.1C552.2,251.3,552.3,251.3,552.4,251.2L552.4,251.2z M49.3,252c0.1,0.1,0.2,0.2,0.4,0.3
	C49.6,252.2,49.5,252.1,49.3,252L49.3,252z M50.6,252.8c0,0,0.1,0,0.1,0C50.6,252.8,50.6,252.8,50.6,252.8L50.6,252.8z M51,252.9
	c0.1,0,0.3,0,0.4,0.1C51.3,253,51.1,252.9,51,252.9L51,252.9z M59.1,256.4c0.1,0.2,0.2,0.3,0.2,0.5
	C59.3,256.7,59.2,256.6,59.1,256.4L59.1,256.4z M501.9,268.8c0.1,0,0.2,0,0.2,0C502,268.8,502,268.8,501.9,268.8
	C501.9,268.8,501.9,268.8,501.9,268.8L501.9,268.8z M496.3,268.9c-0.1,0.1-0.2,0.2-0.2,0.3C496.1,269.1,496.2,269,496.3,268.9
	L496.3,268.9z M66.7,280.7c0.1,0.2,0.2,0.3,0.4,0.5C67,281.1,66.8,280.9,66.7,280.7L66.7,280.7z M372.9,308.4c0.1,0,0.2,0.1,0.3,0.1
	C373.1,308.5,373,308.5,372.9,308.4L372.9,308.4z M214.2,309.2c0.1,0.1,0.2,0.2,0.2,0.3C214.4,309.4,214.3,309.3,214.2,309.2
	L214.2,309.2z M154.9,309.7c0.2,0,0.3,0,0.5,0.1C155.2,309.7,155.1,309.7,154.9,309.7L154.9,309.7z M156.3,310
	c0.1,0,0.2,0.1,0.2,0.1C156.5,310.1,156.4,310.1,156.3,310L156.3,310z M278.7,310.9c-0.2,0-0.3,0-0.5,0.1
	C278.4,310.9,278.6,310.9,278.7,310.9L278.7,310.9z M338.1,311.3c0.1,0.1,0.3,0.1,0.4,0.2C338.4,311.4,338.2,311.3,338.1,311.3
	L338.1,311.3z M301.2,313.6c-0.1,0-0.2,0-0.2,0C301.1,313.6,301.2,313.6,301.2,313.6L301.2,313.6z M219.7,313.8
	c0.2,0.1,0.3,0.1,0.5,0.2C220.1,313.9,219.9,313.9,219.7,313.8L219.7,313.8z M235.3,314.8c-0.1,0.1-0.3,0.1-0.4,0.2
	C235,314.9,235.2,314.8,235.3,314.8L235.3,314.8z M174.4,318.7c0.1,0,0.1,0,0.2,0.1C174.5,318.8,174.5,318.8,174.4,318.7
	L174.4,318.7z M115,319.7c0.1,0,0.1,0.1,0.2,0.1C115.1,319.8,115.1,319.8,115,319.7L115,319.7z M369.8,307.9
	C369.8,307.9,369.8,307.9,369.8,307.9C369.8,307.9,369.8,307.9,369.8,307.9C369.8,307.9,369.8,307.9,369.8,307.9
	C369.8,307.9,369.8,307.9,369.8,307.9L369.8,307.9z M465.1,83.5C465.1,83.5,465.1,83.5,465.1,83.5C465.1,83.5,465.1,83.5,465.1,83.5
	C465.1,83.5,465.1,83.5,465.1,83.5C465.1,83.5,465.1,83.5,465.1,83.5L465.1,83.5z M351.7,38.9C351.7,38.9,351.7,38.9,351.7,38.9
	c0.2-0.1,0.3-0.1,0.4-0.1C351.9,38.8,351.8,38.9,351.7,38.9L351.7,38.9z M266.3,15C266.3,15,266.3,14.9,266.3,15
	C266.3,14.9,266.3,15,266.3,15L266.3,15z M266.3,14.9c0,0-0.1-0.1-0.1-0.1C266.2,14.9,266.2,14.9,266.3,14.9L266.3,14.9z"/>
<path class="st0" d="M760.2,422.4c0,0.8,0.7,1.5,1.5,1.5s1.5-0.7,1.5-1.5s-0.7-1.5-1.5-1.5S760.2,421.6,760.2,422.4L760.2,422.4z"/>
<path class="st0" d="M579.8,266.1c-1.7,0.1-3.3,0.4-4.9,1c-0.9,0.3-1.7,0.7-2.4,1.3c-0.4,0.3-0.9,0.7-1.2,1.1
	c-0.4,0.4-0.7,0.8-1,1.2c-0.6,0.7-1.1,1.5-1.5,2.3c-0.6,1-0.2,2.4,0.8,3c0.7,0.4,1.4,0.4,2,0.1c-0.3,0.5-0.5,1.1-0.8,1.6
	c-0.6,1.5-0.7,3.1-0.2,4.6c0.4,1.4,1.5,2.5,2.7,3.2c0.6,0.3,1.2,0.5,1.9,0.6c0.9,0.1,1.7,0.1,2.6,0c1.4-0.2,2.7-0.9,3.8-1.6
	c1.3-0.8,2.4-1.9,3.4-3c0.9-1.1,1.7-2.2,2.4-3.5c0.3-0.6,0.6-1.2,0.9-1.8c0.2-0.4,0.3-0.7,0.4-1.1c0.1-0.5,0.2-1,0.2-1.5
	c0.1-0.7-0.1-1.4-0.2-2.1c-0.1-0.7-0.5-1.4-0.8-1.9c-0.4-0.6-0.9-1.2-1.5-1.7c-0.3-0.3-0.6-0.5-1-0.7c-0.4-0.3-0.9-0.4-1.4-0.6
	c-0.7-0.2-1.5-0.3-2.2-0.4c-0.5-0.1-0.9-0.1-1.3-0.1C580.3,266.1,580.1,266.1,579.8,266.1L579.8,266.1z M581,271.7
	C581,271.7,581.1,271.7,581,271.7c0.2,0.1,0.3,0.2,0.4,0.4c0.4,0.6,0.8,1.3,1.1,1.9c0.4,0.7,1.2,1,1.9,0.8c-0.5,1.2-1.2,2.3-1.9,3.3
	c-0.7,0.9-1.5,1.7-2.4,2.5c-0.7,0.5-1.4,0.9-2.1,1.3c-0.4,0.1-0.7,0.2-1.1,0.3c-0.4,0-0.7,0-1.1,0c-0.2,0-0.3-0.1-0.5-0.1
	c-0.1-0.1-0.2-0.1-0.3-0.2c-0.2-0.1-0.3-0.3-0.5-0.5c-0.1-0.1-0.1-0.2-0.2-0.4c-0.1-0.2-0.1-0.4-0.2-0.7c0-0.2,0-0.4,0-0.6
	c0.1-0.4,0.2-0.8,0.3-1.2c0.3-0.6,0.6-1.2,1-1.7c0.5-0.7,0.9-1.5,1.4-2.2c0.7-0.9,1.5-1.7,2.3-2.4c0.2-0.1,0.4-0.3,0.7-0.4
	c0.2-0.1,0.4-0.1,0.5-0.1C580.7,271.7,580.9,271.7,581,271.7L581,271.7z M581.3,271.9c0,0.1,0.1,0.1,0.1,0.2
	C581.3,272,581.3,272,581.3,271.9L581.3,271.9z M581.4,272.1c0,0,0.1,0.1,0.1,0.1C581.5,272.2,581.5,272.2,581.4,272.1L581.4,272.1z
	"/>
<path class="st0" d="M604.7,290.7c-0.5,0.2-1,0.4-1.4,0.6c-0.4,0.2-0.9,0.5-1.3,0.8c-1,0.6-1.9,1.4-2.7,2.2c-0.8,0.8-1.5,1.8-2,2.8
	c-0.6,1.2-1,2.4-0.8,3.7c0.2,1.1,0.8,2.1,1.7,2.8c0.9,0.7,2.1,0.9,3.3,1c0.6,0,1.2-0.1,1.8-0.3c0.7-0.1,1.3-0.4,1.9-0.7
	c0.4-0.2,0.9-0.5,1.3-0.8c0.6-0.4,1.1-0.8,1.6-1.3c0.7-0.7,1.4-1.3,2.1-2.1c0.4-0.5,0.7-0.9,0.9-1.4c0.2-0.6,0.2-1.3,0.1-1.9
	c-0.2-1.1-0.9-2.1-1.8-2.8c-0.7-0.6-1.5-0.9-2.3-1c0-0.1,0-0.1,0-0.2c-0.1-0.5-0.4-0.9-0.9-1.1c-0.3-0.2-0.6-0.3-1-0.3
	C605,290.6,604.9,290.6,604.7,290.7L604.7,290.7z M606.5,295.8c0.1,0,0.2,0.1,0.3,0.1c0,0,0,0,0,0c0.2,0.2,0.3,0.3,0.5,0.5
	c0,0,0.1,0.1,0.1,0.1c0,0,0,0.1,0,0.1c-0.3,0.4-0.6,0.7-1,1c-0.5,0.5-1.1,1-1.7,1.5c-0.6,0.4-1.2,0.8-1.9,1.2
	c-0.4,0.1-0.8,0.2-1.2,0.3c-0.2,0-0.4,0-0.7,0c-0.2,0-0.3-0.1-0.5-0.1c-0.1,0-0.1-0.1-0.2-0.1c0.5-0.9,1-1.7,1.6-2.5
	c0.3-0.3,0.6-0.7,1-1c0.3-0.2,0.6-0.4,1-0.5c0.6-0.2,1.3-0.5,1.9-0.6C606.1,295.8,606.3,295.8,606.5,295.8L606.5,295.8z M607,296
	c0,0,0.1,0.1,0.1,0.1C607.1,296.1,607.1,296.1,607,296L607,296z M607.7,296.3c0,0.1-0.1,0.2-0.1,0.2
	C607.7,296.5,607.7,296.4,607.7,296.3L607.7,296.3z"/>
<path class="st0" d="M622.9,312.5c-0.5,0-1,0.1-1.5,0.2c-0.5,0.2-1,0.4-1.5,0.6c-1,0.5-2,1.2-2.8,2c-0.8,0.7-1.5,1.6-2.1,2.4
	c-0.3,0.4-0.6,0.8-0.9,1.3c-0.1,0.2-0.2,0.4-0.3,0.6c-0.2,0.4-0.3,0.8-0.4,1.2c-0.1,0.5-0.2,1-0.1,1.6c0.1,0.7,0.3,1.3,0.6,1.9
	c0.2,0.4,0.5,0.9,0.8,1.2c0.4,0.4,0.9,0.8,1.4,1.1c0.4,0.3,0.9,0.4,1.4,0.6c0.5,0.2,1.1,0.3,1.7,0.4c1.3,0.2,2.5,0.1,3.8-0.1
	c1.1-0.2,2.3-0.8,3.2-1.3c1-0.6,1.9-1.5,2.6-2.3c0.8-0.8,1.4-1.8,1.9-2.8c0.1-0.2,0.2-0.4,0.4-0.6c0.1-0.3,0.2-0.6,0.4-0.8
	c0.1-0.6,0.2-1.1,0.2-1.7c-0.1-0.6-0.2-1.1-0.4-1.6c-0.3-0.6-0.7-1-1.3-1.4c-0.4-0.3-0.8-0.5-1.3-0.7c-0.6-0.2-1.1-0.3-1.8-0.4
	c-0.4,0-0.9,0-1.4,0.1c-0.2,0-0.4,0-0.5,0.1C624.6,313.2,623.9,312.5,622.9,312.5C622.9,312.5,622.9,312.5,622.9,312.5L622.9,312.5z
	 M619.9,318.3c0,0.1,0.1,0.1,0.1,0.2c0.6,1,1.9,1.3,2.9,0.8c0.2-0.1,0.4-0.2,0.6-0.3c0.7-0.3,1.4-0.5,2.2-0.6c0.4,0,0.7-0.1,1.1,0
	c0.1,0,0.2,0.1,0.3,0.1c0,0,0,0,0.1,0c-0.4,0.7-0.9,1.5-1.4,2.2c-0.5,0.6-1,1.2-1.6,1.7c-0.4,0.3-0.9,0.6-1.4,0.8
	c-0.5,0.2-1,0.3-1.6,0.4c-0.5,0-0.9,0-1.4,0c-0.5-0.1-0.9-0.2-1.4-0.4c-0.2-0.1-0.4-0.2-0.5-0.3c-0.1-0.1-0.2-0.2-0.3-0.3
	c-0.1-0.1-0.2-0.3-0.3-0.4c0,0,0,0,0-0.1c0,0,0,0,0-0.1c0.1-0.3,0.1-0.5,0.2-0.8c0.1-0.3,0.3-0.5,0.5-0.7
	C618.6,319.7,619.2,319,619.9,318.3L619.9,318.3z M627.1,318.5c0,0.1-0.1,0.2-0.1,0.3C627,318.7,627.1,318.6,627.1,318.5
	L627.1,318.5z M627.4,318.6c0,0,0.1,0.1,0.1,0.1C627.5,318.7,627.4,318.7,627.4,318.6L627.4,318.6z M617.3,322.3c0,0,0,0.1,0,0.1
	C617.3,322.4,617.3,322.3,617.3,322.3L617.3,322.3z"/>
</svg>
