<?xml version="1.0" encoding="utf-8"?>
<!-- Generator: Adobe Illustrator 20.0.0, SVG Export Plug-In . SVG Version: 6.00 Build 0)  -->
<svg version="1.1" id="Layer_1" xmlns="http://www.w3.org/2000/svg" xmlns:xlink="http://www.w3.org/1999/xlink" x="0px" y="0px"
	 viewBox="0 0 382.9 468.6" style="enable-background:new 0 0 382.9 468.6;" xml:space="preserve">
<style type="text/css">
	.st0{fill:#2C2C2C;}
</style>
<path class="st0" d="M185.7,5.1c-0.8,0.2-1.2,1-1,1.9c0.5,2.5,1,5.1,1.5,7.6c0.4,2,0.7,4,1,6.1c0.3,1.9,0.5,3.9,0.8,5.8
	c0.3,1.9,0.8,3.8,1.3,5.6c0.5,1.8,1.2,3.6,1.8,5.4c0.7,1.9,1.6,3.6,2.5,5.4c0.2,0.5,0.5,0.9,0.7,1.3c0.1,0.2,0.2,0.4,0.4,0.6
	c0.2,0.2,0.3,0.5,0.6,0.7c0.2,0.2,0.4,0.3,0.6,0.4c0.2,0.1,0.5,0.2,0.8,0.3c0.8,0.2,1.7-0.1,2.2-0.9c0.5-0.9,0.2-1.9-0.5-2.5
	c-0.7-1.6-1.6-3-2.4-4.5c-0.8-1.4-1.5-2.9-2.2-4.4c-0.7-1.7-1.3-3.5-1.9-5.3c-0.5-1.8-0.9-3.6-1.1-5.4c-0.6-3.9-1.2-7.8-2-11.6
	c-0.4-1.8-0.7-3.6-1.1-5.4c-0.1-0.7-0.8-1.1-1.5-1.1C185.9,5.1,185.8,5.1,185.7,5.1L185.7,5.1z"/>
<path class="st0" d="M185.3,1.3c-1.6,0.4-2.4,2.1-2.1,3.7c0.7,3,1.4,5.9,2.1,8.9c0.3,1.3,0.5,2.6,0.8,3.8c0.2,0.7,0.3,1.4,0.5,2.2
	c0.2,0.8,0.4,1.8,0.9,2.5c0.5,0.6,0.9,1.1,1.7,1.3c0.7,0.2,1.6,0.1,2.2-0.3c0.9-0.5,1.4-1.5,1.4-2.5c0-0.6-0.1-1.2-0.3-1.8
	c-0.2-0.7-0.3-1.3-0.5-2c-0.3-1.4-0.6-2.8-0.9-4.2c-0.7-3.2-1.5-6.4-2.3-9.6c-0.3-1.3-1.6-2.2-2.9-2.2
	C185.8,1.2,185.5,1.3,185.3,1.3L185.3,1.3z"/>
<path class="st0" d="M185.6,3.1c-1.6,0.4-2.5,2.1-2.1,3.7c0.7,2.5,1.4,5,2.1,7.5c0.3,1.2,0.6,2.4,0.9,3.6c0.2,0.6,0.3,1.3,0.5,1.9
	c0.4,1.2,0.9,2.3,1.8,3.1c0.9,0.8,2.1,1,3.2,0.4c0.4-0.2,0.7-0.6,0.9-0.9c0.3-0.6,0.5-1.4,0.3-2c-0.3-0.7-0.4-1.5-0.5-2.2
	c-0.2-0.6-0.3-1.3-0.5-1.9c-0.3-1.2-0.6-2.4-0.9-3.5c-0.7-2.5-1.4-4.9-2-7.4c-0.3-1.3-1.6-2.2-2.9-2.2C186.1,2.9,185.9,3,185.6,3.1
	L185.6,3.1z"/>
<path class="st0" d="M182.1,0.1c-0.7,0.2-1.3,0.3-1.9,0.8c-0.6,0.4-1.1,0.9-1.5,1.3c-0.7,0.7-1.4,1.4-2.1,2.2
	c-1.5,1.7-3,3.5-4.4,5.3c-1.4,1.8-2.8,3.8-4,5.7c-1.2,2-2.3,4-3.4,6c-1.1,2.1-2.2,4.1-3.3,6.2c-1.1,2.1-2.1,4.3-3.1,6.5
	c-1.9,4.3-3.7,8.7-5.5,13.1c-1.9,4.3-3.8,8.6-5.5,12.9c-0.9,2.3-1.8,4.7-2.6,7.1c-0.8,2.2-1.4,4.4-2.1,6.6c-0.7,2.3-1.2,4.6-1.9,6.9
	c-0.7,2.3-1.4,4.6-2,6.9c-1.4,4.6-2.7,9.3-4.5,13.8c0,0,0,0.1,0,0.1c-0.9,2-1.9,4-2.9,6c-1.2,2.3-2.5,4.6-3.8,6.8
	c-1.1,2-2.2,4-3.4,5.9c-1.2,2-2.6,4-4,5.9c-1.4,1.7-2.8,3.4-4.5,4.8c-0.5,0.3-1,0.7-1.6,0.9c-0.4,0.1-0.8,0.2-1.2,0.3
	c-0.6,0-1.1,0-1.7,0c-0.6-0.1-1.2-0.3-1.8-0.5c-0.7-0.3-1.3-0.7-2-1.2c-1-0.8-2-1.7-2.9-2.6c-0.9-1-1.8-2-2.7-3
	c-1.3-1.7-2.6-3.5-3.7-5.4c-1.2-2.1-2.4-4.2-3.5-6.3c-1.1-2-2-4.1-3.1-6.1c-1.1-2-2.2-4.1-3.4-6C86.9,99,85.5,97,84,95
	c-1.5-2-3-3.9-4.6-5.8c-3.1-3.8-6.2-7.5-9.3-11.3c-1.2-1.5-2.4-3-3.6-4.5c-1.6-2.1-3.2-4.2-4.9-6.3c-1.6-2-3.2-3.9-4.9-5.8
	c-1.6-1.9-3.3-3.8-5-5.6c-1.6-1.8-3.1-3.6-4.6-5.4c-0.9-1.1-1.7-2.3-2.6-3.5c-0.9-1.2-1.6-2.5-2.4-3.8c-1.5-2.4-2.7-5-3.8-7.6
	c-1.8-4.2-3.6-8.4-5.5-12.5c-2-4.3-4.4-8.4-7.3-12.1C24.3,9.3,22.7,8,21,7.1c-1.4-0.7-3-0.9-4.5-1.1c-1.1-0.1-2.2,0-3.3,0.2
	C11.5,6.5,10,7.1,8.5,7.9c-1.1,0.6-2,1.5-2.8,2.4c-0.5,0.6-0.9,1.2-1.4,1.8c-0.7,0.9-1.1,2-1.6,3c-0.5,1.2-1,2.4-1.3,3.7
	c-0.3,1.1-0.6,2.2-0.7,3.3c-0.2,1.4-0.4,2.8-0.5,4.2c-0.4,4.8-0.3,9.6,0,14.4c0.2,2.6,0.5,5.2,0.9,7.7c0.4,2.4,1,4.8,1.7,7.1
	c0.7,2.2,1.5,4.4,2.4,6.6C6.1,64.4,7,66.7,7.9,69c1.8,4.6,3.5,9.2,5.3,13.8c1.8,4.4,3.1,9,4.7,13.5c1.7,4.7,3.9,9.2,6,13.7
	c1,2.1,2.1,4.2,3.2,6.2c1.1,2,2.4,3.9,3.7,5.8c3,4.2,6.2,8.2,9.4,12.2c1.7,2.1,3.5,4.1,5.3,6.1c0.9,1,1.8,1.9,2.7,2.8
	c1.1,1.1,2.3,2.1,3.5,3.1c2.1,1.8,4.4,3.5,6.7,5.1c2.2,1.6,4.5,3.1,6.8,4.8c0.8,0.7,1.6,1.4,2.3,2.2c0.3,0.5,0.6,0.9,0.8,1.4
	c0.1,0.3,0.2,0.6,0.3,1c0,0.7,0,1.4,0,2.2c-0.4,2.1-0.9,4.2-1.4,6.2c-0.6,2.3-1.2,4.7-1.8,7c-1.1,4.6-2.1,9.2-3.5,13.8
	c-4,12.9-10.2,25.6-9.9,39.4c0.1,2.6,0.4,5.2,0.8,7.8c0.3,2,1,3.8,1.4,5.8c0,0,0,0.1,0,0.1c-0.2,0.7-0.4,1.3-0.6,1.9
	c-0.8,1.9-1.8,3.6-2.7,5.5c-1,2.1-2,4.1-2.9,6.3c-1.9,4.6-3.8,9.2-5.3,14c-0.7,2.3-1.4,4.6-1.9,7c-0.6,2.4-1,4.9-1.4,7.3
	c-0.8,4.7-1.3,9.5-1.3,14.3c0,1.1,0.1,2.1,0.1,3.2c0.1,1.4,0.2,2.8,0.4,4.2c0.3,2.3,0.7,4.6,1.4,6.9c0.7,2.3,1.4,4.6,2.3,6.8
	c0.9,2.3,2,4.6,3,6.9c1.1,2.3,2.2,4.5,3.4,6.6c1.2,2.1,2.5,4.1,3.8,6.1c2.7,4.1,5.9,8,9.2,11.6c1.9,2.1,3.9,4.3,6,6.1
	c2.3,2,4.7,3.9,7.2,5.7c0.6,0.5,1.2,1,1.7,1.5c-0.8,1.6-1.8,3-2.7,4.5c-0.5,0.9-1,1.8-1.4,2.7c-0.2,0.3-0.3,0.7-0.4,1
	c-0.2,0.5-0.2,1.2-0.2,1.8c0,0.6,0.1,1.3,0.2,1.9c0,0.2,0.1,0.4,0.1,0.6c0.2,0.8,0.4,1.5,0.7,2.2c0.3,1,0.6,2,0.9,2.9
	c0.6,1.8,1.1,3.6,1.4,5.5c0,0.3,0,0.6,0,0.9c0,0,0,0,0,0c0,0,0,0,0,0.1c-0.4,0.4-0.8,0.7-1.2,1c-1.9,1.5-3.9,3-5.8,4.6
	c-1.8,1.4-3.7,2.6-5.4,4.1c-0.9,0.8-1.8,1.6-2.6,2.4c-0.9,1-1.8,2-2.5,3.1c-1.2,1.7-2.2,3.7-3.1,5.6c-0.5,1.1-0.9,2.2-1.3,3.2
	c-0.4,1.2-0.6,2.5-0.7,3.7c-0.1,0.6,0,1.1,0,1.7c0.1,0.9,0.3,1.6,0.6,2.4c0.3,0.7,0.7,1.3,1.1,2c0.4,0.5,0.7,0.9,1.2,1.3
	c0.4,0.4,0.8,0.7,1.2,1.1c1,0.9,2.2,1.7,3.3,2.6c1.9,1.4,3.9,2.6,5.9,3.7c2.1,1.2,4.2,2.3,6.3,3.3c2.2,1,4.5,1.9,6.8,2.7
	c3.1,1.1,6.3,1.6,9.5,2.1c3.2,0.4,6.5,0.8,9.8,1.2c0.9,0.1,1.7,0.3,2.6,0.5c1.1,0.2,2.2,0.5,3.2,0.8c1.6,0.4,3.2,1,4.8,1.7
	c1.1,0.5,2.2,1.1,3.2,1.8c0.4,0.3,0.9,0.7,1.2,1.1c0.4,0.4,0.8,0.9,1.2,1.4c1.3,1.8,2.5,3.6,3.8,5.4c1.3,1.6,2.7,3.2,4.3,4.5
	c1,0.8,2,1.6,3.1,2.4c1,0.7,2.1,1.3,3.2,1.9c2.2,1.1,4.6,2,7,2.6c4.5,1.1,9,1.9,13.6,2.6c2.6,0.4,5.2,0.8,7.8,1.1
	c2.3,0.3,4.7,0.3,7,0.3c6.5-0.2,13-0.9,19.3-2.8c3.2-1,6.3-2.3,9.2-3.9c1.4-0.7,2.7-1.6,4.1-2.3c1.2-0.7,2.4-1.3,3.7-1.9
	c1.4-0.5,2.7-0.9,4.1-1.1c2.5-0.2,5.1,0.1,7.6,0.4c2.4,0.4,4.8,0.8,7.3,1c2.2,0.2,4.5,0.3,6.8,0.2c2.4-0.1,4.9-0.2,7.3-0.4
	c2.5-0.2,5.1-0.6,7.6-1c2.4-0.4,4.7-1,7.1-1.6c1.1-0.3,2.3-0.7,3.4-1.1c1.2-0.4,2.3-0.8,3.4-1.2c2.3-0.8,4.5-1.6,6.8-2.5
	c2.3-0.9,4.6-2,6.8-3c4.4-2,8.8-3.9,13.2-5.8c4.3-1.9,8.6-3.7,12.8-5.8c2.2-1.1,4.4-2.2,6.5-3.3c2.1-1.2,4.2-2.5,6.3-3.8
	c4.3-2.7,8.4-5.7,12.4-8.9c2.1-1.7,4.2-3.4,6.1-5.4c1.1-1.1,2.1-2.3,3.1-3.5c1.6-2.1,2.9-4.5,3.7-7c0.8-2.4,1.4-4.9,2.1-7.4
	c0.7-2.6,1.6-5.1,2.6-7.5c1.3-3,2.7-5.9,4-8.9c1.4-3.1,2.7-6.3,4-9.5c2.5-6.3,4.8-12.7,7.4-19c-0.1,0.2-0.2,0.5-0.3,0.7
	c1.1-2.5,2.1-5,3.1-7.5c0.9-2.3,1.7-4.6,2.5-6.9c0.8-2.2,1.5-4.5,2.2-6.7c0.7-2.3,1.4-4.6,2.1-6.9c1.3-4.6,2.5-9.1,3.6-13.7
	c1.2-4.7,2-9.5,2.8-14.4c0.3-2.1,0.7-4.1,1.1-6.2c0.2-1.1,0.4-2.1,0.4-3.2c0-0.7,0-1.4,0-2.1c0-3.9,0-7.9-0.4-11.8
	c-0.3-4.1-1.2-8-2-12c-0.4-2.1-0.9-4.1-1.2-6.2c-0.4-2.2-0.7-4.4-1.1-6.6c-0.3-2.5-0.6-4.9-1.1-7.3c-0.4-2.4-0.9-4.7-1.4-7.1
	c-1.1-4.7-2.2-9.3-3.7-13.9c-0.4-1.2-0.8-2.5-1.3-3.7c-0.5-1.3-1-2.5-1.5-3.8c-1-2.4-2.3-4.7-3.6-7c-1.2-2-2.4-4-3.7-6
	c-1.2-2-2.5-3.9-3.7-5.9c-1.3-2.1-2.7-4.2-4.2-6.1c-1.6-2.1-3.3-4.1-5-6.1c-1.6-1.8-3.4-3.5-5.1-5.3c-1.6-1.6-3.1-3.2-4.7-4.7
	c-3.6-3.4-7.2-6.7-11-9.9c-1.9-1.6-4-3.1-6-4.5c-1.9-1.3-3.9-2.6-6-3.8c-0.6-0.3-1.2-0.6-1.8-1c-0.5-0.3-1.1-0.5-1.6-0.8
	c-1.3-0.6-2.6-1.1-3.9-1.6c-0.4-0.2-0.9-0.3-1.3-0.5c-0.5-0.2-1.1-0.4-1.6-0.5c-1.3-0.3-2.6-0.7-3.9-1c-1.1-0.2-2.3-0.4-3.4-0.6
	c-1.2-0.2-2.5-0.3-3.7-0.3c-2.5-0.1-5,0-7.5,0.1c-9.6,0.3-19.2,1.5-28.7,3.1c-4.8,0.8-9.6,1.9-14.3,3.3c-2.4,0.7-4.8,1.5-7.2,2.2
	c-2.3,0.6-4.7,1-7.1,1.5c-4.6,0.9-9.3,1.8-13.9,2.8c-2.6,0.5-5.1,1.1-7.6,1.8c-1.2,0.3-2.3,0.7-3.5,1.1c-1.1,0.4-2.3,0.9-3.4,1.3
	c-1.8,0.7-3.5,1.7-5.1,2.7c-0.7,0.4-1.4,0.9-2,1.4c-0.6,0.4-1.2,0.9-1.8,1.3c-0.2-0.4-0.4-0.8-0.6-1.2c-0.6-1.1-1.1-2.2-1.7-3.2
	c-1.2-2.2-3-4.1-4.6-5.9c-1.7-1.8-3.4-3.6-5.2-5.2c-0.8-0.8-1.6-1.5-2.5-2.2c-1.1-0.9-2.2-1.8-3.2-2.8c-0.1-0.1-0.2-0.3-0.2-0.4
	c0-0.1,0-0.1-0.1-0.2c0-0.2,0-0.3,0-0.5c0.2-0.7,0.4-1.4,0.6-2.2c0.8-1.9,1.9-3.6,2.9-5.3c1.2-2,2.4-4,3.7-6c2.5-4,5-8.1,7.6-12.1
	c2.5-3.9,5.2-7.6,7.6-11.5c1.2-2,2.5-3.9,3.6-5.9c0.6-1,1.1-2,1.6-3.1c0.6-1.3,1.1-2.6,1.7-3.8c3.4-8.3,5.9-16.9,7.4-25.7
	c0.4-2.2,0.7-4.4,0.9-6.7c0.2-2.2,0.4-4.4,0.4-6.6c0-2.1-0.1-4.1-0.2-6.2c-0.1-2.2-0.3-4.4-0.5-6.5c-0.1-0.8-0.3-1.5-0.9-2.1
	c-0.6-0.6-1.3-0.9-2.1-0.9s-1.6,0.3-2.1,0.9c-0.5,0.5-1,1.4-0.9,2.1c0.4,3.8,0.5,7.5,0.7,11.3c0.1,3.5-0.3,7-0.7,10.4
	c-1.5,10.3-4.4,20.3-8.3,29.9c-0.9,2-1.9,4-3,5.9c-1.3,2.1-2.6,4.3-3.9,6.4c-1.2,1.9-2.5,3.7-3.7,5.5c-1.3,2-2.6,4-3.8,6
	c-2.5,4.1-5,8.2-7.5,12.2c-1.2,1.9-2.3,3.8-3.5,5.7c-1.3,2.2-2.6,4.5-2.9,7.1c-0.1,0.9-0.2,1.7,0,2.6c0.2,1,0.7,1.9,1.3,2.7
	c0.7,1,1.7,1.7,2.6,2.5c1.3,1.1,2.6,2.2,3.9,3.3c2.5,2.3,4.8,4.8,6.9,7.4c0.8,1.1,1.5,2.2,2.1,3.3c0.6,1.2,1.2,2.4,1.8,3.7
	c0.3,0.7,0.6,1.4,1,2c0.4,0.7,1.2,1.4,2,1.6c0.4,0.1,0.8,0.2,1.2,0.2c0.4,0,0.8-0.1,1.2-0.2c0.8-0.2,1.6-0.8,2.2-1.3
	c0.3-0.3,0.7-0.6,1-0.8c0.5-0.4,0.9-0.7,1.4-1.1c0.4-0.3,0.9-0.6,1.3-0.9c0.5-0.3,1-0.6,1.5-0.9c0.4-0.3,0.8-0.5,1.3-0.7
	c0.6-0.3,1.3-0.7,1.9-1c-0.2,0.1-0.4,0.2-0.6,0.3c1.2-0.5,2.4-1,3.7-1.5c0.6-0.2,1.2-0.4,1.8-0.6c0.7-0.2,1.4-0.4,2.1-0.6
	c2.5-0.7,5-1.2,7.5-1.7c4.6-1,9.3-1.9,13.9-2.8c2.4-0.5,4.7-0.9,7.1-1.6c2.4-0.7,4.8-1.5,7.3-2.2c4.7-1.4,9.5-2.3,14.3-3.1
	c2.4-0.4,4.8-0.8,7.2-1.1c0,0,0,0,0,0c4.7-0.6,9.5-1.1,14.2-1.4c2.6-0.2,5.2-0.2,7.8-0.3c1.2,0,2.4,0,3.7,0c1.4,0,2.7,0.2,4.1,0.3
	c0.7,0.1,1.5,0.2,2.2,0.3c1.2,0.3,2.5,0.6,3.7,0.9c1.1,0.3,2.2,0.7,3.3,1c0.8,0.3,1.7,0.6,2.5,1c1,0.5,2,0.9,3,1.5
	c1.3,0.7,2.6,1.5,3.9,2.3c2.1,1.3,4.1,2.8,6.1,4.2c1.2,0.9,2.3,1.9,3.4,2.8c1.1,0.9,2.1,1.9,3.2,2.9c2.2,2,4.5,4,6.6,6.2
	c2.2,2.2,4.3,4.4,6.5,6.6c1.1,1.1,2.2,2.2,3.2,3.4c1,1.2,2,2.3,3,3.5c1.4,1.8,2.8,3.7,4,5.7c1.4,2.2,2.8,4.4,4.2,6.7
	c1.3,2.1,2.7,4.3,3.9,6.5c1.3,2.2,2.4,4.4,3.5,6.7c0.5,1.1,0.9,2.2,1.3,3.3c0.5,1.4,1,2.8,1.4,4.3c0.9,2.7,1.6,5.4,2.3,8.1
	c0.7,2.7,1.3,5.3,1.9,8c0.6,2.7,1,5.4,1.4,8.1c0.3,2.1,0.5,4.2,0.8,6.3c0.3,2.2,0.7,4.5,1.2,6.7c0.8,3.9,1.6,7.8,2.2,11.7
	c0.3,2.8,0.4,5.7,0.5,8.5c0,1.5,0.1,3,0.1,4.6c0,1.1,0,2.2,0,3.2c-0.4,2.3-0.9,4.5-1.3,6.8c-0.4,2.3-0.8,4.6-1.2,6.8
	c-0.9,4.7-2,9.3-3.3,13.9c-1.2,4.6-2.4,9.1-3.8,13.6c-1.5,4.6-2.9,9.3-4.7,13.9c-0.7,1.7-1.4,3.4-2.1,5.2c-0.9,2.1-1.8,4.2-2.6,6.3
	c-0.9,2.2-1.7,4.4-2.5,6.6c-1.6,4.3-3.3,8.6-5,12.8c-1,2.3-2,4.6-3.1,6.9c-1.2,2.7-2.5,5.4-3.6,8.1c-1,2.6-1.9,5.2-2.6,7.9
	c-0.7,2.5-1.3,5-2.2,7.4c-0.7,1.4-1.4,2.7-2.4,3.9c-1.3,1.6-2.7,3.1-4.2,4.5c-1.5,1.4-3.2,2.7-4.8,4c-1.8,1.4-3.6,2.8-5.5,4.1
	c-2.1,1.5-4.3,2.9-6.5,4.3c-4,2.5-8.3,4.8-12.6,6.8c-4.3,2.1-8.7,3.9-13.1,5.8c-4.3,1.9-8.7,3.8-13,5.7c-1.2,0.6-2.5,1.1-3.7,1.6
	c-1.8,0.8-3.7,1.4-5.6,2.1c-2.1,0.8-4.2,1.6-6.3,2.3c-1.1,0.4-2.2,0.7-3.4,1c-1.2,0.3-2.3,0.6-3.5,0.9c-2,0.5-4.1,0.8-6.1,1.1
	c-1.5,0.2-3,0.3-4.5,0.4c-1.7,0.1-3.3,0.1-5,0.2c-2.9,0.1-5.9-0.1-8.8-0.5c-2.4-0.4-4.8-0.7-7.3-1c-1.2-0.1-2.4-0.2-3.6-0.2
	c-2-0.1-4.1,0.2-6.1,0.9c-2.6,0.8-5,2.1-7.4,3.4c-2.2,1.3-4.4,2.5-6.7,3.6c-2.1,0.9-4.3,1.6-6.5,2.2c-2.4,0.6-4.8,1.1-7.3,1.4
	c-2.7,0.3-5.4,0.5-8.1,0.5c-1.6,0-3.2,0-4.8,0c-1.5-0.1-2.9-0.2-4.4-0.4c-3.8-0.5-7.6-1.2-11.3-1.8c-1.9-0.3-3.8-0.8-5.7-1.2
	c-1-0.2-1.9-0.5-2.9-0.8c-0.7-0.2-1.5-0.5-2.2-0.8c-1.1-0.5-2.1-1-3.2-1.6c-1-0.6-1.9-1.2-2.8-1.9c-0.8-0.7-1.6-1.4-2.4-2.1
	c-0.8-0.8-1.5-1.7-2.3-2.5c-1.6-2.2-3.1-4.7-5-6.7c-1.4-1.5-3.1-2.8-5-3.7c-1.6-0.8-3.1-1.4-4.8-2c-5.7-2.1-11.8-2.4-17.8-3.1
	c-2.1-0.3-4.3-0.7-6.4-1.1c-2.3-0.5-4.6-1.3-6.8-2.2c-5.5-2.4-10.8-5.4-15.6-9c-0.8-0.7-1.6-1.4-2.4-2.2c-0.2-0.3-0.4-0.6-0.6-1
	c0-0.1-0.1-0.2-0.1-0.3c0-0.5,0-1,0-1.5c0.2-1,0.5-2,0.9-3c1.2-2.6,2.5-5.2,4.3-7.5c0.9-1.1,1.9-2.2,3-3.1c1.2-1.1,2.4-2,3.7-3
	c2.4-1.9,4.6-3.8,6.9-5.8c0.6-0.5,1.1-1,1.6-1.5c0.5-0.5,0.9-1.2,1.1-1.8c0.2-0.6,0.3-1.3,0.4-1.9c0.1-0.6-0.1-1.3-0.2-2
	c-0.1-0.4-0.1-0.7-0.2-1.1c-0.2-0.8-0.4-1.6-0.7-2.5c-0.4-1.4-0.9-2.9-1.3-4.3c-0.4-1.2-0.8-2.5-1-3.8c0-0.2,0-0.4,0-0.7
	c0-0.1,0.1-0.2,0.1-0.3c0.6-1.3,1.3-2.5,2-3.7c0.9-1.5,1.9-2.9,2.4-4.6c0.1-0.4,0.1-0.8,0.2-1.1c0-0.4,0-0.7-0.1-1.1
	c-0.2-0.7-0.5-1.4-1-2c-0.7-0.8-1.5-1.4-2.3-2.1c-1.2-1-2.5-1.9-3.7-2.9c-1.2-1-2.5-2-3.6-3.2c-1.1-1.1-2.2-2.3-3.3-3.5
	c-2.1-2.4-4.2-4.9-6.1-7.4c-1.3-1.8-2.6-3.6-3.8-5.4c-1.3-1.9-2.4-3.8-3.6-5.8c-2.3-3.9-4.1-8-5.9-12.1c-0.9-2.3-1.7-4.6-2.4-6.9
	c-0.4-1.2-0.7-2.4-0.9-3.6c-0.3-1.1-0.4-2.3-0.6-3.4c-0.3-2.7-0.5-5.3-0.5-8c0-1.4,0.1-2.8,0.2-4.1c0.1-1.4,0.3-2.9,0.5-4.3
	c0.7-5,1.6-10,3-14.8c0.9-2.8,1.8-5.6,2.8-8.4c0.9-2.5,1.9-5,3-7.5c0.7-1.7,1.5-3.4,2.2-5.1c0.8-1.8,1.7-3.5,2.5-5.3
	c0.4-1,0.8-1.9,1.2-2.9c0.1-0.1,0.1-0.3,0.1-0.4c0.2-0.5,0.3-1.1,0.3-1.6c0-1-0.2-2-0.5-3c-0.3-1.1-0.6-2.1-0.8-3.2
	c-0.2-0.8-0.3-1.6-0.4-2.4c-0.1-1.2-0.2-2.4-0.3-3.6c-0.2-2.8,0-5.7,0.3-8.5c1-6.8,3.2-13.3,5.4-19.7c1.6-4.6,3.3-9.2,4.6-13.9
	c1.3-4.7,2.3-9.4,3.5-14.1c0.6-2.2,1.2-4.3,1.8-6.5c0.3-1,0.5-2.1,0.7-3.1c0.2-0.9,0.3-1.8,0.4-2.7c0.1-1.2,0-2.5-0.3-3.7
	c-0.1-0.6-0.4-1.2-0.7-1.7c-0.4-0.8-0.9-1.5-1.4-2.2c-1-1.3-2.3-2.4-3.6-3.4c-1.2-0.9-2.4-1.8-3.7-2.6c-2.3-1.6-4.6-3.3-6.9-5
	c-1.7-1.3-3.3-2.7-4.8-4.1c-1.5-1.4-2.8-2.9-4.2-4.4c-3-3.4-5.9-6.8-8.6-10.3c0.2,0.2,0.3,0.4,0.5,0.6c-1.7-2.2-3.3-4.3-4.9-6.6
	c-1.5-2.2-2.9-4.5-4.2-6.8c-1.2-2.2-2.3-4.5-3.4-6.7c-1.1-2.2-2.1-4.5-3.1-6.8c-0.8-1.9-1.5-3.9-2.2-5.9c-0.8-2.3-1.5-4.6-2.3-6.9
	c-1.6-4.6-3.5-9.1-5.2-13.6c-1.7-4.4-3.4-8.9-5.1-13.3c-0.8-2.2-1.5-4.4-2.2-6.6c-0.7-2.2-1-4.5-1.4-6.8C6.3,41.8,6.1,38.4,6,35
	c0-3.7,0-7.3,0.4-11c0.1-1,0.3-1.9,0.6-2.9c0.3-1.1,0.6-2.2,1-3.3c0.2-0.5,0.5-1.1,0.8-1.6c0.3-0.7,0.8-1.3,1.2-1.9
	c0,0,0-0.1,0.1-0.1c0.4-0.6,0.9-1,1.5-1.5c0.4-0.3,0.9-0.5,1.3-0.8c0.7-0.2,1.4-0.4,2.1-0.6c0.6,0,1.2,0,1.9,0
	c0.6,0.1,1.1,0.3,1.7,0.4c0.3,0.1,0.5,0.3,0.8,0.5c0.7,0.6,1.3,1.2,1.9,1.9c4.1,5.8,7,12.3,9.8,18.8c1.5,3.6,2.9,7.2,4.7,10.7
	c0.8,1.6,1.8,3.2,2.8,4.7c1.3,2,2.7,3.9,4.1,5.8c2.6,3.2,5.4,6.3,8.1,9.4c2.7,3,5.3,6.2,7.8,9.4c1.6,2.1,3.2,4.2,4.9,6.3
	c1.8,2.2,3.6,4.4,5.5,6.6c3.3,3.9,6.5,7.9,9.7,11.9c1.3,1.7,2.6,3.5,3.7,5.3c1.3,2,2.5,4.1,3.6,6.2c1.2,2.1,2.2,4.2,3.3,6.3
	c1,2,2.1,3.9,3.2,5.8c2.5,4.3,5.4,8.3,9,11.7c1.1,1.1,2.4,2.1,3.7,3c1.1,0.7,2.3,1.2,3.6,1.6c1.5,0.5,3.2,0.6,4.7,0.4
	c4.4-0.5,7.8-3.8,10.4-7.1c1.6-2,3.1-4.1,4.4-6.2c1.4-2.1,2.6-4.3,3.8-6.4c1.1-2,2.3-4,3.4-6c1.2-2.2,2.3-4.3,3.4-6.6
	c1.1-2.4,2-4.8,2.8-7.3c0.8-2.3,1.5-4.6,2.1-6.9c1.4-4.6,2.8-9.3,4-14c1.9-7.1,4.5-14,7.3-20.8c1.1-2.6,2.3-5.2,3.4-7.8
	c1.1-2.7,2.3-5.5,3.4-8.2c0.9-2.2,1.8-4.4,2.8-6.5c1.2-2.5,2.4-4.9,3.7-7.2c1.2-2.3,2.4-4.6,3.7-6.8c1.3-2.3,2.8-4.5,4.3-6.6
	c1.2-1.6,2.5-3.2,3.9-4.7c0.7-0.8,1.4-1.6,2.2-2.3c0.4-0.4,0.8-0.7,1.2-1.1c0.7-0.7,1.1-1.5,1.3-2.4c0.2-0.9,0-1.8-0.6-2.4
	C184,0.2,183.3,0,182.7,0C182.5,0,182.3,0,182.1,0.1L182.1,0.1z M176.4,13.8C176.4,13.8,176.4,13.9,176.4,13.8
	C176.4,13.9,176.4,13.8,176.4,13.8L176.4,13.8z M9.8,14.7c-0.1,0.1-0.1,0.1-0.2,0.2C9.7,14.8,9.7,14.7,9.8,14.7L9.8,14.7z
	 M31.1,33.1c0.1,0.2,0.2,0.4,0.3,0.6C31.2,33.6,31.2,33.4,31.1,33.1L31.1,33.1z M58.3,72.5c0,0.1,0.1,0.1,0.1,0.2
	C58.3,72.7,58.3,72.6,58.3,72.5L58.3,72.5z M162.2,147.6c0,0.1,0,0.2,0,0.2c0,0,0,0,0,0C162.2,147.7,162.2,147.7,162.2,147.6
	L162.2,147.6z M162.2,147.8C162.2,147.8,162.2,147.8,162.2,147.8C162.2,147.8,162.2,147.8,162.2,147.8
	C162.2,147.8,162.2,147.8,162.2,147.8L162.2,147.8z M162.4,148.4c0,0.1,0.1,0.1,0.1,0.2C162.4,148.6,162.4,148.5,162.4,148.4
	L162.4,148.4z M162.7,148.9c0,0,0.1,0.1,0.1,0.1C162.8,149,162.8,149,162.7,148.9L162.7,148.9z M58,221.4c0,0.2,0,0.3-0.1,0.5
	C58,221.8,58,221.6,58,221.4L58,221.4z M54.2,243c0,0.1,0,0.1,0,0.2C54.2,243.1,54.2,243.1,54.2,243L54.2,243z M53.1,258.3
	c0,0.1-0.1,0.2-0.1,0.2C53.1,258.4,53.1,258.4,53.1,258.3L53.1,258.3z M44.4,289.1c0,0.1,0,0.2-0.1,0.4
	C44.3,289.4,44.4,289.2,44.4,289.1L44.4,289.1z M75.1,363.2c0.1,0.1,0.2,0.1,0.3,0.2C75.3,363.3,75.2,363.3,75.1,363.2L75.1,363.2z
	 M76.9,363.9c0,0.1,0,0.1,0,0.2C76.8,364,76.9,364,76.9,363.9L76.9,363.9z M77.2,373.7C77.2,373.8,77.2,373.8,77.2,373.7
	C77.2,373.8,77.2,373.8,77.2,373.7L77.2,373.7z M77,374.5c0,0,0,0.1,0,0.1c0,0,0,0,0,0C77,374.6,77,374.5,77,374.5L77,374.5z
	 M77,374.6C77,374.6,77,374.6,77,374.6c0,0,0,0.1,0,0.1C77,374.7,77,374.6,77,374.6L77,374.6z M75.3,388.8c0,0.1-0.1,0.2-0.1,0.3
	C75.2,389,75.2,388.9,75.3,388.8L75.3,388.8z"/>
<path class="st0" d="M180.8,174.5c-1,0.5-1.5,1.6-2,2.6c-0.4,0.9-0.7,1.7-1.1,2.6c-0.5,1.3-0.9,2.6-1.3,3.9
	c-0.8,2.7-1.2,5.4-1.8,8.1c-0.6,2.8-1.1,5.6-1.5,8.4c-0.4,2.9-0.9,5.9-1.3,8.8c-0.4,2.8-0.9,5.6-1.1,8.5c-0.1,1.5-0.2,3-0.2,4.5
	c0,1.4,0.1,2.8,0.2,4.1c0.1,1.6,0.4,3.2,0.6,4.8c0.2,1.4,0.6,2.8,1,4.1c0.8,2.9,2,5.7,3.5,8.3c0.6,1,1.2,2.1,1.8,3
	c0.7,1,1.4,2,2.2,2.9c0.6,0.7,1.4,1.3,2.1,1.9c0.8,0.7,1.7,1.4,2.5,2c0.1,1.3,0.1,2.5,0,3.8c-0.2,1.4-0.5,2.8-0.9,4.2
	c-0.4,1.4-1,2.8-1.6,4.2c-0.7,1.7-1.5,3.5-2.3,5.2c-0.5,1-0.9,2-1.5,2.9c-0.5,0.9-1.1,1.7-1.7,2.5c-1.9,2.3-4,4.5-6.3,6.5
	c-0.4,0.3-0.8,0.6-1.2,0.9c-1.2,0.8-2.4,1.5-3.7,2.1c-0.8,0.3-1.7,0.6-2.5,0.9c-1,0.3-2,0.6-3,0.9c-1.9,0.5-3.9,1-5.8,1.5
	c-2.1,0.6-4.1,1.1-6.2,1.7c-2.2,0.6-4.3,1.1-6.6,1.5c-1.3,0.1-2.6,0.2-3.9,0.1c-0.3,0-0.7-0.1-1-0.1c-1.6-0.3-3.3-0.7-4.9-1.2
	c-1.8-0.6-3.6-1.2-5.3-1.9c-1.6-0.6-3.1-1.1-4.7-1.6c-0.9-0.3-1.9-0.6-2.8-0.9c-0.8-0.2-1.5-0.5-2.2-0.8c-0.9-0.4-1.8-0.9-2.7-1.4
	c-0.6-0.4-1.2-0.8-1.7-1.1c-0.7-0.5-1.3-0.9-2-1.4c-0.9-0.8-1.8-1.5-2.7-2.4c-1.1-1.1-2.1-2.3-3.2-3.4c-1.3-1.2-2.8-2.2-4.4-3.1
	c-1.3-0.7-2.8-1.2-4.3-1.7c-2.4-0.8-4.9-1.4-7.4-2.2c-2.5-0.8-4.9-1.5-7.3-2.5c-3.2-1.4-6.5-3-9.3-5.1c-2.4-2-4.3-4.6-6.2-7.1
	c-0.8-1-1.6-1.9-2.5-2.8c-0.8-0.8-1.5-1.6-2.4-2.3c-0.4-0.3-0.7-0.6-1.1-0.8c-0.4-0.2-0.8-0.4-1.2-0.5c-0.7-0.2-1.6-0.3-2.3-0.4
	c-1.2-0.1-2.3,1.1-2.3,2.3c0,0.6,0.2,1.2,0.7,1.6c0.5,0.5,1,0.6,1.6,0.7c0.2,0,0.3,0,0.5,0c0.2,0,0.5,0.1,0.7,0.2
	c0.1,0.1,0.3,0.2,0.4,0.2c1.3,1.1,2.4,2.4,3.4,3.8c1.8,2.5,3.6,5,5.6,7.4c1.5,1.8,3.5,3.1,5.5,4.3c1.2,0.7,2.3,1.4,3.6,2
	c1.3,0.7,2.7,1.3,4.1,1.9c1.5,0.7,3.1,1.2,4.7,1.7c2.5,0.9,5.1,1.6,7.7,2.4c1.4,0.4,2.8,0.8,4.2,1.4c0.6,0.3,1.2,0.6,1.8,0.9
	c0.5,0.3,1,0.7,1.5,1c1.3,1.1,2.3,2.3,3.4,3.5c1,1.1,2.1,2,3.2,2.9c1.2,1,2.5,1.9,3.8,2.8c2.1,1.4,4.5,2.4,6.9,3.3
	c1.3,0.5,2.6,0.9,4,1.3c1.2,0.4,2.5,0.8,3.7,1.3c2.8,1,5.6,2.1,8.5,2.8c1.5,0.4,3.1,0.6,4.6,0.7c1.7,0.2,3.5,0,5.3-0.2
	c0.9-0.1,1.8-0.3,2.7-0.5c2.7-0.6,5.5-1.4,8.2-2.1c1.4-0.4,2.8-0.8,4.2-1.2c1.3-0.3,2.6-0.6,3.9-1c3.6-1,7.1-2.2,10.2-4.2
	c1.4-0.9,2.7-2,4-3.1c1.1-0.9,2-2,3-3c1.1-1.1,2.1-2.3,3-3.6c0.8-1.1,1.6-2.3,2.2-3.5c1.3-2.5,2.4-5,3.4-7.6
	c1.2-2.7,2.3-5.5,2.8-8.5c0.2-1.1,0.4-2.3,0.4-3.4c0.4-0.1,0.8-0.3,1.1-0.6c0.5-0.5,0.7-1.1,0.7-1.8c0-0.6-0.2-1.4-0.7-1.8
	c-0.4-0.3-0.8-0.6-1.2-1c0.2-1,0.4-1.9,0.7-2.9c0.4-1.3,0.7-2.6,0.9-3.9c0.5-2.8,0.7-5.8,0.9-8.6c0.1-2.8,0.2-5.6,0.2-8.3
	c0-2.6,0.1-5.3,0-7.9c-0.1-2.2-0.2-4.5-0.6-6.7c-0.3-2.1-0.7-4.2-1.3-6.2c-0.6-2.1-1.5-4.2-2.5-6.1c-0.4-0.9-0.9-1.7-1.4-2.6
	c-0.4-0.9-0.8-1.7-1.2-2.6c-0.3-0.7-0.5-1.3-0.7-2c-0.2-0.9-0.4-1.8-0.6-2.8c-0.2-2-0.4-4.1-0.4-6.1c0-1.1,0-2.2,0.1-3.4
	c0-0.6,0.1-1.2,0.1-1.8c0.1-0.7,0.2-1.4,0.1-2.1c0-0.5-0.1-1-0.4-1.4c-0.2-0.4-0.6-0.7-1-1c-0.4-0.3-0.9-0.4-1.3-0.4
	C181.7,174.1,181.3,174.3,180.8,174.5L180.8,174.5z M179.2,197.4c0.2-1.2,0.4-2.4,0.7-3.5c0.1,0.4,0.2,0.7,0.3,1.1
	c0.4,1.3,0.9,2.6,1.5,3.8c1,2.1,2.2,4.1,3.2,6.3c0.6,1.4,1,2.8,1.4,4.3c0.4,1.6,0.7,3.2,0.9,4.8c0.5,4.3,0.4,8.6,0.4,12.9
	c0,4.6-0.1,9.1-0.6,13.7c-0.2,1.2-0.4,2.4-0.7,3.5c-0.2,0.8-0.4,1.7-0.7,2.5c-0.7-0.7-1.3-1.3-1.9-2.1c-1.8-2.4-3.2-5.1-4.4-7.8
	c-0.5-1.4-1-2.9-1.5-4.4c-0.4-1.4-0.7-2.9-1-4.3c-0.1-0.9-0.2-1.8-0.3-2.7c-0.1-1.1-0.1-2.2-0.2-3.2c0-0.9,0-1.9,0.1-2.8
	c0.1-1.2,0.2-2.5,0.3-3.7c0.4-4.1,1-8.2,1.5-12.2c0,0.1,0,0.2,0,0.2C178.5,201.5,178.8,199.4,179.2,197.4L179.2,197.4z"/>
<path class="st0" d="M229.4,342.3c-0.5,2.9-1,5.9-1.7,8.8c-0.3,1.5-0.7,3.1-1,4.6c-0.2,1.1-0.5,2.2-0.8,3.3c-0.6,2.2-1.2,4.4-2,6.6
	c-0.5,1.2-0.9,2.4-1.4,3.6c-0.5,1.3-1.1,2.7-1.6,4c0-0.1,0.1-0.1,0.1-0.2c-1,2.3-2,4.6-3,6.9c-1,2.2-2.1,4.3-3.2,6.5
	c-0.3,0.6-0.6,1.1-1,1.6c-0.3,0.4-0.5,0.9-0.8,1.3c-0.8,1.1-1.5,2.3-2.3,3.4c-1.4,1.9-2.8,3.8-4.1,5.8c-2.7,4.2-5.4,8.5-7,13.2
	c-0.8,2.3-1.5,4.7-2,7.1c-0.5,2.7-0.8,5.4-1,8.2c-0.3,3.9,0.3,7.7,0.8,11.5c0.3,1.8,0.5,3.6,0.9,5.3c0.2,0.9,0.4,1.8,0.6,2.7
	c0.1,0.4,0.2,0.9,0.4,1.3c0.1,0.3,0.2,0.6,0.3,0.9c0.1,0.3,0.3,0.6,0.4,0.9c0.2,0.4,0.6,0.8,0.9,1.1c0.8,0.8,2.3,1.1,3.3,0.4
	c0.7-0.4,1.3-0.9,1.7-1.6c0.3-0.5,0.6-1.1,1-1.6c0.5-0.9,0.4-2-0.3-2.7c-0.6-0.6-1.4-0.8-2.2-0.6c0-0.1-0.1-0.3-0.1-0.4
	c-0.3-1-0.5-1.9-0.7-2.9c-0.4-2.1-0.8-4.2-1.1-6.4c-0.1-1-0.3-2.1-0.4-3.1c-0.1-1.1-0.1-2.3-0.1-3.4c0-2.4,0.2-4.7,0.5-7.1
	c0.3-1.8,0.6-3.5,1.1-5.2c0.5-1.8,1.1-3.6,1.8-5.4c0.9-2.1,1.9-4.1,3-6c1.2-2.2,2.5-4.3,3.8-6.5c1.2-2,2.6-4,3.8-6
	c0.7-1.1,1.3-2.3,2-3.5c0.6-1.1,1.1-2.3,1.7-3.4c0.5-1.1,1-2.3,1.5-3.4c0.6-1.3,1.1-2.6,1.6-3.8c0.9-2.3,1.8-4.5,2.7-6.8
	c0.8-2.1,1.7-4.3,2.3-6.5c0.3-1.2,0.7-2.3,1-3.5c0.4-1.4,0.7-2.9,1.1-4.3c0.2-1,0.4-2,0.6-3c0.2-0.9,0.4-1.7,0.5-2.6
	c0.5-2.8,1-5.6,1.6-8.4c0.2-0.9-0.2-1.8-1.2-2.1c-0.1,0-0.3-0.1-0.4-0.1C230.3,341.1,229.5,341.6,229.4,342.3L229.4,342.3z
	 M202.6,435.5c0,0.1,0,0.2,0,0.3C202.6,435.7,202.6,435.6,202.6,435.5L202.6,435.5z M220.9,373.2
	C220.9,373.2,220.9,373.2,220.9,373.2C220.9,373.2,220.9,373.2,220.9,373.2L220.9,373.2z M220.9,373.2
	C220.9,373.2,220.9,373.2,220.9,373.2C220.9,373.2,220.9,373.2,220.9,373.2C220.9,373.2,220.9,373.2,220.9,373.2L220.9,373.2z"/>
<path class="st0" d="M368.6,270.9c-0.5,0-1.1,0.1-1.6,0.2c-0.5,0.1-0.8,0.4-1.2,0.7c-0.3,0.3-0.6,0.7-0.7,1.2c-0.1,0.5-0.1,1,0,1.4
	c0.2,0.6,0.6,1.3,1.2,1.6c0.6,0.3,1.3,0.6,2,0.8c0.5,0.1,0.9,0.2,1.4,0.3c0.8,0.2,1.6,0.4,2.4,0.7c0.3,0.2,0.6,0.3,1,0.5
	c0.3,0.2,0.5,0.3,0.8,0.5c0.3,0.3,0.6,0.6,0.9,0.9c0.3,0.4,0.5,0.8,0.7,1.2c0.7,1.9,1.1,3.9,1.4,5.9c0.7,6.8,0.2,13.7-0.3,20.5
	c-0.1,1.9-0.3,3.7-0.5,5.6c-0.2,1.5-0.5,3.1-0.8,4.6c-0.4,1.7-0.9,3.5-1.4,5.2c-0.5,1.7-1.1,3.3-1.7,5c-0.6,1.6-1.2,3.3-1.8,4.9
	c-0.4,1.2-0.9,2.3-1.4,3.5c-0.5,1.1-0.9,2.2-1.5,3.2c-0.6,1.2-1.2,2.5-1.9,3.7c-0.7,1.2-1.4,2.4-2.2,3.5c-0.7,1-1.3,2-2.1,2.9
	c-0.8,1-1.6,1.9-2.6,2.7c-0.2,0.1-0.4,0.3-0.5,0.4c-0.3,0.2-0.7,0.5-1,0.7c-0.7,0.4-1.4,0.8-2.1,1.2c-1.7,1-3.3,2-4.9,3.2
	c-1.4,1.1-2.7,2.4-3.9,3.8c-1.2,1.2-2.3,2.5-3.5,3.7c-1.2,1.2-2.4,2.5-3.7,3.6c-0.7,0.6-1.4,1.2-2.1,1.8c-0.5,0.4-1,0.9-1.6,1.3
	c-0.7,0.5-1.4,1-2.1,1.4c-0.7,0.4-1.5,0.9-2.2,1.3c-1.4,0.8-2.9,1.7-4.3,2.6c-2.9,1.9-5.8,4-8.6,6.1c-1.5,1.1-2.9,2.2-4.4,3.3
	c-1.4,1-2.8,2.1-4.3,3.1c-1.5,1-3.1,2-4.6,2.9c-1.5,0.9-2.9,1.9-4.4,2.9c-2.1,1.5-4.2,3.1-6.4,4.5c-1.2,0.8-2.3,1.5-3.5,2.2
	c-1,0.6-2.1,1.1-3.1,1.6c-0.8,0.3-1.7,0.6-2.5,0.8c-0.9,0.2-1.8,0.4-2.7,0.5c-0.5,0.1-1,0.1-1.5,0.2c-0.6,0.1-1.3,0-1.9,0
	c-1.3,0-2.7-0.2-4-0.3c-0.2,0-0.4-0.1-0.6-0.1c0,0,0,0,0,0c-1.7-0.2-3.4-0.6-5.1-0.9c-1.6-0.3-3.2-0.7-4.8-1.1
	c-3.5-0.8-7-1.6-10.3-2.9c-1.5-0.5-2.9-1.1-4.3-1.7c-1-0.4-1.9-0.9-2.8-1.3c-0.8-0.4-1.7-0.8-2.5-1.3c-0.9-0.6-1.9-1.2-2.8-1.8
	c-0.8-0.6-1.7-1.2-2.5-1.8c-0.8-0.6-1.6-1.3-2.4-2c-0.9-0.8-1.9-1.6-2.8-2.5c-0.8-0.7-1.6-1.5-2.3-2.3c-0.4-0.4-0.8-0.8-1.1-1.2
	c-0.2-0.3-0.5-0.5-0.7-0.8c-0.2-0.2-0.3-0.3-0.5-0.5c-0.3-0.3-0.5-0.5-0.9-0.7c-0.5-0.2-1,0.4-0.6,0.8c0,0,0,0,0,0
	c0.1,0.2,0.2,0.4,0.3,0.6c0.2,0.8,0.3,1.6,0.5,2.4c0,0,0,0,0,0c0.1,0.7,0.2,1.3,0.2,2c0,0.3,0.5,0.3,0.5,0c-0.1-0.9-0.2-1.8-0.3-2.7
	c0-0.2-0.1-0.5-0.1-0.7c0.3,0.5,0.7,0.9,1,1.4c0.6,0.8,1.2,1.5,1.8,2.3c1.2,1.4,2.4,2.8,3.7,4.1c0.6,0.6,1.2,1.2,1.9,1.9
	c0.2,0.2,0.5,0.4,0.7,0.7c0.3,0.3,0.6,0.6,1,0.9c1.4,1.2,2.8,2.3,4.3,3.4c0.8,0.5,1.6,1.1,2.4,1.6c0.7,0.4,1.4,0.8,2.1,1.2
	c1.5,0.9,3.2,1.6,4.8,2.4c3.4,1.6,7,2.6,10.6,3.6c1.6,0.4,3.1,0.9,4.7,1.2c1.7,0.4,3.4,0.8,5.1,1.1c2,0.3,4,0.6,6,0.8
	c1.9,0.2,3.8-0.1,5.7-0.4c3.6-0.6,7-2.2,10.1-4.2c1.5-0.9,3-1.9,4.4-2.9c1.4-1,2.8-2,4.3-3s2.9-1.9,4.4-2.8c1.6-0.9,3.1-1.9,4.6-2.9
	c1.5-1,2.9-2,4.3-3.1c1.5-1.1,2.9-2.2,4.4-3.3c2.8-2.1,5.6-4.2,8.6-6.1c1.4-0.9,2.8-1.8,4.3-2.6c0.7-0.4,1.5-0.9,2.2-1.3
	c0.8-0.5,1.5-1,2.2-1.5c0.5-0.4,1-0.8,1.5-1.2c0.3-0.2,0.6-0.5,0.9-0.7c0.7-0.6,1.5-1.3,2.2-1.9c1.2-1.1,2.4-2.2,3.5-3.4
	c1.2-1.3,2.4-2.6,3.5-3.9c1.2-1.3,2.3-2.7,3.6-3.8c0.1-0.1,0.2-0.2,0.3-0.3c0.6-0.4,1.2-0.9,1.8-1.2c0.7-0.4,1.5-0.9,2.2-1.3
	c0.8-0.4,1.5-0.9,2.2-1.3c1.1-0.7,2.2-1.6,3.1-2.5c1.3-1.2,2.2-2.6,3.2-4c0.5-0.6,0.9-1.3,1.3-2c1-1.5,1.9-3.1,2.7-4.7
	c1.8-3.4,3.2-6.9,4.5-10.4c0.6-1.5,1.1-3.1,1.7-4.6c0.6-1.6,1.2-3.3,1.7-5c0.5-1.7,1-3.4,1.4-5.2c0.4-1.7,0.7-3.5,1-5.3
	c0.5-3.6,0.7-7.2,1.1-10.8c0.3-3.5,0.6-7,0.8-10.5c0.1-1.7,0.1-3.4-0.1-5c-0.2-2-0.4-4-0.9-6c-0.4-1.9-1-3.8-2.2-5.4
	c-0.5-0.7-1.1-1.3-1.7-1.9c-0.4-0.3-0.8-0.6-1.2-0.9c-0.4-0.3-1-0.6-1.5-0.9c-1.2-0.6-2.4-1-3.7-1.3c-0.5-0.1-1.1-0.2-1.6-0.3
	C369.6,271,369.1,270.9,368.6,270.9C368.6,270.9,368.6,270.9,368.6,270.9L368.6,270.9z M273.7,404.5c0.2,0,0.3,0,0.5,0.1
	C274,404.6,273.8,404.5,273.7,404.5L273.7,404.5z M275.1,404.7c0,0,0.1,0,0.1,0C275.2,404.7,275.1,404.7,275.1,404.7L275.1,404.7z
	 M228.7,385.7C228.7,385.7,228.7,385.7,228.7,385.7C228.7,385.7,228.7,385.7,228.7,385.7L228.7,385.7z"/>
<path class="st0" d="M143.7,383.5c0.1,2.4,0.3,4.9,0.4,7.3c0.1,3.4,0.3,6.9-0.1,10.3c-0.3,2-0.8,4-1.5,5.9c-0.3,0.8-0.6,1.6-0.9,2.4
	c-0.4,0.8-0.7,1.6-1.1,2.4c-0.6,1.2-1.2,2.3-1.8,3.4c-1.1,1.9-2.3,3.8-3.6,5.6c-2.6,3.7-5.4,7.3-8.1,10.9c-1.7,2.1-3.5,4.2-5.4,6.2
	c0.1-0.6,0.3-1.2,0.4-1.8c0.3-1.1,0.6-2.3,0.9-3.4c0.4-1.3-0.4-2.7-1.7-3c-0.6-0.2-1.3-0.1-1.9,0.2c-0.6,0.4-0.9,0.9-1.1,1.5
	c-0.5,1.3-1,2.7-1.4,4c-0.3,1-0.6,1.9-0.9,2.9c-0.3,0.8-0.4,1.7-0.6,2.5c-0.1,0.9-0.1,1.9-0.1,2.8c0,0.5,0.1,1,0.4,1.5
	c0.3,0.6,1,1.2,1.7,1.3c1,0.1,2,0.4,3,0.1c1-0.3,1.8-0.9,2.5-1.6c0.9-0.9,1.9-1.8,2.8-2.7c1-1,2-2.1,2.9-3.2
	c2.1-2.3,3.9-4.8,5.8-7.3c3.4-4.6,7-9.2,9.7-14.2c1-1.8,1.8-3.6,2.6-5.4c1.5-3.4,2.6-6.9,3-10.6c0.4-3.6,0.2-7.2,0-10.8
	c-0.1-2.4-0.3-4.9-0.4-7.3c0-0.7-0.3-1.4-0.8-1.9c-0.5-0.5-1.2-0.8-2-0.8C145,380.7,143.6,382,143.7,383.5L143.7,383.5z
	 M118.2,441.2c-0.1,0-0.1,0.1-0.2,0.1C118.1,441.2,118.2,441.2,118.2,441.2L118.2,441.2z"/>
<path class="st0" d="M197.2,349.9c-1.8,1.6-3.5,3.3-5.2,4.9c-1,0.9-1.9,1.9-2.9,2.8c-2,1.9-3.9,3.8-6,5.5c-1.1,0.8-2.3,1.5-3.6,2
	c-2.8,1.1-5.6,2.1-8.4,3c-1.3,0.4-2.6,0.8-3.9,1.3c-1.4,0.4-2.8,0.9-4.3,1.3c-5.8,1.6-11.6,3.1-17.5,4.4c-2.2,0.5-4.3,1-6.5,1.4
	c-2.1,0.5-4.3,0.9-6.4,1.2c-1,0.1-1.9,0.2-2.9,0.3c-1.3,0.1-2.6,0.1-4,0c-2.2,0-4.3-0.2-6.5-0.5c-2-0.3-4-0.7-5.9-1.4
	c-2-0.7-4-1.4-5.9-2.2c-1.8-0.8-3.6-1.8-5.4-2.8c-1.9-1.1-3.8-2.1-5.8-3c-2.2-1-4.3-2-6.5-2.9c-2.5-1.1-5.1-2-7.6-3
	c-0.6-0.2-1.4-0.1-2,0.3c-0.6,0.3-1,0.9-1.2,1.5c-0.2,0.7-0.1,1.4,0.3,2c0.4,0.6,0.9,0.9,1.5,1.2c2.2,0.8,4.3,1.7,6.5,2.6
	c2.6,1.1,5.1,2.3,7.6,3.6c2.7,1.4,5.2,3.1,7.8,4.6c1.4,0.8,2.9,1.4,4.4,2c1.3,0.6,2.7,1.1,4,1.6c1.5,0.5,3,1,4.5,1.3
	c1.7,0.4,3.4,0.6,5,0.8c2.9,0.3,5.9,0.4,8.9,0.3c1.5-0.1,3.1-0.2,4.6-0.5c1.6-0.3,3.3-0.6,4.9-0.9c3-0.6,6-1.3,8.9-2
	c2.8-0.6,5.6-1.3,8.4-2c2.8-0.7,5.7-1.4,8.5-2.3c2.8-0.9,5.7-1.7,8.5-2.7c1.4-0.5,2.9-1,4.3-1.5c2-0.7,4-1.4,5.9-2.3
	c1.9-0.9,3.6-2.2,5.2-3.6c1.6-1.4,3-2.9,4.5-4.4c1-1.1,2.1-2.1,3.1-3.2c1.6-1.7,3.3-3.4,4.9-5.1c1-1.1,1-2.7,0-3.7
	c-0.5-0.5-1.2-0.8-1.8-0.8C198.5,349.1,197.8,349.4,197.2,349.9L197.2,349.9z"/>
</svg>
