<?xml version="1.0" encoding="utf-8"?>
<!-- Generator: Adobe Illustrator 20.0.0, SVG Export Plug-In . SVG Version: 6.00 Build 0)  -->
<svg version="1.1" id="Layer_1" xmlns="http://www.w3.org/2000/svg" xmlns:xlink="http://www.w3.org/1999/xlink" x="0px" y="0px"
	 viewBox="0 0 647.2 56.5" style="enable-background:new 0 0 647.2 56.5;" xml:space="preserve">
<style type="text/css">
	.st0{fill:#2C2C2C;}
</style>
<path class="st0" d="M19.5,4.3c-0.5,0.1-1.1,0.5-1.3,1c-2.3,5.3-4.5,10.6-6.9,15.8c-0.7,1.6-1.4,3.2-2.1,4.8c-0.3,0.7-0.6,1.5-1,2.2
	c-1.1,2.2-2.1,4.4-3.3,6.6c-0.8,1.5-1.5,3-2.3,4.5c-0.4,0.7-0.7,1.4-1.1,2.1c-0.2,0.4-0.5,0.9-0.7,1.3c-0.2,0.5-0.4,1-0.6,1.5
	c-0.2,0.6-0.2,1.2,0,1.8c0.3,0.9,1.1,1.6,2.1,1.6c0.4,0,0.7-0.1,1.1-0.3c0.4-0.2,0.9-0.8,1-1.3c0-0.1,0-0.2,0-0.3
	c0.3-0.7,0.8-1.4,1.1-2.1c0.3-0.5,0.5-1,0.8-1.5c0.6-1.1,1.1-2.2,1.7-3.3c1.2-2.4,2.3-4.8,3.5-7.2c1-2.1,1.9-4.2,2.9-6.3
	c0.9-1.9,1.7-3.8,2.5-5.8c1.7-4,3.4-8,5.1-12c0.2-0.6,0.4-1.1,0.2-1.7c-0.2-0.6-0.5-1-1-1.3c-0.3-0.2-0.7-0.3-1.1-0.3
	C19.9,4.2,19.7,4.2,19.5,4.3L19.5,4.3z"/>
<path class="st0" d="M22.4,29c-0.5,2.1-1,4.2-1.5,6.3c-0.2,0.9-0.4,1.8-0.7,2.7c-0.1,0.2-0.1,0.5-0.2,0.7c-0.1,0.3-0.3,0.6-0.4,1
	c-0.1,0.2-0.2,0.5-0.3,0.7c-0.1,0.3-0.2,0.6-0.2,0.9c-0.1,0.3-0.1,0.7,0,1c0.1,0.5,0.4,0.9,0.8,1.1c0.4,0.2,0.9,0.3,1.4,0.2
	c0.5-0.1,0.8-0.4,1.1-0.8c0.4-0.6,0.6-1.3,0.8-2.1c0,0,0-0.1,0-0.1c0.2-0.5,0.5-1,0.8-1.5c0.5-0.9,1-1.7,1.6-2.4
	c0.8-1,1.7-2,2.7-2.9c0.3-0.3,0.7-0.6,1-0.8c0.4-0.3,0.7-0.5,1.1-0.7c0.1,0,0.1,0,0.2,0c0.1,0,0.3,0,0.4,0c0.2,0,0.4,0.1,0.6,0.2
	c0.2,0.1,0.4,0.2,0.6,0.4c0.2,0.1,0.3,0.3,0.4,0.5c0.2,0.3,0.4,0.7,0.6,1c0.3,0.8,0.5,1.6,0.7,2.4c0.1,0.9,0.1,1.8,0,2.8
	c-0.1,0.9-0.3,1.7-0.5,2.5c-0.2,0.9-0.5,1.9-0.8,2.8c-0.3,0.8,0.2,1.8,0.9,2.2c1,0.6,2.1,0.2,2.7-0.7c1.1-1.7,1.3-3.8,1.5-5.7
	c0.2-1.8,0.1-3.6-0.3-5.4c-0.2-1-0.6-2-1.1-2.9c-0.5-0.9-1.2-1.8-2-2.4c-0.8-0.6-1.7-1-2.7-1.1c-0.5-0.1-0.9-0.1-1.3,0
	c-0.2,0-0.5,0.1-0.7,0.1c-0.4,0.1-0.7,0.3-1.1,0.4c-0.7,0.3-1.2,0.8-1.8,1.2c-0.3,0.2-0.6,0.5-1,0.8c-0.1,0.1-0.3,0.2-0.4,0.4
	c0.1-0.5,0.2-1.1,0.4-1.6c0.2-0.9-0.3-1.9-1.2-2.2c-0.1,0-0.3-0.1-0.4-0.1C23.4,27.8,22.6,28.3,22.4,29L22.4,29z M19.6,40.7
	C19.5,40.7,19.5,40.8,19.6,40.7C19.5,40.8,19.5,40.7,19.6,40.7L19.6,40.7z"/>
<path class="st0" d="M65.6,0.3c-0.5,0.3-0.7,0.7-0.9,1.1c-1.2,3-2.4,6-3.6,9c-1,2.6-2,5.2-3,7.7c-0.7,1.8-1.2,3.6-1.8,5.4
	c-0.4,1.1-0.8,2.3-1.1,3.4c-0.3,0.8-0.5,1.6-0.7,2.4c-0.6,2.3-1.3,4.6-1.9,6.9c-0.4,1.6-0.8,3.1-0.7,4.8c0.1,0.9,0.3,1.8,0.7,2.6
	c0.4,0.7,1.1,1.3,1.8,1.7c0.6,0.3,1.2,0.6,1.8,0.8c0.8,0.3,1.7,0.5,2.5,0.6c1.7,0.2,3.2-0.6,4.6-1.4c0.7-0.4,1-1.3,0.8-2
	c-0.2-0.9-1.3-1.6-2.2-1.2c-0.7,0.3-1.4,0.5-2.2,0.7c-0.1,0-0.2,0-0.3,0c-0.8-0.2-1.5-0.4-2.2-0.7c-0.3-0.2-0.7-0.3-1-0.5
	c0,0-0.1-0.1-0.1-0.1c0-0.1-0.1-0.1-0.1-0.2c0-0.1-0.1-0.3-0.1-0.4c0-0.5,0-1,0-1.4c0.3-1.5,0.7-3.1,1-4.6c0.2-0.8,0.4-1.6,0.6-2.5
	c0.3-1.3,0.7-2.6,1-3.9c0.2-0.7,0.4-1.3,0.6-2c0.5-1.5,1-2.9,1.4-4.4c0.2-0.7,0.4-1.5,0.7-2.2c0.8-2.2,1.6-4.3,2.5-6.5
	c0.6-1.5,1.1-2.9,1.7-4.4c0.8-2.1,1.7-4.2,2.5-6.4c0.2-0.4,0-1.1-0.2-1.5c-0.2-0.4-0.7-0.7-1.1-0.9C66.9,0,66.7,0,66.5,0
	C66.2,0,65.9,0.1,65.6,0.3L65.6,0.3z"/>
<path class="st0" d="M70,19.6c-2.7,0-5.5,0.3-8.2,0.5c-3,0.3-5.9,0.6-8.9,0.9c-0.4,0-0.8,0.1-1.1,0.4c-0.3,0.3-0.4,0.7-0.4,1.1
	c0,0.4,0.2,0.8,0.4,1.1c0.3,0.3,0.7,0.5,1.1,0.4c3-0.3,5.9-0.6,8.9-0.9c2.7-0.3,5.5-0.6,8.2-0.9c0.4,0,0.7-0.1,0.9-0.4
	c0.2-0.2,0.4-0.6,0.4-0.9C71.3,20.2,70.7,19.6,70,19.6C70,19.6,70,19.6,70,19.6L70,19.6z"/>
<path class="st0" d="M78.4,24.7c-0.5,2.6-1.1,5.2-1.7,7.8c-0.3,1.1-0.5,2.3-0.8,3.4c-0.1,0.6-0.3,1.2-0.4,1.8c0,0.1-0.1,0.3-0.1,0.4
	c-0.1,0.3-0.2,0.6-0.3,0.8c-0.2,0.6-0.3,1.2-0.4,1.8c-0.1,0.4-0.1,0.9,0,1.3c0.2,0.6,0.6,1.1,1.1,1.5c1.1,0.7,2.8,0.3,3.4-0.9
	c0.4-0.7,0.6-1.4,0.8-2.2c0.1-0.3,0.1-0.6,0.2-1c0.1-0.5,0.2-0.9,0.3-1.4c0,0,0-0.1,0.1-0.1c0.6-1.4,1.3-2.7,2.2-3.9
	c0.9-1.1,1.9-2.1,3-3c0.4-0.3,0.9-0.6,1.4-0.9c0.2-0.1,0.5-0.1,0.7-0.2c0.2,0,0.4,0,0.6,0c0.5,0.1,1,0.2,1.5,0.4
	c0.6,0.3,1.2,0.6,1.7,1c0.2,0.2,0.4,0.3,0.6,0.5c0.5,0.5,1.3,0.6,2,0.3c0.7-0.4,1.1-1.5,0.6-2.2c-0.3-0.4-0.5-0.7-0.8-1
	c-0.4-0.4-0.8-0.8-1.3-1.1c-0.4-0.3-0.9-0.5-1.3-0.7c-0.6-0.3-1.2-0.5-1.9-0.6c-1.2-0.3-2.5-0.2-3.7,0.2c-1.2,0.4-2.2,1.1-3.2,1.8
	c0,0,0,0,0,0c0.2-0.8,0.3-1.6,0.5-2.4c0.1-0.7,0.1-1.3-0.2-1.9c-0.3-0.5-0.8-1-1.5-1.1c-0.2-0.1-0.4-0.1-0.6-0.1
	C79.7,22.9,78.6,23.6,78.4,24.7L78.4,24.7z"/>
<path class="st0" d="M115.8,27c-0.3,0.4-0.3,1-0.2,1.5c0.1,0.5,0.5,0.9,0.9,1.2c0.3,0.2,0.6,0.4,0.9,0.6c0.8,0.7,1.6,1.4,2.3,2.2
	c0.2,0.3,0.4,0.6,0.6,1c0.1,0.2,0.2,0.5,0.2,0.7c0,0.2,0,0.4,0,0.6c-0.1,0.3-0.1,0.5-0.2,0.8c-0.3,0.5-0.6,1-0.9,1.4
	c-0.7,0.8-1.4,1.5-2.2,2.2c-0.4,0.3-0.8,0.6-1.3,0.8c-0.5,0.2-1,0.3-1.6,0.4c-0.4,0-0.8,0-1.2,0c-0.7-0.1-1.3-0.3-1.9-0.6
	c-0.5-0.2-0.9-0.5-1.4-0.8c-0.4-0.4-0.8-0.8-1.2-1.2c-0.1-0.2-0.3-0.4-0.4-0.7c0-0.1-0.1-0.3-0.1-0.4c0-0.3,0-0.6,0-0.9
	c0-0.2,0.1-0.4,0.2-0.7c0.1-0.3,0.3-0.5,0.5-0.7c0.5-0.6,1-1.2,1.6-1.8c0.7-0.7,1.4-1.2,2.2-1.8c0.3-0.2,0.7-0.5,1-0.7
	c0.5-0.3,0.8-0.7,1-1.3c0.2-0.6,0.1-1.2-0.2-1.7c-0.3-0.5-0.7-0.8-1.3-1c-0.5-0.1-1.2-0.1-1.7,0.2c-1.8,1.3-3.6,2.6-5,4.2
	c-0.7,0.8-1.4,1.6-1.9,2.6c-0.5,1.1-0.7,2.3-0.6,3.5c0.1,2.2,1.5,4,3.2,5.4c1.9,1.5,4.2,2.3,6.6,2.3c1.1,0,2.1-0.2,3.1-0.6
	c1.1-0.4,2-0.9,2.9-1.7c0.8-0.6,1.5-1.3,2.1-2.1c0.8-0.9,1.4-1.9,1.9-2.9c0.5-1,0.7-2.1,0.6-3.2c0-1.1-0.5-2.2-1-3.2
	c-0.2-0.4-0.6-0.8-0.9-1.2c-0.4-0.4-0.7-0.9-1.1-1.3c-0.8-0.8-1.8-1.5-2.8-2.2c-0.3-0.2-0.6-0.3-0.9-0.3
	C116.9,26,116.2,26.4,115.8,27L115.8,27z M120.4,33.7c0,0,0,0.1,0,0.1C120.4,33.8,120.4,33.7,120.4,33.7L120.4,33.7z"/>
<path class="st0" d="M173.4,4.7c-0.7,0.4-1,1-1.3,1.7c-1.2,3.5-2.5,6.9-3.6,10.4c-0.7,2.1-1.5,4.3-2.1,6.4c-0.5,1.6-1,3.2-1.5,4.8
	c-0.7,2.4-1.4,4.8-1.7,7.2c-0.2,1.8,0.1,3.7,1.1,5.3c0.4,0.6,0.9,1.2,1.5,1.6c0.8,0.6,1.6,1,2.5,1.4c0.7,0.3,1.5,0.4,2.3,0.5
	c0.9,0.1,1.8,0.1,2.7-0.1c0.8-0.2,1.6-0.5,2.3-0.8c0.8-0.4,1.4-1,2-1.5c0.8-0.7,0.9-2,0.4-2.8c-0.6-1.1-2.1-1.5-3.2-0.8
	c-0.3,0.2-0.6,0.4-1,0.5c-0.4,0.1-0.7,0.2-1.1,0.3c-0.5,0-0.9,0-1.4,0c-0.4-0.1-0.9-0.2-1.3-0.3c-0.2-0.1-0.4-0.2-0.6-0.3
	c-0.1-0.1-0.2-0.2-0.3-0.3c-0.1-0.1-0.1-0.2-0.2-0.3c-0.1-0.2-0.1-0.4-0.2-0.6c0-0.4,0-0.7,0-1.1c0.5-2.9,1.4-5.6,2.3-8.4
	c0.5-1.6,0.9-3.2,1.5-4.8c1.7-4.9,3.3-9.8,5.1-14.6c0.2-0.7,0.1-1.6-0.3-2.2c-0.4-0.6-1-1.1-1.7-1.3c-0.2-0.1-0.5-0.1-0.7-0.1
	C174.4,4.3,173.9,4.4,173.4,4.7L173.4,4.7z"/>
<path class="st0" d="M174.5,19.6c-0.7,0.1-1.3,0.1-2,0.2c-1.3,0.2-2.6,0.5-3.8,0.7c-0.8,0.2-1.5,0.4-2.2,0.6
	c-0.7,0.2-1.4,0.6-1.9,1.1c-0.1,0.1-0.3,0.3-0.4,0.4c-0.1,0.1-0.2,0.3-0.3,0.5c-0.1,0.3-0.2,0.6-0.2,1c0,0.4,0.2,0.8,0.3,1.1
	c0.1,0.2,0.3,0.3,0.4,0.5c0.1,0.1,0.2,0.3,0.3,0.4c0.2,0.3,0.7,0.4,1.1,0.4c0.4,0,0.8-0.2,1.1-0.4c0.3-0.3,0.4-0.7,0.4-1.1
	c0-0.4-0.1-0.6-0.3-0.9c0,0,0.1,0,0.1,0c1.6-0.6,3.4-0.8,5.1-1c-0.1,0-0.3,0-0.4,0.1c0.5-0.1,1-0.1,1.5-0.2c0.9-0.1,1.9-0.2,2.8-0.2
	c1.2,0,2.4,0.1,3.6,0.2c0.7,0.1,1.3-0.5,1.5-1.1c0.1-0.4,0.1-0.8-0.2-1.2c-0.2-0.3-0.5-0.6-0.9-0.7c-1.3-0.2-2.7-0.4-4-0.5
	c-0.2,0-0.4,0-0.6,0c-0.1,0-0.2,0-0.3,0c-0.1,0-0.2,0-0.3,0S174.6,19.6,174.5,19.6L174.5,19.6z M173.7,23c-0.1,0-0.3,0-0.4,0.1
	C173.4,23.1,173.5,23.1,173.7,23L173.7,23z M166.5,24.6c0,0-0.1,0.1-0.1,0.1C166.4,24.7,166.5,24.6,166.5,24.6L166.5,24.6z"/>
<path class="st0" d="M193.1,21.7c-0.8,0.7-1.5,1.6-2.2,2.5c-0.8,1-1.4,2.2-2,3.3c-0.6,1.2-1.1,2.4-1.5,3.6c-0.2,0.6-0.2,1.2-0.3,1.8
	c-0.1,0.8,0,1.6,0.1,2.3c0.2,1.1,0.6,2.2,1.2,3.2c0.3,0.5,0.7,1,1.1,1.4c0.4,0.5,1,0.9,1.6,1.4c0.4,0.3,1,0.6,1.5,0.8
	c0.7,0.2,1.4,0.3,2.2,0.3c1.4-0.1,2.7-0.5,4-1.1c1-0.5,2-1.3,2.8-2.1c0.9-0.9,1.7-1.9,2.4-2.9c0.7-1,1.4-1.9,1.9-3
	c0.6-1.2,0.6-2.5,0.2-3.8c-0.3-1.1-1-2-1.7-2.8c-0.8-0.9-1.8-1.7-2.8-2.4c-1.1-0.8-2.3-1.3-3.6-1.7c-0.2-0.1-0.5-0.1-0.7-0.1
	c-0.1-0.3-0.3-0.5-0.5-0.7c-0.5-0.5-1.1-0.7-1.8-0.7C194.1,20.9,193.6,21.2,193.1,21.7L193.1,21.7z M195.5,26.3
	c0.3,0.3,0.7,0.5,1.1,0.7c0.1,0,0.1,0,0.2,0.1c1.1,0.5,2.1,1.2,3.1,1.9c0.5,0.4,0.9,0.8,1.3,1.3c0.2,0.2,0.3,0.5,0.5,0.8
	c0,0,0,0.1,0,0.1c0,0.1,0,0.1,0,0.2c0,0,0,0,0,0c-0.6,1.1-1.3,2.1-2,3.1c-0.6,0.7-1.2,1.3-1.8,1.9c-0.5,0.4-1,0.7-1.6,1
	c-0.4,0.2-0.9,0.3-1.3,0.4c-0.2,0-0.5,0-0.7,0c0,0-0.1,0-0.1,0c-0.2-0.1-0.3-0.2-0.4-0.3c-0.2-0.2-0.4-0.4-0.6-0.6
	c-0.2-0.3-0.5-0.7-0.6-1.1c-0.1-0.4-0.2-0.8-0.3-1.2c0-0.5,0-0.9,0-1.4c0.1-0.4,0.2-0.8,0.3-1.1c0.8-1.7,1.6-3.4,2.7-4.9
	C195.2,26.7,195.4,26.5,195.5,26.3L195.5,26.3z M201.8,30.8c0,0.1,0,0.1,0,0.2c0,0,0,0,0,0C201.7,30.9,201.8,30.9,201.8,30.8
	L201.8,30.8z M201.7,31C201.7,31,201.7,31,201.7,31C201.7,31,201.7,31,201.7,31C201.7,31,201.7,31,201.7,31L201.7,31z M201.7,31.2
	C201.8,31.2,201.8,31.3,201.7,31.2C201.8,31.3,201.8,31.2,201.7,31.2L201.7,31.2z"/>
<path class="st0" d="M275.7,7.2c-3,1.3-5.4,3.6-7.7,5.9c-1.2,1.2-2.2,2.5-3.3,3.8c-1.2,1.5-2.3,2.9-3.3,4.5
	c-1.9,2.8-3.6,5.7-4.9,8.8c-0.7,1.6-1.4,3.3-1.7,5.1c-0.1,0.5-0.1,0.9-0.1,1.4c0,0.5,0.1,1,0.1,1.4c0.1,1,0.6,1.9,1.1,2.8
	c0.9,1.5,2.3,2.5,3.7,3.4c0.7,0.4,1.4,0.7,2.1,1.1c0.8,0.4,1.6,0.7,2.5,0.9c0.8,0.2,1.7,0.4,2.6,0.5c0.7,0.1,1.4,0,2.1,0
	c1-0.1,1.9-0.3,2.9-0.4c0.9-0.1,1.6-1.2,1.6-2c0-1.1-1-2.1-2.1-2.1c-1,0-2.1,0-3.1-0.1c-1.3-0.2-2.6-0.7-3.9-1.2
	c-1.1-0.5-2.1-1-3.1-1.7c-0.3-0.2-0.6-0.5-0.8-0.8c-0.2-0.3-0.3-0.5-0.5-0.8c-0.1-0.2-0.1-0.3-0.1-0.5c0-0.4,0-0.8,0-1.2
	c0.3-1.6,0.9-3.1,1.5-4.6c0.9-2.1,2-4.2,3.2-6.1c1.2-1.9,2.5-3.8,3.9-5.5c1-1.2,2-2.4,3.1-3.6c1.1-1.2,2.2-2.3,3.5-3.3
	c0.9-0.7,1.9-1.3,3-1.7c0.4-0.1,0.8-0.3,1.2-0.3c0.2,0,0.5,0,0.7,0c0.2,0.1,0.5,0.1,0.7,0.2c0.1,0.1,0.3,0.1,0.4,0.2
	c0.4,0.3,0.7,0.7,1,1.1c0.3,0.5,0.6,0.9,0.9,1.4c0.2,0.7,0.4,1.4,0.6,2.2c0.1,0.9,0.1,1.8,0.1,2.7c0,1.1,0.9,2,2,2c1.1,0,2-0.9,2-2
	c0-1.7-0.1-3.4-0.5-5.1c-0.2-0.8-0.5-1.5-0.9-2.3c-0.4-0.8-0.9-1.4-1.4-2.1c-0.5-0.6-1-1.2-1.7-1.6c-0.7-0.4-1.4-0.7-2.2-0.9
	c-0.5-0.1-0.9-0.2-1.4-0.2C278.1,6.3,276.9,6.7,275.7,7.2L275.7,7.2z M268.4,19.6c0,0.1-0.1,0.1-0.1,0.2
	C268.3,19.7,268.3,19.7,268.4,19.6L268.4,19.6z M261.5,30.8c0,0.1-0.1,0.2-0.1,0.2C261.4,31,261.5,30.9,261.5,30.8L261.5,30.8z"/>
<path class="st0" d="M289.9,31.8c-0.2,0.2-0.4,0.5-0.5,0.7c-0.1-0.1-0.3-0.1-0.4-0.1c-0.4-0.1-0.7-0.1-1.1-0.1c-0.1,0-0.2,0-0.4,0
	c-0.3,0-0.7,0.1-1,0.1c-0.9,0.2-1.7,0.5-2.5,1.1c-1.4,1-2.6,2.6-2.9,4.3c-0.3,1.8,0.1,3.7,1,5.3c0.4,0.7,1,1.3,1.6,1.8
	c0.8,0.6,1.8,0.8,2.7,0.9c3.8,0.4,7.1-2,9.2-4.9c0.2-0.3,0.4-0.8,0.6-1.2c0.2-0.4,0.2-0.8,0.3-1.3c0.1-1-0.2-2.1-0.6-3
	c-0.8-1.6-2.1-3-3.6-4c-0.3-0.2-0.7-0.3-1-0.3C290.9,31.1,290.3,31.4,289.9,31.8L289.9,31.8z M289.6,36.8c0.5-0.3,0.9-0.8,1.1-1.3
	c0.1,0.1,0.2,0.3,0.3,0.4c0.4,0.5,0.7,1,1,1.5c0.1,0.2,0.1,0.4,0.2,0.6c0,0.1,0,0.1-0.1,0.2c-0.1,0.2-0.2,0.3-0.3,0.5
	c-0.4,0.5-0.8,0.9-1.3,1.3c-0.5,0.3-1,0.6-1.5,0.9c-0.3,0.1-0.7,0.2-1,0.3c-0.3,0-0.7,0-1,0c-0.1,0-0.3-0.1-0.4-0.1
	c-0.2-0.2-0.3-0.5-0.4-0.7c-0.1-0.3-0.2-0.5-0.2-0.8c0-0.2,0-0.5,0-0.7c0-0.1,0.1-0.2,0.1-0.3c0.1-0.2,0.2-0.4,0.3-0.5
	c0.1-0.1,0.3-0.3,0.4-0.4c0.1-0.1,0.3-0.2,0.4-0.3c0.2-0.1,0.3-0.1,0.5-0.1c0.1,0,0.3,0,0.4,0c0.1,0,0.2,0,0.3,0
	C288.8,37.1,289.2,37,289.6,36.8L289.6,36.8z M292.2,38.1c0,0.1,0,0.2,0,0.3C292.1,38.3,292.1,38.2,292.2,38.1L292.2,38.1z
	 M286.4,40.7c0.1,0.1,0.1,0.2,0.2,0.2C286.5,40.9,286.4,40.8,286.4,40.7L286.4,40.7z M286.3,40.8c0.1,0.1,0.1,0.1,0.2,0.2
	C286.4,40.9,286.4,40.8,286.3,40.8L286.3,40.8z"/>
<path class="st0" d="M305.6,29.3c-0.9,0.1-1.8,0.3-2.7,0.5c-0.9,0.2-1.3,1.2-1.1,2c0.1,0.4,0.4,0.7,0.7,0.9c0.4,0.2,0.8,0.2,1.2,0.2
	c0.6-0.1,1.2-0.2,1.8-0.3c0.3,0,0.6-0.1,1-0.1c0.1,0,0.2,0.1,0.2,0.1c0.2,0.2,0.4,0.4,0.6,0.7c0.2,0.3,0.4,0.7,0.6,1
	c0.3,0.8,0.5,1.6,0.7,2.4c0.1,1.1,0.1,2.2,0.1,3.4c0,0.1-0.1,0.1-0.1,0.2c-0.2,0.5-0.4,1.1-0.6,1.6c-0.2,0.6,0,1.5,0.5,1.9
	c0.6,0.6,1.6,0.8,2.4,0.3c0.7-0.4,1.2-1,1.3-1.9c0-0.1,0-0.3,0.1-0.4c0.2-0.4,0.5-0.8,0.8-1.2c0.8-0.9,1.6-1.7,2.5-2.5
	c0.8-0.6,1.7-1.2,2.6-1.7c0.2-0.1,0.3-0.1,0.5-0.1c0,0,0,0.1,0.1,0.1c0.1,0.3,0.2,0.5,0.2,0.8c0,0.4,0,0.8,0,1.1
	c0,0.2-0.1,0.5-0.1,0.7c-0.1,0.1-0.1,0.2-0.2,0.3c-0.5,0.8-0.3,2,0.3,2.6c0.4,0.4,1,0.6,1.5,0.6c0.5,0,1.2-0.2,1.5-0.6
	c1.1-1.4,2.4-2.7,3.8-3.8c1.5-1.1,3.1-2.1,4.8-2.9c0.3-0.1,0.7-0.2,1-0.3c0.1,0,0.2,0,0.3,0c0,0,0.1,0,0.1,0
	c0.1,0.1,0.2,0.2,0.3,0.3c0.1,0.2,0.2,0.3,0.3,0.5c0.1,0.3,0.2,0.6,0.2,0.9c0,0.4,0,0.8,0,1.1c-0.2,1-0.5,2-0.8,3
	c-0.2,0.7-0.5,1.5-0.8,2.2c-0.1,0.4-0.1,0.8,0,1.2c0.2,0.6,0.5,1.1,1.1,1.4c0.5,0.3,1.2,0.4,1.8,0.2c0.5-0.1,1.1-0.5,1.4-1.1
	c0.4-0.8,0.7-1.6,1-2.5c0.2-0.6,0.3-1.2,0.4-1.8c0.2-0.8,0.3-1.6,0.4-2.4c0.1-0.9,0-1.7-0.2-2.6c-0.1-0.7-0.4-1.4-0.8-2
	c-0.4-0.8-1.1-1.5-1.8-2c-0.7-0.5-1.4-0.7-2.2-0.8c-0.8-0.1-1.6,0-2.4,0.3c-1.5,0.5-2.8,1.2-4.2,2c-1.1,0.6-2.1,1.4-3.1,2.1
	c-0.2-0.4-0.3-0.8-0.6-1.1c-0.4-0.6-0.9-1-1.4-1.3c-0.3-0.1-0.5-0.2-0.8-0.3c-0.4-0.1-0.7-0.1-1.1-0.1c-0.6,0-1.2,0.2-1.8,0.4
	c-1,0.4-1.9,1-2.8,1.6c-0.7,0.5-1.4,1-2.1,1.6c-0.2-0.8-0.4-1.5-0.7-2.2c-0.6-1.7-1.7-3.2-3.2-4.1c-0.4-0.2-0.9-0.4-1.3-0.4
	c0,0-0.1,0-0.1,0C306.3,29.2,305.9,29.2,305.6,29.3L305.6,29.3z M332.1,35.2c0,0,0.1,0.1,0.1,0.1C332.2,35.2,332.1,35.2,332.1,35.2
	L332.1,35.2z M318.1,36c0.1,0,0.2,0.1,0.2,0.1C318.3,36.1,318.2,36.1,318.1,36L318.1,36z M318.6,36.3
	C318.6,36.3,318.7,36.3,318.6,36.3C318.7,36.3,318.6,36.3,318.6,36.3C318.6,36.3,318.6,36.3,318.6,36.3L318.6,36.3z"/>
<path class="st0" d="M354.5,33.4c-0.1,0-0.2,0.1-0.3,0.1c-0.7-0.1-1.3,0-1.9,0.3c-0.6,0.4-1,0.9-1.2,1.6c-0.1,0.3-0.2,0.6-0.3,0.9
	c-0.1,0.1-0.3,0.3-0.4,0.4c-1.4,1.6-2.5,3.3-3.4,5.2c-0.9,1.8-1.6,3.7-2.2,5.7c-0.3,1-0.6,2-0.8,3c-0.2,1.1-0.3,2.3-0.3,3.4
	c0,0.6,0.3,1.3,0.7,1.7c0.6,0.6,1.5,0.8,2.4,0.6c0.5-0.1,0.9-0.2,1.3-0.4c0.6-0.3,0.9-0.7,1.3-1.2c0.5-0.7,0.9-1.6,1.2-2.4
	c0.9-2.1,1.7-4.2,2.4-6.3c0.2,0.3,0.6,0.6,1,0.7c1.8,0.6,3.6-0.4,4.7-1.8c0.6-0.8,1.2-1.6,1.6-2.5c0.2-0.4,0.4-0.9,0.5-1.4
	c0.1-0.5,0.2-0.9,0.2-1.4c0.1-0.9,0-1.8-0.2-2.6c-0.2-0.8-0.7-1.6-1.2-2.2c-0.6-0.7-1.3-1.1-2.1-1.4c-0.4-0.2-0.9-0.2-1.3-0.2
	C355.5,33.2,355,33.3,354.5,33.4L354.5,33.4z M356.2,36.9c0.1-0.3,0.1-0.6,0.1-0.9c0,0,0.1,0,0.1,0c0.2,0.1,0.3,0.2,0.4,0.3
	c0.1,0.1,0.3,0.3,0.4,0.4c0.1,0.1,0.2,0.3,0.3,0.4c0.1,0.3,0.2,0.6,0.2,0.9c0,0.4,0,0.7,0,1c-0.1,0.4-0.2,0.8-0.3,1.2
	c-0.2,0.5-0.5,1-0.9,1.4c-0.3,0.4-0.7,0.8-1.1,1.2c-0.2,0.1-0.5,0.3-0.7,0.4c-0.1,0-0.1,0-0.2,0c-0.3,0-0.6,0-0.8,0
	C354.7,41.3,355.5,39.1,356.2,36.9L356.2,36.9z M355,43.4c-0.1,0-0.1,0-0.2,0C354.9,43.4,354.9,43.4,355,43.4L355,43.4z M354.5,43.4
	C354.6,43.4,354.6,43.4,354.5,43.4C354.6,43.4,354.6,43.4,354.5,43.4L354.5,43.4z"/>
<path class="st0" d="M369.8,35.1c0,1.5,0,2.9,0,4.4c0,0.4,0,0.7,0,1.1c0,0.8,0.1,1.7,0.6,2.4c0.4,0.6,1,1.1,1.6,1.5
	c0.7,0.5,1.5,0.6,2.3,0.7c0.7,0.1,1.4-0.1,2.1-0.3c0.6-0.2,1.2-0.4,1.8-0.6c1-0.4,2-0.9,2.9-1.4c0,0,0,0.1,0,0.1
	c0.1,0.6,0.5,1.1,0.8,1.6c0.4,0.6,0.8,1,1.4,1.4c0.5,0.4,1,0.6,1.6,0.8c0.6,0.2,1.2,0.3,1.9,0.4c0.6,0.1,1.3,0,1.9-0.2
	c0.6-0.1,1.2-0.4,1.7-0.6c1.3-0.6,2.5-1.4,3.7-2.2c0.4-0.3,0.7-0.6,0.8-1.1c0.1-0.5,0.1-1-0.2-1.4c-0.5-0.9-1.7-1.2-2.5-0.7
	c-1,0.6-2,1.1-3.1,1.6c-0.5,0.2-1,0.4-1.5,0.5c-0.2,0-0.4,0-0.5,0c-0.3-0.1-0.5-0.1-0.8-0.2c-0.2-0.1-0.4-0.2-0.6-0.3
	c-0.1-0.1-0.2-0.2-0.4-0.3c-0.1-0.1-0.2-0.2-0.2-0.4c0-0.1,0-0.2-0.1-0.2c0-0.3,0-0.6,0-0.9c0-0.2,0.1-0.4,0.1-0.6
	c0.2-0.2,0.5-0.4,0.7-0.6c0.5-0.4,0.9-0.9,1.3-1.4c0.2-0.3,0.3-0.6,0.4-0.9c0.2-0.5,0-1.1-0.1-1.5c-0.2-0.9-1.3-1.5-2.2-1.2
	c-0.5,0.2-1,0.4-1.5,0.7c-0.4,0.3-0.7,0.8-1,1.2c-0.3,0.4-0.5,0.9-0.7,1.3c-0.5,0.3-1,0.6-1.5,0.9c-1,0.6-1.9,1.2-2.9,1.6
	c-0.9,0.3-1.8,0.6-2.7,0.8c-0.2,0-0.4,0-0.6,0c0,0,0,0,0,0c-0.1,0-0.2-0.1-0.3-0.2c-0.1-0.1-0.1-0.1-0.2-0.2c0-0.5,0-0.9,0-1.4
	c0-0.4,0-0.8,0-1.2c0-1.1,0-2.1,0-3.2c0-1.1-0.9-2-2-2C370.8,33.1,369.8,34,369.8,35.1L369.8,35.1z M373.8,40.7
	C373.8,40.7,373.8,40.7,373.8,40.7C373.8,40.7,373.8,40.7,373.8,40.7L373.8,40.7z M373.9,41c0,0.1,0,0.1,0.1,0.2
	C374,41.2,373.9,41.1,373.9,41L373.9,41z"/>
<path class="st0" d="M406.1,13.7c-1.1,2-2.2,4-3.3,6c-0.8,1.5-1.6,3.1-2.3,4.6c-1.1,2.1-2.2,4.2-3.2,6.4c-0.8,1.7-1.5,3.4-2.2,5.1
	c-0.8,1.9-1.7,3.7-2.5,5.6c-0.3,0.7-0.5,1.5-0.7,2.3c-0.2,1-0.2,1.9,0,2.8c0.1,0.4,0.4,0.9,0.6,1.3c0.3,0.4,0.6,0.8,1,1.1
	c0.9,0.8,1.9,1.2,3,1.5c1,0.2,2,0.2,3,0c0.9-0.1,1.7-0.4,2.5-0.8c0.8-0.3,1.5-0.9,2.2-1.4c0.8-0.6,1.6-1.3,2.4-2
	c1.7-1.7,3.4-3.5,4.9-5.4c0.4-0.5,0.6-0.9,0.6-1.6c0-0.6-0.2-1.1-0.6-1.6c-0.8-0.8-2.3-0.9-3.1,0c-0.8,0.8-1.6,1.6-2.4,2.4
	c-1.2,1.1-2.4,2.2-3.6,3.2c-0.8,0.6-1.7,1.2-2.6,1.7c-0.3,0.1-0.7,0.2-1,0.3c-0.3,0-0.5,0-0.8,0c-0.2,0-0.3-0.1-0.5-0.1
	c-0.1-0.1-0.2-0.1-0.3-0.2c0.2-0.9,0.4-1.7,0.8-2.5c1-2.3,2-4.6,3-6.9c0.6-1.4,1.2-2.9,1.9-4.3c1.2-2.4,2.4-4.7,3.6-7.1
	c0.4-0.8,0.8-1.6,1.2-2.5c0.9-1.8,2-3.6,3-5.5c0.7-1.2,0.3-2.8-0.9-3.5c-0.4-0.2-0.8-0.3-1.3-0.3C407.4,12.4,406.5,12.9,406.1,13.7
	L406.1,13.7z M396.6,44.5c0,0.1,0.1,0.1,0.1,0.2C396.7,44.6,396.7,44.6,396.6,44.5L396.6,44.5z M396.9,45
	C397,45.1,397,45.1,396.9,45C397,45.1,397,45.1,396.9,45C396.9,45,396.9,45,396.9,45L396.9,45z"/>
<path class="st0" d="M403.5,24.3c-0.2,0.1-0.3,0.1-0.5,0.3c-0.2,0.2-0.4,0.5-0.3,0.8c0,0.4,0,0.8,0.2,1.1c0.2,0.3,0.4,0.6,0.7,0.8
	c0.2,0.2,0.5,0.3,0.8,0.4c0.3,0.1,0.6,0.3,0.9,0.5c0.5,0.3,1.1,0.1,1.4-0.4c0.2-0.3,0.2-0.8,0-1.1c0.3,0.1,0.6,0.2,0.8,0.3
	c0.2,0.1,0.4,0.1,0.6,0c0.3-0.1,0.5-0.3,0.7-0.5c0.1-0.3,0.2-0.6,0.1-0.8c-0.1-0.2-0.3-0.6-0.5-0.7c-0.7-0.3-1.5-0.7-2.2-0.9
	c-0.4-0.1-0.8-0.2-1.2-0.2c0,0-0.1,0-0.1,0C404.3,24,403.9,24.2,403.5,24.3L403.5,24.3z"/>
<path class="st0" d="M420.8,28.7c-0.7,0.1-1.4,0.2-2.1,0.5c-1.3,0.6-2.5,1.4-3.5,2.5c-0.4,0.4-0.7,0.9-1,1.3
	c-0.6-0.1-1.3-0.2-1.9-0.3c-0.6-0.1-1.1-0.1-1.6,0.2c-0.5,0.3-0.8,0.7-1,1.3c-0.1,0.5-0.1,1.1,0.2,1.6c0.3,0.4,0.7,0.9,1.3,1
	c0.5,0.1,1.1,0.2,1.6,0.3c0,0.3,0,0.5,0,0.8c0,0.8,0.1,1.5,0.3,2.3c0.2,0.7,0.5,1.4,0.9,2.1c0.3,0.6,0.8,1.2,1.3,1.7
	c0.5,0.5,1.1,0.9,1.7,1.3c0.6,0.4,1.3,0.7,1.9,0.9c0.6,0.2,1.3,0.4,1.9,0.5c0.8,0.2,1.6,0.3,2.4,0.3c0.8,0.1,1.5-0.1,2.3-0.2
	c0.7-0.1,1.3-0.3,1.9-0.6c1-0.4,2-0.9,2.9-1.4c1.2-0.6,2.3-1.2,3.4-1.9c0.8-0.5,1.2-1.6,0.7-2.5c-0.5-0.9-1.6-1.1-2.5-0.7
	c-1.6,0.9-3.2,1.5-4.8,2.2c-0.9,0.3-1.7,0.6-2.6,0.7c-0.5,0-0.9,0-1.4,0c-1.1-0.2-2.2-0.4-3.2-0.8c-0.5-0.2-0.9-0.5-1.4-0.8
	c-0.3-0.3-0.6-0.5-0.9-0.8c-0.3-0.4-0.5-0.7-0.7-1.1c-0.1-0.3-0.2-0.7-0.3-1c0-0.2,0-0.5,0-0.7c1.2,0,2.4-0.1,3.6-0.3
	c0.7-0.1,1.4-0.4,2.1-0.7c0.7-0.3,1.2-0.7,1.8-1.1c0.5-0.4,0.9-1,1.2-1.5c0.4-0.7,0.5-1.5,0.3-2.3c-0.2-0.7-0.5-1.3-1-1.8
	c-0.2-0.2-0.6-0.4-0.9-0.6c-0.3-0.2-0.7-0.3-1-0.4c-0.3-0.1-0.8-0.2-1.1-0.2c-0.1,0-0.1,0-0.2,0C421.3,28.7,421,28.7,420.8,28.7
	L420.8,28.7z M421.9,31.9c0,0,0,0.1,0,0.1C421.8,32,421.8,31.9,421.9,31.9L421.9,31.9z M421.4,32.4c-0.2,0.1-0.4,0.3-0.7,0.4
	c-0.6,0.2-1.1,0.4-1.7,0.5c0.3-0.2,0.6-0.4,1-0.6c0.3-0.1,0.6-0.2,1-0.3C421.1,32.4,421.3,32.4,421.4,32.4L421.4,32.4z M421.8,32.5
	C421.8,32.5,421.8,32.5,421.8,32.5C421.8,32.5,421.8,32.5,421.8,32.5C421.8,32.5,421.8,32.5,421.8,32.5
	C421.8,32.5,421.8,32.5,421.8,32.5L421.8,32.5z M421.8,32.5C421.8,32.5,421.8,32.5,421.8,32.5c0,0.1,0,0.1,0,0.2
	C421.8,32.6,421.8,32.6,421.8,32.5L421.8,32.5z M422.1,32.7C422.1,32.7,422.1,32.7,422.1,32.7C422.1,32.7,422.1,32.7,422.1,32.7
	L422.1,32.7z"/>
<path class="st0" d="M443.1,30c-1.8,0-3.5,0.4-5.2,1.1c-1.6,0.7-3.1,1.5-4.5,2.7c-0.6,0.5-1.1,1.2-1.6,1.9c-0.6,0.8-0.8,1.7-0.8,2.7
	c0,0.9,0.4,1.6,1.2,2.1c0.8,0.4,1.7,0.4,2.4,0c0.5-0.2,0.9-0.5,1.2-1c0.3-0.4,0.6-0.8,0.8-1.2c0.3-0.5,0.6-1.1,0.9-1.6
	c0.1-0.3,0.2-0.5,0.3-0.8c0.6-0.4,1.3-0.8,2-1.1c0.7-0.3,1.4-0.5,2.2-0.6c0.8-0.1,1.7-0.1,2.5,0c0.5,0.1,1,0.2,1.5,0.4
	c0.8,0.3,1.8-0.2,2.2-0.9c0.5-0.9,0.3-2.2-0.7-2.7c-0.7-0.3-1.4-0.6-2.2-0.8c-0.6-0.1-1.3-0.2-2-0.2C443.4,30,443.2,30,443.1,30
	L443.1,30z M432.1,36.4C432.1,36.4,432.1,36.4,432.1,36.4c0,0-0.1,0.1-0.1,0.1C432,36.5,432.1,36.4,432.1,36.4L432.1,36.4z"/>
<path class="st0" d="M502.6,14.7c-0.7,0.1-1.4,0.3-2,0.5c-1.6,0.5-2.9,1.4-4.3,2.4c-2.5,1.9-5,3.9-6.9,6.4c-2,2.6-3.6,5.5-4.5,8.7
	c-0.4,1.4-0.7,3-0.5,4.5c0.2,1.7,0.7,3.3,1.8,4.6c1,1.2,2.2,2.3,3.6,3c1.6,0.7,3.3,1,5,1.2c1.6,0.2,3.1,0,4.7-0.3
	c1.3-0.2,2.5-0.8,3.7-1.4c0.7-0.4,1.3-0.7,2-1.1c1-0.6,1.4-1.9,0.8-3s-1.9-1.3-3-0.8c-0.7,0.4-1.4,0.7-2.2,1
	c-0.4,0.2-0.8,0.3-1.2,0.4c-0.4,0.1-0.9,0.2-1.3,0.3c-1.1,0.1-2.3,0.1-3.4,0c-1-0.2-1.9-0.3-2.9-0.7c-0.4-0.2-0.7-0.4-1-0.6
	c-0.4-0.3-0.7-0.6-1-1c-0.2-0.3-0.4-0.6-0.5-0.9c-0.2-0.5-0.3-0.9-0.4-1.4c0-0.5,0-0.9,0-1.4c0.2-1.4,0.6-2.7,1.1-4
	c0.8-1.8,1.8-3.5,2.9-5.1c1.6-2,3.5-3.7,5.5-5.2c1-0.7,1.9-1.4,3-1.9c0.8-0.3,1.6-0.5,2.4-0.7c0.5,0,1,0,1.6,0
	c0.5,0.1,1,0.2,1.5,0.4c0.4,0.2,0.7,0.4,1.1,0.6c0.2,0.2,0.5,0.4,0.7,0.7c0.1,0.1,0.2,0.3,0.2,0.4c0,0.2,0,0.3,0,0.4
	c0,0.2-0.1,0.4-0.2,0.6c-0.2,0.5-0.4,0.9-0.7,1.4c-0.3,0.6-0.7,1.2-1.1,1.8c0,0-0.1,0.1-0.1,0.1c-0.3,0.4-0.5,0.8-0.5,1.3
	c0,0.5,0.2,0.9,0.5,1.3c0.6,0.6,1.9,0.7,2.5,0c0.9-1.1,1.7-2.3,2.3-3.6c0.3-0.7,0.7-1.3,0.8-2.1c0.1-0.4,0.1-0.8,0.1-1.2
	c0-0.6-0.1-1.1-0.3-1.6c-0.6-1.4-1.7-2.4-3-3.2c-0.6-0.4-1.4-0.7-2.1-0.9c-0.8-0.3-1.7-0.4-2.6-0.4c-0.1,0-0.2,0-0.3,0
	C503.9,14.5,503.3,14.6,502.6,14.7L502.6,14.7z"/>
<path class="st0" d="M502.7,31.7c-0.9,0.1-1.7,0.2-2.6,0.3c-0.5,0.1-0.9,0.2-1.3,0.5c-0.3,0.3-0.5,0.8-0.5,1.3s0.2,0.9,0.5,1.3
	c0.3,0.3,0.8,0.6,1.3,0.5c1.3-0.2,2.5-0.3,3.8-0.5c0,0.1,0,0.2,0,0.3c-0.2,1.3-0.5,2.6-0.8,3.9c-0.2,0.8-0.4,1.6-0.7,2.4
	c-0.3,1.1-0.7,2.2-1.1,3.3c-0.4,1.1-0.8,2.2-1.2,3.3c-0.2,0.5-0.4,1-0.5,1.5c-0.4,1.2-0.9,2.7,0,3.9c0.2,0.3,0.4,0.5,0.7,0.7
	c0.4,0.3,1,0.3,1.5,0.2c0.5-0.1,0.9-0.4,1.1-0.9c0.2-0.4,0.4-1,0.2-1.5c0,0,0,0,0,0c0.2-0.6,0.4-1.3,0.6-1.9
	c0.1-0.4,0.3-0.8,0.4-1.3c0.3-1,0.6-2,0.9-3c0.3-0.9,0.5-1.9,0.8-2.8c0.5-1.9,1-3.7,1.3-5.7c0,0.1,0,0.1,0,0.2
	c0.1-0.7,0.2-1.5,0.3-2.2c0.1-0.4,0-0.9,0-1.3c-0.1-0.4-0.2-0.8-0.4-1.1c-0.1-0.2-0.3-0.3-0.4-0.5c-0.2-0.2-0.3-0.3-0.5-0.4
	c-0.3-0.2-0.7-0.4-1.1-0.5c-0.3-0.1-0.6-0.1-0.9-0.1C503.7,31.5,503.2,31.6,502.7,31.7L502.7,31.7z M503.9,34.7
	C503.9,34.7,503.9,34.7,503.9,34.7C503.9,34.7,503.9,34.7,503.9,34.7C503.9,34.7,503.9,34.7,503.9,34.7L503.9,34.7z M504.1,35
	C504.1,35,504.1,35,504.1,35C504.1,35,504.1,35,504.1,35C504.1,35,504.1,35,504.1,35L504.1,35z M504.2,35c0.1,0,0.1,0,0.2,0
	C504.3,35,504.3,35,504.2,35L504.2,35z M503.9,35C503.9,35,503.9,35,503.9,35C503.9,35,503.9,35,503.9,35L503.9,35z"/>
<path class="st0" d="M524.8,29.1c-0.5,0.2-1,0.5-1.5,0.8c-0.2,0.1-0.4,0.2-0.5,0.3c-0.3-0.4-0.8-0.8-1.4-0.9
	c-1.4-0.4-2.9,0.5-3.3,1.9c-0.6,2.3-1.2,4.6-1.8,6.9c-0.4,1.4,0.5,2.8,1.8,3.2c1.4,0.4,2.8-0.5,3.2-1.8c0.1-0.3,0.2-0.5,0.3-0.8
	c0.4-0.8,0.9-1.6,1.4-2.4c0.7-0.8,1.5-1.6,2.4-2.3c0.3-0.2,0.6-0.4,0.9-0.6c0.1,0,0.2,0,0.2,0.1c0.5,0.3,1,0.6,1.5,1
	c0,0-0.1,0-0.1-0.1c0.3,0.2,0.6,0.4,0.8,0.7c0,0,0,0,0,0c0.5,0.4,1.1,0.9,1.6,1.3c0.4,0.3,0.8,0.5,1.3,0.5c0.5,0,0.9-0.2,1.3-0.5
	c0.7-0.7,0.7-1.8,0-2.5c-0.6-0.7-1.3-1.4-1.9-2c-0.4-0.4-0.9-0.9-1.3-1.3c-0.4-0.3-0.8-0.6-1.2-0.9c-0.6-0.4-1.3-0.6-2-0.6
	c-0.1,0-0.3,0-0.4,0C525.6,28.9,525.2,29,524.8,29.1L524.8,29.1z M526.6,33.3c-0.1,0-0.2,0-0.3,0c0,0,0,0,0,0
	C526.5,33.3,526.6,33.3,526.6,33.3L526.6,33.3z M526.2,33.4C526.2,33.4,526.2,33.4,526.2,33.4c-0.1,0-0.1,0.1-0.2,0.1
	C526,33.5,526.1,33.4,526.2,33.4L526.2,33.4z M529,35.2c0.1,0.1,0.1,0.1,0.2,0.2C529.1,35.3,529,35.2,529,35.2L529,35.2z"/>
<path class="st0" d="M539,31.4c-0.3,0.1-0.7,0.1-1,0.2c-1.4,0.4-2.6,1.3-3.6,2.4c-0.5,0.6-0.9,1.2-1.1,1.9c-0.1,0.3-0.2,0.8-0.2,1.1
	c0,0.4,0.1,0.9,0.2,1.3c0.2,0.7,0.7,1.4,1.3,1.9c0.4,0.4,0.8,0.6,1.3,0.8c0.4,0.2,0.9,0.2,1.3,0.2c0.3,0,0.8-0.1,1.1-0.1
	c0.4-0.1,0.7-0.1,1.1-0.3c0.8-0.3,1.6-0.7,2.3-1.2c0.3-0.2,0.5-0.4,0.8-0.6c0.4,0.6,0.8,1.1,1.3,1.6c0.7,0.7,1.6,1.3,2.6,1.5
	c1.1,0.2,2.2,0.1,3.3,0c0.5-0.1,1-0.2,1.3-0.6c0.4-0.4,0.6-0.8,0.6-1.3c0-1-0.9-1.9-1.9-1.9c-0.6,0-1.1,0-1.7,0
	c-0.2,0-0.3-0.1-0.4-0.1c-0.3-0.3-0.6-0.6-0.9-1c-0.3-0.4-0.5-0.8-0.7-1.2c-0.1-0.4-0.2-0.7-0.3-1.1c-0.2-0.7-0.6-1.3-1.2-1.6
	c-0.8-0.5-2-0.4-2.7,0.3c0,0,0,0,0,0c0.1-0.3,0.1-0.6-0.1-1c-0.3-0.7-0.8-1.1-1.5-1.3c-0.2,0-0.3-0.1-0.5-0.1
	C539.5,31.3,539.2,31.4,539,31.4L539,31.4z M539.4,33c0,0.1,0,0.1-0.1,0.2c0,0,0,0,0,0C539.3,33.1,539.3,33.1,539.4,33L539.4,33z
	 M539.9,34.1c0,0,0.1,0,0.1,0C540,34.1,540,34.1,539.9,34.1L539.9,34.1z M537.1,36.1c0.1,0.2,0.2,0.4,0.3,0.5
	c0.2,0.2,0.4,0.3,0.6,0.3c0,0-0.1,0-0.1,0.1c-0.2,0.1-0.4,0.1-0.7,0.2c0,0-0.1,0-0.1,0c0,0-0.1-0.1-0.1-0.1c0,0,0,0-0.1-0.1
	c0-0.1-0.1-0.1-0.1-0.2c0,0,0,0,0-0.1c0-0.1,0.1-0.3,0.1-0.4C537,36.3,537.1,36.2,537.1,36.1L537.1,36.1z M536.9,36.4
	c0,0.1,0,0.1,0,0.2C536.9,36.6,536.9,36.5,536.9,36.4L536.9,36.4z M536.8,36.5c0,0.1,0,0.2,0,0.3C536.8,36.7,536.8,36.6,536.8,36.5
	L536.8,36.5z M537.3,37.2c0,0,0.1,0,0.1,0C537.4,37.2,537.4,37.2,537.3,37.2L537.3,37.2z M547.2,38c0.1,0.1,0.1,0.1,0.2,0.2
	C547.3,38.1,547.2,38,547.2,38L547.2,38z"/>
<path class="st0" d="M563.8,26.6c-0.9,0.3-1.7,1-2.4,1.6c-0.9,0.7-1.8,1.4-2.7,2.2c-0.7,0.7-1.4,1.4-2.1,2.2
	c-1.6-0.4-3.2,0.5-3.7,2.1c-0.6,2.3-1.2,4.6-1.8,6.8c-0.3,1-0.5,2.1-0.8,3.1c-0.1,0.4-0.2,0.9-0.3,1.3c-0.1,0.3-0.1,0.6-0.2,0.9
	c0,0,0,0.1,0,0.1c-0.1,0.5-0.3,0.9-0.4,1.4c-0.2,1,0,2,0.7,2.7c0.3,0.3,0.8,0.6,1.2,0.7c0.8,0.2,1.4,0.1,2.1-0.3
	c0.9-0.4,1.4-1.2,1.7-2.1c0.1-0.4,0.2-0.7,0.3-1.1c0.1-0.5,0.3-1,0.4-1.5c0.3-1,0.5-2,0.8-3.1c0.6-2.3,1.2-4.6,1.8-6.9
	c0.4-0.7,0.8-1.4,1.3-2.1c1.3-1.6,2.7-2.9,4.3-4.1c0.3-0.2,0.5-0.4,0.8-0.6c0.1,0.1,0.1,0.2,0.2,0.3c0.1,0.2,0.1,0.4,0.2,0.7
	c0,0.4,0,0.7,0,1.1c-0.1,0.5-0.2,1-0.4,1.5c-0.4,1-1,1.9-1.6,2.8c-0.5-0.2-1-0.3-1.5-0.2c-0.5,0.1-1,0.5-1.3,1
	c-0.3,0.5-0.3,0.9-0.2,1.5c0,0,0,0,0,0c0,0,0,0,0,0c0,0,0,0,0,0c0,0.3,0.1,0.7,0.2,1c0.2,0.6,0.6,1.2,1.2,1.5
	c0.6,0.3,1.2,0.6,1.9,0.4c0.3-0.1,0.6-0.2,0.8-0.3c0.3-0.2,0.5-0.3,0.7-0.5c1.7-1.3,2.6-3.5,3.4-5.4s0.9-4.2,0.1-6.2
	c-0.4-1.1-1.1-1.9-2.1-2.5c-0.4-0.3-0.9-0.4-1.5-0.4C564.8,26.3,564.3,26.4,563.8,26.6L563.8,26.6z M565.4,30c0,0-0.1,0-0.1,0
	C565.3,30,565.3,30,565.4,30L565.4,30z M565.3,30.1c0.1,0,0.1,0,0.2,0C565.5,30.1,565.4,30.1,565.3,30.1L565.3,30.1z M565,30.1
	C565,30.1,565,30.1,565,30.1c-0.1,0-0.1,0.1-0.2,0.1C564.9,30.1,564.9,30.1,565,30.1L565,30.1z M560.4,38.9c0,0.1,0,0.1,0,0.2
	C560.4,39.1,560.4,39,560.4,38.9L560.4,38.9z M560.4,38.7C560.4,38.7,560.4,38.7,560.4,38.7C560.4,38.7,560.4,38.7,560.4,38.7
	L560.4,38.7z"/>
<path class="st0" d="M583.2,13.3c-0.7,0.4-1.1,1-1.4,1.8c-1.1,3.3-2.2,6.6-3.3,9.8c-0.5,1.4-0.9,2.7-1.4,4.1
	c-0.5,1.6-1.1,3.2-1.7,4.8c-0.1,0.3-0.3,0.6-0.4,0.9c-0.1,0.2-0.2,0.4-0.3,0.6c-0.4,0.7-0.5,1.5-0.3,2.3c0.2,0.7,0.7,1.4,1.4,1.8
	c1.4,0.8,3.2,0.3,4-1.1c0.3-0.6,0.7-1.2,0.9-1.8c0.1-0.2,0.2-0.4,0.3-0.7c0.2-0.3,0.4-0.6,0.6-0.9c0.6-0.7,1.2-1.4,1.9-2
	c0.4-0.3,0.9-0.6,1.4-0.8c0,0,0.1,0,0.1,0c0.1,0,0.1,0,0.2,0.1c0.1,0,0.2,0.1,0.2,0.1c0.2,0.2,0.4,0.4,0.7,0.7
	c0.2,0.2,0.3,0.5,0.4,0.7c0.1,0.3,0.2,0.6,0.2,0.9c0.1,1.2,0,2.4,0.1,3.6c0,1,0.7,1.9,1.7,2.2c1.1,0.3,2.6-0.4,2.8-1.6
	c0.1-0.7,0.2-1.4,0.3-2.1c0.1-0.6,0-1.4-0.1-2c-0.1-1.3-0.5-2.6-1.1-3.8c-0.3-0.5-0.7-1-1-1.4c-0.4-0.6-1-1-1.6-1.4
	c-0.5-0.4-1.2-0.6-1.8-0.8c-0.4-0.1-0.7-0.1-1.1-0.2c-0.3,0-0.7,0-1,0.1c1.2-3.5,2.3-7,3.5-10.5c0.5-1.6-0.6-3.3-2.1-3.7
	c-0.3-0.1-0.5-0.1-0.8-0.1C584.2,12.9,583.7,13.1,583.2,13.3L583.2,13.3z M585,32c-0.1,0-0.2,0-0.3,0C584.8,32.1,584.9,32.1,585,32
	L585,32z M585.2,32c0.1,0,0.2,0,0.3,0C585.4,32.1,585.3,32.1,585.2,32L585.2,32z M584.9,32.1c-0.1,0-0.2,0.1-0.3,0.1
	C584.7,32.2,584.8,32.2,584.9,32.1L584.9,32.1z M585.5,32.2c0.1,0,0.1,0.1,0.2,0.1C585.6,32.3,585.6,32.2,585.5,32.2
	C585.5,32.2,585.5,32.2,585.5,32.2L585.5,32.2z"/>
<path class="st0" d="M605,24.4c-1.1,0.1-2.2,0.2-3.3,0.4c-0.6,0.1-1.2,0.6-1.5,1.2c-0.3,0.6-0.4,1.3-0.3,1.9
	c0.2,0.6,0.6,1.2,1.2,1.5c0.6,0.4,1.2,0.4,1.9,0.2c0.1,0,0.2,0,0.3,0c0.9-0.1,1.8-0.2,2.7-0.2c0.5,0.9,1.5,1.4,2.6,1.1
	c0.6-0.2,1-0.5,1.3-1c0.3-0.6,0.3-1.1,0.2-1.7c-0.2-1.2-0.8-2.2-1.9-2.8c-0.6-0.3-1.2-0.4-1.9-0.5c-0.4,0-0.7-0.1-1.1-0.1
	C605.2,24.4,605.1,24.4,605,24.4L605,24.4z"/>
<path class="st0" d="M602.6,33.4c-0.6,0.3-0.9,0.8-1.1,1.4c-0.5,1.4-1.1,2.8-1.6,4.1c-0.3,0.7-0.5,1.3-0.8,2
	c-0.5,1.3-0.8,2.9,0.1,4.1c0.2,0.3,0.5,0.6,0.8,0.8c0.5,0.3,1.1,0.4,1.7,0.2c1.1-0.3,1.9-1.5,1.6-2.6c0-0.1,0.1-0.2,0.1-0.3
	c1-2.3,1.8-4.7,2.7-7.1c0.2-0.6,0.1-1.3-0.2-1.8c-0.3-0.5-0.8-0.9-1.4-1.1c-0.2-0.1-0.4-0.1-0.6-0.1C603.4,33.1,603,33.2,602.6,33.4
	L602.6,33.4z"/>
<path class="st0" d="M624.3,29.6c-1.4,0.1-2.7,0.6-3.9,1.2c-2.3,1.1-3.9,3.4-4.5,5.9c-0.3,1.3-0.2,2.7,0,4c0.1,0.6,0.4,1.2,0.6,1.8
	c0.3,0.7,0.7,1.3,1.2,1.9c0.7,0.9,1.6,1.6,2.5,2.2c1.1,0.7,2.4,1,3.7,1.3c1.2,0.3,2.5-0.4,2.9-1.6c0.2-0.6,0.1-1.3-0.2-1.8
	c-0.3-0.6-0.8-0.9-1.4-1.1c-0.4-0.1-0.7-0.3-1-0.4c-0.5-0.2-0.9-0.5-1.3-0.7c-0.3-0.3-0.6-0.6-0.9-0.9c-0.3-0.4-0.5-0.8-0.7-1.2
	c-0.1-0.3-0.2-0.6-0.2-0.9c0-0.3,0-0.6,0-0.9c0.1-0.3,0.2-0.6,0.3-0.9c0.2-0.3,0.3-0.6,0.5-0.9c0.2-0.2,0.3-0.4,0.5-0.5
	c0.3-0.2,0.7-0.4,1.1-0.6c0.3-0.1,0.7-0.2,1-0.3c0.4,0,0.8,0,1.2,0c0.2,0,0.4,0.1,0.6,0.2c0.6,0.2,1.5,0.1,2-0.3
	c0.6-0.3,1-0.9,1.2-1.6c0.2-0.7,0.1-1.4-0.3-2c-0.4-0.6-0.9-1-1.6-1.2c-0.8-0.3-1.8-0.4-2.6-0.4C624.7,29.5,624.5,29.6,624.3,29.6
	L624.3,29.6z"/>
<path class="st0" d="M639.5,28.7c-0.8,0.1-1.5,0.3-2.3,0.5c-0.7,0.2-1.4,0.4-2,0.8c-0.3,0.2-0.5,0.4-0.8,0.6c-0.3,0.3-0.8,1-0.8,1.4
	c-0.1,0.4-0.1,0.7-0.2,1.1c0,0.5,0.1,1,0.2,1.5c0.1,0.3,0.3,0.7,0.4,1c0.1,0.3,0.3,0.5,0.5,0.7c0.5,0.7,1,1.3,1.5,1.9
	c0.5,0.6,1.1,1.1,1.6,1.7c0.9,0.9,1.7,1.8,2.5,2.7c0.2,0.2,0.3,0.5,0.5,0.7c0.1,0.2,0.1,0.3,0.1,0.5c0,0.1,0,0.1,0,0.2c0,0,0,0,0,0
	c0,0,0,0,0,0c-0.2,0.2-0.3,0.4-0.5,0.5c-0.3,0.2-0.6,0.3-0.9,0.5c-0.4,0.1-0.7,0.2-1.1,0.3c-0.3,0-0.7,0-1,0
	c-0.2-0.1-0.5-0.1-0.7-0.2c-0.2-0.1-0.4-0.2-0.6-0.3c-0.1-0.1-0.2-0.2-0.3-0.4c-1-1.1-2.8-1-3.8,0c-0.5,0.5-0.8,1.2-0.8,1.9
	c0,0.8,0.3,1.3,0.8,1.9c0.9,1.2,2.3,1.9,3.7,2.3c1.5,0.4,3.2,0.2,4.7-0.2c0.8-0.2,1.5-0.6,2.2-1c0.6-0.4,1.2-0.9,1.8-1.4
	c0.5-0.5,0.9-1.1,1.2-1.7c0.4-0.9,0.6-1.8,0.5-2.8c-0.1-2.7-2.1-4.7-3.8-6.6c-1-1.1-2-2-2.9-3.1c0.4-0.1,0.7-0.2,1.1-0.3
	c0.3,0,0.7,0,1,0c0.2,0.1,0.4,0.1,0.6,0.2c0.1,0,0.1,0.1,0.2,0.1c0.2,0.2,0.3,0.3,0.5,0.5c0,0.1,0.1,0.1,0.1,0.2
	c0.4,0.5,0.8,0.9,1.4,1.1c0.6,0.2,1.3,0.1,1.9-0.2c0.5-0.3,0.9-0.8,1.1-1.4c0.2-0.6,0.1-1.4-0.2-1.9c-0.3-0.5-0.7-0.9-1.1-1.4
	c-0.4-0.6-1.1-1-1.7-1.3c-0.7-0.4-1.4-0.6-2.2-0.7c-0.4-0.1-0.8-0.1-1.1-0.1C640.3,28.6,639.9,28.7,639.5,28.7L639.5,28.7z
	 M640.8,43.6c0,0.1,0,0.1,0,0.2C640.8,43.7,640.8,43.7,640.8,43.6L640.8,43.6z"/>
</svg>
