<?xml version="1.0" encoding="utf-8"?>
<!-- Generator: Adobe Illustrator 20.0.0, SVG Export Plug-In . SVG Version: 6.00 Build 0)  -->
<svg version="1.1" id="Layer_1" xmlns="http://www.w3.org/2000/svg" xmlns:xlink="http://www.w3.org/1999/xlink" x="0px" y="0px"
	 viewBox="0 0 471.2 62.8" style="enable-background:new 0 0 471.2 62.8;" xml:space="preserve">
<style type="text/css">
	.st0{fill:#2C2C2C;}
</style>
<path class="st0" d="M16.1,9.2C12.3,21.1,8.5,33,4.5,44.9c-0.8,2.3-1.5,4.6-2.3,6.9c-0.3,1-0.7,2.1-1,3.1C1.1,55.3,1,55.6,0.8,56
	c-0.3,0.8-0.6,1.6-0.7,2.4c-0.1,0.5-0.1,1,0,1.4c0.1,0.5,0.4,0.9,0.7,1.2c0.9,0.9,2.2,1,3.3,0.4c0.4-0.3,0.8-0.6,1.2-0.9
	c0.5-0.3,1-0.6,1.6-0.8c2.2-0.9,4.6-1.5,6.9-2.2c2.3-0.7,4.6-1.3,6.9-2c4.1-1.1,8.2-1.9,12.3-2.7c1-0.2,1.6-1.2,1.6-2.1
	c0-1.2-1-2.3-2.2-2.2c-4.7,0.3-9.4,1.3-14,2.5c-2.3,0.6-4.6,1.3-6.9,1.9c-1.2,0.3-2.3,0.7-3.5,1c-0.3,0.1-0.6,0.2-0.8,0.3
	c0.3-0.9,0.6-1.8,0.9-2.6c0.9-2.6,1.7-5.2,2.6-7.8c1.5-4.6,3-9.2,4.5-13.9c2.1-6.4,4.1-12.8,6.1-19.2c0.4-1.4-0.5-2.9-1.9-3.3
	c-0.2-0.1-0.5-0.1-0.7-0.1C17.5,7.2,16.5,8,16.1,9.2L16.1,9.2z"/>
<path class="st0" d="M44.7,29.5c0,0.8,0.7,1.5,1.5,1.5s1.5-0.7,1.5-1.5S47,28,46.2,28S44.7,28.7,44.7,29.5L44.7,29.5z"/>
<path class="st0" d="M44.7,37.9c-0.4,0.4-0.5,0.8-0.6,1.4c-0.1,1.3-0.3,2.5-0.5,3.8c-0.2,1.3-0.4,2.5-0.6,3.8
	c-0.3,1.6-0.6,3.2-0.6,4.8c0,0.8,0.5,1.4,1.3,1.6c0.9,0.3,1.8-0.3,2.1-1.2c0.3-1,0.6-1.9,0.8-2.9c0.2-1,0.4-2,0.5-2.9
	c0.4-2.3,0.6-4.7,0.9-7c0.1-0.5-0.2-1-0.6-1.4c-0.4-0.4-0.9-0.6-1.4-0.6S45.1,37.5,44.7,37.9L44.7,37.9z"/>
<path class="st0" d="M78.2,32.5c-0.3,0-0.6,0.1-0.8,0.1c-0.4,0.1-0.7,0.4-1.1,0.7c-0.3,0.3-0.5,0.7-0.7,1.1
	c-0.1,0.2-0.1,0.4-0.2,0.6c-0.1,0.5-0.2,1-0.3,1.5c-0.2,1-0.5,1.9-0.8,2.8c-0.2,0.8-0.5,1.6-0.8,2.5c-0.4,1-0.7,2-1.1,2.9
	c-1.1,2.6-2.3,5.1-3.9,7.4c-0.6,0.7-1.2,1.4-1.9,1.9c-0.1,0.1-0.2,0.1-0.2,0.2c-0.2-0.4-0.4-0.7-0.5-1.1c-1-2.3-1.7-4.7-2.3-7.2
	c-0.3-1.4-0.5-2.8-0.7-4.2c-0.2-1.5-0.5-2.9-0.7-4.4c-0.1-0.5-0.5-1-1-1.2c-0.5-0.3-1.1-0.4-1.6-0.2c-0.5,0.1-1,0.5-1.2,1
	c-0.3,0.5-0.3,1-0.2,1.6c0.5,3,0.8,6,1.5,8.9c0.6,2.9,1.6,5.7,2.9,8.3c0.5,1.1,1.3,2.5,2.7,2.7c0.8,0.1,1.5,0,2.2-0.3
	c0.4-0.2,0.7-0.3,1.1-0.5c0.3-0.2,0.6-0.5,0.9-0.7c1-0.9,1.9-2,2.7-3.1c0.8-1.2,1.5-2.5,2.2-3.8c1.4-2.8,2.6-5.8,3.7-8.7
	c0.3-0.9,0.7-1.8,1-2.7c0.2-0.5,0.3-1,0.5-1.5c0.1-0.4,0.2-0.8,0.3-1.2c0.5-0.5,0.7-1.3,0.5-2c-0.1-0.4-0.3-0.7-0.5-0.9
	c-0.3-0.3-0.9-0.6-1.3-0.6C78.3,32.5,78.2,32.5,78.2,32.5L78.2,32.5z M72.4,44.8c0,0.1-0.1,0.2-0.1,0.3C72.3,45,72.3,44.9,72.4,44.8
	L72.4,44.8z M65.8,53.2c0,0.1,0,0.1,0.1,0.2C65.9,53.3,65.8,53.3,65.8,53.2L65.8,53.2z"/>
<path class="st0" d="M94,35c-1.1,0.5-2.1,1.3-3,2.1c-0.9,0.9-1.6,1.9-2.3,3c0,0-0.1,0.1-0.1,0.1c-0.5-0.2-0.9-0.4-1.4-0.7
	c-0.8-0.4-1.7-0.2-2.1,0.6c-0.4,0.7-0.2,1.7,0.6,2.1c0.5,0.3,1,0.5,1.6,0.8c-0.1,0.2-0.1,0.3-0.2,0.5c-1,2.5-1.1,5.4-0.2,7.9
	c0.8,2.5,2.8,4.4,5.1,5.5c1.2,0.6,2.5,0.9,3.9,1c1.2,0.1,2.5-0.2,3.7-0.6c1.1-0.3,1.7-1.4,1.4-2.5c-0.1-0.5-0.5-1-0.9-1.2
	c-0.5-0.3-1-0.3-1.6-0.2c-0.1,0-0.2,0-0.3,0.1c-0.8,0.1-1.5,0.1-2.3,0c-0.6-0.1-1.2-0.3-1.8-0.5c-0.6-0.3-1.1-0.6-1.7-1
	c-0.4-0.3-0.7-0.6-1-1c-0.2-0.3-0.4-0.6-0.6-1c-0.2-0.5-0.3-1.1-0.4-1.7c-0.1-0.6-0.1-1.3,0-1.9c0.1-0.8,0.3-1.5,0.6-2.2
	c0.6,0.1,1.2,0.2,1.8,0.2c1.3,0.1,2.6-0.3,3.7-0.9c0.5-0.3,0.9-0.6,1.4-1c0.5-0.4,0.9-0.9,1.3-1.5c0.3-0.4,0.5-0.9,0.7-1.4
	c0.1-0.3,0.2-0.7,0.2-1c0-0.3,0-0.6-0.1-1c-0.2-1.2-1-2.4-2.1-3c-0.4-0.2-0.9-0.3-1.3-0.3C95.6,34.4,94.7,34.7,94,35L94,35z
	 M96.2,37.8c0.1,0,0.1,0,0.2,0c0,0,0,0,0,0C96.3,37.8,96.2,37.8,96.2,37.8L96.2,37.8z M96.5,37.9c0.1,0,0.1,0.1,0.2,0.1
	C96.6,37.9,96.6,37.9,96.5,37.9C96.5,37.9,96.5,37.9,96.5,37.9L96.5,37.9z M96.4,37.9C96.4,37.9,96.4,37.9,96.4,37.9
	c0.1,0.1,0.1,0.2,0.2,0.3c0,0.1,0,0.1,0.1,0.2c0,0.1,0,0.2,0,0.3c0,0.1-0.1,0.3-0.1,0.4c-0.1,0.1-0.2,0.3-0.3,0.4
	c-0.3,0.3-0.5,0.5-0.8,0.8c-0.3,0.2-0.7,0.5-1,0.6c-0.3,0.1-0.7,0.2-1,0.3c-0.3,0-0.7,0-1,0c0.2-0.3,0.4-0.6,0.6-0.9
	c0.5-0.6,1-1.1,1.6-1.6c0.3-0.2,0.7-0.5,1.1-0.6C95.9,38,96.1,38,96.4,37.9L96.4,37.9z M96.6,38.1C96.6,38.1,96.6,38.1,96.6,38.1
	C96.6,38.2,96.6,38.2,96.6,38.1C96.6,38.1,96.6,38.1,96.6,38.1L96.6,38.1z M96.6,38.2C96.6,38.2,96.6,38.2,96.6,38.2
	C96.6,38.2,96.6,38.2,96.6,38.2C96.6,38.2,96.6,38.2,96.6,38.2L96.6,38.2z M96.6,38.3c0,0,0,0.1,0.1,0.1
	C96.7,38.4,96.7,38.3,96.6,38.3L96.6,38.3z"/>
<path class="st0" d="M157.3,16c-0.8,4.1-1.6,8.2-2.5,12.3c-0.5,2.7-1,5.3-1.4,8c-0.5,2.8-0.7,5.6-1,8.4c-0.3,2.7-0.7,5.4-0.9,8.1
	c0-0.1,0-0.2,0-0.4c0,0.3-0.1,0.6-0.1,0.9c0,0.1,0,0.2,0,0.3c0,0,0,0,0,0.1c0,0,0,0,0,0c0,0.2,0,0.5,0.1,0.7
	c0.2,0.7,0.6,1.2,1.2,1.6c1.2,0.7,3,0.4,3.6-1c0.3-0.6,0.5-1.2,0.7-1.8c0.1-0.4,0.1-0.8,0.2-1.2c0.1-0.9,0.2-1.8,0.3-2.6
	c0.1-1.2,0.3-2.4,0.4-3.6c0.3-2.6,0.6-5.1,0.9-7.7c0.4-2.5,0.8-5,1.3-7.4c0.9-4.4,1.7-8.8,2.6-13.2c0.2-0.8,0.1-1.5-0.3-2.2
	c-0.4-0.6-1-1.1-1.7-1.3c-0.2-0.1-0.5-0.1-0.7-0.1C158.8,13.9,157.5,14.7,157.3,16L157.3,16z"/>
<path class="st0" d="M173.1,0c-0.6,0-1.1,0.3-1.5,0.6c-0.4,0.3-0.8,0.6-1.3,0.9c-1,0.8-2,1.5-2.9,2.3c-1.8,1.6-3.5,3.5-5,5.4
	c-1.4,1.9-2.8,3.9-3.7,6.1c-0.6,1.5-1.1,3-1.4,4.6c-0.3,1.7-0.2,3.5,0,5.2c0.1,0.6,0.8,0.9,1.3,0.7c0.3-0.1,0.5-0.2,0.6-0.5
	c0.2-0.3,0.1-0.5,0.1-0.8c0-0.1,0-0.3-0.1-0.4c-0.1-1.1-0.1-2.2,0-3.2c0.2-1.5,0.7-2.9,1.2-4.3c0.9-2,2.1-3.8,3.4-5.5c0,0,0,0,0,0.1
	c1.6-2.1,3.5-3.9,5.5-5.6c0.6-0.5,1.3-0.9,1.9-1.4c0.6-0.4,1.3-0.9,2-1.2c0,0,0,0,0,0c0.1,0,0.1,0,0.2,0.1c0.1,0,0.1,0.1,0.2,0.1
	c0.1,0.1,0.2,0.2,0.3,0.3c0.4,0.5,0.6,1,0.9,1.6c0.3,0.7,0.4,1.3,0.6,2c0.1,1.1,0.1,2.2-0.1,3.3c-0.1,0.9-0.3,1.7-0.7,2.6
	c-0.4,0.9-1,1.8-1.6,2.7c-1.1,1.4-2.5,2.7-3.9,3.8c-1.4,1-2.9,1.9-4.4,2.6c0,0-0.1,0-0.1,0.1c-0.2,0.1-0.3,0.1-0.5,0.2
	c-0.3,0.2-0.6,0.4-0.7,0.7c-0.3,0.5-0.4,1.1-0.2,1.6c0.1,0.5,0.5,1,0.9,1.2c0.4,0.3,1.1,0.4,1.6,0.2c0.7-0.2,1.3-0.5,1.9-0.8
	c0.4-0.2,0.9-0.5,1.3-0.8c0.6-0.4,1.2-0.9,1.8-1.4c1.8-1.5,3.5-3.2,4.9-5.1c1.4-1.9,2.5-4.1,2.8-6.4c0.4-2.4,0.4-5-0.5-7.3
	c-0.4-1.1-1-2-1.7-2.9c-0.7-0.9-1.8-1.4-2.9-1.4C173.2,0,173.2,0,173.1,0L173.1,0z M173.5,2.9c0,0-0.1,0-0.1,0
	C173.4,2.9,173.5,2.9,173.5,2.9L173.5,2.9z M173.4,3C173.4,3,173.4,3,173.4,3C173.4,3,173.4,3,173.4,3C173.4,3,173.4,3,173.4,3
	L173.4,3z M173.4,3c0.1,0,0.1,0,0.2,0C173.5,3,173.5,3,173.4,3C173.4,3,173.4,3,173.4,3L173.4,3z M163.9,11.1c0,0.1-0.1,0.1-0.1,0.2
	C163.8,11.2,163.8,11.2,163.9,11.1L163.9,11.1z M169.5,19.1c0,0-0.1,0.1-0.1,0.1C169.4,19.2,169.5,19.2,169.5,19.1L169.5,19.1z"/>
<path class="st0" d="M189,34.5c-1,0.2-1.8,0.9-2.5,1.5c-0.3-0.4-0.7-0.7-1.3-0.8c-1.3-0.4-2.7,0.4-3,1.7c-0.6,2.7-1.3,5.3-1.9,8
	c-0.4,0.9-0.6,1.8-0.9,2.7c-0.4,1.3-0.7,2.5-0.7,3.9c0,1.1,0.7,2.1,1.8,2.4c1.3,0.4,2.7-0.4,3-1.7c0.6-2.1,1.1-4.1,1.6-6.2
	c0.1-0.1,0.1-0.3,0.2-0.4c0.6-1.3,1.2-2.4,2-3.5c0.9-1.1,1.8-2,2.9-2.9c0,0,0,0,0,0c0.1,0,0.2-0.1,0.4-0.1c0.2,0,0.5,0,0.7,0
	c0.4,0.1,0.9,0.2,1.3,0.3c0.2,0.1,0.4,0.2,0.7,0.4c1,0.5,2.2,0.2,2.8-0.7c0.3-0.5,0.4-1,0.2-1.6c-0.2-0.6-0.5-0.9-0.9-1.2
	c-0.4-0.3-0.8-0.6-1.3-0.8c-0.5-0.3-1.1-0.5-1.6-0.6c-0.6-0.2-1.2-0.2-1.7-0.2C190.1,34.3,189.6,34.4,189,34.5L189,34.5z M190.1,39
	c0,0-0.1,0.1-0.1,0.1C190,39.1,190,39.1,190.1,39L190.1,39z"/>
<path class="st0" d="M209.1,37.1c-0.6,0.1-1.2,0.4-1.8,0.6c-0.6,0.3-1.1,0.7-1.6,1.1c-0.9,0.7-1.7,1.7-2.4,2.6
	c-0.7,1-1.2,2.1-1.7,3.2c-0.1,0-0.2-0.1-0.3-0.1c-0.5-0.2-1-0.5-1.5-0.8c-0.9-0.5-2-0.2-2.5,0.7c-0.5,0.8-0.2,2,0.7,2.5
	c0.9,0.5,1.7,0.9,2.7,1.2c-0.3,1.8-0.2,3.6,0.4,5.3c0.5,1.3,1.3,2.5,2.4,3.4c1,0.9,2.3,1.4,3.6,1.7c0.6,0.2,1.2,0.2,1.8,0.3
	c0.3,0,0.7,0.1,1,0.1c0.7,0.1,1.4,0.1,2.1,0.1c1,0,1.8-0.8,1.8-1.8c0-0.5-0.2-0.9-0.5-1.3c-0.4-0.4-0.8-0.5-1.3-0.5
	c-0.3,0-0.6,0-0.9-0.1c-0.4-0.1-0.8-0.1-1.2-0.2c-1-0.2-2-0.4-2.9-0.7c-0.3-0.2-0.6-0.3-0.9-0.5c-0.3-0.2-0.5-0.5-0.8-0.8
	c-0.2-0.3-0.4-0.7-0.6-1.1c-0.2-0.5-0.3-0.9-0.4-1.4c-0.1-0.6-0.1-1.3,0-1.9c0,0,0-0.1,0-0.1c0.3,0,0.5,0,0.8-0.1
	c0.7-0.1,1.4-0.2,2-0.5c0.6-0.2,1.2-0.5,1.8-0.9c0.6-0.3,1.1-0.8,1.6-1.3c0.5-0.4,0.9-0.8,1.3-1.3c0.8-1,1.4-2,1.8-3.2
	c0.2-0.6,0.2-1.3,0.1-2c-0.1-0.6-0.4-1.2-0.9-1.6c-0.5-0.4-1.1-0.7-1.7-0.8c-0.3-0.1-0.5-0.1-0.8-0.1
	C209.9,37,209.5,37.1,209.1,37.1L209.1,37.1z M210.2,40.5c0,0.1-0.1,0.2-0.1,0.4c-0.2,0.4-0.5,0.8-0.7,1.2c-0.5,0.6-1.1,1.1-1.7,1.6
	c-0.5,0.3-1,0.6-1.5,0.9c-0.2,0.1-0.5,0.2-0.7,0.2c0.3-0.7,0.7-1.3,1.2-1.9c0.5-0.6,1-1.1,1.6-1.6c0.3-0.2,0.6-0.4,0.9-0.6
	c0.3-0.1,0.6-0.2,0.9-0.3C210.1,40.5,210.2,40.5,210.2,40.5L210.2,40.5z"/>
<path class="st0" d="M226.5,37.3c-0.4,0.4-0.7,0.9-1,1.4c-0.3,0.5-0.5,1.1-0.6,1.7c-0.4,2.2-0.1,4.6,0.6,6.7
	c0.4,1.2,0.9,2.4,1.1,3.7c0,0.4,0,0.9,0,1.3c-0.1,0.5-0.3,1-0.4,1.5c0,0.1-0.1,0.2-0.2,0.3c-0.3,0-0.7,0-1-0.1
	c-0.4-0.1-0.7-0.2-1.1-0.3c0,0-0.1,0-0.1-0.1c-0.5-0.2-0.9-0.3-1.4-0.2c-0.5,0.1-0.9,0.4-1.1,0.9c-0.3,0.4-0.3,1-0.2,1.4
	c0.1,0.5,0.4,0.8,0.9,1.1c0.8,0.5,1.7,0.9,2.7,1.1c1.1,0.2,2.2,0.2,3.3-0.3c0.1-0.1,0.3-0.1,0.4-0.2c0.3-0.2,0.6-0.5,0.8-0.9
	c0.2-0.4,0.4-0.9,0.5-1.3s0.3-0.9,0.4-1.4c0.1-0.5,0.2-1.1,0.2-1.6c0.1-1.6-0.5-3.1-1-4.6c-0.4-1.3-0.9-2.5-1.1-3.9
	c-0.1-0.8-0.1-1.6,0-2.4c0.1-0.3,0.1-0.6,0.2-0.9c0.1-0.2,0.2-0.4,0.3-0.6c0.1-0.1,0.1-0.1,0.2-0.2c0,0,0,0,0,0
	c0.1,0,0.2,0.1,0.2,0.2c0.6,0.5,1.1,1,1.6,1.6c0.3,0.4,0.6,0.8,0.8,1.2c0.4,0.7,1.4,1,2.1,0.6c0.7-0.4,1-1.4,0.5-2.1
	c-0.6-1-1.2-1.9-2-2.7c-0.4-0.4-0.9-0.8-1.3-1.2c-0.4-0.3-0.9-0.6-1.4-0.8c-0.2,0-0.4-0.1-0.5-0.1C228.1,36.2,227.2,36.7,226.5,37.3
	L226.5,37.3z M229,39.4C229,39.4,229,39.4,229,39.4C228.9,39.4,228.9,39.4,229,39.4C228.9,39.4,228.9,39.4,229,39.4L229,39.4z
	 M224.2,53.6c0.1,0,0.1,0,0.2,0.1C224.3,53.7,224.3,53.6,224.2,53.6L224.2,53.6z"/>
<path class="st0" d="M252.3,39.9c-0.9,0.4-1.6,0.9-2.4,1.6c-1.4,1.2-2.6,2.6-3.5,4.1c-1,1.7-1.4,3.7-1.6,5.6c-0.1,1,0.1,2.1,0.4,3
	c0.3,1,0.9,1.8,1.5,2.5c0.3,0.3,0.6,0.5,0.9,0.8c0.2,0.2,0.4,0.3,0.6,0.5c0.3,0.2,0.6,0.3,1,0.4c0.3,0.1,0.7,0.2,1.1,0.2
	c0.6,0.1,1.1,0.1,1.7,0.1c1.1,0,2.1-0.1,3.2-0.2c0.5-0.1,0.9-0.2,1.3-0.5c0.3-0.3,0.5-0.8,0.5-1.3c0-1-0.8-1.9-1.9-1.9
	c-0.6,0-1.2,0.1-1.8,0.1c-0.7,0-1.3,0-2,0c-0.3-0.1-0.6-0.1-0.9-0.2c-0.1-0.1-0.2-0.1-0.3-0.2c-0.3-0.3-0.7-0.6-1-1
	c-0.1-0.2-0.2-0.4-0.3-0.6c-0.1-0.3-0.2-0.7-0.3-1.1c-0.1-0.7,0-1.4,0-2.2c0.1-0.7,0.3-1.4,0.6-2.1c0.4-0.8,0.8-1.5,1.3-2.2
	c0,0.1,0,0.2,0.1,0.3c0.2,0.8,1.1,1.4,2,1.1c0.8-0.3,1.7-0.6,2.5-1c0.4-0.2,0.7-0.4,1-0.7c0.4-0.4,0.7-0.8,0.9-1.3
	c0.3-0.8,0.3-1.7,0-2.5c-0.2-0.4-0.4-0.7-0.7-1c-0.4-0.4-0.9-0.5-1.3-0.6c-0.3-0.1-0.6-0.1-0.9-0.1
	C253.5,39.6,252.9,39.7,252.3,39.9L252.3,39.9z M254.1,42.5C254.1,42.6,254.1,42.6,254.1,42.5C254.1,42.6,254.1,42.6,254.1,42.5
	C254.1,42.6,254.1,42.6,254.1,42.5L254.1,42.5z M253.9,42.8C253.9,42.8,253.9,42.8,253.9,42.8c-0.4,0.3-0.8,0.5-1.2,0.7
	c-0.1,0-0.2,0.1-0.3,0.1c0.1-0.1,0.1-0.1,0.2-0.2c0.3-0.2,0.5-0.4,0.8-0.5C253.6,42.9,253.7,42.8,253.9,42.8
	C253.9,42.8,253.9,42.8,253.9,42.8L253.9,42.8z M253.8,42.9C253.8,42.9,253.8,42.9,253.8,42.9C253.8,42.9,253.8,42.9,253.8,42.9
	L253.8,42.9z"/>
<path class="st0" d="M266.4,42.9c-0.4,1.5-0.9,3.1-1.3,4.6c-0.1,0.5-0.3,1-0.4,1.5c0,0.1-0.1,0.1-0.1,0.2c-0.3,0.6-0.5,1.2-0.8,1.8
	c-0.3,0.6-0.4,1.3-0.6,2c-0.2,0.8,0,1.7,0.6,2.3c0.3,0.3,0.6,0.5,1,0.6c0.6,0.2,1.3,0.1,1.8-0.2c0.3-0.2,0.6-0.5,0.9-0.7
	c0.4-0.4,0.7-1.1,0.9-1.6c0.3-0.7,0.4-1.4,0.6-2.2c0.2-0.5,0.3-1.1,0.5-1.6c0,0,0,0,0,0c0.3-0.5,0.6-1,1-1.5
	c0.3-0.3,0.5-0.6,0.8-0.9c0.1-0.1,0.2-0.1,0.3-0.2c0.1,0,0.2,0.1,0.2,0.1c0.1,0.1,0.2,0.2,0.3,0.3c0.3,0.4,0.5,0.9,0.7,1.3
	c0.4,1.1,0.6,2.1,0.8,3.3c0.1,0.6,0.1,1.2,0.2,1.9c0,0.2,0,0.5,0.1,0.7c0,0.3,0,0.6,0,0.9c0,1.2,1,2.1,2.1,2.1c0.6,0,1-0.2,1.5-0.6
	c0.4-0.3,0.6-0.8,0.9-1.3c0.5-0.8,0.2-1.9-0.6-2.4c0,0,0,0,0,0c-0.1-1.1-0.2-2.2-0.5-3.3c-0.2-1.3-0.7-2.5-1.3-3.7
	c-0.3-0.5-0.6-1-0.9-1.5c-0.4-0.5-1-1-1.5-1.3c-0.7-0.5-1.6-0.6-2.4-0.5c-0.2-0.8-0.8-1.5-1.7-1.7c-0.2-0.1-0.4-0.1-0.6-0.1
	C267.6,41.2,266.7,41.9,266.4,42.9L266.4,42.9z M271.1,46.8c0,0,0.1,0,0.1,0C271.2,46.8,271.1,46.8,271.1,46.8L271.1,46.8z
	 M271.5,46.9C271.5,46.9,271.4,47,271.5,46.9C271.4,47,271.4,47,271.5,46.9C271.4,47,271.5,46.9,271.5,46.9L271.5,46.9z M271.4,47
	C271.4,47,271.4,47,271.4,47c0,0-0.1,0-0.1,0.1C271.3,47,271.4,47,271.4,47L271.4,47z"/>
<path class="st0" d="M291,24.1c-1.2,6.1-2.5,12.2-3.6,18.3c-0.3,1.6-0.6,3.3-0.9,4.9c-0.2,0.9-0.3,1.9-0.5,2.8
	c-0.2,0.9-0.3,1.9-0.4,2.8c0,0.4-0.1,0.9-0.1,1.3c0,0.6,0.1,1.3,0.2,1.9c0.1,0.9,0.5,1.8,1.1,2.4c0.6,0.7,1.3,1.1,2.1,1.4
	c0.8,0.3,1.7,0.3,2.5,0.2c1.1-0.1,2-0.3,3-0.8c1.4-0.6,2.6-1.7,3.7-2.8c0.6-0.6,1.1-1.2,1.7-1.8c0.7-0.8,0.8-2,0-2.8
	c-0.8-0.8-2-0.7-2.8,0c-0.8,0.8-1.7,1.5-2.6,2.2c-0.4,0.3-0.9,0.6-1.4,0.8c-0.3,0.1-0.6,0.2-0.8,0.2c-0.4,0-0.9,0.1-1.3,0
	c0-0.1,0-0.2-0.1-0.2c-0.1-0.9,0-1.9,0.1-2.8c0.4-2.5,0.9-5,1.3-7.5c0.2-1.3,0.5-2.7,0.7-4c1-5.1,2-10.2,3-15.3
	c0.1-0.7,0.1-1.4-0.3-2c-0.3-0.6-0.9-1-1.6-1.2c-0.2-0.1-0.4-0.1-0.7-0.1C292.4,22.2,291.2,23,291,24.1L291,24.1z M291.1,55.4
	c0.1,0,0.2,0,0.3,0C291.3,55.4,291.2,55.4,291.1,55.4L291.1,55.4z M291.1,55.5c0.1,0,0.1,0,0.2,0.1
	C291.2,55.5,291.2,55.5,291.1,55.5L291.1,55.5z"/>
<path class="st0" d="M305.7,34.8c-1.4,0.1-2.8,0.3-4.2,0.5c-1.2,0.2-2.3,0.4-3.4,0.6c-1,0.2-2,0.4-3,0.6c-1.7,0.3-3.4,0.7-5.1,1
	c-0.7,0.1-1.1,0.9-0.9,1.6c0.2,0.7,0.9,1,1.6,0.9c2.7-0.6,5.3-1.1,8-1.7c2.4-0.5,4.9-1.1,7.3-1.5c0.4-0.1,0.7-0.6,0.7-1
	C306.8,35.3,306.3,34.7,305.7,34.8C305.8,34.7,305.8,34.7,305.7,34.8L305.7,34.8z"/>
<path class="st0" d="M320.3,39.6c-0.3,0.1-0.6,0.1-0.8,0.2c-0.6,0.1-1.1,0.3-1.6,0.6c-0.3,0.2-0.7,0.4-1,0.7c-0.5,0.4-1,0.8-1.4,1.2
	c-1.5,1.4-2.8,3.1-4,4.8c-0.5,0.7-1.1,1.5-1.6,2.2c-0.6,0.9-1,1.8-1.4,2.8c-0.4,1-0.4,2.2-0.2,3.3c0.2,1,0.5,2,1.4,2.8
	c0.8,0.7,1.9,1.1,3,1.1c0.4,0,0.9-0.1,1.3-0.2c0.5-0.1,1.1-0.4,1.6-0.7c0.9-0.4,1.6-1.1,2.3-1.7c0.8-0.8,1.5-1.7,2.2-2.6
	c0.7-1,1.4-2,2.1-3c0.1,0.2,0.2,0.4,0.3,0.6c0.3,0.7,0.6,1.4,1,2.1c0.4,0.7,1,1.3,1.6,1.9c1.2,1.1,2.7,2,4.2,2.6
	c1.6,0.6,3.3,0.8,5,0.7c1.7-0.1,3.4-0.7,4.9-1.4c1.1-0.4,2.1-0.9,3.2-1.5c1.3-0.6,2.5-1.3,3.7-2c1-0.6,1.3-1.9,0.8-2.9
	c-0.6-1-1.9-1.3-2.9-0.8c-0.8,0.4-1.5,0.8-2.3,1.1c-0.5,0.2-1.1,0.5-1.6,0.7c0,0,0.1,0,0.1,0c-0.4,0.2-0.8,0.3-1.2,0.5
	c0,0,0.1,0,0.1,0c-1.5,0.6-3.1,1.2-4.8,1.5c-0.7,0.1-1.4,0.1-2.1,0c-0.6-0.1-1.1-0.3-1.7-0.5c-0.8-0.4-1.6-0.8-2.3-1.3
	c-0.3-0.3-0.6-0.5-0.8-0.8c-0.5-0.7-0.9-1.5-1.3-2.3c-0.2-0.5-0.3-0.9-0.5-1.4c-0.1-0.4-0.1-0.8-0.2-1.1c-0.1-0.4-0.2-0.8-0.4-1.1
	c-0.2-0.5-0.5-0.9-0.9-1.2c-0.6-0.3-1.5-0.4-2.1,0c-0.3,0.2-0.6,0.5-1,0.7c-0.2,0.2-0.4,0.4-0.5,0.7c-0.1,0.2-0.2,0.3-0.3,0.5
	c-0.2,0.4-0.5,0.8-0.8,1.2c-0.7,1-1.4,2-2.2,3c-0.8,1-1.7,2-2.7,2.9c-0.4,0.3-0.8,0.5-1.2,0.8c0,0-0.1,0-0.1,0.1c0-0.1,0-0.1,0-0.2
	c0.1-0.2,0.1-0.4,0.2-0.6c0.4-0.9,1-1.7,1.5-2.6c0.6-0.9,1.3-1.8,1.9-2.7c0.9-1.1,1.8-2.1,2.9-3c0.2-0.1,0.4-0.3,0.6-0.4
	c0.4-0.1,0.9-0.2,1.3-0.3c1.3-0.3,2.1-1.8,1.7-3.1c-0.3-1.1-1.3-1.8-2.4-1.8C320.7,39.6,320.5,39.6,320.3,39.6L320.3,39.6z
	 M316.8,48.3c0,0.1-0.1,0.1-0.1,0.2C316.7,48.4,316.7,48.4,316.8,48.3L316.8,48.3z M326.2,49.5c0,0,0,0.1,0,0.1
	C326.2,49.6,326.2,49.6,326.2,49.5L326.2,49.5z M317.1,50.7c0,0.1-0.1,0.1-0.1,0.2C317,50.8,317.1,50.7,317.1,50.7L317.1,50.7z
	 M340,52.3c-0.1,0.1-0.2,0.1-0.4,0.2C339.7,52.4,339.8,52.3,340,52.3L340,52.3z M328.4,52.6c0,0,0.1,0.1,0.1,0.1
	C328.5,52.6,328.5,52.6,328.4,52.6L328.4,52.6z M313.6,53C313.5,53,313.5,53.1,313.6,53C313.5,53.1,313.5,53,313.6,53L313.6,53z
	 M313.2,54.6C313.2,54.6,313.2,54.6,313.2,54.6C313.2,54.6,313.2,54.6,313.2,54.6C313.2,54.6,313.2,54.6,313.2,54.6L313.2,54.6z"/>
<path class="st0" d="M349.6,24.1c-1.5,6.1-3,12.2-4.5,18.3c-0.4,1.7-0.8,3.3-1.1,5c-0.3,1.4-0.5,2.9-0.5,4.3c-0.1,1.7,0.6,3.3,2,4.3
	c0.3,0.2,0.5,0.4,0.8,0.6c0.4,0.3,0.9,0.4,1.3,0.5c0.4,0.1,0.7,0.1,1.1,0.2c0.4,0,0.8,0,1.2,0c1.5-0.1,2.9-0.6,4.2-1.4
	c1.7-1.1,3.2-2.5,4.7-3.9c0.7-0.6,0.8-1.8,0.3-2.5c-0.3-0.5-0.7-0.8-1.3-1c-0.5-0.1-1.2-0.1-1.6,0.2c-1.6,1.2-3.2,2.4-5,3.2
	c-0.3,0.1-0.6,0.2-0.9,0.2c-0.3,0-0.7,0-1,0c-0.1,0-0.1,0-0.2,0c-0.1,0-0.2-0.1-0.3-0.2c0-0.8,0.1-1.5,0.2-2.3
	c0.3-2.1,0.9-4.2,1.4-6.3c0.4-1.8,0.9-3.5,1.3-5.3c1-4.2,2-8.3,3-12.5c0.4-1.4-0.4-3-1.9-3.4c-0.2-0.1-0.5-0.1-0.7-0.1
	C351,22.1,349.9,22.9,349.6,24.1L349.6,24.1z M349.2,49c0,0.2-0.1,0.4-0.1,0.6C349.1,49.4,349.2,49.2,349.2,49L349.2,49z M349,52
	c0.1,0.1,0.1,0.2,0.2,0.2C349.1,52.2,349,52.1,349,52L349,52z M349.7,52.2c0,0,0.1,0,0.1,0C349.7,52.2,349.7,52.2,349.7,52.2
	L349.7,52.2z"/>
<path class="st0" d="M363,30.1c-1.9,0.1-3.7,0.3-5.5,0.6c-0.1,0-0.3,0-0.4,0.1c-0.3,0-0.5,0.1-0.7,0.1c0,0-0.1,0-0.1,0
	c-0.1,0-0.3,0-0.4,0.1c0.1,0,0.1,0,0.2,0c-4,0.6-8,1.5-12,2.4c-1.2,0.3-1.8,1.6-1.5,2.7c0.3,1.2,1.5,1.8,2.7,1.5
	c3.2-0.8,6.5-1.5,9.7-2.2c0.7-0.1,1.4-0.3,2.1-0.4c0.1,0,0.2,0,0.3-0.1c2.1-0.4,4.1-0.9,6.2-1.2c0.8-0.1,1.3-1,1.3-1.7
	c0-0.9-0.8-1.8-1.7-1.8C363.1,30.1,363.1,30.1,363,30.1L363,30.1z M356.4,30.9C356.4,30.9,356.4,30.9,356.4,30.9
	C356.4,30.9,356.3,30.9,356.4,30.9C356.3,30.9,356.4,30.9,356.4,30.9L356.4,30.9z M357.3,30.7c0,0,0.1,0,0.1,0
	C357.4,30.7,357.4,30.7,357.3,30.7L357.3,30.7z M357.5,30.7C357.5,30.7,357.5,30.7,357.5,30.7c0.1,0,0.3,0,0.4-0.1
	C357.7,30.7,357.6,30.7,357.5,30.7L357.5,30.7z"/>
<path class="st0" d="M368.5,29.5c0,0.8,0.7,1.5,1.5,1.5s1.5-0.7,1.5-1.5S370.8,28,370,28S368.5,28.7,368.5,29.5L368.5,29.5z"/>
<path class="st0" d="M369.7,33.8c-0.5,0.5-0.7,1.1-0.8,1.8c-0.3,2.7-0.6,5.4-0.9,8.1c-0.3,2.4-0.7,4.9-0.8,7.3
	c0,1.1,0.8,2.2,1.9,2.5c1.3,0.4,2.9-0.4,3.2-1.8c0.6-2.6,0.8-5.3,1-8c0.2-2.7,0.5-5.4,0.7-8.1c0.1-0.6-0.3-1.4-0.8-1.8
	c-0.5-0.5-1.1-0.8-1.8-0.8C370.8,33.1,370.2,33.3,369.7,33.8L369.7,33.8z"/>
<path class="st0" d="M388.3,38.3c-0.3,0.1-0.7,0.2-1,0.3c-0.2,0-0.4-0.1-0.6-0.1c-0.2,0-0.5,0-0.7,0.1c-0.3,0.1-0.7,0.3-0.9,0.5
	c-0.3,0.2-0.5,0.5-0.6,0.9c-0.1,0.2-0.1,0.5-0.1,0.7c-0.9,0.8-1.6,1.8-2.3,2.7c-0.6,0.8-1.2,1.6-1.7,2.4c-0.6,0.9-1.2,1.7-1.6,2.6
	c-0.2,0.5-0.5,0.9-0.6,1.4c-0.2,0.6-0.1,1.2,0,1.8c0.1,0.5,0.4,1.1,0.6,1.5c0.3,0.5,0.7,1,1.2,1.5c1.5,1.5,3.6,2.1,5.7,2.3
	c1.1,0.1,2.2-0.1,3.2-0.4c1.1-0.3,2.1-0.8,3-1.5c1.7-1.3,2.9-3.1,3.4-5.1c0.3-1,0.3-2.2,0.1-3.2c-0.2-1.1-0.7-2.1-1.3-3.1
	c-0.2-0.3-0.4-0.5-0.6-0.8c0.1-0.5,0-1.1-0.4-1.5c-0.5-0.4-0.9-0.9-1.4-1.3c-0.4-0.4-0.9-0.8-1.3-1.1c-0.5-0.3-1-0.5-1.6-0.5
	C388.7,38.2,388.5,38.2,388.3,38.3L388.3,38.3z M386.5,43.2c0.3-0.3,0.6-0.6,0.9-0.8c0.5,0.3,1,0.7,1.5,1c0.7,0.6,1.4,1.2,2,1.9
	c0.2,0.4,0.4,0.7,0.6,1.1c0.1,0.3,0.2,0.6,0.3,1c0,0.3,0,0.7,0,1c-0.1,0.4-0.2,0.8-0.3,1.2c-0.2,0.4-0.5,0.9-0.7,1.2
	c-0.3,0.3-0.6,0.6-0.9,0.9c-0.4,0.3-0.8,0.5-1.3,0.8c-0.5,0.2-1.1,0.3-1.6,0.4c-0.6,0.1-1.2,0.1-1.8,0c-0.5-0.1-1-0.2-1.4-0.4
	c-0.3-0.1-0.6-0.3-0.9-0.5c-0.2-0.2-0.5-0.4-0.7-0.7c-0.1-0.2-0.3-0.4-0.4-0.6c0-0.1-0.1-0.2-0.1-0.3c0,0,0-0.1,0-0.1
	c0.5-1.1,1.2-2.2,1.8-3.2c0.6-1,1.3-2,2-2.9C385.8,43.9,386.1,43.6,386.5,43.2L386.5,43.2z M382.1,43.4c0,0-0.1,0.1-0.1,0.1
	C382.1,43.5,382.1,43.4,382.1,43.4L382.1,43.4z M381.7,50.7c0,0,0,0.1,0,0.1C381.7,50.8,381.7,50.7,381.7,50.7L381.7,50.7z"/>
<path class="st0" d="M404.1,38.8c-0.7,2.7-1.3,5.4-2,8.2c-0.3,0.5-0.5,1-0.8,1.6c-0.9,1.9-1.6,3.8-2,5.8c-0.1,0.4-0.2,0.9-0.3,1.4
	c-0.1,0.6-0.2,1.2-0.3,1.8c-0.1,1,0,2,0.6,2.8c0.2,0.4,0.6,0.7,1,1c0.4,0.2,0.9,0.4,1.4,0.4s0.9-0.1,1.4-0.4c0.7-0.4,1-0.9,1.2-1.6
	c0.7-1.9,1.2-4,1.7-6c0.3-1,0.5-2,0.8-3c0.2-0.7,0.4-1.5,0.5-2.2c0.4-0.6,0.8-1.3,1.2-1.9c0.5-0.6,0.9-1.1,1.4-1.6
	c0.3-0.3,0.6-0.6,1-0.9c0.2-0.2,0.5-0.5,0.7-0.7c0,0,0,0,0,0c0,0,0,0,0,0c0.1,0.1,0.2,0.2,0.3,0.3c0.1,0.2,0.2,0.4,0.3,0.5
	c0.2,0.5,0.3,0.9,0.4,1.4c0.1,1.3,0.1,2.6-0.1,4c-0.1,0.6-0.2,1.3-0.3,1.9c-0.1,0.8-0.3,1.7-0.2,2.5c0.1,0.4,0.1,1.1,0.4,1.5
	c0.2,0.3,0.5,0.6,0.8,0.9c0.7,0.7,1.8,0.8,2.7,0.3c1-0.6,1.4-2,0.8-3c0,0,0,0,0,0c0,0,0,0,0,0c0.1-0.4,0.2-0.9,0.3-1.3
	c0.1-0.6,0.2-1.1,0.3-1.7c0.1-1.1,0.2-2.1,0.2-3.2c0-1.1-0.1-2.2-0.3-3.2c-0.1-0.9-0.5-1.7-0.8-2.5c-0.4-0.9-1.2-1.8-2-2.4
	c-0.8-0.6-1.8-0.9-2.8-0.9c-0.7,0-1.5,0.2-2.1,0.6c-0.2-0.9-0.9-1.7-1.9-2c-0.2-0.1-0.5-0.1-0.7-0.1
	C405.5,36.9,404.4,37.6,404.1,38.8L404.1,38.8z M412,43c-0.1,0-0.1,0-0.2,0.1C411.9,43,411.9,43,412,43L412,43z M411.6,43.1
	C411.6,43.1,411.6,43.1,411.6,43.1c-0.1,0-0.1,0-0.2,0C411.5,43.1,411.5,43.1,411.6,43.1L411.6,43.1z M416.7,53.6
	c0,0.1,0,0.1,0.1,0.2C416.7,53.7,416.7,53.7,416.7,53.6C416.7,53.6,416.7,53.6,416.7,53.6L416.7,53.6z"/>
<path class="st0" d="M431.1,37.2c-0.9,0.2-1.8,0.6-2.5,1.2c-0.8,0.6-1.2,1.4-1.5,2.3c-0.1,0.4-0.1,0.8-0.2,1.2
	c0,0.5,0.1,1.1,0.1,1.6c0.2,1,0.5,2,0.9,2.9c0.7,1.7,1.5,3.3,2.3,4.9c0.7,1.4,1.3,2.8,1.9,4.2c0.1,0.3,0.2,0.6,0.3,1
	c-0.1,0.2-0.2,0.3-0.3,0.5c-0.1,0.1-0.2,0.2-0.3,0.3c-0.1,0.1-0.2,0.1-0.4,0.2c-0.3,0.1-0.5,0.1-0.8,0.2c-0.8,0.1-1.7,0-2.5-0.1
	c-0.6-0.1-1.3-0.2-1.9-0.3c-0.7-0.1-1.3-0.1-1.9,0.2c-0.6,0.3-1,0.9-1.1,1.5c-0.3,1.3,0.4,2.8,1.7,3.1c0.8,0.2,1.7,0.4,2.5,0.5
	c0.9,0.1,1.8,0.2,2.7,0.2c1.1-0.1,2.1-0.3,3.1-0.7c0.8-0.3,1.4-0.8,2-1.4c0.3-0.3,0.6-0.7,0.8-1.1c0.1-0.2,0.3-0.4,0.4-0.6
	c0.1-0.3,0.3-0.6,0.4-0.9c0.1-0.4,0.3-0.9,0.3-1.4c0-0.6-0.1-1.1-0.2-1.6c-0.2-0.8-0.6-1.6-1-2.3c-0.6-1.3-1.3-2.6-1.9-3.9
	c-0.8-1.5-1.6-2.9-2.2-4.4c-0.1-0.3-0.3-0.7-0.4-1c-0.2-0.4-0.3-0.9-0.4-1.4c0-0.1,0-0.2,0-0.4c0-0.1,0-0.2,0.1-0.3c0,0,0,0,0-0.1
	c0,0,0,0,0.1-0.1c0.2-0.1,0.3-0.2,0.5-0.3c0.4-0.1,0.8-0.2,1.2-0.3c0.7-0.1,1.3-0.1,1.9,0c0.5,0.1,0.9,0.2,1.3,0.3
	c0.1,0.1,0.3,0.1,0.4,0.2c0.2,0.2,0.5,0.5,0.7,0.7c0.3,0.4,0.6,0.7,1.1,0.8c0.5,0.1,1,0.1,1.4-0.2c0.8-0.5,1.2-1.7,0.6-2.5
	c-0.4-0.6-0.9-1.1-1.4-1.6c-0.7-0.6-1.5-0.9-2.3-1.2c-0.9-0.3-1.9-0.4-2.9-0.4C432.8,37,431.9,37.1,431.1,37.2L431.1,37.2z
	 M431.4,41c-0.1,0.1-0.1,0.1-0.2,0.2C431.3,41.1,431.3,41.1,431.4,41L431.4,41z M432.4,56c0,0.1,0,0.2,0,0.3
	C432.4,56.2,432.4,56.1,432.4,56L432.4,56z M432.4,56.6c0,0,0,0.1,0,0.1c0,0,0,0,0,0C432.4,56.7,432.4,56.7,432.4,56.6L432.4,56.6z
	 M432.3,56.7C432.3,56.7,432.3,56.8,432.3,56.7C432.3,56.8,432.3,56.8,432.3,56.7C432.3,56.7,432.3,56.7,432.3,56.7L432.3,56.7z
	 M427.8,57.6c0.1,0,0.1,0,0.2,0C428,57.6,427.9,57.6,427.8,57.6L427.8,57.6z"/>
<path class="st0" d="M465.3,11.1c-1.5,5.7-3.2,11.3-4.2,17.1c-0.5,2.8-1.1,5.6-1.4,8.4c-0.2,1.4-0.3,2.7-0.4,4.1
	c-0.1,1.4-0.1,2.8-0.1,4.3c0,1.1,0.7,2,1.8,2.3c0.6,0.2,1.3,0.1,1.8-0.2c0.5-0.3,1-0.9,1.1-1.4c0.4-2.7,0.9-5.4,1.5-8.1
	c0.5-2.6,1-5.2,1.6-7.7c1.2-5.8,2.7-11.4,4.3-17.1c0.4-1.6-0.5-3.3-2.1-3.7c-0.3-0.1-0.5-0.1-0.8-0.1
	C466.9,8.9,465.7,9.8,465.3,11.1L465.3,11.1z"/>
<path class="st0" d="M460,56.1c0,1.5,1.3,2.8,2.8,2.8s2.8-1.3,2.8-2.8s-1.3-2.8-2.8-2.8S460,54.6,460,56.1L460,56.1z"/>
</svg>
