<?xml version="1.0" encoding="utf-8"?>
<!-- Generator: Adobe Illustrator 20.0.0, SVG Export Plug-In . SVG Version: 6.00 Build 0)  -->
<svg version="1.1" id="Layer_1" xmlns="http://www.w3.org/2000/svg" xmlns:xlink="http://www.w3.org/1999/xlink" x="0px" y="0px"
	 viewBox="0 0 303.2 47.5" style="enable-background:new 0 0 303.2 47.5;" xml:space="preserve">
<g>
	<g>
		<path d="M32.8,15c-4.9,6.7-10.1,13.1-15.5,19.4c-1.3,1.5,0.9,3.6,2.1,2.1c5.6-6.4,10.9-13.1,16-20C36.5,15,33.9,13.5,32.8,15
			L32.8,15z"/>
	</g>
</g>
<g>
	<g>
		<path d="M33.7,25.9c-2.2,3.2-4.4,6.3-6.6,9.5c-1,1.4,1.3,3.1,2.4,1.8c2.1-2.5,4.4-5.2,7.1-7.1c1.6-1.1,3.7-2.2,5.4-0.5
			c1.1,1.2,1.5,3.2,0.4,4.5c-1.2,1.5,0.9,3.6,2.1,2.1C47,33,46,27.7,41.9,26c-5.8-2.3-11.5,5.3-14.6,9c0.8,0.6,1.6,1.2,2.4,1.8
			c2.2-3.2,4.4-6.3,6.6-9.5C37.4,25.9,34.8,24.4,33.7,25.9L33.7,25.9z"/>
	</g>
</g>
<g>
	<g>
		<path d="M53.6,13.9c0.4,4.6-3.3,9.2-3.9,13.8c-0.4,3.2-0.8,7.5,1.1,10.4c4.1,6.2,9.8-0.4,11.6-4.7c0.7-1.8-2.2-2.6-2.9-0.8
			c-0.6,3.4-2.8,4.3-6.7,2.9c-0.3-1-0.4-2-0.4-3.1c-0.1-2.5,0.2-5.3,1-7.7c1.3-3.9,3.6-6.6,3.2-10.8C56.4,12,53.4,12,53.6,13.9
			L53.6,13.9z"/>
	</g>
</g>
<g>
	<g>
		<path d="M44.9,28c4.5,0.3,8.9,0.2,13.3-0.3c1.9-0.2,1.9-3.2,0-3c-4.4,0.5-8.9,0.6-13.3,0.3C43,24.9,43,27.9,44.9,28L44.9,28z"/>
	</g>
</g>
<g>
	<g>
		<path d="M65.7,27.2c-0.1,2.3-0.2,4.5-0.3,6.8c-0.1,1.9,2.9,1.9,3,0c0.2-4,3.6-7.4,7.6-7.6c1.9-0.1,1.9-3.1,0-3
			c-5.7,0.3-10.3,4.9-10.6,10.6c1,0,2,0,3,0c0.1-2.3,0.2-4.5,0.3-6.8C68.8,25.3,65.8,25.3,65.7,27.2L65.7,27.2z"/>
	</g>
</g>
<g>
	<g>
		<path d="M82.1,26.4c1.3,3.2,3.5,6.1,7,7.2c3.2,1,7,0.1,9.1-2.5c1.8-2.1,2.1-5.8-0.6-7.3c-1.7-0.9-3.9-0.7-5.7-0.7
			c-2.8,0-5.6,0.1-8.3,0.4c-1.9,0.2-1.9,3.2,0,3c2.4-0.2,4.9-0.4,7.3-0.4c1,0,2.2-0.1,3.1,0.1c2.1,0.3,3.4,1.7,1.5,3.4
			c-3.8,3.6-9-0.2-10.5-4C84.3,23.8,81.4,24.6,82.1,26.4L82.1,26.4z"/>
	</g>
</g>
<g>
	<g>
		<path d="M125.5,7.2c-0.9,5-1.7,10.1-2.6,15.1c-0.5,3-1.8,6.7-1.1,9.8c1.2,5.5,7.1,4.6,10.6,2.1c1.6-1.1,0.1-3.7-1.5-2.6
			c-0.9,0.8-1.9,1.3-3.1,1.6c-2.7-1.7-3.6-3.8-2.7-6.3c0-1.8,0.7-3.9,1-5.7c0.8-4.4,1.5-8.8,2.3-13.2C128.7,6.1,125.8,5.3,125.5,7.2
			L125.5,7.2z"/>
	</g>
</g>
<g>
	<g>
		<path d="M120.3,19.9c4.6,0,9.3,0,13.9,0c1.9,0,1.9-3,0-3c-4.6,0-9.3,0-13.9,0C118.3,16.9,118.3,19.9,120.3,19.9L120.3,19.9z"/>
	</g>
</g>
<g>
	<g>
		<path d="M142.4,22.2c-0.2,3.2-0.4,6.4-0.6,9.6c-0.1,1.7,0,3.4,1.5,4.5c2.9,2.1,9,1.7,11.7-0.5c7.5-6.1-4.2-18.8-11.6-16.9
			c-1.9,0.5-1.1,3.4,0.8,2.9c5.9-1.5,14.9,11.1,6.7,12.6c-1.2,0.2-3,0.2-4.2-0.1c-1.9-0.5-1.9-1.4-1.8-3.1c0.2-3,0.3-6,0.5-9.1
			C145.5,20.2,142.5,20.2,142.4,22.2L142.4,22.2z"/>
	</g>
</g>
<g>
	<g>
		<path d="M180.5,6.6c-1.1,3.8-2,7.6-2.5,11.6c-0.3,2.4-1.2,5.9,0.1,8.1c1.9,3.5,8.8,3.3,12,2.6c10.4-2.5,5.5-17.4-4.3-12.8
			c0.5,0.9,1,1.7,1.5,2.6c1.7-0.9,3.5-2.4,5.5-1.4c1.9,1,1.3,1.8,1.3,4.1c0,3,0,6.1,0,9.1c0,1.9,3,1.9,3,0c0-3.6,0-7.3,0-10.9
			c0-1.5,0.2-3.5-0.7-4.8c-2.4-3.2-8,0-10.6,1.4c-1.7,0.9-0.2,3.4,1.5,2.6c1.9,0.7,3.8,1.4,5.7,2.1c-0.6,1.5-1.3,3-1.9,4.6
			c-0.9,0.8-2.9,0.9-4,0.9c-3,0.1-6,0-6.5-3.7c-0.7-4.6,1.5-10.7,2.8-15.1C183.9,5.6,181,4.8,180.5,6.6L180.5,6.6z"/>
	</g>
</g>
<g>
	<g>
		<path d="M198.4,17.1c0.2,2.8,0.3,5.6,0.5,8.5c0.1,1.9,2.9,1.9,3,0c0.1-4.8,4-9.1,8.9-9.4c1.9-0.1,1.9-3.1,0-3
			c-6.5,0.5-11.7,5.9-11.9,12.4c1,0,2,0,3,0c-0.2-2.8-0.3-5.6-0.5-8.5C201.3,15.2,198.2,15.2,198.4,17.1L198.4,17.1z"/>
	</g>
</g>
<g>
	<g>
		<path d="M219.8,17.3c-2.8,2.8-5,6.1-6.2,10c-0.8,2.7-1.7,6.5,1,8.4c2.1,1.5,5,0.9,6.8-0.9c2.9-3,2.1-7.5,2.2-11.2c-1,0-2,0-3,0
			c0.2,4.3,2.7,7.6,6.7,9.1c1.8,0.7,2.6-2.2,0.8-2.9c-2.7-1-4.4-3.3-4.5-6.2c-0.1-1.9-2.9-1.9-3,0c-0.1,2,0.3,4.3-0.1,6.3
			c-0.2,1-1.3,4.1-2.9,3.6c-1.8-0.6-1.7-2.6-1.4-3.9c0.8-3.9,2.9-7.3,5.8-10.1C223.3,18.1,221.2,15.9,219.8,17.3L219.8,17.3z"/>
	</g>
</g>
<g>
	<g>
		<path d="M227.7,18.4c-0.6,8.1,0.3,16,2.6,23.8c0.6,1.8,3.5,1.1,2.9-0.8c-2.3-7.5-3.1-15.1-2.5-23
			C230.8,16.4,227.8,16.4,227.7,18.4L227.7,18.4z"/>
	</g>
</g>
<g>
	<g>
		<path d="M227.8,19.3c-0.5,1.5,0,2.9,1.3,4c1.6,1.4,3.4,1,5.3,1.1c1.2,0.1,2.4,0.2,2.8,1.5c0.3,0.8,0.1,1.9-0.4,2.7
			c-1.5,2.3-4.9,2-7.1,1.4c-1.9-0.5-2.7,2.4-0.8,2.9c4.3,1.2,10.3,0.4,11.3-4.9c0.3-1.8-0.1-3.9-1.5-5.2c-0.7-0.7-1.6-1-2.5-1.2
			c-0.8-0.2-6.1,0.3-5.5-1.4C231.3,18.2,228.4,17.4,227.8,19.3L227.8,19.3z"/>
	</g>
</g>
<g>
	<g>
		<path d="M242.6,3.8c0.2,8.8,0.5,17.6,0.7,26.4c0.1,2,2.8,1.9,3,0c0.3-2.6,0.7-5.7,2.2-7.9c2.1-3.2,8.7-5,8.1,1.3
			c-0.2,2.6-1.6,4.4-1.1,7.2c0.3,1.9,3.2,1.1,2.9-0.8c-0.7-3.6,2.5-6.8,0.7-10.3c-1.1-2.3-3.8-3.5-6.3-3.4c-7.1,0.3-8.9,8.4-9.6,14
			c1,0,2,0,3,0c-0.2-8.8-0.5-17.6-0.7-26.4C245.6,1.9,242.6,1.9,242.6,3.8L242.6,3.8z"/>
	</g>
</g>
<g>
	<g>
		<path d="M263.3,15.4c1.9,0,1.9-3,0-3C261.4,12.4,261.4,15.4,263.3,15.4L263.3,15.4z"/>
	</g>
</g>
<g>
	<g>
		<path d="M261.8,19c-0.3,3.5-0.1,7,0.5,10.6c0.3,1.9,3.2,1.1,2.9-0.8c-0.6-3.2-0.7-6.5-0.4-9.8C265,17.1,262,17.1,261.8,19
			L261.8,19z"/>
	</g>
</g>
<g>
	<g>
		<path d="M275.3,14.7c-4.8,2.8-8,8.6-6.6,14.2c1.1,4.5,6.6,7.9,10.3,3.8c1.3-1.4-0.8-3.6-2.1-2.1c-1.6,1.8-3.9,0.7-4.8-1.2
			c-0.8-1.5-0.8-3.4-0.5-5.1c0.6-3.1,2.6-5.5,5.2-7.1C278.5,16.4,277,13.8,275.3,14.7L275.3,14.7z"/>
	</g>
</g>
<g>
	<g>
		<path d="M287.5,17c-4.1-2-9.9,0.5-10.1,5.4c-0.1,2.3,1.3,3.2,3.4,3.2c1.8,0,3.7-0.2,5.3,0.8c1.4,0.9,3,4.8,0,5.1
			c-1.9,0.2-1.9,3.2,0,3c4.7-0.4,6.2-6.3,3-9.5c-1.7-1.8-4.3-2.4-6.7-2.4c-1.7,0-2.8,0.6-1.4-1.5c1-1.6,3.3-2.3,5-1.4
			C287.7,20.4,289.2,17.9,287.5,17L287.5,17z"/>
	</g>
</g>
</svg>
