<?xml version="1.0" encoding="utf-8"?>
<!-- Generator: Adobe Illustrator 20.1.0, SVG Export Plug-In . SVG Version: 6.00 Build 0)  -->
<svg version="1.1" id="Layer_1" xmlns="http://www.w3.org/2000/svg" xmlns:xlink="http://www.w3.org/1999/xlink" x="0px" y="0px"
	 viewBox="0 0 237 129.1" style="enable-background:new 0 0 237 129.1;" xml:space="preserve">
<style type="text/css">
	.st0{fill:#4D62AD;}
</style>
<path class="st0" d="M122.6,1.4c-0.9,0.4-1.7,1.1-2.5,1.7c-0.1,0.1-0.3,0.3-0.4,0.4c-0.7,0.2-1.4,0.4-2,0.7c-2,0.9-3.5,2.5-4.7,4.3
	c-0.6,0.9-1.1,1.9-1.5,3c-0.4,1.1-0.7,2.3-0.7,3.5c0,1.1,0.2,2.2,0.6,3.1c0.5,1.1,1.1,2,1.9,2.9c0.7,0.8,1.6,1.4,2.5,1.9
	c1,0.6,2.1,1.1,3.2,1.5c2.2,0.8,4.6,1.2,7,1.3c1.2,0,2.3-0.1,3.5-0.2c1.2-0.2,2.3-0.4,3.4-0.8c2.1-0.7,4.1-2,5.7-3.5
	c0.7-0.7,1.4-1.5,1.9-2.4c0.6-0.8,1-1.8,1.4-2.7c0.4-0.9,0.6-1.9,0.8-2.8c0.2-1.1,0.2-2.2,0-3.4c-0.1-1-0.4-2-0.8-2.9
	s-1-1.8-1.6-2.6c-0.6-0.8-1.5-1.4-2.3-2c-0.9-0.6-1.8-1-2.8-1.4c-2-0.8-4.2-1-6.3-1.1c0,0-0.1,0-0.1,0C126.6,0,124.5,0.5,122.6,1.4
	L122.6,1.4z M131.3,3.5c1.2,0.2,2.3,0.5,3.4,0.9c0.7,0.3,1.4,0.7,2,1.2c0.5,0.4,0.9,0.8,1.4,1.3c0.3,0.5,0.6,1,0.9,1.5
	c0.3,0.7,0.4,1.4,0.5,2.1c0.1,0.7,0.1,1.5,0,2.2c-0.1,0.9-0.4,1.7-0.7,2.5c-0.4,0.9-0.9,1.8-1.5,2.6c-0.6,0.8-1.3,1.5-2.1,2.1
	c-0.8,0.6-1.7,1.1-2.6,1.5c-1.3,0.5-2.6,0.8-4,1c-1.6,0.2-3.3,0.2-4.9,0c-1.7-0.3-3.3-0.7-4.9-1.3c-0.9-0.4-1.8-0.9-2.6-1.5
	c-0.5-0.4-1-0.9-1.4-1.4c-0.3-0.4-0.6-0.9-0.8-1.3c-0.2-0.4-0.3-0.8-0.3-1.2c-0.1-0.5-0.1-1,0-1.5c0.1-0.8,0.4-1.6,0.7-2.4
	c0.4-0.9,0.9-1.7,1.5-2.5c0.3-0.4,0.7-0.8,1-1.2c0,0,0,0.1,0,0.1c0.1,0.4,0.4,0.7,0.7,0.9c0.4,0.2,0.8,0.3,1.2,0.2
	c0.4-0.1,0.6-0.3,0.9-0.6c0,0,0,0,0,0.1c0.4-0.5,0.8-0.9,1.2-1.4c0.4-0.5,0.9-1,1.3-1.5c0.4,0,0.8,0,1.2,0.1c0.2,0,0.4,0.1,0.6,0.1
	c0.7,0.2,1.4-0.2,1.6-0.9c0.1-0.4,0-0.9-0.3-1.2c0.7-0.2,1.4-0.4,2.1-0.5C128.5,3.3,129.9,3.4,131.3,3.5L131.3,3.5z M118.5,21.1
	c0,0,0.1,0,0.1,0C118.5,21.1,118.5,21.1,118.5,21.1L118.5,21.1z"/>
<path class="st0" d="M118.5,23.3c-0.3,0.1-0.4,0.2-0.6,0.4c-1.8,2.4-3.7,4.8-5.5,7.2c-0.7,0.9-1.4,1.8-2.1,2.8c-0.7,1-1.3,1.9-2,2.9
	c-1.3,1.9-2.6,3.8-3.9,5.6c-0.5,0.6-1,1.2-1.6,1.8c-0.5,0.4-0.4,1.2,0,1.6c0.2,0.2,0.5,0.3,0.8,0.3c0.3,0,0.6-0.1,0.8-0.3
	c0.5-0.4,1-0.9,1.4-1.5c0.4-0.5,0.7-1,1-1.5c0.6-1,1.3-2,1.9-2.9c0.5-0.8,1.1-1.7,1.7-2.5c0.6-0.9,1.3-1.9,2-2.8
	c2.3-3.2,4.7-6.3,7.1-9.5c0.1-0.2,0.2-0.5,0.1-0.7c-0.1-0.2-0.2-0.4-0.4-0.6c-0.1-0.1-0.3-0.1-0.5-0.1
	C118.7,23.3,118.6,23.3,118.5,23.3L118.5,23.3z"/>
<path class="st0" d="M97.8,39.5c-0.6,0.6-0.6,1.6-0.1,2.2c-1.6-0.9-3.2-1.5-5-1.9c-1.1-0.3-2.3-0.4-3.4-0.4c-1.2,0-2.5,0.2-3.6,0.4
	c-1.1,0.2-2.2,0.6-3.2,1c-1.2,0.5-2.3,1-3.3,1.8c-1,0.7-1.8,1.5-2.5,2.5c-0.7,1-1.3,2.1-1.7,3.2c-0.4,1.1-0.6,2.2-0.8,3.4
	c-0.1,1.3,0,2.6,0.3,3.8c0.3,1.1,0.9,2.1,1.5,3c0.3,0.5,0.7,0.9,1.1,1.3c0.5,0.5,1.1,0.9,1.6,1.2c0.9,0.6,2,1.1,3.1,1.5
	c1.1,0.4,2.4,0.7,3.6,0.9c0.9,0.1,1.8,0.2,2.8,0.2c1,0,2.1-0.1,3.1-0.3c1.9-0.3,3.6-0.9,5.3-1.7c1.6-0.7,3.2-1.6,4.6-2.6
	c1.5-1.1,2.8-2.4,3.7-4c0.4-0.8,0.8-1.6,1-2.5c0.2-0.9,0.3-1.9,0.3-2.9c-0.1-1.9-0.7-3.7-1.7-5.2c-1.1-1.9-2.7-3.5-4.4-4.9
	C99.8,39.2,99.5,39,99,39C98.5,39,98.1,39.1,97.8,39.5L97.8,39.5z M91.3,42.4c1.2,0.2,2.4,0.5,3.6,1c1.3,0.6,2.6,1.3,3.7,2.2
	c0.7,0.6,1.4,1.2,2,1.9c0.4,0.6,0.7,1.1,1,1.7c0.2,0.4,0.7,0.7,1.2,0.7c0,0.4,0,0.8,0,1.1c-0.1,0.5-0.2,1-0.4,1.5
	c-0.3,0.6-0.6,1.1-0.9,1.6c-0.5,0.6-1.1,1.2-1.8,1.8c-1.6,1.2-3.3,2.1-5.1,2.9c-1.5,0.6-2.9,1-4.5,1.3c-1.3,0.2-2.7,0.1-4,0
	c-1.3-0.2-2.5-0.5-3.8-1c-0.8-0.4-1.6-0.8-2.3-1.3c-0.4-0.4-0.8-0.8-1.2-1.2c-0.3-0.5-0.6-0.9-0.9-1.5c-0.2-0.6-0.4-1.1-0.5-1.7
	c-0.1-0.7,0-1.4,0-2.1c0.2-1,0.4-1.9,0.8-2.8c0.3-0.7,0.7-1.3,1.1-1.9c0.5-0.5,1-1,1.5-1.5c0.8-0.6,1.6-1,2.5-1.4
	c1.4-0.6,2.9-1,4.5-1.2C89,42.3,90.1,42.3,91.3,42.4L91.3,42.4z M94.8,58.7c0,0-0.1,0-0.1,0.1C94.7,58.7,94.7,58.7,94.8,58.7
	L94.8,58.7z M86.2,60.1c0.1,0,0.1,0,0.2,0C86.3,60.1,86.2,60.1,86.2,60.1L86.2,60.1z"/>
<path class="st0" d="M77.8,56.7c-1.5,0.5-3.1,1-4.6,1.5c-1.3,0.5-2.7,0.9-4,1.4c-1.8,0.6-3.6,1.2-5.3,1.9c-2.3,0.9-4.5,1.7-6.8,2.6
	c-1.1,0.4-2.2,0.8-3.2,1.2c-0.9,0.3-1.7,0.6-2.6,0.9c-0.7,0.2-1.4,0.5-2.1,0.7c-0.5,0.2-0.9,0.3-1.4,0.5c-0.6,0.2-1.2,0.4-1.8,0.6
	c-0.2,0.1-0.3,0.2-0.4,0.4c-0.1,0.2-0.2,0.5-0.1,0.8c0,0.2,0.1,0.3,0.3,0.5c0.2,0.2,0.5,0.3,0.7,0.3c0.2,0,0.4-0.1,0.6-0.1
	c0.1,0,0.3-0.1,0.4-0.2c0.2-0.1,0.4-0.1,0.6-0.2c0.4-0.1,0.7-0.3,1-0.4c0.4-0.1,0.7-0.3,1.1-0.4c1-0.4,1.9-0.7,2.9-1.1
	c1.9-0.7,3.8-1.4,5.7-2.2c1.4-0.5,2.8-1.1,4.2-1.6c0.7-0.3,1.4-0.5,2-0.8c2.4-0.8,4.9-1.7,7.3-2.5c0.6-0.2,1.3-0.4,1.9-0.7
	c1.3-0.4,2.6-0.8,3.9-1.2c0.5-0.2,0.8-0.6,0.6-1.1c-0.1-0.4-0.5-0.7-0.9-0.7C78,56.7,77.9,56.7,77.8,56.7L77.8,56.7z"/>
<path class="st0" d="M47.3,65.8c-0.7,0.1-1.5,0.1-2.2,0.3c-1-0.2-2.1-0.3-3.1-0.3c-0.5,0-1,0-1.5,0.1c-0.3,0-0.6,0.1-0.9,0.1
	c-0.3,0-0.5,0.1-0.8,0.2c-0.6,0.2-1,0.8-0.8,1.4c0,0.1,0.1,0.2,0.1,0.3c-1.4,0.5-2.7,1.1-4.1,1.8c-1.3,0.7-2.6,1.5-3.7,2.5
	c-1.2,0.9-2.2,2-3.1,3.2c-0.4,0.6-0.8,1.1-1.1,1.8c-0.3,0.7-0.5,1.4-0.5,2.1c0,0.6,0.1,1.3,0.4,1.9c0.1,0.3,0.3,0.5,0.5,0.7
	c0.2,0.3,0.5,0.5,0.8,0.7c1,0.8,2.3,1.4,3.5,1.8c1.4,0.5,2.9,0.7,4.4,0.9c1.6,0.1,3.1-0.1,4.7-0.3c1.5-0.3,2.9-0.7,4.4-1.2
	c1.4-0.5,2.8-1.2,4-1.9c1.2-0.8,2.4-1.7,3.3-2.8c0.3-0.4,0.6-0.8,0.9-1.2c0.3-0.4,0.5-0.9,0.6-1.3c0.2-0.5,0.3-0.9,0.3-1.4
	c0.1-0.5,0.1-1,0-1.5c0-0.5-0.1-1-0.3-1.5c-0.1-0.5-0.3-0.9-0.6-1.4c-0.2-0.4-0.6-0.8-0.9-1.2c-0.4-0.4-0.8-0.8-1.2-1.1
	c-0.6-0.4-1.2-0.7-1.8-1c0,0,0,0,0.1,0c1,0,2,0.1,2.9,0.2c-0.1,0-0.1,0-0.2,0c1.8,0.3,3.7,0.7,5.4,1.4c0.4,0.2,0.8,0.4,1.2,0.6
	c0.2,0.1,0.4,0.2,0.6,0.3c0.3,0.1,0.5,0.3,0.7,0.5c0.3,0.2,0.8,0.1,1-0.3c0.2-0.4,0.1-0.8-0.3-1c-0.3-0.2-0.6-0.4-0.9-0.6
	c-0.3-0.2-0.6-0.3-1-0.5c-0.7-0.3-1.4-0.6-2.2-0.9c-0.7-0.2-1.4-0.4-2.1-0.6c-0.8-0.2-1.6-0.3-2.4-0.4c-0.9-0.1-1.9-0.2-2.8-0.2
	C48.5,65.7,47.9,65.7,47.3,65.8L47.3,65.8z M46.1,67.4C46.1,67.4,46.1,67.4,46.1,67.4C46.1,67.4,46.1,67.4,46.1,67.4
	C46.1,67.4,46.1,67.4,46.1,67.4L46.1,67.4z M42.3,68.1c0.5,0,1,0.1,1.4,0.1c1.3,0.2,2.6,0.5,3.8,0.9c0.6,0.3,1.3,0.6,1.9,1
	c0.4,0.3,0.7,0.6,1,1c0.2,0.3,0.4,0.7,0.6,1c0.1,0.4,0.2,0.7,0.3,1.1c0,0.5,0,0.9,0,1.4c-0.1,0.4-0.2,0.7-0.3,1.1
	c-0.3,0.6-0.6,1.1-1,1.6c-0.5,0.6-1.1,1.2-1.7,1.7c-1.2,0.9-2.5,1.6-3.9,2.2c-1.9,0.8-4,1.3-6,1.6c-1.4,0.2-2.8,0.2-4.3,0
	c-1.1-0.2-2.2-0.4-3.2-0.8c-0.8-0.3-1.6-0.7-2.3-1.2c-0.2-0.2-0.4-0.4-0.6-0.6c-0.1-0.1-0.1-0.2-0.2-0.3c-0.1-0.2-0.1-0.3-0.1-0.5
	c0-0.3,0-0.6,0-0.9c0-0.2,0.1-0.4,0.2-0.7c0.4-0.8,0.8-1.5,1.3-2.1c0.9-1.1,1.9-2.1,3.1-3c0.8-0.6,1.6-1.1,2.4-1.6
	c0.9-0.5,1.9-1,2.9-1.4c0,0,0,0,0,0C39,69.1,40.6,68.6,42.3,68.1L42.3,68.1z M43.5,68.3c0,0,0.1,0,0.1,0
	C43.6,68.3,43.6,68.3,43.5,68.3L43.5,68.3z M50.2,71.1C50.2,71.1,50.2,71.1,50.2,71.1C50.2,71.1,50.2,71.1,50.2,71.1L50.2,71.1z
	 M32.2,72.7C32.2,72.7,32.2,72.7,32.2,72.7C32.2,72.7,32.2,72.7,32.2,72.7L32.2,72.7z M29.2,75.6c0,0-0.1,0.1-0.1,0.1
	C29.1,75.7,29.2,75.6,29.2,75.6L29.2,75.6z M50.8,75.9C50.8,75.9,50.8,76,50.8,75.9C50.8,76,50.8,75.9,50.8,75.9L50.8,75.9z
	 M28.6,80.9C28.6,80.9,28.6,80.9,28.6,80.9C28.6,80.9,28.6,80.9,28.6,80.9L28.6,80.9z M44.5,81.2c0,0-0.1,0-0.1,0
	C44.4,81.3,44.4,81.2,44.5,81.2L44.5,81.2z M34.1,82.9c0,0,0.1,0,0.1,0C34.2,82.9,34.1,82.9,34.1,82.9L34.1,82.9z"/>
<path class="st0" d="M33.9,84.1c-3.3,5.1-6.7,10.3-10,15.4c-0.7,1-1.3,2-1.9,3c-0.4,0.6-0.8,1.2-1.2,1.8c-0.5,0.7-0.9,1.4-1.4,2.1
	c-0.2,0.4-0.2,0.9,0.2,1.3c0.1,0.1,0.3,0.2,0.5,0.3c0.2,0.1,0.6,0.1,0.8-0.1c0.2-0.1,0.3-0.2,0.5-0.4c0.1-0.1,0.2-0.3,0.3-0.4
	c0.1-0.1,0.2-0.3,0.3-0.4c0.2-0.2,0.4-0.5,0.5-0.7c0.4-0.5,0.7-1,1.1-1.6c0.7-1.1,1.4-2.2,2.1-3.3c1.1-1.7,2.2-3.5,3.4-5.2
	c2.3-3.5,4.6-7.1,6.9-10.6c0.3-0.5,0.1-1.3-0.4-1.6c-0.2-0.1-0.4-0.2-0.6-0.2C34.6,83.5,34.2,83.7,33.9,84.1L33.9,84.1z"/>
<path class="st0" d="M17.6,106c-0.5,0.3-0.7,1-0.4,1.5c0.4,0.6,0.9,1.3,1.4,1.9c0,0,0.1,0.1,0.1,0.1c-0.2,0-0.4,0-0.6,0.1
	c-0.8,0.1-1.7,0.3-2.5,0.5c-1.6,0.4-3.1,1.1-4.5,1.8c-1.4,0.7-2.8,1.7-4,2.7c-0.6,0.5-1.2,1-1.7,1.5c-0.6,0.6-1.2,1.2-1.7,1.9
	c-0.5,0.6-1,1.3-1.4,1.9c-0.5,0.7-1,1.3-1.4,2.1c-0.3,0.6-0.6,1.4-0.8,2.1C0,124.4,0,124.8,0,125.1c0,0.4,0.2,0.8,0.4,1.2
	c0.4,0.6,1,1,1.5,1.4c0.6,0.4,1.3,0.7,2.1,0.9c0.7,0.2,1.5,0.3,2.3,0.4c0.8,0.1,1.6,0.1,2.5,0.1c1.7,0,3.5-0.2,5.2-0.5
	c3.2-0.6,6.4-1.7,9.3-3.4c1.4-0.9,2.6-2,3.5-3.4c0.4-0.6,0.7-1.4,0.9-2.1c0.2-0.9,0.1-1.8-0.1-2.7c-0.3-1.7-1.3-3.1-2.3-4.4
	c-0.2-0.3-0.4-0.5-0.7-0.8c0.2,0,0.4,0.1,0.6,0.1c0.5,0.1,1-0.1,1.1-0.6c0.1-0.5-0.2-1-0.6-1.1c-0.4-0.1-0.8-0.2-1.2-0.3
	c-0.4-0.1-0.8-0.1-1.2-0.2c-0.3-0.1-0.7-0.1-1-0.2c-0.4-0.4-0.9-0.8-1.3-1.2c-0.3-0.3-0.6-0.6-0.9-0.9c-0.4-0.4-0.7-0.8-1.1-1.3
	c-0.1-0.1-0.3-0.2-0.5-0.3c-0.1,0-0.2,0-0.3,0C18,105.8,17.8,105.9,17.6,106L17.6,106z M20.4,111.2c1,1,2.1,2,3.1,3.1
	c0.5,0.7,1,1.4,1.4,2.2c0.2,0.4,0.3,0.9,0.3,1.3c0,0.4,0.1,0.9,0,1.3c0,0.3-0.1,0.5-0.2,0.7c-0.2,0.4-0.4,0.8-0.7,1.1
	c-0.4,0.5-0.9,1-1.5,1.5c-1.2,0.9-2.5,1.6-3.8,2.1c-2.4,1-4.9,1.6-7.4,2c-1,0.1-2.1,0.2-3.1,0.2c-1,0-1.9,0-2.9-0.1
	c-0.6-0.1-1.1-0.2-1.7-0.4c-0.4-0.2-0.8-0.4-1.2-0.7c-0.1-0.1-0.3-0.2-0.4-0.4c0-0.1-0.1-0.1-0.1-0.2c0,0,0,0,0,0c0-0.1,0-0.2,0-0.3
	c0.1-0.5,0.2-1,0.4-1.4c0.3-0.7,0.7-1.4,1.2-2c0.5-0.7,1-1.5,1.5-2.2c0.6-0.7,1.2-1.4,1.8-2c0.7-0.6,1.4-1.3,2.1-1.8
	c0.7-0.5,1.4-1,2.1-1.4c0.7-0.4,1.5-0.8,2.2-1.1c1.6-0.7,3.3-1.2,5-1.4C19.2,111.2,19.8,111.2,20.4,111.2L20.4,111.2z M9.2,115.2
	c0,0-0.1,0.1-0.1,0.1C9.2,115.3,9.2,115.3,9.2,115.2L9.2,115.2z M5.3,119.1c0,0.1-0.1,0.1-0.1,0.2C5.2,119.2,5.3,119.1,5.3,119.1
	L5.3,119.1z"/>
<path class="st0" d="M49.3,79.6c-0.4,0.1-0.8,0.4-1,0.8c-0.2,0.4-0.3,0.9-0.2,1.3c1,2.5,1.9,5.1,2.8,7.6c0.7,1.9,1.4,3.9,2.1,5.8
	c0.2,0.6,0.4,1.3,0.5,1.9c0.3,1.1,0.6,2.2,1,3.3c0.2,0.7,0.3,1.4,0.5,2.1c0.2,0.8,0.4,1.6,0.5,2.4c0.3,1.8,0.7,3.7,0.9,5.5
	c0.1,0.3,0.2,0.5,0.4,0.7c0.3,0.3,0.7,0.4,1.1,0.4c0.8,0,1.6-0.7,1.5-1.5c-0.2-2.1-0.5-4.1-0.8-6.1c-0.1-0.8-0.3-1.6-0.5-2.4
	c-0.1-0.7-0.3-1.3-0.4-2c-0.3-1.1-0.6-2.2-0.9-3.3c-0.2-0.6-0.3-1.2-0.5-1.8c-0.7-2-1.4-3.9-2.1-5.9c-0.9-2.5-1.8-5-2.8-7.5
	c-0.2-0.4-0.4-0.8-0.8-1c-0.3-0.2-0.6-0.2-0.9-0.2C49.6,79.5,49.5,79.5,49.3,79.6L49.3,79.6z"/>
<path class="st0" d="M59.3,110.1c-0.3,0.1-0.5,0.2-0.6,0.5c-0.2,0.3-0.2,0.6-0.1,0.9c-0.9,0.3-1.7,0.8-2.4,1.3
	c-0.9,0.6-1.7,1.4-2.4,2.2c-0.7,0.8-1.4,1.7-1.9,2.7c-0.5,1-0.8,2-0.9,3.1c-0.1,0.5,0,1,0.1,1.5c0.1,0.5,0.4,1,0.7,1.4
	c0.6,0.9,1.4,1.6,2.4,2.1c1,0.5,2.1,0.6,3.2,0.7c1.1,0.1,2.3-0.1,3.3-0.4c1.1-0.3,2.2-0.8,3.2-1.4c0.5-0.3,1-0.7,1.4-1
	c0.5-0.4,0.9-0.7,1.3-1.2c0.8-0.9,1.5-1.9,1.8-3.1c0.1-0.5,0.2-1.1,0.2-1.7c0-0.3-0.1-0.6-0.1-0.9c-0.1-0.3-0.2-0.6-0.3-1
	c-0.2-0.5-0.6-1-0.9-1.4c-0.4-0.5-0.8-0.9-1.3-1.2c-0.4-0.3-0.9-0.6-1.3-0.9c-0.5-0.3-1-0.5-1.5-0.8c-0.2-0.1-0.3-0.2-0.5-0.2
	c0.8-0.1,1.5-0.1,2.3,0c0.3,0,0.7,0.1,1,0.2c0.2,0.1,0.5-0.1,0.5-0.3c0.1-0.2-0.1-0.5-0.3-0.5c-0.5-0.1-1.1-0.2-1.7-0.3
	c-0.6,0-1.2,0-1.8,0.1c-0.4,0-0.9,0.1-1.3,0.2c-0.3-0.2-0.7-0.3-1-0.5c-0.2-0.1-0.3-0.1-0.5-0.1C59.5,110.1,59.4,110.1,59.3,110.1
	L59.3,110.1z M64.8,111.3C64.8,111.3,64.8,111.3,64.8,111.3C64.8,111.3,64.8,111.3,64.8,111.3L64.8,111.3z M59.4,112.2
	c0.6,0.3,1.2,0.7,1.9,1c0.4,0.2,0.9,0.4,1.3,0.7c0.8,0.4,1.5,0.8,2.2,1.4c0.3,0.2,0.6,0.5,0.8,0.8c0.2,0.3,0.4,0.6,0.6,1
	c0.1,0.2,0.1,0.4,0.2,0.7c0,0.3,0,0.6,0,0.9c-0.1,0.3-0.1,0.6-0.3,0.9c-0.2,0.5-0.5,0.9-0.8,1.4c-0.5,0.6-1.1,1.2-1.8,1.7
	c-0.4,0.3-0.8,0.6-1.2,0.8c-0.4,0.2-0.8,0.4-1.2,0.6c-0.8,0.3-1.7,0.6-2.6,0.8c-0.8,0.1-1.5,0.1-2.3,0c-0.5-0.1-1-0.2-1.4-0.4
	c-0.3-0.1-0.6-0.3-0.9-0.5c-0.3-0.3-0.6-0.6-0.9-0.9c-0.2-0.2-0.3-0.5-0.4-0.7c-0.1-0.2-0.1-0.4-0.2-0.6c0-0.4,0-0.9,0-1.3
	c0.1-0.6,0.2-1.2,0.5-1.8c0,0,0,0,0,0.1c0,0,0,0,0-0.1c0,0,0-0.1,0-0.1c0,0,0,0.1,0,0.1c0.4-0.9,1-1.8,1.6-2.6c0,0-0.1,0.1-0.1,0.1
	c0.7-0.9,1.4-1.7,2.3-2.3c0.7-0.5,1.5-1,2.3-1.3C59.2,112.3,59.3,112.2,59.4,112.2L59.4,112.2z M56.8,113.6
	C56.8,113.6,56.8,113.6,56.8,113.6C56.8,113.6,56.8,113.6,56.8,113.6L56.8,113.6z M52.5,120.2C52.5,120.2,52.5,120.2,52.5,120.2
	C52.5,120.2,52.5,120.2,52.5,120.2L52.5,120.2z M52.5,120.3C52.5,120.3,52.5,120.4,52.5,120.3C52.5,120.4,52.5,120.3,52.5,120.3
	L52.5,120.3z M52.6,122.1C52.6,122.1,52.6,122.2,52.6,122.1C52.6,122.2,52.6,122.1,52.6,122.1L52.6,122.1z M56.1,124.7
	c0,0,0.1,0,0.1,0C56.2,124.7,56.2,124.7,56.1,124.7L56.1,124.7z M52.9,118.5C52.9,118.5,52.9,118.5,52.9,118.5
	C52.9,118.5,52.9,118.5,52.9,118.5C52.9,118.5,52.9,118.5,52.9,118.5L52.9,118.5z"/>
<path class="st0" d="M95.1,61.7c-0.3,0.1-0.6,0.3-0.8,0.6c-0.3,0.6-0.2,1.4,0.5,1.7c5.9,2.9,11.8,5.8,17.6,8.9c1,0.5,2,1,3,1.7
	c0.1,0.6,0.6,1,1.2,1c0.3,0,0.6-0.1,0.9-0.4c0.2-0.2,0.3-0.5,0.4-0.9c0-0.2,0-0.5,0-0.7c-0.1-0.3-0.2-0.5-0.4-0.7
	c-0.3-0.3-0.6-0.5-0.9-0.8c-0.5-0.4-1-0.6-1.6-0.9c-0.8-0.4-1.5-0.8-2.3-1.3c-1.2-0.7-2.5-1.3-3.7-1.9c-2.6-1.3-5.2-2.6-7.8-3.9
	c-1.7-0.8-3.3-1.6-5-2.4c-0.2-0.1-0.4-0.2-0.7-0.2C95.4,61.7,95.3,61.7,95.1,61.7L95.1,61.7z M115.4,74.6
	C115.4,74.6,115.4,74.6,115.4,74.6C115.4,74.6,115.4,74.6,115.4,74.6C115.4,74.6,115.4,74.6,115.4,74.6L115.4,74.6z"/>
<path class="st0" d="M114.7,73c-0.8,0.1-1.6,0.2-2.5,0.4c-2.1-0.1-4.2,0.5-6.1,1.5c-0.9,0.5-1.8,1.1-2.4,1.9
	c-0.3,0.4-0.6,0.8-0.8,1.2c-0.2,0.5-0.4,1-0.5,1.5c-0.1,0.5,0,0.9,0.1,1.4c0.2,0.5,0.4,1,0.7,1.4c0.3,0.4,0.6,0.8,0.9,1.1
	c0.4,0.3,0.8,0.6,1.3,0.9c0.4,0.2,0.9,0.4,1.4,0.6c0.5,0.2,1,0.3,1.5,0.5c1.1,0.3,2.3,0.4,3.4,0.4c2.3,0,4.6-0.5,6.8-1.2
	c0.5-0.2,1-0.4,1.5-0.6c0.5-0.2,1-0.6,1.4-0.9c0.4-0.3,0.7-0.7,1-1c0.2-0.2,0.3-0.4,0.5-0.7c0.2-0.3,0.3-0.6,0.3-0.9
	c0.1-0.5,0.2-1,0.2-1.5c0-0.5-0.1-1.1-0.3-1.6c-0.4-1.1-1.2-2-2-2.6c-0.3-0.2-0.6-0.4-0.9-0.6c-0.4-0.2-0.7-0.4-1.1-0.5
	c-0.7-0.3-1.5-0.4-2.2-0.5c-0.3,0-0.6,0-0.8,0C115.7,72.9,115.2,73,114.7,73L114.7,73z M115.5,75.1c0.2,0,0.3,0,0.5,0
	c0.2,0.1,0.5,0.2,0.7,0.4c0.3,0.2,0.6,0.4,0.8,0.6c0.1,0.1,0.2,0.2,0.3,0.2c0.2,0.1,0.4,0.2,0.6,0c0.1-0.1,0.2-0.4,0-0.6
	c-0.2-0.1-0.4-0.3-0.5-0.4c0.3,0.1,0.6,0.2,0.9,0.3c0.4,0.2,0.8,0.4,1.1,0.6c0.4,0.3,0.7,0.6,1,1c0.2,0.2,0.3,0.4,0.4,0.7
	c0.1,0.2,0.1,0.4,0.2,0.7c0,0.3,0,0.7,0,1c0,0.2-0.1,0.4-0.2,0.7c-0.1,0.2-0.2,0.4-0.4,0.6c-0.3,0.4-0.7,0.7-1.1,1.1
	c-0.4,0.3-0.9,0.6-1.4,0.8c-0.7,0.3-1.5,0.5-2.2,0.8c-0.9,0.2-1.7,0.4-2.6,0.6c-1.4,0.2-2.8,0.2-4.2,0c-1-0.1-2-0.4-3-0.8
	c-0.5-0.2-0.9-0.4-1.3-0.8c-0.3-0.3-0.6-0.5-0.8-0.9c-0.2-0.3-0.4-0.6-0.6-1c-0.1-0.2-0.1-0.4-0.2-0.6c0-0.1,0-0.3,0-0.4
	c0.1-0.3,0.1-0.6,0.2-0.9c0.2-0.5,0.5-0.9,0.8-1.3c0.3-0.4,0.7-0.8,1.1-1.1c0,0,0,0,0,0c0,0,0,0,0,0c0,0,0.1,0,0.1-0.1
	c0,0,0,0-0.1,0c0.5-0.4,1-0.7,1.5-0.9c0,0.1,0,0.1,0,0.2c0.2,0.5,0.7,0.9,1.3,0.7c0.8-0.2,1.5-0.4,2.3-0.5c0.4-0.1,0.8-0.2,1.3-0.2
	c0.7-0.1,1.3-0.3,2-0.3C114.5,75.1,115,75.1,115.5,75.1L115.5,75.1z M114.3,75.2c0,0-0.1,0-0.1,0C114.2,75.2,114.2,75.2,114.3,75.2
	L114.3,75.2z M104.4,81.6C104.4,81.7,104.4,81.7,104.4,81.6C104.4,81.7,104.4,81.7,104.4,81.6L104.4,81.6z M105.2,82.5
	C105.2,82.5,105.3,82.5,105.2,82.5C105.3,82.5,105.2,82.5,105.2,82.5L105.2,82.5z M106.4,83.2c0,0,0.1,0,0.1,0
	C106.4,83.2,106.4,83.2,106.4,83.2L106.4,83.2z M105.7,76.3C105.7,76.3,105.7,76.3,105.7,76.3C105.7,76.3,105.7,76.3,105.7,76.3
	C105.7,76.3,105.7,76.3,105.7,76.3L105.7,76.3z"/>
<path class="st0" d="M106.3,85.7c-2.2,3.6-4.5,7.2-6.7,10.9c-1.5,2.5-3.2,4.9-4.7,7.3c-0.9,1.5-1.9,3-2.8,4.5
	c-0.4,0.6-0.1,1.4,0.5,1.8c0.3,0.2,0.7,0.2,1,0.1c0.4-0.1,0.6-0.3,0.8-0.6c3.9-5.1,7.3-10.5,10.6-16c1.3-2.1,2.6-4.3,3.9-6.4
	c0.4-0.7,0.2-1.7-0.5-2.1c-0.2-0.1-0.5-0.2-0.8-0.2C107.1,84.9,106.6,85.2,106.3,85.7L106.3,85.7z"/>
<path class="st0" d="M92.4,110.9c-0.3,0.2-0.4,0.4-0.5,0.7c-0.3,0.7,0.1,1.4,0.8,1.8c0.2,0.1,0.5,0.2,0.7,0.4
	c-0.3,0.1-0.6,0.2-0.9,0.3c-0.9,0.4-1.7,0.8-2.5,1.3c-0.7,0.5-1.4,1.1-2,1.7c-0.6,0.6-1.2,1.2-1.7,1.9c-0.2,0.3-0.4,0.7-0.5,1
	c-0.1,0.4-0.1,0.8,0,1.2c0.1,0.4,0.3,0.7,0.4,1.1c0.2,0.4,0.5,0.8,0.8,1.1c1.1,1.2,2.9,1.5,4.4,1.5c0.8,0,1.7-0.1,2.5-0.2
	c1-0.2,1.9-0.6,2.8-1c0.8-0.4,1.5-0.9,2.1-1.4c0.7-0.6,1.3-1.3,1.7-2.1c0.3-0.8,0.3-1.8,0.1-2.6c-0.1-0.4-0.3-0.9-0.5-1.2
	c-0.2-0.5-0.6-0.9-0.9-1.3c-0.3-0.3-0.5-0.6-0.8-0.9c-0.3-0.3-0.7-0.6-1-0.8c-0.7-0.5-1.4-0.9-2.1-1.3c-0.4-0.2-0.9-0.4-1.3-0.6
	c0,0,0,0,0,0c-0.2-0.3-0.4-0.4-0.7-0.5c-0.1,0-0.2,0-0.3,0C92.7,110.8,92.5,110.8,92.4,110.9L92.4,110.9z M94.3,115.9
	c0.4-0.1,0.8-0.2,1.3-0.3c0.2,0,0.3-0.1,0.5-0.2c0.1,0,0.1,0.1,0.2,0.1c0.4,0.3,0.8,0.7,1.1,1.1c0.2,0.3,0.5,0.7,0.6,1
	c0.1,0.2,0.1,0.4,0.2,0.6c0,0.2,0,0.4,0,0.7c0,0.1-0.1,0.2-0.1,0.3c0,0.1-0.1,0.2-0.2,0.3c-0.3,0.4-0.7,0.7-1.1,1.1
	c-0.6,0.4-1.2,0.8-1.9,1.1c-0.7,0.3-1.4,0.5-2.2,0.6c-0.8,0.1-1.6,0.1-2.4,0c-0.3-0.1-0.7-0.1-1-0.3c-0.1-0.1-0.2-0.1-0.4-0.2
	c-0.1-0.1-0.3-0.2-0.4-0.4c-0.1-0.2-0.3-0.4-0.4-0.6c0-0.1-0.1-0.2-0.1-0.3c0,0,0,0,0,0c0.1-0.1,0.1-0.2,0.2-0.3
	c0.4-0.4,0.8-0.8,1.2-1.3c0.4-0.5,0.9-0.9,1.4-1.3c0.7-0.5,1.5-1,2.3-1.3C93.5,116.2,93.9,116.1,94.3,115.9L94.3,115.9z M93.4,116.3
	c0,0-0.1,0-0.1,0C93.3,116.3,93.3,116.3,93.4,116.3L93.4,116.3z M88.2,120.3C88.2,120.4,88.2,120.4,88.2,120.3
	C88.2,120.4,88.2,120.4,88.2,120.3L88.2,120.3z M90.1,122.3C90.1,122.3,90.1,122.3,90.1,122.3C90.1,122.3,90.1,122.3,90.1,122.3
	L90.1,122.3z"/>
<path class="st0" d="M120.7,84c-0.8,0.5-1,1.5-0.6,2.3c1.9,3.5,3.7,7,5.6,10.5c1.6,3,3.2,5.9,4.7,8.9c0.4,0.8,1.5,1,2.2,0.6
	c0.4-0.2,0.6-0.5,0.7-0.9c0.1-0.4,0-0.8-0.2-1.2c-0.7-1.6-1.5-3.1-2.3-4.7c-0.7-1.4-1.5-2.9-2.2-4.3c-1.8-3.5-3.7-7-5.6-10.5
	c-0.3-0.5-0.9-0.8-1.5-0.8C121.3,83.8,121,83.9,120.7,84L120.7,84z"/>
<path class="st0" d="M134.1,107.3c-0.5,0-0.9,0.1-1.4,0.2c-0.5,0.1-1,0.4-1.5,0.6c-0.8,0.4-1.5,1-2.2,1.6c-0.7,0.6-1.4,1.3-2,2.1
	c-0.6,0.7-1.1,1.5-1.5,2.4c-0.2,0.4-0.3,0.9-0.4,1.3c-0.1,0.5-0.2,1-0.2,1.5c0,0.9,0.1,1.8,0.4,2.6c0.3,1,0.9,1.8,1.6,2.5
	c1.2,1.4,3,2.3,4.8,2.6c1.9,0.4,3.9,0,5.6-0.8c0.8-0.4,1.6-1,2.3-1.6c0.8-0.6,1.4-1.4,2-2.2c0.5-0.7,1.1-1.5,1.4-2.4
	c0.2-0.5,0.3-0.9,0.3-1.4c0.1-0.6,0-1.1-0.1-1.6c-0.1-0.5-0.3-1-0.5-1.4c-0.2-0.4-0.5-0.8-0.9-1.2c-0.3-0.3-0.6-0.6-1-0.9
	c-0.4-0.3-0.8-0.6-1.2-0.8c-0.8-0.5-1.6-0.9-2.5-1.2c0.1-0.2,0.1-0.5,0-0.7c-0.1-0.3-0.3-0.6-0.5-0.7c-0.2-0.1-0.4-0.2-0.6-0.3
	c-0.2-0.1-0.5-0.1-0.7-0.1c-0.3,0-0.5,0-0.8,0C134.4,107.3,134.3,107.3,134.1,107.3L134.1,107.3z M134.3,109.6
	C134.3,109.6,134.3,109.6,134.3,109.6c-0.1,0.4-0.1,0.7,0.1,1.1c0.2,0.3,0.5,0.5,0.8,0.6c0.2,0.1,0.4,0.1,0.6,0.2
	c1.1,0.5,2.2,1,3.2,1.8c0.3,0.2,0.6,0.5,0.8,0.8c0.2,0.3,0.4,0.6,0.5,0.9c0.1,0.2,0.1,0.3,0.1,0.5c0,0.2,0,0.4,0,0.7
	c0,0.3-0.1,0.5-0.2,0.7c-0.4,0.8-0.9,1.5-1.4,2.2c-0.5,0.7-1.2,1.3-1.8,1.8c-0.4,0.3-0.9,0.6-1.4,0.9c-0.6,0.2-1.2,0.4-1.8,0.5
	c-0.5,0-1,0.1-1.5,0c-0.6-0.1-1.2-0.3-1.7-0.5c-0.5-0.2-0.9-0.5-1.3-0.8c-0.4-0.3-0.8-0.7-1.2-1.2c-0.2-0.3-0.4-0.6-0.5-0.9
	c-0.1-0.4-0.2-0.8-0.3-1.2c0-0.5-0.1-1,0-1.5c0.1-0.4,0.2-0.8,0.3-1.2c0.3-0.7,0.7-1.3,1.2-1.9c0.7-0.8,1.4-1.5,2.2-2.2
	c0.5-0.4,1.1-0.8,1.7-1c0.3-0.1,0.7-0.2,1-0.3C134,109.6,134.2,109.6,134.3,109.6L134.3,109.6z"/>
<path class="st0" d="M136.8,22c-0.2,0.4-0.3,0.8-0.2,1.3c0.1,0.4,0.4,0.7,0.7,1c4.2,2.8,8.4,5.6,12.6,8.4c1.4,0.9,2.8,1.8,4.2,2.6
	c0.7,0.4,1.3,0.8,2,1.2c0.7,0.4,1.4,0.8,2.1,1.2c1.1,0.6,2.1,1.2,3.1,1.8c1.1,0.6,2.2,1.2,3.2,1.8c1,0.5,1.9,1,2.9,1.5
	c0.4,0.2,0.8,0.5,1.3,0.7c0.8,0.4,1.6,0.8,2.3,1.3c0.2,0.2,0.5,0.4,0.7,0.7c0.5,0.5,1.3,0.6,1.9,0.2c0.3-0.2,0.6-0.5,0.7-0.9
	c0.1-0.4,0.1-0.9-0.2-1.2c-0.3-0.4-0.6-0.9-1-1.2c-0.4-0.4-0.9-0.7-1.4-1c-0.5-0.3-1-0.6-1.6-0.9c-0.8-0.4-1.6-0.9-2.4-1.3
	c-1.6-0.8-3.1-1.7-4.7-2.5c-1.7-0.9-3.3-1.9-4.9-2.8c-0.4-0.2-0.8-0.5-1.3-0.8c-1.1-0.7-2.1-1.3-3.2-2c-0.7-0.4-1.4-0.8-2.1-1.3
	c-1.1-0.7-2.3-1.5-3.4-2.2c-3.1-2-6.2-4.1-9.2-6.1c-0.2-0.2-0.5-0.2-0.8-0.2C137.6,21.2,137.1,21.5,136.8,22L136.8,22z"/>
<path class="st0" d="M181.5,44.9c-0.8,0.1-1.7,0.2-2.5,0.4c-0.7,0.2-1.5,0.3-2.2,0.5c-0.7,0.2-1.5,0.5-2.2,0.7
	c-1.9,0.6-3.7,1.1-5.5,2c-0.5,0.3-0.7,1-0.4,1.5c0.1,0.2,0.4,0.4,0.6,0.5c0.3,0.1,0.6,0,0.8-0.1c0,0,0.1,0,0.1,0
	c-0.3,0.4-0.5,0.8-0.7,1.2c-0.6,1.2-1,2.6-0.9,3.9c0.1,1.3,0.6,2.7,1.5,3.7c0.8,1,2,1.7,3.2,2.2c0.6,0.3,1.2,0.5,1.9,0.7
	c0.8,0.2,1.6,0.3,2.3,0.4c1.5,0.2,3,0,4.5-0.3c2.9-0.6,5.6-2.3,7.5-4.6c1-1.1,1.8-2.4,2-3.9c0.2-1.5,0-3-0.6-4.3
	c-0.3-0.6-0.8-1.2-1.3-1.7c-0.5-0.5-1.2-1-1.8-1.4c-0.6-0.4-1.3-0.6-1.9-0.8c-0.7-0.2-1.5-0.4-2.3-0.4c-0.4-0.1-0.9-0.1-1.3-0.1
	C182.1,44.9,181.8,44.9,181.5,44.9L181.5,44.9z M182.3,47.3c0.4,0,0.9,0,1.3,0.1c0.8,0.1,1.6,0.3,2.3,0.6c0.5,0.2,1,0.5,1.4,0.8
	c0.4,0.3,0.8,0.7,1.2,1.1c0.2,0.3,0.4,0.5,0.5,0.8c0.1,0.3,0.2,0.7,0.3,1c0,0.5,0,1,0,1.4c-0.1,0.3-0.1,0.6-0.3,1
	c-0.3,0.5-0.6,1-0.9,1.5c-0.7,0.8-1.4,1.6-2.3,2.3c-0.8,0.6-1.6,1.1-2.5,1.5c-1,0.4-2,0.7-3,0.8c-1.1,0.1-2.2,0.1-3.2,0
	c-1.1-0.2-2.1-0.5-3.1-0.9c-0.6-0.3-1.2-0.6-1.8-1c-0.3-0.2-0.5-0.4-0.7-0.7c-0.2-0.3-0.4-0.7-0.6-1.1c-0.2-0.4-0.3-0.9-0.4-1.3
	c0-0.3,0-0.7,0-1c0.1-0.6,0.3-1.1,0.5-1.6c0.3-0.7,0.7-1.3,1.1-1.9c0.4-0.5,0.9-1,1.5-1.5c0.1,0,0.1-0.1,0.2-0.1c0,0,0,0,0,0
	c0.8-0.2,1.5-0.4,2.3-0.7c0.8-0.2,1.5-0.5,2.3-0.6c0.3,0,0.6,0,0.9,0.1c0.2,0,0.4,0.1,0.7,0.1c0.2,0,0.4,0,0.6-0.1
	c0.2-0.1,0.3-0.3,0.4-0.5c0,0,0-0.1,0-0.1c0,0,0.1,0,0.1,0C181.4,47.3,181.8,47.3,182.3,47.3L182.3,47.3z M173.6,49.2
	C173.6,49.2,173.6,49.3,173.6,49.2C173.6,49.3,173.6,49.2,173.6,49.2L173.6,49.2z M188.5,50C188.5,50.1,188.6,50.1,188.5,50
	C188.6,50.1,188.5,50.1,188.5,50L188.5,50z M170.5,54.1C170.5,54.1,170.5,54.1,170.5,54.1C170.5,54.1,170.5,54.1,170.5,54.1
	L170.5,54.1z M170.9,56.8C170.9,56.8,170.9,56.8,170.9,56.8C170.9,56.8,170.9,56.8,170.9,56.8L170.9,56.8z M173.7,59.3
	c0.1,0,0.1,0,0.2,0.1C173.8,59.4,173.8,59.3,173.7,59.3L173.7,59.3z M180.4,60.3C180.4,60.3,180.3,60.3,180.4,60.3
	C180.3,60.3,180.4,60.3,180.4,60.3L180.4,60.3z"/>
<path class="st0" d="M172.7,62.5c-1.9,1.4-3.8,2.7-5.7,4.1c-1.8,1.3-3.7,2.5-5.4,4c-0.4,0.4-0.5,1.1-0.2,1.5
	c0.3,0.6,1.2,0.8,1.7,0.4c3.6-2.6,7.3-5.2,10.9-7.7c0.3-0.2,0.5-0.4,0.6-0.8c0.1-0.3,0-0.7-0.1-1c-0.2-0.3-0.5-0.5-0.8-0.6
	c-0.1,0-0.2,0-0.4,0C173.1,62.3,172.8,62.4,172.7,62.5L172.7,62.5z"/>
<path class="st0" d="M156.9,74c-0.1,0.2-0.1,0.4,0,0.6c-1,0-2,0.1-3,0.3c-0.7,0.1-1.4,0.3-2.1,0.6c-0.7,0.2-1.4,0.6-2.1,0.9
	c-0.5,0.3-1,0.5-1.5,0.9c-0.3,0.2-0.5,0.4-0.7,0.7c-0.2,0.3-0.3,0.5-0.4,0.8c-0.2,0.6-0.1,1.2-0.1,1.8c0.1,0.6,0.4,1.2,0.9,1.6
	c0.4,0.4,1,0.7,1.5,1c0.6,0.3,1.2,0.5,1.9,0.7c0.7,0.2,1.4,0.3,2.2,0.4c0.8,0.1,1.5,0.1,2.3,0.1c1.5,0,3-0.2,4.4-0.7
	c1.2-0.4,2.4-1.1,3.2-2.1c0.4-0.5,0.7-1.1,0.8-1.7c0.1-0.7,0.1-1.4-0.1-2c-0.2-0.5-0.5-1-0.8-1.4c0-0.1,0.1-0.1,0.1-0.2
	c0.1-0.4-0.1-0.8-0.5-0.9c-0.3-0.1-0.6-0.2-0.9-0.2c-0.1-0.1-0.2-0.2-0.3-0.3c-0.5-0.4-1-0.9-1.6-1.2c-0.3-0.2-0.7-0.3-1-0.5
	c-0.3-0.1-0.7-0.2-1-0.2c0,0-0.1,0-0.1,0C157.4,73.1,157,73.6,156.9,74L156.9,74z M159.1,76.2c0.1,0.1,0.3,0.2,0.4,0.3
	c0.3,0.3,0.7,0.6,1,0.9c0.3,0.3,0.6,0.6,0.9,0.9c0.1,0.2,0.3,0.4,0.4,0.6c0,0.1,0,0.2,0.1,0.2c0,0.2,0,0.3,0,0.5
	c0,0.1-0.1,0.3-0.1,0.4c-0.1,0.1-0.1,0.2-0.2,0.3c-0.2,0.2-0.4,0.5-0.7,0.7c-0.4,0.3-0.8,0.5-1.2,0.7c-0.9,0.3-1.8,0.6-2.7,0.7
	c-1.3,0.2-2.7,0.2-4,0c-0.9-0.1-1.8-0.4-2.7-0.8c-0.4-0.2-0.7-0.3-1-0.6c-0.1-0.1-0.2-0.2-0.3-0.3c0-0.1-0.1-0.1-0.1-0.2
	c-0.1-0.2-0.1-0.3-0.1-0.5c0-0.2,0-0.4,0-0.6c0-0.1,0-0.2,0.1-0.3c0-0.1,0.1-0.1,0.1-0.2c0.1-0.1,0.2-0.3,0.4-0.4
	c0.3-0.2,0.7-0.4,1-0.6c0.4-0.2,0.9-0.5,1.3-0.7c1.1-0.5,2.3-0.8,3.6-1C156.6,76.1,157.9,76,159.1,76.2L159.1,76.2z"/>
<path class="st0" d="M187.2,61.2c-0.4,0.1-0.7,0.4-0.9,0.7c-0.2,0.3-0.3,0.8-0.2,1.2c0.1,0.3,0.4,0.7,0.7,0.9c1.5,0.7,3,1.4,4.5,2
	c-0.1,0-0.2-0.1-0.4-0.2c1.8,0.7,3.5,1.5,5.3,2.2c1,0.4,2,0.8,3,1.3c0.5,0.2,0.9,0.4,1.4,0.6c1.9,0.7,3.8,1.4,5.6,2.1
	c1.4,0.5,2.9,1,4.3,1.5c1.4,0.5,2.9,1,4.3,1.5c0.7,0.2,1.4,0.4,2,0.7c0.8,0.3,1.7,0.5,2.5,0.6c0.6,0.1,1.3-0.5,1.4-1.1
	c0.2-0.8-0.3-1.6-1-1.8c-3.2-1-6.3-2.1-9.4-3.1c-3-1-6-2.1-9-3.2c-3.1-1.3-6.2-2.6-9.4-3.9c0.1,0,0.2,0.1,0.4,0.2
	c-1.4-0.6-2.7-1.2-4.1-1.8c-0.3-0.1-0.5-0.2-0.8-0.2C187.4,61.2,187.3,61.2,187.2,61.2L187.2,61.2z"/>
<path class="st0" d="M215.5,73c-0.1,0-0.2,0-0.2,0c-0.4,0-0.7,0-1.1,0c-1.8,0-3.6,0-5.5,0.3c-0.3,0-0.6,0.3-0.7,0.5
	c-0.2,0.3-0.2,0.6-0.1,0.9c0.1,0.3,0.3,0.5,0.5,0.7c0.1,0,0.2,0.1,0.3,0.1c0.2,0.1,0.4,0.1,0.6,0c0,0,0.1,0,0.1,0
	c0.5-0.1,1.1-0.1,1.7-0.1c-0.3,0.4-0.6,0.7-0.8,1.2c-0.1,0.3-0.3,0.7-0.3,1c-0.1,0.4-0.1,0.9,0,1.3c0.1,0.7,0.4,1.3,0.7,1.9
	c0.4,0.7,1,1.2,1.7,1.7c1.3,0.9,2.9,1.3,4.4,1.5c1.6,0.2,3.2,0,4.8-0.4c0.8-0.2,1.5-0.5,2.2-0.8c0.3-0.2,0.6-0.3,0.9-0.5
	c0.4-0.2,0.7-0.5,1-0.8c0.5-0.6,0.8-1.4,0.8-2.2c0.1-0.8-0.2-1.6-0.6-2.3c-0.3-0.5-0.6-0.9-1-1.3c-0.4-0.4-0.8-0.8-1.3-1.1
	c-0.4-0.3-0.9-0.5-1.4-0.8c-0.5-0.2-1.1-0.4-1.6-0.6c-0.3-0.1-0.5-0.1-0.8-0.1c-0.2-0.1-0.4-0.1-0.5-0.2c-0.4-0.1-0.7-0.2-1.1-0.2
	c-0.3,0-0.6-0.1-1-0.1C216.5,72.9,216,72.9,215.5,73L215.5,73z M214.4,75.5c0.8,0,1.6,0,2.3,0c0.7,0,1.4,0.1,2.2,0.2
	c0.7,0.1,1.3,0.3,2,0.5c0.5,0.2,1,0.5,1.4,0.8c0.4,0.3,0.7,0.6,1,1c0.2,0.2,0.3,0.5,0.4,0.7c0,0.1,0.1,0.2,0.1,0.4
	c0,0.1,0,0.2,0,0.3c0,0.2-0.1,0.3-0.1,0.4c0,0.1-0.1,0.2-0.1,0.2c-0.1,0.1-0.2,0.2-0.3,0.3c-0.4,0.3-0.9,0.6-1.4,0.8
	c-0.9,0.3-1.8,0.6-2.7,0.7c-1,0.1-2,0.1-3,0c-0.6-0.1-1.2-0.2-1.8-0.5c-0.5-0.2-0.9-0.5-1.3-0.8c-0.2-0.2-0.5-0.4-0.7-0.7
	c-0.2-0.2-0.3-0.4-0.4-0.7c-0.1-0.2-0.2-0.5-0.2-0.7c0-0.2,0-0.3,0-0.4c0-0.2,0.1-0.5,0.2-0.7c0.1-0.2,0.2-0.3,0.3-0.5
	c0.4-0.5,0.9-1,1.5-1.4c0,0,0,0,0.1,0C214,75.5,214.2,75.5,214.4,75.5L214.4,75.5z M218.6,75.6c0,0,0.1,0,0.1,0
	C218.7,75.7,218.7,75.7,218.6,75.6L218.6,75.6z M216,81.8C216,81.8,216,81.8,216,81.8C216,81.8,216,81.8,216,81.8L216,81.8z"/>
<path class="st0" d="M155.3,86c-0.2,5.5-0.4,11.1-0.8,16.6c0,0.6,0.5,1.2,1.1,1.4c0.4,0.1,0.8,0,1.1-0.1c0.3-0.2,0.6-0.5,0.7-0.9
	c0.4-2.6,0.6-5.3,0.8-7.9c0.2-3,0.3-6,0.4-9c0-0.9-0.8-1.6-1.6-1.6C156,84.4,155.4,85.1,155.3,86L155.3,86z"/>
<path class="st0" d="M153,107.2c-0.3,0.3-0.6,0.7-0.9,1.1c-0.2,0.3-0.5,0.7-0.7,1c-0.6,0.9-1,1.9-1.3,2.9c-0.3,0.9-0.5,1.9-0.6,2.9
	c-0.1,1.1-0.1,2.2,0.2,3.2c0.3,1,0.8,1.8,1.4,2.6c0.6,0.8,1.5,1.4,2.4,1.9c1.8,1,4,1.3,5.9,0.5c0.9-0.4,1.7-0.9,2.4-1.7
	c0.7-0.8,1.2-1.8,1.4-2.8c0.1-0.5,0.2-1.1,0.2-1.6c0-0.5,0-1.1-0.1-1.6c-0.2-1.1-0.6-2.1-1.1-3.1c-0.4-0.9-1.1-1.6-1.7-2.4
	c-0.4-0.5-0.8-1-1.3-1.4c0,0,0-0.1,0-0.1c0-0.3-0.1-0.7-0.4-0.9c-0.2-0.2-0.5-0.4-0.7-0.6c-0.3-0.3-0.7-0.5-1-0.7
	c-0.4-0.2-0.8-0.4-1.3-0.5c-0.2,0-0.3,0-0.5,0C154.4,106.1,153.6,106.6,153,107.2L153,107.2z M158.1,107.4
	C158.1,107.4,158.1,107.4,158.1,107.4C158.1,107.4,158.1,107.4,158.1,107.4L158.1,107.4z M155.5,108.6c0,0-0.1,0-0.1,0
	C155.4,108.6,155.5,108.6,155.5,108.6L155.5,108.6z M155.3,108.7c0.1,0,0.2,0.1,0.3,0.1c0,0.3,0.1,0.6,0.4,0.8
	c0.8,0.8,1.5,1.5,2.2,2.4c0.3,0.5,0.7,0.9,1,1.4c0.3,0.5,0.6,1,0.8,1.5c0.2,0.5,0.3,1,0.4,1.5c0,0.5,0.1,1,0,1.5
	c-0.1,0.3-0.2,0.7-0.3,1c-0.2,0.3-0.3,0.6-0.5,0.9c-0.2,0.2-0.3,0.3-0.5,0.5c-0.3,0.2-0.5,0.3-0.8,0.5c-0.3,0.1-0.5,0.2-0.8,0.2
	c-0.4,0-0.7,0-1.1,0c-0.4-0.1-0.9-0.2-1.3-0.4c-0.4-0.2-0.9-0.5-1.3-0.7c-0.3-0.3-0.6-0.6-0.9-0.9c-0.3-0.4-0.5-0.7-0.7-1.1
	c-0.1-0.3-0.2-0.6-0.2-0.9c0-0.6,0-1.1,0-1.7c0.2-1.1,0.5-2.2,0.9-3.2c0.4-0.8,0.9-1.6,1.4-2.4c0.2-0.3,0.4-0.5,0.7-0.7
	C155.1,108.8,155.2,108.7,155.3,108.7L155.3,108.7z"/>
<path class="st0" d="M162.7,81c-0.4,0.1-0.8,0.4-1,0.8c-0.2,0.4-0.3,0.9-0.2,1.3c0.5,1.5,1.1,2.9,1.6,4.4c0.4,1.1,0.9,2.1,1.3,3.2
	c0.6,1.6,1.3,3.2,2,4.8c0.8,1.8,1.6,3.5,2.5,5.3c0.8,1.7,1.6,3.5,2.7,5.1c0.1,0.1,0.1,0.2,0.2,0.2c0.4,0.7,1.4,1,2.1,0.5
	c0.3-0.2,0.6-0.5,0.7-0.9c0.1-0.4,0-0.8-0.2-1.2c-1-2.1-1.9-4.2-2.9-6.3c-0.8-1.7-1.6-3.5-2.3-5.2c-0.6-1.4-1.1-2.9-1.7-4.3
	c-0.9-2.2-1.7-4.3-2.5-6.5c-0.2-0.4-0.4-0.8-0.8-1c-0.3-0.2-0.6-0.2-0.9-0.2C163.1,80.9,162.9,80.9,162.7,81L162.7,81z"/>
<path class="st0" d="M177,106.4c-0.8,0.1-1.4,0.8-1.9,1.4c-0.5,0.7-1,1.4-1.4,2.2c-0.8,1.6-1.3,3.5-1.3,5.3c0,0.9,0.2,1.8,0.6,2.7
	c0.2,0.4,0.4,0.9,0.6,1.3c0.3,0.4,0.6,0.8,0.9,1.2c0.2,0.3,0.4,0.5,0.6,0.8c0.3,0.3,0.6,0.6,1,0.8c0.4,0.2,0.8,0.4,1.2,0.5
	c0.5,0.1,1,0.1,1.4,0c0.2-0.1,0.5-0.2,0.7-0.3c0.2-0.1,0.4-0.2,0.5-0.3c0.4-0.2,0.7-0.5,1-0.8c0.6-0.7,1-1.5,1.3-2.4
	c0.2-0.5,0.2-0.9,0.3-1.4c0.1-0.4,0.1-0.9,0.1-1.3c0-1-0.3-2-0.6-2.9c-0.4-1-0.9-1.8-1.6-2.6c-0.2-0.2-0.3-0.4-0.5-0.6
	c0.4,0,0.7-0.3,0.9-0.6c0.2-0.3,0.2-0.6,0.1-0.9c-0.1-0.3-0.3-0.5-0.5-0.7c-0.3-0.2-0.5-0.4-0.8-0.6c-0.2-0.1-0.3-0.2-0.5-0.3
	c-0.2-0.1-0.4-0.2-0.6-0.3c-0.3-0.1-0.6-0.1-0.8-0.1C177.3,106.4,177.1,106.4,177,106.4L177,106.4z M178.4,108.7
	c0,0,0.1,0.1,0.1,0.1C178.5,108.8,178.5,108.7,178.4,108.7L178.4,108.7z M176.3,110.1c0.1,0.1,0.2,0.3,0.3,0.4
	c0.6,0.5,1.1,1.1,1.6,1.7c0.4,0.5,0.7,1.1,1,1.6c0.2,0.5,0.4,1.1,0.4,1.6c0,0.5,0,1,0,1.6c-0.1,0.4-0.2,0.9-0.4,1.3
	c-0.1,0.3-0.3,0.5-0.4,0.8c-0.1,0.1-0.2,0.2-0.4,0.4c-0.1,0.1-0.3,0.2-0.4,0.3c-0.1,0-0.2,0.1-0.3,0.1c0,0,0,0,0,0
	c-0.1,0-0.2-0.1-0.4-0.1c-0.1,0-0.2-0.1-0.3-0.2c-0.2-0.2-0.3-0.3-0.5-0.5c-0.2-0.3-0.5-0.6-0.7-0.8c-0.3-0.4-0.5-0.8-0.7-1.2
	c-0.2-0.4-0.3-0.9-0.4-1.3c0-0.5,0-1.1,0-1.6c0.1-0.9,0.4-1.7,0.7-2.5C175.8,111,176,110.5,176.3,110.1L176.3,110.1z"/>
<path class="st0" d="M215.8,82.4c-0.4,0.2-0.6,0.6-0.8,1c-1.3,3.7-2.6,7.5-3.8,11.2c-1,3.2-2,6.4-2.6,9.7c-0.1,0.4-0.1,0.8,0.2,1.2
	c0.2,0.3,0.5,0.6,0.9,0.7c0.8,0.2,1.7-0.3,1.9-1.1c0.8-3.3,1.9-6.5,3-9.6c1.2-3.7,2.5-7.5,3.8-11.2c0.3-0.9-0.3-1.9-1.2-2.1
	c-0.1,0-0.3-0.1-0.5-0.1C216.3,82.2,216,82.3,215.8,82.4L215.8,82.4z"/>
<path class="st0" d="M209.9,107.1c-0.5,0.1-1,0.2-1.4,0.3c-0.5,0.2-0.9,0.4-1.3,0.7c-0.1,0.1-0.2,0.2-0.4,0.2c-0.2,0-0.4,0-0.5,0
	c-0.3,0-0.6,0.1-0.9,0.3c-0.2,0.1-0.4,0.3-0.5,0.4c-0.3,0.3-0.4,0.7-0.4,1.1c0,0.1,0,0.3,0.1,0.4c-0.5,0.6-0.9,1.2-1.3,1.8
	c-0.5,0.8-0.8,1.6-1.2,2.5c-0.4,0.9-0.6,1.8-0.8,2.8c-0.3,2,0,4.1,1,5.9c0.5,0.8,1.3,1.3,2.2,1.4c0.6,0.1,1,0.1,1.6,0
	c0.3-0.1,0.5-0.2,0.8-0.3c0.2-0.1,0.4-0.2,0.6-0.3c1.7-1,2.7-2.9,3.3-4.7c0.1-0.5,0.2-1,0.3-1.4c0.1-0.5,0.1-1.1,0.1-1.6
	c0-0.6-0.1-1.1-0.2-1.7c-0.1-0.5-0.3-1-0.5-1.5c-0.4-0.9-1-1.7-1.6-2.4c-0.1-0.1-0.1-0.2-0.2-0.3c0.1-0.2,0.2-0.3,0.3-0.5
	c0.2-0.1,0.4-0.2,0.6-0.3c0.2-0.1,0.4-0.1,0.7-0.2c0.4,0,0.9,0,1.3,0c0.1,0,0.2,0.1,0.4,0.1c0.7,0.2,1.4-0.2,1.6-0.9
	c0.2-0.7-0.2-1.4-0.9-1.6c-0.5-0.2-1.1-0.2-1.7-0.2C210.5,107.1,210.2,107.1,209.9,107.1L209.9,107.1z M206.2,112.6
	c0.2,0.2,0.4,0.4,0.6,0.7c0.3,0.5,0.6,1,0.9,1.5c0.2,0.5,0.3,0.9,0.4,1.4c0,0.5,0,1,0,1.5c-0.1,0.6-0.3,1.3-0.5,1.9
	c-0.2,0.5-0.5,1-0.8,1.4c-0.2,0.3-0.4,0.5-0.7,0.7c-0.2,0.1-0.4,0.3-0.6,0.4c-0.1,0-0.2,0.1-0.3,0.1c-0.1,0-0.1,0-0.2,0
	c-0.1,0-0.2,0-0.3-0.1c-0.2-0.2-0.3-0.5-0.4-0.7c-0.2-0.5-0.3-0.9-0.4-1.4c-0.1-0.6-0.1-1.2,0-1.8c0.2-0.9,0.4-1.8,0.8-2.7
	C205.1,114.4,205.6,113.4,206.2,112.6L206.2,112.6z M204.1,121C204.1,121,204.1,121.1,204.1,121C204.1,121.1,204.1,121,204.1,121
	L204.1,121z M204.7,122.1c0,0,0.1,0.1,0.1,0.1C204.8,122.2,204.7,122.2,204.7,122.1L204.7,122.1z"/>
<path class="st0" d="M224.3,81.9c-0.4,0.1-0.8,0.4-1,0.8c-0.1,0.1-0.1,0.3-0.2,0.4c-0.1,0.3-0.1,0.6,0,0.9c0.4,2.7,0.8,5.5,1.2,8.2
	c0.3,1.7,0.5,3.4,0.8,5.1c0.2,1.1,0.4,2.3,0.7,3.4c0.2,0.9,0.4,1.7,0.6,2.5c0.2,0.8,0.5,1.5,0.7,2.3c0.3,1,0.7,1.9,1.1,2.8
	c0.2,0.4,0.3,0.7,0.7,0.9c0.4,0.2,0.8,0.3,1.2,0.2c0.8-0.2,1.4-1.1,1.1-1.9c-0.3-1-0.6-1.9-0.9-2.9c-0.2-0.7-0.4-1.5-0.6-2.2
	c-0.2-0.9-0.4-1.7-0.6-2.6c-0.2-1.1-0.4-2.2-0.6-3.3c-0.3-1.7-0.5-3.4-0.8-5.1c-0.4-2.8-0.8-5.6-1.2-8.4c-0.1-0.4-0.5-0.8-0.8-1
	c-0.3-0.2-0.6-0.2-0.9-0.2C224.6,81.9,224.4,81.9,224.3,81.9L224.3,81.9z"/>
<path class="st0" d="M233.4,108.2c-0.7,0.4-1.4,0.8-2,1.2c-0.3-0.1-0.6-0.2-0.9-0.3c-0.7-0.2-1.5,0.2-1.7,1c-0.1,0.4,0,0.8,0.2,1.2
	c-1.2,1-2.1,2.2-2.9,3.5c-0.4,0.7-0.7,1.5-0.8,2.3c-0.1,0.9-0.1,1.8,0.2,2.6c0.3,0.7,0.7,1.4,1.3,2c0.6,0.6,1.4,1,2.2,1.3
	c0.7,0.3,1.6,0.4,2.3,0.3c0.9,0,1.8-0.3,2.6-0.8c0.7-0.4,1.4-1,1.9-1.7c0.5-0.7,0.9-1.5,1.1-2.4c0.2-0.9,0.2-1.7,0-2.6
	c-0.1-0.9-0.5-1.7-1-2.5c-0.5-0.7-1-1.4-1.6-1.9c-0.4-0.4-0.8-0.7-1.2-1c0.4-0.2,0.8-0.5,1.2-0.7c0.4-0.2,0.5-0.8,0.3-1.2
	c-0.2-0.3-0.5-0.4-0.8-0.4C233.7,108.1,233.5,108.1,233.4,108.2L233.4,108.2z M231.3,111.6C231.3,111.6,231.3,111.7,231.3,111.6
	C231.3,111.7,231.3,111.6,231.3,111.6L231.3,111.6z M229.8,112.9c0.3-0.3,0.6-0.5,0.9-0.8c0.3,0.2,0.7,0.4,1,0.6
	c0.3,0.2,0.6,0.5,0.9,0.7c0.3,0.3,0.6,0.6,0.9,1c0.3,0.4,0.5,0.7,0.7,1.2c0.1,0.3,0.2,0.6,0.2,0.9c0,0.4,0,0.8,0,1.1
	c-0.1,0.3-0.1,0.5-0.2,0.8c-0.2,0.3-0.3,0.6-0.5,0.9c-0.2,0.3-0.4,0.5-0.7,0.7c-0.3,0.2-0.5,0.4-0.8,0.5c-0.3,0.1-0.5,0.2-0.8,0.2
	c-0.3,0-0.7,0-1,0c-0.4-0.1-0.7-0.2-1-0.3c-0.3-0.1-0.6-0.3-0.8-0.5c-0.2-0.2-0.4-0.3-0.5-0.5c-0.2-0.2-0.3-0.5-0.4-0.7
	c-0.1-0.2-0.1-0.4-0.1-0.5c0-0.3,0-0.6,0-1c0.1-0.4,0.2-0.8,0.3-1.2c0.3-0.7,0.7-1.3,1.1-1.9C229.1,113.7,229.4,113.3,229.8,112.9
	L229.8,112.9z"/>
</svg>
