<?xml version="1.0" encoding="utf-8"?>
<!-- Generator: Adobe Illustrator 20.1.0, SVG Export Plug-In . SVG Version: 6.00 Build 0)  -->
<svg version="1.1" id="Layer_1" xmlns="http://www.w3.org/2000/svg" xmlns:xlink="http://www.w3.org/1999/xlink" x="0px" y="0px"
	 viewBox="0 0 475.7 67" style="enable-background:new 0 0 475.7 67;" xml:space="preserve">
<style type="text/css">
	.st0{fill:#010101;}
	.st1{fill:#6EBE45;}
</style>
<path class="st0" d="M0.1,5.1c0,2.2-0.1,4.4-0.1,6.6c0,0.8,0,1.6,0,2.4c0,0.7-0.1,1.4,0.1,2c0.1,0.6,0.4,1,0.9,1.4
	c0.5,0.4,1.2,0.3,1.7,0c0.5-0.3,0.8-0.9,0.6-1.5c-0.1-0.2-0.2-0.4-0.3-0.5c0-0.4,0.1-0.8,0.1-1.3c0-0.5,0-0.9,0-1.4c0-0.5,0-1,0-1.5
	c0-2.1,0.1-4.1,0.1-6.2c0-0.9-0.7-1.6-1.6-1.6C0.8,3.5,0.2,4.3,0.1,5.1L0.1,5.1z"/>
<path class="st0" d="M7.1,3C6.9,3,6.8,3.1,6.6,3.1C6.4,3.2,6.2,3.3,6,3.4C5.6,3.6,5.2,3.9,4.8,4.1C4.2,4.6,3.6,5.1,3,5.7
	C2.4,6.3,1.9,7.1,1.7,8C1.5,8.8,2,9.6,2.3,10.3c0.2,0.4,0.4,0.7,0.5,1.1c0.2,0.4,0.7,0.5,1,0.3c0.1-0.1,0.2-0.2,0.3-0.3
	c0.1,0.2,0.3,0.3,0.4,0.4C5.1,12,5.6,11.9,6,11.8c0.4-0.1,0.7-0.4,1-0.6c0.3-0.2,0.5-0.5,0.8-0.7C7.9,10.3,8,10.2,8.1,10
	c0,0,0,0,0,0c0.1,0,0.2,0.1,0.3,0.1c0.1,0,0.2,0.1,0.2,0.1c0.1,0.1,0.2,0.2,0.3,0.3c0.1,0.1,0.1,0.2,0.2,0.4
	c0.1,0.2,0.1,0.4,0.2,0.6c0,0.5,0,1,0,1.5c-0.1,0.6-0.3,1.1-0.5,1.7c-0.3,0.7-0.7,1.3-1.1,1.9c-0.3,0.3-0.5,0.6-0.8,0.9
	c-0.3,0.3-0.6,0.7-1,1c-0.1,0.1-0.3,0.2-0.5,0.3c0,0-0.1,0-0.1,0c-0.1,0-0.3,0-0.4,0c-0.2,0-0.3-0.1-0.5-0.1
	c-0.1-0.1-0.2-0.1-0.4-0.2c-0.1-0.1-0.2-0.2-0.3-0.3c0,0,0-0.1-0.1-0.1c0,0,0,0,0-0.1c0,0,0,0,0,0c0-0.1,0-0.1,0-0.2
	c0.1-0.3,0-0.6-0.1-0.9c-0.1-0.2-0.4-0.4-0.7-0.5c-0.6-0.2-1.2,0.2-1.4,0.8c-0.1,0.4-0.2,0.7-0.2,1.1c0,0.4,0.2,0.8,0.4,1.2
	c0.2,0.3,0.5,0.6,0.7,0.9c0.2,0.1,0.3,0.3,0.5,0.4c0.2,0.1,0.5,0.2,0.7,0.3c0.3,0.1,0.7,0.2,1.1,0.2c0.4,0,0.8,0,1.1-0.1
	c0.2,0,0.4-0.2,0.6-0.2c0.2-0.1,0.3-0.2,0.4-0.2c0.4-0.2,0.7-0.5,1-0.9c0.2-0.3,0.5-0.5,0.7-0.8c0.2-0.3,0.5-0.5,0.7-0.8
	c0.5-0.6,0.9-1.3,1.3-2c0.7-1.3,1.1-2.9,1-4.4c0-0.4-0.1-0.8-0.1-1.1c-0.1-0.4-0.2-0.7-0.4-1c-0.2-0.3-0.4-0.6-0.7-0.9
	C10.4,8.5,10,8.2,9.7,8c0,0-0.1,0-0.1-0.1c0.3-0.5,0.5-1.1,0.6-1.7c0.1-0.5,0.1-0.9,0-1.4c0-0.2-0.1-0.5-0.2-0.7
	C9.8,4,9.6,3.8,9.5,3.6C9.4,3.5,9.2,3.4,9.1,3.3C8.9,3.2,8.7,3,8.5,3C8.3,2.9,8.1,2.9,7.9,2.9c0,0-0.1,0-0.1,0
	C7.6,2.9,7.3,2.9,7.1,3L7.1,3z M7.7,4.9C7.8,4.9,7.8,4.9,7.7,4.9C7.8,4.9,7.8,4.9,7.7,4.9C7.9,4.9,7.9,5,7.9,5c0,0,0,0.1,0,0.1
	c0,0.1,0,0.1,0,0.2c0,0.2,0,0.4,0,0.5C8,6.1,7.9,6.3,7.8,6.6C7.6,7,7.4,7.4,7.1,7.7c0,0,0,0,0,0C6.8,7.8,6.5,8,6.2,8.1
	C5.8,8.3,5.5,8.5,5.1,8.7C4.9,8.9,4.6,9.1,4.4,9.3C4.2,9.5,4.1,9.7,4,10c0,0,0,0.1,0,0.1c0,0,0,0.1,0,0.1c-0.2-0.3-0.3-0.7-0.5-1
	C3.3,8.9,3.3,8.7,3.2,8.5c0-0.1,0-0.1,0-0.2c0-0.1,0.1-0.2,0.1-0.3c0.1-0.2,0.2-0.4,0.4-0.6C4,6.9,4.5,6.5,4.9,6.1
	c0.5-0.4,1.1-0.7,1.7-1C6.9,5,7.2,4.9,7.5,4.9C7.6,4.9,7.7,4.9,7.7,4.9L7.7,4.9z M7.9,4.9C7.9,4.9,7.9,4.9,7.9,4.9
	C7.9,4.9,7.9,4.9,7.9,4.9C7.9,4.9,7.9,4.9,7.9,4.9L7.9,4.9z M7.9,4.9C7.9,4.9,7.9,4.9,7.9,4.9C7.9,4.9,7.9,4.9,7.9,4.9
	C7.9,4.9,7.9,4.9,7.9,4.9L7.9,4.9z M3.4,9.2c0,0,0,0.1,0,0.1C3.5,9.2,3.4,9.2,3.4,9.2L3.4,9.2z M3.8,18.1
	C3.8,18.1,3.8,18.1,3.8,18.1C3.8,18.1,3.8,18.1,3.8,18.1C3.8,18.1,3.8,18.1,3.8,18.1L3.8,18.1z M3.8,18.1
	C3.8,18.1,3.8,18.1,3.8,18.1C3.8,18.1,3.8,18.1,3.8,18.1C3.8,18.1,3.8,18.1,3.8,18.1L3.8,18.1z"/>
<path class="st0" d="M22.7,10.4c-0.9,0.1-1.7,0.5-2.5,0.9c-0.7,0.4-1.4,0.9-1.9,1.5c-0.6,0.7-1,1.7-0.8,2.6c0.1,0.8,0.6,1.5,1.4,1.9
	c0.4,0.2,0.8,0.3,1.2,0.2c0.5,0,1-0.2,1.4-0.4c0.4-0.2,0.7-0.4,1-0.6c0.3-0.3,0.7-0.6,1-0.9c0.1-0.1,0.1-0.1,0.2-0.2
	c0.2,0.2,0.3,0.5,0.5,0.7c0.7,0.9,1.8,1.4,2.7,1.9c0.3,0.1,0.5,0.2,0.8,0.1c0.3-0.1,0.5-0.3,0.7-0.5c0.3-0.5,0.1-1.2-0.4-1.5
	c-0.5-0.3-1-0.6-1.5-0.9c-0.3-0.2-0.5-0.5-0.7-0.7c-0.1-0.2-0.3-0.4-0.4-0.6c-0.1-0.2-0.1-0.3-0.1-0.5c0-0.3,0-0.6-0.1-0.8
	c0.4-0.1,0.7-0.4,0.8-0.7c0.2-0.5-0.2-1.1-0.7-1.2c-0.5-0.2-1.1-0.3-1.7-0.3C23.1,10.4,22.9,10.4,22.7,10.4L22.7,10.4z M23.2,12.4
	c-0.1,0.1-0.2,0.2-0.2,0.4c-0.1,0.2-0.2,0.4-0.3,0.6c-0.5,0.6-1.1,1.2-1.7,1.7c-0.2,0.1-0.4,0.2-0.6,0.3c-0.2,0.1-0.3,0.1-0.5,0.1
	c0,0,0,0,0,0c0,0,0,0,0,0c0,0-0.1,0-0.1-0.1c0,0,0,0,0,0c0-0.1-0.1-0.1-0.1-0.2c0-0.1,0-0.2-0.1-0.2c0,0,0,0,0-0.1
	c0-0.1,0.1-0.3,0.1-0.4c0.1-0.1,0.2-0.3,0.2-0.4c0.2-0.2,0.4-0.4,0.6-0.5c0.5-0.4,1-0.7,1.6-1c0.3-0.1,0.6-0.2,0.8-0.2
	C22.9,12.4,23.1,12.4,23.2,12.4L23.2,12.4z M19.7,15.4C19.7,15.4,19.7,15.5,19.7,15.4C19.7,15.5,19.7,15.5,19.7,15.4
	C19.7,15.5,19.7,15.4,19.7,15.4L19.7,15.4z M19.7,15.5C19.7,15.5,19.7,15.5,19.7,15.5C19.7,15.5,19.7,15.5,19.7,15.5
	C19.8,15.5,19.8,15.5,19.7,15.5C19.7,15.5,19.7,15.5,19.7,15.5L19.7,15.5z M19.8,15.5C19.8,15.5,19.8,15.5,19.8,15.5
	C19.8,15.5,19.8,15.5,19.8,15.5C19.8,15.5,19.8,15.5,19.8,15.5C19.8,15.5,19.8,15.5,19.8,15.5L19.8,15.5z M19.8,15.5
	C19.8,15.5,19.8,15.5,19.8,15.5C19.8,15.5,19.8,15.5,19.8,15.5C19.8,15.5,19.8,15.5,19.8,15.5L19.8,15.5z"/>
<path class="st0" d="M33.2,3.8c-0.3,0.3-0.4,0.6-0.4,1c-0.1,1.3-0.2,2.7-0.4,4c-0.1,1.3-0.3,2.6-0.2,3.9c0.1,1.3,0.4,2.6,0.9,3.7
	c0.3,0.5,0.6,1,1,1.5c0.4,0.5,0.8,1,1.2,1.4c0.5,0.5,1.3,0.5,1.8,0c0.2-0.2,0.4-0.6,0.4-0.9c0-0.4-0.2-0.6-0.4-0.9
	c-0.1-0.1-0.2-0.2-0.3-0.3c-0.2-0.3-0.4-0.7-0.6-1c-0.2-0.4-0.4-0.8-0.6-1.1c-0.2-0.5-0.3-1-0.4-1.5c-0.2-1.4,0-2.7,0.1-4.1
	c0.2-1.5,0.3-3,0.5-4.5c0-0.4-0.2-0.8-0.4-1c-0.3-0.3-0.6-0.4-1-0.4S33.5,3.5,33.2,3.8L33.2,3.8z"/>
<path class="st0" d="M41.3,10.1c-0.5,0-1,0.1-1.5,0.3c-0.4,0.2-0.7,0.5-1,0.8c-0.3,0.4-0.6,0.9-0.9,1.3c-0.5,0.9-1,1.8-0.9,2.9
	c0,0.5,0.2,0.9,0.5,1.3c0.2,0.2,0.3,0.4,0.6,0.5c0.2,0.1,0.4,0.2,0.6,0.3c0.4,0.2,1,0.1,1.4,0c0.2,0,0.5-0.2,0.7-0.3
	c0.2-0.1,0.5-0.2,0.7-0.4c0.7-0.5,1.3-1.1,1.8-1.7c0.1-0.2,0.3-0.3,0.4-0.5c0.1-0.1,0.2-0.2,0.2-0.3c0.5,0.6,1,1.3,1.5,1.9
	c0.6,0.7,1.1,1.3,1.7,1.9c0.4,0.4,1.1,0.4,1.5,0c0.2-0.2,0.3-0.5,0.3-0.7c0-0.3-0.1-0.5-0.3-0.7c-0.8-0.9-1.6-1.9-2.3-2.8
	c-0.3-0.4-0.6-0.8-0.9-1.2c0,0,0,0,0-0.1c0.2-0.4,0.1-0.9-0.3-1.2c-0.4-0.2-0.8-0.5-1.2-0.7c-0.4-0.2-0.8-0.4-1.3-0.5
	c-0.3-0.1-0.7-0.1-1.1-0.1C41.5,10.1,41.4,10.1,41.3,10.1L41.3,10.1z M41.9,11.8c0.3,0.1,0.5,0.1,0.8,0.2c0.1,0,0.2,0.1,0.3,0.1
	c0,0,0,0,0,0c-0.1,0.1-0.2,0.2-0.3,0.3c-0.2,0.2-0.4,0.5-0.5,0.7c-0.6,0.7-1.2,1.4-1.9,2c-0.2,0.1-0.4,0.2-0.6,0.3
	c-0.1,0-0.2,0.1-0.3,0.1c0,0,0,0,0,0c-0.1,0-0.1,0-0.2-0.1c0,0-0.1,0-0.1-0.1c0-0.1-0.1-0.1-0.1-0.2c0-0.1,0-0.1,0-0.2
	c0-0.1,0-0.2,0-0.2c0-0.2,0.1-0.5,0.2-0.7c0.1-0.3,0.3-0.6,0.4-1c0.1-0.3,0.3-0.6,0.5-0.9c0.1-0.1,0.2-0.3,0.4-0.4
	c0.1,0,0.1-0.1,0.2-0.1c0.2-0.1,0.4-0.1,0.6-0.2C41.5,11.8,41.7,11.8,41.9,11.8L41.9,11.8z M46.3,13.9c0,0,0.1,0.1,0.1,0.1
	C46.4,14,46.4,13.9,46.3,13.9L46.3,13.9z M38.9,15.4C39,15.4,39,15.4,38.9,15.4C39,15.4,39,15.4,38.9,15.4L38.9,15.4z"/>
<path class="st0" d="M55.6,10.1c-0.4,0.2-0.7,0.5-1,0.8c-0.3,0.2-0.5,0.5-0.7,0.7c-0.2-0.3-0.5-0.6-0.9-0.7c-0.7-0.2-1.5,0.2-1.7,1
	c-0.2,0.6-0.3,1.3-0.5,1.9c-0.1,0.3-0.1,0.5-0.2,0.8c-0.1,0.3-0.2,0.7-0.2,1c0,0.3,0.1,0.6,0.2,0.8c0.1,0.2,0.2,0.4,0.4,0.6
	c0.2,0.2,0.4,0.3,0.6,0.4c0.5,0.1,1,0,1.4-0.4c0.3-0.4,0.7-0.8,1-1.2c0.3-0.4,0.6-0.9,0.9-1.3c0.2-0.3,0.4-0.5,0.6-0.8
	c0.4-0.5,0.9-1.1,1.4-1.5c0,0,0,0,0,0c0.1,0,0.2,0,0.2-0.1c0,0,0,0,0,0c0.1,0,0.1,0,0.2,0.1c0.1,0.1,0.2,0.1,0.4,0.2
	c0.2,0.2,0.4,0.3,0.5,0.5c0.3,0.4,0.5,0.8,0.7,1.2c0.4,0.9,0.6,1.9,0.8,2.9c0,0.1,0,0.1,0,0.2c0,0.3,0.1,0.6,0.3,0.8
	c0.2,0.2,0.5,0.3,0.8,0.3c0.6,0,1.2-0.5,1.1-1.1c0-0.5-0.1-1.1-0.2-1.6c-0.1-0.6-0.3-1.2-0.5-1.7c-0.6-1.6-1.6-3.3-3.2-4
	c-0.3-0.1-0.7-0.2-1.1-0.2C56.4,9.8,56,9.9,55.6,10.1L55.6,10.1z M57.1,12.1C57.1,12.1,57.1,12.1,57.1,12.1
	C57.1,12.1,57.1,12.1,57.1,12.1C57.1,12.1,57.1,12.1,57.1,12.1L57.1,12.1z M57.1,12.1c0.1,0,0.1,0,0.2,0
	C57.2,12.1,57.2,12.1,57.1,12.1C57.1,12.1,57.1,12.1,57.1,12.1L57.1,12.1z"/>
<path class="st0" d="M71.3,9.9c-1.5,0-2.8,1-3.7,2.2c-0.2,0.3-0.4,0.6-0.5,0.9c-0.1,0.4-0.2,0.8-0.2,1.2c0,0.8,0.3,1.5,0.6,2.2
	c0.1,0.3,0.3,0.6,0.5,0.8c0.2,0.3,0.5,0.7,0.8,0.9c0.6,0.5,1.2,0.9,1.9,1.2c0.8,0.3,1.7,0.7,2.6,0.9c0.6,0.2,1.2-0.2,1.4-0.8
	c0.2-0.6-0.2-1.2-0.8-1.4c-0.8-0.2-1.5-0.5-2.2-0.8c-0.3-0.2-0.7-0.4-1-0.6c-0.2-0.2-0.5-0.4-0.7-0.7c-0.2-0.3-0.4-0.5-0.5-0.8
	c-0.1-0.3-0.2-0.7-0.3-1c0-0.1,0-0.3,0-0.4c0,0,0-0.1,0-0.1c0.1-0.2,0.2-0.4,0.4-0.6c0.2-0.2,0.4-0.4,0.6-0.6
	c0.2-0.1,0.3-0.2,0.5-0.3c0.2-0.1,0.4-0.1,0.5-0.2c0,0,0.1,0,0.1,0c0.6,0,1.1-0.5,1.1-1.1C72.4,10.4,71.9,9.9,71.3,9.9
	C71.3,9.9,71.3,9.9,71.3,9.9L71.3,9.9z M70.1,12.7C70,12.7,70,12.7,70.1,12.7C70,12.7,70,12.7,70.1,12.7L70.1,12.7z"/>
<path class="st0" d="M80.1,10.8c-0.2,0-0.4,0.1-0.6,0.2c-0.7,0.3-1.2,0.7-1.8,1.1c-0.2,0.2-0.5,0.4-0.7,0.6
	c-0.2,0.2-0.5,0.5-0.7,0.7c-0.4,0.5-0.8,1.1-0.9,1.8c-0.1,0.7,0.1,1.4,0.4,2.1c0.1,0.3,0.4,0.6,0.6,0.8c0.3,0.3,0.6,0.5,0.9,0.8
	c0.3,0.2,0.6,0.3,0.9,0.4c0.3,0.1,0.7,0.3,1,0.4c0.5,0.2,1,0.3,1.5,0.4c0.3,0.1,0.6,0.2,0.9,0.3c0.6,0.2,1.2,0.3,1.8,0.4
	c0.3,0.1,0.6,0,0.9-0.1c0.3-0.1,0.4-0.4,0.5-0.7c0.2-0.6-0.2-1.3-0.8-1.4c-0.7-0.1-1.3-0.3-1.9-0.5c-1-0.3-2.1-0.6-3.1-1
	c-0.3-0.1-0.5-0.3-0.8-0.4c-0.2-0.1-0.3-0.3-0.5-0.4c-0.1-0.1-0.1-0.2-0.2-0.3c0-0.1-0.1-0.2-0.1-0.3c0,0,0-0.1,0-0.1
	c0.1,0,0.2-0.1,0.3-0.1c0.6-0.3,1.2-0.6,1.8-0.9c0.4-0.2,0.8-0.4,1.2-0.7c0.3-0.2,0.5-0.4,0.8-0.6c0.1-0.1,0.3-0.2,0.4-0.4
	c0.1-0.1,0.2-0.3,0.2-0.5c0-0.1,0-0.3,0.1-0.4c0-0.2-0.1-0.5-0.2-0.6c-0.1-0.3-0.4-0.4-0.7-0.6c-0.3-0.1-0.6-0.2-0.9-0.2
	c0,0,0,0-0.1,0C80.5,10.7,80.3,10.8,80.1,10.8L80.1,10.8z M80.8,12.8C80.8,12.8,80.8,12.8,80.8,12.8C80.8,12.8,80.8,12.8,80.8,12.8
	L80.8,12.8z"/>
<path class="st0" d="M89.1,13c-0.4,0.1-0.8,0.2-1.2,0.4c-0.4,0.2-0.8,0.3-1,0.6c-0.3,0.3-0.5,0.7-0.7,1.1c0,0.1,0,0.3-0.1,0.4
	c0,0.1,0,0.3,0,0.4c0,0.3,0.1,0.5,0.2,0.7c0.4,0.8,1,1.3,1.8,1.7c0.9,0.4,1.8,0.6,2.8,0.5c1.2-0.1,2.4-0.5,3.5-0.9
	c0.3-0.1,0.5-0.2,0.6-0.5c0.1-0.2,0.2-0.5,0.1-0.8c-0.1-0.4-0.5-0.7-1-0.8c0.2-0.3,0.1-0.8-0.2-1.1c-0.6-0.6-1.3-1.1-2.1-1.5
	c-0.4-0.2-0.8-0.3-1.2-0.4c-0.2-0.1-0.5-0.1-0.7-0.1C89.7,12.9,89.4,12.9,89.1,13L89.1,13z M90.2,14.8c0.3,0,0.5,0.1,0.8,0.2
	c0.4,0.2,0.8,0.4,1.2,0.7c0.2,0.2,0.4,0.3,0.6,0.5c0,0,0.1,0.1,0.1,0.1c-0.5,0.1-1,0.2-1.5,0.3c-0.5,0-0.9,0.1-1.4,0
	c-0.2,0-0.5-0.1-0.7-0.2c-0.2-0.1-0.4-0.2-0.6-0.3c-0.1-0.1-0.2-0.2-0.3-0.3c-0.1-0.1-0.1-0.2-0.2-0.3c0,0,0,0,0,0c0,0,0,0,0,0
	c0,0,0,0,0-0.1c0,0,0,0,0,0c0.2-0.2,0.5-0.3,0.8-0.4c0.2-0.1,0.5-0.2,0.7-0.2C89.9,14.8,90,14.8,90.2,14.8L90.2,14.8z M88.4,15.3
	C88.4,15.3,88.4,15.3,88.4,15.3C88.4,15.3,88.4,15.3,88.4,15.3L88.4,15.3z M88.3,15.4C88.3,15.4,88.3,15.4,88.3,15.4
	C88.3,15.4,88.3,15.4,88.3,15.4L88.3,15.4z M88.2,15.5C88.2,15.5,88.2,15.5,88.2,15.5C88.2,15.5,88.2,15.5,88.2,15.5
	C88.2,15.5,88.2,15.5,88.2,15.5L88.2,15.5z M88.2,15.6c0,0,0,0.1,0,0.1C88.2,15.7,88.2,15.6,88.2,15.6L88.2,15.6z"/>
<path class="st0" d="M94.9,3.8c-0.5,0.3-0.8,0.9-1,1.4c-0.1,0.3-0.1,0.5-0.2,0.8c-0.1,0.3-0.2,0.7-0.2,1c-0.1,0.7-0.2,1.4-0.2,2.2
	c0,0.6-0.1,1.2-0.1,1.7c0,0.6,0,1.2,0,1.8c0,0.5,0.1,0.9,0.1,1.4c0.1,0.6,0.1,1.1,0.2,1.7c0.2,1.1,0.4,2.2,0.7,3.3
	c0.2,0.6,0.9,1,1.5,0.9c0.7-0.2,1-0.9,0.9-1.5c-0.3-1.4-0.6-2.7-0.9-4.1c-0.1-0.5-0.1-1-0.2-1.5c0-0.6-0.1-1.2-0.1-1.8
	c-0.1-1.2,0-2.5,0.1-3.7c0.1-0.3,0.1-0.7,0.2-1c0-0.1,0-0.2,0.1-0.3c0,0,0,0,0,0c0.1,0.2,0.4,0.4,0.6,0.5c0.3,0.1,0.5,0,0.8-0.1
	c0.2-0.1,0.4-0.3,0.5-0.6c0.1-0.3,0-0.5-0.1-0.8c-0.1-0.2-0.2-0.5-0.3-0.7c-0.1-0.3-0.3-0.5-0.6-0.7c-0.2-0.1-0.5-0.2-0.7-0.2
	C95.6,3.6,95.2,3.7,94.9,3.8L94.9,3.8z"/>
<path class="st0" d="M124.2,8.4c0,1.7-0.1,3.3-0.1,5c0,0.7,0,1.5,0,2.2c0,0.3,0,0.6,0,0.9c0,0.2,0,0.3,0,0.5c0,0.3,0,0.5,0.1,0.8
	c0.1,0.3,0.2,0.6,0.3,0.8c0.2,0.4,0.6,0.6,1.1,0.6c0.4,0,0.9-0.2,1.1-0.6c0.1-0.2,0.2-0.5,0.3-0.7c0.1-0.2,0.1-0.5,0.2-0.8
	c0.1-0.3,0.1-0.6-0.1-0.9c-0.1-0.1-0.1-0.2-0.2-0.3c0-0.2,0-0.4,0-0.6c0-0.7,0-1.4,0.1-2.1c0-1.6,0.1-3.2,0.1-4.8
	c0-0.8-0.7-1.4-1.4-1.4C124.8,7,124.2,7.6,124.2,8.4L124.2,8.4z M124.8,17.1C124.8,17.1,124.8,17.1,124.8,17.1
	C124.8,17.1,124.7,17.1,124.8,17.1C124.7,17.1,124.8,17.1,124.8,17.1L124.8,17.1z"/>
<path class="st0" d="M129.7,3.2c-0.8,0.1-1.4,0.5-1.9,1c-0.2,0.3-0.5,0.5-0.7,0.8c-0.3,0.3-0.5,0.6-0.7,0.9c-0.4,0.6-0.7,1.3-0.8,2
	c0,0.2,0,0.3,0,0.5c0,0.2,0,0.4,0,0.6c0,0.4,0.1,0.8,0.1,1.3c0,0.2,0.1,0.3,0.3,0.3c0.1,0,0.3-0.1,0.3-0.3c0-0.4-0.1-0.7-0.1-1.1
	c0-0.4-0.1-0.8,0-1.3c0-0.3,0.1-0.6,0.2-0.8c0.1-0.2,0.3-0.5,0.4-0.7c0.2-0.3,0.5-0.6,0.8-0.9c0.3-0.3,0.6-0.5,1-0.8
	c0.2-0.1,0.4-0.2,0.6-0.3c0.1,0,0.2-0.1,0.4-0.1c0.1,0,0.3,0,0.4,0c0.1,0,0.3,0.1,0.4,0.1c0.1,0.1,0.3,0.1,0.4,0.2
	c0.1,0.1,0.2,0.2,0.3,0.3c0.1,0.1,0.1,0.2,0.2,0.2c0,0.1,0,0.2,0.1,0.2c0,0.2,0,0.4,0,0.7c-0.1,0.4-0.2,0.8-0.4,1.2
	c-0.2,0.5-0.5,1-0.8,1.4c-0.1,0.1-0.1,0.2-0.2,0.2c0,0-0.1,0-0.1,0c0,0,0,0-0.1,0c-0.1,0.1-0.2,0.1-0.2,0.2c0,0,0,0,0,0
	c-0.3,0.3-0.4,0.7-0.1,1.1c0.1,0.2,0.3,0.4,0.5,0.4c0.1,0,0.2,0,0.2,0c0.1,0,0.3,0,0.4-0.1c0.2-0.1,0.5-0.1,0.7-0.2
	c0.1,0,0.3,0,0.4,0c0.1,0,0.3,0.1,0.4,0.1c0.1,0,0.1,0.1,0.2,0.1c0.1,0.1,0.2,0.2,0.3,0.3c0.2,0.3,0.4,0.6,0.5,0.9
	c0.1,0.4,0.2,0.8,0.3,1.2c0,0.4,0,0.8,0,1.2c-0.1,0.4-0.2,0.8-0.3,1.2c-0.2,0.4-0.4,0.7-0.6,1c-0.2,0.2-0.4,0.4-0.6,0.6
	c-0.2,0.1-0.4,0.3-0.6,0.4c-0.1,0-0.3,0.1-0.4,0.1c-0.1,0-0.1,0-0.2,0c0-0.1,0-0.2-0.1-0.3c-0.1-0.6-0.8-0.9-1.3-0.7
	c-0.3,0.1-0.5,0.2-0.6,0.5c-0.2,0.3-0.2,0.5-0.1,0.8c0,0,0,0.1,0,0.1c0,0.1,0,0.2,0,0.3c0,0.1,0,0.1,0.1,0.2
	c0.1,0.2,0.1,0.3,0.2,0.4c0.3,0.4,0.7,0.8,1.3,0.9c0.2,0,0.4,0.1,0.6,0c0.2,0,0.5,0,0.7-0.1c0.2-0.1,0.5-0.2,0.7-0.3
	c0.2-0.1,0.3-0.2,0.5-0.3c0.7-0.5,1.3-1.1,1.8-1.9c0.2-0.4,0.4-0.8,0.6-1.3c0.2-0.4,0.2-0.8,0.3-1.2c0.1-0.4,0.1-0.9,0.1-1.3
	c0-0.5-0.1-0.9-0.2-1.4c-0.2-0.8-0.5-1.5-1-2.2c-0.3-0.4-0.5-0.7-0.9-0.9c-0.3-0.2-0.8-0.4-1.2-0.5c0,0-0.1,0-0.1,0c0,0,0,0,0,0
	c0.2-0.4,0.3-0.7,0.4-1.1c0.1-0.4,0.2-0.8,0.3-1.2c0-0.4,0-0.8-0.1-1.1c-0.1-0.4-0.4-0.8-0.7-1c-0.5-0.5-1.2-0.8-1.9-0.8
	C129.9,3.2,129.8,3.2,129.7,3.2L129.7,3.2z M128.6,4.7C128.5,4.7,128.5,4.7,128.6,4.7C128.5,4.7,128.5,4.7,128.6,4.7L128.6,4.7z
	 M128.5,4.7C128.5,4.7,128.5,4.7,128.5,4.7C128.5,4.7,128.5,4.7,128.5,4.7L128.5,4.7z M131.2,5.9C131.2,5.9,131.2,6,131.2,5.9
	C131.2,6,131.2,5.9,131.2,5.9L131.2,5.9z M126.1,7.9C126.1,7.9,126.1,7.9,126.1,7.9C126.1,7.9,126.1,7.9,126.1,7.9L126.1,7.9z
	 M130.6,10.5C130.6,10.5,130.6,10.5,130.6,10.5C130.6,10.5,130.6,10.5,130.6,10.5L130.6,10.5z M132.5,16.3
	C132.5,16.3,132.5,16.3,132.5,16.3C132.5,16.3,132.5,16.3,132.5,16.3L132.5,16.3z M130.4,17.5C130.5,17.5,130.5,17.5,130.4,17.5
	C130.5,17.5,130.5,17.5,130.4,17.5L130.4,17.5z"/>
<path class="st0" d="M150.1,3.6c-1,0.1-1.8,0.4-2.6,1c-0.7,0.5-1.4,1.1-1.9,1.9c-0.2,0.4-0.4,0.8-0.4,1.2c0,0.3-0.1,0.6,0,0.9
	c0.1,0.3,0.1,0.5,0.3,0.8c0.2,0.4,0.4,0.8,0.7,1.1c0.3,0.3,0.6,0.7,0.9,1c0.3,0.3,0.6,0.5,0.9,0.8c0.2,0.2,0.4,0.4,0.6,0.6
	c0.3,0.3,0.7,0.6,1,1c0.1,0.1,0.2,0.3,0.2,0.4c0,0,0,0,0,0c0,0.1-0.1,0.2-0.1,0.3c-0.1,0.2-0.2,0.4-0.4,0.6
	c-0.3,0.4-0.7,0.7-1.2,1.1c-1,0.7-2.1,1.3-3.3,1.8c-0.3,0.1-0.5,0.2-0.8,0.3c0,0,0,0,0,0c0,0,0,0,0,0c0,0,0,0,0,0
	c-0.2-0.2-0.5-0.3-0.8-0.3c-0.3,0-0.6,0.1-0.8,0.3c-0.4,0.4-0.4,1.2,0,1.6c0.4,0.4,0.8,0.7,1.3,0.7c0.3,0,0.7,0.1,1,0
	c0.3-0.1,0.5-0.1,0.7-0.2c1-0.4,1.9-0.9,2.8-1.4c0.9-0.5,1.6-1.1,2.4-1.8c0.4-0.4,0.6-0.8,0.9-1.2c0.3-0.5,0.5-1,0.5-1.6
	c0-0.6-0.2-1-0.5-1.5c-0.3-0.4-0.6-0.7-0.9-1.1c-0.3-0.3-0.6-0.5-0.9-0.8c-0.3-0.3-0.6-0.5-0.8-0.8c-0.5-0.4-0.9-0.8-1.3-1.3
	c-0.2-0.2-0.3-0.4-0.4-0.7c0-0.1,0-0.1-0.1-0.2c0,0,0,0,0-0.1c0-0.1,0.1-0.3,0.1-0.4c0.1-0.2,0.2-0.3,0.3-0.5
	c0.2-0.3,0.5-0.5,0.8-0.8c0.3-0.2,0.6-0.4,1-0.6c0.2-0.1,0.5-0.1,0.7-0.2c0.2,0,0.5,0,0.7,0c0.3,0.1,0.6,0.2,0.9,0.3
	c0.1,0,0.2,0.1,0.2,0.1c0.4,0.3,1,0.1,1.3-0.3c0.3-0.4,0.1-1-0.3-1.3c-0.8-0.4-1.6-0.7-2.4-0.7C150.3,3.5,150.2,3.5,150.1,3.6
	L150.1,3.6z M149.7,14C149.7,14,149.7,14,149.7,14C149.7,14,149.7,14,149.7,14L149.7,14z M149.7,14C149.7,14,149.7,14.1,149.7,14
	C149.7,14.1,149.7,14,149.7,14L149.7,14z M143.9,18.2C143.9,18.2,143.9,18.2,143.9,18.2C143.9,18.2,143.9,18.2,143.9,18.2
	L143.9,18.2z M143.9,18.2C143.9,18.2,143.9,18.3,143.9,18.2C143.9,18.3,143.9,18.2,143.9,18.2L143.9,18.2z"/>
<path class="st0" d="M175,1.8c-0.1,0-0.2,0-0.3,0c0,0,0,0,0,0c-0.1,0-0.1,0-0.2,0.1c0,0-0.1,0-0.1,0c-0.1,0-0.1,0-0.2,0.1
	c-0.2,0-0.3,0.1-0.5,0.1c-0.1,0-0.2,0-0.3,0.1c-0.3,0.1-0.7,0.2-1,0.3c-0.5,0.1-0.9,0.2-1.4,0.4c-1.2,0.3-2.3,0.6-3.5,0.9
	c-3.2,0.8-6.3,1.6-9.5,2.4c-0.7,0.2-1.1,1-0.9,1.7c0.2,0.7,1,1.1,1.7,0.9c3.2-0.8,6.4-1.6,9.5-2.4c1.2-0.3,2.4-0.6,3.6-0.9
	c0.5-0.1,1-0.3,1.5-0.4c0.3-0.1,0.6-0.2,0.9-0.2c0.7-0.2,1.6-0.3,1.9-1c0.2-0.4,0.2-0.9,0-1.3C175.9,2.1,175.5,1.8,175,1.8
	C175,1.8,175,1.8,175,1.8L175,1.8z"/>
<path class="st0" d="M168,4.1c-0.6,0.7-1.1,1.4-1.5,2.1c-0.5,0.9-0.9,1.9-1.1,2.9c-0.4,1.3-0.3,2.7-0.4,4c-0.1,1.5-0.2,3-0.1,4.5
	c0,0.7,0.6,1.3,1.3,1.3c0.7,0,1.3-0.6,1.3-1.3c0-1.2,0-2.3-0.1-3.5c0-0.5,0-0.9,0-1.4c0-0.8,0-1.7,0.1-2.5c0.1-0.8,0.4-1.6,0.7-2.3
	c0.3-0.7,0.7-1.4,1.2-2c0.1-0.1,0.2-0.2,0.3-0.3c0.4-0.4,0.4-1.1,0-1.6c-0.2-0.2-0.5-0.3-0.8-0.3C168.4,3.7,168.2,3.8,168,4.1
	L168,4.1z"/>
<path class="st0" d="M212.4,9.6c-0.5,0.1-0.8,0.4-1.2,0.7c-0.2,0.2-0.4,0.4-0.6,0.6c-0.3,0.3-0.5,0.5-0.8,0.8
	c-0.1,0.1-0.2,0.2-0.2,0.2c-0.2-0.4-0.4-0.8-0.7-1.2c-0.2-0.3-0.5-0.6-0.8-0.8c-0.1-0.1-0.3-0.2-0.4-0.2c-0.2-0.1-0.6-0.3-0.9-0.2
	c-0.2,0-0.4,0-0.5,0.1c-0.2,0.1-0.5,0.2-0.7,0.3c-0.4,0.2-0.7,0.5-1,0.8c-0.5,0.5-1,1-1.4,1.5c0-0.1-0.1-0.2-0.2-0.4
	c-0.2-0.3-0.5-0.6-0.9-0.7c-0.4-0.1-0.8-0.1-1.2,0.2c-0.3,0.2-0.6,0.5-0.7,0.9c-0.3,2.4-0.6,4.7-1.1,7.1c-0.1,0.4-0.1,0.8,0.2,1.1
	c0.2,0.3,0.5,0.6,0.9,0.7c0.4,0.1,0.8,0.1,1.1-0.2c0.4-0.2,0.5-0.5,0.7-0.9c0.1-0.3,0.2-0.6,0.4-0.9c0.8-1.7,1.6-3.5,2.8-5
	c0.5-0.6,1-1.2,1.6-1.8c0.1,0.2,0.2,0.4,0.3,0.6c0.2,0.4,0.3,0.8,0.4,1.3c0,0.2,0,0.4,0,0.7c-0.1,0.5,0.3,1,0.7,1.2
	c0.4,0.2,1,0.3,1.4,0c0.2-0.1,0.3-0.2,0.5-0.4c0.2-0.2,0.3-0.4,0.5-0.6c0.1-0.2,0.3-0.3,0.4-0.5c0.3-0.3,0.6-0.6,0.8-0.9
	c0.3-0.3,0.6-0.7,1-1c0.2,0.8,0.4,1.6,0.5,2.4c0.1,0.7,0.2,1.4,0.4,2.1c0.2,0.7,1,1.2,1.7,1c0.4-0.1,0.7-0.3,0.8-0.6
	c0.2-0.3,0.2-0.7,0.1-1.1c0-0.2-0.1-0.4-0.1-0.6c0-0.2,0-0.3-0.1-0.5c0-0.1,0-0.1,0-0.2c0,0,0,0,0,0c0,0,0,0,0,0
	c-0.1-0.6-0.2-1.3-0.3-1.9c-0.2-0.9-0.5-1.7-0.9-2.5c-0.4-0.8-1.2-1.3-2-1.3C212.8,9.5,212.6,9.5,212.4,9.6L212.4,9.6z M206.5,12.1
	c0,0,0.1,0.1,0.1,0.1c0,0,0,0,0,0C206.6,12.2,206.5,12.1,206.5,12.1L206.5,12.1z M206.8,12.3C206.8,12.3,206.8,12.3,206.8,12.3
	C206.8,12.3,206.8,12.3,206.8,12.3C206.8,12.3,206.8,12.3,206.8,12.3L206.8,12.3z M216.3,15.9c0,0.1,0,0.2,0.1,0.4
	C216.3,16.2,216.3,16,216.3,15.9L216.3,15.9z M202.4,19.2c0,0.1-0.1,0.1-0.1,0.2C202.4,19.4,202.4,19.3,202.4,19.2L202.4,19.2z"/>
<path class="st0" d="M223.3,11.9c-0.4,0.1-0.9,0.2-1.3,0.4c-0.2,0.1-0.4,0.2-0.5,0.3c-0.2,0.2-0.5,0.4-0.7,0.6
	c-0.3,0.3-0.6,0.6-0.9,1c-0.3,0.4-0.5,0.9-0.7,1.4c-0.1,0.2-0.1,0.5-0.1,0.7c0,0.2,0,0.4,0.1,0.7c0,0.2,0.1,0.4,0.2,0.6
	c0.1,0.2,0.3,0.5,0.4,0.7c0.6,0.7,1.7,1,2.6,0.9c1-0.1,1.9-0.5,2.7-1.1c0.1-0.1,0.3-0.2,0.4-0.3c0.3,0.7,0.9,1.2,1.4,1.8
	c0.4,0.4,0.8,0.7,1.1,1c0.4,0.3,0.7,0.6,1.1,0.9c0.3,0.2,0.5,0.4,0.9,0.4c0.3,0,0.6-0.1,0.9-0.4c0.5-0.5,0.5-1.3,0-1.8
	c-0.4-0.4-0.8-0.7-1.3-1.1c-0.6-0.5-1.1-1-1.6-1.6c-0.2-0.2-0.3-0.5-0.4-0.7c-0.1-0.3-0.2-0.6-0.3-1c0-0.1,0-0.2-0.1-0.4
	c0,0,0,0,0-0.1c0.1-0.1,0.1-0.2,0.2-0.3c0.2-0.3,0.2-0.6,0.1-0.9c-0.1-0.3-0.3-0.5-0.5-0.7c-0.3-0.3-0.7-0.5-1-0.8
	c-0.3-0.3-0.7-0.4-1.2-0.5c-0.3-0.1-0.7-0.1-1-0.1C223.7,11.8,223.5,11.8,223.3,11.9L223.3,11.9z M224.2,14.1c0.2,0,0.3,0.1,0.5,0.1
	c0.2,0.1,0.4,0.2,0.5,0.3c0,0,0,0,0,0c-0.1,0.1-0.2,0.2-0.2,0.4c0,0.1-0.1,0.1-0.1,0.2c-0.2,0.2-0.3,0.3-0.5,0.5
	c-0.4,0.3-0.8,0.6-1.3,0.8c-0.2,0.1-0.5,0.2-0.7,0.2c-0.1,0-0.2,0-0.3,0c-0.1,0-0.2,0-0.3-0.1c0,0,0-0.1-0.1-0.1c0,0,0-0.1,0-0.1
	c0-0.1,0.1-0.3,0.1-0.4c0.1-0.2,0.2-0.4,0.4-0.6c0.3-0.3,0.6-0.6,0.9-0.9c0.1-0.1,0.3-0.2,0.4-0.3c0.1,0,0.2-0.1,0.4-0.1
	C223.9,14.1,224,14.1,224.2,14.1L224.2,14.1z M224.7,15.3c0,0-0.1,0.1-0.1,0.1C224.7,15.3,224.7,15.3,224.7,15.3L224.7,15.3z
	 M221.6,16.2c0,0,0,0.1,0,0.1C221.6,16.2,221.6,16.2,221.6,16.2L221.6,16.2z M221.6,16.4C221.6,16.4,221.6,16.4,221.6,16.4
	C221.6,16.5,221.6,16.5,221.6,16.4C221.6,16.4,221.6,16.4,221.6,16.4L221.6,16.4z M221.6,16.5C221.6,16.5,221.6,16.5,221.6,16.5
	C221.6,16.5,221.6,16.5,221.6,16.5C221.6,16.5,221.6,16.5,221.6,16.5C221.6,16.5,221.6,16.5,221.6,16.5L221.6,16.5z M221.5,16.5
	C221.5,16.5,221.5,16.5,221.5,16.5C221.5,16.5,221.5,16.5,221.5,16.5L221.5,16.5z M221.6,16.5C221.6,16.5,221.6,16.5,221.6,16.5
	C221.6,16.5,221.6,16.5,221.6,16.5C221.6,16.5,221.6,16.5,221.6,16.5L221.6,16.5z"/>
<path class="st0" d="M235.9,10.5c-0.3,0-0.5,0.1-0.8,0.2c-0.3,0.1-0.7,0.3-1,0.4c-0.5,0.3-1,0.6-1.5,1c-0.4,0.4-0.8,0.8-1.1,1.3
	c-0.2,0.3-0.2,0.7-0.1,1.1c0.1,0.3,0.3,0.6,0.6,0.8c0.3,0.2,0.7,0.2,1.1,0.1c0.4-0.1,0.6-0.3,0.8-0.6c0.2-0.3,0.5-0.6,0.8-0.8
	c0.4-0.3,0.8-0.5,1.2-0.7c0.2-0.1,0.3-0.1,0.5-0.1c0,0,0,0,0,0c0.1,0,0.2,0,0.3,0.1c0.7,0.2,1.5-0.2,1.7-0.9
	c0.2-0.7-0.2-1.5-0.9-1.7c-0.4-0.1-0.7-0.2-1.1-0.2C236.1,10.4,236,10.4,235.9,10.5L235.9,10.5z M236.4,13.1c0,0,0.1,0,0.1,0
	C236.5,13.1,236.4,13.1,236.4,13.1L236.4,13.1z"/>
<path class="st0" d="M235.7,14.4c-0.2,0.7-0.3,1.4-0.4,2.1c-0.1,0.3-0.1,0.7-0.1,1c0,0.4,0,0.8,0.1,1.1c0.1,0.4,0.2,0.7,0.4,1.1
	c0.2,0.4,0.6,0.5,1,0.4c0.2-0.1,0.4-0.2,0.5-0.4c0.1-0.2,0.2-0.5,0.1-0.7c-0.1-0.2-0.1-0.3-0.1-0.5c0-0.3,0-0.7,0-1
	c0.1-0.9,0.3-1.8,0.5-2.7c0.1-0.5-0.2-1.1-0.7-1.2c-0.1,0-0.2,0-0.3,0C236.2,13.6,235.8,13.9,235.7,14.4L235.7,14.4z M237.1,17.6
	c0,0,0,0.1,0,0.1C237.1,17.7,237.1,17.7,237.1,17.6L237.1,17.6z"/>
<path class="st0" d="M245.7,13.8c-0.5,0.1-0.9,0.4-1.3,0.7c-0.5,0.3-0.9,0.7-1.4,1.1c0.1-0.1,0.2-0.1,0.2-0.2
	c-0.1,0.1-0.2,0.2-0.3,0.3c-0.3-0.5-0.9-0.8-1.5-0.6c-0.7,0.2-1.1,0.9-0.9,1.6c0,0.2,0.1,0.4,0.1,0.5c0.1,0.3,0.2,0.6,0.4,0.8
	c0.2,0.2,0.5,0.4,0.8,0.5c0.3,0.1,0.8,0.1,1.1,0c0.3-0.1,0.5-0.2,0.7-0.4c0.3-0.2,0.6-0.4,0.8-0.7c0.4-0.3,0.8-0.7,1.2-1.1
	c0.2-0.1,0.4-0.3,0.6-0.4c0.1,0,0.1,0,0.2-0.1c0,0,0,0,0,0c0,0,0,0,0.1,0c0.1,0.1,0.2,0.2,0.3,0.3c0.2,0.2,0.3,0.5,0.4,0.7
	c0.2,0.6,0.4,1.3,0.5,2c0,0,0,0.1,0,0.1c0,0.3,0.1,0.6,0.3,0.8c0.2,0.2,0.5,0.3,0.8,0.3c0.3,0,0.6-0.1,0.8-0.3
	c0.2-0.2,0.4-0.5,0.3-0.8c-0.1-0.6-0.2-1.2-0.3-1.8c-0.3-1-0.7-2-1.4-2.7c-0.4-0.4-0.8-0.6-1.3-0.8c-0.2-0.1-0.4-0.1-0.7-0.1
	c0,0,0,0,0,0C246.3,13.6,246,13.7,245.7,13.8L245.7,13.8z M246.5,15.8c0,0,0.1,0,0.1,0c0,0,0,0,0,0
	C246.5,15.8,246.5,15.8,246.5,15.8L246.5,15.8z M246.6,15.9C246.6,15.9,246.6,15.9,246.6,15.9C246.6,15.9,246.6,15.9,246.6,15.9
	C246.6,15.9,246.6,15.9,246.6,15.9L246.6,15.9z M246.5,15.9C246.5,15.9,246.5,15.9,246.5,15.9C246.5,15.9,246.5,15.9,246.5,15.9
	C246.5,15.9,246.5,15.9,246.5,15.9L246.5,15.9z M246.7,15.9C246.8,15.9,246.8,15.9,246.7,15.9C246.8,15.9,246.8,15.9,246.7,15.9
	L246.7,15.9z M246.5,15.9C246.5,15.9,246.5,15.9,246.5,15.9C246.5,15.9,246.4,15.9,246.5,15.9C246.4,15.9,246.5,15.9,246.5,15.9
	L246.5,15.9z M246.8,16C246.9,16,246.9,16,246.8,16C246.9,16,246.9,16,246.8,16L246.8,16z"/>
<path class="st0" d="M258.8,7.3c-0.1,0.1-0.2,0.2-0.2,0.3c-0.1,0.2-0.2,0.5-0.2,0.7c-0.3,2.7-0.7,5.3-1,8c-0.3,2.3-0.6,4.7-0.8,7.1
	c0,0.6,0.4,1.1,1,1.3c0.3,0.1,0.7,0,1-0.1c0.3-0.2,0.6-0.5,0.6-0.8c0.8-5.1,1.4-10.2,2.1-15.4c0-0.4-0.2-0.8-0.4-1
	c-0.3-0.3-0.7-0.4-1-0.4C259.4,6.9,259.1,7.1,258.8,7.3L258.8,7.3z"/>
<path class="st0" d="M264.9,12.3c-3.2,0.2-6.3,0.5-9.5,0.8c-0.2,0-0.4,0.1-0.6,0.2c-0.2,0.2-0.2,0.4-0.2,0.6c0,0.2,0.1,0.4,0.2,0.6
	c0.1,0.1,0.4,0.3,0.6,0.2c3.2-0.4,6.3-0.7,9.5-1c0.2,0,0.4-0.1,0.5-0.2c0.1-0.1,0.2-0.3,0.2-0.5C265.6,12.7,265.3,12.3,264.9,12.3
	C264.9,12.3,264.9,12.3,264.9,12.3L264.9,12.3z"/>
<path class="st0" d="M268.4,11.6c-0.6,0.2-1.3,0.4-1.9,0.6c-0.6,0.3-1.1,0.6-1.6,1c-0.5,0.4-0.9,0.7-1.3,1.2
	c-0.2,0.2-0.4,0.5-0.5,0.7c-0.2,0.4-0.3,0.8-0.3,1.2c0,0.3,0,0.6,0.1,0.9c0.1,0.4,0.3,0.7,0.6,1c0.2,0.2,0.5,0.4,0.7,0.6
	c0.4,0.2,0.8,0.3,1.3,0.4c0.2,0,0.4,0,0.6-0.1c0.1,0,0.3,0,0.4-0.1c0.3-0.1,0.6-0.2,0.9-0.4c0.3-0.1,0.5-0.3,0.8-0.4
	c0.1-0.1,0.2-0.2,0.4-0.2c0,0,0.1,0,0.1-0.1c0.3,0.3,0.7,0.5,1,0.8c0.5,0.3,1,0.6,1.5,0.8c0.3,0.2,0.7,0.2,1,0.1
	c0.3-0.1,0.6-0.3,0.8-0.6c0.4-0.6,0.2-1.5-0.5-1.8c-0.6-0.3-1.1-0.6-1.7-1c-0.3-0.3-0.6-0.5-0.9-0.8c-0.4-0.3-0.8-0.4-1.3-0.3
	c-0.3,0-0.5,0.1-0.8,0.2c-0.2,0.1-0.4,0.2-0.6,0.3c-0.2,0.1-0.4,0.2-0.6,0.3c-0.1,0.1-0.3,0.1-0.4,0.2c-0.2,0.1-0.4,0.1-0.7,0.2
	c0,0,0,0,0,0c0,0,0,0,0,0c0,0,0,0,0,0c0,0,0,0,0,0c0,0,0,0,0,0c0,0,0,0,0-0.1c0,0,0,0,0,0c0.1-0.1,0.1-0.2,0.2-0.3
	c0.3-0.3,0.6-0.6,0.9-0.8c0.4-0.3,0.8-0.5,1.2-0.7c0.5-0.2,0.9-0.3,1.4-0.5c0.7-0.2,1.1-0.9,0.9-1.6c-0.2-0.6-0.7-0.9-1.2-0.9
	C268.7,11.6,268.5,11.6,268.4,11.6L268.4,11.6z M265.3,16.5C265.3,16.5,265.4,16.5,265.3,16.5C265.4,16.5,265.4,16.5,265.3,16.5
	C265.4,16.5,265.3,16.5,265.3,16.5L265.3,16.5z M265.4,16.5C265.4,16.5,265.4,16.5,265.4,16.5C265.4,16.5,265.4,16.5,265.4,16.5
	C265.4,16.5,265.4,16.5,265.4,16.5L265.4,16.5z M265.4,16.5C265.4,16.5,265.4,16.5,265.4,16.5C265.4,16.5,265.4,16.5,265.4,16.5
	C265.4,16.5,265.4,16.5,265.4,16.5L265.4,16.5z M265.4,16.5C265.4,16.5,265.4,16.5,265.4,16.5C265.4,16.5,265.4,16.5,265.4,16.5
	C265.4,16.5,265.4,16.5,265.4,16.5C265.4,16.5,265.4,16.5,265.4,16.5L265.4,16.5z M265.5,16.5c0,0,0,0.1,0,0.1
	C265.5,16.6,265.5,16.6,265.5,16.5C265.5,16.5,265.5,16.5,265.5,16.5L265.5,16.5z M265.4,16.5C265.4,16.6,265.4,16.6,265.4,16.5
	C265.4,16.6,265.4,16.6,265.4,16.5C265.4,16.5,265.4,16.5,265.4,16.5L265.4,16.5z M265.6,16.5c0,0,0.1,0.1,0.1,0.1
	C265.7,16.6,265.6,16.6,265.6,16.5L265.6,16.5z M265.6,16.6c0.1,0,0.1,0,0.2,0.1C265.7,16.6,265.7,16.6,265.6,16.6L265.6,16.6z
	 M265.5,16.6C265.6,16.6,265.6,16.6,265.5,16.6C265.6,16.6,265.6,16.6,265.5,16.6L265.5,16.6z M268.3,17.8
	C268.3,17.8,268.3,17.8,268.3,17.8C268.4,17.8,268.4,17.8,268.3,17.8C268.3,17.8,268.3,17.8,268.3,17.8L268.3,17.8z"/>
<path class="st0" d="M279.9,8.9c-0.2,0.1-0.4,0.2-0.6,0.2c-0.2,0.1-0.4,0.2-0.5,0.3c-0.7,0.5-1.3,1.1-1.9,1.7
	c-0.5,0.6-1,1.3-1.2,2.1c-0.1,0.4-0.2,0.8-0.3,1.2c-0.1,0.4-0.2,0.9-0.2,1.3c0,0.2,0.1,0.5,0.3,0.5c0.2,0.1,0.5-0.1,0.5-0.3
	c0.2-0.9,0.3-1.9,0.7-2.8c0,0,0,0.1,0,0.1c0.1-0.3,0.3-0.6,0.5-0.9c0.3-0.4,0.6-0.7,1-1c0.5-0.4,1-0.7,1.5-0.9
	c0.2-0.1,0.4-0.2,0.7-0.2c0.1,0,0.1,0,0.2,0c0,0,0,0,0,0c0,0,0,0,0.1,0c0.1,0,0.1,0.1,0.2,0.1c0.1,0,0.3,0,0.4,0
	c0.2-0.1,0.4-0.2,0.5-0.4c0.1-0.2,0.1-0.4,0.1-0.6c0-0.1-0.1-0.3-0.2-0.4c-0.1-0.1-0.2-0.2-0.4-0.2c-0.1,0-0.1-0.1-0.2-0.1
	c-0.1-0.1-0.3-0.1-0.4-0.1c0,0-0.1,0-0.1,0C280.2,8.8,280,8.8,279.9,8.9L279.9,8.9z M280.3,10.4C280.3,10.4,280.3,10.4,280.3,10.4
	C280.3,10.4,280.3,10.4,280.3,10.4C280.3,10.4,280.3,10.4,280.3,10.4L280.3,10.4z M280.3,10.4C280.3,10.4,280.3,10.4,280.3,10.4
	C280.3,10.4,280.3,10.4,280.3,10.4C280.3,10.4,280.3,10.4,280.3,10.4L280.3,10.4z"/>
<path class="st0" d="M279.1,12.9c-0.3,0.6-0.6,1.3-0.8,1.9c-0.2,0.5-0.3,0.9-0.4,1.4c-0.1,0.4-0.1,0.8-0.1,1.3
	c0,0.4,0.1,0.8,0.3,1.3c0.2,0.7,0.9,1.1,1.6,0.9c0.7-0.2,1-0.9,0.9-1.6c0-0.2-0.1-0.4-0.1-0.5c0-0.2,0-0.4,0-0.6
	c0.1-0.6,0.4-1.2,0.6-1.8c0.1-0.3,0.3-0.7,0.4-1c0.2-0.3,0.2-0.7,0.1-1c-0.1-0.3-0.3-0.6-0.6-0.8c-0.2-0.1-0.4-0.2-0.7-0.2
	C279.8,12.2,279.3,12.5,279.1,12.9L279.1,12.9z"/>
<path class="st0" d="M288.6,12.2c-0.3,0.2-0.6,0.5-0.8,0.7c-0.1-0.1-0.2-0.2-0.2-0.3c-0.3-0.3-0.8-0.5-1.2-0.5
	c-0.5,0-0.9,0.2-1.2,0.5c-0.1,0.1-0.2,0.2-0.3,0.4c-0.2,0.3-0.2,0.6-0.2,0.9c-0.1,0.6-0.2,1.2-0.2,1.8c-0.1,0.4-0.1,0.8-0.2,1.2
	c0,0.3,0,0.6,0,0.9c0,0.3,0.1,0.6,0.2,0.9c0.2,0.3,0.4,0.5,0.6,0.6c0.7,0.4,1.5,0.3,2.1-0.3c0.2-0.2,0.3-0.3,0.5-0.5
	c0.3-0.3,0.5-0.6,0.7-0.9c0.2-0.3,0.4-0.6,0.5-0.9c0.4-0.6,0.7-1.2,1.1-1.7c0.1-0.1,0.1-0.1,0.2-0.2c0,0.1,0.1,0.1,0.1,0.2
	c0.4,1.1,0.7,2.4,1.1,3.5c0.2,0.7,0.9,1.2,1.7,0.9c0.7-0.2,1.2-1,0.9-1.7c-0.2-0.7-0.4-1.5-0.6-2.2c-0.2-0.6-0.4-1.3-0.6-1.9
	c-0.2-0.4-0.4-0.7-0.7-1.1c-0.3-0.4-0.7-0.7-1.2-0.8c-0.3-0.1-0.5-0.1-0.8-0.1C289.6,11.7,289.1,11.9,288.6,12.2L288.6,12.2z
	 M290.6,14.6C290.5,14.6,290.5,14.6,290.6,14.6C290.5,14.6,290.5,14.6,290.6,14.6L290.6,14.6z M284.3,15.8c0,0.1,0,0.1,0,0.2
	C284.3,16,284.3,15.9,284.3,15.8L284.3,15.8z"/>
<path class="st0" d="M301.5,10.6c-0.1,0-0.3,0.1-0.4,0.2c-0.5,0.3-1,0.7-1.2,1.2c-0.2,0.5-0.1,1.1,0,1.7c0.2,0.7,0.7,1.2,1.1,1.7
	c0,0,0-0.1-0.1-0.1c0.7,0.8,1.4,1.6,2.1,2.5c0.3,0.4,0.6,0.9,0.9,1.4c0,0.1,0.1,0.3,0.1,0.4c0,0.1,0,0.3,0,0.4c0,0,0,0,0,0
	c0,0.1-0.1,0.2-0.1,0.2c-0.1,0.1-0.2,0.2-0.2,0.2c-0.1,0.1-0.2,0.1-0.4,0.2c-0.2,0.1-0.5,0.2-0.7,0.2c-0.4,0.1-0.8,0.2-1.2,0.2
	c-0.2,0-0.3,0-0.5,0c-0.2,0-0.4-0.1-0.6-0.2c-0.3-0.1-0.6-0.3-0.9-0.4c-0.4-0.2-0.7-0.3-1.1-0.1c-0.4,0.1-0.7,0.3-0.9,0.7
	c-0.4,0.7-0.2,1.6,0.5,2c0.7,0.4,1.4,0.8,2.3,1c0.4,0.1,0.9,0.1,1.3,0.1c0.4-0.1,0.9-0.1,1.3-0.2c0.7-0.2,1.5-0.4,2.1-0.8
	c0.3-0.2,0.6-0.5,0.9-0.8c0.3-0.4,0.6-0.8,0.8-1.3c0.2-0.8,0.2-1.6,0-2.4c-0.2-0.8-0.7-1.5-1.2-2.1c-0.9-1.2-2-2.2-3-3.4
	c0-0.1-0.1-0.1-0.1-0.2c0,0,0,0,0-0.1c0.3,0,0.5,0,0.8,0.1c0.4,0.1,0.9,0.2,1.3,0.3c0.4,0.2,0.8,0.5,1.2,0.8
	c0.2,0.2,0.6,0.2,0.9,0.1c0.3-0.1,0.5-0.3,0.7-0.5c0.2-0.3,0.2-0.6,0.1-0.9c-0.1-0.3-0.3-0.5-0.5-0.7c-0.5-0.4-1-0.7-1.6-0.9
	c-0.7-0.3-1.4-0.4-2.1-0.5c-0.3-0.1-0.6-0.1-1-0.1C301.9,10.5,301.7,10.5,301.5,10.6L301.5,10.6z M302.4,12.8c0,0-0.1,0-0.1,0
	c0,0,0,0,0,0C302.3,12.8,302.3,12.8,302.4,12.8L302.4,12.8z M302.1,12.8C302.1,12.8,302.1,12.8,302.1,12.8
	C302.1,12.8,302.1,12.8,302.1,12.8c0,0-0.1,0-0.1,0.1C302,12.9,302.1,12.9,302.1,12.8L302.1,12.8z"/>
<path class="st0" d="M340.7,7.9c-0.1,2.8-0.3,5.7-0.4,8.5c0,0.6-0.1,1.3-0.1,1.9c-0.3,0.6-0.4,1.3-0.6,2c-0.1,0.5-0.1,1-0.2,1.6
	c0,0.6,0.1,1.1,0.2,1.7c0.1,0.3,0.2,0.5,0.4,0.7c0.3,0.3,0.7,0.5,1.2,0.5c0.4,0,0.8-0.1,1.1-0.2c0.4-0.2,0.7-0.7,0.9-1.1
	c0.1-0.5,0.1-1,0.2-1.6c0-0.7,0.1-1.3,0.2-2c0-0.6,0.1-1.2,0.1-1.8c0.1-0.1,0.2-0.3,0.3-0.4c0.3-0.4,0.7-0.8,1.1-1.1
	c0.2-0.2,0.4-0.3,0.7-0.4c0,0,0,0,0,0c0.1,0,0.3,0,0.4,0c0.1,0,0.3,0.1,0.4,0.1c0.2,0.1,0.4,0.2,0.6,0.4c0.3,0.3,0.6,0.6,0.9,1
	c0.5,0.7,1,1.5,1.3,2.3c0.2,0.4,0.3,0.8,0.4,1.3c0,0,0,0,0,0c0,0.4,0.1,0.7,0.4,1c0.3,0.3,0.6,0.4,1,0.4c0.7,0,1.4-0.6,1.4-1.4
	c0-0.5-0.1-0.9-0.2-1.3c-0.1-0.5-0.3-1-0.5-1.4c-0.2-0.4-0.4-0.8-0.6-1.1c-0.3-0.5-0.6-0.9-1-1.4c-0.3-0.3-0.5-0.7-0.8-1
	c-0.4-0.4-0.9-0.7-1.4-1c-0.4-0.2-0.8-0.4-1.3-0.5c-0.6-0.1-1.1-0.1-1.7,0c-0.2,0-0.4,0.1-0.6,0.2c-0.2,0.1-0.4,0.2-0.6,0.3
	c0.1-2,0.2-4,0.3-6c0-0.9-0.8-1.7-1.7-1.7C341.4,6.1,340.7,6.9,340.7,7.9L340.7,7.9z M346,16C345.9,16,345.9,16,346,16
	C345.9,16,345.9,16,346,16L346,16z M349.7,20.8C349.7,20.8,349.7,20.9,349.7,20.8C349.7,20.9,349.7,20.8,349.7,20.8L349.7,20.8z"/>
<path class="st0" d="M363.8,9.7c-0.5,0.1-0.9,0.2-1.4,0.4c-1.5,0.5-3,1-4.1,2.1c-0.6,0.6-0.6,1.6,0,2.2c0.6,0.6,1.6,0.6,2.2,0
	c0.1-0.1,0.1-0.1,0.2-0.2c0.4-0.3,0.7-0.5,1.1-0.7c0.5-0.2,1-0.4,1.6-0.6c0.6-0.2,1.2-0.4,1.8-0.5c0,0,0.1,0,0.1,0
	c0.1,0,0.1,0,0.2,0.1c0.6,0.2,1.3-0.1,1.6-0.7c0.2-0.3,0.2-0.7,0.1-1.1c-0.1-0.3-0.3-0.7-0.7-0.9c-0.5-0.2-0.9-0.4-1.4-0.4
	c0,0,0,0-0.1,0C364.6,9.5,364.2,9.6,363.8,9.7L363.8,9.7z M365,12.5c-0.1,0-0.1,0-0.2,0C364.9,12.5,365,12.5,365,12.5L365,12.5z
	 M360.9,14.1c-0.1,0-0.1,0.1-0.2,0.1C360.8,14.2,360.8,14.1,360.9,14.1L360.9,14.1z"/>
<path class="st0" d="M369.4,14.7c-2.8,0.2-5.6,0.5-8.4,0.9c-0.2,0-0.4,0.1-0.6,0.3c-0.2,0.2-0.3,0.4-0.3,0.6c0,0.2,0.1,0.5,0.3,0.6
	c0.1,0.1,0.4,0.3,0.6,0.3c2.8-0.4,5.6-0.7,8.4-1c0.2,0,0.4-0.1,0.6-0.2c0.2-0.2,0.2-0.4,0.2-0.6C370.2,15.2,369.9,14.7,369.4,14.7
	C369.4,14.7,369.4,14.7,369.4,14.7L369.4,14.7z"/>
<path class="st0" d="M380.4,7.6c-0.3,0.2-0.6,0.4-0.8,0.6c-0.3,0.2-0.6,0.5-0.9,0.8c-0.5,0.5-0.9,1-1.4,1.6
	c-0.5,0.6-0.9,1.2-1.3,1.9c-0.4,0.6-0.7,1.2-1,1.9c-0.2,0.3-0.3,0.7-0.5,1c-0.2,0.4-0.2,0.8-0.3,1.3c-0.1,0.7-0.1,1.5,0.2,2.2
	c0.1,0.3,0.3,0.7,0.5,1c0.2,0.4,0.5,0.7,0.8,1c0.5,0.5,1,0.9,1.7,1.2c0.7,0.3,1.4,0.6,2.2,0.7c0.8,0.1,1.6,0.1,2.4,0
	c0.8-0.1,1.5-0.4,2.3-0.8c1.4-0.7,2.5-1.9,3.3-3.2c0.4-0.6,0.6-1.2,0.9-1.9c0.2-0.6,0.2-1.3,0.2-2c0-0.3-0.1-0.7-0.2-1
	c-0.1-0.4-0.2-0.7-0.4-1.1c-0.1-0.3-0.4-0.7-0.6-0.9c-0.2-0.3-0.5-0.5-0.7-0.7c-0.5-0.4-1-0.8-1.5-1.2c0-0.1,0-0.1,0-0.2
	c-0.1-0.3-0.2-0.6-0.4-0.9c-0.1-0.3-0.3-0.5-0.6-0.8c-0.2-0.2-0.5-0.4-0.7-0.6c-0.3-0.2-0.7-0.2-1.1-0.3c-0.1,0-0.2,0-0.2,0
	C381.5,7.1,380.9,7.4,380.4,7.6L380.4,7.6z M380.5,9.6c0.1,0.1,0.2,0.2,0.3,0.2c0.6,0.3,1.3,0.7,1.8,1.1c0.5,0.4,1,0.7,1.5,1.1
	c0.5,0.4,0.9,0.8,1.3,1.3c0.1,0.2,0.2,0.3,0.3,0.5c0.1,0.3,0.2,0.6,0.2,0.9c0,0.3,0,0.6,0,0.9c-0.1,0.3-0.1,0.6-0.2,0.9
	c-0.2,0.5-0.5,1-0.9,1.5c-0.3,0.4-0.7,0.8-1.1,1.1c-0.4,0.3-0.9,0.6-1.4,0.8c-0.4,0.2-0.8,0.3-1.3,0.3c-0.5,0-1,0.1-1.5,0
	c-0.5-0.1-1-0.2-1.5-0.4c-0.3-0.1-0.5-0.3-0.8-0.4c-0.2-0.2-0.5-0.4-0.7-0.7c-0.2-0.2-0.3-0.5-0.4-0.7c-0.1-0.2-0.1-0.4-0.1-0.6
	c0-0.3,0-0.7,0-1c0.1-0.4,0.2-0.8,0.4-1.3c0.3-0.8,0.7-1.5,1.1-2.2c0.4-0.7,0.9-1.4,1.4-2.1C379.6,10.5,380,10,380.5,9.6L380.5,9.6z
	"/>
<path class="st0" d="M406.2,6.6c-0.6,0.3-1.2,0.6-1.8,1c-1,0.7-1.9,1.6-2.7,2.6c-0.4,0.5-0.8,1.1-1.2,1.6c-0.4,0.6-0.7,1.2-0.9,1.9
	c-0.5,1.3-0.4,2.9,0,4.2c0.2,0.6,0.4,1.3,0.7,1.9c0.3,0.6,0.7,1.1,1.1,1.7c0.9,1.1,1.8,2.2,2.9,3c1.6,1.1,3.5,1.6,5.3,2
	c0.4,0.1,0.7,0.1,1-0.1c0.3-0.2,0.5-0.5,0.6-0.8c0.2-0.7-0.2-1.5-0.9-1.7c-1-0.2-2.1-0.5-3.1-0.9c-0.5-0.2-1-0.5-1.4-0.8
	c-0.4-0.4-0.9-0.8-1.2-1.2c-0.4-0.5-0.9-1-1.3-1.5c-0.3-0.4-0.6-0.8-0.8-1.3c-0.2-0.6-0.4-1.2-0.5-1.8c0-0.4,0-0.7,0-1
	c0.1-0.3,0.1-0.6,0.2-0.9c0.4-0.8,0.9-1.6,1.4-2.3c0.6-0.8,1.3-1.5,2-2.1c0.5-0.3,1-0.6,1.5-0.9c0.2-0.1,0.5-0.2,0.7-0.2
	c0,0,0.1,0,0.1,0c0.7,0,1.3-0.6,1.3-1.3c0-0.7-0.6-1.3-1.3-1.3c0,0,0,0-0.1,0C407.3,6.2,406.7,6.4,406.2,6.6L406.2,6.6z M407.4,9
	c0,0-0.1,0-0.1,0C407.3,9,407.4,9,407.4,9L407.4,9z"/>
<path class="st0" d="M415.1,6.4c-0.1,0.1-0.2,0.2-0.3,0.4c-0.2,0.3-0.2,0.6-0.2,0.9c-0.2,1.5-0.4,3-0.5,4.5
	c-0.1,0.5-0.1,0.9-0.2,1.4c-0.1,0.5-0.1,1-0.1,1.5c-0.1,2.2-0.2,4.4-0.1,6.5c0,0.8,0.7,1.5,1.5,1.5c0.9,0,1.5-0.7,1.5-1.5
	c0.1-2.1,0.3-4.3,0.4-6.4c0.2-2.5,0.5-5,0.9-7.5c0.1-0.4-0.2-0.9-0.5-1.2c-0.3-0.3-0.8-0.5-1.2-0.5S415.4,6.1,415.1,6.4L415.1,6.4z"
	/>
<path class="st0" d="M425.1,13.1c-0.3,0.1-0.6,0.2-0.8,0.3c-0.3,0.1-0.5,0.3-0.8,0.4c-0.5,0.3-0.9,0.7-1.4,1c-0.5,0.4-0.8,0.8-1,1.4
	c-0.1,0.2-0.1,0.4-0.2,0.7c0,0.3,0,0.6,0.1,0.8c0.1,0.3,0.2,0.6,0.4,0.8c0.1,0.2,0.3,0.4,0.6,0.6c0.5,0.4,1,0.6,1.5,0.8
	c0.3,0.1,0.7,0.1,1,0.1c0.3,0,0.6,0,0.9,0c0.3,0,0.7-0.1,1-0.2c0.3-0.1,0.6-0.3,1-0.4c0.6-0.3,1-0.6,1.5-1c0.1,0,0.1,0,0.2,0
	c0.1,0,0.1,0,0.2,0c0.1,0.3,0.1,0.5,0.2,0.8c0.2,0.7,0.4,1.4,0.6,2.1c0.1,0.4,0.2,0.9,0.4,1.3c0.1,0.4,0.2,0.7,0.3,1.1
	c0.1,0.4,0.2,0.7,0.3,1.1c0,0.1,0,0.3,0,0.4c0,0,0,0,0,0c-0.1,0.1-0.2,0.2-0.3,0.3c-0.2,0.1-0.3,0.2-0.5,0.3
	c-0.7,0.3-1.4,0.4-2.1,0.5c-0.4,0.1-0.8,0.1-1.2,0.1c-0.4,0-0.8,0.1-1.2,0c0,0-0.1,0-0.1,0c-0.1-0.1-0.2-0.1-0.3-0.2
	c-0.3-0.3-0.7-0.7-1-1c-0.5-0.5-1.4-0.5-1.9,0c-0.2,0.3-0.4,0.6-0.4,1c0,0.1,0,0.2,0,0.4c0.1,0.2,0.2,0.4,0.3,0.6
	c0.4,0.4,0.7,0.9,1.1,1.3c0.5,0.4,1.1,0.8,1.8,0.9c0.7,0.1,1.3,0.1,2,0.1c0.8,0,1.5-0.1,2.3-0.3c0.6-0.1,1.1-0.3,1.7-0.5
	c0.3-0.1,0.6-0.3,1-0.5c0.3-0.2,0.5-0.4,0.8-0.6c0.2-0.2,0.4-0.5,0.6-0.8c0.2-0.3,0.3-0.6,0.4-0.9c0.1-0.7,0-1.5-0.2-2.3
	c-0.3-0.9-0.6-1.9-0.9-2.8c-0.1-0.4-0.3-0.9-0.4-1.3c-0.4-1.2-0.8-2.4-0.9-3.6c0-0.2,0-0.5,0-0.7c0,0,0,0,0,0c0-0.6-0.3-1.1-0.9-1.3
	c-0.3-0.1-0.7,0-1,0.1c-0.2,0.1-0.3,0.3-0.5,0.5c0,0,0,0.1,0,0.1c-0.2-0.4-0.5-0.8-0.9-1.1c-0.4-0.3-0.9-0.5-1.5-0.5
	c-0.1,0-0.3,0-0.4,0C425.9,12.9,425.5,13,425.1,13.1L425.1,13.1z M426.8,14.2c0.2,0,0.3,0.1,0.5,0.1c0.1,0.1,0.2,0.1,0.3,0.2
	c0.1,0.1,0.2,0.2,0.4,0.3c0.1,0.1,0.2,0.3,0.2,0.4c0.1,0.1,0.1,0.3,0.2,0.4c-0.4,0.4-0.8,0.8-1.3,1.2c-0.4,0.3-0.8,0.5-1.2,0.7
	c-0.3,0.1-0.6,0.2-0.8,0.2c-0.3,0-0.5,0-0.8,0c-0.2,0-0.4-0.1-0.6-0.2c-0.1-0.1-0.2-0.1-0.4-0.2c-0.1-0.1-0.1-0.1-0.2-0.2
	c0-0.1-0.1-0.1-0.1-0.2c0-0.1,0-0.2-0.1-0.2c0,0,0,0,0,0c0-0.1,0.1-0.2,0.1-0.4c0.1-0.1,0.1-0.2,0.2-0.4c0.3-0.4,0.7-0.7,1.1-1.1
	c0.4-0.3,0.7-0.5,1.1-0.7c0.2-0.1,0.4-0.1,0.6-0.2C426.3,14.2,426.6,14.2,426.8,14.2L426.8,14.2z M428.2,15.3
	C428.2,15.3,428.2,15.3,428.2,15.3C428.2,15.3,428.2,15.3,428.2,15.3L428.2,15.3z M428.4,26.3c-0.1,0-0.1,0-0.2,0
	C428.3,26.3,428.3,26.3,428.4,26.3L428.4,26.3z"/>
<path class="st0" d="M441.1,13.4c-0.3,0.2-0.6,0.3-0.9,0.6c-0.3-0.5-0.9-0.9-1.5-0.9c-0.9,0-1.6,0.7-1.6,1.6c0,0.6-0.1,1.1-0.1,1.7
	c0,0.6,0,1.1,0,1.7c0,0.6,0.3,1.1,0.8,1.4c0.3,0.1,0.5,0.2,0.8,0.2c0.4,0,0.9-0.2,1.1-0.5c0.3-0.4,0.6-0.7,0.8-1.1
	c0.2-0.3,0.3-0.6,0.5-0.8c0.3-0.3,0.6-0.6,0.9-0.9c0.2-0.1,0.3-0.2,0.5-0.3c0.1,0,0.2-0.1,0.3-0.1c0.1,0,0.2,0,0.3,0
	c0.1,0,0.1,0,0.2,0c0.2,0.1,0.4,0.2,0.6,0.3c0.4,0.4,0.8,0.8,1.1,1.2c0.4,0.5,0.7,1,1,1.6c0.1,0.2,0.2,0.5,0.2,0.8
	c0,0.1,0,0.2,0,0.3c0,0.3,0.1,0.6,0.2,0.9c0.2,0.4,0.6,0.7,1,0.8c0.2,0,0.3,0.1,0.5,0.1c0.4,0,0.6-0.1,0.9-0.2
	c0.1,0,0.2-0.1,0.3-0.2c0,0,0,0,0.1,0c0.1,0,0.1,0,0.1-0.1c0.1,0,0.2-0.1,0.2-0.1c0.9-0.5,1.1-1.9,0.3-2.6c-0.2-0.2-0.5-0.4-0.8-0.5
	c0,0,0,0,0-0.1c-0.3-0.7-0.8-1.4-1.3-2c-0.5-0.7-1.1-1.3-1.7-1.9c-0.7-0.6-1.5-1-2.3-1.2c-0.2-0.1-0.5-0.1-0.7-0.1
	C442.3,13,441.6,13.1,441.1,13.4L441.1,13.4z M445,17.7c0,0,0.1,0.1,0.1,0.1C445,17.8,445,17.8,445,17.7L445,17.7z"/>
<path class="st0" d="M454.3,2.6c-0.2,0.1-0.3,0.1-0.5,0.3c-0.6,0.5-0.3,1.2,0,1.8c0.1,0.2,0.3,0.5,0.4,0.7c0.2,0.3,0.3,0.5,0.5,0.8
	c0.2,0.3,0.5,0.5,0.9,0.4c0.5,1.5,0.9,3,1.1,4.5c0.1,1.2,0.2,2.3,0.1,3.5c-0.1,0.7-0.3,1.4-0.5,2c-0.3,0.7-0.7,1.4-1.2,2
	c-0.7,0.9-1.4,1.7-2.2,2.5c-0.5,0.5-0.5,1.4,0,1.9c0.5,0.5,1.4,0.5,1.9,0c1.1-1.1,2-2.2,2.8-3.5c0.4-0.6,0.7-1.3,1-2
	c0.3-0.7,0.4-1.4,0.5-2.2c0.2-1.5,0-3.1-0.3-4.6c-0.3-1.4-0.7-2.8-1.2-4.2c-0.3-0.7-0.5-1.4-0.9-2C456.3,4,456,3.4,455.6,3
	c-0.2-0.2-0.5-0.3-0.7-0.4c-0.1,0-0.2,0-0.3,0C454.4,2.6,454.3,2.6,454.3,2.6L454.3,2.6z"/>
<path class="st0" d="M342.4,0c-0.8,0-1.5,0.5-1.7,1.3l0,0c-0.2,1.3-0.5,2.5-0.7,3.8c-0.1,0.4-0.2,0.9-0.2,1.3
	c-0.1,0.5-0.2,0.9-0.2,1.4c0,0.4,0.2,0.8,0.4,1.2c0.2,0.4,0.6,0.6,0.9,0.8c0.6,0.4,1.5,0.2,2-0.3c0.6-0.6,0.6-1.5,0.2-2.1
	c0.3-1.7,0.7-3.5,1-5.2c0.1-0.5,0.1-0.9-0.2-1.3"/>
<path class="st0" d="M29.4,46.1c-0.4,0-0.8,0-1.2,0c-0.7,0-1.3,0-1.9,0c-2.2,0-4.4,0.1-6.6,0.1c-0.8,0-1.4,0.6-1.4,1.4
	c0,0.8,0.7,1.5,1.4,1.4c2.2,0,4.4-0.1,6.5-0.1c0.6,0,1.3,0,1.9,0c0.4,0,0.9,0,1.3,0c0.6,0,1.2-0.1,1.8-0.1c0.5,0.2,1.1,0.1,1.5-0.3
	c0.1-0.1,0.2-0.3,0.3-0.4c0.5-0.7,0-1.8-0.8-2c-0.5-0.1-0.9-0.2-1.4-0.2c-0.1,0-0.1,0-0.2,0C30.1,46.1,29.8,46.1,29.4,46.1
	L29.4,46.1z"/>
<path class="st0" d="M31.8,50.1c-4.4,0.4-8.8,1-13.3,1.5c-0.1,0-0.2,0-0.3,0c-0.2,0.1-0.4,0.2-0.6,0.3c-0.2,0.2-0.4,0.6-0.4,0.9
	s0.1,0.7,0.4,0.9c0.2,0.2,0.6,0.4,0.9,0.4c4.5-0.6,9.1-1.2,13.6-1.9c0.5-0.1,0.8-0.6,0.8-1.1C33,50.6,32.5,50.1,31.8,50.1
	C31.9,50.1,31.9,50.1,31.8,50.1L31.8,50.1z"/>
<path class="st0" d="M27.2,40c-0.1,0.2-0.2,0.4-0.2,0.7c0,0.2,0.2,0.4,0.3,0.6c0.2,0.2,0.3,0.5,0.4,0.7c0.1,0.2,0.3,0.4,0.4,0.6
	c0.2,0.2,0.5,0.3,0.7,0.2c0.2-0.1,0.3-0.5,0.2-0.7C29,42,29,41.9,28.9,41.8c0.1,0.1,0.3,0.2,0.4,0.3c0.3,0.2,0.7,0.5,1,0.7
	c0.5,0.4,0.9,0.7,1.4,1.1c0.6,0.5,1.1,1.1,1.6,1.6c0.1,0.2,0.3,0.4,0.4,0.6c0,0.1,0.1,0.3,0.1,0.4c0,0.2,0,0.5,0,0.7
	c-0.1,0.4-0.2,0.8-0.3,1.2c-0.3,0.7-0.7,1.3-1.1,1.9c-0.8,1-1.7,1.9-2.7,2.8c-0.6,0.5-1.2,1.1-1.8,1.6c-0.3,0.2-0.4,0.6-0.4,1
	c0,0.4,0.1,0.7,0.4,1c0.3,0.3,0.6,0.4,1,0.4c0.1,0,0.2,0,0.4,0c0.2-0.1,0.4-0.2,0.6-0.4c1.1-0.9,2.1-1.9,3-2.9
	c0.5-0.6,1-1.1,1.4-1.7c0.5-0.6,0.8-1.2,1.2-1.9c0.7-1.4,1-3,0.5-4.4c-0.1-0.4-0.3-0.7-0.6-1c-0.2-0.3-0.5-0.5-0.7-0.7
	c-0.3-0.2-0.6-0.5-0.8-0.7c-0.4-0.4-0.9-0.7-1.4-1c-0.2-0.1-0.4-0.2-0.5-0.3c-0.2-0.1-0.4-0.3-0.7-0.4c-0.5-0.3-1-0.6-1.5-0.9
	c-0.3-0.2-0.6-0.3-0.9-0.5s-0.6-0.3-0.9-0.4c-0.1,0-0.1,0-0.2,0C27.5,39.7,27.3,39.9,27.2,40L27.2,40z"/>
<path class="st0" d="M52,47.6c-0.8,0-1.6,0.3-2.3,0.6c-1.3,0.6-2.4,1.6-3.5,2.6c-0.2,0.2-0.5,0.5-0.7,0.8c-0.2,0.3-0.3,0.6-0.4,0.9
	c-0.3,0.7-0.2,1.4-0.1,2.1c0.1,0.3,0.3,0.7,0.4,1c0.2,0.3,0.4,0.6,0.6,0.9c0.2,0.3,0.6,0.5,0.9,0.7c0.2,0.1,0.3,0.2,0.5,0.3
	c0.2,0.1,0.4,0.2,0.7,0.2c0.7,0.2,1.5,0.1,2.3-0.1c0.8-0.2,1.5-0.6,2.2-1c0.6-0.4,1.2-0.9,1.7-1.3c0.2-0.2,0.3-0.3,0.5-0.5
	c0.1,0.1,0.2,0.2,0.3,0.3c0.6,0.4,1.2,0.7,1.9,1c1.4,0.6,2.9,0.7,4.4,0.8c0.7,0,1.3-0.6,1.3-1.3c0-0.4-0.1-0.7-0.4-1
	c-0.1-0.1-0.2-0.1-0.3-0.2c-0.2-0.1-0.4-0.2-0.7-0.2c-0.1,0-0.1,0-0.2,0c-1.3-0.2-2.5-0.5-3.7-1c-0.3-0.1-0.6-0.3-0.8-0.5
	c-0.1-0.1-0.2-0.1-0.2-0.2c-0.1-0.1-0.2-0.3-0.2-0.4c-0.1-0.2-0.2-0.3-0.4-0.4c0,0,0-0.1,0-0.1c0.1-0.7-0.2-1.4-0.5-2
	c-0.2-0.3-0.4-0.6-0.6-0.9c-0.2-0.3-0.5-0.5-0.9-0.7c-0.3-0.2-0.6-0.3-0.9-0.3C52.7,47.6,52.4,47.6,52,47.6C52,47.6,52,47.6,52,47.6
	L52,47.6z M52.6,49.7c0.1,0,0.3,0.1,0.4,0.1c0.1,0,0.1,0.1,0.2,0.1c0.1,0.1,0.3,0.3,0.4,0.4c0.1,0.2,0.2,0.3,0.3,0.5
	c0.1,0.2,0.1,0.3,0.1,0.5c0,0.1,0,0.2,0,0.3c-0.1,0.1-0.3,0.2-0.4,0.3c0,0-0.1,0.1-0.1,0.1c-0.1,0.1-0.1,0.2-0.2,0.2
	c-0.1,0.1-0.2,0.3-0.3,0.4c-0.4,0.5-0.9,0.9-1.4,1.3c-0.4,0.3-0.9,0.6-1.3,0.8c-0.3,0.1-0.6,0.2-1,0.3c-0.1,0-0.3,0-0.4,0
	c-0.1,0-0.3-0.1-0.4-0.1c-0.1-0.1-0.2-0.1-0.3-0.2c-0.1-0.1-0.2-0.2-0.4-0.4c-0.1-0.2-0.2-0.3-0.3-0.5c0-0.1-0.1-0.2-0.1-0.3
	c0-0.1,0-0.1,0-0.2c0-0.2,0.1-0.3,0.1-0.5c0.1-0.1,0.1-0.3,0.2-0.4c0.5-0.6,1.1-1.2,1.7-1.7c0.5-0.4,1-0.7,1.6-0.9
	c0.3-0.1,0.6-0.2,0.9-0.2C52.2,49.7,52.4,49.7,52.6,49.7L52.6,49.7z M53,52.9C53,52.9,53,52.9,53,52.9C53,52.9,53,52.9,53,52.9
	L53,52.9z M61,54.2c0.1,0,0.2,0,0.3,0C61.2,54.2,61.1,54.2,61,54.2L61,54.2z"/>
<path class="st0" d="M63.8,41.4c-0.8,4.4-1.7,8.8-2.2,13.2c-0.1,0.6,0.5,1.2,1,1.4c0.7,0.2,1.6-0.2,1.7-1c0.8-4.3,1.6-8.5,2.4-12.8
	c0.1-0.4,0.1-0.8-0.2-1.2c-0.2-0.3-0.5-0.6-0.9-0.7c-0.1,0-0.3-0.1-0.4-0.1C64.6,40.2,63.9,40.7,63.8,41.4L63.8,41.4z"/>
<path class="st0" d="M67.8,41.6c-0.1,0.1-0.2,0.2-0.3,0.3c-0.1,0.2-0.2,0.5-0.2,0.8c-0.3,2.2-0.6,4.5-0.9,6.7
	c-0.1,0.9-0.2,1.9-0.4,2.8c-0.1,0.5-0.1,1.1-0.2,1.6c0,0.2,0,0.4-0.1,0.6c-0.1,0.6-0.1,1.2,0,1.8c0.1,0.9,0.7,1.6,1.6,1.6
	c0.8,0,1.6-0.7,1.6-1.6c0-1.4,0.2-2.7,0.4-4c0.1-0.9,0.2-1.9,0.4-2.8c0.3-2.2,0.6-4.5,0.9-6.7c0.1-0.4-0.2-0.9-0.5-1.1
	c-0.3-0.3-0.7-0.5-1.1-0.5S68.1,41.3,67.8,41.6L67.8,41.6z"/>
<path class="st0" d="M87.1,47.4c-0.3,0.1-0.6,0.2-0.8,0.4c-0.3,0.1-0.5,0.3-0.7,0.5c-0.4,0.4-0.8,0.8-1.1,1.3
	c-0.3,0.5-0.5,1-0.6,1.6c-0.1,0.6,0,1.2,0.1,1.8c0.2,1.1,1,2.2,1.8,2.9c0.5,0.4,1,0.7,1.6,0.8c0.6,0.2,1.3,0.1,1.9,0
	c0.3-0.1,0.6-0.2,0.9-0.4c0.3-0.1,0.5-0.3,0.8-0.4c0.5-0.4,1-0.8,1.3-1.3c0.4-0.5,0.6-1,0.8-1.6c0.2-0.7,0.1-1.4-0.1-2
	c-0.2-0.6-0.5-1.1-0.8-1.5c-0.2-0.2-0.4-0.4-0.7-0.5c-0.2-0.1-0.5-0.2-0.8-0.3c-0.1,0-0.2,0-0.3,0c-0.1-0.1-0.1-0.2-0.2-0.3
	c-0.2-0.2-0.3-0.3-0.5-0.4c-0.2-0.2-0.6-0.3-0.8-0.4c-0.3-0.1-0.6-0.2-0.9-0.2C87.7,47.3,87.4,47.3,87.1,47.4L87.1,47.4z M87.9,49.6
	c0.1,0,0.2,0,0.3,0.1c0.1,0.1,0.3,0.1,0.4,0.2c0,0,0,0,0,0c0.2,0.2,0.4,0.3,0.6,0.3c0.1,0.4,0.4,0.7,0.8,0.8c0,0,0.1,0,0.1,0
	c0,0,0,0,0,0c0.1,0.1,0.1,0.2,0.2,0.3c0.1,0.2,0.1,0.4,0.2,0.7c0,0.1,0,0.1,0,0.2c0,0.1-0.1,0.3-0.1,0.4c-0.1,0.2-0.2,0.3-0.3,0.5
	c-0.2,0.2-0.3,0.3-0.5,0.5c-0.2,0.2-0.5,0.3-0.8,0.5c-0.1,0.1-0.3,0.1-0.4,0.1c-0.1,0-0.3,0-0.4,0c-0.1,0-0.2-0.1-0.4-0.1
	c-0.1-0.1-0.2-0.1-0.3-0.2c-0.2-0.2-0.4-0.4-0.6-0.6c-0.1-0.2-0.2-0.4-0.3-0.6c-0.1-0.2-0.1-0.5-0.2-0.7c0-0.2,0-0.4,0-0.5
	c0-0.2,0.1-0.3,0.1-0.5c0.1-0.2,0.2-0.4,0.4-0.6c0.1-0.2,0.3-0.3,0.4-0.4c0.2-0.1,0.3-0.2,0.5-0.3C87.7,49.6,87.8,49.6,87.9,49.6
	L87.9,49.6z M90.3,51.1c0,0,0.1,0.1,0.1,0.1C90.3,51.2,90.3,51.1,90.3,51.1L90.3,51.1z"/>
<path class="st0" d="M97,48.4c0.1,2.9,0.2,5.7,0.3,8.6c0.1,2.2,0.1,4.5,0.2,6.7c0,0.8,0.1,1.6,0.3,2.4c0,0.3,0.3,0.5,0.5,0.7
	c0.3,0.2,0.6,0.2,0.9,0.1c0.3-0.1,0.5-0.3,0.7-0.5c0.2-0.3,0.2-0.5,0.1-0.9c0-0.1,0-0.2,0-0.2c-0.1-1.1-0.2-2.2-0.2-3.3
	c-0.1-1.3-0.1-2.6-0.2-3.9c-0.1-2.3-0.2-4.7-0.3-7c0-0.9-0.1-1.8-0.1-2.7c0-0.5-0.4-1-1-1C97.4,47.5,97,47.9,97,48.4L97,48.4z"/>
<path class="st0" d="M99.7,48.4c-0.4,0.1-0.8,0.4-1.1,0.6c-0.5,0.4-1,1-1.3,1.6c-0.3,0.7-0.5,1.5-0.5,2.2c0,0.5,0.5,1,1,1
	c0.5,0,1-0.4,1-1c0-0.1,0-0.2,0-0.3c0.1-0.3,0.1-0.7,0.3-1c0.1-0.2,0.2-0.3,0.3-0.5c0.1-0.2,0.3-0.3,0.4-0.5
	c0.1-0.1,0.3-0.2,0.4-0.3c0,0,0,0,0.1,0c0.1,0,0.1,0,0.2,0c0.1,0,0.2,0.1,0.3,0.1c0.1,0,0.2,0.1,0.2,0.1c0.2,0.1,0.3,0.3,0.4,0.5
	c0.2,0.2,0.3,0.4,0.4,0.7c0.1,0.1,0.1,0.3,0.1,0.5c0,0.3,0,0.6,0,0.9c0,0.2-0.1,0.5-0.2,0.7c-0.1,0.3-0.2,0.6-0.3,0.8
	c-0.1,0.1-0.2,0.3-0.2,0.4c-0.1,0.1-0.3,0.3-0.4,0.4c-0.2,0.2-0.3,0.5-0.3,0.8c0,0.3,0.1,0.6,0.3,0.8c0.2,0.2,0.5,0.3,0.8,0.3
	c0.3,0,0.6-0.1,0.8-0.3c0.1-0.1,0.2-0.1,0.3-0.2c0.2-0.1,0.3-0.3,0.4-0.5c0.2-0.3,0.4-0.7,0.5-1.1c0.1-0.3,0.2-0.6,0.2-0.9
	c0.1-0.4,0.2-0.8,0.2-1.2c0.1-0.7,0-1.4-0.2-2c-0.3-0.7-0.7-1.4-1.3-1.9c-0.5-0.5-1.2-0.8-2-0.9c-0.1,0-0.2,0-0.2,0
	C100.2,48.3,100,48.3,99.7,48.4L99.7,48.4z"/>
<path class="st0" d="M110.7,47.7c-0.7,0.2-1.4,0.6-2,1.1c-0.5,0.4-0.9,1-1.1,1.6c-0.1,0.3-0.2,0.7-0.2,1c-0.3,0.2-0.6,0.6-0.6,1
	c0,0.6,0.5,1.3,1.2,1.2c0.1,0.2,0.3,0.4,0.5,0.6c0.4,0.6,1.1,0.9,1.7,1.3c0.9,0.5,1.8,0.8,2.8,1.1c0.6,0.2,1.1,0.4,1.7,0.5
	c0.7,0.2,1.4-0.2,1.5-0.9c0.2-0.7-0.2-1.3-0.9-1.5c-1.1-0.3-2.3-0.7-3.4-1.2c-0.2-0.1-0.5-0.2-0.7-0.3c0.3-0.1,0.7-0.1,1-0.2
	c0.6-0.1,1.2-0.3,1.7-0.6c0.7-0.4,1.1-1.2,1.1-2c0-0.7-0.2-1.4-0.6-1.9c-0.5-0.5-1.1-0.8-1.8-1c-0.2,0-0.5-0.1-0.7-0.1
	C111.6,47.5,111.2,47.5,110.7,47.7L110.7,47.7z M112.2,49.8c0.1,0,0.3,0.1,0.4,0.1c0.1,0,0.1,0.1,0.2,0.1c0,0,0,0,0,0
	c0,0,0,0.1,0,0.1c0,0,0,0,0,0.1c0,0,0,0,0,0c0,0,0,0,0,0c0,0,0,0,0,0c-0.8,0.3-1.6,0.4-2.4,0.6c-0.1,0-0.3,0-0.4,0
	c0-0.1,0.1-0.2,0.1-0.2c0.1-0.1,0.2-0.2,0.3-0.3c0.2-0.2,0.4-0.3,0.7-0.4c0.2-0.1,0.4-0.1,0.6-0.2C111.9,49.8,112,49.8,112.2,49.8
	L112.2,49.8z M112.9,50.1C112.9,50.1,112.9,50.1,112.9,50.1C112.9,50.1,112.9,50.1,112.9,50.1C112.9,50.1,112.9,50.1,112.9,50.1
	L112.9,50.1z M112.9,50.1C112.9,50.2,112.9,50.2,112.9,50.1C112.9,50.2,112.9,50.2,112.9,50.1C112.9,50.1,112.9,50.1,112.9,50.1
	L112.9,50.1z M112.9,50.2C112.9,50.2,112.9,50.2,112.9,50.2C112.9,50.2,112.9,50.2,112.9,50.2C112.9,50.2,112.9,50.2,112.9,50.2
	L112.9,50.2z M112.9,50.2C112.9,50.2,112.9,50.2,112.9,50.2C112.9,50.2,112.9,50.2,112.9,50.2C112.9,50.2,112.9,50.2,112.9,50.2
	C112.9,50.2,112.9,50.2,112.9,50.2L112.9,50.2z M112.9,50.2C112.9,50.3,112.9,50.3,112.9,50.2C112.9,50.3,112.9,50.3,112.9,50.2
	C112.9,50.2,112.9,50.2,112.9,50.2L112.9,50.2z M112.8,50.4c0,0.1-0.1,0.1-0.1,0.1C112.7,50.5,112.8,50.4,112.8,50.4
	C112.8,50.4,112.8,50.4,112.8,50.4L112.8,50.4z M112.7,50.4C112.7,50.5,112.6,50.5,112.7,50.4C112.6,50.5,112.7,50.5,112.7,50.4
	L112.7,50.4z"/>
<path class="st0" d="M127.7,47.5c-0.6,0-1.3,0.1-1.9,0.2c-0.8,0.1-1.6,0.2-2.4,0.4c-0.7,0.1-1.3,0.3-1.9,0.6
	c-0.2,0.1-0.4,0.3-0.6,0.4c-0.2,0.2-0.4,0.4-0.6,0.6c-0.3-0.2-0.7-0.3-1.1-0.2c-0.7,0.2-1.2,1-1,1.7c0.2,0.8,0.4,1.5,0.6,2.3
	c0,0.1,0,0.2,0,0.4c0,0.6,0.4,1.1,1,1.3c0.3,0.1,0.7,0,1-0.1c0.3-0.2,0.5-0.5,0.6-0.8c0.1-0.3,0.1-0.5,0.1-0.8c0-0.1,0-0.3-0.1-0.4
	c0.1-0.5,0.2-0.9,0.4-1.4c0.1-0.1,0.1-0.2,0.2-0.3c0.1-0.1,0.3-0.3,0.4-0.4c0.2-0.1,0.3-0.2,0.5-0.3c1-0.4,2-0.6,3.1-0.8
	c0.7-0.1,1.3-0.3,2-0.4c0.2,0,0.3-0.1,0.5-0.3c0.2-0.2,0.3-0.5,0.3-0.7C128.7,48,128.3,47.5,127.7,47.5
	C127.7,47.5,127.7,47.5,127.7,47.5L127.7,47.5z"/>
<path class="st0" d="M134.2,47.4c-2,0-4,0.6-5.7,1.8c-0.8,0.6-1.5,1.3-2.1,2.2c-0.2,0.4-0.4,0.9-0.5,1.3c-0.1,0.6-0.1,1.2,0.1,1.7
	c0.2,0.5,0.5,0.9,0.9,1.3c0.4,0.4,0.8,0.6,1.3,0.7c0.2,0.1,0.5,0.1,0.8,0.1c0.2,0,0.4,0,0.6,0c0.6,0,1.1-0.2,1.6-0.5
	c0.5-0.2,0.9-0.6,1.3-0.9c0.2-0.2,0.4-0.4,0.6-0.6c0.3,0.4,0.6,0.9,1,1.3c0.2,0.2,0.4,0.3,0.6,0.3c0.3,0.1,0.7,0,1-0.1
	c0.3-0.2,0.5-0.5,0.6-0.8c0.1-0.3,0.1-0.8-0.1-1c-0.4-0.5-0.8-1.1-1.1-1.7c-0.1-0.2-0.1-0.4-0.2-0.7c0-0.2,0-0.3,0-0.5
	c0-0.2-0.1-0.5-0.2-0.7c-0.1-0.3-0.4-0.5-0.7-0.6c0.8,0,1.4-0.6,1.4-1.4C135.6,48.1,135,47.4,134.2,47.4
	C134.2,47.4,134.2,47.4,134.2,47.4L134.2,47.4z M132.9,50.4c-0.3,0.2-0.5,0.4-0.5,0.8c0,0,0,0.1,0,0.1c-0.1,0.2-0.2,0.3-0.3,0.5
	c-0.4,0.5-0.8,0.9-1.3,1.3c-0.3,0.2-0.5,0.3-0.8,0.5c-0.2,0.1-0.3,0.1-0.5,0.1c-0.1,0-0.1,0-0.2,0c-0.1,0-0.1,0-0.2-0.1
	c0,0-0.1-0.1-0.1-0.1c0-0.1-0.1-0.1-0.1-0.2c0,0,0,0,0-0.1c0-0.1,0.1-0.3,0.1-0.4c0.1-0.1,0.1-0.2,0.2-0.3c0.3-0.3,0.6-0.6,0.9-0.9
	c0.5-0.3,1-0.6,1.5-0.9C132,50.7,132.5,50.5,132.9,50.4L132.9,50.4z M128.8,53.2c0,0,0,0.1,0,0.1C128.8,53.2,128.8,53.2,128.8,53.2
	L128.8,53.2z"/>
<path class="st0" d="M140.9,45.1c-0.1,0.4-0.2,0.8-0.3,1.2c-0.1,0.3,0,0.7,0.3,0.9c0,0.6-0.1,1.1-0.1,1.7c0,0.5-0.1,1-0.1,1.5
	c-0.1,0.8-0.1,1.7-0.2,2.5c-0.1,0.9-0.1,1.8-0.2,2.7c-0.1,0.9-0.1,1.7,0,2.6c0,0.3,0.1,0.6,0.3,0.8c0.2,0.2,0.5,0.3,0.8,0.3
	s0.6-0.1,0.8-0.3c0.2-0.2,0.4-0.5,0.3-0.8c-0.1-0.9,0-1.9,0-2.8c0-0.9,0-1.8,0.1-2.7c0-0.9,0.1-1.8,0.1-2.8c0-0.8,0.1-1.6,0.1-2.4
	c0-0.3,0-0.6,0-0.9c0-0.3,0-0.5,0-0.8c0-0.3-0.1-0.6-0.2-0.9c-0.1-0.3-0.4-0.4-0.7-0.5c-0.1,0-0.2,0-0.2,0
	C141.3,44.4,140.9,44.7,140.9,45.1L140.9,45.1z M141,45.7C141,45.7,141,45.7,141,45.7C141,45.7,141,45.7,141,45.7L141,45.7z"/>
<path class="st0" d="M146.3,45.2c-0.8,0.1-1.7,0.1-2.5,0.2c-0.7,0.1-1.4,0.2-2,0.3c-0.6,0.1-1.2,0.3-1.8,0.5
	c-0.3,0.1-0.6,0.3-0.9,0.4c-0.2,0.1-0.4,0.3-0.5,0.4c-0.2,0.2-0.4,0.5-0.4,0.7c-0.1,0.5-0.1,0.9,0.1,1.3c0.2,0.4,0.5,0.6,0.8,0.9
	c0.3,0.3,0.6,0.5,0.9,0.8c0.3,0.2,0.5,0.4,0.9,0.4c0.3,0,0.7-0.1,0.9-0.4c0.5-0.5,0.5-1.3,0-1.8c-0.2-0.2-0.4-0.3-0.5-0.5
	c1.2-0.3,2.4-0.5,3.6-0.7c0.5-0.1,1-0.1,1.5-0.2c0.4,0,0.7-0.1,0.9-0.4c0.2-0.2,0.4-0.6,0.4-0.9C147.6,45.9,147,45.2,146.3,45.2
	C146.3,45.2,146.3,45.2,146.3,45.2L146.3,45.2z"/>
<path class="st0" d="M149.1,47.1c0,0.8,0.7,1.5,1.5,1.5s1.5-0.7,1.5-1.5s-0.7-1.5-1.5-1.5S149.1,46.3,149.1,47.1L149.1,47.1z"/>
<path class="st0" d="M151.7,49.4c-0.2,0.4-0.5,0.8-0.6,1.3c-0.2,0.4-0.3,0.8-0.4,1.2c-0.2,0.6-0.2,1.2-0.2,1.8
	c0,0.6,0.5,1.2,1.2,1.2c0.7,0,1.2-0.5,1.2-1.2c0-0.2,0-0.3,0-0.5c0.1-0.4,0.2-0.8,0.4-1.2c0.2-0.4,0.4-0.9,0.7-1.3
	c0.3-0.6,0.1-1.4-0.4-1.7c-0.2-0.1-0.4-0.2-0.6-0.2C152.4,48.8,152,49,151.7,49.4L151.7,49.4z"/>
<path class="st0" d="M160.5,49.9c-0.4,0.1-0.7,0.4-0.9,0.8c-0.5-0.1-1.1,0-1.7,0.1c-0.4,0.1-0.7,0.3-1.1,0.5c-0.4,0.3-0.7,0.6-0.9,1
	c-0.3,0.4-0.4,0.9-0.4,1.3c0,0.4,0,0.8,0.1,1.2c0.2,0.8,0.6,1.5,1.4,1.9c1.6,0.8,3.5,0,4.7-1.1c0.1-0.1,0.2-0.3,0.3-0.4
	c0.1-0.2,0.2-0.4,0.3-0.7c0.1-0.4,0.2-0.8,0.2-1.2c0-0.4-0.1-0.9-0.1-1.3c-0.1-0.4-0.2-0.8-0.4-1.2c-0.1-0.3-0.3-0.6-0.6-0.8
	c-0.2-0.1-0.4-0.2-0.6-0.2C160.7,49.9,160.6,49.9,160.5,49.9L160.5,49.9z M159.3,53.4c0.1,0,0.1,0,0.2,0.1c0.1,0,0.2,0.1,0.3,0.1
	c0,0,0,0,0,0c0,0,0,0,0,0c-0.1,0.1-0.1,0.1-0.2,0.2c-0.2,0.1-0.4,0.2-0.6,0.3c-0.2,0.1-0.4,0.1-0.6,0.1c0,0-0.1,0-0.1,0
	c0,0,0,0-0.1,0c0,0,0,0,0,0c0,0,0-0.1,0-0.1c0-0.1,0-0.3,0-0.4c0,0,0,0,0,0c0,0,0,0,0,0c0,0,0.1-0.1,0.1-0.1c0,0,0.1,0,0.1-0.1
	c0.1,0,0.2-0.1,0.3-0.1C159,53.4,159.2,53.4,159.3,53.4L159.3,53.4z M158.5,53.4C158.4,53.5,158.4,53.5,158.5,53.4
	C158.4,53.5,158.4,53.5,158.5,53.4C158.4,53.5,158.4,53.5,158.5,53.4L158.5,53.4z M158.4,53.5C158.4,53.5,158.4,53.5,158.4,53.5
	C158.4,53.5,158.4,53.5,158.4,53.5C158.4,53.5,158.4,53.5,158.4,53.5L158.4,53.5z M158.3,53.8C158.3,53.9,158.3,53.9,158.3,53.8
	C158.3,53.9,158.3,53.9,158.3,53.8L158.3,53.8z"/>
<path class="st0" d="M163.8,48.1c-0.3,0.3-0.4,0.9,0,1.2c0.4,0.4,0.8,0.8,1.1,1.3c0.7,1,1.3,2.1,1.9,3.2c0.3,0.5,0.5,1.1,0.8,1.6
	c0.1,0.2,0.1,0.4,0.2,0.5c0,0.2,0,0.3,0,0.5c0,0.5,0.3,0.9,0.8,1c0.5,0.1,1.2-0.2,1.3-0.7c0.1-0.3,0.1-0.5,0-0.7c0,0,0,0,0,0
	c0-0.1,0-0.1,0-0.2c0.1-0.7,0.4-1.4,0.6-2c0,0.1-0.1,0.2-0.1,0.3c0.4-1,0.9-2,1.5-2.9c0,0,0.1-0.1,0.1-0.1c0,0,0,0,0.1,0
	c0,0,0.1,0.1,0.1,0.1c0.1,0.2,0.2,0.3,0.2,0.5c0.2,0.5,0.3,1,0.5,1.5c0.1,0.2,0.1,0.4,0.2,0.6c0.1,0.5,0.4,1,0.6,1.4
	c0.3,0.6,1.1,0.7,1.7,0.4c0.3-0.2,0.5-0.4,0.6-0.7c0.1-0.3,0-0.6-0.1-0.9c-0.1-0.1-0.1-0.3-0.2-0.4c-0.2-0.5-0.4-1.1-0.6-1.7
	c-0.2-0.6-0.5-1.3-0.9-1.8c-0.4-0.6-1.1-1.1-1.9-1.1c-0.4,0-0.8,0.2-1.1,0.4c-0.3,0.2-0.6,0.5-0.8,0.8c-0.4,0.6-0.8,1.2-1.1,1.8
	c-0.2,0.4-0.4,0.9-0.6,1.4c0,0,0-0.1-0.1-0.1c-1-1.7-1.9-3.5-3.4-4.9c-0.2-0.2-0.4-0.3-0.6-0.3C164.2,47.9,164,47.9,163.8,48.1
	L163.8,48.1z M171.9,50.7C172,50.7,172,50.7,171.9,50.7C172,50.7,172,50.7,171.9,50.7L171.9,50.7z M172.2,50.8
	C172.2,50.8,172.2,50.8,172.2,50.8C172.2,50.8,172.2,50.8,172.2,50.8C172.2,50.8,172.2,50.8,172.2,50.8L172.2,50.8z"/>
<path class="st0" d="M180.6,45.8c-0.3,0.1-0.7,0.2-1,0.4c-0.7,0.5-0.9,1.3-0.9,2.1c0,0.4,0.1,0.8,0.2,1.2c0.1,0.4,0.3,0.8,0.4,1.2
	c0.3,0.7,0.7,1.4,1.1,2.1c0.2,0.3,0.4,0.7,0.6,1c0.1,0.1,0.2,0.3,0.3,0.4c0.1,0.1,0.1,0.2,0.2,0.3c-0.1,0-0.2,0-0.3,0
	c-0.8,0.1-1.6,0-2.4,0c-0.5,0-1,0-1.5,0c-1,0-2.1-0.1-3.1-0.1c-0.7,0-1.2,0.6-1.2,1.2c0,0.3,0.1,0.6,0.4,0.9
	c0.2,0.2,0.5,0.3,0.9,0.4c1.4,0.1,2.9,0.2,4.3,0.2c0.3,0,0.7,0,1,0c0.4,0,0.9,0,1.3,0c0.5,0,0.9-0.1,1.4-0.2
	c0.4-0.1,0.7-0.2,1.1-0.4c0.2-0.1,0.3-0.2,0.4-0.3c0.2-0.2,0.3-0.5,0.4-0.7c0.1-0.1,0.1-0.4,0-0.6c0-0.3-0.1-0.5-0.1-0.7
	c-0.1-0.4-0.3-0.7-0.6-1c-0.3-0.4-0.5-0.7-0.7-1.1c-0.6-0.8-1.1-1.7-1.6-2.6c-0.2-0.4-0.3-0.8-0.4-1.2c0-0.1,0-0.3,0-0.4
	c0-0.1,0-0.1,0-0.1c0.2-0.1,0.4-0.1,0.6-0.2c0.4,0,0.8,0,1.2,0c0.5,0.1,1,0.2,1.5,0.4c0.4,0.2,0.8,0.4,1.1,0.5
	c0.4,0.2,1,0.1,1.2-0.3c0.2-0.4,0.1-1-0.3-1.2c-0.7-0.3-1.3-0.7-2-0.9c-0.8-0.3-1.6-0.4-2.4-0.4c-0.1,0-0.1,0-0.2,0
	C181.3,45.7,181,45.8,180.6,45.8L180.6,45.8z M180.9,47.8C180.9,47.8,180.9,47.8,180.9,47.8C180.9,47.8,180.9,47.8,180.9,47.8
	L180.9,47.8z M182.4,54.3C182.4,54.3,182.3,54.3,182.4,54.3C182.3,54.3,182.4,54.3,182.4,54.3L182.4,54.3z"/>
<path class="st0" d="M221.5,44.6c-0.5,0.1-1,0.3-1.5,0.5c-0.5,0.2-0.9,0.5-1.3,0.8c-0.7,0.5-1.3,1.1-1.9,1.7
	c-0.4,0.4-0.8,0.8-1.2,1.2c-0.3,0.3-0.7,0.7-1,1.1c0-0.1-0.1-0.2-0.1-0.3c-0.1-0.5-0.4-0.9-0.5-1.4c-0.2-0.4-0.3-0.7-0.7-1
	c-0.4-0.2-0.8-0.3-1.2-0.2c-0.4,0.1-0.8,0.4-1,0.7c-0.2,0.3-0.3,0.9-0.2,1.2c0.1,0.3,0.3,0.7,0.4,1c0.1,0.3,0.2,0.6,0.3,1
	c0.1,0.3,0.2,0.6,0.4,0.9c0.1,0.2,0.2,0.3,0.3,0.5c0.1,0.2,0.4,0.4,0.6,0.5c0.3,0.2,0.6,0.3,0.9,0.3c0.5,0.1,0.9,0.1,1.4-0.1
	c0.4-0.1,0.7-0.3,1-0.6c0.3-0.2,0.5-0.5,0.7-0.8c0.5-0.6,1-1.2,1.6-1.7c0.7-0.7,1.3-1.4,2.1-2c0.4-0.3,0.8-0.5,1.3-0.8
	c0.1,0,0.1-0.1,0.2-0.1c0.3-0.1,0.6-0.3,0.8-0.6c0.2-0.3,0.2-0.7,0.1-1c-0.2-0.6-0.7-1-1.3-1C221.8,44.6,221.7,44.6,221.5,44.6
	L221.5,44.6z M214.6,50.2C214.6,50.2,214.6,50.2,214.6,50.2C214.6,50.2,214.6,50.2,214.6,50.2C214.6,50.2,214.6,50.2,214.6,50.2
	C214.6,50.2,214.6,50.2,214.6,50.2L214.6,50.2z"/>
<path class="st0" d="M224,47c0.1,0.8,0.1,1.7,0.3,2.5c0.1,0.5,0.3,0.9,0.6,1.3c0.2,0.4,0.5,0.7,0.9,1c0.3,0.2,0.6,0.5,0.9,0.6
	c0.5,0.2,1,0.4,1.5,0.4c1,0.1,2-0.1,2.9-0.5c0.7-0.3,1.3-0.8,1.9-1.3c0,0.1,0.1,0.1,0.1,0.2c0.5,0.7,1.2,1.3,2,1.8
	c0.7,0.4,1.5,0.7,2.3,0.9c0.7,0.2,1.5-0.3,1.7-1c0.1-0.4,0-0.8-0.1-1.1c-0.2-0.3-0.5-0.5-0.9-0.7c-0.2-0.1-0.4-0.2-0.6-0.2
	c-0.5-0.2-0.9-0.5-1.3-0.8c-0.2-0.2-0.4-0.4-0.6-0.6c-0.1-0.1-0.1-0.2-0.1-0.2c0-0.1,0-0.2-0.1-0.2c0,0,0,0,0,0
	c0-0.1,0.1-0.2,0.1-0.4c0,0,0-0.1,0.1-0.1c0.1-0.2,0.3-0.4,0.4-0.6c0.3-0.6,0.3-1.3-0.2-1.7c-0.5-0.5-1.5-0.6-2,0
	c-0.2,0.2-0.4,0.5-0.6,0.7c-0.6,0.6-1.2,1.1-1.9,1.6c-0.4,0.3-0.9,0.6-1.4,0.8c-0.2,0.1-0.5,0.1-0.7,0.2c-0.2,0-0.3,0-0.5,0
	c-0.1,0-0.2-0.1-0.3-0.1c-0.1-0.1-0.2-0.1-0.3-0.2c-0.1-0.1-0.2-0.2-0.3-0.3c-0.1-0.1-0.1-0.2-0.2-0.3c-0.1-0.3-0.1-0.5-0.2-0.8
	c0-0.4-0.1-0.7-0.1-1.1c0-0.4-0.2-0.8-0.5-1.1c-0.3-0.3-0.7-0.5-1.1-0.5C224.8,45.3,223.9,46.1,224,47L224,47z M231.1,48.6
	c-0.1,0-0.1,0.1-0.2,0.1C231,48.7,231.1,48.7,231.1,48.6L231.1,48.6z"/>
<path class="st0" d="M246.6,45.6c-0.6,0.3-1.1,0.6-1.7,1c-0.1,0.1-0.2,0.1-0.3,0.2c-0.2-0.3-0.5-0.6-0.9-0.7
	c-0.4-0.1-0.8-0.1-1.2,0.2c-0.3,0.2-0.6,0.5-0.7,0.9c-0.2,0.9-0.3,1.9-0.5,2.8c0-0.1,0-0.3,0.1-0.4c0,0.1,0,0.1,0,0.2
	c-0.1,0.3-0.1,0.5,0,0.8c0.1,0.4,0.3,0.7,0.7,0.8c0.3,0.2,0.7,0.2,1.1,0.1c0.4-0.1,0.6-0.3,0.8-0.7c0.1-0.1,0.1-0.2,0.2-0.3
	c0.3-0.3,0.6-0.6,0.9-0.9c0.3-0.3,0.5-0.5,0.8-0.7c0.3-0.2,0.6-0.4,0.9-0.6c0.3-0.2,0.6-0.4,1-0.6c0.1,0,0.2-0.1,0.3-0.1
	c0.1,0,0.1,0,0.2,0c0,0,0,0,0,0c0.1,0.1,0.3,0.1,0.4,0.2c0.2,0.1,0.3,0.3,0.4,0.4c0.2,0.2,0.3,0.5,0.4,0.7c0.1,0.3,0.2,0.6,0.2,0.9
	c0,0.3,0,0.6,0,0.9c0,0.2-0.1,0.3-0.1,0.5c-0.2,0.7,0.2,1.4,0.9,1.6c0.7,0.2,1.4-0.2,1.6-0.9c0.1-0.6,0.2-1.2,0.2-1.9
	c-0.1-0.7-0.2-1.4-0.5-2.1c-0.3-0.6-0.7-1.2-1.2-1.7c-0.2-0.2-0.5-0.4-0.8-0.6c-0.3-0.2-0.7-0.4-1.1-0.5c-0.2,0-0.4-0.1-0.6-0.1
	C247.5,45.3,247,45.4,246.6,45.6L246.6,45.6z M247.9,47.7c0.1,0,0.1,0,0.2,0c0,0,0,0,0,0C248,47.7,248,47.7,247.9,47.7L247.9,47.7z
	 M248.1,47.7C248.1,47.7,248.1,47.7,248.1,47.7C248.1,47.7,248.1,47.7,248.1,47.7C248.1,47.7,248.1,47.7,248.1,47.7L248.1,47.7z"/>
<path class="st0" d="M274.5,48.1c0,0.8,0.7,1.5,1.5,1.5c0.8,0,1.5-0.7,1.5-1.5s-0.7-1.5-1.5-1.5C275.2,46.5,274.5,47.2,274.5,48.1
	L274.5,48.1z"/>
<path class="st0" d="M274.8,51.5c-0.1,0.5-0.2,1.1-0.2,1.6c0,0.6,0.1,1.2,0.2,1.8c0.1,0.6,0.8,0.9,1.3,0.7c0.3-0.1,0.5-0.2,0.6-0.5
	c0.2-0.3,0.2-0.5,0.1-0.8c0-0.1,0-0.3-0.1-0.4c0-0.4,0-0.7,0-1.1c0-0.3,0.1-0.5,0.2-0.8c0.1-0.6-0.2-1.2-0.8-1.3c-0.1,0-0.2,0-0.3,0
	C275.4,50.7,274.9,51.1,274.8,51.5L274.8,51.5z"/>
<path class="st0" d="M289.3,50c-1,0.5-1.8,1.1-2.6,1.8c-0.1,0.1-0.2,0.2-0.3,0.2c0-0.2,0-0.3,0-0.5c0-0.9-0.7-1.6-1.6-1.6
	c-0.9,0-1.7,0.7-1.6,1.6c0,1.1,0.1,2.2,0.1,3.3c0,0.9,0.7,1.6,1.6,1.6c0.4,0,0.7,0,1.1-0.1c0.5-0.1,0.8-0.4,1.2-0.7
	c0.4-0.3,0.6-0.7,1-1c0.6-0.5,1.2-1.1,1.9-1.6c0.3-0.2,0.5-0.4,0.8-0.6c0.1,0,0.1,0,0.2-0.1c0,0,0,0,0.1,0c0,0,0,0,0,0
	c0.1,0.1,0.2,0.1,0.4,0.2c0.1,0.1,0.2,0.2,0.3,0.3c0.1,0.1,0.2,0.3,0.3,0.4c0.1,0.3,0.2,0.5,0.2,0.8c0,0.2,0,0.3,0,0.5
	c0,0.8,0.6,1.4,1.4,1.4c0.7,0,1.5-0.7,1.4-1.4c-0.1-0.6-0.1-1.2-0.3-1.9c-0.2-0.7-0.6-1.3-1.1-1.9c-0.2-0.3-0.5-0.4-0.8-0.6
	c-0.1-0.1-0.3-0.2-0.4-0.3c-0.2-0.1-0.4-0.2-0.6-0.2c-0.3-0.1-0.6-0.1-0.9-0.1C290.3,49.6,289.8,49.8,289.3,50L289.3,50z
	 M290.8,52.4C290.8,52.4,290.8,52.4,290.8,52.4C290.7,52.4,290.7,52.4,290.8,52.4C290.7,52.4,290.7,52.4,290.8,52.4L290.8,52.4z
	 M291.1,52.4c0.1,0,0.1,0.1,0.2,0.1C291.2,52.4,291.1,52.4,291.1,52.4L291.1,52.4z M292.2,54.3c0,0,0,0.1,0,0.1
	C292.2,54.3,292.2,54.3,292.2,54.3L292.2,54.3z"/>
<path class="st0" d="M326.9,40.9c-0.4,0.1-0.9,0.3-1.3,0.5c-0.9,0.4-1.6,1.1-2.2,1.8c-0.6,0.7-1.2,1.4-1.7,2.1
	c-0.5,0.8-1,1.7-1.4,2.6c-0.4,0.8-0.7,1.7-0.9,2.6c-0.2,1-0.2,2,0.1,3c0.3,0.9,0.8,1.7,1.3,2.4c0.3,0.3,0.6,0.6,1,0.9
	c0.4,0.3,0.8,0.5,1.3,0.7c0.4,0.2,0.9,0.4,1.3,0.5c0.5,0.1,1,0.2,1.5,0.2c1,0.1,2.1,0,3-0.3c0.9-0.2,1.8-0.6,2.6-1
	c0.9-0.4,1.6-1,2.3-1.7c0.4-0.4,0.7-0.8,1-1.3c0.3-0.5,0.5-1,0.7-1.5c0.2-0.5,0.3-1.1,0.4-1.7c0.1-0.5,0.1-1,0-1.5
	c-0.2-1.2-0.6-2.3-1.1-3.3c-0.3-0.5-0.5-0.9-0.8-1.4c-0.4-0.5-0.8-0.9-1.2-1.3c-0.3-0.3-0.6-0.4-1-0.4c-0.1,0-0.2,0-0.3,0
	c0-0.1-0.1-0.2-0.2-0.3c-0.2-0.4-0.4-0.7-0.7-1c-0.6-0.7-1.6-0.9-2.5-1c-0.1,0-0.1,0-0.2,0C327.6,40.7,327.3,40.8,326.9,40.9
	L326.9,40.9z M328.4,43c0.2,0,0.4,0.1,0.6,0.2c0.1,0,0.1,0.1,0.1,0.1c0.1,0.1,0.1,0.1,0.2,0.2c0.1,0.2,0.2,0.4,0.3,0.5
	c0.1,0.2,0.1,0.4,0.1,0.6c0.2,1.7-0.1,3.4-0.2,5.1c-0.1,0.5,0.5,1,1,1c0.3,0,0.5-0.1,0.7-0.3c0.2-0.2,0.3-0.4,0.3-0.7
	c0.1-1,0.2-1.9,0.3-2.9c0.1,0.1,0.1,0.2,0.1,0.3c0.2,0.4,0.5,0.8,0.7,1.3c0.2,0.5,0.3,0.9,0.4,1.4c0,0.4,0,0.7,0,1.1
	c-0.1,0.4-0.2,0.7-0.3,1.1c-0.2,0.4-0.4,0.7-0.6,1.1c-0.3,0.3-0.5,0.6-0.8,0.8c-0.6,0.4-1.2,0.7-1.8,1c-0.7,0.3-1.3,0.4-2,0.6
	c-0.7,0.1-1.3,0.1-2,0c-0.4-0.1-0.8-0.2-1.2-0.3c-0.4-0.2-0.7-0.4-1.1-0.6c-0.2-0.2-0.4-0.4-0.6-0.6c-0.2-0.3-0.4-0.6-0.5-0.9
	c-0.1-0.2-0.1-0.4-0.2-0.7c0-0.5,0-0.9,0-1.3c0.1-0.8,0.4-1.5,0.7-2.2c0.3-0.6,0.5-1.2,0.9-1.8c0.3-0.6,0.7-1.1,1-1.6
	c0.4-0.5,0.9-1,1.4-1.5c0.4-0.3,0.8-0.5,1.2-0.7c0.2-0.1,0.5-0.2,0.7-0.2C328.1,43,328.3,43,328.4,43L328.4,43z M322.8,48.5
	c0,0.1-0.1,0.1-0.1,0.2C322.8,48.7,322.8,48.6,322.8,48.5L322.8,48.5z"/>
<path class="st0" d="M350.8,39.7c-0.3,0-0.6,0.1-0.9,0.1c-0.3,0.1-0.6,0.2-0.9,0.3c-0.7,0.3-1.4,0.7-2,1.1c-1.1,0.9-1.9,2.1-2.7,3.4
	c-0.7,1.2-1.2,2.6-1.6,4c-0.2,0.8-0.3,1.6-0.3,2.4c0,0.8,0.1,1.6,0.3,2.3c0.2,0.6,0.5,1.2,0.8,1.8c0.4,0.7,0.9,1.2,1.5,1.7
	c1.1,0.9,2.5,1.4,3.8,1.9c1.2,0.4,2.3,0.9,3.5,1.2c0.7,0.2,1.4-0.2,1.6-0.9c0.2-0.7-0.2-1.4-0.9-1.6c-1.4-0.4-2.7-1-4.1-1.6
	c-0.8-0.4-1.6-0.8-2.3-1.3c-0.2-0.2-0.4-0.3-0.5-0.5c-0.2-0.3-0.4-0.6-0.5-0.9c-0.2-0.5-0.3-0.9-0.4-1.4c0-0.5,0-1,0-1.4
	c0.2-1,0.5-2,0.9-3c0.4-1,1-1.9,1.6-2.8c0.3-0.4,0.7-0.8,1-1.1c0.4-0.3,0.8-0.5,1.2-0.7c0.2-0.1,0.4-0.2,0.7-0.2c0.1,0,0.1,0,0.1,0
	c0.4,0,0.7-0.1,0.9-0.4c0.2-0.2,0.4-0.6,0.4-0.9C352.1,40.4,351.5,39.7,350.8,39.7C350.8,39.7,350.8,39.7,350.8,39.7L350.8,39.7z"/>
<path class="st0" d="M356.3,44.4c-0.1,0.1-0.2,0.3-0.2,0.4c-0.1,0.2-0.1,0.4-0.2,0.5c-0.1,0.4-0.1,0.9-0.2,1.3
	c0,0.3-0.1,0.6-0.1,0.9c-0.1,0.9-0.2,1.8-0.2,2.8c0,0.8,0,1.6,0.1,2.4c0.1,0.8,0.4,1.6,0.7,2.4c0.4,0.9,0.7,1.7,1.2,2.6
	c0.3,0.6,1.1,0.7,1.6,0.4c0.6-0.3,0.7-1,0.4-1.6c-0.4-0.7-0.7-1.5-1.1-2.2c-0.3-0.8-0.6-1.6-0.7-2.5c-0.1-1.1-0.1-2.3-0.1-3.5
	c0-0.4,0-0.8,0-1.2c0-0.2,0-0.4,0-0.6c0.1-0.1,0.3-0.2,0.3-0.3c0.1-0.2,0.1-0.4,0.1-0.6c-0.1-0.3-0.1-0.7-0.2-1
	c-0.1-0.4-0.4-0.6-0.8-0.6C356.7,44,356.4,44.2,356.3,44.4L356.3,44.4z M357.6,51.7C357.6,51.7,357.6,51.7,357.6,51.7
	C357.6,51.7,357.6,51.7,357.6,51.7L357.6,51.7z"/>
<path class="st0" d="M366.2,49.3c-0.3,0-0.5,0.1-0.7,0.2c-0.5,0.2-0.9,0.4-1.3,0.7c-0.2,0.1-0.4,0.3-0.6,0.5
	c-0.2,0.2-0.3,0.4-0.4,0.6c-0.5,0.9-0.4,2,0.1,2.8c0.6,0.9,1.6,1.4,2.5,1.6c1,0.2,2.1-0.1,2.9-0.6c0.3-0.2,0.6-0.5,0.9-0.8
	c0.4,1,0.7,1.9,0.9,3c0.1,0.5,0.1,1,0,1.6c-0.1,0.4-0.2,0.7-0.3,1.1c-0.1,0.2-0.2,0.4-0.3,0.6c-0.2,0.3-0.5,0.5-0.8,0.8
	c-0.3,0.2-0.6,0.4-1,0.6c-0.3,0.1-0.6,0.2-0.9,0.3c-0.4,0-0.9,0-1.3,0c-0.3-0.1-0.6-0.1-0.9-0.2c-0.4-0.1-0.7-0.2-1.1-0.3
	c-0.1-0.1-0.2-0.1-0.3-0.2c-0.3-0.2-0.6-0.2-1-0.1c-0.3,0.1-0.6,0.3-0.8,0.6c-0.3,0.6-0.2,1.4,0.5,1.8c0.4,0.2,0.9,0.5,1.3,0.6
	c0.4,0.1,0.8,0.2,1.2,0.3c0.5,0.1,1,0.2,1.5,0.2c0.5,0,1.1,0,1.6-0.1c0.5-0.1,0.9-0.3,1.3-0.5c0.4-0.2,0.8-0.4,1.1-0.6
	c0.8-0.6,1.5-1.3,2-2.1c0.4-0.8,0.6-1.8,0.7-2.7c0-0.5,0-0.9-0.1-1.4c-0.1-0.6-0.2-1.1-0.3-1.7c-0.3-0.9-0.6-1.8-1-2.6
	c-0.2-0.5-0.5-1.1-0.8-1.6c0-0.1,0-0.2,0-0.3c-0.1-0.5-0.2-1-0.6-1.3c-0.1-0.1-0.3-0.2-0.5-0.3c-0.2-0.1-0.4-0.1-0.6,0
	c-0.2,0.1-0.4,0.2-0.5,0.3c0,0,0,0,0,0c-0.5-0.2-1-0.3-1.5-0.4c-0.1,0-0.1,0-0.2,0C366.5,49.2,366.3,49.3,366.2,49.3L366.2,49.3z
	 M367.2,50.9c0.2,0,0.4,0.1,0.5,0.1c0.2,0.1,0.3,0.2,0.4,0.2c0.1,0.2,0.1,0.3,0.2,0.5c0,0.1,0.1,0.1,0.1,0.2
	c-0.1,0.2-0.2,0.4-0.3,0.5c-0.2,0.2-0.4,0.4-0.6,0.6c-0.1,0.1-0.3,0.2-0.4,0.3c-0.2,0.1-0.4,0.1-0.5,0.2c-0.1,0-0.3,0-0.4,0
	c-0.2,0-0.3-0.1-0.5-0.1c-0.2-0.1-0.3-0.2-0.5-0.3c-0.1-0.1-0.1-0.1-0.2-0.2c0-0.1-0.1-0.1-0.1-0.2c0-0.1-0.1-0.2-0.1-0.2
	c0,0,0-0.1,0-0.1c0-0.1,0-0.1,0-0.2c0-0.1,0.1-0.1,0.1-0.2c0.1-0.1,0.3-0.3,0.4-0.4c0.2-0.2,0.5-0.3,0.8-0.5
	c0.2-0.1,0.4-0.1,0.6-0.2C366.8,50.9,367,50.9,367.2,50.9L367.2,50.9z"/>
<path class="st0" d="M374.9,49.7c-0.8,0.4-1,1.4-0.6,2.2c0.4,0.7,0.8,1.4,1.1,2.2c0.2,0.6,0.5,1.2,0.7,1.8c0.1,0.2,0.1,0.4,0.2,0.6
	c0.1,0.4,0.1,0.8,0.4,1.1c0.1,0.2,0.3,0.4,0.6,0.6c0.4,0.2,0.8,0.3,1.2,0.2c0.3-0.1,0.6-0.2,0.8-0.4c0.1-0.1,0.2-0.3,0.3-0.4
	c0.1-0.2,0.2-0.4,0.2-0.5c0.1-0.2,0.1-0.4,0.1-0.6c0-0.3,0.2-0.5,0.3-0.8c0,0.1-0.1,0.2-0.1,0.2c0.4-0.9,0.9-1.8,1.5-2.7
	c0.2-0.2,0.4-0.5,0.6-0.7c0,0,0.1,0,0.1-0.1c0,0,0,0,0,0c0,0,0,0,0,0c0,0,0,0,0,0c0.1,0.1,0.2,0.2,0.3,0.3c0.2,0.2,0.3,0.5,0.4,0.8
	c0.1,0.3,0.2,0.6,0.3,1c0,0,0,0,0,0c0,0.4,0.1,0.7,0.4,1c0.3,0.3,0.6,0.4,1,0.4c0.7,0,1.4-0.6,1.4-1.4c0-0.6-0.1-1.2-0.3-1.8
	c-0.3-0.6-0.6-1.2-1-1.7c-0.4-0.5-1-1-1.6-1.2c-0.7-0.2-1.4-0.2-2.1,0.1c-0.5,0.2-1,0.6-1.4,1c-0.5,0.5-0.9,1-1.3,1.6
	c-0.1,0.1-0.1,0.2-0.2,0.2c-0.4-0.8-0.8-1.6-1.2-2.4c-0.3-0.5-0.8-0.8-1.4-0.8C375.5,49.5,375.2,49.6,374.9,49.7L374.9,49.7z
	 M382.1,52.3c0.1,0,0.1,0,0.2,0C382.2,52.3,382.1,52.3,382.1,52.3L382.1,52.3z M382.2,52.3c-0.1,0-0.1,0-0.2,0
	C382.1,52.3,382.1,52.3,382.2,52.3L382.2,52.3z"/>
<path class="st0" d="M390.8,40.3c-0.8,0.5-1.2,1.6-0.6,2.4c1,1.5,2.1,3.1,2.8,4.8c0.3,0.7,0.5,1.4,0.7,2.2c0,0.4,0,0.9,0,1.3
	c-0.2,1-0.4,1.9-0.8,2.8c-0.6,1.4-1.3,2.8-2.2,4c-0.5,0.7-1.1,1.3-1.7,1.9c-0.6,0.6-0.6,1.7,0,2.3c0.7,0.7,1.7,0.6,2.3,0
	c1-0.9,2-2,2.8-3.1c0.6-0.9,1.1-1.8,1.5-2.7c0.5-1.1,0.9-2.1,1.2-3.3c0.3-1,0.4-2.1,0.4-3.2c-0.1-1.1-0.4-2.1-0.8-3.1
	c-0.4-1-0.8-1.9-1.4-2.8c-0.6-1-1.2-1.9-1.8-2.9c-0.3-0.4-0.6-0.7-1-0.8c-0.2,0-0.3-0.1-0.5-0.1C391.3,40,391,40.1,390.8,40.3
	L390.8,40.3z"/>
<path class="st0" d="M416.2,44.2c-0.2,0.1-0.3,0.2-0.5,0.4c-0.1,0.1-0.2,0.2-0.2,0.3c-0.1,0.1-0.1,0.3-0.2,0.4
	c-0.1,0.2,0,0.5,0.1,0.7c-0.2,1.6-0.4,3.2-0.6,4.9c-0.1,1.1-0.3,2.3-0.4,3.4c-0.1,0.9-0.2,1.8,0,2.7c0.1,0.5,0.5,0.9,0.8,1.2
	c0.4,0.3,0.8,0.6,1.3,0.7c0.4,0.1,0.9,0.2,1.3,0.2c0.5,0.1,1,0,1.5,0c0.6,0,1.1-0.1,1.6-0.3c0.2-0.1,0.5-0.3,0.7-0.5
	c0.2-0.1,0.3-0.3,0.5-0.5c0.5-0.5,0.5-1.3,0-1.7c-0.5-0.5-1.3-0.5-1.7,0c-0.1,0.1-0.2,0.2-0.3,0.3c-0.1,0-0.1,0.1-0.2,0.1
	c0,0-0.1,0-0.1,0c-0.8,0.1-1.6,0.1-2.5,0c-0.1,0-0.3-0.1-0.4-0.1c-0.1,0-0.2-0.1-0.2-0.1c0,0-0.1-0.1-0.1-0.1c0-0.1-0.1-0.2-0.1-0.3
	c-0.1-1,0-2,0-3.1c0-0.5,0-1.1,0.1-1.6c0.2-2.1,0.4-4.1,0.6-6.2c0-0.3-0.3-0.7-0.6-0.7c-0.1,0-0.1,0-0.2,0
	C416.4,44.2,416.3,44.2,416.2,44.2L416.2,44.2z M416.6,56.3C416.6,56.3,416.7,56.3,416.6,56.3C416.7,56.3,416.6,56.3,416.6,56.3
	L416.6,56.3z M417.1,56.5C417.1,56.5,417.2,56.5,417.1,56.5C417.2,56.5,417.1,56.5,417.1,56.5L417.1,56.5z"/>
<path class="st0" d="M426.8,46.9c-1.7,0.2-3.4,0.4-5.1,0.6c-0.7,0.1-1.4,0.2-2.1,0.3c-1,0.2-2.1,0.3-3.1,0.5c-1,0.1-1.9,0.3-2.9,0.4
	c-0.2,0-0.4,0.2-0.5,0.4c-0.1,0.2-0.1,0.4-0.1,0.6c0.1,0.2,0.2,0.4,0.4,0.5c0.2,0.1,0.4,0.1,0.6,0.1c2.1-0.3,4.2-0.7,6.3-1
	c1.5-0.2,3-0.5,4.6-0.7c0.7-0.1,1.4-0.2,2.1-0.3c0.1,0,0.2-0.1,0.3-0.2c0.1-0.1,0.2-0.3,0.2-0.5C427.4,47.3,427.2,46.9,426.8,46.9
	C426.8,46.9,426.8,46.9,426.8,46.9L426.8,46.9z"/>
<path class="st0" d="M428.1,46.3c-0.3,0-0.7,0-1,0.1c-0.4,0.1-0.7,0.1-1.1,0.2c-0.3,0.1-0.5,0.5-0.5,0.8c0.1,0.4,0.5,0.5,0.8,0.5
	c0.3-0.1,0.7-0.1,1-0.2c0.2,0,0.5,0,0.7,0c0.4,0,0.7-0.3,0.7-0.6C428.7,46.7,428.4,46.3,428.1,46.3
	C428.1,46.3,428.1,46.3,428.1,46.3L428.1,46.3z"/>
<path class="st0" d="M428.4,49.8c-0.2,0.8-0.4,1.6-0.6,2.3c-0.1,0.3-0.2,0.7-0.2,1c-0.1,0.6-0.2,1.2-0.2,1.9c0,0.6,0.4,1.1,0.9,1.2
	c0.3,0.1,0.7,0,1-0.1c0.3-0.2,0.5-0.5,0.6-0.8c0.2-1.6,0.6-3.3,1-4.9c0.2-0.7-0.2-1.4-0.9-1.6c-0.1,0-0.2,0-0.3,0
	C429.1,48.8,428.5,49.2,428.4,49.8L428.4,49.8z"/>
<path class="st0" d="M460,45.7c-1.1,0.4-2.1,1-2.9,1.9c-0.8,0.8-1.4,1.7-2,2.7c-0.3,0.4-0.5,0.8-0.7,1.2c-0.1,0.3-0.2,0.5-0.3,0.8
	c-0.1,0.3-0.2,0.7-0.2,1.1c0,0.3,0.1,0.6,0.1,0.9c0,0.2,0.1,0.3,0.1,0.4c-0.1,0-0.2,0-0.2,0c-0.2,0-0.4-0.1-0.6-0.2
	c-0.1-0.1-0.3-0.2-0.4-0.2c0,0-0.1-0.1-0.1-0.1c-0.1-0.1-0.2-0.3-0.2-0.4c-0.2-0.6-0.3-1.2-0.4-1.8c-0.1-0.3-0.2-0.7-0.3-1
	c-0.2-0.9-0.5-1.7-0.9-2.5c-0.4-0.8-1.2-1.4-2.1-1.7c-0.9-0.2-1.8,0.2-2.5,0.7c-0.8,0.5-1.5,1.2-2.1,1.8c-0.3,0.3-0.5,0.6-0.8,0.9
	c-0.4-0.8-1-1.6-1.8-2c-0.2-0.1-0.4-0.2-0.5-0.2c-0.2,0-0.4-0.1-0.6-0.1c-0.2,0-0.4,0.1-0.6,0.1c-0.2,0.1-0.4,0.1-0.6,0.2
	c-0.3,0.2-0.6,0.4-0.9,0.6c-0.2,0.2-0.4,0.5-0.6,0.7c-0.1,0.2-0.3,0.4-0.4,0.5c-0.3-0.3-0.7-0.5-1.1-0.5c-0.9,0-1.7,0.7-1.6,1.6
	c0,0.4,0,0.9,0,1.3c0,0.3-0.1,0.7,0,1c0.1,0.5,0.2,1.1,0.6,1.5c0.3,0.3,0.7,0.5,1.1,0.6c0.7,0.2,1.5-0.1,1.8-0.7
	c0.4-0.7,0.7-1.3,1.1-2c0.4-0.7,0.8-1.3,1.3-2c0,0,0,0,0.1-0.1c0,0,0,0,0,0c0,0,0,0,0,0c0,0,0,0,0,0c0.1,0.2,0.3,0.4,0.4,0.6
	c0.2,0.5,0.3,1.1,0.4,1.6c0,0.1,0,0.2,0,0.2c-0.1,0.2-0.2,0.5-0.2,0.7c-0.1,0.6,0.1,1.3,0.7,1.6c0.7,0.4,1.6,0.2,2-0.5
	c0.2-0.3,0.3-0.6,0.4-0.9c0-0.1,0-0.2,0-0.3c0.3-0.6,0.7-1.2,1.2-1.8c0.7-0.9,1.6-1.7,2.5-2.5c0.2-0.1,0.3-0.2,0.5-0.3c0,0,0,0,0,0
	c0.1,0.2,0.2,0.4,0.3,0.6c0.5,1.3,0.6,2.6,0.9,4c0.1,0.5,0.3,1,0.6,1.5c0.3,0.5,0.8,0.9,1.2,1.2c0.4,0.3,1,0.5,1.5,0.6
	c0.6,0.2,1.3,0.2,1.9,0.1c0.4,0,0.7-0.1,1.1-0.2c0.5,0.5,1.1,0.8,1.8,1.2c1.8,0.9,3.7,1.3,5.7,1.5c0.4,0,0.9,0.1,1.3,0.1
	c0.4,0,0.9,0,1.3,0c0.5,0,1-0.1,1.5-0.3c0.8-0.2,1.3-1.1,1.1-1.9c-0.1-0.4-0.4-0.7-0.7-0.9c-0.4-0.2-0.7-0.2-1.2-0.2
	c-0.1,0-0.1,0-0.2,0c-0.7,0.1-1.5,0-2.2,0c-0.5,0-1-0.1-1.6-0.2c-1.1-0.2-2.2-0.4-3.3-0.8c-0.1,0-0.2-0.1-0.3-0.2
	c0.6-0.4,1.1-0.9,1.6-1.3c1.1-1,1.9-2.3,2.8-3.5c0.5-0.8,1-1.6,1.3-2.5c0.1-0.3,0.1-0.7,0-0.9c-0.1-0.3-0.2-0.5-0.3-0.8
	c0-0.1-0.1-0.1-0.1-0.2c-0.1-0.2-0.2-0.3-0.4-0.4c-0.3-0.3-0.6-0.4-1-0.6c-0.4-0.1-0.8-0.2-1.2-0.2C461.2,45.4,460.6,45.5,460,45.7
	L460,45.7z M461.9,48.2C461.9,48.2,461.9,48.2,461.9,48.2C462,48.2,462,48.2,461.9,48.2C461.9,48.2,461.9,48.2,461.9,48.2
	L461.9,48.2z M461.9,48.2c-0.5,0.9-1,1.6-1.6,2.4c-0.3,0.4-0.7,0.8-1,1.2c-0.4,0.5-0.9,0.9-1.4,1.3c-0.3,0.2-0.7,0.5-1,0.6
	c-0.1-0.1-0.1-0.3-0.1-0.5c0,0,0,0,0-0.1c0-0.2,0.1-0.3,0.2-0.5c0.2-0.4,0.4-0.7,0.7-1.1c0.3-0.4,0.6-0.9,0.9-1.3
	c0.4-0.5,0.8-1,1.3-1.4c0.3-0.2,0.6-0.4,1-0.6c0.3-0.1,0.6-0.2,0.9-0.3C461.7,48.2,461.8,48.2,461.9,48.2L461.9,48.2z M462.2,48.3
	C462.2,48.3,462.2,48.3,462.2,48.3c0,0,0.1,0.1,0.1,0.1C462.3,48.4,462.3,48.3,462.2,48.3L462.2,48.3z M448,49.4c0,0,0.1,0,0.1,0.1
	C448,49.4,448,49.4,448,49.4L448,49.4z M448.1,49.4C448.1,49.4,448.2,49.4,448.1,49.4C448.2,49.4,448.1,49.4,448.1,49.4L448.1,49.4z
	 M448.4,49.7C448.4,49.7,448.4,49.7,448.4,49.7C448.4,49.7,448.4,49.7,448.4,49.7L448.4,49.7z M440.5,50.9c0,0,0.1,0,0.1,0.1
	C440.6,50.9,440.5,50.9,440.5,50.9C440.5,50.9,440.5,50.9,440.5,50.9L440.5,50.9z M440.3,51c0,0-0.1,0.1-0.1,0.1
	C440.3,51.1,440.3,51,440.3,51L440.3,51z M452.9,54.3C452.9,54.3,452.9,54.4,452.9,54.3C452.9,54.4,452.9,54.3,452.9,54.3
	L452.9,54.3z"/>
<path class="st0" d="M472.2,58.2c0,1,0.8,1.8,1.8,1.8c1,0,1.8-0.8,1.8-1.8s-0.8-1.8-1.8-1.8C473,56.5,472.2,57.2,472.2,58.2
	L472.2,58.2z"/>
<path class="st1" d="M178.3,18.1c-7.5,0.5-14.9,1.5-22.4,1.9c-3.9,0.2-7.8,0.3-11.7,0.3c-3.8,0-7.5-0.2-11.3-0.3
	c-3.6-0.1-7.2-0.1-10.7-0.1c-3.9,0-7.8,0-11.7,0c-7.4,0.1-14.7,0.3-22.1,0.2c-4-0.1-7.9-0.3-11.9-0.4c-3.6-0.1-7.1,0-10.7,0
	c-7.6,0.1-15.2-0.9-22.8-1.2c-3.1-0.1-6.2,0-9.4,0.2c-2.7,0.1-5.4,0.3-8.1,0.2c-3-0.1-6-0.3-9-0.4c-1.4-0.1-2.9,0.1-4.3,0.2
	c-1,0.1-2,0.3-3,0.5c-2,0.4-3.6,1.6-5,2.9c-0.6,0.6-1.3,1.2-1.8,1.8c-0.2,0.3-0.5,0.6-0.7,0.9C1.3,25.1,1,25.5,0.9,26
	c-0.1,0.3,0,0.4,0.4,0.4c0.2-0.1,0.4-0.2,0.6-0.3c0.4-0.3,0.9-0.6,1.3-0.9c2.1-0.7,4.5-0.8,6.7-0.8c1.7,0,3.4,0.1,5.1,0.2
	c3.6,0.2,7.3,0.3,10.9,0.2c3.7-0.1,7.5-0.2,11.2-0.1c1.8,0.1,3.7,0.2,5.5,0.4c2,0.2,3.9,0.3,5.9,0.5c3.8,0.3,7.6,0.5,11.4,0.5
	c1.8,0,3.6,0,5.4-0.1c1.8,0,3.7-0.1,5.5-0.1c1.9,0,3.8,0.1,5.7,0.2c1.8,0.1,3.7,0.1,5.5,0.1c3.6,0.1,7.2,0.1,10.8,0
	c7.7-0.2,15.5-0.3,23.2-0.3c3.6,0,7.3-0.1,10.9,0.1c3.8,0.1,7.7,0.3,11.5,0.4c5.6,0.1,11.2-0.1,16.7-0.5c5.8-0.4,11.7-1,17.5-1.3
	c0.5-0.2,1-0.5,1.5-0.8c1.1-0.8,2.1-1.8,3-2.8c0.5-0.6,1-1.2,1.4-1.8c0.1-0.2,0.2-0.4,0.3-0.6c0.1-0.3,0-0.4-0.2-0.4
	C178.4,18.1,178.4,18.1,178.3,18.1L178.3,18.1z M2.6,25.5c0,0-0.1,0.1-0.1,0.1C2.5,25.5,2.6,25.5,2.6,25.5L2.6,25.5z"/>
</svg>
