<?xml version="1.0" encoding="utf-8"?>
<!-- Generator: Adobe Illustrator 20.1.0, SVG Export Plug-In . SVG Version: 6.00 Build 0)  -->
<svg version="1.1" id="Layer_1" xmlns="http://www.w3.org/2000/svg" xmlns:xlink="http://www.w3.org/1999/xlink" x="0px" y="0px"
	 viewBox="0 0 376.3 31.1" style="enable-background:new 0 0 376.3 31.1;" xml:space="preserve">
<style type="text/css">
	.st0{fill:#010101;}
</style>
<path class="st0" d="M1,4.3C0.9,4.4,0.9,4.6,0.8,4.8C0.7,5.5,0.6,6.2,0.6,7c-0.1,0.7-0.1,1.3-0.2,2c-0.1,0.9-0.1,1.9-0.2,2.8
	c-0.1,0.8-0.1,1.7-0.2,2.5c0,0.5-0.1,1-0.1,1.5c0,0.4,0,0.7,0,1.1c0,0.2,0,0.4,0.1,0.6c0,0.2,0.1,0.3,0.2,0.5
	c0.2,0.4,0.7,0.6,1.1,0.6c0.5,0,0.9-0.3,1.1-0.8c0.1-0.2,0.1-0.5,0.2-0.7c0-0.3,0.1-0.6,0.1-0.9c0-0.2,0-0.4,0.1-0.7
	c0-0.2,0.1-0.4,0.1-0.6c0.1-0.2,0.1-0.5,0.2-0.7c0.2-0.4,0.4-0.8,0.7-1.2c0,0,0.1-0.1,0.1-0.1c0.1,0,0.1-0.1,0.2-0.1
	c0.1,0,0.2,0,0.2-0.1c0.1,0,0.2,0,0.3,0c0.1,0,0.2,0.1,0.3,0.1c0.1,0.1,0.3,0.1,0.4,0.2c0.3,0.2,0.6,0.5,0.8,0.8
	c0.3,0.5,0.6,0.9,0.9,1.5c0.2,0.6,0.4,1.1,0.5,1.7c0,0.3,0.1,0.6,0.1,0.9C7.5,18.5,8,19,8.6,19s1.1-0.5,1.1-1.1
	c0-0.8-0.1-1.6-0.3-2.4c-0.2-0.7-0.6-1.4-1.1-2.1c-0.5-0.6-1-1.2-1.6-1.7c-0.3-0.2-0.6-0.5-1-0.6C5.4,11.1,5,11,4.6,11
	c-0.4,0-0.7,0.1-1.1,0.2c-0.4,0.1-0.7,0.3-0.9,0.6C2.4,12,2.2,12.3,2,12.5c0-0.3,0-0.7,0-1c0-0.9,0-1.8,0.1-2.7
	c0-0.8,0.1-1.5,0.1-2.3c0.1-0.1,0.2-0.3,0.1-0.4c0-0.2,0-0.5,0-0.7c0-0.3,0-0.5-0.1-0.8C2.2,4.3,1.9,4,1.6,4C1.4,4,1.2,4.1,1,4.3
	L1,4.3z"/>
<path class="st0" d="M21.1,7.4c-0.7,0-1.3,0.6-1.3,1.3c0,0.7,0.6,1.4,1.3,1.3c1-0.1,2-0.2,3-0.2c0.3,0,0.6-0.1,0.9-0.4
	c0.2-0.2,0.4-0.6,0.4-0.9c0-0.7-0.6-1.2-1.2-1.2c-0.2,0-0.3,0-0.5,0C22.8,7.3,21.9,7.4,21.1,7.4L21.1,7.4z"/>
<path class="st0" d="M26.5,12.8c-2,0-4,0.1-5.9,0.2c-0.6,0-1.2,0.5-1.2,1.1c0,0.6,0.5,1.2,1.2,1.2c2-0.1,4-0.2,5.9-0.3
	c0.6,0,1.1-0.5,1.1-1.1C27.6,13.3,27.1,12.8,26.5,12.8C26.5,12.8,26.5,12.8,26.5,12.8L26.5,12.8z"/>
<path class="st0" d="M37.3,0.7c-0.3,0.2-0.6,0.5-0.7,0.9c-0.4,2.1-0.7,4.2-1,6.3c-0.1,0.6-0.2,1.3-0.3,1.9c-0.1,0.8-0.2,1.6-0.3,2.4
	c-0.2,1.5-0.3,3.1-0.5,4.6c-0.1,1.5-0.3,3-0.3,4.5c0,0.7,0.6,1.3,1.3,1.3c0.3,0,0.7-0.1,0.9-0.4c0.3-0.3,0.3-0.6,0.4-0.9
	c0.5-3.8,1-7.6,1.4-11.5c0.4-2.5,0.7-5,1.2-7.5c0.1-0.4,0.1-0.8-0.2-1.1c-0.2-0.3-0.5-0.6-0.9-0.7c-0.1,0-0.3-0.1-0.4-0.1
	C37.8,0.6,37.5,0.6,37.3,0.7L37.3,0.7z"/>
<path class="st0" d="M37.9,10.4c-0.7,0.3-1.1,0.9-1.5,1.5c-0.4,0.6-0.8,1.3-1,2.1c-0.1,0.2,0,0.6,0.1,0.8c0.1,0.2,0.4,0.4,0.6,0.5
	c0.3,0.1,0.6,0,0.8-0.1c0.3-0.1,0.4-0.4,0.5-0.6c0-0.1,0.1-0.1,0.1-0.2c0.3-0.5,0.6-1.1,0.9-1.6c0.1-0.1,0.2-0.2,0.3-0.3
	c0.1-0.1,0.2-0.1,0.3-0.2c0,0,0.1,0,0.1,0c0,0,0,0,0,0c0.1,0,0.1,0,0.2,0.1c0.1,0.1,0.2,0.1,0.3,0.2c0.1,0.1,0.1,0.1,0.2,0.2
	c0.3,0.4,0.5,0.8,0.7,1.3c0.4,1.1,0.8,2.2,1.1,3.4c0.1,0.6,0.8,1,1.4,0.8c0.3-0.1,0.5-0.3,0.7-0.5c0.2-0.3,0.2-0.6,0.1-0.9
	c-0.1-0.7-0.3-1.3-0.6-2c-0.1-0.4-0.3-0.7-0.4-1.1c-0.2-0.4-0.3-0.7-0.5-1.1c-0.2-0.3-0.3-0.6-0.5-0.9c-0.2-0.3-0.4-0.6-0.7-0.8
	c-0.3-0.3-0.6-0.5-1-0.6c-0.3-0.1-0.7-0.2-1-0.2c0,0,0,0,0,0C38.6,10.1,38.2,10.2,37.9,10.4L37.9,10.4z"/>
<path class="st0" d="M52.1,9.4c-0.2,0-0.4,0.1-0.6,0.1c-0.4,0.1-0.7,0.3-1,0.5c-0.6,0.4-1.1,1-1.5,1.6c-0.4,0.6-0.7,1.3-0.9,2
	c0,0.1-0.1,0.3-0.1,0.4c-0.1,0-0.2,0.1-0.4,0.1c-0.6,0.2-0.9,0.7-0.7,1.3c0.1,0.5,0.8,0.9,1.3,0.7c0,0,0.1,0,0.1,0
	c0.1,0.1,0.1,0.2,0.2,0.3c0.2,0.3,0.4,0.6,0.7,0.9c0.2,0.2,0.5,0.4,0.8,0.6c0.3,0.2,0.7,0.3,1.1,0.5c0.3,0.1,0.7,0.2,1,0.2
	c0.4,0,0.8,0,1.1,0c1.1,0,2.1-0.2,3.2-0.3c0.6-0.1,1.2-0.2,1.8-0.4c0.6-0.1,0.9-0.8,0.8-1.4c-0.1-0.3-0.3-0.5-0.5-0.7
	c-0.3-0.2-0.6-0.2-0.9-0.1c-0.5,0.1-0.9,0.2-1.4,0.2c-1.3,0.2-2.7,0.4-4,0.2c-0.3,0-0.5-0.1-0.8-0.2c-0.2-0.1-0.4-0.2-0.6-0.3
	c-0.1-0.1-0.2-0.2-0.3-0.3c-0.1-0.1-0.1-0.2-0.2-0.3c0.5-0.3,1-0.7,1.5-1.1c0.5-0.4,1.1-0.9,1.5-1.4c0.2-0.3,0.4-0.6,0.5-0.9
	c0.1-0.4,0.2-0.8,0.1-1.2c0-0.1-0.1-0.3-0.1-0.4c-0.1-0.2-0.2-0.3-0.4-0.5c-0.3-0.2-0.7-0.3-1.1-0.3c0,0,0,0-0.1,0
	C52.3,9.4,52.2,9.4,52.1,9.4L52.1,9.4z"/>
<path class="st0" d="M61.4,8.2c-0.1,0-0.2,0-0.3,0c-0.2,0-0.5,0-0.7,0c-0.1,0-0.1,0-0.2,0.1c0,0-0.1,0.1-0.1,0.2
	c0,0.1,0.1,0.3,0.3,0.3c0.2,0,0.5,0,0.7-0.1c0.1,0,0.2,0,0.3,0c0.2,0,0.4,0,0.6,0c0.1,0,0.3-0.1,0.3-0.3c0-0.1-0.1-0.3-0.3-0.3
	c-0.1,0-0.2,0-0.3,0C61.6,8.2,61.5,8.2,61.4,8.2L61.4,8.2z"/>
<path class="st0" d="M62.3,10.7c-0.2,1-0.5,2-0.6,3c0,0.3,0,0.5,0.1,0.7c0.1,0.2,0.3,0.4,0.6,0.4c0.5,0.1,1.1-0.2,1.2-0.7
	c0.2-1,0.5-2,0.7-3c0.1-0.5-0.2-1.1-0.7-1.2c-0.1,0-0.2,0-0.3,0C62.9,9.9,62.5,10.2,62.3,10.7L62.3,10.7z"/>
<path class="st0" d="M71.1,9.2c-0.3,0.2-0.6,0.5-1,0.7c-0.3,0.3-0.6,0.6-0.8,0.9c-0.3,0.3-0.4,0.7-0.6,1c-0.2,0.4-0.2,0.9-0.3,1.3
	c-0.1,0.4,0,0.8,0.1,1.1c0.1,0.4,0.3,0.8,0.6,1.1c0.3,0.3,0.6,0.5,1,0.6c0.4,0.1,0.8,0,1.2,0c0.3-0.1,0.7-0.2,1-0.4
	c0,0,0.1,0,0.1-0.1c0,0.1,0,0.3,0,0.4c0.1,1.7,0.3,3.5,0.1,5.2c-0.1,0.4-0.2,0.9-0.4,1.3c-0.2,0.4-0.4,0.9-0.7,1.3
	c-0.3,0.4-0.7,0.7-1.1,1.1c-0.3,0.2-0.7,0.4-1,0.6c-0.4,0.2-0.9,0.3-1.4,0.4c-0.3,0-0.6,0-0.9,0c-0.2,0-0.3-0.1-0.5-0.1
	c-0.6-0.2-1.3,0.2-1.4,0.8c-0.1,0.3,0,0.6,0.1,0.9c0.2,0.3,0.4,0.4,0.7,0.5c0.2,0.1,0.4,0.2,0.6,0.2c0.3,0.1,0.6,0.1,0.9,0.1
	c0.6,0.1,1.2,0,1.8-0.2c1.2-0.2,2.1-0.8,3-1.6c0.9-0.7,1.6-1.7,2.1-2.8c0.3-0.6,0.5-1.2,0.6-1.8c0.1-0.6,0.1-1.3,0.2-1.9
	c0-1.5-0.1-3-0.2-4.5c0-0.4,0-0.7-0.1-1.1c0-0.2,0-0.5,0-0.7c0-0.5,0-1-0.2-1.6c-0.1-0.2-0.1-0.3-0.2-0.4c0.6,0.2,1.3,0,1.6-0.6
	c0.4-0.6,0.2-1.5-0.5-1.9c-0.7-0.4-1.4-0.6-2.2-0.7c-0.1,0-0.2,0-0.3,0C72.4,8.6,71.7,8.8,71.1,9.2L71.1,9.2z M73.2,11.3
	C73.2,11.3,73.2,11.3,73.2,11.3c-0.3,0.1-0.6,0.3-0.8,0.6c-0.1,0.1-0.1,0.2-0.2,0.3c-0.2,0.3-0.5,0.5-0.8,0.7
	c-0.1,0.1-0.1,0.1-0.2,0.1c0-0.1,0.1-0.3,0.1-0.4c0.1-0.2,0.2-0.3,0.3-0.4c0.2-0.2,0.4-0.4,0.6-0.6c0.2-0.2,0.4-0.3,0.7-0.4
	c0,0,0.1,0,0.1,0C73,11.3,73.1,11.3,73.2,11.3L73.2,11.3z"/>
<path class="st0" d="M83.1,2.7c-0.2,0.2-0.3,0.5-0.3,0.8c-0.2,2.3-0.4,4.5-0.6,6.8c-0.1,1-0.2,2-0.2,3c-0.1,1-0.1,2.1-0.2,3.1
	c0,0.5,0.4,0.9,0.8,1.1c0.5,0.2,1.2-0.2,1.4-0.8c0.2-0.9,0.4-1.8,0.7-2.7c0.1-0.1,0.1-0.3,0.2-0.4c0,0,0.1,0,0.1,0c0,0,0,0,0,0
	c0.1,0,0.2,0.1,0.2,0.1c0.2,0.1,0.3,0.3,0.4,0.4c0.2,0.3,0.3,0.5,0.5,0.8c0.2,0.5,0.4,1,0.5,1.4c0.1,0.4,0.2,0.8,0.3,1.2
	c0,0.1,0,0.1,0,0.2c0,0.3,0.1,0.5,0.3,0.7c0.2,0.2,0.4,0.3,0.7,0.3c0.3,0,0.5-0.1,0.7-0.3c0.2-0.2,0.3-0.4,0.3-0.7
	c-0.1-0.5-0.1-1-0.3-1.5c-0.1-0.3-0.2-0.6-0.3-0.9c-0.2-0.6-0.5-1.2-0.9-1.8c-0.4-0.5-0.8-1-1.4-1.3c-0.5-0.3-1-0.4-1.6-0.3
	c0.3-2.9,0.5-5.7,0.8-8.6c0-0.3-0.1-0.6-0.3-0.8c-0.2-0.2-0.5-0.3-0.8-0.3C83.6,2.4,83.3,2.5,83.1,2.7L83.1,2.7z M84.9,13.7
	C84.9,13.7,84.9,13.7,84.9,13.7C84.8,13.7,84.8,13.7,84.9,13.7C84.9,13.7,84.9,13.7,84.9,13.7L84.9,13.7z M84.7,13.7
	C84.8,13.7,84.8,13.7,84.7,13.7c0.1,0,0.1,0,0.1,0c0,0,0,0,0,0C84.8,13.7,84.8,13.7,84.7,13.7C84.8,13.7,84.8,13.7,84.7,13.7
	C84.8,13.7,84.8,13.7,84.7,13.7C84.8,13.7,84.8,13.7,84.7,13.7C84.8,13.7,84.8,13.7,84.7,13.7C84.8,13.7,84.8,13.7,84.7,13.7
	C84.7,13.7,84.7,13.7,84.7,13.7L84.7,13.7z M84.8,13.7C84.8,13.7,84.8,13.7,84.8,13.7C84.8,13.7,84.8,13.7,84.8,13.7
	C84.8,13.7,84.8,13.7,84.8,13.7C84.8,13.7,84.8,13.7,84.8,13.7L84.8,13.7z"/>
<path class="st0" d="M94.2,2.4c-0.1,0.1-0.2,0.2-0.3,0.3c-0.2,0.3-0.2,0.6-0.2,0.9c-0.4,3.1-0.8,6.2-1.2,9.3
	c-0.3,2.6-0.7,5.2-0.8,7.8c0,0.7,0.5,1.3,1.1,1.5c0.7,0.2,1.7-0.2,1.9-1.1c0.5-2.7,0.8-5.4,1.2-8.2c0.4-3.1,0.8-6.3,1.2-9.4
	c0.1-0.4-0.2-0.9-0.5-1.2c-0.3-0.3-0.8-0.5-1.2-0.5C94.9,1.9,94.5,2,94.2,2.4L94.2,2.4z"/>
<path class="st0" d="M99.5,7.4c-3,0.5-6,1.2-9,1.8c-0.5,0.1-0.8,0.7-0.7,1.2c0.1,0.5,0.7,0.8,1.2,0.7c3-0.7,6-1.3,9-1.9
	c0.5-0.1,0.8-0.7,0.7-1.1c-0.1-0.2-0.2-0.4-0.4-0.6c-0.1-0.1-0.3-0.1-0.4-0.1C99.7,7.4,99.6,7.4,99.5,7.4L99.5,7.4z"/>
<path class="st0" d="M122.2,10.6c-0.5,0.1-1,0.3-1.5,0.6c-0.5,0.3-0.9,0.6-1.3,1c-0.4,0.4-0.8,0.8-1.2,1.3c-0.4,0.4-0.7,0.8-1,1.3
	c-0.3,0.5-0.5,1.1-0.5,1.6c0,0.3,0,0.5,0.1,0.8c0,0.3,0.2,0.5,0.3,0.8c0.2,0.5,0.7,1,1.2,1.2c0.5,0.2,1.1,0.3,1.6,0.3
	c0.6,0,1.1-0.2,1.7-0.4c0.5-0.2,1-0.5,1.5-0.8c0.5-0.4,1-0.8,1.4-1.3c0.2-0.2,0.4-0.5,0.5-0.8c0.2-0.3,0.3-0.6,0.4-0.8
	c0.1-0.3,0.2-0.5,0.2-0.8c0-0.2,0-0.3,0-0.5s0-0.4-0.1-0.5c-0.1-0.6-0.3-1.1-0.6-1.7c-0.1-0.3-0.3-0.5-0.6-0.7c0,0,0,0,0,0
	c0,0,0-0.1,0-0.1c0-0.3-0.3-0.6-0.6-0.6c-0.1,0-0.2,0-0.3,0C123,10.5,122.6,10.5,122.2,10.6L122.2,10.6z M122.2,11.8
	c0,0,0,0.1,0,0.1c0.1,0.2,0.2,0.5,0.4,0.6c0.1,0,0.1,0.1,0.2,0.1c0,0,0,0,0,0c0,0,0,0,0,0c0,0,0,0,0,0c0,0,0.1,0,0.1,0
	c0,0,0.1,0.1,0.1,0.1c0.1,0.1,0.2,0.3,0.2,0.4c0.1,0.3,0.2,0.5,0.2,0.8c0,0.1,0,0.3,0,0.4c0,0.2-0.1,0.4-0.2,0.6
	c-0.1,0.3-0.3,0.5-0.4,0.7c-0.3,0.4-0.7,0.7-1.1,1.1c-0.4,0.3-0.8,0.5-1.2,0.7c-0.3,0.1-0.6,0.2-0.9,0.3c-0.2,0-0.4,0-0.6,0
	c-0.1,0-0.3-0.1-0.4-0.1c-0.1,0-0.1-0.1-0.2-0.1c-0.1-0.1-0.1-0.1-0.2-0.2c-0.1-0.1-0.2-0.3-0.2-0.4c0-0.1-0.1-0.3-0.1-0.4
	c0-0.1,0-0.3,0-0.4c0-0.2,0.1-0.4,0.2-0.6c0.2-0.5,0.5-0.9,0.8-1.3c0,0,0,0,0,0c0,0,0,0,0,0c0,0,0.1-0.1,0.1-0.1c0,0,0,0,0,0.1
	c0.2-0.3,0.5-0.6,0.7-0.9c0.3-0.3,0.5-0.5,0.8-0.7c0.4-0.3,0.7-0.5,1.2-0.7C122,11.9,122.1,11.8,122.2,11.8L122.2,11.8z M119.2,14.3
	C119.2,14.3,119.2,14.3,119.2,14.3C119.2,14.2,119.2,14.2,119.2,14.3C119.2,14.2,119.2,14.2,119.2,14.3L119.2,14.3z M122.9,12.6
	C122.9,12.6,122.9,12.6,122.9,12.6C122.9,12.6,122.9,12.6,122.9,12.6C122.9,12.6,122.9,12.6,122.9,12.6L122.9,12.6z"/>
<path class="st0" d="M135.3,2.1c-0.5,0.2-0.9,0.5-1.3,0.8c-0.6,0.5-1.1,1.2-1.4,1.8c-0.4,0.8-0.7,1.6-0.9,2.4
	c-0.2,0.8-0.4,1.6-0.5,2.5c-0.2,0.9-0.3,1.9-0.4,2.8c-0.1,1.4-0.2,2.8-0.3,4.2c-0.1,1.3-0.1,2.6-0.2,3.9c-0.1,0.5,0.4,1.1,0.9,1.2
	c0.6,0.2,1.4-0.2,1.5-0.9c0.3-1.5,0.4-3.2,0.4-4.7c0.1-2,0.1-4,0.3-5.9c0.1-0.7,0.2-1.5,0.4-2.2c0.1-0.7,0.4-1.3,0.6-2
	c0.2-0.4,0.3-0.7,0.6-1c0.2-0.2,0.4-0.4,0.6-0.7c0.1-0.1,0.2-0.2,0.4-0.2c0,0,0,0,0,0c0.1,0,0.1,0,0.2,0c0,0,0,0,0,0
	c0,0.1,0.1,0.2,0.1,0.2c0.1,0.2,0.1,0.4,0.2,0.7c0.1,0.5,0.1,1.1,0.2,1.7c0,0.3,0.1,0.5,0.3,0.7c0.2,0.2,0.4,0.3,0.7,0.3
	c0.5,0,1-0.5,1-1c0-0.4-0.1-0.9-0.1-1.3c-0.1-0.7-0.1-1.3-0.4-1.9c-0.2-0.3-0.3-0.7-0.6-0.9c-0.3-0.3-0.7-0.4-1.1-0.5
	c-0.2,0-0.3,0-0.5,0C135.8,2,135.6,2.1,135.3,2.1L135.3,2.1z"/>
<path class="st0" d="M135.9,9.4c-2.2,0.2-4.4,0.5-6.7,0.8c-0.2,0-0.5,0.2-0.6,0.4c-0.1,0.2-0.2,0.5-0.1,0.7c0.1,0.2,0.2,0.4,0.4,0.6
	c0.2,0.1,0.5,0.1,0.7,0.1c2.1-0.3,4.3-0.7,6.4-1c0.1,0,0.3-0.1,0.4-0.2c0.2-0.2,0.3-0.4,0.3-0.6c0-0.2-0.1-0.5-0.3-0.6
	C136.4,9.6,136.2,9.4,135.9,9.4C136,9.4,135.9,9.4,135.9,9.4L135.9,9.4z"/>
<path class="st0" d="M164,5.5c-0.5,1.4-1.1,2.9-1.4,4.3c-0.2,0.7-0.3,1.4-0.5,2.2c-0.1,0.7-0.3,1.3-0.4,2c-0.2,1.2-0.4,2.4-0.5,3.6
	c0,0,0,0,0,0c-0.1,0.5-0.1,1-0.2,1.5c0,0.5,0,1,0.1,1.6c0.1,0.5,0.2,0.9,0.4,1.4c0.2,0.4,0.6,0.8,1,1c0.5,0.2,1,0.3,1.5,0.4
	c0.3,0,0.6,0,0.9-0.1c0.2,0,0.5-0.1,0.7-0.2c0.5-0.1,1-0.4,1.4-0.6c0.5-0.3,1-0.6,1.5-1c0.3-0.2,0.5-0.4,0.5-0.7
	c0.1-0.3,0-0.6-0.1-0.9c-0.3-0.5-1.1-0.8-1.6-0.4c-0.6,0.4-1.1,0.7-1.8,1c-0.4,0.2-0.9,0.3-1.3,0.4c-0.1,0-0.2,0-0.4,0
	c-0.1,0-0.2,0-0.3-0.1c0,0,0,0,0,0c0-0.1-0.1-0.1-0.1-0.2c-0.1-0.4-0.2-0.7-0.3-1.1c-0.1-1,0-2.1,0.2-3.1c0.1-0.7,0.1-1.4,0.2-2.1
	c0.2-1.4,0.5-2.9,0.8-4.3c0.3-1.1,0.6-2.1,1-3.1c0.5,0,0.9-0.4,0.8-0.9c0-0.3,0-0.6-0.3-0.8c-0.2-0.1-0.3-0.2-0.5-0.3
	c-0.1,0-0.2-0.1-0.4-0.1c-0.1,0-0.2,0-0.2,0C164.5,4.9,164.1,5.2,164,5.5L164,5.5z M161.2,17.4c0,0.1,0,0.1,0,0.2
	C161.2,17.5,161.2,17.4,161.2,17.4L161.2,17.4z"/>
<path class="st0" d="M170.1,8.3c-1.6,0.2-3.1,0.5-4.6,0.7c-1.6,0.3-3.1,0.6-4.6,1c-0.5,0.1-0.9,0.7-0.7,1.3c0.2,0.5,0.7,0.8,1.3,0.7
	c1.5-0.4,3-0.7,4.5-1c1.5-0.3,3-0.6,4.5-0.8c0.2,0,0.3-0.1,0.4-0.3c0.2-0.2,0.3-0.4,0.3-0.7s-0.1-0.5-0.3-0.7
	C170.6,8.5,170.3,8.3,170.1,8.3C170.1,8.3,170.1,8.3,170.1,8.3L170.1,8.3z"/>
<path class="st0" d="M171,11c-0.3,1.3-0.5,2.7-0.8,4c-0.1,0.6-0.2,1.1-0.4,1.7c0,0,0,0.1,0,0.1c-0.2,0.4-0.3,0.9-0.4,1.4
	c-0.1,0.6-0.3,1.1-0.1,1.7c0.1,0.2,0.2,0.4,0.3,0.5c0.2,0.2,0.5,0.3,0.8,0.3c0.2,0,0.4-0.1,0.6-0.2c0.3-0.2,0.4-0.4,0.5-0.7
	c0.1-0.3,0.2-0.7,0.3-1c0-0.2,0.1-0.3,0.1-0.5c0.1-0.3,0.2-0.7,0.2-1c0.1-0.6,0.2-1.1,0.3-1.7c0,0,0-0.1,0-0.1
	c0.2-0.4,0.4-0.7,0.7-1.1c0.4-0.6,0.9-1.1,1.4-1.5c0.1-0.1,0.2-0.1,0.2-0.1c0.2-0.1,0.3-0.1,0.5-0.1c0.5,0,0.9,0,1.4,0
	c0.5,0,0.9-0.4,0.9-0.9c0-0.5-0.4-0.9-0.9-0.9c-0.5,0-0.9-0.1-1.4,0c-0.6,0-1.1,0.2-1.6,0.5c-0.2,0.1-0.3,0.2-0.5,0.4
	c0,0,0-0.1,0-0.1c0.1-0.3,0-0.6-0.1-0.9c-0.2-0.3-0.4-0.5-0.7-0.5c-0.1,0-0.2,0-0.3,0C171.6,10.1,171.1,10.5,171,11L171,11z"/>
<path class="st0" d="M183.5,10.8c-0.6,0.2-1.2,0.6-1.7,1c-0.6,0.4-1,1-1.5,1.6c-0.3,0.4-0.6,0.8-0.8,1.2c0,0,0,0-0.1,0c0,0,0,0,0,0
	c-0.3,0-0.5,0-0.7,0.1c-0.2,0.1-0.4,0.3-0.4,0.6c-0.1,0.3,0,0.7,0.3,1c-0.1,0.3-0.2,0.6-0.3,1c-0.1,0.4-0.1,0.8,0,1.2
	c0.1,0.4,0.2,0.7,0.4,1c0.2,0.3,0.4,0.6,0.6,0.9c0.3,0.3,0.6,0.6,0.9,0.8c0.5,0.4,1.2,0.6,1.9,0.8c0.7,0.2,1.4,0.2,2.1,0.3
	c0.6,0.1,1.1,0.1,1.7,0.2c0.3,0,0.6,0,1,0.1c0.6,0,1.1-0.5,1.1-1.1c0-0.6-0.5-1-1.1-1.1c-1.1,0-2.3-0.2-3.4-0.3
	c-0.6-0.1-1.2-0.2-1.8-0.4c-0.2-0.1-0.4-0.2-0.5-0.3c-0.2-0.1-0.3-0.3-0.5-0.5c-0.1-0.2-0.2-0.4-0.3-0.6c0-0.1-0.1-0.2-0.1-0.3
	c0-0.1,0-0.3,0-0.4c0-0.2,0.1-0.4,0.2-0.6c0.1-0.1,0.1-0.2,0.2-0.3c0.2,0,0.4,0,0.5-0.1c0.8-0.1,1.5-0.4,2.2-0.7
	c0.3-0.1,0.7-0.3,1-0.5c0.3-0.2,0.6-0.4,0.9-0.7c0.3-0.2,0.5-0.5,0.7-0.8c0.2-0.3,0.4-0.7,0.5-1.1c0.1-0.3,0-0.6-0.1-1
	c-0.1-0.2-0.1-0.3-0.3-0.5c-0.1-0.1-0.2-0.2-0.3-0.3c-0.1-0.1-0.3-0.1-0.4-0.2c-0.1-0.1-0.3-0.1-0.5-0.1c-0.1,0-0.1,0-0.2,0
	C184.1,10.6,183.8,10.7,183.5,10.8L183.5,10.8z M184.4,12.2C184.4,12.2,184.4,12.2,184.4,12.2C184.4,12.2,184.4,12.2,184.4,12.2
	L184.4,12.2z M184.4,12.2C184.4,12.2,184.4,12.2,184.4,12.2C184.4,12.2,184.4,12.2,184.4,12.2C184.4,12.2,184.4,12.2,184.4,12.2
	L184.4,12.2z M184.4,12.4C184.4,12.4,184.4,12.4,184.4,12.4c-0.1,0.1-0.1,0.2-0.1,0.2c-0.2,0.3-0.5,0.5-0.7,0.7
	c-0.3,0.2-0.6,0.4-1,0.6c-0.2,0.1-0.4,0.2-0.7,0.2c0.3-0.4,0.7-0.8,1.1-1.1c0.3-0.2,0.6-0.4,0.9-0.6c0.1,0,0.2-0.1,0.3-0.1
	C184.3,12.4,184.4,12.4,184.4,12.4L184.4,12.4z M184.7,12.4C184.7,12.4,184.7,12.4,184.7,12.4C184.7,12.4,184.7,12.4,184.7,12.4
	L184.7,12.4z M183.1,19.9C183.2,19.9,183.2,19.9,183.1,19.9C183.2,19.9,183.2,19.9,183.1,19.9L183.1,19.9z"/>
<path class="st0" d="M194.5,10.1c-0.4,0.1-0.8,0.3-1.2,0.5c-0.4,0.2-0.8,0.5-1.2,0.8c-0.7,0.5-1.2,1.2-1.8,1.9
	c-0.1,0.2-0.2,0.3-0.3,0.5c-0.1,0-0.1,0-0.2,0c-0.3,0.1-0.6,0.3-0.8,0.6c-0.2,0.3-0.2,0.6-0.1,1c0,0.1,0.1,0.3,0.2,0.4
	c0,0.1,0,0.1,0,0.2c-0.2,0.8-0.1,1.7,0.1,2.4c0.3,0.9,1,1.5,1.8,2c0.7,0.5,1.5,0.7,2.3,0.8c0.9,0.1,1.9,0.2,2.9,0.2
	c1.9,0,3.9-0.4,5.7-0.9c1-0.3,1.9-0.7,2.9-1c0.6-0.2,1.1-0.4,1.7-0.7c0.3-0.1,0.6-0.3,0.8-0.6c0.2-0.3,0.2-0.6,0.1-1
	c-0.1-0.3-0.3-0.6-0.6-0.8c-0.3-0.2-0.7-0.2-1-0.1c-0.9,0.3-1.7,0.7-2.6,1c-0.7,0.2-1.3,0.5-2,0.7c-1.1,0.4-2.2,0.6-3.3,0.8
	c-0.7,0.1-1.4,0.1-2.2,0.1c-0.7,0-1.4,0-2.1-0.1c-0.3-0.1-0.6-0.1-0.9-0.2c-0.3-0.1-0.5-0.3-0.8-0.5c-0.1-0.1-0.3-0.2-0.4-0.4
	c0-0.1-0.1-0.1-0.1-0.2c0-0.1-0.1-0.3-0.1-0.4c0-0.3,0-0.5,0-0.8c0-0.1,0.1-0.2,0.1-0.3c1.5-0.4,2.9-1.1,4.1-1.9
	c0.7-0.4,1.4-0.9,1.9-1.6c0.3-0.4,0.4-0.9,0.3-1.3c-0.1-0.5-0.4-0.9-0.8-1.1c-0.3-0.2-0.7-0.3-1.1-0.3
	C195.4,9.9,194.9,10,194.5,10.1L194.5,10.1z"/>
<path class="st0" d="M220,10.6c-0.2,0.6,0.2,1.4,0.9,1.5c0.6,0.1,1.1,0.3,1.7,0.4c0.7,0.1,1.5,0.2,2.2,0.2c0.5,0,1-0.4,1.1-0.9
	c0.1-0.3,0-0.6-0.1-0.9c-0.1-0.2-0.4-0.5-0.7-0.5c-1.2-0.2-2.4-0.4-3.6-0.7c-0.1,0-0.2,0-0.3,0C220.6,9.6,220.1,10,220,10.6
	L220,10.6z"/>
<path class="st0" d="M223.7,14.2c-0.5,0-1,0.4-1,1c0,0.5,0.4,1,1,1c1.1,0,2.2-0.1,3.3-0.2c0.5,0,0.9-0.4,0.9-0.9
	c0-0.5-0.4-0.9-0.9-0.9c-0.5,0-0.9,0-1.4,0C225,14.2,224.3,14.2,223.7,14.2L223.7,14.2z"/>
<path class="st0" d="M237.2,1.4c-0.3,5.9-0.6,11.8-0.6,17.7c0,0.7,0.6,1.2,1.2,1.2c0.3,0,0.6-0.1,0.9-0.4c0.2-0.2,0.3-0.5,0.4-0.9
	c0.3-2.7,0.4-5.5,0.5-8.2c0.2-3.2,0.3-6.3,0.4-9.5c0-0.7-0.6-1.4-1.4-1.4C237.7,0,237.2,0.6,237.2,1.4L237.2,1.4z"/>
<path class="st0" d="M238.7,9.8c-0.3,0.2-0.6,0.4-0.9,0.7c-0.3,0.3-0.4,0.7-0.6,1.1c-0.1,0.4-0.2,0.8-0.3,1.2
	c-0.1,0.4-0.1,0.7-0.2,1.1c0,0.2,0.1,0.5,0.2,0.6c0.2,0.2,0.4,0.2,0.6,0.2c0.2,0,0.4-0.1,0.6-0.2c0.2-0.2,0.2-0.4,0.2-0.6
	c0,0,0-0.1,0-0.1c0.1-0.6,0.2-1.2,0.4-1.7c0.1-0.1,0.1-0.2,0.2-0.4c0,0,0.1-0.1,0.1-0.1c0.1,0,0.1-0.1,0.2-0.1c0,0,0,0,0.1,0
	c0.1,0,0.2,0,0.3,0c0.1,0,0.2,0,0.3,0.1c0.1,0.1,0.2,0.1,0.3,0.2c0.1,0.1,0.3,0.2,0.4,0.4c0.1,0.2,0.2,0.4,0.3,0.6
	c0.1,0.3,0.2,0.6,0.3,1c0.1,0.3,0.1,0.6,0.2,1c0.1,1.1,0.2,2.2,0.1,3.3c0,0.6,0.5,1.1,1.1,1.1c0.3,0,0.6-0.1,0.8-0.3
	c0.2-0.2,0.3-0.5,0.3-0.8c0-0.2,0-0.5,0-0.7c0-0.2,0-0.4,0-0.6c0-0.3-0.1-0.6-0.1-0.9c-0.1-0.7-0.2-1.4-0.4-2.1
	c-0.2-0.8-0.5-1.6-0.9-2.2c-0.4-0.6-0.9-1.1-1.6-1.5c-0.4-0.2-0.9-0.3-1.3-0.3C239.4,9.5,239,9.6,238.7,9.8L238.7,9.8z M239.7,11.3
	C239.7,11.3,239.6,11.3,239.7,11.3C239.6,11.3,239.7,11.3,239.7,11.3L239.7,11.3z M240.5,11.7C240.6,11.7,240.6,11.7,240.5,11.7
	C240.6,11.7,240.6,11.7,240.5,11.7L240.5,11.7z M238.6,13.5c0,0,0,0.1,0,0.1C238.5,13.6,238.6,13.6,238.6,13.5L238.6,13.5z
	 M241.7,14.7c0,0.1,0,0.1,0,0.2C241.7,14.8,241.7,14.7,241.7,14.7L241.7,14.7z"/>
<path class="st0" d="M248.1,11.8c-0.1,0.2-0.2,0.3-0.3,0.5c-0.6,0-1.2,0.6-1.2,1.2c0,0.3,0.1,0.5,0.3,0.7c-0.1,0.3-0.2,0.6-0.3,1
	c-0.1,0.7-0.1,1.3,0,1.9c0.1,0.7,0.5,1.2,1,1.8c0.4,0.4,0.9,0.9,1.4,1.1c0.7,0.2,1.4,0.3,2.1,0.2c0.8-0.1,1.6-0.2,2.4-0.3
	c0.2-0.1,0.4-0.2,0.6-0.3c0.2-0.2,0.4-0.6,0.4-0.9c0-0.3-0.1-0.7-0.4-0.9c-0.2-0.2-0.6-0.4-0.9-0.4c-0.5,0.1-0.9,0.1-1.4,0.1
	c-0.6,0-1.1,0.1-1.7,0c-0.1,0-0.2,0-0.3-0.1c0,0,0,0,0,0c-0.2-0.2-0.4-0.4-0.6-0.6c-0.1-0.1-0.1-0.2-0.2-0.3c0-0.1-0.1-0.3-0.1-0.4
	c0-0.2,0-0.4,0-0.6c0.1-0.3,0.2-0.7,0.3-1c0.1,0,0.3,0,0.4,0c0.3,0,0.6-0.1,0.9-0.1c0.3-0.1,0.5-0.2,0.8-0.3
	c0.3-0.1,0.5-0.3,0.7-0.5c0.3-0.2,0.5-0.6,0.6-1c0.2-0.6,0.3-1.2,0.1-1.7c-0.1-0.3-0.3-0.6-0.5-0.8c-0.3-0.3-0.8-0.4-1.2-0.5
	c-0.1,0-0.1,0-0.2,0C249.7,9.7,248.7,10.8,248.1,11.8L248.1,11.8z M250.5,11.5C250.5,11.6,250.5,11.6,250.5,11.5
	C250.5,11.6,250.5,11.6,250.5,11.5L250.5,11.5z M251,12.1c0,0,0.1,0,0.1,0C251.1,12.1,251,12.1,251,12.1C251,12.1,251,12.1,251,12.1
	L251,12.1z M249.7,17.4C249.7,17.4,249.8,17.5,249.7,17.4C249.8,17.5,249.7,17.4,249.7,17.4L249.7,17.4z"/>
<path class="st0" d="M256.9,10.5c0,0.8,0.7,1.5,1.5,1.5c0.8,0,1.5-0.7,1.5-1.5c0-0.8-0.7-1.5-1.5-1.5
	C257.6,8.9,256.9,9.6,256.9,10.5L256.9,10.5z"/>
<path class="st0" d="M258.8,12.8c-0.2,0.1-0.3,0.3-0.4,0.5c-0.2,0.4-0.3,0.8-0.5,1.2c-0.1,0.2-0.1,0.4-0.2,0.6
	c-0.1,0.2-0.1,0.5-0.2,0.7c0,0.2-0.1,0.4-0.1,0.6c0,0.1,0,0.3,0,0.4c0,0.2,0.1,0.4,0.3,0.6c0.2,0.2,0.4,0.3,0.6,0.3
	c0.5,0,0.9-0.4,0.9-0.9c0-0.1,0-0.3,0-0.4c0.1-0.5,0.3-0.9,0.5-1.4c0.2-0.4,0.3-0.8,0.5-1.2c0.1-0.2,0-0.5-0.1-0.7
	c-0.1-0.2-0.3-0.4-0.5-0.4c-0.1,0-0.2,0-0.2,0C259.1,12.7,258.9,12.7,258.8,12.8L258.8,12.8z"/>
<path class="st0" d="M266.4,9.9c-0.2,0-0.4,0-0.6,0.1c-0.3,0.1-0.5,0.2-0.8,0.3c-0.5,0.2-0.9,0.6-1.3,1c-0.3,0.3-0.6,0.6-0.9,1
	c-0.4,0.5-0.6,1-0.8,1.6c-0.1,0.6-0.1,1.2,0,1.7c0.1,0.6,0.5,1.1,0.9,1.5c0.2,0.2,0.4,0.3,0.7,0.4c0.3,0.1,0.6,0.1,0.9,0.1
	c0.4,0,0.9-0.1,1.3-0.3c0,0.1,0,0.2,0,0.3c-0.1,1.2-0.2,2.4-0.3,3.7c-0.2,1.1-0.4,2.2-0.8,3.3c-0.2,0.4-0.4,0.9-0.7,1.3
	c-0.4,0.5-0.9,0.9-1.4,1.4c-0.5,0.4-1.1,0.7-1.7,1c-0.3,0.1-0.7,0.2-1,0.3c-0.1,0-0.1,0-0.2,0c-0.1,0-0.2,0-0.3-0.1
	c-0.2-0.1-0.4-0.3-0.6-0.4c-0.1-0.1-0.2-0.2-0.3-0.2c-0.3-0.2-0.5-0.4-0.9-0.4c-0.3,0-0.6,0.1-0.9,0.4c-0.5,0.5-0.5,1.3,0,1.7
	c0.4,0.4,0.8,0.8,1.3,1.1c0.2,0.2,0.5,0.3,0.8,0.4c0.3,0.1,0.6,0.1,0.9,0.2c0.1,0,0.3,0,0.4,0c0.2,0,0.4,0,0.6-0.1
	c0.3-0.1,0.5-0.1,0.8-0.2c0.6-0.2,1.1-0.4,1.6-0.7c0.5-0.3,1-0.7,1.5-1.1c0.4-0.4,0.9-0.8,1.2-1.2c0.8-1,1.3-2.1,1.7-3.4
	c0.2-0.6,0.3-1.2,0.4-1.8c0.1-0.6,0.2-1.3,0.2-1.9c0.1-0.6,0.1-1.1,0.1-1.7c0.1-1.5,0.1-3,0.3-4.5c0-0.1,0-0.3,0.1-0.4
	c0.1-0.2,0.2-0.5,0.3-0.7c0.1-0.2,0.2-0.4,0.2-0.6c0-0.2,0-0.3,0-0.5c-0.1-0.3-0.2-0.4-0.4-0.7c-0.2-0.2-0.5-0.3-0.8-0.4
	c-0.1-0.2-0.1-0.4-0.2-0.6c-0.1-0.2-0.3-0.5-0.6-0.6C266.9,10,266.7,9.9,266.4,9.9C266.4,9.9,266.4,9.9,266.4,9.9L266.4,9.9z
	 M266,12.2C266,12.2,266,12.2,266,12.2c0,0.5,0.1,0.9,0.1,1.4c-0.1,0.1-0.2,0.2-0.3,0.4c-0.2,0.3-0.5,0.5-0.7,0.8
	c-0.2,0.1-0.3,0.2-0.5,0.3c0,0-0.1,0-0.1,0c0,0-0.1,0-0.1,0c0-0.2-0.1-0.3-0.1-0.5c0-0.1,0-0.1,0-0.2c0-0.1,0.1-0.3,0.1-0.4
	c0.1-0.2,0.2-0.3,0.3-0.5c0.3-0.4,0.6-0.8,1-1.1C265.9,12.2,265.9,12.2,266,12.2L266,12.2z M268.6,14.7
	C268.6,14.7,268.6,14.7,268.6,14.7C268.6,14.7,268.6,14.7,268.6,14.7L268.6,14.7z M264.4,14.8c0,0,0,0.1,0,0.1
	C264.4,14.8,264.4,14.8,264.4,14.8L264.4,14.8z M264.4,14.8C264.4,14.8,264.4,14.9,264.4,14.8C264.4,14.9,264.4,14.8,264.4,14.8
	L264.4,14.8z M264.4,14.9C264.4,14.9,264.4,14.9,264.4,14.9C264.4,14.9,264.4,14.9,264.4,14.9L264.4,14.9z M264.6,15
	C264.6,15.1,264.7,15.1,264.6,15C264.7,15.1,264.6,15.1,264.6,15L264.6,15z"/>
<path class="st0" d="M272.1,2.6c-0.3,0.3-0.4,0.7-0.4,1.1c-0.1,2.4-0.3,4.7-0.4,7.1c-0.1,1-0.1,2.1-0.2,3.1
	c-0.1,1.2-0.1,2.3-0.1,3.5c0,0.8,0.7,1.5,1.5,1.5c0.4,0,0.8-0.2,1-0.4c0.3-0.3,0.4-0.7,0.4-1c0,0,0,0,0,0c0.1-1.1,0.1-2.2,0.2-3.4
	c0.1,0.1,0.1,0.1,0.2,0.2c0.2,0.3,0.4,0.6,0.6,1c0.4,1,0.6,2,0.7,3c0,0.2,0,0.4,0.1,0.5c0,0.3,0.1,0.6,0.3,0.8
	c0.2,0.2,0.5,0.3,0.8,0.3c0.3,0,0.6-0.1,0.8-0.3c0.3-0.3,0.4-0.7,0.3-1.1c-0.2-1.1-0.4-2.2-0.8-3.3c-0.3-0.8-0.7-1.6-1.3-2.3
	c-0.2-0.3-0.6-0.5-0.9-0.8c-0.2-0.1-0.3-0.2-0.5-0.2c0,0-0.1,0-0.1,0c0.2-2.7,0.3-5.5,0.5-8.2c0-0.8-0.7-1.5-1.5-1.5
	C272.7,2.1,272.3,2.3,272.1,2.6L272.1,2.6z"/>
<path class="st0" d="M283.8,2c-0.3,0.3-0.4,0.7-0.5,1.2c-0.3,2.9-0.6,5.9-0.8,8.8c-0.2,2.6-0.5,5.2-0.7,7.9
	c-0.1,0.9,0.8,1.6,1.6,1.6c0.4,0,0.8-0.2,1.1-0.5c0.3-0.3,0.4-0.7,0.5-1.1c0.7-5.5,1.1-11.1,1.6-16.7c0-0.4-0.2-0.9-0.5-1.2
	c-0.3-0.3-0.7-0.5-1.2-0.5S284.1,1.7,283.8,2L283.8,2z"/>
<path class="st0" d="M288.2,7.4c-2.4,0.5-4.8,1.2-7.3,1.9c-0.6,0.2-0.9,0.8-0.7,1.3c0.2,0.6,0.8,0.9,1.3,0.8
	c2.4-0.7,4.8-1.3,7.2-1.9c0.5-0.1,0.9-0.7,0.7-1.3c-0.1-0.5-0.6-0.8-1-0.8C288.4,7.4,288.3,7.4,288.2,7.4L288.2,7.4z"/>
<path class="st0" d="M305.8,9.9c-0.7,0-1.3,0.3-1.9,0.7c-0.3,0.2-0.6,0.4-0.8,0.7c-0.3,0.3-0.6,0.7-0.9,1.1
	c-0.5,0.7-0.9,1.4-1.2,2.1c-0.2,0.4-0.3,0.7-0.5,1.1c-0.2,0.4-0.2,0.9-0.3,1.3c0,0.4,0,0.8,0.1,1.1c0.1,0.3,0.1,0.7,0.3,0.9
	c0.2,0.3,0.5,0.7,0.8,0.9c0.4,0.2,0.7,0.4,1.2,0.4c0.5,0.1,0.9,0.1,1.4,0c0.5-0.1,0.9-0.3,1.4-0.5c0.8-0.3,1.5-0.9,2.1-1.4
	c0.5-0.4,0.9-1,1.3-1.6c0,0,0.1-0.1,0.1-0.1c0.3-0.2,0.6-0.5,0.7-0.9c0-0.1,0.1-0.3,0.1-0.4c0.1-0.3,0.3-0.6,0.4-0.8
	c0.1-0.4,0.2-0.8,0.2-1.2c0-0.4,0-0.9-0.1-1.3c-0.1-0.3-0.2-0.7-0.4-1c-0.2-0.4-0.5-0.6-0.8-0.8c-0.2-0.1-0.4-0.2-0.7-0.2
	c-0.4,0-0.7,0.1-1,0.4C306.8,10.1,306.3,9.9,305.8,9.9C305.8,9.9,305.8,9.9,305.8,9.9L305.8,9.9z M305.4,13.6
	c0.2,0.3,0.3,0.6,0.4,0.9c0.1,0.2,0.2,0.4,0.3,0.6c0,0,0,0,0,0c-0.3,0.4-0.6,0.7-1,1c-0.3,0.2-0.7,0.4-1,0.6
	c-0.2,0.1-0.3,0.1-0.5,0.2c0.1-0.3,0.2-0.5,0.3-0.8c0.4-0.8,0.8-1.6,1.3-2.3C305.2,13.7,305.3,13.6,305.4,13.6L305.4,13.6z
	 M306,15.2c0,0-0.1,0.1-0.1,0.1C306,15.3,306,15.3,306,15.2L306,15.2z M303.6,17C303.6,17,303.6,17,303.6,17
	C303.5,17,303.5,17,303.6,17C303.6,17,303.6,17,303.6,17L303.6,17z"/>
<path class="st0" d="M319.2,1.9c-0.6,0.2-1.1,0.6-1.5,1.1c-0.5,0.5-0.9,1.1-1.2,1.7c-0.3,0.6-0.5,1.3-0.8,1.9
	c-0.2,0.7-0.4,1.3-0.6,2c-0.3,1.3-0.6,2.5-0.8,3.8c-0.3,2.3-0.7,4.6-0.8,7c0,0.7,0.6,1.2,1.2,1.2c0.3,0,0.6-0.1,0.9-0.4
	c0.3-0.2,0.3-0.5,0.4-0.9c0.3-2.8,0.3-5.6,0.7-8.4c0.3-1.9,0.7-3.7,1.4-5.4c0.2-0.5,0.5-1,0.8-1.5c0.2-0.2,0.4-0.4,0.6-0.6
	c0.1-0.1,0.2-0.1,0.3-0.2c0.1,0,0.2-0.1,0.3-0.1c0.1,0,0.2,0,0.3,0c0,0,0,0,0,0c0.1,0,0.1,0.1,0.2,0.1c0.4,0.4,0.8,0.8,1.2,1.3
	c0.3,0.4,0.6,0.9,0.8,1.4c0.2,0.3,0.6,0.4,0.9,0.2c0.3-0.2,0.4-0.6,0.2-0.9c-0.4-0.8-0.9-1.5-1.4-2.2c-0.2-0.2-0.3-0.4-0.5-0.6
	c-0.2-0.2-0.4-0.4-0.7-0.6c-0.2-0.2-0.6-0.3-0.9-0.3c-0.1,0-0.1,0-0.2,0C319.7,1.8,319.5,1.8,319.2,1.9L319.2,1.9z M320.1,3.3
	c0,0,0.1,0,0.1,0C320.2,3.3,320.2,3.3,320.1,3.3L320.1,3.3z M316.7,11.1C316.7,11.2,316.7,11.2,316.7,11.1
	C316.7,11.2,316.7,11.2,316.7,11.1L316.7,11.1z"/>
<path class="st0" d="M319,8c-2.8,0.7-5.5,1.5-8.2,2.4c-0.5,0.2-0.8,0.7-0.7,1.2c0.1,0.5,0.7,0.8,1.2,0.7c2.7-0.9,5.4-1.7,8.1-2.5
	c0.5-0.1,0.8-0.6,0.6-1.1C320,8.2,319.6,8,319.2,8C319.1,8,319.1,8,319,8L319,8z"/>
<path class="st0" d="M337.2,9c-0.4,0.1-0.8,0.2-1.2,0.4c-0.5,0.2-0.9,0.5-1.2,0.9c-0.7,0.8-1.2,1.7-1.6,2.6c-0.4,0.9-0.7,1.8-1,2.7
	c-0.1,0.2-0.1,0.4-0.2,0.7c-0.1,0.3-0.1,0.6-0.1,0.8c0,0.1,0,0.1,0,0.2c0,0.3,0.1,0.5,0.2,0.8c0.1,0.2,0.3,0.4,0.5,0.6
	c0.6,0.7,2,0.5,2.4-0.3c0.3-0.6,0.7-1.3,1-1.9c0.3-0.6,0.6-1.2,1-1.7c0.1-0.2,0.3-0.3,0.5-0.5c0.3-0.2,0.5-0.7,0.5-1.1
	c0-0.4-0.2-0.8-0.5-1.1c-0.1-0.1-0.2-0.2-0.3-0.2c0,0,0,0,0.1-0.1c0.1-0.1,0.2-0.1,0.3-0.2c0.1-0.1,0.3-0.1,0.5-0.1
	c0.7-0.2,1.1-0.9,0.9-1.6c-0.1-0.3-0.3-0.6-0.6-0.8C338,9,337.8,9,337.6,9C337.5,9,337.3,9,337.2,9L337.2,9z"/>
<path class="st0" d="M342.8,10.8c-0.2,0.2-0.4,0.3-0.6,0.5c-0.2,0.2-0.3,0.4-0.5,0.5c-0.4,0.5-0.8,1-1.1,1.5c-0.3,0.5-0.5,1-0.7,1.5
	c-0.2,0.5-0.4,1-0.5,1.5c0,0.3-0.1,0.6-0.1,0.9c0,0.3,0.1,0.6,0.1,0.9c0,0.3,0.2,0.5,0.3,0.8c0.1,0.3,0.4,0.6,0.6,0.9
	c0.1,0,0.1,0.1,0.2,0.1c0.1,0.1,0.3,0.2,0.5,0.3c0.2,0.1,0.5,0.2,0.8,0.3c0.6,0.2,1.3,0.1,1.9-0.1c1-0.3,1.9-1.1,2.6-1.8
	c0.8-0.8,1.4-1.7,1.7-2.8c0.1-0.2,0.1-0.5,0.1-0.8c0-0.3,0-0.5-0.1-0.8c0-0.2-0.2-0.5-0.3-0.8c-0.2-0.3-0.4-0.6-0.6-0.8
	c-0.3-0.4-0.8-0.7-1.2-0.9c-0.3-0.2-0.7-0.3-1.1-0.4c-0.2-0.3-0.5-0.6-0.9-0.7c-0.1,0-0.3-0.1-0.4-0.1
	C343.3,10.6,343,10.7,342.8,10.8L342.8,10.8z M344.1,13.8c0.1,0,0.2,0.1,0.3,0.1c0.2,0.1,0.3,0.2,0.5,0.3c0.1,0.1,0.3,0.3,0.4,0.4
	c0,0,0.1,0.1,0.1,0.1c0,0,0,0.1,0,0.1c0,0.1-0.1,0.3-0.1,0.4c-0.1,0.2-0.2,0.4-0.4,0.6c-0.3,0.4-0.7,0.8-1.1,1.1
	c-0.3,0.2-0.5,0.3-0.8,0.5c-0.1,0-0.2,0-0.2,0.1c0,0,0,0,0,0c0,0-0.1,0-0.1,0c0,0,0,0,0-0.1c0-0.1,0-0.1,0-0.2c0-0.1,0-0.2,0-0.4
	c0.1-0.4,0.2-0.8,0.4-1.2c0.2-0.5,0.5-1,0.8-1.5C343.8,14.1,343.9,13.9,344.1,13.8L344.1,13.8z M345.3,14.6c0,0,0,0.1,0,0.1
	c0,0,0,0,0,0C345.4,14.7,345.3,14.7,345.3,14.6L345.3,14.6z M345.4,14.7C345.4,14.7,345.4,14.7,345.4,14.7
	C345.4,14.8,345.4,14.8,345.4,14.7C345.4,14.8,345.4,14.8,345.4,14.7L345.4,14.7z M342.4,17.4C342.4,17.4,342.4,17.5,342.4,17.4
	C342.4,17.5,342.4,17.4,342.4,17.4L342.4,17.4z M342.4,17.6C342.4,17.6,342.5,17.6,342.4,17.6C342.5,17.6,342.4,17.6,342.4,17.6
	L342.4,17.6z M342.6,17.6C342.6,17.6,342.6,17.6,342.6,17.6C342.6,17.6,342.6,17.6,342.6,17.6C342.6,17.6,342.6,17.6,342.6,17.6
	L342.6,17.6z M342.6,17.6c0,0,0.1,0,0.1,0.1C342.7,17.6,342.7,17.6,342.6,17.6C342.6,17.6,342.6,17.6,342.6,17.6L342.6,17.6z
	 M342.6,17.7C342.7,17.7,342.7,17.7,342.6,17.7C342.7,17.7,342.7,17.7,342.6,17.7L342.6,17.7z"/>
<path class="st0" d="M354.2,10.1c-0.4,0.6-0.1,1.4,0.5,1.8c0.1,0.1,0.3,0.2,0.4,0.3c0.3,0.3,0.6,0.6,0.9,0.9
	c0.2,0.2,0.3,0.4,0.4,0.7c0,0.1,0.1,0.3,0.1,0.4c0,0.1,0,0.2,0,0.2c0,0.1-0.1,0.3-0.1,0.4c-0.1,0.2-0.2,0.3-0.3,0.5
	c-0.2,0.3-0.4,0.5-0.7,0.8c-0.2,0.3-0.5,0.5-0.8,0.7c-0.3,0.2-0.6,0.4-0.9,0.6c-0.2,0.1-0.4,0.1-0.6,0.2c-0.1,0-0.2,0-0.3,0
	c0,0,0,0,0,0c0,0,0,0,0,0c-0.1-0.2-0.1-0.3-0.1-0.5c0-0.3,0-0.5,0-0.8c0.2-1.3,0.6-2.6,1-3.9c0.2-0.6-0.2-1.3-0.9-1.5
	c-0.7-0.2-1.3,0.2-1.5,0.9c-0.4,1.2-0.7,2.5-1,3.7c-0.1,0.5-0.2,1-0.2,1.6c0,0.7,0.2,1.3,0.5,1.9c0.5,1.1,1.9,1.4,3,1.2
	c0.5-0.1,1.1-0.3,1.6-0.6c0.6-0.3,1-0.7,1.5-1.1c0.4-0.3,0.7-0.7,1.1-1.1c0.4-0.5,0.8-1,1-1.5c0.2-0.5,0.3-1,0.3-1.5
	c0-0.7-0.3-1.3-0.5-1.8c-0.2-0.5-0.7-1-1-1.5c-0.4-0.5-0.9-0.8-1.4-1.1c-0.2-0.1-0.4-0.2-0.6-0.2C354.9,9.5,354.5,9.7,354.2,10.1
	L354.2,10.1z M352.8,17.5C352.8,17.5,352.9,17.6,352.8,17.5C352.9,17.6,352.8,17.5,352.8,17.5C352.8,17.5,352.8,17.5,352.8,17.5
	L352.8,17.5z"/>
<path class="st0" d="M367.6,2.8c-0.6,3-1.2,5.9-1.8,8.9c-0.2,1-0.5,2-0.6,3.1c-0.1,0.7-0.2,1.4-0.2,2.1c0,0.9,0.4,1.7,0.9,2.4
	c0.2,0.2,0.4,0.4,0.7,0.6c0.3,0.2,0.6,0.3,1,0.4c0.8,0.3,1.7,0.1,2.5,0c0.7-0.1,1.5-0.5,2.1-0.8c0.6-0.3,1.2-0.8,1.7-1.3
	c0.4-0.5,0.5-1.2,0.2-1.7c-0.4-0.6-1.3-0.9-1.9-0.5c-0.3,0.2-0.6,0.4-0.9,0.5c-0.6,0.2-1.1,0.3-1.7,0.4c-0.3,0-0.5,0-0.8,0
	c-0.1,0-0.1,0-0.2-0.1c0,0,0,0,0,0c0,0,0-0.1,0-0.1c0,0,0,0,0,0c0-0.5,0-1,0.1-1.4c0.2-1,0.4-2,0.6-3c0.2-0.8,0.3-1.7,0.5-2.5
	c0.4-2,0.8-4.1,1.2-6.1c0.1-0.5,0.1-0.9-0.2-1.4c-0.2-0.4-0.6-0.7-1-0.8c-0.1,0-0.3-0.1-0.4-0.1C368.6,1.5,367.8,2,367.6,2.8
	L367.6,2.8z M368.5,16.7C368.5,16.7,368.5,16.8,368.5,16.7C368.5,16.8,368.5,16.7,368.5,16.7L368.5,16.7z M368.5,16.8
	C368.5,16.8,368.5,16.8,368.5,16.8C368.5,16.8,368.5,16.8,368.5,16.8L368.5,16.8z M368.6,17C368.7,17,368.7,17.1,368.6,17
	C368.7,17.1,368.7,17,368.6,17L368.6,17z"/>
<path class="st0" d="M375.8,5.7c-1.7,0.4-3.4,0.9-5.1,1.5c-0.7,0.2-1.4,0.4-2.1,0.7c-1.1,0.4-2.3,0.8-3.4,1.2
	c-0.2,0.1-0.4,0.2-0.6,0.4c-0.1,0.2-0.2,0.5-0.1,0.7c0.1,0.5,0.7,0.8,1.2,0.7c1.1-0.4,2.2-0.8,3.3-1.2c0.7-0.2,1.4-0.5,2.1-0.7
	c1.7-0.5,3.4-1,5.2-1.5c0.5-0.1,0.8-0.7,0.7-1.2c-0.1-0.4-0.5-0.7-0.9-0.7C376,5.7,375.9,5.7,375.8,5.7L375.8,5.7z"/>
</svg>
