<?xml version="1.0" encoding="utf-8"?>
<!-- Generator: Adobe Illustrator 20.1.0, SVG Export Plug-In . SVG Version: 6.00 Build 0)  -->
<svg version="1.1" id="Layer_1" xmlns="http://www.w3.org/2000/svg" xmlns:xlink="http://www.w3.org/1999/xlink" x="0px" y="0px"
	 viewBox="0 0 183.8 140.3" style="enable-background:new 0 0 183.8 140.3;" xml:space="preserve">
<style type="text/css">
	.st0{fill:#4D62AD;}
</style>
<path class="st0" d="M16.7,0.3c-0.5,0.2-1,0.4-1.5,0.7c-0.5,0.3-0.9,0.7-1.4,1.1c-0.3,0.3-0.6,0.6-0.9,0.9c0-0.3,0-0.6-0.1-0.9
	c-0.1-0.5-0.7-0.7-1.1-0.8c-1.1-0.2-2.2,0.1-3.2,0.7C8,2.2,7.5,2.6,7,3C6.5,3.4,6,3.9,5.6,4.4C4.7,5.3,4,6.4,3.4,7.5
	C3,8.1,2.7,8.6,2.4,9.2c-0.3,0.6-0.6,1.3-0.9,2C1.3,11.8,1,12.4,0.7,13c-0.3,0.6-0.5,1.3-0.6,2C0,15.3,0,15.6,0,15.9
	c0,0.3,0.1,0.6,0.2,0.9c0.2,0.6,0.6,1.2,1.1,1.7c0.4,0.4,0.9,0.7,1.4,1c0.6,0.3,1.2,0.5,1.9,0.6c0.6,0.1,1.2,0.2,1.8,0.2
	c0.7,0,1.5,0,2.2-0.1c1.3-0.2,2.7-0.6,3.9-1c2.6-0.9,4.9-2.3,7-4.1c2-1.8,3.7-4,4.8-6.4c0.6-1.3,1-2.7,0.9-4.1
	c-0.1-0.7-0.2-1.3-0.5-1.9c-0.1-0.3-0.3-0.5-0.5-0.8c-0.2-0.3-0.5-0.5-0.8-0.7c-0.4-0.3-0.9-0.5-1.4-0.7c-0.5-0.2-1-0.3-1.6-0.4
	C19.9,0,19.5,0,19,0C18.3,0,17.5,0.1,16.7,0.3L16.7,0.3z M19.9,2.4c0.6,0.1,1.2,0.2,1.7,0.5C21.8,3,22,3.1,22.2,3.2
	c0.1,0.1,0.1,0.1,0.2,0.2c0.1,0.1,0.1,0.3,0.2,0.4c0.1,0.3,0.2,0.6,0.2,0.9c0,0.4,0,0.8,0,1.2c-0.1,0.6-0.3,1.1-0.5,1.7
	c-0.6,1.3-1.3,2.6-2.2,3.8c-1,1.2-2.1,2.3-3.3,3.3c-1.3,1-2.7,1.8-4.2,2.4c-0.7,0.3-1.5,0.5-2.2,0.8c-0.8,0.2-1.6,0.4-2.4,0.6
	c-0.8,0.1-1.7,0.1-2.5,0c-0.6-0.1-1.2-0.2-1.8-0.5c-0.3-0.1-0.6-0.3-0.8-0.5c-0.2-0.2-0.4-0.3-0.5-0.5c-0.1-0.2-0.3-0.4-0.4-0.7
	c0-0.1-0.1-0.2-0.1-0.3c0-0.1,0-0.3,0-0.4c0.1-0.9,0.4-1.7,0.7-2.5c0.3-0.8,0.6-1.6,1-2.5c0.4-0.9,0.8-1.7,1.3-2.6
	c0.4-0.8,0.9-1.6,1.5-2.3c0.6-0.8,1.4-1.5,2.2-2.1c0.4-0.3,0.9-0.6,1.3-0.8c0.3-0.1,0.6-0.2,0.9-0.3c0.3,0,0.5,0,0.8,0
	c0.1,0,0.2,0,0.3,0.1c0,0,0,0,0,0c0,0,0,0,0,0c0,0.4,0,0.8,0,1.2c0,0.2,0.1,0.3,0.2,0.4c-0.1,0.1-0.2,0.2-0.3,0.3
	c-0.1,0.2-0.1,0.4-0.1,0.5c0,0.3,0.1,0.6,0.3,0.8C12,6,12.3,6.1,12.6,6.1c0.3,0,0.6-0.1,0.8-0.3c0.4-0.5,0.8-0.9,1.2-1.3
	c0.4-0.4,0.9-0.8,1.3-1.1c0.3-0.2,0.7-0.4,1.1-0.6c0.4-0.2,0.9-0.3,1.3-0.4C18.8,2.4,19.4,2.4,19.9,2.4L19.9,2.4z M11.7,2.5
	C11.7,2.5,11.7,2.5,11.7,2.5C11.7,2.5,11.7,2.5,11.7,2.5C11.7,2.5,11.7,2.5,11.7,2.5L11.7,2.5z M11.7,2.6
	C11.7,2.6,11.7,2.6,11.7,2.6C11.7,2.6,11.7,2.6,11.7,2.6L11.7,2.6z M8.5,3.4C8.5,3.4,8.4,3.5,8.5,3.4C8.4,3.5,8.5,3.4,8.5,3.4
	L8.5,3.4z M6.1,5.7C6.1,5.7,6.1,5.7,6.1,5.7C6.1,5.7,6.1,5.7,6.1,5.7L6.1,5.7z M3.5,10.4c0,0,0,0.1-0.1,0.1
	C3.4,10.4,3.5,10.4,3.5,10.4L3.5,10.4z M20,11.3C20,11.3,20,11.4,20,11.3C20,11.4,20,11.3,20,11.3L20,11.3z M7.8,18.3
	C7.8,18.3,7.8,18.3,7.8,18.3C7.8,18.3,7.8,18.3,7.8,18.3L7.8,18.3z"/>
<path class="st0" d="M21.1,14.4c-0.4,0.1-0.8,0.4-1,0.8c-0.2,0.4-0.3,0.9-0.2,1.3c0.1,0.5,0.4,0.7,0.8,1c2.1,1.6,4.2,3.2,6.3,4.8
	c1.4,1.1,2.8,2.1,4.2,3.2c1.3,1,2.6,1.9,3.9,2.9c0.8,0.6,1.6,1.1,2.4,1.7c0.7,0.5,1.3,0.9,2,1.4c0.2,0.1,0.3,0.3,0.5,0.5
	c0.5,0.5,1.3,0.6,1.9,0.2c0.7-0.4,1-1.4,0.5-2.1c-0.2-0.2-0.3-0.5-0.5-0.7c-0.2-0.2-0.4-0.3-0.6-0.5c-0.2-0.2-0.5-0.4-0.7-0.5
	c-0.4-0.3-0.9-0.6-1.3-1c-0.7-0.5-1.4-1-2.1-1.6c-1.4-1-2.8-2.1-4.2-3.1c-3.5-2.6-7-5.3-10.5-8c-0.2-0.2-0.5-0.2-0.8-0.2
	C21.4,14.4,21.2,14.4,21.1,14.4L21.1,14.4z"/>
<path class="st0" d="M45.2,29.9c-0.6,0.5-1,1.1-1.4,1.7c-0.5,0.7-0.9,1.4-1.3,2.1c-0.4,0.8-0.8,1.6-1.1,2.4
	c-0.3,0.9-0.5,1.8-0.6,2.7c-0.1,0.8-0.1,1.6,0,2.4c0.2,0.9,0.5,1.6,1.1,2.3c0.5,0.6,1.1,1.2,1.8,1.6c0.3,0.2,0.7,0.4,1.1,0.5
	c0.4,0.2,0.8,0.3,1.3,0.4c1.7,0.4,3.5,0.2,5.1-0.3c0.8-0.3,1.6-0.6,2.4-1c0.8-0.4,1.6-0.9,2.3-1.5c0.6-0.5,1.2-1.1,1.8-1.7
	c0.6-0.7,1.2-1.4,1.7-2.2c0.4-0.7,0.8-1.4,1.1-2.2c0.3-0.8,0.5-1.7,0.5-2.5c-0.1-0.9-0.4-1.7-0.8-2.4c-0.5-0.8-1.2-1.3-1.9-1.8
	c-0.7-0.5-1.5-0.7-2.3-0.9c-0.4-0.1-0.9-0.1-1.3-0.1c-0.5,0-0.9,0.1-1.4,0.2c-0.4,0.1-0.9,0.2-1.3,0.4c-0.4,0.2-0.7,0.4-1.1,0.6
	c-0.4,0.3-0.8,0.6-1.2,0.9c0.3-0.4,0.2-0.9-0.1-1.3c-0.3-0.3-0.6-0.5-1-0.7c-0.4-0.2-0.8-0.4-1.2-0.4c0,0-0.1,0-0.1,0
	C46.4,29,45.7,29.4,45.2,29.9L45.2,29.9z M47.1,31.1c0.1,0,0.1,0,0.2,0.1c0.2,0.1,0.3,0.2,0.5,0.2c0.1,0,0.1,0.1,0.1,0.2
	c0.3,0.4,0.9,0.4,1.3,0.1c-0.2,0.2-0.4,0.4-0.5,0.6c-0.4,0.5-0.5,1.2,0,1.7c0.5,0.5,1.2,0.5,1.7,0c0.3-0.3,0.6-0.6,0.9-0.8
	c0.2-0.2,0.4-0.3,0.6-0.5c0.3-0.2,0.5-0.3,0.8-0.4c0.3-0.1,0.6-0.2,0.9-0.3c0.4,0,0.8,0,1.2,0c0.4,0.1,0.8,0.2,1.1,0.3
	c0.3,0.2,0.6,0.3,0.9,0.6c0.2,0.2,0.4,0.3,0.5,0.5c0.1,0.2,0.2,0.4,0.4,0.6c0.1,0.2,0.1,0.5,0.2,0.7c0,0.2,0,0.3,0,0.4
	c-0.1,0.5-0.3,1-0.5,1.5c-0.4,0.8-0.8,1.5-1.3,2.2c-0.8,1-1.6,1.8-2.6,2.6c-0.9,0.6-1.8,1.2-2.8,1.6c-0.7,0.3-1.4,0.5-2.2,0.6
	c-0.7,0.1-1.3,0.1-2,0c-0.5-0.1-1-0.2-1.5-0.4c-0.4-0.2-0.7-0.4-1-0.6c-0.3-0.3-0.6-0.6-0.9-0.9c-0.1-0.2-0.3-0.4-0.4-0.6
	c-0.1-0.2-0.1-0.5-0.2-0.7c-0.1-0.6,0-1.2,0-1.8c0.1-0.9,0.4-1.8,0.7-2.6c0.3-0.8,0.7-1.5,1.2-2.2c0.4-0.6,0.7-1.1,1.1-1.6
	c0.3-0.3,0.6-0.7,0.9-0.9C46.8,31.2,47,31.1,47.1,31.1C47.1,31.1,47.1,31.1,47.1,31.1L47.1,31.1z M42.9,38.5
	C42.9,38.6,42.9,38.6,42.9,38.5C42.9,38.6,42.9,38.6,42.9,38.5L42.9,38.5z"/>
<path class="st0" d="M58.8,44.3c-0.2,0.4-0.3,0.9-0.2,1.3c0.1,0.4,0.4,0.7,0.8,1c2.1,1.4,4.3,2.8,6.4,4.2c1.3,0.8,2.6,1.7,3.9,2.5
	c1.5,0.9,3,1.8,4.6,2.7c1.6,0.9,3.2,1.8,4.9,2.7c1,0.6,2.1,1.1,3.2,1.6c0.4,0.2,0.7,0.3,1.1,0.1c0.4-0.1,0.7-0.3,0.9-0.7
	c0.4-0.7,0.2-1.6-0.5-2c-1.7-0.9-3.3-1.9-5-2.9c-1.3-0.7-2.6-1.5-3.9-2.2c-0.9-0.5-1.8-1.1-2.7-1.6c-0.7-0.4-1.3-0.8-2-1.2
	c-1.7-1.1-3.3-2.1-5-3.2c-1.4-0.9-2.8-1.8-4.2-2.8c-0.2-0.2-0.5-0.2-0.8-0.2C59.7,43.5,59.1,43.8,58.8,44.3L58.8,44.3z"/>
<path class="st0" d="M94.3,57.5c-0.3,0-0.6,0.2-0.8,0.3c-0.5,0.2-0.9,0.6-1.4,0.9c-0.5,0.4-0.9,0.7-1.4,1.1c-1,0.8-1.8,1.8-2.6,2.8
	c-0.7,1-1.3,2.2-1.7,3.4c-0.2,0.6-0.3,1.2-0.4,1.8c-0.1,0.6,0,1.3,0.1,1.9c0.1,0.6,0.3,1.2,0.5,1.7c0.3,0.6,0.7,1.1,1.1,1.6
	c0.4,0.5,0.9,0.9,1.4,1.2c0.5,0.3,1.2,0.6,1.8,0.7c1.1,0.2,2.2,0.3,3.3,0.1c1.1-0.2,2.1-0.6,3.1-1.2c1-0.5,1.9-1.2,2.6-2
	c0.8-0.8,1.5-1.7,2-2.7c0.5-1,0.9-2.1,1.1-3.3c0.2-1.2,0.2-2.4-0.3-3.6c-0.2-0.5-0.4-1.1-0.8-1.5c-0.3-0.5-0.8-0.9-1.2-1.3
	c-0.5-0.4-1-0.8-1.6-1c-0.3-0.1-0.6-0.1-0.9-0.1c-0.4,0-0.7,0.1-1.1,0.2c-0.3,0.1-0.5,0.3-0.7,0.5c-0.2,0.3-0.2,0.6-0.1,0.9
	c0.1,0.3,0.3,0.5,0.5,0.7c0.1,0,0.2,0.1,0.3,0.1c0.2,0.1,0.4,0.1,0.6,0c0.1,0,0.2,0,0.2,0c0.1,0,0.2,0,0.3,0c0.1,0,0.2,0,0.3,0.1
	c0.1,0.1,0.2,0.1,0.3,0.2c0.4,0.3,0.7,0.7,1.1,1c0.2,0.3,0.4,0.6,0.5,1c0.1,0.3,0.2,0.6,0.3,1c0.1,0.5,0,1.1,0,1.6
	c-0.1,0.8-0.3,1.5-0.6,2.2c-0.3,0.7-0.7,1.3-1.1,1.9c-0.5,0.6-1.1,1.2-1.7,1.7c-0.7,0.5-1.4,0.9-2.2,1.3c-0.5,0.2-1.1,0.4-1.7,0.5
	c-0.6,0.1-1.2,0.1-1.8,0c-0.4-0.1-0.8-0.2-1.2-0.3c-0.3-0.2-0.7-0.4-1-0.6c-0.3-0.3-0.6-0.6-0.9-0.9c-0.2-0.3-0.4-0.6-0.5-0.9
	c-0.2-0.5-0.3-1-0.4-1.5c-0.1-0.5-0.1-1,0-1.5c0.1-0.7,0.3-1.4,0.6-2c0.4-1,0.9-1.9,1.6-2.7c1-1.3,2.2-2.4,3.5-3.3c0,0,0,0,0,0
	c0.3-0.3,0.7-0.5,1.1-0.7c0.1,0,0.2-0.1,0.4-0.1c0,0,0.1,0,0.1,0c0,0,0.1,0.1,0.1,0.1c0,0,0,0,0,0c0,0.3,0,0.6-0.1,0.9
	c-0.1,0.3-0.1,0.7-0.2,1c0,0.3,0.1,0.6,0.4,0.7c0.3,0.1,0.6-0.1,0.7-0.4c0.1-0.3,0.1-0.6,0.2-1c0-0.2,0-0.3,0.1-0.5
	c0-0.2,0-0.3,0.1-0.5c0-0.2,0.1-0.4,0-0.6c-0.1-0.5-0.5-0.9-1-1c-0.1,0-0.2,0-0.3,0C94.6,57.5,94.5,57.5,94.3,57.5L94.3,57.5z
	 M94.7,58.6C94.7,58.6,94.7,58.6,94.7,58.6C94.7,58.6,94.7,58.6,94.7,58.6L94.7,58.6z M94.8,58.7C94.8,58.7,94.8,58.7,94.8,58.7
	C94.8,58.7,94.8,58.7,94.8,58.7C94.9,58.7,94.9,58.7,94.8,58.7C94.9,58.7,94.9,58.7,94.8,58.7C94.9,58.7,94.9,58.7,94.8,58.7
	C94.9,58.7,94.9,58.7,94.8,58.7C94.8,58.7,94.8,58.7,94.8,58.7C94.8,58.7,94.8,58.7,94.8,58.7C94.8,58.7,94.8,58.7,94.8,58.7
	L94.8,58.7z M94.8,59.5C94.8,59.5,94.8,59.6,94.8,59.5C94.8,59.6,94.8,59.5,94.8,59.5L94.8,59.5z M88.3,65.3c0,0.1,0,0.1-0.1,0.2
	C88.2,65.4,88.2,65.4,88.3,65.3L88.3,65.3z M87.6,67.6c0,0,0,0.1,0,0.1C87.6,67.6,87.6,67.6,87.6,67.6L87.6,67.6z M87.6,68.8
	C87.6,68.9,87.6,68.9,87.6,68.8C87.6,68.9,87.6,68.9,87.6,68.8L87.6,68.8z M95.3,72.7c0,0-0.1,0-0.1,0.1
	C95.2,72.7,95.3,72.7,95.3,72.7L95.3,72.7z M94.8,58.7C94.8,58.7,94.8,58.7,94.8,58.7C94.8,58.7,94.8,58.7,94.8,58.7
	C94.8,58.7,94.8,58.7,94.8,58.7C94.8,58.7,94.8,58.7,94.8,58.7L94.8,58.7z"/>
<path class="st0" d="M110.1,80c0,0.8,0.7,1.5,1.5,1.5s1.5-0.7,1.5-1.5s-0.7-1.5-1.5-1.5S110.1,79.2,110.1,80L110.1,80z"/>
<path class="st0" d="M120.9,85.6c-0.1,0.1-0.1,0.2-0.1,0.3c0,0.1,0,0.2,0.1,0.3c0.3,0.3,0.5,0.6,0.7,0.9c0,0,0-0.1-0.1-0.1
	c0.1,0.1,0.2,0.3,0.3,0.4c0.1,0.1,0.1,0.2,0.2,0.2c0.1,0,0.2,0,0.3,0c0.1-0.1,0.2-0.1,0.2-0.2c0-0.1,0-0.2,0-0.3
	c-0.2-0.3-0.4-0.5-0.6-0.8c-0.2-0.2-0.3-0.4-0.5-0.6c-0.1-0.1-0.2-0.1-0.3-0.1C121.1,85.5,120.9,85.6,120.9,85.6L120.9,85.6z"/>
<path class="st0" d="M130.5,93.1c-0.3,0.1-0.5,0.2-0.6,0.5c-0.1,0.2-0.2,0.5-0.1,0.8c0,0.2,0.1,0.3,0.3,0.4c0.1,0.1,0.3,0.2,0.4,0.3
	c0.6,0.3,1.3,0.5,2,0.8c0.2,0.1,0.5,0,0.8-0.1c0.2-0.1,0.4-0.3,0.5-0.6c0.1-0.3,0-0.5-0.1-0.8c-0.1-0.2-0.3-0.4-0.6-0.5
	c-0.5-0.2-1-0.4-1.5-0.6c0,0,0,0,0.1,0c-0.1,0-0.1-0.1-0.2-0.1c0,0,0,0-0.1,0c0,0,0,0,0,0c0,0,0,0-0.1,0c-0.2-0.1-0.3-0.1-0.5-0.1
	C130.6,93,130.6,93,130.5,93.1L130.5,93.1z M131.3,93.2c0,0,0.1,0,0.1,0C131.4,93.2,131.3,93.2,131.3,93.2
	C131.3,93.2,131.3,93.2,131.3,93.2L131.3,93.2z"/>
<path class="st0" d="M143.8,94.8c-0.4,0-0.8,0.1-1.2,0.2c-0.3,0.1-0.6,0.1-0.9,0.2c-0.7,0.2-1.1,0.9-0.9,1.6
	c0.1,0.3,0.3,0.6,0.6,0.8c0.3,0.2,0.7,0.2,1,0.1c0.3-0.1,0.5-0.1,0.8-0.1c0.4,0,0.8-0.1,1.2-0.1c0.5,0,1,0,1.4,0
	c0.8,0.1,1.5,0.3,2.2,0.6c0.6,0.3,1.2,0.6,1.7,1c0.4,0.4,0.8,0.7,1.2,1.2c0.2,0.2,0.3,0.4,0.4,0.7c0.1,0.3,0.2,0.7,0.3,1
	c0,0.3,0,0.7,0,1c-0.1,0.3-0.2,0.7-0.3,1c-0.5,1-1,2-1.7,2.9c-0.8,1-1.7,1.9-2.7,2.6c-0.9,0.7-1.9,1.2-2.9,1.7
	c-0.9,0.4-1.9,0.7-2.9,0.8c-0.9,0.1-1.9,0.1-2.8,0c-0.5-0.1-1-0.2-1.5-0.4c-0.3-0.1-0.6-0.3-0.9-0.5c-0.3-0.2-0.6-0.5-0.8-0.8
	c-0.1-0.2-0.2-0.4-0.3-0.5c-0.1-0.2-0.1-0.4-0.2-0.7c0-0.4,0-0.9,0-1.3c0.1-0.8,0.4-1.6,0.8-2.3c0.3-0.6,0.6-1.2,0.9-1.8
	c0.3-0.6,0.7-1.1,1.1-1.6c0.4-0.6,0.9-1.1,1.5-1.5c0.4-0.3,0.7-0.5,1.1-0.7c0.2-0.1,0.5-0.2,0.7-0.2c0.1,0,0.2,0,0.4,0
	c0,0,0.1,0,0.1,0c0.1,0.1,0.2,0.1,0.3,0.2c0,0,0,0,0,0c0.1,0.2,0.2,0.4,0.3,0.5c0.1,0.3,0.2,0.7,0.3,1.1c0.1,0.3,0.1,0.7,0.1,1
	c0,0.2,0.2,0.4,0.4,0.5c0.2,0.1,0.4,0.1,0.6,0.1c0.2-0.1,0.4-0.2,0.5-0.4c0.1-0.2,0.1-0.4,0.1-0.6c-0.1-0.7-0.2-1.5-0.5-2.2
	c-0.1-0.3-0.3-0.7-0.4-1c-0.2-0.4-0.6-0.6-1-0.8c-0.7-0.4-1.5-0.3-2.2-0.1c-0.8,0.2-1.5,0.6-2.2,1.1c-0.6,0.4-1.1,1-1.5,1.5
	c-0.5,0.6-1,1.3-1.5,2c-0.4,0.7-0.8,1.4-1.1,2.1c-0.4,0.8-0.7,1.6-0.9,2.5c-0.2,0.8-0.2,1.6-0.1,2.3c0.1,0.8,0.5,1.5,1,2.2
	c0.5,0.6,1.1,1.1,1.7,1.5c0.3,0.2,0.7,0.3,1,0.5c0.4,0.2,0.8,0.3,1.2,0.3c1.6,0.3,3.2,0.3,4.8,0c0.8-0.1,1.5-0.4,2.3-0.7
	c0.8-0.3,1.6-0.7,2.4-1.1c1.1-0.6,2-1.4,2.9-2.2c0.9-0.8,1.7-1.7,2.4-2.7c0.7-1,1.3-2.1,1.7-3.2c0.2-0.6,0.3-1.2,0.3-1.8
	c0-0.6-0.1-1.3-0.3-1.9c-0.3-1.1-1-2.1-1.9-2.9c-0.4-0.4-0.9-0.8-1.4-1.1c-0.5-0.3-1-0.6-1.5-0.8c-0.6-0.3-1.2-0.5-1.8-0.7
	c-0.6-0.2-1.3-0.3-2-0.3c-0.2,0-0.3,0-0.5,0C144.8,94.7,144.3,94.7,143.8,94.8L143.8,94.8z M141.4,99.7
	C141.4,99.7,141.4,99.7,141.4,99.7C141.4,99.7,141.4,99.7,141.4,99.7L141.4,99.7z M141.5,99.8C141.5,99.8,141.6,99.8,141.5,99.8
	C141.6,99.8,141.5,99.8,141.5,99.8L141.5,99.8z M140.2,99.8C140.2,99.8,140.2,99.8,140.2,99.8C140.2,99.8,140.2,99.8,140.2,99.8
	L140.2,99.8z M149.8,106.7c0,0-0.1,0.1-0.1,0.1C149.8,106.8,149.8,106.7,149.8,106.7L149.8,106.7z M147.2,109.4
	C147.1,109.4,147.1,109.5,147.2,109.4C147.1,109.4,147.1,109.4,147.2,109.4L147.2,109.4z"/>
<path class="st0" d="M151,114.8c-0.6,0.6-0.7,1.8,0,2.5c1.5,1.3,3,2.6,4.5,4c0.9,0.8,1.8,1.6,2.8,2.3c1.2,1,2.4,1.9,3.6,2.8
	c0.5,0.4,1.1,0.8,1.6,1.1c0.2,0.1,0.4,0.3,0.6,0.4c0.2,0.1,0.4,0.2,0.5,0.3c0.3,0.2,0.6,0.3,0.9,0.4c0.3,0.1,0.5,0.1,0.8,0
	c0.4-0.1,0.7-0.3,0.9-0.7c0.2-0.3,0.2-0.7,0.1-1.1c-0.1-0.4-0.3-0.6-0.7-0.9c-0.1-0.1-0.2-0.2-0.3-0.2c-2-1.6-3.9-3.2-5.8-4.8
	c-0.9-0.7-1.8-1.5-2.7-2.3c-1.5-1.3-3-2.6-4.4-3.9c-0.4-0.3-0.7-0.5-1.2-0.5C151.8,114.3,151.3,114.5,151,114.8L151,114.8z"/>
<path class="st0" d="M176.3,122.6c-0.3,0.5-0.2,1.1,0.1,1.5c-0.1,0-0.2-0.1-0.3-0.1c-0.2-0.1-0.4-0.1-0.6-0.2
	c-0.4,0-0.8,0.1-1.2,0.2c-0.4,0.1-0.8,0.3-1.2,0.5c-0.4,0.2-0.8,0.5-1.2,0.8c-0.7,0.5-1.4,1.1-2,1.8c-0.7,0.7-1.3,1.5-1.9,2.2
	c-0.5,0.7-1,1.5-1.5,2.2c-0.2,0.4-0.4,0.7-0.7,1.1c-0.3,0.4-0.5,0.9-0.8,1.4c-0.3,0.8-0.4,1.7-0.2,2.5c0.2,0.9,0.7,1.6,1.4,2.2
	c0.7,0.6,1.5,0.9,2.3,1.2c0.9,0.3,1.9,0.3,2.9,0.4c1,0,1.9-0.1,2.9-0.3c1-0.2,1.9-0.5,2.8-0.8c0.8-0.3,1.7-0.7,2.4-1.1
	c0.8-0.5,1.6-1.1,2.2-1.8c0.6-0.6,1.1-1.4,1.4-2.2c0.2-0.4,0.3-0.9,0.5-1.3c0.1-0.5,0.2-1.1,0.3-1.6c0.1-0.5,0-1.1-0.1-1.6
	c-0.1-0.5-0.2-1-0.4-1.5c-0.3-1.1-0.9-2.2-1.6-3.1c-1-1.2-2.3-2-3.6-2.7c-0.2-0.1-0.5-0.2-0.7-0.2C177,122,176.5,122.2,176.3,122.6
	L176.3,122.6z M177.3,125.6c0.1-0.3,0-0.6-0.1-0.8c0.5,0.3,1,0.6,1.5,1c0.4,0.3,0.7,0.6,1,1c0.3,0.5,0.6,0.9,0.8,1.4
	c0.2,0.6,0.4,1.2,0.5,1.9c0,0.4,0,0.8,0,1.3c-0.1,0.5-0.2,1-0.4,1.5c-0.2,0.4-0.4,0.7-0.6,1.1c-0.4,0.5-0.8,0.9-1.3,1.3
	c-0.6,0.4-1.2,0.7-1.8,1c-1.4,0.6-2.9,1-4.4,1.3c-0.9,0.1-1.7,0.1-2.6,0c-0.5-0.1-0.9-0.2-1.3-0.3c-0.3-0.1-0.6-0.3-0.9-0.5
	c-0.1-0.1-0.2-0.2-0.4-0.3c0-0.1-0.1-0.1-0.1-0.2c0-0.1-0.1-0.2-0.1-0.3c0-0.2,0-0.4,0-0.6c0-0.1,0.1-0.3,0.1-0.4
	c0.2-0.3,0.3-0.6,0.5-0.9c0.2-0.4,0.4-0.7,0.7-1.1c0.5-0.8,1-1.6,1.6-2.4c0.9-1.1,1.9-2.2,3-3.2c0.5-0.4,1-0.7,1.5-0.9
	c0.2-0.1,0.5-0.2,0.7-0.2c0.2,0.1,0.5,0.2,0.7,0.2c0.1,0,0.2,0,0.3,0C176.7,126.4,177.2,126,177.3,125.6L177.3,125.6z M175.3,126.1
	c0,0,0.1,0,0.1,0C175.4,126.1,175.4,126.1,175.3,126.1L175.3,126.1z M175.2,126.1C175.1,126.1,175.1,126.1,175.2,126.1
	C175.1,126.1,175.1,126.1,175.2,126.1L175.2,126.1z M169.6,137.5c0,0,0.1,0,0.1,0C169.7,137.5,169.7,137.5,169.6,137.5L169.6,137.5z
	"/>
</svg>
