<?xml version="1.0" encoding="utf-8"?>
<!-- Generator: Adobe Illustrator 20.1.0, SVG Export Plug-In . SVG Version: 6.00 Build 0)  -->
<svg version="1.1" id="Layer_1" xmlns="http://www.w3.org/2000/svg" xmlns:xlink="http://www.w3.org/1999/xlink" x="0px" y="0px"
	 viewBox="0 0 364.5 37.6" style="enable-background:new 0 0 364.5 37.6;" xml:space="preserve">
<style type="text/css">
	.st0{fill:#010101;}
</style>
<path class="st0" d="M9.3,10.9c-0.4,0-0.7,0.1-1,0.1C7.6,11,7,11.1,6.4,11.1c-1.8,0.1-3.5,0.3-5.3,0.4c-0.4,0-0.8,0.1-1.1,0.4
	c-0.3,0.3-0.4,0.7-0.4,1.1c0,0.4,0.2,0.8,0.4,1.1c0.3,0.3,0.7,0.5,1.1,0.4c1.7-0.1,3.3-0.3,5-0.4c1.4-0.1,2.9-0.2,4.3-0.4
	c0.2,0,0.3,0,0.5,0c0.6,0,1.2-0.4,1.3-1c0.2-0.8-0.3-1.5-1-1.7c-0.4-0.1-0.7-0.2-1.1-0.2c-0.1,0-0.1,0-0.2,0
	C9.8,10.8,9.5,10.8,9.3,10.9L9.3,10.9z"/>
<path class="st0" d="M23.7,1.2c-0.2,3.5-0.5,7.1-0.7,10.6c-0.2,2.4-0.4,4.8-0.5,7.2c0,0.4-0.1,0.9-0.1,1.3c0,0.6-0.1,1.2-0.1,1.8
	c0,0.9,1,1.5,1.8,1.1c0.2-0.1,0.3-0.2,0.5-0.3c0.2-0.2,0.4-0.6,0.5-0.8c0.1-0.3,0.2-0.6,0.3-0.9c0.2-0.5,0.3-0.9,0.5-1.4
	c0.3-0.9,0.6-1.7,0.9-2.6c0.3-0.6,0.6-1.2,0.9-1.7c0.2-0.3,0.5-0.5,0.7-0.7c0.2-0.2,0.4-0.3,0.7-0.4c0.2-0.1,0.4-0.1,0.6-0.2
	c0.1,0,0.3,0,0.4,0c0.2,0,0.3,0.1,0.5,0.1c0.1,0.1,0.3,0.1,0.4,0.2c0.2,0.2,0.4,0.3,0.5,0.5c0.3,0.4,0.5,0.8,0.6,1.2
	c0.2,0.6,0.4,1.2,0.6,1.8c0.1,0.3,0.1,0.5,0.2,0.8c0,0.2,0,0.3,0.1,0.5c0.1,0.7,0.1,1.3,0.2,1.9c0.1,0.5,0.6,0.8,1.1,0.8
	c0.6,0,1.1-0.5,1.1-1.1c0-0.7,0-1.3-0.1-2c-0.1-0.6-0.2-1.1-0.4-1.7c-0.2-0.7-0.5-1.3-0.7-2c-0.3-0.7-0.7-1.3-1.2-1.9
	c-0.2-0.3-0.5-0.5-0.8-0.7c-0.3-0.2-0.6-0.3-0.9-0.5c-0.7-0.3-1.5-0.2-2.3-0.1c-0.7,0.1-1.4,0.6-1.9,1c-0.6,0.4-1,1-1.4,1.6
	c-0.1,0.2-0.3,0.4-0.4,0.6c0-0.5,0.1-1,0.1-1.5c0.2-2.7,0.4-5.4,0.5-8.1c0.1-1.5,0.2-3,0.3-4.4c0-0.6-0.6-1.2-1.2-1.2
	C24.2,0,23.8,0.5,23.7,1.2L23.7,1.2z"/>
<path class="st0" d="M50.4,12.5c0,0.5,0.4,0.9,0.9,0.9s0.9-0.4,0.9-0.9c0-0.5-0.4-0.9-0.9-0.9S50.4,12,50.4,12.5L50.4,12.5z"/>
<path class="st0" d="M50.9,15.1c-0.1,1.6-0.1,3.3,0,4.9c0,0.6,0.5,1.1,1.1,1.1c0.3,0,0.5-0.1,0.7-0.3c0.2-0.2,0.3-0.5,0.3-0.7
	c0.2-1.6,0.2-3.2,0.3-4.9c0-0.6-0.5-1.2-1.2-1.2C51.4,14,50.9,14.5,50.9,15.1L50.9,15.1z"/>
<path class="st0" d="M63.5,12.2c-0.4,0-0.8,0.1-1.2,0.2c-0.8,0.1-1.5,0.2-2.3,0.5c-0.4,0.1-0.7,0.4-1,0.7c-0.2,0.4-0.3,0.8-0.2,1.2
	c0.1,0.4,0.4,0.7,0.7,0.9c0.3,0.3,0.6,0.5,1,0.7c0.3,0.2,0.6,0.4,1,0.6c0.6,0.4,1.2,0.7,1.7,1.2c0.2,0.2,0.4,0.4,0.6,0.6
	c0,0.1,0.1,0.1,0.1,0.2c0,0.1,0.1,0.2,0.1,0.3c0,0,0,0.1,0,0.1c0,0.1,0,0.1,0,0.2c-0.1,0.1-0.1,0.2-0.2,0.3
	c-0.1,0.1-0.2,0.2-0.2,0.2c-0.2,0.2-0.5,0.3-0.7,0.4c-0.6,0.2-1.2,0.4-1.9,0.5c-0.1,0-0.2,0-0.3,0c-0.1,0-0.2,0-0.3,0
	c-0.2,0-0.3,0.1-0.5,0.3c-0.2,0.2-0.3,0.5-0.3,0.7c0,0.3,0.1,0.5,0.3,0.7c0.2,0.2,0.5,0.3,0.7,0.3c0.7-0.1,1.5-0.2,2.2-0.4
	c0.7-0.2,1.4-0.6,2-1.1c0.3-0.2,0.5-0.5,0.7-0.8c0.2-0.4,0.3-0.8,0.4-1.2c0.1-0.7-0.2-1.6-0.7-2.1c-0.7-0.8-1.6-1.3-2.5-1.9
	c-0.6-0.4-1.2-0.7-1.7-1.1c0,0-0.1-0.1-0.1-0.1c0.4-0.1,0.7-0.2,1.1-0.3c0.4-0.1,0.9-0.2,1.3-0.3c0.5-0.1,1.1-0.1,1.6,0
	c0.2,0,0.3,0.1,0.5,0.1c0.3,0.1,0.6,0.3,0.9,0.5c0.2,0.1,0.5,0.1,0.7,0.1c0.2-0.1,0.4-0.2,0.5-0.4c0.1-0.2,0.1-0.4,0.1-0.7
	c-0.1-0.2-0.2-0.4-0.4-0.5c-0.3-0.2-0.7-0.4-1-0.6c-0.2-0.1-0.3-0.1-0.5-0.2c-0.2-0.1-0.5-0.1-0.7-0.1c-0.2,0-0.3,0-0.5,0
	C64,12.2,63.7,12.2,63.5,12.2L63.5,12.2z"/>
<path class="st0" d="M91.8,4.7c-0.1,0.2-0.1,0.4-0.2,0.7c-0.1,0.2,0,0.5,0.1,0.7c0,0.1,0,0.1,0,0.2c0,0.4-0.1,0.7-0.1,1.1
	c0,0,0,0,0,0c-0.2,1.7-0.5,3.5-0.7,5.2c-0.1,1-0.3,2.1-0.4,3.1c-0.1,0.5-0.1,0.9-0.2,1.4c0,0.4,0,0.7,0,1.1c0,0.4,0,0.9,0.1,1.3
	c0.1,0.7,0.4,1.4,0.8,2c0.2,0.3,0.5,0.5,0.7,0.6c0.4,0.2,0.8,0.3,1.2,0.3c0.2,0,0.4,0,0.6-0.1c0.2,0,0.3-0.1,0.4-0.1
	c0.3-0.1,0.7-0.3,1-0.5c0.6-0.4,1.1-1,1.5-1.6c0.2-0.3,0.3-0.7,0.5-1c0.1-0.3,0.2-0.7,0.2-1.1c0-0.4,0-0.8-0.1-1.2
	c-0.1-0.4-0.2-0.8-0.4-1.2c-0.2-0.4-0.5-0.7-0.8-1.1c-0.3-0.3-0.6-0.6-1-0.9c-0.3-0.3-0.7-0.5-1.1-0.7c-0.2-0.1-0.4-0.2-0.6-0.3
	c-0.3-0.1-0.5-0.1-0.8,0c0,0,0,0,0,0c0.1-0.9,0.2-1.7,0.3-2.6C93,9.3,93.1,8.6,93.2,8c0.1-0.5,0.1-1,0.2-1.5
	c0.1-0.5,0.1-1.1,0.1-1.6c0-0.4-0.3-0.7-0.6-0.8c-0.1,0-0.1,0-0.2,0C92.2,4,91.9,4.3,91.8,4.7L91.8,4.7z M92.5,14.8
	c0-0.1,0-0.2,0-0.3c0.1,0,0.1,0.1,0.2,0.1c0.1,0,0.2,0,0.3,0.1c0.2,0.1,0.3,0.2,0.5,0.3c0.4,0.3,0.8,0.6,1.1,1
	c0.2,0.2,0.3,0.5,0.4,0.7c0,0.2,0.1,0.3,0.1,0.5c0,0.2,0,0.4,0,0.7c0,0.2-0.1,0.4-0.2,0.6c-0.1,0.3-0.3,0.5-0.4,0.7
	c-0.1,0.2-0.3,0.3-0.5,0.5c-0.2,0.1-0.4,0.2-0.6,0.3c-0.1,0-0.2,0-0.2,0.1c0,0-0.1,0-0.1,0c-0.1,0-0.1,0-0.2-0.1c0,0-0.1,0-0.1-0.1
	c0,0,0,0,0,0c-0.1-0.1-0.2-0.3-0.3-0.4c-0.1-0.3-0.2-0.6-0.2-0.9C92.2,17.3,92.4,16,92.5,14.8L92.5,14.8z"/>
<path class="st0" d="M106.7,9.4c-0.2,0-0.5,0.1-0.7,0.2c-0.2,0.1-0.5,0.2-0.7,0.4c-0.5,0.3-0.9,0.8-1.2,1.2
	c-0.3,0.4-0.6,0.8-0.8,1.3c-0.3,0.6-0.4,1.1-0.5,1.7c-0.1,1.1,0.2,2.3,0.7,3.3c0.2,0.5,0.6,0.9,0.9,1.4c0.3,0.4,0.7,0.8,1.2,1.2
	c0.2,0.1,0.4,0.3,0.6,0.4c0.3,0.1,0.5,0.2,0.8,0.3c0.6,0.1,1.1,0.1,1.7,0.1c0.5,0,0.9-0.4,0.9-0.9c0-0.5-0.4-0.9-0.9-0.9
	c-0.4,0-0.7,0-1.1-0.1c-0.2,0-0.3-0.1-0.4-0.1c-0.1,0-0.1-0.1-0.2-0.1c-0.4-0.3-0.8-0.7-1.1-1.2c-0.3-0.4-0.5-0.8-0.7-1.3
	c-0.1-0.4-0.2-0.7-0.3-1.1c0,0,0,0,0,0c0.9-0.2,1.9-0.5,2.7-1.1c1-0.7,1.6-1.7,1.6-2.9c0-0.5-0.3-1.2-0.8-1.5
	c-0.3-0.2-0.5-0.2-0.9-0.3c-0.1,0-0.1,0-0.2,0C107.1,9.3,106.9,9.3,106.7,9.4L106.7,9.4z M107.2,11.2
	C107.2,11.2,107.2,11.2,107.2,11.2c0,0.1,0,0.2-0.1,0.3c-0.1,0.1-0.1,0.2-0.2,0.3c-0.1,0.1-0.3,0.3-0.4,0.4
	c-0.2,0.2-0.5,0.3-0.8,0.4c-0.1,0-0.2,0.1-0.4,0.1c0.1-0.2,0.2-0.3,0.3-0.5c0.2-0.3,0.4-0.5,0.7-0.7c0.1-0.1,0.3-0.2,0.4-0.2
	C106.9,11.3,107,11.3,107.2,11.2C107.2,11.2,107.2,11.2,107.2,11.2L107.2,11.2z M106.6,11.5C106.5,11.5,106.5,11.5,106.6,11.5
	C106.5,11.5,106.5,11.5,106.6,11.5L106.6,11.5z"/>
<path class="st0" d="M117.4,5c-0.1,0.2-0.2,0.3-0.3,0.5c-0.2,0.3-0.1,0.8,0.3,1c0,0,0.1,0,0.1,0c-0.1,0.3-0.2,0.5-0.2,0.8
	c-0.1,0.3-0.1,0.5-0.2,0.8C117,8.4,117,8.7,116.9,9c-0.2,1.3-0.4,2.6-0.6,3.8c-0.2,1.2-0.2,2.4,0,3.6c0.1,0.6,0.3,1.1,0.5,1.6
	c0.2,0.5,0.5,1,0.9,1.4c0.4,0.4,0.9,0.7,1.4,0.9c0.3,0.1,0.6,0.2,0.9,0.3c0.3,0.1,0.6,0.1,1,0.1c1.1,0,2.2-0.1,3.3-0.3
	c0.4-0.1,0.9-0.1,1.3-0.2c0.5-0.1,1.1-0.2,1.6-0.4c0.5-0.1,0.8-0.6,0.6-1.1c-0.1-0.5-0.6-0.7-1.1-0.6c-1.3,0.3-2.6,0.5-3.8,0.7
	c-0.4,0-0.8,0.1-1.2,0.1c-0.4,0-0.8,0-1.2,0c-0.2,0-0.5-0.1-0.7-0.2c-0.3-0.1-0.5-0.3-0.7-0.4c-0.1-0.1-0.3-0.3-0.4-0.4
	c-0.2-0.2-0.3-0.5-0.4-0.8c-0.2-0.4-0.3-0.8-0.3-1.2c-0.2-1.5,0-3.1,0.2-4.6c0.1-0.6,0.2-1.2,0.3-1.8c0.1-0.3,0.1-0.6,0.2-0.9
	c0.1-0.3,0.1-0.6,0.2-1c0.1-0.5,0.3-1.1,0.3-1.6c0-0.3,0-0.5-0.2-0.8c0-0.1-0.1-0.2-0.2-0.3c-0.1-0.1-0.3-0.2-0.5-0.2
	c-0.1,0-0.1,0-0.2,0C117.8,4.6,117.5,4.8,117.4,5L117.4,5z M118,11.1C118,11.1,118,11.2,118,11.1C118,11.2,118,11.1,118,11.1
	L118,11.1z"/>
<path class="st0" d="M126.2,8.7c-2.6,1-5.1,2-7.6,3.1c-0.2,0.1-0.3,0.1-0.4,0.3c-0.1,0.2-0.1,0.3-0.1,0.5c0,0.2,0.2,0.3,0.3,0.4
	c0.1,0.1,0.3,0.1,0.5,0.1c2.5-1,5.1-2.1,7.6-3.1c0.2-0.1,0.3-0.1,0.4-0.3c0.1-0.2,0.1-0.3,0.1-0.5c0-0.2-0.2-0.3-0.3-0.4
	c-0.1-0.1-0.2-0.1-0.3-0.1C126.3,8.7,126.2,8.7,126.2,8.7L126.2,8.7z"/>
<path class="st0" d="M128.2,8.7c-0.1,1.5-0.2,2.9-0.2,4.4c0,1.1-0.1,2.2,0,3.4c0,0.4,0.1,0.8,0.1,1.2c0,0.4,0.1,0.8,0.2,1.1
	c0.1,0.4,0.5,0.7,0.8,1c0.2,0.1,0.4,0.2,0.6,0.2c0.1,0,0.2,0,0.3,0c0.1,0,0.3,0,0.4-0.1c0.2,0,0.4-0.2,0.6-0.2
	c0.2-0.1,0.4-0.2,0.5-0.4c0.3-0.2,0.5-0.5,0.8-0.8c0.3-0.3,0.5-0.7,0.7-1c0.3-0.5,0.6-1,0.9-1.5c0,0.2,0.1,0.4,0.2,0.6
	c0.2,0.7,0.5,1.4,0.8,2c0.4,0.7,1.1,1.1,1.9,1.2c0.7,0.1,1.4-0.3,1.9-0.7c0.6-0.4,1.1-1.1,1.5-1.7c0.5-0.7,0.8-1.5,1.1-2.3
	c0.2,0.2,0.5,0.4,0.7,0.6c0.5,0.4,1.1,0.8,1.8,1c0,0.7,0.2,1.4,0.4,2c0.3,0.7,0.6,1.5,1.1,2.1c0.1,0.2,0.3,0.4,0.4,0.5
	c0.2,0.2,0.4,0.3,0.5,0.4c0.4,0.3,0.9,0.4,1.3,0.5c0.9,0.1,1.8,0,2.6-0.3c0.7-0.3,1.4-0.7,2.1-1.1c0,0,0.1,0.1,0.1,0.1
	c0.2,0.2,0.5,0.5,0.8,0.6c0.3,0.2,0.5,0.3,0.8,0.4c0.3,0.1,0.7,0.3,1,0.4c0.3,0.1,0.6,0.1,1,0.2c0.3,0,0.7,0.1,1,0.1
	c0.7,0,1.4-0.1,2.1-0.3c0.6-0.2,1.2-0.5,1.8-0.8c0.3-0.2,0.6-0.4,0.8-0.6c0.3-0.2,0.5-0.5,0.7-0.8c0.3-0.4,0.2-1-0.2-1.4
	c-0.4-0.4-1.2-0.5-1.6,0c-0.1,0.1-0.1,0.2-0.2,0.2c-0.4,0.3-0.8,0.5-1.3,0.7c-0.5,0.2-1,0.3-1.5,0.4c-0.5,0-1,0-1.5,0
	c-0.4-0.1-0.7-0.2-1.1-0.3c-0.2-0.1-0.5-0.2-0.7-0.4c0,0-0.1-0.1-0.1-0.1c0.4-0.4,0.7-0.9,1.1-1.4c0.7-1.1,1.5-2.4,1.1-3.8
	c-0.1-0.3-0.3-0.6-0.5-0.8c-0.1-0.1-0.2-0.2-0.4-0.3c-0.2-0.1-0.5-0.2-0.8-0.2c-0.3,0-0.7,0-1,0.1c-0.2,0.1-0.3,0.1-0.4,0.2
	c-0.2,0.1-0.4,0.3-0.5,0.4c-0.4,0.4-0.8,0.9-1.1,1.4c-0.4,0.6-0.6,1.1-0.8,1.8c-0.2,0.7-0.1,1.5,0.1,2.2c-0.5,0.4-1,0.7-1.6,0.9
	c-0.3,0.1-0.6,0.2-0.9,0.2c-0.2,0-0.4,0-0.6,0c-0.1,0-0.1,0-0.2-0.1c-0.1,0-0.2-0.1-0.3-0.2c-0.1-0.1-0.2-0.2-0.3-0.3
	c-0.3-0.4-0.6-0.8-0.8-1.3c-0.1-0.4-0.3-0.8-0.3-1.2c0.1,0,0.3-0.1,0.4-0.1c0.8-0.3,1.5-0.8,2.2-1.4c0.3-0.3,0.5-0.6,0.7-0.9
	c0.3-0.3,0.5-0.7,0.8-1.1c0.5-0.7,0.9-1.5,0.8-2.4c0-0.4-0.2-0.9-0.5-1.2c-0.3-0.3-0.6-0.5-1-0.6c-0.3-0.1-0.8-0.1-1.1-0.1
	c-0.5,0-1,0.2-1.4,0.5c-0.3,0.2-0.6,0.5-0.9,0.7c-0.3,0.3-0.5,0.6-0.8,0.9c-0.5,0.7-0.9,1.6-1.2,2.4c-0.1,0.3-0.2,0.5-0.2,0.8
	c-0.4-0.2-0.7-0.4-1-0.7c-0.3-0.2-0.5-0.5-0.8-0.7c-0.1-0.1-0.2-0.2-0.3-0.3c-0.2-0.2-0.5-0.4-0.8-0.4c-0.5,0-0.9,0.2-1.1,0.6
	c-0.1,0.1-0.1,0.3-0.2,0.5c-0.1,0.2-0.1,0.3-0.2,0.5c-0.4,0.9-0.8,1.7-1.4,2.5c-0.2,0.3-0.5,0.5-0.7,0.8c-0.2,0.1-0.3,0.2-0.5,0.3
	c0,0-0.1,0-0.1,0c0,0,0,0-0.1,0c0,0,0,0-0.1,0c-0.1-0.2-0.2-0.4-0.3-0.6c-0.4-1-0.7-2-0.8-3c0-0.4-0.1-0.8-0.1-1.3
	c0-0.3,0.1-0.5,0-0.7c-0.1-0.2-0.1-0.4-0.3-0.6c-0.3-0.2-0.6-0.3-0.9-0.2c-0.3,0.1-0.6,0.3-0.7,0.7c-0.1,0.3-0.1,0.5-0.2,0.7
	c-0.2,0.5-0.5,1.1-0.8,1.6c-0.5,1-1.1,2-1.8,2.9c-0.1,0.2-0.3,0.3-0.5,0.5c0-0.1,0-0.2,0-0.2c-0.3-2.9-0.1-5.8,0-8.6
	c0-0.6-0.5-1-1-1C128.7,7.7,128.2,8.1,128.2,8.7L128.2,8.7z M148.9,11c0,0,0,0.1,0,0.1C148.9,11.1,148.9,11.1,148.9,11L148.9,11z
	 M148.8,11.3C148.8,11.3,148.9,11.3,148.8,11.3c0.1,0.1,0.1,0.1,0,0.2c-0.3,0.5-0.6,1-0.9,1.4c-0.2,0.2-0.3,0.4-0.5,0.6
	c-0.2,0.3-0.5,0.5-0.7,0.7c-0.1,0.1-0.3,0.2-0.4,0.3c0.1-0.3,0.2-0.6,0.3-0.9c0.2-0.5,0.5-0.9,0.8-1.4c0.2-0.2,0.4-0.4,0.6-0.6
	c0.1-0.1,0.2-0.1,0.3-0.2c0.1,0,0.2-0.1,0.3-0.1C148.7,11.3,148.7,11.3,148.8,11.3L148.8,11.3z M148.9,11.3
	C148.9,11.3,148.9,11.3,148.9,11.3C148.9,11.3,148.9,11.4,148.9,11.3C148.9,11.4,148.9,11.3,148.9,11.3L148.9,11.3z M149,11.4
	C149,11.4,149,11.4,149,11.4C149,11.4,149,11.4,149,11.4L149,11.4z M135.5,13.8c0,0,0,0.1,0,0.1C135.5,13.9,135.5,13.9,135.5,13.8
	L135.5,13.8z M140.4,14.2C140.4,14.2,140.4,14.3,140.4,14.2C140.5,14.3,140.5,14.3,140.4,14.2C140.4,14.3,140.4,14.2,140.4,14.2
	L140.4,14.2z M153.9,14.6C153.9,14.6,154,14.7,153.9,14.6C154,14.7,154,14.7,153.9,14.6C154,14.7,153.9,14.6,153.9,14.6L153.9,14.6z
	 M154.6,15.1c0,0,0.1,0,0.1,0C154.7,15.1,154.7,15.1,154.6,15.1L154.6,15.1z M130.2,17.2c0,0,0,0.1,0,0.1
	C130.2,17.3,130.2,17.2,130.2,17.2L130.2,17.2z M130.2,17.4C130.2,17.4,130.2,17.4,130.2,17.4C130.2,17.4,130.2,17.4,130.2,17.4
	L130.2,17.4z M136.6,17.5c0,0,0.1,0.1,0.1,0.1C136.6,17.5,136.6,17.5,136.6,17.5L136.6,17.5z M137,17.7
	C136.9,17.7,136.9,17.7,137,17.7C136.9,17.7,136.9,17.7,137,17.7L137,17.7z M130.3,17.9C130.4,17.9,130.4,17.9,130.3,17.9
	C130.4,17.9,130.4,17.9,130.3,17.9C130.3,17.9,130.3,17.9,130.3,17.9L130.3,17.9z"/>
<path class="st0" d="M168,12.5c-0.4,0.1-0.8,0.3-1.2,0.6c-0.2,0.2-0.4,0.3-0.5,0.5c-0.2-0.4-0.7-0.8-1.2-0.8c-0.4,0-0.7,0.1-0.9,0.4
	c-0.3,0.3-0.4,0.6-0.4,0.9c-0.1,1.1-0.1,2.2-0.2,3.3c0,0.3,0,0.5,0,0.8c0,0.5-0.1,0.9-0.1,1.4c0,0.6,0.4,1.1,0.9,1.2
	c0.6,0.2,1.4-0.2,1.6-0.9c0.1-0.4,0.2-0.9,0.3-1.3c0.1-0.4,0.2-0.8,0.4-1.1c0.3-0.8,0.8-1.6,1.3-2.2c0.2-0.2,0.3-0.4,0.5-0.5
	c0,0,0,0,0,0c0.1,0,0.2-0.1,0.3-0.1c0.1,0,0.2,0,0.2,0c0,0,0.1,0,0.1,0c0.1,0.1,0.3,0.2,0.4,0.2c0.1,0.1,0.2,0.2,0.3,0.3
	c0.4,0.6,0.7,1.2,1,1.8c0.1,0.3,0.2,0.5,0.3,0.8c0.2,0.8,0.4,1.5,0.6,2.3c0.1,0.2,0.2,0.4,0.3,0.5c0.2,0.2,0.5,0.4,0.9,0.4
	s0.6-0.1,0.9-0.4c0.2-0.2,0.4-0.6,0.4-0.9c0-0.4-0.1-0.9-0.2-1.3c-0.1-0.4-0.3-0.8-0.4-1.1c-0.1-0.3-0.3-0.6-0.4-0.9
	c-0.6-1.3-1.2-2.6-2.4-3.5c-0.3-0.2-0.7-0.4-1.1-0.6c-0.2-0.1-0.4-0.1-0.7-0.1c-0.1,0-0.1,0-0.2,0C168.4,12.4,168.2,12.4,168,12.5
	L168,12.5z M168.2,14.8C168.2,14.8,168.2,14.8,168.2,14.8C168.2,14.8,168.2,14.8,168.2,14.8L168.2,14.8z M166.7,17.2
	c0,0,0,0.1-0.1,0.1C166.6,17.3,166.6,17.3,166.7,17.2L166.7,17.2z"/>
<path class="st0" d="M208.4,4.8c-0.3,0.3-0.3,0.5-0.4,0.9c-0.2,2.1-0.5,4.3-0.7,6.4c-0.1,1.3-0.3,2.6-0.4,3.8
	c-0.1,1.5-0.3,2.9-0.3,4.4c-0.1,1-0.1,1.9-0.1,2.9c0,0.4,0,0.8,0,1.3c0,0.5,0.2,1,0.5,1.4c0.3,0.3,0.7,0.5,1.1,0.6
	c0.6,0.2,1.2-0.1,1.8-0.4c0.8-0.4,1.5-0.9,2.2-1.4c0.5-0.3,0.9-0.7,1.4-1c0.3-0.2,0.5-0.4,0.6-0.7c0.1-0.3,0-0.7-0.1-0.9
	c-0.3-0.5-1.1-0.8-1.6-0.4c-0.5,0.3-0.9,0.6-1.4,0.9c-0.3,0.2-0.5,0.4-0.8,0.5c-0.3,0.2-0.5,0.3-0.8,0.4c0-0.4,0-0.8,0-1.3
	c0-0.2,0-0.5,0-0.7c0-0.7,0.1-1.4,0.1-2c0.1-1.4,0.2-2.8,0.3-4.2c0.1-1.2,0.2-2.5,0.4-3.7c0.2-2,0.4-3.9,0.6-5.9
	c0-0.3-0.2-0.7-0.4-0.9c-0.2-0.2-0.6-0.4-0.9-0.4C208.9,4.5,208.6,4.6,208.4,4.8L208.4,4.8z"/>
<path class="st0" d="M218.5,12.4c-1,0.2-1.9,0.8-2.7,1.4c-0.4,0.3-0.8,0.7-1.1,1.1c-0.1,0.2-0.2,0.4-0.3,0.6
	c-0.1,0.3-0.2,0.6-0.2,0.9c-0.1,0.5,0.1,1,0.3,1.5c0.2,0.5,0.5,1,0.9,1.3c0.4,0.4,0.9,0.6,1.4,0.7c0.6,0.1,1.2,0.1,1.7-0.1
	c0.3-0.1,0.6-0.2,0.9-0.4c0.1,0.6,0.2,1.2,0.3,1.8c0.1,0.8,0.3,1.5,0.4,2.3c0-0.1,0-0.1,0-0.2c0,0.1,0,0.1,0,0.2c0,0,0,0.1,0,0.1
	c0,0,0-0.1,0-0.1c0.1,0.9,0.2,1.8,0.3,2.7c0.1,0.9,0,1.9-0.1,2.8c-0.1,0.8-0.3,1.5-0.6,2.3c-0.3,0.7-0.6,1.3-1.1,1.9
	c-0.3,0.4-0.6,0.7-0.9,1c-0.3,0.2-0.5,0.4-0.8,0.5c-0.3,0.1-0.6,0.2-1,0.3c-0.4,0-0.8,0-1.2,0c-0.2,0-0.4-0.1-0.6-0.2
	c-0.2-0.1-0.3-0.2-0.4-0.3c-0.6-0.4-1.4-0.1-1.7,0.4c-0.4,0.6-0.1,1.3,0.4,1.7c0.2,0.1,0.4,0.2,0.6,0.4c0.3,0.1,0.6,0.2,0.8,0.3
	c0.3,0.1,0.6,0.1,0.9,0.2c0.3,0,0.6,0,0.9,0c1.1,0,2.2-0.4,3.1-1c1.9-1.2,3-3.3,3.7-5.5c0.3-1.1,0.4-2.2,0.4-3.3
	c0-1.2-0.1-2.4-0.2-3.6c-0.1-1.1-0.3-2.2-0.5-3.2c-0.1-0.6-0.2-1.1-0.3-1.7c-0.1-0.5-0.2-1-0.3-1.5c0-0.1,0-0.2,0-0.4
	c0,0,0.1,0,0.1,0c0.2-0.1,0.4-0.2,0.5-0.3c0.1-0.2,0.1-0.4,0.1-0.6c0-0.1,0-0.3-0.1-0.4c0,0,0,0,0,0c0,0,0,0,0,0c0,0,0,0,0,0
	c0,0,0,0,0,0c-0.1-0.4-0.1-0.9-0.2-1.3c-0.1-0.5-0.3-1-0.6-1.4c-0.1-0.2-0.2-0.4-0.4-0.5c-0.2-0.2-0.4-0.3-0.7-0.4
	c-0.2-0.1-0.5-0.1-0.7-0.1c0,0,0,0-0.1,0C219.1,12.2,218.8,12.3,218.5,12.4L218.5,12.4z M219.6,13.8
	C219.6,13.8,219.7,13.8,219.6,13.8C219.7,13.8,219.7,13.9,219.6,13.8c0.2,0.2,0.3,0.4,0.4,0.6c-0.1,0-0.1,0.1-0.2,0.2
	c-0.2,0.3-0.5,0.6-0.6,0.9c-0.1,0.4-0.1,0.8-0.1,1.2c0,0.1,0,0.2,0,0.3c-0.1,0.2-0.3,0.3-0.5,0.5c-0.2,0.1-0.3,0.2-0.5,0.3
	c-0.2,0.1-0.4,0.1-0.6,0.2c-0.1,0-0.2,0-0.4,0c-0.1,0-0.2-0.1-0.3-0.1c-0.1,0-0.1-0.1-0.2-0.1c-0.1-0.1-0.2-0.2-0.3-0.3
	c-0.1-0.2-0.2-0.3-0.3-0.5c0-0.1,0-0.2-0.1-0.2c0-0.1,0-0.2,0-0.3c0-0.1,0.1-0.3,0.1-0.4c0.1-0.1,0.1-0.3,0.2-0.4
	c0.3-0.3,0.6-0.6,0.9-0.9c0.3-0.3,0.7-0.5,1.1-0.7c0.3-0.1,0.5-0.2,0.8-0.2C219.4,13.8,219.5,13.8,219.6,13.8L219.6,13.8z
	 M219.7,13.9C219.7,13.9,219.7,13.9,219.7,13.9C219.7,13.9,219.7,13.9,219.7,13.9L219.7,13.9z M220.3,29.2c0,0.1,0,0.1,0,0.2
	C220.3,29.3,220.3,29.2,220.3,29.2L220.3,29.2z M220.1,23.6C220.1,23.6,220.1,23.6,220.1,23.6C220.1,23.6,220.1,23.6,220.1,23.6
	C220.1,23.6,220.1,23.6,220.1,23.6L220.1,23.6z M222,16C222,16,222,16.1,222,16C222,16,222,16,222,16C222,16,222,16,222,16L222,16z"
	/>
<path class="st0" d="M237.2,12.3c-0.6,0-1.1,0.2-1.6,0.5c-0.5,0.3-0.9,0.7-1.3,1.1c-0.9,0.8-1.7,1.7-2.4,2.7
	c-0.2,0.3-0.4,0.6-0.6,0.9c-0.1-0.3-0.1-0.6-0.2-0.8c-0.2-0.5-0.4-1-0.8-1.3c-0.5-0.4-1.1-0.6-1.7-0.6c-0.6,0-1,0.4-1.4,0.8
	c-0.4,0.5-0.7,0.9-1,1.4c-0.4,0.6-0.1,1.4,0.5,1.7c0.6,0.4,1.4,0.1,1.7-0.5c0.1-0.2,0.3-0.4,0.4-0.6c0.1,0.5,0.2,1,0.3,1.4
	c0.1,0.6,0.1,1.1,0.1,1.7c0,0.5,0.1,1,0.1,1.4c-0.1,0.3-0.1,0.5-0.1,0.8c-0.1,0.4-0.1,0.7,0.1,1c0.2,0.3,0.5,0.5,0.8,0.6
	c0.7,0.2,1.4-0.2,1.6-0.9c0.1-0.2,0.1-0.5,0.1-0.7c0-0.1,0.1-0.3,0.1-0.4c0.1-0.4,0.3-0.8,0.4-1.2c0.6-1.4,1.3-2.7,2.2-3.9
	c0.3-0.4,0.7-0.8,1-1.2c0.4-0.5,0.9-0.9,1.4-1.3c0,0,0.1-0.1,0.1-0.1c0,0,0,0,0,0c0,0,0,0,0,0c0,0,0.1,0.1,0.1,0.1
	c0.1,0.2,0.2,0.4,0.3,0.6c0.3,0.7,0.4,1.5,0.5,2.3c0-0.1,0-0.2,0-0.4c0.1,0.6,0.2,1.2,0.2,1.8c0,0.3,0,0.6,0.1,0.8
	c0,0.3,0.1,0.6,0.1,0.9c0,0.1,0.1,0.2,0.1,0.4c0.1,0.2,0.2,0.5,0.3,0.7c0.4,0.7,1.2,1.1,1.9,1.3c0.3,0.1,0.7,0.1,1,0.1
	c0.4,0,0.8,0,1.2,0c0.9,0,1.7-0.1,2.6-0.2c0.4,0,0.7-0.1,1-0.4c0.3-0.3,0.4-0.6,0.4-1c0-0.4-0.2-0.7-0.4-1c-0.2-0.2-0.6-0.4-1-0.4
	c-0.6,0.1-1.1,0.1-1.7,0.1c-0.8,0-1.5,0.1-2.3,0c-0.1,0-0.2-0.1-0.3-0.1c0,0-0.1,0-0.1-0.1c0,0,0,0,0,0c0,0-0.1-0.1-0.1-0.1
	c0-0.2-0.1-0.3-0.1-0.5c-0.1-0.9-0.2-1.8-0.4-2.7c-0.2-1.1-0.4-2.2-0.9-3.2c-0.2-0.4-0.5-0.8-0.9-1.1c-0.3-0.2-0.5-0.4-0.9-0.5
	c-0.2-0.1-0.4-0.1-0.6-0.1C237.4,12.3,237.3,12.3,237.2,12.3L237.2,12.3z M237.3,14.9c0,0,0.1,0,0.1,0c0,0,0,0,0,0
	C237.3,14.9,237.3,14.9,237.3,14.9L237.3,14.9z M237.6,14.9C237.6,14.9,237.5,14.9,237.6,14.9C237.5,14.9,237.6,14.9,237.6,14.9
	L237.6,14.9z M228.6,17.2C228.6,17.2,228.7,17.3,228.6,17.2C228.7,17.3,228.6,17.3,228.6,17.2L228.6,17.2z M228.5,17.3
	c0.1,0,0.1,0,0.2,0.1C228.6,17.3,228.6,17.3,228.5,17.3L228.5,17.3z M228.5,17.3c0.1,0,0.1,0,0.2,0
	C228.6,17.3,228.5,17.3,228.5,17.3L228.5,17.3z M241.6,20.6C241.6,20.7,241.6,20.7,241.6,20.6C241.6,20.7,241.6,20.7,241.6,20.6
	L241.6,20.6z M232.6,21.2c0,0,0,0.1,0,0.1C232.6,21.3,232.6,21.2,232.6,21.2L232.6,21.2z M229.4,22.8
	C229.4,22.8,229.3,22.8,229.4,22.8C229.3,22.8,229.4,22.8,229.4,22.8L229.4,22.8z"/>
<path class="st0" d="M282,12.2c-0.7,0.2-1.3,0.7-1.8,1.2c-0.5,0.4-1,0.9-1.4,1.5c-0.2,0.3-0.5,0.6-0.7,0.9c-0.2,0.3-0.4,0.6-0.5,1
	c-0.1,0.3-0.2,0.7-0.2,1c0,0.4,0,0.8,0.1,1.2c0.1,0.7,0.5,1.3,1,1.8c0.2,0.2,0.5,0.4,0.7,0.5c0.3,0.2,0.7,0.3,1.1,0.3
	c0.3,0.1,0.7,0.1,1,0.1c0.4,0,0.8-0.1,1.2-0.2c0.7-0.2,1.4-0.5,2-0.8c0.3-0.2,0.6-0.4,0.9-0.7c0.2,0.2,0.4,0.3,0.7,0.3
	c0.5,0,1-0.4,1-1c0-0.4,0-0.7,0-1.1c0.3,0.4,0.6,0.7,0.9,1c0.4,0.4,0.8,0.6,1.3,0.9c0.6,0.3,1.3,0.1,1.6-0.4
	c0.3-0.6,0.1-1.3-0.4-1.6c-0.2-0.1-0.3-0.2-0.5-0.3c-0.5-0.5-1-1-1.5-1.6c-0.1-0.2-0.3-0.4-0.4-0.6c0-0.1,0-0.3,0-0.4
	c0-0.2-0.1-0.4-0.2-0.6c-0.2-0.3-0.4-0.5-0.7-0.5c-0.3-0.1-0.5-0.1-0.8,0c-0.1,0-0.2,0.1-0.2,0.1c-0.1-0.3-0.3-0.6-0.5-0.9
	c-0.4-0.6-1-1-1.7-1.2c-0.2-0.1-0.5-0.1-0.7-0.1C282.8,12,282.4,12.1,282,12.2L282,12.2z M283.5,14c0,0,0.1,0,0.1,0
	c0.1,0,0.1,0.1,0.2,0.1c0.1,0.1,0.2,0.2,0.3,0.3c0.1,0.1,0.1,0.2,0.2,0.3c0.3,0.7,0.5,1.4,0.6,2.1c-0.1,0.1-0.1,0.2-0.2,0.3
	c-0.4,0.4-0.7,0.9-1.2,1.2c-0.3,0.2-0.6,0.4-1,0.6c-0.4,0.1-0.7,0.2-1.1,0.3c-0.3,0-0.5,0-0.8,0c-0.2,0-0.3-0.1-0.5-0.1
	c0,0-0.1,0-0.1-0.1c0,0-0.1-0.1-0.1-0.1c-0.1-0.1-0.1-0.2-0.2-0.4c-0.1-0.2-0.1-0.3-0.1-0.5c0-0.1,0-0.3,0-0.4
	c0-0.2,0.1-0.3,0.1-0.5c0.2-0.5,0.6-0.9,0.9-1.3c0.4-0.5,0.9-1,1.4-1.4c0.2-0.1,0.3-0.2,0.5-0.3c0.2-0.1,0.4-0.1,0.5-0.1
	C283.2,14,283.3,14,283.5,14L283.5,14z M284.8,17c0,0-0.1,0.1-0.1,0.1C284.7,17.1,284.7,17,284.8,17L284.8,17z M279.7,18.7
	C279.7,18.8,279.7,18.8,279.7,18.7C279.7,18.8,279.7,18.8,279.7,18.7L279.7,18.7z"/>
<path class="st0" d="M299.5,11.7c-0.3,0.2-0.6,0.4-0.8,0.6c-0.2,0.2-0.4,0.4-0.7,0.6c-0.2-0.2-0.4-0.3-0.6-0.4c-0.3-0.1-0.7,0-1,0.1
	c-0.3,0.2-0.5,0.4-0.6,0.8c-0.2,0.4-0.3,0.9-0.4,1.4c-0.3,0.8-0.4,1.6-0.5,2.5c-0.1,0.5,0.4,1.1,0.9,1.2c0.6,0.2,1.1-0.1,1.4-0.6
	c0.2-0.3,0.4-0.7,0.6-1c0.2-0.4,0.5-0.7,0.7-1.1c0.3-0.4,0.7-0.8,1-1.2c0.3-0.3,0.6-0.6,0.9-0.9c0.1-0.1,0.2-0.1,0.3-0.2
	c0,0,0.1,0,0.1,0c0,0,0.1,0,0.1,0c0.1,0,0.1,0.1,0.2,0.1c0.1,0.1,0.1,0.1,0.2,0.2c0.1,0.2,0.2,0.4,0.3,0.6c0.2,0.5,0.3,0.9,0.4,1.4
	c0,0.4,0.1,0.9,0.1,1.3c0,0.2,0,0.4,0,0.6c0,0.3,0,0.6,0.1,0.9c0.1,0.5,0.2,0.9,0.5,1.3c0.3,0.4,0.6,0.8,0.9,1.2
	c0.3,0.4,0.9,0.4,1.3,0.2c0.5-0.3,0.7-1,0.4-1.5c-0.3-0.4-0.5-0.8-0.8-1.2c0-0.1-0.1-0.3-0.1-0.4c0-0.3,0-0.5,0-0.8c0-0.3,0-0.7,0-1
	c-0.1-0.7-0.2-1.5-0.4-2.2c-0.2-0.7-0.5-1.3-0.9-1.9c-0.2-0.3-0.5-0.6-0.8-0.8c-0.3-0.2-0.6-0.3-0.9-0.4c-0.2-0.1-0.4-0.1-0.6-0.1
	C300.5,11.3,300,11.5,299.5,11.7L299.5,11.7z M301.1,13.6C301.1,13.6,301.1,13.6,301.1,13.6C301.1,13.6,301.1,13.6,301.1,13.6
	L301.1,13.6z M300.8,13.6C300.8,13.6,300.8,13.6,300.8,13.6C300.8,13.6,300.8,13.6,300.8,13.6L300.8,13.6z"/>
<path class="st0" d="M317.8,3.6c-0.1,0.3-0.1,0.6-0.1,0.9c0,0.2,0,0.4,0,0.6c0,0.3,0,0.5,0,0.8c0,0.6,0,1.2,0,1.7
	c-0.1,1.4-0.1,2.8-0.3,4.2c-0.1,0.8-0.3,1.7-0.4,2.5c-0.2,0.8-0.4,1.5-0.7,2.2c-0.2,0.4-0.4,0.8-0.6,1.2c-0.1,0.2-0.3,0.3-0.4,0.4
	c-0.2,0.2-0.5,0.3-0.7,0.4c-0.2,0.1-0.4,0.1-0.6,0.2c-0.4,0-0.8,0-1.2,0c-0.4-0.1-0.7-0.2-1-0.3c-0.3-0.1-0.5-0.3-0.8-0.5
	c-0.2-0.1-0.3-0.3-0.5-0.5c-0.1-0.2-0.2-0.3-0.3-0.5c0-0.1-0.1-0.3-0.1-0.4c0-0.2,0-0.4,0-0.6c0-0.2,0.1-0.3,0.1-0.5
	c0.1-0.2,0.2-0.4,0.4-0.6c0.2-0.2,0.4-0.4,0.6-0.6c0.2-0.2,0.5-0.3,0.7-0.4c0.2-0.1,0.5-0.2,0.7-0.2c0.2,0,0.3,0,0.5,0
	c0.1,0,0.2,0.1,0.3,0.1c0.2,0.1,0.3,0.2,0.4,0.2c0.1,0.1,0.2,0.2,0.3,0.3c0.1,0.2,0.2,0.4,0.3,0.6c0,0.1,0.1,0.2,0.1,0.3
	c0,0,0,0,0,0c0,0.2-0.1,0.4-0.2,0.6c-0.1,0.3,0.1,0.7,0.5,0.8c0.3,0.1,0.7-0.1,0.8-0.5c0.1-0.3,0.2-0.5,0.2-0.8c0-0.3,0-0.6-0.1-0.9
	c-0.1-0.3-0.2-0.6-0.4-0.8c-0.2-0.3-0.4-0.6-0.6-0.8c-0.4-0.4-1-0.7-1.6-0.8c-0.6-0.1-1.3,0-1.9,0.2c-1.2,0.4-2.2,1.3-2.8,2.4
	c-0.3,0.6-0.4,1.2-0.4,1.8c0,0.7,0.3,1.3,0.6,1.8c0.7,1.1,2,1.8,3.2,2.1c0.6,0.1,1.2,0.2,1.9,0.1c0.3,0,0.6-0.1,0.9-0.2
	c0.4-0.1,0.7-0.3,1-0.5c0.3-0.2,0.5-0.4,0.8-0.6c0.2-0.2,0.4-0.4,0.5-0.6c0,0.1,0,0.2,0.1,0.3c0.1,0.2,0.2,0.4,0.3,0.6
	c0.1,0.1,0.2,0.2,0.2,0.3c0.1,0.1,0.2,0.2,0.3,0.3c0.4,0.4,1.1,0.4,1.5,0c0.4-0.4,0.4-1.1,0-1.5c-0.1-0.1-0.1-0.1-0.2-0.2
	c0-0.1-0.1-0.2-0.1-0.3c0-0.3,0-0.6,0-0.9c0-0.3,0-0.6,0-0.9c0-0.5,0-1,0-1.5c0-0.8,0-1.7,0-2.5c0.1-1.9,0.1-3.8,0.2-5.8
	c0-0.4,0-0.9,0-1.3c0-0.3,0-0.6,0-0.9c0-0.3-0.1-0.6-0.2-0.9s-0.4-0.5-0.6-0.5C318.1,3.1,317.8,3.3,317.8,3.6L317.8,3.6z
	 M310.5,14.6C310.4,14.6,310.4,14.6,310.5,14.6C310.4,14.6,310.4,14.6,310.5,14.6L310.5,14.6z M319.1,18.6
	C319.2,18.6,319.2,18.6,319.1,18.6C319.2,18.6,319.2,18.6,319.1,18.6L319.1,18.6z"/>
<path class="st0" d="M347.6,8.8c-0.4,0.2-0.7,0.3-1,0.6c-0.7,0.6-1.3,1.3-1.9,1.9c-0.6,0.7-1.2,1.4-1.8,2.1
	c-0.1,0.2-0.2,0.3-0.4,0.5c0-0.2-0.1-0.5-0.1-0.7c-0.1-0.5-0.3-0.9-0.4-1.4c-0.2-0.4-0.4-0.8-0.7-1.2c-0.2-0.2-0.4-0.3-0.7-0.4
	c-0.3-0.1-0.6,0-0.9,0c-0.2,0.1-0.5,0.2-0.7,0.3c-0.2,0.2-0.4,0.4-0.6,0.6c-0.3,0.4-0.7,0.8-0.9,1.2c-0.3,0.4-0.5,0.9-0.7,1.3
	c-0.1,0.3-0.2,0.5-0.1,0.8c0.1,0.2,0.2,0.5,0.5,0.6c0.2,0.1,0.5,0.2,0.8,0.1c0.2-0.1,0.5-0.2,0.6-0.5c0.2-0.5,0.5-1,0.8-1.5
	c0.1-0.2,0.3-0.3,0.4-0.5c0.1-0.1,0.1-0.1,0.2-0.2c0.2,0.4,0.3,0.9,0.3,1.4c0,0.2,0.1,0.4,0.1,0.7c0,0.3,0.1,0.7,0.1,1
	c0,0.2,0,0.3,0,0.5c0,0.2,0,0.4,0,0.6c0,0.3,0,0.6,0,0.9c0,0.4,0.3,0.8,0.6,1c0.5,0.3,1.1,0.2,1.4-0.2c0.3-0.2,0.4-0.6,0.6-0.9
	c0.2-0.3,0.3-0.6,0.5-0.9c0.4-0.6,0.7-1.1,1.2-1.7c0.5-0.6,1-1.2,1.6-1.8c0.6-0.6,1.2-1.3,1.8-1.8c0.1,0.1,0.2,0.3,0.2,0.4
	c0.6,1.6,0.8,3.3,1.1,5c0,0.4,0.1,0.7,0.1,1.1c0,0.2,0.1,0.4,0.1,0.6c0.1,0.5,0.3,0.9,0.5,1.4c0.1,0.2,0.3,0.3,0.4,0.4
	c0.3,0.2,0.6,0.2,1,0.1c0.6-0.2,1.1-0.9,0.9-1.5c-0.1-0.3-0.2-0.6-0.2-0.9c-0.1-1-0.3-2-0.5-3c-0.1-0.5-0.2-1-0.3-1.5
	c-0.1-0.7-0.3-1.3-0.6-2c-0.2-0.6-0.4-1.2-0.8-1.7c-0.2-0.2-0.3-0.4-0.5-0.6c-0.1-0.1-0.2-0.2-0.4-0.3c-0.2-0.1-0.5-0.2-0.7-0.2
	c-0.1,0-0.1,0-0.2,0C348.1,8.6,347.8,8.7,347.6,8.8L347.6,8.8z M348.7,11c0,0-0.1,0-0.1,0C348.6,11,348.6,11,348.7,11L348.7,11z
	 M344.7,15C344.7,15.1,344.7,15.1,344.7,15C344.7,15.1,344.7,15.1,344.7,15L344.7,15z M352.3,17.7C352.3,17.7,352.3,17.7,352.3,17.7
	C352.3,17.7,352.3,17.7,352.3,17.7L352.3,17.7z"/>
<path class="st0" d="M361.6,11.9c0,0.8,0.7,1.5,1.5,1.5c0.8,0,1.5-0.7,1.5-1.5c0-0.8-0.7-1.5-1.5-1.5
	C362.3,10.5,361.6,11.1,361.6,11.9L361.6,11.9z"/>
</svg>
