<?xml version="1.0" encoding="utf-8"?>
<!-- Generator: Adobe Illustrator 20.1.0, SVG Export Plug-In . SVG Version: 6.00 Build 0)  -->
<svg version="1.1" id="Layer_1" xmlns="http://www.w3.org/2000/svg" xmlns:xlink="http://www.w3.org/1999/xlink" x="0px" y="0px"
	 viewBox="0 0 508.8 92.3" style="enable-background:new 0 0 508.8 92.3;" xml:space="preserve">
<style type="text/css">
	.st0{fill:#010101;}
</style>
<path class="st0" d="M10.1,15.4c-1.5,0.1-3,0.4-4.4,0.7c-1.4,0.3-2.9,0.5-4.3,0.8c-0.4,0.1-0.8,0.4-1,0.8C0,18-0.1,18.5,0.1,19
	c0.1,0.4,0.4,0.8,0.8,1c0.4,0.2,0.8,0.3,1.3,0.2c2.8-0.5,5.6-0.9,8.3-1.7c0.7-0.2,1.1-0.8,1.1-1.5c0-0.4-0.2-0.8-0.5-1.1
	C10.9,15.6,10.5,15.4,10.1,15.4C10.1,15.4,10.1,15.4,10.1,15.4L10.1,15.4z"/>
<path class="st0" d="M26.6,6.5c-0.4,0.4-0.5,0.8-0.5,1.3c-0.4,4.1-0.9,8.1-1.3,12.2c-0.3,3.2-0.7,6.5-0.8,9.8c0,1,0.8,1.8,1.8,1.8
	c0.5,0,0.9-0.2,1.3-0.5c0.4-0.4,0.5-0.8,0.5-1.3c0.8-7.3,1.5-14.6,2.3-22c0.1-0.5-0.2-1-0.5-1.3C28.9,6.2,28.4,6,27.9,6
	C27.4,6,26.9,6.2,26.6,6.5L26.6,6.5z"/>
<path class="st0" d="M36.3,0c-0.3,0-0.6,0.1-0.8,0.3c-0.3,0.2-0.6,0.4-0.9,0.6c-1,0.8-2,1.6-3,2.4c-0.7,0.6-1.5,1.3-2.1,2
	c-0.6,0.7-1.2,1.4-1.7,2.2c-0.2,0.4-0.4,0.8-0.6,1.2C27.1,9.1,27.1,9.6,27,10c0,1,0.2,1.9,0.3,2.9c0,0.3,0.4,0.4,0.6,0.3
	c0.3-0.1,0.4-0.3,0.3-0.6c-0.1-0.5-0.2-1.1-0.3-1.6c-0.1-0.5,0-1.1,0-1.6c0-0.3,0.1-0.5,0.2-0.8c0.2-0.5,0.5-0.9,0.8-1.3
	c0,0,0,0.1-0.1,0.1c0.5-0.7,1.2-1.4,1.8-2c0.7-0.6,1.4-1.2,2.1-1.8c0.4-0.3,0.9-0.6,1.3-0.9c0.2-0.2,0.4-0.3,0.6-0.5
	c0.4-0.3,0.7-0.6,1.2-0.8c0.1,0,0.2-0.1,0.3-0.1c0.1,0,0.2,0,0.3,0c0,0,0.1,0,0.1,0c0,0,0,0,0.1,0c0.1,0.1,0.2,0.2,0.3,0.3
	c0.1,0.2,0.2,0.4,0.3,0.6c0.1,0.3,0.2,0.5,0.2,0.8c0,0.4,0,0.8,0,1.2c-0.1,0.5-0.2,1-0.4,1.5c-0.4,0.8-0.9,1.5-1.4,2.2
	c-0.6,0.7-1.2,1.4-1.8,2c-0.2,0.2-0.4,0.4-0.6,0.6c-0.1,0.1-0.3,0.2-0.4,0.4c-0.2,0-0.5,0-0.7,0.1c-0.3,0.1-0.7,0.3-0.9,0.5
	c-0.2,0.2-0.4,0.3-0.5,0.5c-0.1,0.1-0.1,0.2-0.2,0.3c-0.4,0.6-0.1,1.6,0.7,1.8c0.2,0,0.4,0.1,0.6,0.1c0.2,0,0.5-0.1,0.7-0.2
	c0.3-0.1,0.5-0.3,0.8-0.5c0.2,0,0.3,0.1,0.5,0.2c0.3,0.1,0.5,0.3,0.8,0.5c0.3,0.3,0.6,0.5,0.8,0.9c0.4,0.6,0.8,1.3,1.1,1.9
	c0.3,0.6,0.4,1.3,0.6,2c0,0.5,0,0.9,0,1.4c-0.1,0.4-0.2,0.9-0.3,1.3c-0.2,0.4-0.4,0.8-0.7,1.2c-0.3,0.3-0.6,0.6-0.9,0.9
	c-0.4,0.3-0.8,0.5-1.3,0.7c-0.6,0.3-1.3,0.4-2,0.5c-0.9,0.1-1.8,0.1-2.7,0.1c-0.3-0.1-0.6-0.1-0.9-0.2c-0.7-0.2-1.4,0.3-1.6,0.9
	c-0.1,0.3,0,0.7,0.1,1c0.1,0.1,0.1,0.2,0.2,0.3c0.2,0.2,0.4,0.3,0.6,0.3c0.2,0.1,0.5,0.2,0.7,0.2c0.4,0.1,0.7,0.1,1.1,0.2
	c0.6,0.1,1.2,0,1.8,0c0.6-0.1,1.3-0.2,1.9-0.3c0.7-0.2,1.4-0.4,2-0.7c0.6-0.3,1.1-0.6,1.6-1c0.5-0.4,0.9-0.8,1.2-1.2
	c0.4-0.5,0.7-1,1-1.6c0.2-0.3,0.3-0.7,0.4-1c0.1-0.4,0.2-0.8,0.2-1.1c0.2-1.3,0-2.5-0.4-3.7c-0.4-1.2-1-2.4-1.8-3.4
	c-0.2-0.2-0.4-0.5-0.6-0.7c-0.2-0.3-0.5-0.5-0.8-0.7c-0.2-0.2-0.5-0.3-0.7-0.5c0.2-0.2,0.4-0.5,0.6-0.7c0.9-1,1.7-2,2.3-3.2
	c0.7-1.2,1.1-2.6,1.1-4c0-0.6-0.1-1.3-0.3-1.9c-0.2-0.6-0.6-1.2-1.1-1.6c-0.2-0.2-0.5-0.3-0.8-0.4C37.1,0,37,0,36.9,0
	C36.7,0,36.5,0,36.3,0L36.3,0z M36.6,1.5C36.6,1.5,36.7,1.5,36.6,1.5C36.7,1.5,36.6,1.5,36.6,1.5L36.6,1.5z M36.6,1.5
	C36.6,1.5,36.5,1.5,36.6,1.5C36.5,1.5,36.6,1.5,36.6,1.5L36.6,1.5z M28.1,9.4C28.1,9.4,28.1,9.5,28.1,9.4
	C28.1,9.5,28.1,9.4,28.1,9.4L28.1,9.4z M28.1,9.5C28.1,9.5,28.1,9.6,28.1,9.5C28.1,9.6,28.1,9.5,28.1,9.5L28.1,9.5z"/>
<path class="st0" d="M50.4,2.9c-0.7,0.3-1.3,0.6-2,1c-0.6,0.3-1.1,0.8-1.6,1.2c-0.4,0.3-0.8,0.6-1.2,1c-0.4,0.5-0.8,1.1-0.9,1.8
	c-0.2,1.3,0.4,2.6,1.4,3.4c0.5,0.4,0.9,0.7,1.5,1c0.5,0.3,1,0.5,1.6,0.7c1.2,0.6,2.3,1.2,3.4,2c0.6,0.5,1.1,1,1.5,1.5
	c0.4,0.5,0.7,1,1,1.5c0.1,0.3,0.2,0.5,0.2,0.8c0,0.3,0,0.5,0,0.8c-0.1,0.4-0.2,0.7-0.3,1c-0.2,0.3-0.3,0.6-0.5,0.9
	c-0.4,0.5-0.8,0.9-1.3,1.3c-0.5,0.4-1.1,0.7-1.7,1c-0.7,0.3-1.5,0.5-2.2,0.6c-1,0.1-2,0.2-2.9,0.2c-0.2-0.1-0.4-0.1-0.6-0.2
	c-1-0.3-2.1,0.4-2.4,1.4c-0.1,0.5-0.1,1.1,0.2,1.5c0.1,0.1,0.2,0.3,0.3,0.4c0.2,0.2,0.5,0.4,0.9,0.5c0.2,0.1,0.5,0.2,0.7,0.3
	c0.2,0,0.4,0,0.5,0.1c0.2,0,0.4,0.1,0.7,0.1c0.8,0,1.5-0.1,2.3-0.1c1.4-0.1,2.8-0.4,4.1-1c1.3-0.5,2.4-1.3,3.4-2.2
	c0.5-0.4,0.9-0.9,1.3-1.5c0.4-0.6,0.7-1.2,1-1.9c0.2-0.6,0.3-1.2,0.4-1.9c0.1-0.8,0-1.5-0.2-2.2c-0.3-1.4-1.2-2.6-2.1-3.7
	c-0.8-1.1-1.9-1.9-3-2.6c-1.2-0.8-2.5-1.4-3.8-1.9c-0.6-0.3-1.2-0.6-1.7-0.9c0,0,0,0,0,0c0-0.1,0.1-0.1,0.1-0.2
	c0.4-0.4,0.9-0.8,1.4-1.2c0.6-0.5,1.3-0.9,2-1.2c0.6-0.2,1.1-0.4,1.7-0.5c0.3,0,0.5,0,0.8,0c0.2,0,0.4,0.1,0.7,0.2
	c0.1,0.1,0.2,0.1,0.3,0.2c0,0,0.1,0.1,0.1,0.1c0,0,0,0,0,0c-0.2,0.4-0.4,0.7-0.6,1.1c-0.4,0.7-0.2,1.6,0.5,2c0.7,0.4,1.6,0.2,2-0.5
	c0.3-0.5,0.7-1.1,0.9-1.7c0.2-0.7,0.2-1.5-0.1-2.2c-0.6-1.2-1.9-1.9-3.2-2.2c-0.4-0.1-0.8-0.1-1.2-0.1C52.5,2.2,51.4,2.5,50.4,2.9
	L50.4,2.9z M55.1,5.6c0,0,0.1,0.1,0.1,0.1c0,0,0,0,0,0C55.2,5.7,55.1,5.6,55.1,5.6L55.1,5.6z M55.2,5.7C55.2,5.7,55.2,5.7,55.2,5.7
	C55.2,5.7,55.2,5.7,55.2,5.7C55.2,5.7,55.2,5.7,55.2,5.7L55.2,5.7z M55.3,5.9c0,0.1,0,0.2,0,0.2C55.2,6,55.2,6,55.3,5.9L55.3,5.9z
	 M48.2,8c0,0.1,0,0.1,0,0.2c0,0,0,0,0,0C48.2,8.1,48.2,8.1,48.2,8L48.2,8z M48.2,8.3c0,0.1,0.1,0.1,0.1,0.2
	C48.3,8.5,48.2,8.4,48.2,8.3C48.2,8.3,48.2,8.3,48.2,8.3L48.2,8.3z M48.2,8.4c0,0,0,0.1,0,0.1C48.2,8.5,48.2,8.4,48.2,8.4
	C48.2,8.4,48.2,8.4,48.2,8.4L48.2,8.4z"/>
<path class="st0" d="M81.9,1.8c-2.2,0.2-4.4,0.4-6.6,0.7c-2.7,0.3-5.3,0.6-8,0.9c-0.5,0.1-1,0.2-1.4,0.6c-0.4,0.4-0.6,0.9-0.6,1.4
	s0.2,1,0.6,1.4c0.3,0.3,0.9,0.6,1.4,0.6c2.7-0.3,5.3-0.6,8-0.9c1.2-0.1,2.4-0.3,3.6-0.4c1.2-0.2,2.4-0.3,3.5-0.6
	c0.8-0.2,1.3-0.9,1.3-1.8c0-0.9-0.8-1.8-1.7-1.8C82,1.8,81.9,1.8,81.9,1.8L81.9,1.8z"/>
<path class="st0" d="M74.1,3.3c-0.4,0.2-0.7,0.6-0.8,1c-0.8,4.1-1.5,8.1-2.2,12.2c-0.3,1.6-0.5,3.3-0.7,4.9
	c-0.1,0.8-0.2,1.5-0.3,2.3c-0.2,1.3-0.4,2.6-0.3,3.8c0.1,1,0.8,1.7,1.8,1.7c1,0,1.7-0.8,1.7-1.7c0-0.5,0.1-0.9,0.1-1.4
	c0,0.2,0,0.3-0.1,0.5c0.3-2.5,0.7-5,1-7.6c0.3-1.7,0.5-3.4,0.8-5.1c0.5-2.9,1.1-5.8,1.6-8.7c0.1-0.5,0.1-0.9-0.2-1.3
	c-0.2-0.4-0.6-0.7-1-0.8c-0.2,0-0.3-0.1-0.5-0.1C74.7,3.1,74.4,3.2,74.1,3.3L74.1,3.3z M74.3,19C74.3,19,74.3,19,74.3,19
	C74.3,19,74.3,19,74.3,19L74.3,19z"/>
<path class="st0" d="M89.3,14.1c-1.1,0.1-2.1,0.3-3.2,0.5c-1,0.2-2.1,0.8-2.5,1.8c-0.2,0.5-0.2,1-0.1,1.5c0.1,0.6,0.5,1.1,0.9,1.6
	c0.5,0.6,1.2,1.1,1.8,1.6c0.9,0.8,1.9,1.5,2.8,2.4c0,0,0,0.1,0,0.1c-0.1,0.1-0.2,0.3-0.2,0.4c-0.1,0.1-0.3,0.3-0.4,0.4
	c-0.6,0.4-1.3,0.8-2,1.1c-0.4,0.2-0.9,0.3-1.4,0.4c0,0,0,0,0,0c-0.2-0.1-0.3-0.2-0.5-0.3c-0.1,0-0.1-0.1-0.2-0.1
	C84,25.3,83.6,25,83.1,25c-0.5,0-1,0.2-1.3,0.5c-0.3,0.3-0.5,0.8-0.5,1.3c0,0.4,0.2,1,0.5,1.3c0.4,0.3,0.7,0.6,1.1,0.8
	c0.4,0.3,0.9,0.5,1.5,0.6c1.2,0.3,2.4-0.2,3.4-0.7c0.9-0.4,1.7-0.8,2.4-1.3c0.9-0.6,1.6-1.4,2-2.3c0.3-0.5,0.4-1,0.4-1.6
	c0-0.2-0.1-0.5-0.1-0.7c-0.1-0.3-0.2-0.6-0.3-0.9c-0.2-0.5-0.5-0.8-0.9-1.2c-0.3-0.3-0.7-0.6-1-0.9c-0.7-0.6-1.5-1.2-2.3-1.8
	c-0.3-0.2-0.5-0.4-0.7-0.6c0.6-0.2,1.3-0.3,1.9-0.4c0.7-0.1,1.5-0.1,2.2,0c0.3,0.1,0.7,0.1,1,0.2c0.4,0.1,0.7,0.3,1.1,0.4
	c-0.1,0-0.2-0.1-0.4-0.1c0.4,0.2,0.7,0.3,1.1,0.5c0.7,0.4,1.6,0.2,2-0.5c0.4-0.7,0.2-1.6-0.5-2c-1-0.5-2-1-3.1-1.2
	C91.8,14.1,91,14,90.1,14C89.8,14,89.6,14,89.3,14.1L89.3,14.1z M86.8,16.8c0,0.1,0,0.1,0,0.2C86.8,16.9,86.8,16.8,86.8,16.8
	L86.8,16.8z M86.7,16.8C86.7,16.8,86.7,16.8,86.7,16.8C86.7,16.8,86.7,16.8,86.7,16.8L86.7,16.8z M89.1,23.4c0,0.1,0,0.1,0,0.2
	C89.1,23.5,89.1,23.5,89.1,23.4L89.1,23.4z M89.1,23.7c0,0,0,0.1,0.1,0.1C89.1,23.8,89.1,23.8,89.1,23.7L89.1,23.7z M89,23.8
	c0,0,0,0.1-0.1,0.1C89,23.9,89,23.9,89,23.8L89,23.8z M85.4,26c-0.1,0-0.1,0-0.2,0C85.3,26,85.3,26,85.4,26L85.4,26z M84.8,26
	c0,0,0.1,0,0.1,0C84.9,26,84.8,26,84.8,26L84.8,26z"/>
<path class="st0" d="M128.8,17.5c-0.3,0-0.5,0.1-0.8,0.2c-0.4,0.1-0.7,0.3-1,0.6c-0.5,0.4-0.8,1.1-0.7,1.7c0,0.3,0.1,0.5,0.2,0.8
	c0.1,0.2,0.2,0.4,0.3,0.6c0.1,0.2,0.3,0.3,0.4,0.5c0.1,0.2,0.3,0.3,0.5,0.5c0.2,0.2,0.5,0.4,0.8,0.7c0.4,0.3,0.7,0.6,1.1,1
	c0.1,0.1,0.1,0.2,0.2,0.3c0,0.1,0,0.1,0.1,0.2c0,0.1,0,0.2,0,0.4c0,0.1,0,0.2-0.1,0.3c-0.1,0.3-0.3,0.5-0.5,0.8
	c-0.3,0.4-0.7,0.7-1.1,1.1c-0.4,0.3-0.8,0.6-1.2,0.8c0,0,0,0,0,0c-0.3-0.2-0.6-0.2-1-0.1c-0.3,0.1-0.6,0.3-0.8,0.6
	c-0.2,0.3-0.4,0.6-0.4,1c0,0.4,0.2,0.9,0.5,1.2c0.6,0.6,1.7,0.4,2.4,0.1c0.7-0.3,1.3-0.7,1.9-1.1c0.7-0.5,1.4-1.1,1.9-1.7
	c0.5-0.6,0.9-1.3,1.1-2.1c0.1-0.4,0.1-0.9,0.1-1.4c0-0.5-0.1-1-0.4-1.5c-0.3-0.7-0.8-1.3-1.4-1.8c-0.1-0.1-0.2-0.2-0.4-0.3
	c0.1,0,0.2,0,0.4,0c0.4,0.1,0.7,0.2,1.1,0.3c0.1,0,0.1,0.1,0.2,0.1c0.8,0.4,1.7,0.2,2.2-0.6c0.4-0.7,0.2-1.8-0.6-2.2
	c-1.1-0.6-2.2-0.9-3.4-0.9c-0.3,0-0.5,0-0.8,0c-0.2,0-0.5,0-0.7,0C128.9,17.5,128.9,17.5,128.8,17.5L128.8,17.5z"/>
<path class="st0" d="M138.5,19.1c0,1,0,2,0,3c0,0.8,0,1.5,0.1,2.3c0,0.3,0.1,0.6,0.2,0.8c0.1,0.2,0.2,0.5,0.3,0.7
	c0.2,0.5,0.6,0.8,1,1.1c0.4,0.2,0.9,0.3,1.3,0.2c0.6-0.1,1.1-0.3,1.6-0.5c0.8-0.3,1.4-0.8,2.1-1.4c0,0.7,0.1,1.4,0.1,2.1
	c0.1,0.4,0.1,0.7,0.4,1c0.3,0.3,0.7,0.4,1,0.4c0.8,0,1.5-0.7,1.5-1.5c-0.1-1.5-0.1-3,0.1-4.4c0.1-0.4,0.1-0.9,0.3-1.3
	c0.1-0.1,0.2-0.2,0.2-0.4c0.1-0.2,0.2-0.5,0.3-0.8c0.2-0.6-0.1-1.3-0.7-1.7c-0.5-0.3-1.3-0.3-1.8,0.2c-0.2,0.2-0.3,0.4-0.4,0.6
	c-0.1,0.2-0.2,0.4-0.3,0.7c-0.5,0.6-1,1.1-1.5,1.6c-0.3,0.3-0.6,0.6-0.9,0.9c-0.3,0.3-0.6,0.5-0.9,0.8c-0.3,0.2-0.6,0.3-0.8,0.5
	c-0.1-1.6-0.1-3.3,0-4.9c0-0.8-0.7-1.5-1.5-1.5C139.2,17.6,138.5,18.2,138.5,19.1L138.5,19.1z M148.6,20.9
	C148.6,21,148.6,21,148.6,20.9C148.6,21,148.6,21,148.6,20.9L148.6,20.9z M148.2,22.6c0,0,0,0.1,0,0.1
	C148.2,22.7,148.2,22.6,148.2,22.6L148.2,22.6z"/>
<path class="st0" d="M152.9,18.8c-0.3,0.3-0.4,0.7-0.5,1.1c-0.2,3.6-0.4,7.2-0.6,10.9c-0.1,1.4-0.1,2.9-0.2,4.3c0,0.6,0,1.1-0.1,1.7
	c0,0.4,0,0.8,0,1.1c0,0.2,0,0.4,0,0.6c0,0.5,0,1.1,0.1,1.6c0.1,0.6,0.8,1,1.3,1c0.8,0,1.3-0.6,1.4-1.4c0.1-1.6,0.2-3.1,0.3-4.7
	c0.1-1.4,0.2-2.9,0.3-4.3c0.2-3.6,0.4-7.2,0.7-10.9c0-0.9-0.8-1.6-1.6-1.6C153.6,18.4,153.2,18.5,152.9,18.8L152.9,18.8z"/>
<path class="st0" d="M155.5,16.9c-0.2,0-0.4,0.1-0.6,0.2c-0.4,0.3-0.6,0.7-0.9,1.1c-0.3,0.5-0.4,1-0.4,1.5c0,0.4,0.1,0.8,0.2,1.1
	c0.2,0.8,0.3,1.6,0.5,2.5c0.1,0.4,0.6,0.7,1,0.6c0.4-0.1,0.6-0.6,0.5-1c-0.2-0.9-0.4-1.9-0.6-2.8c0-0.2,0-0.4,0-0.5
	c0-0.1,0-0.2,0.1-0.2c0.1-0.2,0.3-0.5,0.4-0.7c0,0,0,0,0,0c0.1,0,0.1,0,0.2,0c0.1,0,0.2,0,0.3,0.1c0.1,0,0.1,0.1,0.2,0.1
	c0.4,0.3,0.7,0.7,1,1c0.1,0.1,0.2,0.3,0.3,0.5c0,0.1,0.1,0.2,0.1,0.3c0,0.1,0,0.2,0,0.2c-0.1,0.3-0.1,0.6-0.2,0.8
	c-0.2,0.4-0.4,0.9-0.7,1.3c-0.1,0.2-0.3,0.3-0.4,0.5c0,0,0,0,0,0c-0.1,0-0.2,0.1-0.4,0.1c-0.2,0-0.3,0.1-0.5,0.3
	c-0.2,0.2-0.3,0.5-0.3,0.7c0,0.5,0.5,1.1,1,1c0.2,0,0.4,0,0.7-0.1c0.1,0,0.3-0.1,0.4-0.2c0.1,0,0.2-0.1,0.3-0.2
	c0.5-0.3,0.8-0.8,1.1-1.2c0.3-0.5,0.5-1,0.7-1.5c0.2-0.5,0.3-1,0.4-1.6c0.1-0.5-0.1-1-0.3-1.4c-0.2-0.5-0.6-0.9-0.9-1.2
	c-0.3-0.3-0.7-0.6-1.1-0.9c-0.4-0.3-0.9-0.4-1.4-0.5c-0.1,0-0.1,0-0.2,0C155.8,16.8,155.6,16.8,155.5,16.9L155.5,16.9z M155.9,18.4
	C155.9,18.5,155.9,18.5,155.9,18.4C155.9,18.5,155.9,18.5,155.9,18.4L155.9,18.4z"/>
<path class="st0" d="M163.2,16.7c-0.3,0.3-0.5,0.8-0.5,1.2c-0.2,2.9-0.4,5.8-0.6,8.6c-0.1,1.2-0.2,2.5-0.2,3.7
	c0,0.5-0.1,1.1-0.1,1.6c0,0.4,0,0.7,0,1.1c0,0.9,0.1,1.9,0.8,2.5c0.2,0.2,0.4,0.3,0.7,0.4c0.4,0.1,0.9,0.1,1.3-0.2
	c0.6-0.4,0.9-1.1,0.8-1.8c0-0.4,0-0.9,0.1-1.3c0-0.3,0-0.7,0-1c0-0.5,0-1.1,0.1-1.6c0-1.2,0.1-2.3,0.2-3.5c0.2-2.8,0.4-5.7,0.6-8.5
	c0.1-1-0.8-1.8-1.8-1.8C163.9,16.1,163.5,16.3,163.2,16.7L163.2,16.7z"/>
<path class="st0" d="M165.8,16.3c-0.2,0-0.4,0.1-0.5,0.2c-0.2,0.1-0.4,0.3-0.5,0.5c-0.1,0.2-0.3,0.3-0.4,0.5
	c-0.1,0.2-0.2,0.4-0.2,0.6c-0.1,0.5-0.1,1,0,1.5c0.1,0.8,0.2,1.6,0.2,2.4c0,0.2,0.2,0.4,0.4,0.4c0.2,0,0.4-0.2,0.4-0.4
	c0-0.5-0.1-1-0.1-1.6c0-0.6-0.1-1.2,0-1.8c0-0.2,0.1-0.3,0.1-0.5c0-0.1,0.1-0.2,0.1-0.2c0.1-0.2,0.3-0.3,0.5-0.5
	c0,0,0.1-0.1,0.1-0.1c0.1,0,0.2-0.1,0.3-0.1c0.1,0,0.2,0,0.3,0c0.1,0,0.2,0.1,0.3,0.1c0.2,0.1,0.3,0.2,0.5,0.3
	c0.2,0.1,0.3,0.3,0.4,0.4c0.1,0.2,0.2,0.4,0.3,0.6c0.1,0.2,0.1,0.5,0.2,0.7c0,0.2,0,0.4,0,0.6c-0.1,0.3-0.2,0.6-0.3,0.9
	c-0.2,0.4-0.4,0.7-0.7,1.1c-0.3,0.3-0.5,0.6-0.9,0.9c-0.1,0.1-0.2,0.1-0.3,0.2c-0.1,0-0.2,0-0.3,0.1c-0.3,0.1-0.5,0.3-0.6,0.5
	c-0.1,0.2-0.2,0.5-0.1,0.8c0.2,0.6,0.7,0.9,1.3,0.7c0.2-0.1,0.4-0.1,0.6-0.2c0.2-0.1,0.4-0.3,0.6-0.4c0.2-0.1,0.3-0.3,0.4-0.5
	c0.2-0.2,0.3-0.4,0.5-0.7c0.3-0.4,0.5-0.8,0.7-1.3c0.2-0.5,0.3-0.9,0.4-1.4c0-0.2,0.1-0.5,0.1-0.7c0-0.3,0-0.5-0.1-0.8
	c-0.1-0.5-0.3-0.9-0.5-1.3c-0.5-0.8-1.3-1.5-2.2-1.7c-0.2-0.1-0.4-0.1-0.6-0.1C166.3,16.2,166,16.2,165.8,16.3L165.8,16.3z
	 M165.4,17.9C165.3,17.9,165.3,18,165.4,17.9C165.3,18,165.3,17.9,165.4,17.9L165.4,17.9z M167.8,18.3
	C167.8,18.3,167.8,18.3,167.8,18.3C167.8,18.3,167.8,18.3,167.8,18.3L167.8,18.3z"/>
<path class="st0" d="M175.4,16.9c-0.3,0.1-0.5,0.3-0.7,0.6c-0.5,0.6-1,1.3-1.4,2c-0.4,0.7-0.7,1.5-1,2.2c-0.1,0.4-0.2,0.7-0.2,1.1
	c-0.1,0.4,0,0.9,0.1,1.3c0.1,0.4,0.4,0.8,0.7,1.1c0.3,0.3,0.8,0.5,1.2,0.6c0.8,0.2,1.6-0.1,2.3-0.5c0.8-0.5,1.3-1.3,1.5-2.2
	c0.2-0.8,0.1-1.7-0.2-2.5c-0.2-0.7-0.6-1.3-1.1-1.8c0-0.1,0.1-0.1,0.1-0.2c0.2-0.2,0.2-0.7,0.1-1c-0.1-0.3-0.3-0.6-0.6-0.7
	c-0.2-0.1-0.4-0.2-0.6-0.2C175.6,16.9,175.5,16.9,175.4,16.9L175.4,16.9z M175.2,21c0,0.1,0.1,0.1,0.1,0.2c0.1,0.2,0.2,0.5,0.2,0.7
	c0,0.2,0,0.3,0,0.5c0,0.1-0.1,0.2-0.1,0.3c0,0.1-0.1,0.2-0.1,0.3c-0.1,0.1-0.1,0.2-0.2,0.2c-0.1,0-0.1,0.1-0.2,0.1c0,0-0.1,0-0.1,0
	c0,0-0.1,0-0.1,0c0,0,0,0,0,0c0,0,0-0.1-0.1-0.1c0,0,0,0,0-0.1c0-0.1,0-0.3,0-0.4c0.1-0.4,0.2-0.8,0.4-1.2
	C175,21.4,175.1,21.2,175.2,21L175.2,21z M174.4,23.2C174.5,23.2,174.5,23.2,174.4,23.2C174.5,23.2,174.5,23.2,174.4,23.2
	L174.4,23.2z"/>
<path class="st0" d="M187.4,15.5c-0.5,0-1,0.1-1.6,0.2c-0.5,0.1-1.1,0.4-1.5,0.6c-0.6,0.4-1.2,1-1.7,1.5c-0.1-0.1-0.1-0.1-0.2-0.1
	c-0.3-0.2-0.7-0.2-1.1-0.1c-0.3,0.1-0.6,0.3-0.8,0.6c-0.2,0.3-0.2,0.7-0.1,1.1c0.1,0.7,0.2,1.4,0.3,2.1c-0.1,0.4-0.1,0.9-0.1,1.3
	c0,0.6,0.1,1.3,0.3,1.9c0.2,0.6,0.7,1.1,1.4,1.1c0.3,0,0.5-0.1,0.7-0.2c0.4-0.2,0.5-0.5,0.7-0.9c0.2-0.4,0.2-0.8,0.1-1.2
	c0-0.3-0.1-0.6-0.2-1c0-0.1,0-0.2-0.1-0.4c0-0.2,0.1-0.3,0.1-0.5c0.2-0.4,0.4-0.7,0.6-1c0.4-0.5,0.9-1,1.5-1.5
	c0.2-0.1,0.4-0.2,0.5-0.3c0.3-0.1,0.6-0.2,0.8-0.2c0.1,0,0.1,0,0.2,0c0.4,0,0.7-0.1,1-0.4c0.3-0.3,0.4-0.6,0.4-1
	C188.9,16.2,188.2,15.5,187.4,15.5C187.4,15.5,187.4,15.5,187.4,15.5L187.4,15.5z"/>
<path class="st0" d="M193.7,6.5c-0.4,0.4-0.5,0.9-0.6,1.4c-0.3,3.6-0.6,7.1-0.9,10.7c-0.1,0.9-0.1,1.8-0.2,2.7c0,0.5-0.1,1-0.1,1.5
	c0,1,0.2,2.1,0.6,3c0.8,1.8,2.7,2.9,4.6,2.9c0.5,0,1-0.1,1.4-0.2c0.5-0.1,1-0.4,1.5-0.6c0.5-0.2,0.9-0.4,1.3-0.7
	c0.7-0.4,1-1.2,0.8-1.9c-0.1-0.4-0.4-0.8-0.8-1c-0.4-0.2-0.9-0.3-1.3-0.2c-0.8,0.3-1.6,0.6-2.5,0.8c-0.2,0-0.3,0-0.5,0
	c-0.1,0-0.2,0-0.3-0.1c-0.1-0.1-0.2-0.1-0.3-0.2c-0.1-0.1-0.2-0.2-0.2-0.2c0-0.1-0.1-0.1-0.1-0.2c-0.1-0.2-0.1-0.5-0.2-0.7
	c-0.1-0.7,0-1.4,0-2.1c0-0.6,0.1-1.3,0.1-1.9c0.1-0.8,0.1-1.5,0.2-2.3c0.3-3,0.5-6.1,0.8-9.1c0-0.5-0.2-1.1-0.6-1.4
	c-0.4-0.4-0.9-0.6-1.4-0.6C194.6,6,194.1,6.2,193.7,6.5L193.7,6.5z"/>
<path class="st0" d="M199.6,12.8c-1.3,0.2-2.5,0.5-3.8,0.9c-1.2,0.3-2.6,0.8-3.5,1.7c-0.2,0.2-0.4,0.4-0.6,0.7
	c-0.1,0.2-0.2,0.4-0.3,0.6c0,0.2-0.1,0.4-0.1,0.6c0,0.1,0,0.1,0,0.2c0,0.2,0,0.4,0.1,0.6c0.1,0.4,0.3,0.7,0.6,1
	c0.6,0.7,1.7,0.6,2.3,0c0.4-0.4,0.5-1,0.4-1.5c0.1-0.1,0.2-0.1,0.3-0.2c1-0.4,2.1-0.6,3.2-0.9c0.7-0.2,1.4-0.3,2.1-0.4
	c0.4-0.1,0.8-0.4,1-0.8c0.2-0.4,0.3-0.8,0.2-1.3c-0.1-0.4-0.4-0.8-0.8-1c-0.3-0.2-0.5-0.2-0.8-0.2C200,12.8,199.8,12.8,199.6,12.8
	L199.6,12.8z M194.4,17.9C194.4,17.9,194.4,17.9,194.4,17.9C194.4,17.9,194.4,17.9,194.4,17.9L194.4,17.9z"/>
<path class="st0" d="M222.2,14.3c-0.5,0-1.1,0-1.6,0.1c-0.5,0-1,0.4-1,1c0,0.5,0.4,1,1,1c0.5,0,1.1-0.1,1.6-0.1c0.5,0,1.1,0,1.7,0
	c0.5,0,0.9-0.4,0.9-0.9c0-0.2-0.1-0.5-0.3-0.6c-0.2-0.2-0.4-0.2-0.6-0.3c-0.3,0-0.7-0.1-1-0.1C222.6,14.3,222.4,14.3,222.2,14.3
	C222.2,14.3,222.2,14.3,222.2,14.3L222.2,14.3z"/>
<path class="st0" d="M222.1,20.7c0.1,2.5,0.1,5,0.3,7.5c0,0.4,0.1,0.7,0.4,1c0.3,0.3,0.6,0.4,1,0.4c0.8,0,1.5-0.7,1.5-1.5
	c0-2.5-0.1-5-0.1-7.5c0-0.8-0.7-1.5-1.5-1.5C222.8,19.1,222,19.8,222.1,20.7L222.1,20.7z"/>
<path class="st0" d="M234.2,16.9c-0.3,0.1-0.5,0.2-0.8,0.3c-0.1,0-0.1,0.1-0.2,0.2c-0.2,0.1-0.3,0.3-0.5,0.4
	c-0.2,0.1-0.3,0.3-0.5,0.5c-0.2,0.2-0.4,0.4-0.5,0.7c-0.1,0-0.2,0.1-0.3,0.1c-0.3,0.2-0.7,0.6-0.7,1c0,0.2-0.1,0.5-0.1,0.7
	c0,0,0,0.1,0,0.1c-0.5,1.1-0.8,2.2-0.9,3.4c0-0.1,0-0.3,0.1-0.4c-0.1,0.5-0.3,1.1-0.2,1.6c0,0.3,0.1,0.5,0.2,0.8
	c0.1,0.2,0.2,0.3,0.3,0.5c0.2,0.2,0.6,0.4,0.9,0.5c0.4,0.1,0.8,0.1,1.2-0.2c0.3-0.2,0.7-0.6,0.7-1c0.3-1.6,0.6-3.2,0.8-4.8
	c0.3-0.4,0.5-0.8,0.8-1.2c0.1-0.1,0.2-0.2,0.3-0.3c0.1,0.1,0.2,0.2,0.3,0.3c0.2,0.3,0.4,0.7,0.6,1.1c0.3,0.8,0.5,1.7,0.6,2.6
	c0.1,1,0.2,1.9,0.2,2.9c0,0.8,0.7,1.5,1.5,1.5c0.9,0,1.5-0.7,1.5-1.5c0.1-1,0-2-0.2-2.9c-0.3-1.8-0.7-3.6-1.7-5.1
	c-0.6-0.9-1.5-1.8-2.6-1.8c0,0-0.1,0-0.1,0C234.6,16.8,234.4,16.8,234.2,16.9L234.2,16.9z M234.4,19.5
	C234.4,19.5,234.5,19.6,234.4,19.5C234.5,19.6,234.4,19.5,234.4,19.5L234.4,19.5z M234.7,19.7C234.7,19.7,234.7,19.7,234.7,19.7
	c-0.1,0-0.1,0-0.2,0C234.6,19.7,234.6,19.7,234.7,19.7L234.7,19.7z M234.8,19.7C234.8,19.7,234.8,19.7,234.8,19.7
	c0,0-0.1,0.1-0.1,0.1C234.7,19.8,234.7,19.8,234.8,19.7L234.8,19.7z"/>
<path class="st0" d="M244.9,16.9c-0.9,1-0.8,2.4-0.3,3.5c0.2,0.5,0.5,1,0.8,1.5c0.3,0.5,0.6,0.9,0.8,1.4c0.1,0.3,0.2,0.5,0.2,0.8
	c0,0.3,0,0.5,0,0.8c-0.1,0.3-0.1,0.6-0.2,0.8c-0.1,0.3-0.3,0.5-0.4,0.7c-0.2,0.2-0.4,0.4-0.6,0.6c-0.1,0.1-0.2,0.1-0.3,0.2
	c-0.1,0-0.3,0.1-0.4,0.1c-0.2,0.1-0.4,0.2-0.6,0.3c-0.3,0.2-0.4,0.6-0.4,0.9c0,0.7,0.6,1.4,1.3,1.3c0.2,0,0.5,0,0.7-0.1
	c0.3-0.1,0.6-0.2,0.9-0.4c0.4-0.2,0.8-0.6,1.2-1c0.8-0.9,1.3-2,1.5-3.1c0.1-0.6,0.1-1.2,0-1.9c-0.1-0.6-0.3-1.1-0.5-1.7
	c-0.4-0.9-1-1.7-1.5-2.7c0-0.1-0.1-0.2-0.1-0.4c0,0,0-0.1,0-0.1c0,0,0.1,0,0.1,0c0.4,0,0.7,0,1.1,0c0.1,0,0.3,0.1,0.4,0.1
	c0.2,0.1,0.3,0.2,0.5,0.3c0,0,0.1,0,0.1,0.1c0.5,0.5,1.4,0.5,1.9,0c0.5-0.5,0.5-1.4,0-1.9c-0.4-0.4-0.8-0.7-1.3-0.9
	c-0.2-0.1-0.5-0.2-0.7-0.3c-0.3-0.1-0.7-0.1-1-0.1c-0.2,0-0.4,0-0.6,0C246.5,16,245.6,16.2,244.9,16.9L244.9,16.9z M247,18.7
	C247,18.7,247,18.8,247,18.7C247,18.8,247,18.7,247,18.7L247,18.7z M246.9,18.8c0,0,0,0.1,0,0.1C246.9,18.9,246.9,18.9,246.9,18.8
	L246.9,18.8z M246.8,18.9C246.8,18.9,246.7,18.9,246.8,18.9C246.7,18.9,246.8,18.9,246.8,18.9L246.8,18.9z M247,18.9
	c0,0,0,0.1,0,0.1C246.9,19,246.9,18.9,247,18.9L247,18.9z"/>
<path class="st0" d="M256.5,18.1c-0.1,0-0.3,0.1-0.4,0.1c-0.3,0.1-0.6,0.3-0.8,0.4c-0.6,0.4-1.1,1-1.4,1.6c-0.7,1.1-1,2.3-0.9,3.6
	c0,0.6,0.2,1.2,0.4,1.8c0.1,0.3,0.2,0.6,0.4,0.9c0.2,0.3,0.4,0.6,0.7,0.9c0.9,1,2.3,1.2,3.6,1.1c0.8-0.1,1.6-0.2,2.4-0.3
	c0.7-0.1,1.1-1,0.9-1.7c-0.1-0.3-0.3-0.6-0.6-0.8c-0.3-0.2-0.7-0.2-1-0.1c-0.2,0-0.3,0.1-0.5,0.1c-0.2,0-0.5,0-0.7,0.1
	c-0.6,0.1-1.1,0.1-1.6,0c-0.1,0-0.2,0-0.3-0.1c0,0-0.1,0-0.1,0c-0.1-0.1-0.2-0.2-0.3-0.3c-0.2-0.2-0.3-0.5-0.4-0.7
	c-0.1-0.3-0.2-0.6-0.3-0.9c0-0.1,0-0.1,0-0.2c0.7,0.1,1.5,0.1,2.2-0.2c1.2-0.5,1.9-1.7,1.7-2.9c-0.1-0.6-0.3-1.1-0.7-1.6
	c-0.2-0.2-0.5-0.4-0.8-0.5c-0.3-0.1-0.6-0.1-0.9-0.2C256.9,18.1,256.7,18.1,256.5,18.1L256.5,18.1z M257,20.4
	C257,20.4,257,20.4,257,20.4C257,20.4,257,20.4,257,20.4L257,20.4z M256.9,20.4C256.9,20.4,256.9,20.4,256.9,20.4
	C256.9,20.4,256.9,20.4,256.9,20.4L256.9,20.4z M257.1,20.4C257.1,20.4,257.1,20.4,257.1,20.4c0,0.1,0,0.1,0.1,0.2c0,0,0,0.1,0,0.1
	c0,0,0,0.1,0,0.1c0,0,0,0,0,0.1c0,0-0.1,0.1-0.1,0.1c0,0,0,0,0,0c-0.1,0-0.3,0.1-0.4,0.1c-0.1,0-0.2,0-0.3,0c0,0,0-0.1,0.1-0.1
	c0.1-0.1,0.2-0.2,0.3-0.4c0.1-0.1,0.2-0.1,0.4-0.2C257,20.5,257,20.4,257.1,20.4L257.1,20.4z M257,20.4c-0.1,0-0.1,0-0.2,0
	C256.9,20.5,257,20.4,257,20.4L257,20.4z M256.9,20.5c0,0-0.1,0-0.1,0C256.8,20.5,256.9,20.5,256.9,20.5L256.9,20.5z M257.1,20.9
	C257.1,20.9,257.1,20.9,257.1,20.9C257.1,20.9,257.1,20.9,257.1,20.9C257.1,20.9,257.1,20.9,257.1,20.9L257.1,20.9z M257.1,20.9
	C257.1,20.9,257.1,20.9,257.1,20.9C257.1,20.9,257,20.9,257.1,20.9C257,20.9,257,20.9,257.1,20.9C257,20.9,257.1,20.9,257.1,20.9
	L257.1,20.9z M257,20.9C257,20.9,257,20.9,257,20.9C257,20.9,257,21,257,20.9C257,21,257,20.9,257,20.9L257,20.9z"/>
<path class="st0" d="M268.1,17.1c-0.8,0.1-1.5,0.2-2.3,0.5c-0.4,0.2-0.8,0.4-1.1,0.6c0,0,0,0,0,0c-0.3-0.3-0.7-0.4-1.1-0.4
	c-0.4,0-0.8,0.2-1.1,0.4c-0.3,0.3-0.4,0.6-0.4,1.1c-0.1,0.9-0.1,1.8-0.2,2.7c-0.1,0.2-0.1,0.4-0.2,0.6c-0.1,0.3-0.1,0.5-0.1,0.8
	c0,0.3,0,0.6,0.1,0.8c0.2,0.6,0.8,1.1,1.4,1.1c0.3,0,0.5-0.1,0.8-0.2c0.3-0.2,0.6-0.5,0.7-0.9c0.1-0.7,0.2-1.4,0.3-2.1
	c0,0,0-0.1,0-0.1c0.1-0.3,0.3-0.5,0.4-0.7c0.2-0.3,0.5-0.5,0.7-0.7c0.3-0.2,0.7-0.4,1-0.6c0.4-0.2,0.9-0.3,1.3-0.4
	c0.6-0.1,1-0.7,1-1.3c0-0.3-0.1-0.7-0.4-0.9C268.8,17.3,268.5,17.1,268.1,17.1C268.2,17.1,268.1,17.1,268.1,17.1L268.1,17.1z"/>
<path class="st0" d="M274.6,8c-0.1,3.5-0.2,6.9-0.2,10.4c0,2.9-0.1,5.9,0,8.8c0,0.9,0.7,1.6,1.6,1.6c0.4,0,0.8-0.2,1.1-0.5
	c0.3-0.3,0.4-0.7,0.5-1.1c0.2-2.9,0.3-5.9,0.3-8.8c0.1-3.5,0.1-6.9,0.2-10.4c0-1-0.8-1.8-1.8-1.8C275.4,6.2,274.6,7,274.6,8L274.6,8
	z"/>
<path class="st0" d="M281.5,11.8c-2.6,0.8-5.1,1.8-7.6,2.8c-0.3,0.1-0.6,0.3-0.8,0.6c-0.2,0.3-0.2,0.7-0.1,1
	c0.1,0.3,0.3,0.6,0.6,0.8c0.3,0.2,0.7,0.2,1,0.1c2.5-1,5-2,7.5-2.8c0.6-0.2,1-0.8,0.9-1.5c-0.1-0.5-0.7-0.9-1.2-0.9
	C281.7,11.8,281.6,11.8,281.5,11.8L281.5,11.8z"/>
<path class="st0" d="M287.4,25.8c-0.4,0.2-0.6,0.5-0.7,0.9c-0.6,1.6-1.3,3.3-1.8,4.9c-0.2,0.6,0.1,1.3,0.7,1.6
	c0.6,0.4,1.6,0.2,1.9-0.5c0.8-1.7,1.5-3.5,2.1-5.2c0.1-0.4,0-0.9-0.2-1.2c-0.2-0.3-0.5-0.6-0.9-0.7c-0.1,0-0.3-0.1-0.4-0.1
	C287.9,25.6,287.7,25.7,287.4,25.8L287.4,25.8z"/>
<path class="st0" d="M304.6,18.2c-0.7,0.4-1.3,1-1.8,1.6c-0.5,0.6-1.1,1.2-1.5,1.9c-0.2,0.4-0.4,0.7-0.5,1.1c-0.2,0.5-0.1,1.1,0,1.6
	c0.1,0.4,0.3,0.8,0.5,1.1c0.3,0.4,0.6,0.8,0.9,1.1c0.6,0.6,1.4,1.1,2.3,1.2c0.4,0.1,0.8,0.1,1.2,0c0.5,0,0.9-0.1,1.4-0.2
	c0.5-0.1,0.9-0.7,0.9-1.2c0-0.3-0.1-0.6-0.4-0.9c-0.2-0.2-0.6-0.4-0.9-0.4c-0.5,0.1-1,0.1-1.5,0.1c-0.1,0-0.2-0.1-0.4-0.1
	c-0.2-0.1-0.4-0.2-0.6-0.4c-0.2-0.2-0.5-0.4-0.7-0.7c-0.1-0.1-0.1-0.2-0.2-0.3c0-0.1-0.1-0.2-0.1-0.3c0-0.1,0-0.1,0-0.2
	c0-0.1,0-0.1,0-0.2c0.1-0.3,0.3-0.6,0.5-0.9c0.5-0.6,1-1.3,1.6-1.8c0.3-0.2,0.5-0.4,0.8-0.5c0,0,0.1,0,0.1,0
	c0.2,0.1,0.4,0.1,0.6,0.2c0.3,0.2,0.7,0.3,1,0.5c0.3,0.1,0.6,0.2,0.9,0.1c0.3-0.1,0.6-0.3,0.7-0.6c0.2-0.3,0.2-0.6,0.1-0.9
	c-0.1-0.3-0.3-0.6-0.6-0.7c-0.7-0.3-1.4-0.7-2.2-1c-0.2-0.1-0.4-0.1-0.6-0.1C305.8,17.6,305.1,17.9,304.6,18.2L304.6,18.2z"/>
<path class="st0" d="M307.4,8.5c-0.2,3.6-0.3,7.3-0.5,10.9c-0.2,3.1-0.4,6.3-0.4,9.4c0,0.8,0.7,1.5,1.5,1.5c0.4,0,0.8-0.2,1-0.4
	c0.3-0.3,0.4-0.6,0.4-1c0.4-3.1,0.6-6.3,0.8-9.4c0.2-3.6,0.4-7.3,0.5-10.9c0-0.9-0.8-1.6-1.6-1.6C308.1,6.9,307.4,7.6,307.4,8.5
	L307.4,8.5z"/>
<path class="st0" d="M316.7,16.9c-0.6,0.2-1.2,0.6-1.7,1.1c-0.7,0.7-1.3,1.5-1.7,2.4c-0.1,0-0.1,0-0.2,0c-0.3,0-0.6,0.1-0.8,0.3
	c-0.2,0.2-0.3,0.5-0.3,0.8s0.1,0.6,0.3,0.8c0.1,0.1,0.1,0.1,0.2,0.2c-0.2,1-0.2,2,0,3c0.2,0.7,0.5,1.4,0.9,1.9
	c0.4,0.5,0.9,0.9,1.5,1.2c0.6,0.3,1.3,0.5,2,0.5c0.6,0.1,1.2,0,1.9,0c0.4,0,0.7-0.1,1-0.4c0.3-0.3,0.4-0.6,0.4-1
	c0-0.7-0.6-1.4-1.4-1.4c-0.6,0-1.1,0.1-1.7,0c-0.3,0-0.6-0.1-0.8-0.2c-0.2-0.1-0.3-0.2-0.5-0.3c-0.1-0.1-0.2-0.2-0.3-0.3
	c-0.1-0.2-0.2-0.3-0.3-0.5c-0.1-0.2-0.2-0.5-0.2-0.7c0-0.4,0-0.8,0-1.2c0-0.2,0.1-0.4,0.1-0.5c0.5-0.1,1.1-0.3,1.6-0.5
	c0.6-0.2,1.2-0.6,1.9-0.9c0.6-0.3,1.1-0.7,1.4-1.3c0.3-0.6,0.3-1.3,0-1.9c-0.3-0.6-0.8-1.1-1.5-1.3c-0.2,0-0.4-0.1-0.5-0.1
	C317.7,16.6,317.2,16.7,316.7,16.9L316.7,16.9z M318.2,18.7C318.2,18.7,318.2,18.7,318.2,18.7C318.2,18.7,318.2,18.7,318.2,18.7
	L318.2,18.7z M318,18.7c0,0,0.1,0.1,0.1,0.1C318,18.8,318,18.8,318,18.7L318,18.7z M317.9,18.8C318,18.8,318,18.8,317.9,18.8
	C318,18.8,318,18.8,317.9,18.8L317.9,18.8z M318.2,18.9C318.2,19,318.2,19,318.2,18.9C318.2,19,318.2,19,318.2,18.9
	C318.2,18.9,318.2,18.9,318.2,18.9L318.2,18.9z M318,19C318,19,318,19,318,19C318,19,318,19,318,19C318,19,318,19,318,19L318,19z
	 M318.1,19C318.1,19,318.1,19,318.1,19C318.1,19,318.1,19,318.1,19L318.1,19z M317.9,19C317.9,19,317.9,19,317.9,19
	c-0.3,0.2-0.6,0.4-0.9,0.5c0.1-0.1,0.1-0.1,0.2-0.1c0.2-0.1,0.3-0.2,0.5-0.3C317.7,19,317.8,19,317.9,19L317.9,19z"/>
<path class="st0" d="M325.6,8.4c-0.4,0.4-0.5,0.8-0.5,1.2c-0.4,3.7-0.8,7.4-1.1,11.1c-0.1,1.4-0.3,2.7-0.4,4.1
	c-0.2,1.6-0.4,3.3-0.2,5c0,0.5,0.2,0.8,0.5,1.2c0.3,0.3,0.7,0.5,1.2,0.5c0.9,0,1.7-0.8,1.7-1.7c0-1.6,0.2-3.3,0.4-4.9
	c0.1-1.4,0.3-2.8,0.4-4.1c0.4-3.7,0.8-7.4,1.1-11.2c0-0.4-0.2-0.9-0.5-1.2c-0.3-0.3-0.8-0.5-1.2-0.5C326.4,7.9,325.9,8.1,325.6,8.4
	L325.6,8.4z"/>
<path class="st0" d="M334,17c-0.9,0.2-1.6,0.6-2.2,1.1c-1.2,1-2.1,2.4-2.5,3.9c-0.4,1.5-0.2,3.2,0.8,4.4c0.2,0.3,0.5,0.5,0.8,0.7
	c0.4,0.3,0.7,0.4,1.2,0.6c0.3,0.1,0.7,0.2,1.1,0.2c0.5,0,0.9,0,1.4-0.1c1.1-0.2,2.1-0.6,3.2-0.9c0.6-0.2,1.2-0.4,1.8-0.7
	c0.4-0.1,0.7-0.3,0.9-0.7c0.2-0.3,0.2-0.7,0.1-1.1c-0.2-0.7-1-1.3-1.8-1c-0.6,0.2-1.2,0.4-1.9,0.6c-1,0.3-2,0.6-3.1,0.8
	c-0.2,0-0.3,0-0.5,0c-0.1,0-0.3-0.1-0.4-0.1c-0.1-0.1-0.2-0.1-0.3-0.2c-0.1-0.1-0.2-0.2-0.2-0.2c0-0.1-0.1-0.1-0.1-0.2
	c-0.1-0.2-0.1-0.3-0.1-0.5c0-0.2,0-0.4,0-0.6c0-0.1,0-0.1,0-0.2c0.4,0,0.7-0.1,1.1-0.2c0.8-0.2,1.5-0.5,2.1-1
	c0.3-0.2,0.6-0.4,0.8-0.7c0.3-0.4,0.5-0.8,0.7-1.2c0.1-0.3,0.1-0.8,0-1.2c-0.1-0.4-0.4-0.8-0.7-1.1c-0.4-0.4-1-0.6-1.6-0.6
	C334.5,17,334.3,17,334,17L334,17z"/>
<path class="st0" d="M344.8,7.2c-0.4,0.3-0.5,0.8-0.5,1.2c-0.5,6.5-1.1,13-1.5,19.5c0,0.7,0.5,1.3,1.2,1.5c0.4,0.1,0.9,0.1,1.2-0.2
	c0.3-0.2,0.7-0.6,0.7-0.9c0.5-3,0.7-6.1,1-9.2c0.3-3.6,0.6-7.1,0.9-10.7c0-0.4-0.2-0.9-0.5-1.2c-0.3-0.3-0.8-0.5-1.2-0.5
	S345.1,6.9,344.8,7.2L344.8,7.2z"/>
<path class="st0" d="M347.9,11.8c-1.3,0.3-2.5,0.7-3.8,1.1c-1.3,0.4-2.6,0.9-3.9,1.3c-0.9,0.3-1.4,1.1-1.2,2c0.2,0.8,1.2,1.4,2,1.2
	c1.3-0.4,2.6-0.9,3.9-1.3c1.2-0.4,2.5-0.9,3.7-1.2c0.8-0.2,1.3-1.1,1.1-1.9c-0.2-0.7-0.8-1.1-1.5-1.1
	C348.2,11.8,348.1,11.8,347.9,11.8L347.9,11.8z"/>
<path class="st0" d="M354.3,14.1c-0.7,0.1-1.3,0.5-1.8,1c-0.4,0.4-0.7,0.9-1,1.4c-0.3,0.5-0.5,1.1-0.6,1.7c-0.2,0.6-0.2,1.2-0.2,1.8
	c0,0.1,0,0.1,0,0.2c-0.5,0.4-0.6,1.1-0.3,1.7c0.2,0.3,0.5,0.5,0.8,0.6c0.4,1.1,1.1,2.1,2.1,2.8c1.1,0.8,2.4,0.9,3.7,1
	c0.4,0,0.8-0.2,1.1-0.4c0.3-0.3,0.4-0.7,0.4-1.1c0-0.4-0.2-0.8-0.4-1.1c-0.1-0.1-0.2-0.2-0.3-0.2c-0.2-0.1-0.5-0.2-0.8-0.2
	c0,0,0,0,0,0c-0.6-0.1-1.1-0.2-1.7-0.4c-0.1-0.1-0.3-0.2-0.4-0.2c-0.1-0.1-0.3-0.3-0.4-0.4c-0.2-0.2-0.3-0.5-0.4-0.7
	c0,0,0-0.1,0-0.1c0.4-0.2,0.8-0.5,1.2-0.8c0.5-0.4,0.9-0.8,1.2-1.2c0.4-0.5,0.6-1.1,0.7-1.8c0.2-1.2-0.1-2.4-1.1-3.1
	c-0.4-0.3-0.8-0.4-1.3-0.4C354.6,14,354.5,14,354.3,14.1L354.3,14.1z M354.5,16.7C354.5,16.7,354.6,16.7,354.5,16.7
	C354.6,16.7,354.6,16.7,354.5,16.7C354.6,16.7,354.5,16.7,354.5,16.7L354.5,16.7z M354.8,16.8C354.8,16.8,354.9,16.8,354.8,16.8
	C354.9,16.8,354.8,16.8,354.8,16.8C354.8,16.8,354.8,16.8,354.8,16.8L354.8,16.8z M354.8,16.8C354.8,16.8,354.8,16.8,354.8,16.8
	C354.8,16.8,354.8,16.8,354.8,16.8C354.8,16.8,354.8,16.8,354.8,16.8L354.8,16.8z M354.6,17c0,0.1,0,0.1,0,0.2
	c0,0.1-0.1,0.3-0.1,0.4c-0.1,0.1-0.1,0.2-0.2,0.3c-0.1,0.1-0.2,0.3-0.4,0.4c0-0.1,0.1-0.2,0.1-0.3C354.2,17.6,354.4,17.3,354.6,17
	C354.6,17,354.6,17,354.6,17L354.6,17z M357.1,23.2C357.1,23.2,357.1,23.2,357.1,23.2C357.1,23.2,357.1,23.2,357.1,23.2L357.1,23.2z
	"/>
<path class="st0" d="M368,21.6c-0.5,0.1-0.7,0.4-1,0.8c-0.9,1.2-1.8,2.4-2.8,3.7c0,0,0,0,0.1-0.1c-0.9,1.2-1.9,2.4-2.9,3.6
	c-0.3,0.3-0.5,0.7-0.5,1.1c0,0.4,0.2,0.8,0.5,1.1c0.6,0.6,1.7,0.7,2.3,0c2.2-2.5,4.2-5.2,6.2-7.8c0.3-0.3,0.3-0.9,0.2-1.3
	c-0.1-0.4-0.4-0.8-0.8-1c-0.3-0.1-0.5-0.2-0.8-0.2C368.2,21.6,368.1,21.6,368,21.6L368,21.6z"/>
<path class="st0" d="M382.7,14.7c-0.3,0.3-0.5,0.7-0.5,1.2c-0.1,1.3-0.2,2.5-0.3,3.8c-0.1,1.2-0.2,2.4-0.1,3.6
	c0,0.7,0.4,1.2,1.1,1.4c0.4,0.1,0.8,0.1,1.1-0.2c0.3-0.2,0.6-0.5,0.7-0.9c0.2-1.3,0.4-2.6,0.5-3.9c0.1-1.3,0.2-2.6,0.4-3.9
	c0-0.4-0.2-0.9-0.5-1.2c-0.3-0.3-0.7-0.5-1.2-0.5C383.5,14.2,383.1,14.4,382.7,14.7L382.7,14.7z"/>
<path class="st0" d="M387.7,13.5c-0.3,0.2-0.7,0.4-1,0.6c-0.4,0.3-0.9,0.6-1.3,0.9c-0.3,0.3-0.6,0.5-0.8,0.8
	c-0.3,0.4-0.6,0.8-0.8,1.3c-0.4,0.9-0.6,1.8-0.6,2.8c0,0.6,0.5,1.1,1.1,1.1c0.6,0,1-0.5,1.1-1.1c0-0.1,0-0.2,0-0.2
	c0.1-0.5,0.2-1,0.4-1.4c0.1-0.3,0.3-0.6,0.5-0.8c0.2-0.2,0.4-0.4,0.7-0.6c0.6-0.4,1.2-0.8,1.8-1.1c0,0,0,0,0,0c0,0,0.1,0,0.1,0
	c0,0,0,0,0,0c0,0,0.1,0,0.1,0c0.1,0.1,0.2,0.2,0.3,0.3c0.2,0.2,0.3,0.5,0.4,0.8c0.3,0.9,0.5,1.9,0.7,2.9c0,0.3,0.1,0.5,0.1,0.8
	c0,0.1,0,0.3,0,0.4c0,0.2,0,0.4,0.1,0.6c0.1,0.4,0.3,0.6,0.6,0.8c0,0,0,0,0,0c0.2,0.1,0.4,0.2,0.6,0.2c0,0,0,0,0,0
	c0.6,0,1.1-0.4,1.3-1c0.3-1.1,0-2.2-0.2-3.2c0-0.1-0.1-0.2-0.1-0.3c0-0.2,0.1-0.3,0.1-0.5c0.2-0.3,0.3-0.7,0.6-1
	c0.2-0.2,0.4-0.4,0.6-0.6c0.1,0,0.1-0.1,0.2-0.1c0,0,0,0,0,0c0.1,0,0.2,0.1,0.2,0.1c0,0,0.1,0.1,0.1,0.1c0.2,0.2,0.3,0.5,0.4,0.7
	c0.2,0.5,0.3,1,0.4,1.5c0.2,1.6,0.1,3.2,0,4.7c0,0.3,0.2,0.7,0.4,1c0.3,0.3,0.6,0.4,1,0.4c0.8,0,1.3-0.6,1.4-1.4c0.1-1,0-2-0.1-3
	c-0.1-1.1-0.3-2.3-0.6-3.4c-0.3-1-0.9-1.9-1.8-2.5c-0.4-0.2-0.9-0.3-1.3-0.3c-0.5,0-1,0.3-1.4,0.7c-0.2,0.1-0.3,0.3-0.4,0.5
	c-0.2,0.2-0.3,0.4-0.4,0.6c0,0,0,0,0,0.1c-0.3-0.6-0.7-1.2-1.2-1.6c-0.4-0.3-0.8-0.5-1.3-0.7c-0.2,0-0.4-0.1-0.6-0.1
	C388.5,13.2,388.1,13.3,387.7,13.5L387.7,13.5z M388.6,15.7c0,0,0.1,0,0.1,0C388.6,15.7,388.6,15.7,388.6,15.7L388.6,15.7z
	 M394.3,15.7c0,0-0.1,0-0.1,0C394.2,15.7,394.2,15.7,394.3,15.7L394.3,15.7z M394.3,15.7C394.4,15.7,394.4,15.7,394.3,15.7
	C394.4,15.7,394.4,15.7,394.3,15.7L394.3,15.7z M388.6,15.8C388.5,15.8,388.5,15.8,388.6,15.8C388.5,15.8,388.5,15.8,388.6,15.8
	L388.6,15.8z"/>
<path class="st0" d="M402.3,11.9c0,0.5,0.4,0.9,0.9,0.9s0.9-0.4,0.9-0.9c0-0.5-0.4-0.9-0.9-0.9S402.3,11.4,402.3,11.9L402.3,11.9z"
	/>
<path class="st0" d="M402.1,16.1c-0.2,0.9-0.4,1.7-0.5,2.6c-0.2,0.9-0.3,1.8-0.3,2.7c0,0.7,0.5,1.3,1.1,1.5c0.4,0.1,0.8,0.1,1.2-0.2
	c0.3-0.2,0.7-0.6,0.7-0.9c0.1-0.8,0.3-1.5,0.4-2.3c0.2-0.9,0.4-1.7,0.5-2.6c0.2-0.9-0.3-1.8-1.2-2c-0.1,0-0.3-0.1-0.4-0.1
	C403,14.9,402.3,15.4,402.1,16.1L402.1,16.1z"/>
<path class="st0" d="M412.3,14.3c-0.5,0-1,0.2-1.4,0.4c-0.1,0.1-0.3,0.2-0.4,0.3c-0.2,0.1-0.4,0.3-0.6,0.5c0,0-0.1,0-0.1,0.1
	c-0.3-0.3-0.7-0.5-1.2-0.5c-0.9,0-1.7,0.7-1.6,1.6c0,1.1,0,2.2,0.1,3.4c0,0.5,0,1,0,1.5c0,0.6,0,1.2,0.2,1.7
	c0.2,0.6,0.8,1.1,1.5,1.1c0.4,0,0.8-0.2,1.1-0.4c0.2-0.2,0.5-0.7,0.4-1.1c0-0.2,0-0.4,0.1-0.6c0-0.2,0-0.5,0-0.7c0-0.5,0-1,0-1.5
	c0-0.7,0-1.3,0-2c0,0,0.1-0.1,0.1-0.1c0.3-0.3,0.6-0.6,0.9-0.9c0.2-0.2,0.4-0.3,0.7-0.4c0.1,0,0.2,0,0.3-0.1c0,0,0.1,0,0.1,0
	c0.1,0,0.1,0,0.2,0c0.1,0.1,0.2,0.1,0.3,0.2c0.1,0.1,0.2,0.2,0.2,0.2c0.2,0.3,0.4,0.6,0.6,1c0.2,0.6,0.4,1.2,0.5,1.8
	c0.1,0.5,0.1,1,0.1,1.5c0,0.7,0.6,1.3,1.3,1.3c0.8,0,1.3-0.6,1.3-1.3c0-0.4,0-0.7,0-1.1c0-0.5-0.1-1-0.3-1.4
	c-0.1-0.4-0.3-0.9-0.5-1.3c-0.2-0.4-0.4-0.8-0.6-1.2c-0.5-0.7-1-1.3-1.7-1.6C413.3,14.4,412.9,14.3,412.3,14.3
	C412.4,14.3,412.4,14.3,412.3,14.3L412.3,14.3z M412.2,16.6C412.2,16.6,412.2,16.6,412.2,16.6C412.1,16.6,412.1,16.6,412.2,16.6
	C412.2,16.6,412.2,16.6,412.2,16.6L412.2,16.6z M412.1,16.6C412.1,16.6,412.1,16.6,412.1,16.6C412.1,16.6,412.1,16.6,412.1,16.6
	C412.1,16.6,412.1,16.6,412.1,16.6L412.1,16.6z M414.2,19.5C414.2,19.6,414.2,19.6,414.2,19.5C414.2,19.6,414.2,19.6,414.2,19.5
	L414.2,19.5z"/>
<path class="st0" d="M427.1,22.3c-1.6,1.4-3.1,2.8-4.6,4.2c-0.6,0.6-0.6,1.6,0,2.2c0.6,0.6,1.6,0.6,2.2,0c1.6-1.4,3.1-2.8,4.7-4.2
	c0.7-0.6,0.6-1.7,0-2.3c-0.3-0.3-0.7-0.5-1.1-0.5C427.8,21.9,427.4,22,427.1,22.3L427.1,22.3z"/>
<path class="st0" d="M444.4,13c-0.3,0.2-0.6,0.4-0.9,0.6c-0.4,0.3-0.7,0.6-1.1,0.9c-0.2,0.2-0.5,0.4-0.7,0.6
	c-0.2-0.2-0.5-0.4-0.7-0.5c-0.4-0.1-0.8-0.1-1.2,0.2c-0.3,0.2-0.6,0.5-0.7,0.9c-0.1,0.7-0.2,1.4-0.3,2.1c-0.1,0.4-0.1,0.8-0.1,1.2
	c0,0.4,0.1,0.7,0.2,1.1c0.2,0.5,0.5,0.9,1,1c0.6,0.2,1.4-0.1,1.7-0.7c0.2-0.4,0.4-0.8,0.7-1.2c0.3-0.5,0.6-0.9,0.9-1.3
	c0.8-0.9,1.6-1.8,2.5-2.6c0,0,0.1,0,0.1,0c0,0,0,0,0,0c0.2,0.1,0.3,0.3,0.4,0.4c0.1,0.2,0.2,0.4,0.3,0.6c0.1,0.3,0.2,0.6,0.2,0.9
	c0,0.4,0,0.8,0,1.3c-0.1,0.1-0.1,0.2-0.2,0.3c-0.3,0.5-0.5,1-0.7,1.5c-0.3,0.7,0.3,1.7,1,1.8c0.5,0.1,0.9,0.1,1.3-0.1
	c0.5-0.3,0.7-0.8,0.9-1.4c0.1-0.2,0.1-0.4,0.2-0.6c0.2-0.3,0.4-0.5,0.5-0.8c0.8-1,1.8-1.9,2.8-2.8c0.1-0.1,0.3-0.2,0.4-0.3
	c0,0,0,0,0.1,0c0,0,0,0,0.1,0c0.1,0.1,0.3,0.2,0.4,0.3c0.1,0.1,0.2,0.2,0.3,0.4c0.2,0.3,0.4,0.6,0.5,0.9c0.2,0.7,0.4,1.3,0.5,2
	c0.1,1.1,0.2,2.2,0.1,3.4c-0.1,0.6,0.5,1.2,1.1,1.4c0.4,0.1,0.8,0,1.1-0.1c0.3-0.2,0.6-0.5,0.7-0.9c0.1-0.7,0.2-1.4,0.2-2.1
	c0-0.8-0.1-1.5-0.2-2.2c-0.2-1-0.5-2-0.9-2.9c-0.2-0.5-0.5-0.9-0.9-1.3c-0.3-0.4-0.7-0.7-1.1-1c-0.3-0.2-0.7-0.4-1.1-0.5
	c-0.5-0.2-1.1-0.1-1.6,0.1c-1,0.3-1.8,1.1-2.6,1.8c-0.2,0.1-0.3,0.3-0.5,0.4c-0.1-0.2-0.1-0.4-0.2-0.5c-0.4-0.9-1-1.6-1.8-2.1
	c-0.3-0.2-0.8-0.4-1.2-0.4c0,0,0,0,0,0C445.3,12.7,444.8,12.8,444.4,13L444.4,13z M445.5,15.3c0.1,0,0.1,0,0.2,0
	C445.6,15.3,445.5,15.3,445.5,15.3L445.5,15.3z M445.8,15.4c0,0,0.1,0,0.1,0C445.8,15.4,445.8,15.4,445.8,15.4L445.8,15.4z
	 M445.5,15.5C445.5,15.5,445.5,15.5,445.5,15.5C445.5,15.5,445.5,15.5,445.5,15.5L445.5,15.5z M445.8,15.5
	C445.9,15.5,445.9,15.5,445.8,15.5C445.9,15.5,445.9,15.5,445.8,15.5L445.8,15.5z M453.5,16.4C453.5,16.4,453.5,16.4,453.5,16.4
	C453.5,16.4,453.5,16.4,453.5,16.4L453.5,16.4z M450,19.1c0,0-0.1,0.1-0.1,0.1C450,19.2,450,19.1,450,19.1L450,19.1z"/>
<path class="st0" d="M468.4,14.6c-0.5,0.1-1,0.4-1.5,0.7c-0.5,0.3-0.9,0.6-1.4,1c-0.4,0.3-0.8,0.7-1.2,1.1c-0.4,0.4-0.7,0.9-1,1.4
	c-0.2,0.5-0.3,1-0.2,1.6c0.1,0.6,0.4,1.1,0.7,1.6c0.4,0.4,0.8,0.8,1.3,1c0.6,0.3,1.2,0.4,1.8,0.4c0.7,0,1.3-0.2,1.9-0.4
	c0.5-0.2,1-0.6,1.4-1c0.4-0.4,0.8-0.8,1.1-1.3c0.1-0.1,0.2-0.3,0.3-0.5c0,0,0.1,0,0.1,0.1c0.7,0.6,1.4,1.2,2.1,1.8
	c0.7,0.6,1.4,1.1,2.1,1.5c0.7,0.4,1.6,0.1,1.9-0.5c0.2-0.3,0.2-0.7,0.1-1.1c-0.1-0.4-0.3-0.6-0.7-0.9c-1.2-0.8-2.3-1.7-3.4-2.5
	c0.1,0,0.1,0.1,0.2,0.1c-0.4-0.3-0.8-0.6-1.2-0.9c0.1-0.2,0.2-0.5,0.1-0.7c-0.1-0.4-0.3-0.7-0.6-1.1c-0.3-0.4-0.7-0.8-1.2-1.1
	c-0.4-0.3-1-0.5-1.5-0.5c-0.1,0-0.2,0-0.4,0C469.2,14.4,468.8,14.5,468.4,14.6L468.4,14.6z M470,16.4c0.1,0,0.2,0,0.3,0.1
	c0.1,0.1,0.3,0.2,0.4,0.2c0.1,0.1,0.3,0.2,0.4,0.4c0,0,0.1,0.1,0.1,0.1c-0.2,0-0.5,0.1-0.7,0.2c-0.3,0.2-0.5,0.4-0.6,0.7
	c0,0.1-0.1,0.2-0.1,0.3c-0.1,0.1-0.1,0.2-0.2,0.4c-0.1,0.2-0.2,0.3-0.3,0.5c-0.3,0.3-0.5,0.6-0.9,0.9c-0.2,0.1-0.4,0.2-0.6,0.3
	c-0.2,0.1-0.4,0.1-0.5,0.2c-0.2,0-0.3,0-0.5,0c-0.2,0-0.3-0.1-0.5-0.1c-0.1-0.1-0.2-0.1-0.3-0.2c-0.1-0.1-0.1-0.1-0.2-0.2
	c-0.1-0.1-0.1-0.2-0.2-0.3c0-0.1,0-0.1-0.1-0.2c0,0,0,0,0,0c0-0.1,0.1-0.2,0.1-0.3c0-0.1,0.1-0.2,0.2-0.3c0.2-0.2,0.4-0.5,0.6-0.7
	c0.3-0.3,0.6-0.6,1-0.9c0.4-0.3,0.9-0.6,1.3-0.8c0.2-0.1,0.4-0.1,0.6-0.2C469.6,16.4,469.8,16.4,470,16.4L470,16.4z M465.6,19.4
	C465.6,19.4,465.6,19.5,465.6,19.4C465.6,19.5,465.6,19.4,465.6,19.4L465.6,19.4z M472,20.3C472,20.3,472,20.4,472,20.3
	C472,20.4,472,20.4,472,20.3L472,20.3z M466.1,20.4C466.1,20.4,466.1,20.4,466.1,20.4L466.1,20.4C466.1,20.4,466.1,20.4,466.1,20.4
	L466.1,20.4z M466.1,20.4L466.1,20.4C466.1,20.4,466.1,20.4,466.1,20.4C466.1,20.4,466.1,20.4,466.1,20.4L466.1,20.4z"/>
<path class="st0" d="M490.7,12.5c-2,2.3-4,4.7-5.9,7c-1.5,1.8-2.9,3.6-4.5,5.3c-0.5,0.6-0.6,1.4,0,2c0.3,0.3,0.6,0.4,1,0.4
	c0.4,0,0.7-0.2,1-0.4c0.3-0.2,0.6-0.5,0.8-0.7c0.3-0.3,0.5-0.6,0.8-0.9c0.3-0.3,0.5-0.6,0.8-0.9c0.8-0.9,1.5-1.7,2.3-2.6
	c2-2.3,4-4.7,6-7c0.3-0.3,0.5-0.7,0.5-1.1c0-0.4-0.2-0.8-0.5-1.1c-0.3-0.3-0.7-0.5-1.1-0.5C491.4,12.1,491,12.2,490.7,12.5
	L490.7,12.5z"/>
<path class="st0" d="M480.3,14c-0.4,0.1-0.8,0.4-1,0.8c-0.2,0.4-0.3,0.9-0.2,1.3c0.1,0.4,0.4,0.9,0.8,1c3.3,1.4,6.6,2.8,9.9,4.2
	c1.1,0.5,2.2,0.9,3.4,1.4c1.3,0.5,2.6,1.1,3.9,1.5c0.9,0.3,1.9-0.3,2.1-1.2c0.1-0.4,0.1-0.9-0.2-1.3c-0.2-0.4-0.6-0.6-1-0.8
	c-0.9-0.3-1.8-0.7-2.7-1c0.1,0.1,0.3,0.1,0.4,0.2c-1.4-0.6-2.8-1.2-4.1-1.8c0.1,0.1,0.3,0.1,0.4,0.2c-3.5-1.5-6.9-2.9-10.3-4.4
	c-0.1-0.1-0.3-0.1-0.4-0.2c-0.2,0-0.3-0.1-0.5-0.1S480.5,14,480.3,14L480.3,14z"/>
<path class="st0" d="M505.8,22.3c-0.4,0.4-0.5,0.8-0.5,1.2c0,0,0,0.1,0,0.1c-0.1,0.9-0.4,1.8-0.7,2.7c-0.7,1.5-1.7,2.9-2.7,4.2
	c-0.2,0.3-0.2,0.6-0.2,0.9c0,0.5,0.2,0.9,0.5,1.2c0.3,0.3,0.8,0.5,1.2,0.5c0.4,0,0.9-0.2,1.2-0.5c0.8-1,1.6-2,2.3-3.1
	c0.6-0.9,1-1.9,1.3-2.8c0.4-1,0.5-2.1,0.6-3.1c0-0.4-0.2-0.9-0.5-1.2c-0.3-0.3-0.8-0.5-1.2-0.5C506.6,21.8,506.1,22,505.8,22.3
	L505.8,22.3z"/>
<path class="st0" d="M23.3,43.8c-0.3,0.2-0.6,0.5-0.6,0.8c-0.1,0.4-0.1,0.9-0.1,1.3c0,0.3,0,0.6,0,0.9c0,0.5,0.2,0.9,0.6,1.1
	c0.1,1,0.1,1.9,0.2,2.9c0,0.6,0,1.2,0.1,1.8c0,0.7,0.1,1.4,0.2,2.2c0.2,0.8,1,1.2,1.8,1c0.4-0.1,0.7-0.3,0.9-0.7
	c0.1-0.2,0.2-0.5,0.2-0.7c0,0,0,0,0,0c0-1.3-0.1-2.6-0.2-3.9c0-0.5-0.1-0.9-0.1-1.4c0.1-0.2,0.1-0.5,0.2-0.7
	c0.1-0.3,0.3-0.6,0.5-0.8c0.2-0.3,0.4-0.5,0.7-0.7c0.2-0.1,0.3-0.2,0.5-0.3c0.2-0.1,0.3-0.1,0.5-0.1c0.1,0,0.3,0,0.4,0
	c0.1,0,0.3,0.1,0.4,0.1c0.2,0.1,0.4,0.2,0.6,0.4c0.2,0.2,0.4,0.4,0.6,0.6c0.2,0.3,0.4,0.7,0.6,1c0.2,0.6,0.4,1.2,0.5,1.8
	c0.1,0.7,0.1,1.4,0.1,2.1c0,0.7,0.6,1.3,1.3,1.3c0.8,0,1.3-0.6,1.3-1.3c0.1-2.1-0.4-4.3-1.7-6c-0.6-0.8-1.4-1.4-2.4-1.8
	c-0.5-0.2-1-0.3-1.5-0.3c-0.6,0-1.2,0.2-1.8,0.4c-0.4,0.2-0.8,0.5-1.2,0.9c-0.1,0-0.1,0.1-0.2,0.2c-0.1-0.4-0.2-0.7-0.4-1.1
	c-0.1-0.2-0.2-0.4-0.3-0.6c-0.3-0.3-0.6-0.4-1-0.4C23.7,43.6,23.5,43.6,23.3,43.8L23.3,43.8z M29.4,46.5
	C29.4,46.5,29.4,46.6,29.4,46.5C29.4,46.6,29.4,46.5,29.4,46.5L29.4,46.5z"/>
<path class="st0" d="M41.5,44c-0.4,0.1-0.7,0.2-1.1,0.4c-0.4,0.2-0.8,0.4-1.1,0.7c-0.4,0.4-0.8,0.8-1.1,1.2
	c-0.5,0.2-0.9,0.7-0.9,1.3c-0.3,0.6-0.5,1.2-0.6,1.8c-0.2,1-0.1,1.9,0.3,2.8c0.3,0.8,0.8,1.5,1.4,2.1c0.7,0.7,1.5,1.1,2.4,1.4
	c1.3,0.4,2.7,0.5,4,0.5c0.8,0,1.5,0,2.3,0c0.8-0.1,1.5-0.6,1.5-1.5c0-0.8-0.7-1.5-1.5-1.5c-0.6,0-1.2,0-1.8,0
	c-0.8-0.1-1.5-0.1-2.3-0.2c-0.5-0.1-1.1-0.2-1.6-0.4c-0.2-0.1-0.4-0.2-0.5-0.3c-0.2-0.2-0.4-0.4-0.6-0.6c-0.2-0.2-0.3-0.5-0.4-0.7
	c-0.1-0.2-0.1-0.4-0.2-0.6c0-0.1,0-0.3,0-0.4c0.1-0.3,0.1-0.6,0.2-0.9c0.5,0,0.9,0,1.4,0c0.2,0,0.5,0,0.7,0c0.5,0,1-0.2,1.5-0.4
	c0.5-0.2,0.8-0.5,1.1-0.9c0.3-0.4,0.4-0.8,0.4-1.3c0.1-0.7-0.2-1.5-0.8-2c-0.4-0.3-0.8-0.5-1.3-0.6c-0.2,0-0.4-0.1-0.6-0.1
	C42.1,44,41.8,44,41.5,44L41.5,44z M42.2,46.1C42.2,46.1,42.2,46.1,42.2,46.1C42.2,46.1,42.2,46.1,42.2,46.1
	C42.2,46.1,42.2,46.1,42.2,46.1L42.2,46.1z M42.1,46.1C42.1,46.1,42.1,46.1,42.1,46.1C42.1,46.1,42.1,46.1,42.1,46.1
	C42.1,46.1,42.1,46.1,42.1,46.1L42.1,46.1z M42.1,46.1C42.1,46.1,42.1,46.1,42.1,46.1C42.1,46.1,42.1,46.1,42.1,46.1
	C42.1,46.1,42.1,46.1,42.1,46.1C42.1,46.1,42.1,46.1,42.1,46.1L42.1,46.1z M42.4,47c0.1,0,0.1,0,0.2,0C42.5,47,42.4,47,42.4,47
	L42.4,47z"/>
<path class="st0" d="M53.8,46.9c-2.1,2.5-4.3,4.9-6.3,7.4c-0.3,0.3-0.4,0.6-0.4,1.1c0,0.4,0.2,0.8,0.4,1.1c0.6,0.6,1.5,0.6,2.2,0
	c1-0.9,1.8-1.9,2.7-2.8c1.3-1.5,2.6-2.9,3.8-4.4c0.3-0.3,0.5-0.7,0.5-1.2c0-0.4-0.2-0.9-0.5-1.2c-0.3-0.3-0.8-0.5-1.2-0.5
	C54.5,46.4,54.1,46.5,53.8,46.9L53.8,46.9z"/>
<path class="st0" d="M50.1,46.1c-0.8,0.5-1.2,1.6-0.6,2.4c0.8,1.2,1.8,2.2,2.8,3.2c0.6,0.5,1.2,1,1.9,1.5c0.9,0.7,1.8,1.2,2.8,1.7
	c0.4,0.2,0.8,0.3,1.2,0.2c0.4-0.1,0.7-0.4,0.9-0.7c0.4-0.7,0.2-1.6-0.5-2.1c-0.4-0.3-0.8-0.5-1.2-0.8c-0.5-0.4-1-0.8-1.4-1.2
	c-0.4-0.3-0.7-0.6-1.1-0.9c-0.8-0.7-1.5-1.4-2.1-2.2c-0.1-0.1-0.1-0.2-0.2-0.3c-0.3-0.4-0.6-0.7-1-0.8c-0.2,0-0.3-0.1-0.5-0.1
	C50.7,45.9,50.4,46,50.1,46.1L50.1,46.1z"/>
<path class="st0" d="M64.7,37.8c-0.4,0.3-0.5,0.8-0.5,1.2c-0.2,2.8-0.5,5.5-0.7,8.3c-0.1,1.1-0.2,2.3-0.3,3.4c0,0.5-0.1,1.1-0.1,1.7
	c0,0.4,0,0.8,0,1.1c0,0.6,0.1,1.3,0.2,1.9c0.1,0.3,0.2,0.5,0.4,0.7c0.3,0.3,0.7,0.5,1.1,0.5c0.9,0,1.6-0.7,1.6-1.6
	c0-0.9,0.1-1.7,0.2-2.6c0-0.5,0.1-1.1,0.1-1.7c0.1-1.1,0.2-2.3,0.3-3.4c0.2-2.8,0.5-5.6,0.7-8.3c0-0.4-0.2-0.9-0.5-1.2
	c-0.3-0.3-0.8-0.5-1.2-0.5C65.4,37.3,65,37.5,64.7,37.8L64.7,37.8z"/>
<path class="st0" d="M73.6,41.2c-3.9,1.2-7.9,2.4-11.9,3.4c-0.6,0.2-1,0.9-0.8,1.5c0.2,0.6,0.9,1,1.5,0.8c4-1.1,7.9-2.2,11.9-3.4
	c0.6-0.2,1-0.8,0.8-1.5c-0.1-0.5-0.6-0.9-1.2-0.9C73.8,41.1,73.7,41.2,73.6,41.2L73.6,41.2z"/>
<path class="st0" d="M84.6,47.3c-0.8,0.1-1.6,0.3-2.4,0.4c-0.3,0.1-0.7,0.3-0.8,0.6c-0.2,0.3-0.2,0.7-0.1,1.1
	c0.1,0.3,0.3,0.6,0.6,0.8c0.3,0.2,0.7,0.2,1.1,0.1c0.8-0.1,1.6-0.3,2.4-0.4c0.7-0.1,1.1-1,0.9-1.7c-0.1-0.3-0.3-0.6-0.6-0.8
	c-0.2-0.1-0.4-0.2-0.7-0.2C84.9,47.2,84.7,47.2,84.6,47.3L84.6,47.3z"/>
<path class="st0" d="M94.1,38.4c-0.1,3.4-0.2,6.8-0.3,10.1c0,1.4-0.1,2.7-0.1,4.1c0,0.7-0.1,1.3-0.1,2c0,0.4,0,0.8,0,1.2
	c0,0.2,0,0.4,0,0.6c0,0.2,0.1,0.5,0.1,0.7c0,0.2,0.2,0.5,0.3,0.7c0.3,0.6,1.1,0.9,1.8,0.7c0.9-0.2,1.3-1.1,1.1-1.9c0,0,0,0,0-0.1
	c0-0.7,0.1-1.4,0.1-2.2c0-0.7,0.1-1.4,0.1-2.2c0.1-1.3,0.1-2.5,0.1-3.8c0.1-3.3,0.2-6.7,0.3-10c0-1-0.8-1.8-1.8-1.8
	C94.8,36.7,94.1,37.5,94.1,38.4L94.1,38.4z M96.8,56.3C96.8,56.3,96.8,56.4,96.8,56.3C96.8,56.4,96.8,56.3,96.8,56.3L96.8,56.3z"/>
<path class="st0" d="M109.2,45.5c-1.1,0.1-2.2,0.6-3.2,1.2c-0.5,0.3-1,0.7-1.4,1.1c-0.4,0.4-0.9,0.7-1.3,1.1
	c-0.4,0.4-0.7,0.8-1.1,1.2c-0.3,0.4-0.7,0.8-0.9,1.3c-0.5,1.1-0.2,2.3,0.7,3.1c0.4,0.4,0.9,0.6,1.5,0.8c0.5,0.2,1.1,0.2,1.7,0.2
	c1.2,0,2.3-0.6,3.3-1.3c0.5-0.3,0.9-0.7,1.3-1.1c0.1-0.1,0.3-0.3,0.4-0.4c0.6,0.5,1.1,1,1.7,1.5c0.3,0.3,0.6,0.4,1.1,0.4
	c0.4,0,0.8-0.2,1.1-0.4c0.6-0.6,0.6-1.6,0-2.1c-0.6-0.6-1.3-1.3-2-1.9c-0.2-0.1-0.3-0.3-0.5-0.4c-0.2-0.2-0.5-0.3-0.8-0.4
	c-0.2,0-0.4-0.1-0.7-0.1c-0.3,0-0.8,0.1-1,0.3c-0.7,0.4-1.2,1.1-1.8,1.6c-0.4,0.3-0.9,0.6-1.4,0.9c-0.2,0.1-0.4,0.1-0.6,0.2
	c-0.2,0-0.3,0-0.5,0c0,0,0,0-0.1,0c0.8-0.9,1.7-1.8,2.7-2.6c0.4-0.3,0.9-0.5,1.3-0.8c0.3-0.1,0.6-0.2,0.9-0.3c0,0,0.1,0,0.1,0
	c0.3,0.1,0.7,0.2,1,0.3c0,0,0.1,0,0.1,0.1c0.4,0.2,0.8,0.3,1.2,0.2c0.4-0.1,0.7-0.4,0.9-0.7c0.4-0.7,0.2-1.7-0.6-2.1
	c-0.8-0.4-1.8-0.8-2.7-0.8C109.5,45.5,109.3,45.5,109.2,45.5L109.2,45.5z M109.3,48.6C109.3,48.6,109.3,48.6,109.3,48.6
	C109.3,48.6,109.3,48.6,109.3,48.6L109.3,48.6z M110.3,48.7c0.1,0,0.1,0.1,0.2,0.1C110.4,48.8,110.4,48.7,110.3,48.7L110.3,48.7z
	 M104.8,51.9C104.7,52,104.7,52,104.8,51.9C104.7,52,104.7,52,104.8,51.9L104.8,51.9z"/>
<path class="st0" d="M123.5,46.1c-1.1,0-2.3,0.2-3.2,0.9c-0.3,0.2-0.5,0.4-0.7,0.7c-0.3-0.2-0.7-0.4-1.1-0.4c-0.9,0-1.6,0.8-1.7,1.7
	c0,0.5,0,1,0,1.5c0,0.7,0.1,1.3,0.2,1.9c0.1,0.5,0.6,1,1.1,1.1c0.3,0.1,0.6,0.1,0.9,0c0.3-0.1,0.5-0.2,0.7-0.4
	c0.2-0.3,0.5-0.6,0.7-1c0.1-0.3,0.2-0.5,0.4-0.8c0.3-0.5,0.5-1.1,0.9-1.6c0.1-0.1,0.3-0.3,0.4-0.4c0.1-0.1,0.2-0.1,0.3-0.1
	c0.3-0.1,0.5-0.2,0.8-0.2c0.6-0.1,1.2-0.1,1.8-0.1c0.7,0,1.3-0.6,1.3-1.3c0-0.7-0.6-1.3-1.3-1.3c-0.2,0-0.3,0-0.5,0
	C124.1,46.1,123.8,46.1,123.5,46.1L123.5,46.1z"/>
<path class="st0" d="M131.6,44.9c-1,0.3-1.9,1-2.5,1.8c-0.4,0.4-0.7,0.9-0.9,1.4c-0.3,0.6-0.4,1.3-0.4,2c0,0.5,0.1,1.1,0.3,1.6
	c0.2,0.5,0.4,1,0.8,1.4c0.4,0.4,0.9,0.6,1.4,0.8c0.6,0.2,1.3,0.1,1.9-0.1c0.3-0.1,0.6-0.2,0.8-0.3c0,0.4,0.1,0.8,0.1,1.3
	c0.2,2.2,0.5,4.4,0.3,6.5c-0.1,0.5-0.2,1-0.4,1.4c-0.2,0.4-0.4,0.8-0.7,1.1c-0.3,0.4-0.6,0.8-1,1.1c-0.1,0.1-0.3,0.2-0.4,0.2
	c-0.1,0-0.3,0.1-0.4,0.1c-0.2,0-0.5,0-0.7,0c-0.1-0.1-0.1-0.1-0.2-0.2c-0.4-0.6-0.8-1.3-1.1-2c-0.3-0.7-1.4-0.9-2-0.5
	c-0.3,0.2-0.6,0.5-0.7,0.9c-0.1,0.4,0,0.8,0.1,1.1c0.4,0.9,0.8,1.9,1.5,2.7c0.2,0.3,0.5,0.6,0.8,0.8c0.4,0.3,0.9,0.4,1.4,0.4
	c0.9,0.1,1.8,0.1,2.6-0.3c0.4-0.2,0.7-0.3,1-0.5c0.4-0.3,0.7-0.6,1-0.9c0.6-0.6,1.1-1.3,1.5-2.1c0.4-0.7,0.6-1.5,0.8-2.3
	c0.2-0.9,0.2-1.8,0.2-2.7c0-1.7-0.2-3.3-0.4-5c-0.1-0.7-0.1-1.4-0.2-2.1c-0.1-0.9-0.2-1.9-0.2-2.9c0,0,0,0,0,0
	c0.1-0.2,0.1-0.5,0.1-0.8c0.1,0.1,0.2,0.1,0.3,0.2c0.6,0.4,1.5,0.1,1.9-0.5c0.4-0.7,0.1-1.5-0.5-1.9c-0.9-0.5-1.7-1.1-2.6-1.5
	c-0.7-0.3-1.5-0.6-2.3-0.6C132.3,44.7,131.9,44.8,131.6,44.9L131.6,44.9z M133,47.5c0.1,0,0.3,0.1,0.4,0.1c-0.1,0.1-0.2,0.2-0.3,0.4
	c-0.3,0.4-0.3,0.8-0.4,1.3c-0.1,0.3-0.3,0.5-0.4,0.7c-0.1,0.2-0.3,0.3-0.5,0.5c-0.2,0.1-0.3,0.2-0.5,0.3c-0.1,0-0.2,0.1-0.4,0.1
	c-0.1-0.1-0.1-0.2-0.2-0.4c0-0.2-0.1-0.3-0.1-0.5c0-0.2,0-0.3,0-0.4c0-0.1,0-0.1,0.1-0.2c0.1-0.3,0.3-0.5,0.4-0.7
	c0.2-0.2,0.4-0.4,0.7-0.6c0.2-0.2,0.5-0.3,0.7-0.4c0,0,0.1,0,0.1,0C132.7,47.5,132.9,47.5,133,47.5L133,47.5z M130.8,50.7
	C130.9,50.7,130.9,50.7,130.8,50.7C130.9,50.7,130.9,50.7,130.8,50.7L130.8,50.7z M131.3,50.8c0,0-0.1,0-0.1,0c0,0,0,0,0,0
	C131.2,50.8,131.2,50.8,131.3,50.8L131.3,50.8z M131.1,50.8C131.1,50.8,131.1,50.8,131.1,50.8C131.1,50.8,131.1,50.8,131.1,50.8
	C131.1,50.8,131.1,50.8,131.1,50.8L131.1,50.8z M131.1,50.9C131.2,50.9,131.2,50.9,131.1,50.9C131.2,50.9,131.2,50.9,131.1,50.9
	L131.1,50.9z M131.1,50.9C131.1,50.9,131.1,50.9,131.1,50.9C131.1,50.9,131.1,50.9,131.1,50.9L131.1,50.9z M132.4,63.5
	c0,0-0.1,0.1-0.1,0.1C132.3,63.6,132.4,63.6,132.4,63.5L132.4,63.5z"/>
<path class="st0" d="M145.7,45.2c-0.4,0-0.7,0.1-1.1,0.2c-1.3,0.4-2.3,1.5-2.9,2.7c-0.2,0.1-0.5,0.4-0.6,0.6
	c-0.2,0.3-0.3,0.8-0.2,1.2c0.1,0.3,0.2,0.5,0.4,0.7c0.1,0.5,0.2,1.1,0.5,1.6c0.6,1.3,1.9,2.3,3.1,3c0.9,0.5,1.8,0.8,2.8,1.2
	c0.5,0.2,1.1,0.4,1.6,0.5c0.8,0.2,1.6-0.3,1.8-1c0.2-0.8-0.3-1.6-1-1.8c-0.7-0.2-1.5-0.5-2.2-0.8c-0.9-0.4-1.7-0.8-2.5-1.3
	c-0.3-0.2-0.5-0.5-0.8-0.8c-0.1-0.2-0.2-0.3-0.3-0.5c0,0,0,0,0,0c0.7-0.2,1.5-0.3,2.2-0.6c0.4-0.1,0.7-0.3,1.1-0.6
	c0.3-0.2,0.5-0.5,0.7-0.7c0.2-0.3,0.3-0.7,0.3-1.1c0-0.4-0.1-0.8-0.4-1.1c-0.2-0.3-0.4-0.5-0.7-0.7c-0.3-0.2-0.6-0.3-0.9-0.5
	c-0.2-0.1-0.4-0.1-0.6-0.1C146.1,45.3,145.9,45.2,145.7,45.2C145.8,45.2,145.8,45.2,145.7,45.2L145.7,45.2z M147.9,53
	c0,0,0.1,0,0.1,0.1C148,53.1,147.9,53.1,147.9,53L147.9,53z"/>
<path class="st0" d="M166.9,42.7c-0.8,0-1.7,0.1-2.5,0.2c-0.8,0.1-1.5,0.1-2.3,0.3c-0.9,0.1-1.7,0.4-2.5,0.8
	c-1.4,0.6-2.8,1.4-3.9,2.6c-0.1,0-0.1,0-0.2,0c-1,0-1.7,0.8-1.8,1.8c0,0.4,0,0.9,0,1.3c0,0,0,0,0,0c0,0,0,0,0,0
	c-0.3,0.9-0.4,2,0.1,2.7c0.2,0.3,0.4,0.5,0.6,0.6c0.4,0.2,0.9,0.3,1.3,0.2c0.3-0.1,0.6-0.2,0.8-0.4c0.4-0.4,0.5-0.8,0.5-1.2
	c0-0.4,0.1-0.9,0.1-1.3c0.1-0.3,0.3-0.5,0.5-0.8c0.3-0.4,0.7-0.7,1.1-1c0.8-0.5,1.6-1,2.4-1.4c0.7-0.3,1.4-0.4,2.2-0.5
	c1.2-0.1,2.3-0.3,3.5-0.3c0.9,0,1.7-0.7,1.7-1.7C168.6,43.5,167.8,42.7,166.9,42.7C166.9,42.7,166.9,42.7,166.9,42.7L166.9,42.7z"/>
<path class="st0" d="M180.8,52c-1.1,1.7-2.2,3.5-3.2,5.3c-0.3,0.6-0.1,1.3,0.4,1.7c0.3,0.2,0.6,0.2,0.9,0.1c0.3-0.1,0.5-0.3,0.7-0.6
	c1.2-1.6,2.3-3.4,3.4-5.2c0.4-0.6,0.1-1.5-0.5-1.8c-0.2-0.1-0.4-0.2-0.7-0.2C181.5,51.3,181,51.6,180.8,52L180.8,52z"/>
<path class="st0" d="M197.4,43.1c-0.5,0.2-0.9,0.5-1.3,0.9c-0.4,0.4-0.8,0.7-1.1,1.1c-0.1,0.1-0.3,0.3-0.4,0.4
	c-0.2-0.1-0.5-0.2-0.7-0.2c-0.4,0-0.7,0.1-1,0.4c-0.3,0.3-0.4,0.6-0.4,1c0,0.6-0.1,1.2-0.1,1.9c0,0.5,0,0.9-0.1,1.4
	c-0.1,0.4-0.1,0.8-0.1,1.2c0,0.6,0.4,1.1,0.9,1.2c0.7,0.2,1.4-0.2,1.6-0.9c0.1-0.3,0.1-0.5,0.2-0.8c0.1-0.4,0.1-0.8,0.1-1.2
	c0.1-0.2,0.1-0.3,0.2-0.5c0.3-0.7,0.7-1.3,1.1-1.9c0.5-0.6,1.1-1.2,1.7-1.7c0.2-0.1,0.3-0.2,0.5-0.3c0.1,0,0.1,0,0.2,0
	c0.1,0,0.2,0.1,0.2,0.1c0.2,0.2,0.3,0.3,0.5,0.5c0.2,0.3,0.3,0.6,0.5,0.9c0.2,0.5,0.4,1,0.5,1.5c0.1,0.5,0.2,1,0.3,1.6
	c0,0.4,0.1,0.7,0.1,1.1c0,0.2,0,0.4,0.1,0.6c0,0.4,0.1,0.8,0.2,1.2c0.1,0.2,0.2,0.4,0.3,0.6c0.2,0.2,0.6,0.4,0.9,0.4
	c0.3,0,0.7-0.1,0.9-0.4c0.2-0.2,0.4-0.6,0.4-0.9c-0.1-0.6-0.1-1.2-0.2-1.8c-0.1-0.4-0.1-0.8-0.2-1.2c-0.2-1-0.5-2.1-0.9-3.1
	c-0.2-0.5-0.4-0.9-0.6-1.3c-0.3-0.5-0.7-0.9-1.1-1.3c-0.4-0.3-0.8-0.6-1.4-0.7c-0.1,0-0.3,0-0.4,0C198.3,42.8,197.8,43,197.4,43.1
	L197.4,43.1z M198.7,45.2c0,0,0.1,0,0.1,0C198.8,45.2,198.8,45.2,198.7,45.2L198.7,45.2z"/>
<path class="st0" d="M210.5,43.1c-1.2,0.3-2.2,1.2-2.9,2.2c-0.2,0.3-0.4,0.6-0.6,1c-0.3,0.1-0.7,0.1-1,0.2c-0.3,0-0.6,0.3-0.7,0.6
	c-0.2,0.3-0.2,0.6-0.1,0.9c0.1,0.3,0.3,0.6,0.6,0.7c0.2,0.1,0.5,0.2,0.8,0.1c0,0,0,0.1,0,0.1c0.1,0.6,0.3,1.2,0.6,1.7
	c0.1,0.2,0.3,0.4,0.4,0.7c0.2,0.3,0.5,0.6,0.8,0.8c1,0.8,2.2,1.2,3.4,1.5c0.6,0.1,1.3,0.3,1.9,0.4c0.4,0.1,0.7,0.1,1-0.1
	c0.3-0.2,0.5-0.4,0.6-0.8c0.2-0.6-0.2-1.4-0.9-1.6c-0.5-0.1-1-0.2-1.5-0.3c-0.6-0.2-1.2-0.3-1.7-0.5c-0.3-0.2-0.6-0.3-0.9-0.5
	c-0.2-0.1-0.3-0.3-0.4-0.4c-0.2-0.2-0.3-0.5-0.4-0.8c-0.1-0.2-0.1-0.4-0.2-0.6c0,0,0,0,0,0c0.4-0.1,0.7-0.2,1.1-0.3
	c1.3-0.4,2.5-1.2,2.8-2.6c0.1-0.6,0-1.4-0.4-1.9c-0.4-0.4-0.9-0.6-1.5-0.6C210.8,43.1,210.6,43.1,210.5,43.1L210.5,43.1z
	 M211.1,45.5C211.1,45.5,211.1,45.5,211.1,45.5C211.1,45.5,211.1,45.5,211.1,45.5L211.1,45.5z"/>
<path class="st0" d="M223.8,43.2c-1.6,1.6-3.3,3.1-4.9,4.7c-0.4,0.4-0.8,0.8-1.3,1.2c-0.4,0.3-0.7,0.7-1.1,1
	c-0.4,0.4-0.7,0.7-1.1,1.1c-0.1,0.1-0.2,0.1-0.3,0.2c-0.6,0.4-0.9,1.1-0.7,1.8c0.2,0.8,1.1,1.4,2,1.1c0.2,0,0.3-0.1,0.5-0.2
	c0.3-0.1,0.6-0.3,0.9-0.5c0.4-0.3,0.7-0.6,1-0.9c0.3-0.3,0.7-0.6,1-0.9c0.5-0.5,1-0.9,1.5-1.4c1.7-1.6,3.4-3.2,5.1-4.8
	c0.7-0.7,0.7-1.8,0-2.5c-0.3-0.3-0.8-0.5-1.2-0.5C224.6,42.7,224.1,42.9,223.8,43.2L223.8,43.2z"/>
<path class="st0" d="M216.6,44.4c-0.6,0.6-0.6,1.5,0,2.2c1.1,1.2,2.1,2.4,3.2,3.5c0.5,0.5,1,1,1.5,1.5c0.6,0.6,1.3,1.2,2,1.7
	c0.5,0.4,1.3,0.2,1.7-0.2c0.5-0.5,0.5-1.4,0-1.9c-1.1-1-2-2.1-3-3.2c-1.1-1.2-2.1-2.4-3.2-3.5c-0.3-0.3-0.7-0.4-1-0.4
	C217.3,44,216.9,44.1,216.6,44.4L216.6,44.4z"/>
<path class="st0" d="M231.4,36.4c-0.4,0.4-0.5,0.8-0.5,1.2c-0.3,3-0.7,6-1,9c-0.2,2.5-0.5,5-0.6,7.5c0,0.9,0.7,1.6,1.6,1.6
	c0.4,0,0.8-0.2,1.1-0.5c0.3-0.3,0.4-0.7,0.5-1.1c0-0.2,0-0.3,0.1-0.5c0.7-5.3,1.2-10.7,1.8-16.1c0-0.4-0.2-0.9-0.5-1.2
	c-0.3-0.3-0.8-0.5-1.2-0.5C232.1,35.9,231.7,36.1,231.4,36.4L231.4,36.4z"/>
<path class="st0" d="M237.3,41.1c-3.2,0.9-6.3,1.8-9.4,2.7c-0.8,0.2-1.3,1-1,1.8c0.2,0.8,1.1,1.3,1.8,1c3.1-0.9,6.3-1.9,9.4-3
	c0.3-0.1,0.6-0.3,0.8-0.6c0.2-0.3,0.2-0.7,0.1-1.1c-0.2-0.6-0.7-1-1.3-1C237.5,41.1,237.4,41.1,237.3,41.1L237.3,41.1z"/>
<path class="st0" d="M260.9,42.7c-0.4,0.1-0.9,0.1-1.3,0.2c-0.2,0.1-0.5,0.2-0.7,0.3c-0.2,0.1-0.3,0.2-0.5,0.3
	c-0.3,0.2-0.6,0.5-0.7,0.8c-0.1,0.3-0.2,0.5-0.2,0.8c0,0.2,0,0.5,0,0.7c0.2,0.8,0.8,1.5,1.4,2.1c0.3,0.4,0.7,0.7,1.1,1.1
	c0.4,0.4,0.8,0.8,1.1,1.2c0.1,0.2,0.2,0.3,0.3,0.5c0,0,0,0.1,0,0.1c0,0.1,0,0.1,0,0.2c0,0.1-0.1,0.2-0.1,0.4
	c-0.1,0.1-0.1,0.2-0.2,0.4c-0.1,0.2-0.3,0.3-0.5,0.5c-0.3,0.2-0.7,0.4-1,0.6c-0.3,0.1-0.6,0.2-0.9,0.3c0.2-0.4,0.5-0.7,0.7-1.1
	c0.4-0.5,0.2-1.3-0.2-1.7c-0.3-0.3-0.6-0.4-1-0.4c-0.3,0-0.8,0.1-1,0.4c-0.4,0.5-0.7,1-1.1,1.5c-0.1,0.2-0.2,0.4-0.4,0.6
	c-0.2,0.3-0.3,0.6-0.4,0.9c-0.1,0.2-0.1,0.5-0.2,0.8c0,0.4,0,0.8,0.2,1.1c0.1,0.2,0.3,0.4,0.4,0.5c0.2,0.2,0.6,0.5,0.9,0.5
	c0.6,0.1,1.3,0.1,1.9,0c0.6-0.1,1.1-0.3,1.6-0.5c0.6-0.2,1.2-0.6,1.8-0.9c0.5-0.3,0.9-0.8,1.3-1.3c0.3-0.4,0.5-0.9,0.7-1.4
	c0.1-0.2,0.1-0.5,0.1-0.8c0-0.3,0-0.7-0.1-1c0-0.3-0.2-0.6-0.4-0.9c-0.1-0.3-0.4-0.6-0.6-0.8c-0.5-0.6-1-1.1-1.5-1.6
	c-0.6-0.5-1.1-1-1.6-1.6c0.1,0,0.1-0.1,0.2-0.1c0.3-0.1,0.7-0.2,1-0.2c0.4-0.1,0.8-0.2,1.2-0.3c0.6-0.1,1.1-0.1,1.7,0
	c0.2,0,0.4,0.1,0.6,0.2c0.4,0.2,0.7,0.4,1,0.6c0.3,0.2,0.5,0.4,0.8,0.6c0.4,0.4,1.1,0.4,1.6,0c0.4-0.4,0.4-1.2,0-1.6
	c-0.6-0.6-1.3-1.1-2-1.5c-0.4-0.2-0.8-0.4-1.3-0.5c-0.5-0.1-1-0.2-1.5-0.2c-0.1,0-0.1,0-0.2,0C262.5,42.4,261.7,42.6,260.9,42.7
	L260.9,42.7z M260.1,44.9c0,0.1,0,0.1,0,0.2C260,45.1,260,45,260.1,44.9L260.1,44.9z M260,45c0,0.1,0,0.1,0,0.2
	C260,45.1,260,45,260,45L260,45z M260.2,45.4C260.2,45.5,260.2,45.5,260.2,45.4C260.2,45.5,260.2,45.5,260.2,45.4L260.2,45.4z"/>
<path class="st0" d="M273.5,42.2c-0.3,0.1-0.6,0.4-0.9,0.6c-0.3,0.3-0.6,0.6-0.9,0.9c-0.3,0.4-0.6,0.7-0.9,1.1
	c-0.1-0.1-0.2-0.3-0.3-0.4c-0.3-0.3-0.7-0.5-1.1-0.5c-0.4,0-0.8,0.2-1.1,0.5c-0.3,0.3-0.5,0.7-0.5,1.1c0.1,1,0.3,2,0.3,3
	c0,0.5,0.1,0.9,0.3,1.3c0.4,0.7,1.1,0.9,1.9,0.8c0.3-0.1,0.5-0.2,0.8-0.4c0.2-0.1,0.3-0.3,0.5-0.5c0.2-0.2,0.2-0.5,0.3-0.7
	c0-0.1,0.1-0.2,0.1-0.4c0.4-0.8,0.9-1.6,1.5-2.3c0.4-0.5,0.8-1,1.2-1.4c0,0,0.1-0.1,0.1-0.1c0,0,0,0,0,0c0.1,0.2,0.2,0.4,0.4,0.7
	c0.1,0.3,0.2,0.7,0.3,1.1c0.1,0.4,0.2,0.8,0.3,1.3c-0.1,0.3-0.2,0.5-0.2,0.8c-0.1,0.5,0,1.1,0.4,1.5c0.5,0.5,1.2,0.6,1.9,0.2
	c0.3-0.1,0.5-0.4,0.7-0.6c0.2-0.3,0.3-0.7,0.3-1.1c0.2-0.5,0.5-0.9,0.8-1.4c0.3-0.3,0.6-0.7,0.9-1c0.3-0.3,0.6-0.6,0.9-0.9
	c0,0,0,0,0,0c0,0,0,0,0.1,0.1c0.1,0.2,0.2,0.3,0.3,0.5c0.2,0.6,0.4,1.3,0.5,1.9c0,0.2,0.1,0.4,0.1,0.7c0,0.3,0.1,0.6,0.1,0.9
	c0-0.1,0-0.3-0.1-0.4c0.1,0.5,0.1,1,0.3,1.4c0.2,0.6,0.7,1,1.4,1c0.4,0,0.7-0.1,1-0.4c0.2-0.2,0.5-0.6,0.4-1
	c-0.1-0.5-0.1-1.1-0.1-1.6c0-0.4-0.1-0.8-0.2-1.3c-0.1-0.7-0.3-1.4-0.5-2.1c-0.3-0.8-0.7-1.5-1.3-2.1c-0.8-0.7-1.8-0.9-2.8-0.5
	c-0.9,0.3-1.6,1-2.2,1.6c-0.1,0.1-0.3,0.3-0.4,0.4c-0.1-0.3-0.3-0.6-0.4-0.9c-0.4-0.7-1-1.3-1.7-1.5c-0.3-0.1-0.6-0.2-1-0.2
	c-0.1,0-0.1,0-0.2,0C274.3,41.9,273.9,42.1,273.5,42.2L273.5,42.2z M274.7,44.7C274.7,44.7,274.8,44.8,274.7,44.7
	C274.8,44.8,274.7,44.7,274.7,44.7L274.7,44.7z M274.9,44.8c0,0,0.1,0,0.1,0C275,44.8,275,44.8,274.9,44.8
	C274.9,44.8,274.9,44.8,274.9,44.8L274.9,44.8z M275,44.9C275,45,275,45,275,44.9C275,45,275,45,275,44.9L275,44.9z M281.2,45.1
	c0.1,0,0.1,0,0.2,0.1C281.3,45.2,281.3,45.1,281.2,45.1L281.2,45.1z M281.9,45.2c-0.1,0-0.1,0-0.2,0
	C281.7,45.2,281.8,45.2,281.9,45.2L281.9,45.2z M281.5,45.3C281.5,45.3,281.5,45.3,281.5,45.3c0,0-0.1,0-0.1,0.1
	C281.4,45.3,281.5,45.3,281.5,45.3L281.5,45.3z M281.4,45.4C281.3,45.5,281.3,45.5,281.4,45.4C281.3,45.5,281.3,45.5,281.4,45.4
	L281.4,45.4z M282.3,47.4c0,0,0,0.1,0,0.1C282.3,47.5,282.3,47.5,282.3,47.4L282.3,47.4z"/>
<path class="st0" d="M293.8,42.9c-0.6,0-1.1,0.2-1.6,0.4c-0.8,0.4-1.5,1-2.1,1.7c-0.4,0.4-0.6,0.9-0.9,1.4c-0.2,0.5-0.3,1-0.2,1.5
	c0.1,1,0.5,2,1.4,2.6c1,0.7,2.3,0.5,3.3,0c0.9-0.4,1.6-1,2.3-1.7c0.4,0.8,0.8,1.7,1.3,2.4c0.4,0.7,1.3,0.9,2,0.5
	c0.7-0.4,0.9-1.3,0.5-2c-0.5-0.9-1-1.8-1.5-2.7c-0.2-0.5-0.4-1-0.8-1.3c0,0,0,0,0,0c0-0.3,0-0.6-0.2-0.9c-0.2-0.3-0.4-0.7-0.6-1
	c-0.4-0.4-0.8-0.6-1.4-0.8c-0.2-0.1-0.6-0.1-0.8-0.1c-0.1,0-0.2,0-0.3,0C294.1,42.9,294,42.9,293.8,42.9L293.8,42.9z M294.5,45.7
	C294.5,45.7,294.5,45.7,294.5,45.7C294.5,45.7,294.5,45.7,294.5,45.7L294.5,45.7z M294.4,45.7c0.1,0,0.2,0,0.3,0.1
	c0,0.1,0.1,0.2,0.1,0.2c-0.4,0.3-0.7,0.6-1.1,0.9c-0.4,0.3-0.9,0.6-1.3,0.9c-0.1,0-0.2,0.1-0.3,0.1c0-0.1,0-0.1-0.1-0.2
	c0-0.1,0-0.2,0-0.2c0,0,0-0.1,0-0.1c0.1-0.2,0.2-0.4,0.3-0.6c0.2-0.3,0.5-0.5,0.7-0.7c0.2-0.1,0.3-0.2,0.5-0.3
	c0.1,0,0.3-0.1,0.4-0.1C294.2,45.7,294.3,45.7,294.4,45.7L294.4,45.7z M292.2,48c0,0,0.1,0,0.1,0C292.3,48.1,292.3,48.1,292.2,48
	L292.2,48z M292.2,48.1C292.3,48.2,292.3,48.2,292.2,48.1C292.3,48.2,292.3,48.2,292.2,48.1L292.2,48.1z"/>
<path class="st0" d="M303.9,39.7c-0.3,0.3-0.4,0.6-0.4,1c-0.2,2.8-0.4,5.7-0.7,8.5c-0.1,0.8-0.1,1.5-0.2,2.3c0,0.6-0.1,1.2-0.1,1.9
	c0,0.2,0,0.5,0,0.7c0,0.3,0,0.7,0,1c0,0.4,0.1,0.8,0.2,1.2c0.2,0.6,0.7,1,1.3,1c0.4,0,0.7-0.1,0.9-0.4c0.2-0.2,0.4-0.6,0.4-0.9
	c-0.1-0.6-0.1-1.3,0-1.9c0-0.2,0-0.5,0.1-0.7c0.1-0.6,0.1-1.2,0.2-1.9c0.1-0.8,0.1-1.5,0.2-2.3c0.2-2.8,0.5-5.7,0.7-8.5
	c0.1-0.8-0.7-1.5-1.5-1.5C304.6,39.3,304.2,39.5,303.9,39.7L303.9,39.7z"/>
<path class="st0" d="M309.1,39.3c-0.3,0.3-0.5,0.8-0.5,1.2c-0.2,2.8-0.4,5.5-0.5,8.3c-0.1,1.1-0.1,2.3-0.2,3.4c0,0.5,0,1.1-0.1,1.6
	c0,0.2,0,0.4,0,0.6c0,0.8,0.1,1.6,0.2,2.4c0.1,0.7,0.9,1.2,1.5,1.2c0.9,0,1.6-0.7,1.6-1.6c0-1.4,0.1-2.8,0.2-4.1
	c0.1-1.1,0.2-2.3,0.2-3.4c0.2-2.8,0.4-5.5,0.5-8.3c0.1-1-0.8-1.8-1.8-1.8C309.9,38.8,309.4,39,309.1,39.3L309.1,39.3z"/>
<path class="st0" d="M318.6,43.5c-0.3,0.1-0.6,0.3-0.9,0.4c-0.4,0.2-0.7,0.5-1,0.7c-0.3,0.2-0.5,0.5-0.7,0.8c-0.3,0.3-0.5,0.6-0.7,1
	c-0.2,0.3-0.3,0.7-0.4,1.1c-0.1,0-0.3,0.1-0.4,0.1c-0.7,0.2-1.1,0.9-0.9,1.6c0.2,0.7,0.9,1.1,1.6,0.9c0.1,0.4,0.3,0.7,0.5,1.1
	c0.4,0.7,1,1.1,1.6,1.6c0.7,0.5,1.6,0.7,2.4,0.8c0.3,0,0.6,0.1,0.9,0.1c0.4,0,0.8,0,1.2,0c0.4,0,0.8,0,1.1-0.1
	c0.8,0,1.5-0.1,2.3-0.3c0.6-0.1,1-0.8,1-1.3c0-0.4-0.1-0.7-0.4-1c-0.2-0.2-0.6-0.4-1-0.4c-0.6,0.1-1.3,0.1-1.9,0.1c-1,0-2,0-3-0.1
	c-0.3-0.1-0.6-0.1-0.9-0.2c-0.2-0.1-0.4-0.2-0.6-0.3c-0.2-0.1-0.3-0.3-0.4-0.4c-0.1-0.1-0.2-0.3-0.3-0.4c0.5-0.2,1-0.4,1.5-0.6
	c0.6-0.3,1.2-0.6,1.7-1.1c0.6-0.5,1-1.3,0.9-2c0-0.4-0.1-0.7-0.3-1c-0.2-0.4-0.5-0.6-0.8-0.9c-0.2-0.1-0.3-0.1-0.5-0.2
	c-0.2-0.1-0.5-0.1-0.7-0.1c-0.1,0-0.2,0-0.2,0C319.2,43.4,318.9,43.5,318.6,43.5L318.6,43.5z M319.6,45.5c0,0,0,0.1-0.1,0.1
	c0,0,0,0,0,0C319.5,45.6,319.5,45.6,319.6,45.5L319.6,45.5z M319.4,45.6C319.5,45.6,319.5,45.7,319.4,45.6
	C319.5,45.7,319.5,45.7,319.4,45.6C319.5,45.7,319.5,45.6,319.4,45.6L319.4,45.6z M319.4,45.8C319.4,45.8,319.4,45.8,319.4,45.8
	C319.4,45.8,319.4,45.8,319.4,45.8C319.4,45.8,319.4,45.8,319.4,45.8C319.4,45.8,319.4,45.8,319.4,45.8L319.4,45.8z M319.4,45.8
	C319.4,45.8,319.4,45.8,319.4,45.8C319.4,45.8,319.4,45.8,319.4,45.8C319.4,45.8,319.4,45.8,319.4,45.8
	C319.4,45.8,319.4,45.8,319.4,45.8L319.4,45.8z M319.5,45.9C319.5,45.9,319.5,45.9,319.5,45.9C319.5,45.9,319.5,45.9,319.5,45.9
	C319.5,45.9,319.5,45.9,319.5,45.9C319.5,45.9,319.5,45.9,319.5,45.9L319.5,45.9z M319.4,45.9C319.4,45.9,319.4,45.9,319.4,45.9
	C319.4,45.9,319.4,45.9,319.4,45.9C319.4,45.9,319.4,45.9,319.4,45.9C319.4,45.9,319.4,45.9,319.4,45.9L319.4,45.9z M319.6,46
	C319.6,46.1,319.7,46.1,319.6,46C319.7,46.1,319.6,46.1,319.6,46L319.6,46z M318.4,50C318.4,50,318.4,50.1,318.4,50
	C318.4,50.1,318.4,50,318.4,50L318.4,50z"/>
<path class="st0" d="M332.5,42.1c-0.9,0.2-1.7,0.6-2.6,1c-0.4,0.2-0.9,0.5-1.2,0.8c-0.2-0.1-0.4-0.2-0.7-0.2c-0.9,0-1.8,0.8-1.7,1.7
	c0,0.7,0.1,1.4,0.1,2.1c-0.1,0.5-0.2,1-0.2,1.4c0,0.5,0.1,1,0.2,1.5c0.1,0.4,0.4,0.8,0.8,1c0.5,0.3,1.2,0.3,1.7,0
	c0.3-0.2,0.6-0.4,0.8-0.7c0.3-0.5,0.3-1.1,0.3-1.6c0-0.4,0-0.8,0-1.2c0-0.2,0-0.3,0-0.5c0.1-0.2,0.2-0.3,0.3-0.5
	c0.2-0.2,0.4-0.4,0.6-0.6c0.4-0.3,0.8-0.5,1.2-0.7c0.7-0.3,1.5-0.6,2.3-0.7c0.4,0,0.9,0,1.3,0c1.1,0.2,2.1,0.5,3.1,0.9
	c0.1,0,0.1,0.1,0.2,0.1c0.4,0.2,0.8,0.3,1.2,0.2c0.4-0.1,0.7-0.4,0.9-0.7c0.2-0.4,0.3-0.8,0.2-1.2c-0.1-0.4-0.4-0.8-0.7-0.9
	c-0.9-0.4-1.7-0.7-2.6-1c-0.7-0.2-1.5-0.4-2.2-0.5c-0.2,0-0.5,0-0.7,0C334.1,41.7,333.3,41.8,332.5,42.1L332.5,42.1z M338.4,45.7
	c0.1,0,0.2,0.1,0.3,0.1C338.5,45.7,338.4,45.7,338.4,45.7L338.4,45.7z"/>
<path class="st0" d="M345.6,50.2c-0.3,0.3-0.4,0.7-0.5,1.1c0,0.3-0.1,0.7-0.1,1c-0.1,0.9,0.8,1.6,1.6,1.6c0.4,0,0.8-0.2,1.1-0.5
	c0.3-0.3,0.4-0.7,0.5-1.1c0-0.3,0.1-0.7,0.1-1c0-0.4-0.2-0.9-0.5-1.1c-0.3-0.3-0.7-0.5-1.1-0.5S345.9,49.9,345.6,50.2L345.6,50.2z"
	/>
<path class="st0" d="M371.5,41.9c-1.7,0-3.2,1.1-4.4,2.2c-0.5,0.5-1,1.1-1.4,1.7c-0.2,0.3-0.3,0.6-0.4,1c-0.1,0.4-0.2,0.9-0.2,1.3
	c0,0.3,0.1,0.7,0.1,1.1c0.1,0.4,0.3,0.8,0.4,1.2c0.2,0.4,0.5,0.8,0.7,1.1c0.3,0.3,0.5,0.6,0.9,0.9c0.6,0.5,1.3,0.9,2,1.2
	c0.4,0.2,0.9,0.4,1.3,0.5c0.5,0.1,1,0.2,1.5,0.2c0.5,0,1,0,1.6-0.1c0.6,0,1.1-0.1,1.7-0.2c0.2-0.1,0.4-0.2,0.6-0.4
	c0.3-0.3,0.4-0.6,0.4-1s-0.1-0.7-0.4-1c-0.2-0.2-0.6-0.4-1-0.4c-0.9,0.1-1.9,0.2-2.8,0.1c-0.4-0.1-0.8-0.2-1.2-0.3
	c-0.6-0.3-1.2-0.6-1.7-1c-0.2-0.2-0.4-0.4-0.6-0.6c-0.1-0.2-0.2-0.4-0.3-0.6c-0.1-0.2-0.1-0.4-0.2-0.5c0.5,0,0.9,0,1.4,0
	c0.8,0,1.6-0.3,2.4-0.6c0.7-0.3,1.3-0.6,1.9-1c0.4-0.3,0.7-0.5,0.9-0.9c0.2-0.4,0.3-0.9,0.3-1.3c0-0.9-0.5-1.6-1.2-2
	C373,42,372.3,41.9,371.5,41.9C371.5,41.9,371.5,41.9,371.5,41.9L371.5,41.9z M371.6,44.7c-0.2,0.1-0.4,0.2-0.6,0.3
	c-0.3,0.1-0.7,0.2-1,0.3c0.3-0.2,0.5-0.3,0.8-0.5c0.2-0.1,0.4-0.1,0.7-0.2C371.4,44.7,371.5,44.7,371.6,44.7L371.6,44.7z M372,44.8
	c0,0,0,0.1,0,0.1C371.9,44.8,372,44.8,372,44.8L372,44.8z M372,44.8c0,0,0,0.1,0,0.1C372,44.8,372,44.8,372,44.8L372,44.8z
	 M372.1,44.8C372.1,44.8,372.1,44.9,372.1,44.8C372.1,44.9,372.1,44.8,372.1,44.8L372.1,44.8z M372.1,44.9
	C372.1,44.9,372.2,45,372.1,44.9C372.2,45,372.1,44.9,372.1,44.9L372.1,44.9z"/>
<path class="st0" d="M382.7,38.9c0,2.6,0,5.2,0,7.8c0,0.6,0,1.1,0,1.7c0,0.7,0,1.4,0.1,2.1c0,0.4,0.1,0.8,0.1,1.2
	c0.1,0.4,0.3,0.7,0.5,1c0.2,0.3,0.4,0.5,0.8,0.8c0.4,0.3,0.8,0.4,1.2,0.4c0.4,0,0.8,0,1.2-0.1c0.4-0.1,0.8-0.2,1.2-0.4
	c0.9-0.4,1.8-0.9,2.7-1.4c0.7-0.4,0.9-1.3,0.5-2c-0.2-0.3-0.5-0.6-0.9-0.7c-0.4-0.1-0.8,0-1.1,0.1c-0.1,0.1-0.2,0.1-0.4,0.2
	c-0.8,0.3-1.5,0.6-2.3,0.8c-0.1-1.7-0.1-3.4-0.1-5.1c0-2.1,0-4.3,0-6.5c0-1-0.8-1.8-1.8-1.8C383.5,37.1,382.7,37.9,382.7,38.9
	L382.7,38.9z M386.1,50.6C386.1,50.6,386.1,50.6,386.1,50.6C386.1,50.6,386.1,50.6,386.1,50.6C386.1,50.6,386.1,50.6,386.1,50.6
	C386.1,50.6,386.1,50.6,386.1,50.6L386.1,50.6z M386.3,50.8C386.3,50.8,386.3,50.8,386.3,50.8C386.3,50.8,386.3,50.8,386.3,50.8
	C386.3,50.8,386.3,50.8,386.3,50.8L386.3,50.8z"/>
<path class="st0" d="M387.6,41.6c-0.5,0.1-1,0.2-1.5,0.4c-0.4,0.1-0.7,0.2-1.1,0.3c-0.4,0.1-0.8,0.3-1.2,0.5
	c-0.4,0.2-0.8,0.3-1.1,0.6c-0.3,0.3-0.5,0.7-0.5,1.2c0,0.3,0.1,0.6,0.3,0.8c0.1,0.1,0.2,0.2,0.3,0.2c0.1,0.1,0.2,0.1,0.4,0.1
	c0,0,0,0,0,0c0.2,0.1,0.5,0.2,0.8,0.1c0.2-0.1,0.5-0.2,0.6-0.4c0.1-0.2,0.2-0.5,0.1-0.7c0,0,0,0,0,0c0.6-0.2,1.2-0.4,1.9-0.6
	c0.5-0.2,1.1-0.3,1.6-0.4c0.5-0.1,0.9-0.7,0.7-1.3c-0.1-0.5-0.6-0.7-1-0.7C387.8,41.5,387.7,41.6,387.6,41.6L387.6,41.6z
	 M384.1,44.9C384.1,44.9,384.1,44.9,384.1,44.9C384.1,44.9,384.1,44.9,384.1,44.9L384.1,44.9z"/>
<path class="st0" d="M400.7,42.1c-1.3,0.7-2.6,1.6-3.6,2.8c-0.3,0.3-0.6,0.7-0.8,1.1c-0.2,0.4-0.4,0.8-0.6,1.2
	c-0.3,0.7-0.5,1.6-0.3,2.4c0.4,1.5,1.7,2.7,3.1,3.5c0.7,0.4,1.4,0.7,2.2,1c0.3,0.1,0.7,0.2,1,0.3c0.5,0.1,0.9,0.2,1.4,0.2
	c0.7,0.1,1.4-0.5,1.5-1.2c0.2-0.8-0.3-1.7-1.1-1.9c-0.3-0.1-0.7-0.2-1-0.3c-0.5-0.2-1.1-0.5-1.6-0.8c-0.5-0.3-0.9-0.5-1.4-0.8
	c-0.2-0.2-0.4-0.4-0.6-0.6c0-0.1-0.1-0.1-0.1-0.2c0-0.1,0.1-0.3,0.1-0.4c0.2-0.3,0.3-0.6,0.5-0.9c0.4-0.5,0.8-0.9,1.3-1.3
	c0.5-0.4,1.1-0.7,1.7-1c0.8-0.4,1.1-1.6,0.6-2.4c-0.3-0.6-0.9-0.9-1.5-0.9C401.3,41.9,401,41.9,400.7,42.1L400.7,42.1z M399.2,48
	C399.1,48,399.1,48.1,399.2,48C399.1,48.1,399.1,48,399.2,48L399.2,48z M398.9,48.9C398.9,49,398.9,49,398.9,48.9
	C398.9,49,398.9,49,398.9,48.9L398.9,48.9z"/>
<path class="st0" d="M344.7,51.9c-0.6,2.2-1.2,4.4-1.7,6.7c-0.2,0.9,0.3,1.8,1.2,2.1c0.9,0.2,1.8-0.3,2.1-1.2
	c0.7-2.2,1.3-4.4,1.8-6.6c0.2-0.9-0.3-1.9-1.2-2.1c-0.1,0-0.3-0.1-0.5-0.1C345.6,50.6,344.9,51.1,344.7,51.9L344.7,51.9z"/>
<path class="st0" d="M409.5,54c0,1,0.8,1.8,1.8,1.8S413,55,413,54c0-1-0.8-1.8-1.8-1.8S409.5,53.1,409.5,54L409.5,54z"/>
<path class="st0" d="M24.5,71.8c0,0.5,0.4,0.9,0.9,0.9c0.5,0,0.9-0.4,0.9-0.9c0-0.5-0.4-0.9-0.9-0.9C24.9,71,24.5,71.4,24.5,71.8
	L24.5,71.8z"/>
<path class="st0" d="M23.8,78.4c0,1.3,0,2.7,0,4c0,0.6,0,1.2,0,1.8c0,0.8,0.1,1.5,0.2,2.3c0.1,0.3,0.2,0.5,0.4,0.7
	c0.3,0.3,0.7,0.4,1.1,0.4c0.8,0,1.5-0.7,1.5-1.5c-0.1-2.6,0-5.2,0-7.8c0-0.8-0.7-1.6-1.6-1.6S23.8,77.5,23.8,78.4L23.8,78.4z"/>
<path class="st0" d="M36,76.6c-0.2,0.1-0.5,0.1-0.7,0.2c-0.3,0.1-0.5,0.2-0.8,0.4c-0.3,0.2-0.6,0.5-0.9,0.7
	c-0.1,0.1-0.2,0.2-0.2,0.2c-0.2-0.2-0.5-0.3-0.7-0.4c-0.4-0.1-0.9-0.1-1.3,0.2c-0.3,0.2-0.7,0.6-0.8,1c-0.2,1-0.4,2-0.5,3
	c-0.1,0.4-0.1,0.8-0.2,1.1c-0.1,0.5-0.3,0.9-0.2,1.4c0,0.3,0.1,0.6,0.2,0.9c0.1,0.3,0.4,0.5,0.6,0.6c0.4,0.2,0.9,0.3,1.3,0.2
	c0.3-0.1,0.5-0.2,0.7-0.4c0.2-0.2,0.3-0.5,0.4-0.7c0.1-0.3,0.2-0.5,0.3-0.8c0.5-1.1,1.1-2.1,1.8-3c0.4-0.5,0.8-1,1.3-1.4
	c0.1,0,0.1-0.1,0.2-0.1c0.1,0,0.2-0.1,0.3-0.1c0,0,0,0,0,0c0.2,0,0.3,0.1,0.5,0.1c0.2,0.1,0.4,0.2,0.6,0.4c0.4,0.3,0.7,0.6,1,1
	c0.6,0.8,1,1.7,1.5,2.6c0.4,1.1,0.9,2.2,1.3,3.3c0.1,0.4,0.3,0.7,0.7,0.9c0.3,0.2,0.8,0.3,1.2,0.2c0.7-0.2,1.3-1.1,1.1-1.9
	c-0.3-1-0.7-1.9-1.1-2.8c-0.3-0.8-0.7-1.6-1.1-2.3c-0.6-1.1-1.3-2.1-2.2-2.9c-0.4-0.4-0.9-0.7-1.3-1c-0.3-0.2-0.6-0.3-0.9-0.4
	c-0.4-0.2-0.8-0.2-1.2-0.2c0,0-0.1,0-0.2,0C36.5,76.5,36.2,76.5,36,76.6L36,76.6z M37,79.5c0,0,0.1,0,0.1,0
	C37.1,79.6,37.1,79.5,37,79.5L37,79.5z M33.1,84.3c0,0.1,0,0.1,0,0.2C33.1,84.4,33.1,84.3,33.1,84.3L33.1,84.3z"/>
<path class="st0" d="M79.2,72.1c-0.2,0-0.5,0.1-0.7,0.1c-0.4,0.1-0.9,0.3-1.3,0.5c-0.4,0.2-0.7,0.4-1.1,0.6c-0.8,0.5-1.5,1.2-2.2,2
	c-1.2,1.5-2.3,3.2-2.8,5.1c-0.5,1.9-0.2,4.1,0.8,5.8c0.2,0.4,0.5,0.8,0.8,1.2c0.3,0.3,0.6,0.7,0.9,0.9c0.8,0.8,1.8,1.3,2.8,1.7
	c0.5,0.2,1,0.3,1.5,0.3c0.5,0.1,0.9,0.1,1.4,0.1c1,0,2.1-0.2,3-0.6c0.5-0.2,0.9-0.4,1.3-0.7c0.4-0.3,0.8-0.6,1.2-1
	c0.7-0.7,1.3-1.6,1.7-2.5c0.4-0.9,0.7-1.8,0.8-2.7c0.1-0.5,0.1-1,0.1-1.5c0-0.6-0.1-1.2-0.2-1.8c-0.3-1.8-1.3-3.4-2.5-4.7
	c-0.6-0.6-1.2-1.1-1.8-1.6c-0.4-0.3-0.8-0.6-1.2-0.9c-0.3-0.2-0.7-0.4-1.1-0.6c-0.2-0.1-0.4-0.2-0.7-0.2
	C79.9,71.6,79.5,71.8,79.2,72.1L79.2,72.1z M79.4,74.6c0.2,0.2,0.3,0.3,0.4,0.5c0.2,0.3,0.3,0.5,0.4,0.8c0,0,0,0,0-0.1
	c0.1,0.2,0.1,0.3,0.2,0.5c0-0.1-0.1-0.2-0.1-0.3c0.1,0.2,0.1,0.3,0.2,0.5c0.2,0.6,0.8,1,1.5,0.8c0.3-0.1,0.6-0.3,0.8-0.6
	c0.2,0.2,0.3,0.4,0.5,0.6c0.4,0.5,0.7,1.1,1,1.7c0.2,0.5,0.3,0.9,0.4,1.4c0.1,0.6,0.1,1.2,0,1.8c-0.1,0.7-0.3,1.3-0.5,2
	c-0.2,0.5-0.5,1-0.8,1.4c-0.3,0.4-0.6,0.7-1,1c-0.3,0.2-0.5,0.3-0.8,0.5c-0.5,0.2-1,0.3-1.5,0.4c-0.6,0.1-1.2,0.1-1.8,0
	c-0.4-0.1-0.8-0.2-1.2-0.3c-0.4-0.2-0.8-0.4-1.2-0.7c-0.4-0.3-0.7-0.7-1-1c-0.2-0.3-0.5-0.7-0.6-1.1c-0.2-0.5-0.3-1-0.4-1.5
	c0-0.5,0-0.9,0-1.4c0.1-0.6,0.3-1.1,0.5-1.7c0.4-0.9,0.9-1.8,1.5-2.6c0.4-0.5,0.9-1.1,1.5-1.5c0.5-0.3,1-0.7,1.5-0.9
	c0.2-0.1,0.4-0.1,0.6-0.2C79.4,74.6,79.4,74.6,79.4,74.6L79.4,74.6z M79.5,74.6C79.5,74.6,79.6,74.7,79.5,74.6
	C79.6,74.7,79.5,74.6,79.5,74.6L79.5,74.6z"/>
<path class="st0" d="M106.4,71.6c-0.4,0-0.8,0.1-1.2,0.2c-0.4,0.1-0.7,0.3-1,0.5c-1.3,0.9-2.3,2.2-3.1,3.5c-1.8,2.7-3,6-2.2,9.3
	c0.3,1.5,1.4,2.8,2.7,3.8c0.3,0.3,0.7,0.5,1.1,0.7c0.4,0.2,0.8,0.4,1.2,0.6c0.8,0.3,1.6,0.5,2.5,0.6c1.2,0.2,2.5,0.3,3.7,0.3
	c0.7,0,1.5,0.1,2.2,0.1c0.6,0,1.2-0.5,1.2-1.2c0-0.7-0.5-1.2-1.2-1.2c-1.5,0-3.1-0.2-4.6-0.4c-0.5-0.1-1-0.2-1.5-0.3
	c-0.6-0.1-1.1-0.3-1.7-0.5c-0.5-0.2-1-0.5-1.4-0.8c-0.4-0.4-0.9-0.8-1.2-1.2c-0.2-0.2-0.3-0.5-0.4-0.7c-0.1-0.4-0.2-0.8-0.3-1.2
	c-0.1-0.6-0.1-1.3,0-1.9c0.1-0.9,0.4-1.8,0.8-2.7c0.6-1.3,1.3-2.5,2.2-3.7c0.4-0.5,0.8-1,1.3-1.4c0.2-0.1,0.4-0.3,0.6-0.4
	c0.1,0,0.3-0.1,0.4-0.1c0.4,0,0.8,0,1.2,0c0.1,0,0.2,0,0.3,0.1c0.6,0.2,1.2-0.2,1.4-0.8c0.2-0.6-0.2-1.2-0.8-1.4
	c-0.5-0.1-0.9-0.2-1.4-0.2C106.9,71.6,106.6,71.6,106.4,71.6L106.4,71.6z M101,82.1c0,0.1,0,0.1,0,0.2C101,82.3,101,82.2,101,82.1
	L101,82.1z"/>
<path class="st0" d="M113.9,72.6c-0.1,0.3-0.1,0.7-0.2,1c0,0.3,0.1,0.6,0.3,0.7c0,0,0,0,0.1,0.1c0,0.4,0,0.9,0,1.3
	c0,0.6,0,1.2,0,1.8c0,0.9,0,1.7,0.1,2.6c0,1.9,0.1,3.7,0.2,5.6c0,0.6,0.5,1.1,1.1,1.1c0.6,0,1.1-0.5,1.1-1.1c0-1.9-0.1-3.9-0.1-5.8
	c0-0.9-0.1-1.8-0.1-2.7c0-0.5-0.1-1.1-0.1-1.6c0-0.4,0-0.8,0-1.2c0-0.4,0-0.7-0.1-1.1c0-0.1,0-0.3-0.1-0.4c0-0.1,0-0.1-0.1-0.2
	c0-0.1-0.1-0.3-0.2-0.4c-0.2-0.3-0.5-0.5-0.9-0.5C114.5,71.8,114,72.1,113.9,72.6L113.9,72.6z"/>
<path class="st0" d="M117.1,79.5c-0.5,0.3-0.8,0.8-1.2,1.2c-0.2,0.3-0.3,0.6-0.4,0.9c-0.1,0.3-0.1,0.6-0.2,0.8c0,0.5,0.5,1,1,1
	c0.6,0,1-0.5,1-1c0,0,0,0,0,0c0-0.1,0.1-0.2,0.1-0.4c0.1-0.1,0.1-0.2,0.2-0.4c0.1-0.1,0.3-0.3,0.4-0.4c0.1,0,0.1-0.1,0.2-0.1
	c0,0,0,0,0.1,0c0.1,0,0.3,0,0.4,0c0.2,0,0.4,0.1,0.5,0.1c0.1,0.1,0.3,0.1,0.4,0.2c0.3,0.2,0.6,0.5,0.8,0.8c0.2,0.3,0.4,0.6,0.5,0.9
	c0.2,0.6,0.4,1.1,0.5,1.7c0,0.3,0,0.5,0,0.8c0,0.7,0.5,1.2,1.2,1.2c0.3,0,0.6-0.1,0.9-0.4c0.2-0.2,0.4-0.6,0.4-0.9
	c-0.1-0.6-0.1-1.2-0.3-1.7c-0.2-0.6-0.4-1.1-0.7-1.6c-0.3-0.6-0.6-1.1-1-1.5c-0.4-0.5-0.9-0.9-1.4-1.2c-0.5-0.3-1.1-0.4-1.6-0.5
	c-0.1,0-0.2,0-0.3,0C118,79.1,117.5,79.2,117.1,79.5L117.1,79.5z"/>
<path class="st0" d="M127.9,71.5c-0.7,0.7-0.6,1.7,0,2.4c0.6,0.7,1.3,1.4,1.8,2.1c0.6,0.8,1,1.6,1.5,2.5c0.2,0.5,0.4,1,0.5,1.5
	c0.1,0.8,0,1.6,0,2.3c-0.2,1.2-0.6,2.4-1,3.5c-0.6,1.4-1.3,2.7-2.2,4c-0.5,0.8-0.1,1.9,0.6,2.3c0.4,0.2,0.9,0.3,1.3,0.2
	c0.4-0.1,0.7-0.4,1-0.8c0.5-0.7,0.9-1.5,1.3-2.2c1-1.9,1.9-3.9,2.2-6c0.2-1.1,0.3-2.2,0.2-3.2c-0.1-1.2-0.5-2.3-1-3.4
	c-0.9-1.9-2.3-3.6-3.8-5.1c-0.3-0.3-0.7-0.5-1.2-0.5C128.6,71,128.2,71.2,127.9,71.5L127.9,71.5z"/>
<path class="st0" d="M156.6,70.8c-0.3,0.2-0.7,0.6-0.8,1c-0.5,2.8-0.9,5.6-1.4,8.4c-0.2,1.1-0.3,2.1-0.5,3.2
	c-0.1,0.8-0.3,1.5-0.3,2.3c0.1,0.9,0.4,1.7,1,2.3c0.6,0.6,1.5,0.9,2.3,0.9c0.7,0.1,1.4-0.1,2.1-0.2c0.7-0.2,1.1-0.8,1.1-1.5
	c0-0.8-0.7-1.5-1.5-1.5c-0.4,0-0.7,0-1.1,0c-0.2,0-0.4-0.1-0.6-0.1c0,0,0,0,0,0c0,0,0,0,0,0c0-0.2,0-0.3,0-0.5
	c0.6-4.1,1.3-8.2,2-12.3c0.1-0.5,0.1-0.9-0.2-1.3c-0.2-0.4-0.6-0.7-1-0.8c-0.1,0-0.3-0.1-0.4-0.1C157.1,70.5,156.8,70.6,156.6,70.8
	L156.6,70.8z M156.8,85.3c0,0.1,0.1,0.1,0.1,0.2c0,0,0,0,0,0C156.9,85.4,156.9,85.4,156.8,85.3L156.8,85.3z"/>
<path class="st0" d="M163,73.5c-1.2,0.3-2.3,0.6-3.5,1c-0.8,0.2-1.5,0.5-2.3,0.8c-0.8,0.3-1.5,0.6-2.2,1c-0.7,0.4-1.3,0.8-1.9,1.2
	c-0.2,0.1-0.3,0.3-0.4,0.5c-0.1,0.2,0,0.5,0.1,0.7c0.1,0.2,0.3,0.3,0.5,0.4c0.2,0.1,0.5,0,0.6-0.1c1-0.7,2.1-1.4,3.3-1.9
	c1-0.4,2.1-0.8,3.2-1.2c1-0.3,2-0.6,3-0.9c0.4-0.1,0.6-0.5,0.5-0.9c-0.1-0.3-0.4-0.6-0.7-0.6C163.2,73.5,163.1,73.5,163,73.5
	L163,73.5z M157.3,77C157.3,77,157.3,77,157.3,77C157.3,77,157.3,77,157.3,77L157.3,77z M157.2,77c0,0-0.1,0-0.1,0
	C157.2,77,157.2,77,157.2,77L157.2,77z"/>
<path class="st0" d="M166.2,73.6c0,0.6,0.5,1.2,1.2,1.2s1.2-0.5,1.2-1.2s-0.5-1.2-1.2-1.2S166.2,73,166.2,73.6L166.2,73.6z"/>
<path class="st0" d="M167.4,78.5c-0.4,2.1-0.9,4.2-1.2,6.3c-0.1,0.3-0.1,0.6,0.1,0.9c0.2,0.3,0.4,0.5,0.7,0.6c0.3,0.1,0.7,0,0.9-0.1
	c0.2-0.1,0.5-0.4,0.6-0.7c0.3-2.1,0.8-4.2,1.2-6.2c0.1-0.3,0-0.6-0.1-0.9c-0.2-0.3-0.4-0.5-0.7-0.6c-0.1,0-0.2,0-0.3,0
	C168.1,77.6,167.5,78,167.4,78.5L167.4,78.5z"/>
<path class="st0" d="M186.5,74.6c-0.3,0-0.6,0.2-0.9,0.3c-0.2,0.1-0.4,0.3-0.6,0.4c-0.2,0.1-0.3,0.3-0.5,0.5
	c-0.2,0.2-0.5,0.5-0.7,0.8c-0.3,0.4-0.6,0.7-0.9,1.1c-0.5,0.6-0.9,1.2-1.3,1.8c-0.1-0.2-0.2-0.4-0.2-0.6c-0.3-0.6-0.6-1.1-1-1.6
	c-0.3-0.3-0.6-0.5-0.9-0.7c-0.4-0.2-0.8-0.3-1.2-0.3c-0.1,0-0.3,0-0.4,0c-0.2,0-0.4,0-0.5,0.1c-0.4,0.1-0.7,0.3-1,0.5
	c-0.3,0.2-0.6,0.5-0.8,0.7c-0.3-0.2-0.6-0.4-1-0.4c-0.4,0-0.8,0.2-1.1,0.4c-0.3,0.3-0.4,0.6-0.4,1c-0.1,1.4-0.2,2.8-0.3,4.2
	c0,0.6,0.5,1.3,1.1,1.4c0.7,0.2,1.7-0.2,1.8-1c0.1-0.5,0.3-0.9,0.4-1.3c0.4-0.8,0.8-1.7,1.3-2.4c0.2-0.2,0.4-0.4,0.6-0.6
	c0,0,0,0,0.1,0c0.1,0,0.2-0.1,0.3-0.1c0,0,0,0,0,0c0,0,0,0,0,0c0.1,0.1,0.2,0.1,0.3,0.2c0.1,0.1,0.2,0.1,0.2,0.2
	c0.2,0.3,0.4,0.6,0.5,0.9c0.3,0.7,0.5,1.4,0.6,2.1c0,0.3-0.1,0.6,0,0.9c0.1,0.3,0.2,0.5,0.4,0.7c0.2,0.2,0.4,0.3,0.7,0.4
	c0.3,0.1,0.8,0.1,1-0.1c0.2-0.2,0.4-0.3,0.6-0.5c0.2-0.3,0.3-0.6,0.4-1c0.5-1.1,1.2-2.1,1.9-3.1c0.2-0.3,0.5-0.6,0.7-0.9
	c0.4-0.5,0.8-1.1,1.4-1.6c0,0,0,0,0.1,0c0,0,0.1,0,0.1,0c0,0,0,0,0,0c0,0,0.1,0.1,0.1,0.1c0.1,0.1,0.2,0.2,0.3,0.3
	c0.2,0.2,0.3,0.5,0.4,0.7c0.4,1.1,0.6,2.3,0.8,3.4c0-0.1,0-0.2,0-0.3c0,0.2,0,0.3,0.1,0.5c0,0.3,0.1,0.6,0.4,0.9
	c0.2,0.2,0.5,0.4,0.9,0.4c0.3,0,0.6-0.1,0.9-0.4c0.2-0.2,0.4-0.6,0.4-0.9c-0.1-0.6-0.2-1.2-0.3-1.8c-0.2-0.8-0.4-1.6-0.7-2.4
	c-0.3-0.9-0.8-1.8-1.6-2.4c-0.4-0.3-0.9-0.5-1.4-0.5c-0.1,0-0.2,0-0.2,0C186.9,74.5,186.7,74.6,186.5,74.6L186.5,74.6z M187,76.9
	C187,76.9,187,76.9,187,76.9C187,76.9,187,76.9,187,76.9C187,76.9,187,76.9,187,76.9L187,76.9z M187,76.9
	C187,76.9,187,76.9,187,76.9C187,76.9,187,76.9,187,76.9C187,76.9,187,76.9,187,76.9C187,76.9,187,76.9,187,76.9L187,76.9z
	 M187.3,77c0,0,0.1,0,0.1,0C187.3,77,187.3,77,187.3,77L187.3,77z M178.2,78.8C178.2,78.8,178.1,78.8,178.2,78.8
	C178.1,78.8,178.1,78.8,178.2,78.8C178.1,78.8,178.2,78.8,178.2,78.8L178.2,78.8z M178.1,78.8C178.1,78.8,178.1,78.8,178.1,78.8
	C178.1,78.8,178.1,78.8,178.1,78.8C178.1,78.8,178.1,78.8,178.1,78.8L178.1,78.8z M178.5,78.8C178.5,78.9,178.5,78.9,178.5,78.8
	C178.5,78.9,178.5,78.9,178.5,78.8L178.5,78.8z"/>
<path class="st0" d="M199.2,74.3c-0.8,0.5-1.5,1.1-2.1,1.7c-0.5,0.6-1,1.3-1.2,2c-0.2,0.1-0.4,0.3-0.5,0.5c-0.2,0.3-0.2,0.6-0.1,0.9
	c0.1,0.3,0.3,0.5,0.5,0.7c0,0,0,0,0,0c0.1,0.3,0.2,0.7,0.3,1c0.2,0.5,0.4,0.9,0.8,1.3c0.3,0.4,0.7,0.8,1.2,1.1
	c0.7,0.5,1.6,0.9,2.4,1.2c0.9,0.3,1.9,0.5,2.9,0.5c0.8,0.1,1.6,0,2.4-0.2c0.6-0.1,1.1-0.2,1.6-0.3c0.7-0.2,1.2-1,1-1.7
	c-0.1-0.3-0.3-0.6-0.6-0.8c-0.3-0.2-0.7-0.2-1.1-0.1c-0.5,0.1-1,0.2-1.6,0.3c-0.4,0-0.7,0.1-1.1,0.1c-0.5,0-0.9,0-1.4-0.1
	c-0.9-0.1-1.7-0.4-2.5-0.7c-0.3-0.1-0.6-0.3-0.8-0.5c-0.2-0.2-0.5-0.4-0.7-0.7c-0.1-0.2-0.2-0.3-0.3-0.5c0,0,0-0.1,0-0.1
	c1.1-0.2,2.3-0.4,3.4-0.7c0.4-0.1,0.8-0.2,1.2-0.5c0.4-0.2,0.7-0.6,0.9-1c0.2-0.4,0.3-0.9,0.4-1.4c0-0.4,0-0.9-0.2-1.3
	c-0.2-0.4-0.5-0.8-0.9-1c-0.4-0.2-0.8-0.4-1.2-0.4c-0.1,0-0.3,0-0.4,0C200.7,73.6,199.9,73.9,199.2,74.3L199.2,74.3z M201.7,75.9
	c0.1,0,0.1,0,0.2,0.1c0,0,0,0,0,0C201.8,75.9,201.7,75.9,201.7,75.9L201.7,75.9z M201.7,75.9c0,0,0.1,0,0.1,0c0,0,0,0,0,0
	c0,0,0,0,0,0.1c0,0.1,0,0.2,0,0.3c0,0.1-0.1,0.2-0.1,0.3c0,0.1-0.1,0.1-0.1,0.2c0,0,0,0,0,0c0,0,0,0,0,0c-0.5,0.2-1.1,0.3-1.6,0.4
	c-0.4,0.1-0.7,0.2-1.1,0.2c0,0,0,0,0,0c0.3-0.3,0.5-0.6,0.8-0.8c0.3-0.2,0.7-0.5,1.1-0.7c0.1-0.1,0.3-0.1,0.4-0.1
	C201.5,75.9,201.6,75.9,201.7,75.9L201.7,75.9z M202,76.2c0,0,0,0.1,0,0.1C202,76.2,202,76.2,202,76.2L202,76.2z M201.9,76.7
	C201.8,76.7,201.8,76.7,201.9,76.7C201.8,76.8,201.8,76.8,201.9,76.7C201.8,76.7,201.8,76.7,201.9,76.7L201.9,76.7z M201.8,76.8
	C201.8,76.8,201.8,76.8,201.8,76.8C201.8,76.8,201.8,76.8,201.8,76.8C201.8,76.8,201.8,76.8,201.8,76.8L201.8,76.8z"/>
</svg>
