<?xml version="1.0" encoding="utf-8"?>
<!-- Generator: Adobe Illustrator 20.1.0, SVG Export Plug-In . SVG Version: 6.00 Build 0)  -->
<svg version="1.1" id="Layer_1" xmlns="http://www.w3.org/2000/svg" xmlns:xlink="http://www.w3.org/1999/xlink" x="0px" y="0px"
	 viewBox="0 0 187.8 27.7" style="enable-background:new 0 0 187.8 27.7;" xml:space="preserve">
<style type="text/css">
	.st0{fill:#010101;}
</style>
<path class="st0" d="M3.3,5.6c0,0.5,0.4,0.9,0.9,0.9s0.9-0.4,0.9-0.9S4.7,4.7,4.2,4.7S3.3,5.1,3.3,5.6L3.3,5.6z"/>
<path class="st0" d="M1.3,5.3C1,5.6,0.9,6,0.9,6.4C0.7,8.9,0.5,11.5,0.4,14c-0.1,1.1-0.2,2.2-0.2,3.3c0,0.5-0.1,1-0.1,1.5
	c0,0.3,0,0.6,0,0.9c0,0.3,0,0.6,0.1,0.9c0.1,0.2,0.2,0.4,0.4,0.6c0.2,0.2,0.5,0.3,0.8,0.4c0.4,0.1,1,0,1.3-0.3
	c0.1-0.1,0.2-0.2,0.3-0.3c0.1-0.2,0.2-0.4,0.2-0.6c0.1-0.3,0.1-0.6-0.1-0.9c0-0.1,0-0.2,0-0.3c0-0.3,0-0.6,0.1-0.9
	c0-0.5,0.1-1,0.1-1.5c0.1-1,0.1-2.1,0.2-3.1c0.2-2.5,0.3-5,0.5-7.5c0.1-0.8-0.7-1.5-1.5-1.5C2,4.9,1.6,5,1.3,5.3L1.3,5.3z"/>
<path class="st0" d="M5.1,6.4C4.3,6.6,3.5,7.1,3,7.7C2.7,7.9,2.5,8.2,2.4,8.6c-0.1,0.4,0,0.8,0,1.2c0.1,0.5,0.2,1,0.3,1.5
	c0.1,0.2,0.3,0.3,0.5,0.3c0.2-0.1,0.3-0.3,0.3-0.5c-0.1-0.4-0.2-0.9-0.3-1.3c0-0.3-0.1-0.6,0-0.9c0,0,0-0.1,0-0.1
	c0-0.1,0.1-0.1,0.1-0.2c0.1-0.2,0.3-0.3,0.5-0.5c0.3-0.2,0.5-0.3,0.8-0.5C5,7.5,5.2,7.4,5.5,7.4c0.1,0,0.3,0,0.4,0
	c0.2,0,0.3,0.1,0.5,0.1c0.1,0.1,0.2,0.1,0.3,0.2C6.9,7.8,7,7.9,7.1,8c0.1,0.1,0.1,0.2,0.2,0.3c0,0.1,0.1,0.3,0.1,0.4
	c0,0.2,0,0.3,0,0.5c0,0.2-0.1,0.5-0.2,0.7c-0.2,0.3-0.3,0.6-0.5,0.9c-0.3,0.4-0.7,0.8-1.1,1.1c0,0,0,0,0,0c-0.1,0-0.2-0.1-0.3-0.1
	c-0.2,0-0.5,0.1-0.6,0.3c-0.2,0.2-0.3,0.4-0.3,0.6c0,0.2,0,0.4,0.1,0.6c0.2,0.3,0.5,0.5,0.9,0.5c0.3,0,0.5,0,0.8-0.2
	c0.2-0.1,0.4-0.3,0.6-0.4c0.3-0.2,0.6-0.5,0.8-0.8c0.3-0.4,0.6-0.8,0.8-1.2c0.4-0.7,0.7-1.6,0.6-2.4C8.7,8.4,8.6,8,8.4,7.6
	c-0.2-0.4-0.6-0.7-1-0.9C7.2,6.5,7,6.5,6.9,6.4C6.7,6.3,6.5,6.3,6.2,6.3c-0.1,0-0.2,0-0.3,0C5.6,6.2,5.4,6.3,5.1,6.4L5.1,6.4z
	 M5.6,7.4C5.6,7.4,5.6,7.4,5.6,7.4C5.6,7.4,5.6,7.4,5.6,7.4L5.6,7.4z M3.3,8.6C3.3,8.6,3.3,8.6,3.3,8.6C3.3,8.6,3.3,8.6,3.3,8.6
	L3.3,8.6z"/>
<path class="st0" d="M18.9,6.7c-0.2,0-0.3,0.1-0.4,0.1c-0.6,0.2-1.1,0.6-1.6,1c-0.5,0.4-0.9,0.9-1.3,1.4c-0.1,0.1-0.2,0.3-0.3,0.4
	c-0.1,0-0.2,0-0.4,0c-0.3,0-0.5,0.1-0.7,0.3c-0.2,0.2-0.3,0.4-0.3,0.7c0,0.5,0.4,1,0.9,0.9c0,0,0,0,0,0c0,0.2,0.1,0.3,0.1,0.5
	c0.2,0.6,0.6,1,1,1.5c0.4,0.4,0.9,0.7,1.3,0.9c0.9,0.5,2,0.8,3,1.1c0.5,0.1,1.1,0.2,1.6,0.4c0.3,0,0.5,0,0.8-0.1
	c0.2-0.1,0.4-0.3,0.5-0.6c0.1-0.5-0.2-1.1-0.7-1.2c-1.2-0.3-2.3-0.7-3.4-1.1c-0.5-0.2-0.9-0.5-1.4-0.8c-0.2-0.1-0.3-0.3-0.4-0.4
	c-0.1-0.1-0.2-0.2-0.2-0.4c0.6-0.1,1.2-0.3,1.8-0.6c0.5-0.2,1-0.4,1.4-0.8c0.1-0.1,0.2-0.2,0.3-0.2c0.1-0.1,0.2-0.3,0.3-0.4
	C21,9.2,21,9.1,21.1,8.9c0.1-0.2,0.1-0.3,0.1-0.5c0-0.3,0-0.6-0.2-0.9c-0.1-0.3-0.4-0.4-0.6-0.6c-0.3-0.2-0.6-0.2-0.9-0.2
	c0,0,0,0,0,0C19.3,6.7,19.1,6.7,18.9,6.7L18.9,6.7z M19.6,8.6C19.6,8.6,19.6,8.6,19.6,8.6C19.6,8.6,19.6,8.6,19.6,8.6L19.6,8.6z"/>
<path class="st0" d="M31.6,7.5c-1.2,0.1-2.3,0.3-3.5,0.6c-0.8,0.2-1.5,0.8-1.8,1.7c-0.1,0.4-0.2,0.8-0.2,1.2c0,0.2,0,0.4-0.1,0.7
	c0,0.3,0.1,0.6,0.1,0.9c0.1,0.3,0.3,0.6,0.6,0.8c0.3,0.2,0.6,0.2,1,0.1c0.5-0.1,0.9-0.4,1.2-0.9c0.2-0.3,0.2-0.7,0.3-1
	c0.1-0.5,0.3-1,0.4-1.5c0.7-0.2,1.5-0.4,2.2-0.5c0.4-0.1,0.8-0.6,0.8-1c0-0.3-0.1-0.5-0.3-0.7C32.2,7.7,31.9,7.5,31.6,7.5
	C31.6,7.5,31.6,7.5,31.6,7.5L31.6,7.5z"/>
<path class="st0" d="M42.2,1c-0.5,0.2-0.9,0.6-1.3,1c-0.4,0.4-0.8,0.9-1.1,1.4c-0.7,1-1.1,2.1-1.5,3.3C38,7.4,37.9,8.2,37.7,9
	c-0.1,0.4-0.2,0.9-0.2,1.3c-0.1,0.9-0.3,1.9-0.4,2.8c-0.1,0.7-0.1,1.3-0.2,2c0,0.3,0.1,0.6,0.3,0.7c0.2,0.2,0.5,0.3,0.7,0.3
	c0.3,0,0.5-0.1,0.7-0.3c0.1-0.1,0.1-0.1,0.2-0.2c0.1-0.2,0.1-0.3,0.1-0.5c0.3-2.2,0.2-4.5,0.5-6.7c0,0.1,0,0.2,0,0.2
	c0.2-1.2,0.4-2.4,0.8-3.5c0.3-0.6,0.6-1.2,1-1.7c0.3-0.4,0.6-0.7,1-1c0.2-0.1,0.4-0.3,0.6-0.4C43.1,2,43.2,2,43.4,1.9
	c0.1,0,0.2,0,0.3,0c0,0,0,0,0,0c0,0,0,0,0,0c0.2,0.3,0.3,0.5,0.5,0.8c0.1,0.2,0.2,0.5,0.2,0.8c0,0.5,0,0.9,0,1.4
	c0,0.3,0.3,0.6,0.6,0.6c0.3,0,0.5-0.3,0.6-0.6c0-0.5,0-1.1,0-1.6c-0.1-0.6-0.3-1.2-0.6-1.7c-0.1-0.2-0.3-0.4-0.4-0.6
	c-0.2-0.2-0.5-0.3-0.7-0.3c-0.1,0-0.2,0-0.3,0C43,0.7,42.6,0.8,42.2,1L42.2,1z M43.6,1.9C43.6,1.9,43.6,1.9,43.6,1.9
	C43.6,1.9,43.6,1.9,43.6,1.9L43.6,1.9z M43.7,2C43.7,2,43.7,2,43.7,2C43.7,2,43.7,2,43.7,2L43.7,2z M43,2C43,2,43,2,43,2
	C43,2,43,2,43,2L43,2z"/>
<path class="st0" d="M42.6,7.6c-0.9,0.1-1.8,0.3-2.7,0.5c-0.5,0.1-1,0.2-1.5,0.3c-0.6,0.1-1.2,0.3-1.8,0.5c-0.6,0.2-1.3,0.5-1.8,0.8
	c-0.4,0.2-0.5,0.8-0.3,1.1c0.2,0.4,0.7,0.5,1.1,0.3c0.3-0.2,0.7-0.4,1.1-0.5c1.2-0.5,2.5-0.7,3.8-1c0.8-0.2,1.7-0.3,2.5-0.5
	c0.2,0,0.4-0.2,0.5-0.4c0.1-0.2,0.1-0.4,0.1-0.6c-0.1-0.2-0.2-0.4-0.4-0.5c-0.1-0.1-0.2-0.1-0.4-0.1C42.8,7.5,42.7,7.5,42.6,7.6
	L42.6,7.6z"/>
<path class="st0" d="M49.1,7.7c-0.1,0-0.2,0.1-0.3,0.1C48.5,7.9,48.3,8,48,8.2c-0.5,0.3-0.9,0.7-1.3,1.2c-0.2,0.2-0.4,0.5-0.5,0.7
	c-0.2,0-0.5,0-0.7,0c-0.6,0-1.1,0.5-1.1,1.1c0,0.6,0.5,1.1,1.1,1.1c0,0,0,0,0.1,0c0,0.1,0,0.2,0,0.2c0.1,1.2,0.8,2.3,1.8,3
	c0.8,0.6,1.8,0.9,2.8,1.2c0.6,0.2,1.2,0.4,1.8,0.5c0.6,0.2,1.3-0.2,1.4-0.8c0.2-0.6-0.2-1.2-0.8-1.4c-0.9-0.3-1.9-0.6-2.8-1
	c-0.4-0.2-0.7-0.3-1.1-0.6c-0.1-0.1-0.3-0.3-0.4-0.4c-0.1-0.2-0.2-0.4-0.3-0.5c0-0.1-0.1-0.2-0.1-0.4c0,0,0,0,0-0.1
	c0.4-0.1,0.7-0.1,1-0.2c0.5-0.2,1-0.4,1.4-0.7c0.5-0.3,0.9-0.8,1-1.4c0-0.1,0-0.3,0.1-0.4c0-0.1,0-0.2,0-0.3c0-0.3-0.1-0.5-0.2-0.8
	c-0.3-0.5-1-0.7-1.6-0.8C49.4,7.7,49.3,7.7,49.1,7.7L49.1,7.7z M49.3,9.2C49.3,9.2,49.3,9.2,49.3,9.2C49.3,9.2,49.3,9.2,49.3,9.2
	L49.3,9.2z M49.2,9.2c0,0,0,0.1,0,0.1C49.2,9.2,49.2,9.2,49.2,9.2L49.2,9.2z"/>
<path class="st0" d="M58.4,10.2c-0.6,0.2-1.3,0.6-1.6,1.3c-0.3,0.6-0.3,1.4-0.1,2.1c0.2,0.7,0.7,1.2,1.3,1.7
	c0.5,0.5,1.2,0.8,1.8,1.1c0.8,0.3,1.6,0.6,2.4,0.9c0.6,0.2,1.2-0.2,1.4-0.8c0.1-0.3,0-0.6-0.1-0.9c-0.2-0.3-0.4-0.4-0.7-0.5
	c-0.2-0.1-0.4-0.1-0.6-0.2c-0.8-0.4-1.7-0.7-2.4-1.3c-0.2-0.2-0.4-0.4-0.6-0.6c0-0.1-0.1-0.1-0.1-0.2c0,0,0-0.1,0-0.1c0,0,0,0,0,0
	c0.1,0,0.2-0.1,0.2-0.1c0.1,0,0.3-0.1,0.4-0.1c0.2,0,0.3,0,0.4,0c0.2,0,0.4,0.1,0.5,0.1c0.2,0.1,0.5,0.2,0.7,0.3c0,0,0.1,0,0.1,0.1
	c0.3,0.1,0.6,0.2,0.9,0.1c0.3-0.1,0.5-0.3,0.7-0.5c0.2-0.3,0.2-0.6,0.1-0.9c-0.1-0.3-0.3-0.6-0.5-0.7c-0.6-0.3-1.3-0.6-2-0.7
	C60.3,10,60,10,59.7,10C59.3,10,58.8,10.1,58.4,10.2L58.4,10.2z"/>
<path class="st0" d="M66.2,6.2c-0.1,1.9-0.1,3.9-0.2,5.8c0,1.3-0.1,2.6-0.1,3.9c0,0,0,0.1,0,0.1c0,0.1,0,0.2,0,0.2c0,0,0,0.1,0,0.1
	c0,0,0,0,0,0c0,0.3-0.1,0.6-0.1,1c0,0.4,0.3,0.8,0.7,0.9c0.4,0.1,1-0.1,1.1-0.6c0.1-0.3,0.1-0.6,0.2-0.9c0,0.1,0,0.2,0,0.2
	c0,0,0-0.1,0-0.1c0,0,0,0,0-0.1c0,0,0,0,0,0c0,0,0,0,0,0c0,0,0,0,0,0c0-0.1,0-0.2,0-0.2c0,0,0,0,0,0c0,0,0-0.1,0-0.1
	c0-0.1,0-0.1,0-0.2c0-0.1,0-0.2,0-0.2c0,0,0-0.1,0-0.1c0,0,0,0,0,0.1c0,0,0,0,0-0.1c0,0,0,0.1,0,0.1c0,0,0,0,0,0.1
	c0.2-1.4,0.3-2.8,0.3-4.2c0.1-1.9,0.2-3.8,0.2-5.7c0-0.6-0.5-1.1-1.1-1.1C66.7,5.1,66.2,5.6,66.2,6.2L66.2,6.2z M67.7,16.7
	C67.7,16.7,67.7,16.7,67.7,16.7c0-0.1,0-0.1,0-0.2C67.7,16.6,67.7,16.7,67.7,16.7L67.7,16.7z M67.8,15.8
	C67.8,15.8,67.8,15.8,67.8,15.8C67.8,15.8,67.8,15.8,67.8,15.8L67.8,15.8z"/>
<path class="st0" d="M70.2,8.1c-0.5,0.1-1,0.2-1.5,0.4c-0.3,0.1-0.7,0.2-1,0.3C67,9,66.4,9.2,65.8,9.5c-0.9,0.4-1.7,0.9-2.4,1.6
	c-0.4,0.3-0.3,0.9,0,1.2c0.2,0.2,0.4,0.2,0.6,0.2c0.2,0,0.4-0.1,0.6-0.2c0.1-0.1,0.2-0.1,0.2-0.2c0.4-0.3,0.8-0.5,1.2-0.8
	c0.5-0.3,0.9-0.5,1.4-0.7c-0.1,0-0.1,0.1-0.2,0.1c0.5-0.2,1.1-0.4,1.6-0.7c0.2-0.1,0.4-0.1,0.6-0.2c0.4-0.1,0.7-0.2,1.1-0.3
	C71,9.4,71.2,9,71.1,8.6c-0.1-0.4-0.4-0.5-0.7-0.5C70.3,8.1,70.2,8.1,70.2,8.1L70.2,8.1z"/>
<path class="st0" d="M74.5,3.6c-0.3,0.2-0.7,0.6-0.8,1c-0.3,1.7-0.5,3.5-0.8,5.2c-0.2,1.6-0.4,3.3-0.3,4.9c0,0.9,0.7,1.6,1.6,1.6
	c0.9,0,1.6-0.7,1.6-1.6c0.1-1.2,0.2-2.4,0.3-3.7c0.3-1.9,0.6-3.7,0.8-5.6c0.1-0.5,0.1-0.9-0.2-1.3c-0.2-0.4-0.6-0.7-1-0.8
	c-0.1,0-0.3-0.1-0.4-0.1C75,3.4,74.7,3.4,74.5,3.6L74.5,3.6z"/>
<path class="st0" d="M78.9,11c-0.2,0.1-0.3,0.4-0.2,0.6c0.4,0.5,0.7,1,1.1,1.6c0.1,0.2,0.3,0.4,0.5,0.6c0.1,0.1,0.2,0.2,0.3,0.3
	c0.2,0.2,0.4,0.4,0.6,0.6c0.2,0.2,0.4,0.2,0.6,0c0.2-0.2,0.2-0.4,0-0.6c-0.2-0.3-0.5-0.5-0.7-0.8c-0.2-0.2-0.3-0.4-0.5-0.6
	c-0.4-0.5-0.7-1-1.1-1.5C79.4,11,79.3,11,79.1,11C79.1,11,79,11,78.9,11L78.9,11z"/>
<path class="st0" d="M84.9,12.5c-0.6,0.9-1.1,1.9-1.7,2.9c-0.3,0.4-0.5,0.9-0.8,1.3c-0.3,0.5-0.7,1.1-1,1.6c-1.1,1.7-2.3,3.4-3.5,5
	c0.1-0.1,0.1-0.2,0.2-0.3c-0.4,0.5-0.7,1-1.1,1.4c-0.2,0.3-0.4,0.5-0.4,0.9c0,0.3,0.1,0.7,0.4,0.9c0.5,0.5,1.4,0.5,1.8,0
	c0.9-1,1.7-2.1,2.5-3.3c0.3-0.4,0.6-0.9,0.9-1.3c0.3-0.5,0.7-1,1-1.6c0.6-1,1.2-2,1.7-3c0.4-0.7,0.8-1.4,1.1-2.1
	c0.1-0.1,0.2-0.2,0.2-0.3c0.2-0.4,0.4-0.8,0.6-1.2c0.1-0.3,0.2-0.6,0.1-0.9c-0.1-0.3-0.3-0.5-0.5-0.7c-0.2-0.1-0.4-0.2-0.6-0.2
	C85.5,11.9,85.1,12.2,84.9,12.5L84.9,12.5z"/>
<path class="st0" d="M111,6.4c-0.5,2.1-1,4.2-1.6,6.2c-0.5,2-1,4-1.5,6c-0.2,1-0.4,2-0.5,3.1c0,0.4,0.1,0.9,0.1,1.3
	c0.1,0.3,0.3,0.6,0.5,0.9c0.1,0.2,0.3,0.3,0.5,0.4c0.3,0.1,0.5,0.2,0.8,0.2c0.3,0,0.5,0,0.8,0c0.5-0.1,0.9-0.3,1.4-0.5
	c0.5-0.3,0.9-0.6,1.3-1c0.4-0.3,0.7-0.6,1-1c0.3-0.3,0.6-0.7,0.8-1c0.1-0.2,0.3-0.4,0.4-0.5c0.2-0.2,0.3-0.5,0.4-0.7
	c0.2-0.4,0.2-0.8,0.2-1.2c0-0.6-0.2-1.1-0.4-1.6c-0.2-0.4-0.5-0.7-0.8-1c-0.2-0.2-0.4-0.4-0.7-0.5c-0.2-0.2-0.4-0.3-0.6-0.4
	c-0.2-0.1-0.5-0.3-0.7-0.4c0-0.1,0.1-0.2,0.1-0.3c0.6-2.3,1.2-4.6,1.7-6.9c0.2-0.9-0.3-1.8-1.1-2c-0.1,0-0.3-0.1-0.4-0.1
	C111.8,5.1,111.1,5.6,111,6.4L111,6.4z M111.6,17.3c0,0,0.1,0.1,0.1,0.1c0.2,0.2,0.5,0.4,0.7,0.6c0.1,0.1,0.1,0.2,0.2,0.3
	c0,0,0,0.1,0,0.1c0,0,0,0,0,0c0,0,0,0,0,0c-0.5,0.6-1.1,1.2-1.7,1.8C111.1,19.3,111.4,18.3,111.6,17.3L111.6,17.3z M112.6,18.2
	c0,0,0,0.1,0,0.1C112.6,18.3,112.6,18.2,112.6,18.2L112.6,18.2z M112.7,18.2c0,0,0,0.1,0,0.1C112.7,18.3,112.7,18.3,112.7,18.2
	L112.7,18.2z M112.6,18.5C112.6,18.5,112.6,18.5,112.6,18.5C112.6,18.5,112.6,18.5,112.6,18.5L112.6,18.5z"/>
<path class="st0" d="M121.4,11.8c-0.3,0.1-0.6,0.2-0.9,0.4c-0.3,0.1-0.6,0.3-0.8,0.5c-0.2,0.2-0.5,0.3-0.7,0.5
	c-0.3,0.2-0.5,0.5-0.6,0.9c-0.2,0.6-0.2,1.3,0.1,1.9c0.3,0.6,0.8,1.1,1.5,1.3c0.6,0.2,1.3,0.2,2-0.1c0,0,0.1,0,0.1,0
	c0.2,0.3,0.3,0.7,0.6,1c0.3,0.5,0.7,0.8,1.1,1.2c0.3,0.2,0.5,0.4,0.9,0.4c0.3,0,0.6-0.1,0.9-0.4c0.5-0.5,0.5-1.3,0-1.7
	c-0.1-0.2-0.3-0.3-0.4-0.5c-0.3-0.4-0.5-0.8-0.7-1.3c-0.1-0.2-0.1-0.3-0.1-0.5c0-0.1,0.1-0.2,0.1-0.3c0.1-0.3,0-0.5,0-0.8
	c0-0.2-0.2-0.4-0.4-0.6c0.2-0.1,0.3-0.3,0.3-0.6c0.1-0.3,0-0.6-0.1-0.9c-0.1-0.2-0.4-0.5-0.7-0.5c-0.3-0.1-0.7-0.1-1-0.1
	C122,11.7,121.7,11.7,121.4,11.8L121.4,11.8z M122,14c-0.2,0.2-0.3,0.4-0.3,0.6c-0.2,0.1-0.3,0.2-0.5,0.3c-0.1,0-0.2,0.1-0.3,0.1
	c0,0,0,0,0,0c0,0,0,0-0.1,0c0,0,0,0-0.1,0c0,0,0,0,0,0c0,0,0-0.1-0.1-0.1c0,0,0,0,0,0c0.1-0.1,0.3-0.2,0.4-0.3
	c0.2-0.2,0.5-0.3,0.8-0.4C121.8,14.1,121.9,14,122,14L122,14z M120.7,14.8C120.6,14.8,120.6,14.8,120.7,14.8
	C120.6,14.8,120.6,14.8,120.7,14.8L120.7,14.8z M120.6,14.9C120.6,14.9,120.6,14.9,120.6,14.9C120.6,14.9,120.6,14.9,120.6,14.9
	C120.6,14.9,120.6,14.9,120.6,14.9L120.6,14.9z M120.5,14.9c0,0-0.1,0.1-0.1,0.1C120.4,15,120.5,15,120.5,14.9L120.5,14.9z
	 M120.6,14.9C120.6,14.9,120.6,14.9,120.6,14.9C120.6,15,120.6,15,120.6,14.9C120.7,15,120.7,15,120.6,14.9
	C120.6,15,120.6,15,120.6,14.9L120.6,14.9z M120.7,15C120.7,15,120.7,15,120.7,15C120.7,15,120.7,15,120.7,15
	C120.7,15,120.7,15,120.7,15C120.7,15,120.7,15,120.7,15L120.7,15z M121.1,15C121,15,121,15,121.1,15C121,15,121,15,121.1,15
	C121,15,121,15,121.1,15L121.1,15z M121,15C121,15,121,15,121,15C121,15,121,15,121,15C121,15,121,15,121,15L121,15z M120.7,15
	C120.7,15,120.7,15,120.7,15C120.7,15,120.7,15,120.7,15C120.7,15,120.7,15,120.7,15L120.7,15z M120.7,15.1
	C120.7,15.1,120.7,15.1,120.7,15.1C120.7,15.1,120.7,15.1,120.7,15.1C120.7,15.1,120.7,15.1,120.7,15.1L120.7,15.1z M120.7,15.1
	C120.8,15.1,120.8,15.1,120.7,15.1C120.8,15.1,120.8,15.1,120.7,15.1C120.7,15.1,120.7,15.1,120.7,15.1L120.7,15.1z M120.8,15.1
	C120.8,15.1,120.8,15.1,120.8,15.1C120.8,15.1,120.8,15.1,120.8,15.1L120.8,15.1z M124.1,15.4C124.1,15.4,124.1,15.4,124.1,15.4
	C124.1,15.4,124.1,15.4,124.1,15.4C124.1,15.4,124.1,15.4,124.1,15.4L124.1,15.4z"/>
<path class="st0" d="M132.8,6.1c-0.1,0.3-0.2,0.7-0.3,1c-0.1,0.2-0.1,0.4-0.1,0.6c-0.1,0.4-0.2,0.7-0.3,1.1c0,0.2,0.1,0.4,0.2,0.4
	c0.1,0,0.2,0,0.3,0c0,0,0,0,0,0c0,0.1,0,0.2,0,0.3c0,0.1,0,0.1,0,0.2c0,0.2-0.1,0.4-0.1,0.6c0,0,0,0,0,0c0,0,0,0,0,0c0,0,0,0,0,0
	c0,0,0,0,0,0c0,0,0,0.1,0,0.1c0,0,0,0,0,0c0,0,0,0,0,0c0,0,0,0,0,0c-0.1,1.1-0.3,2.2-0.4,3.2c-0.2,1.8,0.1,3.6,0.5,5.3
	c0.1,0.5,0.7,0.8,1.1,0.7c0.5-0.1,0.8-0.7,0.7-1.1c-0.3-1-0.5-1.9-0.6-2.9c-0.2-1.7-0.1-3.4,0-5c0-0.5,0.1-1.1,0.1-1.6
	c0-0.3,0-0.5,0-0.8c0-0.3,0-0.7,0-1c0-0.1,0-0.2,0-0.3c0-0.1,0-0.2,0-0.3c-0.1-0.2-0.1-0.4-0.2-0.6c-0.1-0.1-0.2-0.2-0.4-0.2
	C133,5.9,132.8,6,132.8,6.1L132.8,6.1z M132.6,8.5C132.6,8.5,132.6,8.5,132.6,8.5C132.6,8.5,132.6,8.5,132.6,8.5
	C132.6,8.5,132.6,8.5,132.6,8.5L132.6,8.5z M132.6,8.6C132.6,8.6,132.6,8.6,132.6,8.6C132.6,8.6,132.6,8.7,132.6,8.6
	C132.6,8.6,132.6,8.6,132.6,8.6L132.6,8.6z M132.5,9.3C132.5,9.3,132.5,9.3,132.5,9.3C132.5,9.3,132.5,9.3,132.5,9.3L132.5,9.3z
	 M132.4,10.3C132.4,10.3,132.4,10.3,132.4,10.3c0,0.1,0,0.1,0,0.1C132.4,10.4,132.4,10.4,132.4,10.3
	C132.4,10.4,132.4,10.4,132.4,10.3C132.4,10.4,132.4,10.4,132.4,10.3C132.4,10.4,132.4,10.4,132.4,10.3
	C132.4,10.4,132.4,10.4,132.4,10.3C132.4,10.3,132.4,10.3,132.4,10.3C132.4,10.3,132.4,10.3,132.4,10.3L132.4,10.3z"/>
<path class="st0" d="M137.9,11.9c-0.3,0.2-0.6,0.4-0.9,0.6c-0.2,0.2-0.5,0.5-0.7,0.7c-0.3,0.3-0.4,0.6-0.5,1
	c-0.1,0.3-0.1,0.6-0.1,0.9c0,0.4,0.1,0.7,0.3,1.1c0.1,0.3,0.5,0.6,0.8,0.7c0.3,0.2,0.7,0.2,1.1,0.3c0.3,0,0.6-0.1,0.9-0.2
	c0.4-0.1,0.7-0.3,1.1-0.4c0.3-0.2,0.7-0.3,1-0.5c0.1-0.1,0.2-0.1,0.3-0.2c0.3,0.4,0.6,0.8,1,1.2c0.6,0.6,1.3,1.1,2,1.5
	c0.5,0.3,1.2,0.1,1.5-0.4c0.2-0.3,0.2-0.6,0.1-0.9c-0.1-0.3-0.3-0.5-0.5-0.7c-0.1-0.1-0.3-0.2-0.4-0.3c-0.2-0.2-0.4-0.4-0.7-0.6
	c-0.3-0.2-0.5-0.5-0.7-0.8c-0.3-0.3-0.5-0.7-0.8-1c0-0.1-0.1-0.1-0.1-0.2c0-0.1-0.1-0.3-0.2-0.4c-0.2-0.2-0.4-0.4-0.6-0.6
	c-0.2-0.2-0.5-0.5-0.8-0.7c-0.6-0.4-1.3-0.6-2-0.6C138.5,11.7,138.1,11.8,137.9,11.9L137.9,11.9z M139,13.4
	C139,13.4,139,13.4,139,13.4C139,13.4,139,13.4,139,13.4L139,13.4z M139.2,13.5c0.2,0,0.3,0.1,0.5,0.1c0.2,0.1,0.4,0.2,0.5,0.3
	c0,0,0,0,0,0c-0.1,0.1-0.3,0.2-0.4,0.3c-0.4,0.3-0.8,0.5-1.3,0.7c-0.3,0.1-0.5,0.2-0.8,0.2c-0.1,0-0.1,0-0.2,0c0,0,0,0,0,0
	c0,0,0-0.1,0-0.1c0-0.1,0-0.1,0-0.2c0-0.1,0-0.1,0.1-0.2c0,0,0,0,0-0.1c0.2-0.3,0.5-0.6,0.8-0.8c0.1-0.1,0.2-0.2,0.4-0.2
	c0,0,0,0,0.1,0C139,13.4,139.1,13.4,139.2,13.5L139.2,13.5z M137.6,15.1C137.6,15.1,137.7,15.1,137.6,15.1
	C137.7,15.1,137.7,15.1,137.6,15.1C137.6,15.1,137.6,15.1,137.6,15.1C137.6,15.1,137.6,15.1,137.6,15.1L137.6,15.1z M137.7,15.1
	C137.7,15.1,137.7,15.1,137.7,15.1C137.7,15.1,137.7,15.1,137.7,15.1C137.7,15.1,137.7,15.1,137.7,15.1L137.7,15.1z"/>
<path class="st0" d="M151.5,11.9c-0.2,0-0.4,0.1-0.6,0.1c-0.3,0.1-0.5,0.3-0.8,0.4c-0.3,0.2-0.5,0.4-0.8,0.7c0,0,0,0-0.1,0.1
	c-0.1-0.1-0.3-0.1-0.4-0.1c-0.5,0-1,0.4-1,1c0,0.3,0.1,0.7,0.1,1c0,0.2,0.3,0.5,0.5,0.6c0.3,0.2,0.7,0.2,1,0
	c0.1-0.1,0.2-0.1,0.3-0.2c0.2-0.1,0.4-0.3,0.5-0.5c0.3-0.3,0.5-0.6,0.8-0.9c0.1-0.1,0.2-0.1,0.3-0.2c0,0,0,0,0,0c0,0,0.1,0,0.1,0
	c0,0,0,0,0,0c0.1,0.1,0.2,0.1,0.3,0.2c0.2,0.1,0.3,0.3,0.4,0.4c0.2,0.3,0.4,0.7,0.6,1.1c0.1,0.4,0.2,0.8,0.3,1.2
	c0.1,0.6,0.8,1,1.4,0.8c0.6-0.2,0.9-0.8,0.8-1.4c-0.1-0.4-0.2-0.7-0.3-1.1c-0.1-0.4-0.3-0.8-0.5-1.1c-0.5-0.8-1.1-1.4-1.9-1.8
	c-0.3-0.2-0.7-0.3-1.1-0.3C151.5,11.9,151.5,11.9,151.5,11.9L151.5,11.9z M151.4,13.9c0,0,0.1,0,0.1,0c0,0,0,0,0,0
	C151.4,13.9,151.4,13.9,151.4,13.9L151.4,13.9z M151.5,13.9C151.5,13.9,151.5,13.9,151.5,13.9C151.5,13.9,151.5,13.9,151.5,13.9
	C151.5,13.9,151.5,13.9,151.5,13.9L151.5,13.9z M151.4,14c0,0-0.1,0-0.1,0.1C151.3,14,151.3,14,151.4,14L151.4,14z"/>
<path class="st0" d="M161.7,10.5c-0.4,0.1-0.7,0.3-1,0.5c-0.6,0.4-1,0.9-1.4,1.5c-0.4,0.6-0.5,1.4-0.6,2.1c0,0.7,0.2,1.4,0.4,2
	c0.3,0.7,0.8,1.3,1.3,1.8c0.6,0.7,1.4,1.2,2.1,1.8c0.2,0.1,0.4,0.2,0.6,0.2c0.3,0,0.6-0.1,0.8-0.3c0.4-0.4,0.5-1.2,0-1.7
	c-0.7-0.6-1.4-1.3-2.1-2.1c-0.2-0.2-0.3-0.4-0.4-0.7c-0.1-0.2-0.1-0.5-0.2-0.7c0-0.2,0-0.4,0-0.6c0-0.2,0.1-0.3,0.1-0.5
	c0.1-0.1,0.2-0.3,0.2-0.4c0.1-0.1,0.2-0.2,0.3-0.3c0.1-0.1,0.3-0.2,0.4-0.2c0.1,0,0.2-0.1,0.4-0.1c0,0,0,0,0.1,0
	c0.2,0,0.5,0.1,0.7,0.2c0.3,0.1,0.6,0.2,0.9,0.1c0.3-0.1,0.6-0.3,0.7-0.6c0.2-0.3,0.2-0.6,0.1-0.9c-0.1-0.3-0.3-0.6-0.6-0.7
	c-0.6-0.3-1.3-0.5-2-0.5c0,0,0,0-0.1,0C162.4,10.3,162,10.4,161.7,10.5L161.7,10.5z M162.7,12.8c0,0-0.1,0-0.1,0
	C162.6,12.8,162.7,12.8,162.7,12.8L162.7,12.8z"/>
<path class="st0" d="M171.3,11.5c-0.7,0.1-1.4,0.3-2.1,0.7c-0.6,0.3-1.2,0.8-1.6,1.4c-0.1,0.2-0.2,0.3-0.3,0.5
	c-0.5,0.3-0.8,0.8-0.6,1.4c0,0.1,0,0.1,0.1,0.2c0,0.1,0,0.1,0,0.2c-0.1,0.8,0.1,1.5,0.4,2.2c0.3,0.7,0.8,1.2,1.3,1.8
	c0.6,0.7,1.2,1.3,1.9,1.9c0.5,0.5,1.3,0.5,1.8,0c0.5-0.5,0.5-1.3,0-1.8c-0.8-0.8-1.6-1.6-2.3-2.4c-0.2-0.2-0.3-0.5-0.4-0.8
	c-0.1-0.2-0.1-0.3-0.1-0.5c0-0.1,0-0.1,0-0.2c0.4-0.1,0.8-0.2,1.2-0.3c0.4-0.1,0.9-0.3,1.3-0.4c0.4-0.2,0.8-0.4,1.2-0.6
	c0.2-0.1,0.4-0.2,0.5-0.4c0.2-0.2,0.3-0.4,0.4-0.7c0.1-0.3,0.2-0.6,0.1-0.9c-0.1-0.3-0.3-0.6-0.5-0.7c-0.3-0.2-0.6-0.3-1-0.5
	c-0.2-0.1-0.4-0.1-0.6-0.1C171.7,11.4,171.5,11.4,171.3,11.5L171.3,11.5z"/>
<path class="st0" d="M183,4c-0.2,0.1-0.5,0.4-0.5,0.6c-0.2,1.1-0.3,2.2-0.4,3.3c-0.1,0.8-0.2,1.6-0.3,2.4c-0.3,1.8-0.5,3.6-1,5.3
	c-0.3-0.1-0.6-0.1-0.9-0.2c-0.3,0-0.7,0-1,0.1c-0.4,0.1-0.7,0.3-1.1,0.5c-0.3,0.2-0.6,0.5-0.8,0.8c-0.2,0.4-0.3,0.8-0.4,1.3
	c0,0.4,0,0.7,0.1,1.1c0.1,0.4,0.2,0.8,0.4,1.2c0.2,0.3,0.5,0.6,0.8,0.7c0.4,0.2,1,0.3,1.4,0.2c1.2-0.3,2-1.2,2.5-2.2c0,0,0,0,0,0
	c0.1,0.1,0.3,0.2,0.4,0.3c0.3,1.3,0.8,2.5,1.2,3.7c0.5,1.3,1,2.6,1.6,3.9c0.1,0.3,0.5,0.5,0.8,0.6c0.4,0.1,0.7,0,1.1-0.1
	c0.3-0.2,0.5-0.5,0.6-0.8c0.1-0.4,0-0.7-0.1-1.1c-0.3-0.6-0.5-1.1-0.8-1.7c-0.3-0.7-0.5-1.3-0.8-2c-0.7-1.7-1.3-3.4-1.6-5.3
	c-0.3-2.5-0.1-5,0-7.5c0.1-1.4,0.2-2.8,0.2-4.2c0.1-0.5-0.4-0.9-0.8-1c-0.1,0-0.2,0-0.3,0C183.4,3.9,183.2,3.9,183,4L183,4z
	 M180,17.6C180,17.6,180.1,17.6,180,17.6c0,0.3-0.2,0.5-0.3,0.7c-0.1,0.2-0.3,0.3-0.4,0.4c0,0-0.1,0.1-0.1,0.1
	c0-0.1-0.1-0.3-0.1-0.4c0-0.1,0-0.2,0-0.3c0,0,0-0.1,0-0.1c0,0,0,0,0,0c0.1-0.1,0.1-0.1,0.2-0.2c0.1,0,0.1-0.1,0.2-0.1
	c0.1,0,0.2-0.1,0.3-0.1C179.8,17.6,179.9,17.6,180,17.6L180,17.6z M179,18.1C179,18.1,179,18.1,179,18.1C179,18.1,179,18.1,179,18.1
	L179,18.1z M179.1,18.9C179.1,18.9,179.1,18.9,179.1,18.9L179.1,18.9C179.1,18.9,179.1,18.9,179.1,18.9L179.1,18.9z M178.7,18.9
	C178.8,18.9,178.8,18.9,178.7,18.9C178.8,18.9,178.8,18.9,178.7,18.9L178.7,18.9z"/>
</svg>
