<?xml version="1.0" encoding="utf-8"?>
<!-- Generator: Adobe Illustrator 20.1.0, SVG Export Plug-In . SVG Version: 6.00 Build 0)  -->
<svg version="1.1" id="Layer_1" xmlns="http://www.w3.org/2000/svg" xmlns:xlink="http://www.w3.org/1999/xlink" x="0px" y="0px"
	 viewBox="0 0 509.3 35.9" style="enable-background:new 0 0 509.3 35.9;" xml:space="preserve">
<style type="text/css">
	.st0{fill:#010101;}
	.st1{fill:#A271B1;}
</style>
<path class="st0" d="M22.4,1c-0.6,0.2-1.3,0.4-1.9,0.7c-1.4,0.5-2.7,1-4.1,1.5c-1.3,0.5-2.7,0.9-4,1.4c-1,0.4-2.1,0.7-3.1,1.1
	C7.5,6.2,5.6,6.7,3.7,7C3.3,7,3,7.1,2.6,7.1C2.4,6.7,1.9,6.5,1.5,6.7C1.1,6.8,0.9,6.9,0.6,7.1C0.1,7.4-0.1,7.9,0,8.4
	c0.1,0.5,0.6,0.8,1.1,0.8c0.4,0,0.9,0.1,1.3,0.1c0.4,0,0.9,0,1.3-0.1c1-0.1,2-0.3,3-0.5c1.9-0.4,3.7-1,5.6-1.6
	c1.4-0.5,2.8-1,4.2-1.4c2.4-0.8,4.8-1.6,7.1-2.4c0.5-0.2,1-0.4,1.6-0.5c0.5-0.1,0.9-0.6,0.9-1.2c0-0.7-0.6-1.2-1.2-1.2c0,0,0,0,0,0
	C24.1,0.4,23.2,0.7,22.4,1L22.4,1z M3.7,7C3.7,7,3.7,7,3.7,7C3.7,7,3.7,7,3.7,7C3.7,7,3.7,7,3.7,7L3.7,7z"/>
<path class="st0" d="M11,8.9c0.2,3.3,0.4,6.7,0.6,10c0.1,1.4,0.2,2.9,0.2,4.3c0,0.6,0.1,1.2,0.1,1.8c0,0.4,0.1,0.7,0.1,1.1
	c0,0.4,0.1,0.8,0.2,1.2c0,0.1,0.1,0.3,0.1,0.4c0.1,0.1,0.1,0.2,0.2,0.4c0.1,0.2,0.3,0.3,0.4,0.5c0.5,0.5,1.2,0.6,1.8,0.2
	c0.3-0.2,0.6-0.5,0.7-0.9c0.1-0.4,0-0.7-0.1-1c-0.1-1.3-0.1-2.7-0.2-4c-0.1-1.4-0.2-2.9-0.2-4.3c-0.2-3.3-0.4-6.5-0.6-9.8
	c0-0.4-0.2-0.8-0.5-1.1c-0.3-0.3-0.7-0.5-1.1-0.5C11.8,7.2,11,8,11,8.9L11,8.9z"/>
<path class="st0" d="M26.7,4.7c-0.3,5.9-0.6,11.8-0.9,17.7c-0.2,1-0.2,2-0.2,3c0,0.4,0,0.8,0,1.2c0,0.1,0,0.2,0,0.3
	c0,0.2,0,0.4,0,0.6c0,0.2,0,0.5,0.1,0.7c0,0.3,0.2,0.6,0.4,0.9c0.3,0.3,0.6,0.4,1,0.4c0.4,0,0.7-0.1,1-0.4c0.3-0.3,0.4-0.6,0.4-1
	c0.2-1.6,0.2-3.1,0.3-4.7c0.1-1.2,0.1-2.4,0.2-3.6c0.2-0.6,0.4-1.2,0.6-1.8c0.3-0.7,0.7-1.4,1.2-2c0.5-0.6,1-1.1,1.5-1.5
	c0.3-0.2,0.5-0.4,0.9-0.5c0.2-0.1,0.5-0.1,0.7-0.2c0.2,0,0.5,0,0.7,0c0.1,0,0.3,0.1,0.4,0.1c0.3,0.1,0.5,0.3,0.7,0.4
	c0.2,0.2,0.4,0.3,0.5,0.5c0.3,0.4,0.5,0.9,0.7,1.4c0.2,0.5,0.3,1,0.4,1.6c0.1,0.7,0,1.3,0,2c-0.2,1.3-0.5,2.7-0.8,4
	c-0.2,0.6,0.2,1.2,0.8,1.4c0.6,0.2,1.2-0.2,1.4-0.8c0.2-0.8,0.3-1.5,0.5-2.3c0.2-1.5,0.5-2.9,0.3-4.4c-0.1-0.9-0.4-1.7-0.8-2.5
	c-0.3-0.8-0.8-1.5-1.4-2.1c-0.6-0.6-1.3-1-2.1-1.3c-0.4-0.1-0.9-0.1-1.3-0.1c-0.5,0-1,0.1-1.5,0.3c-0.8,0.3-1.5,0.9-2.2,1.4
	c-0.4,0.3-0.8,0.7-1.1,1.1c0.1-1.3,0.1-2.6,0.2-3.9c0.1-2,0.2-3.9,0.3-5.9c0-0.8-0.7-1.4-1.4-1.4C27.4,3.3,26.8,3.9,26.7,4.7
	L26.7,4.7z M29.6,17.9c0,0,0,0.1-0.1,0.1C29.6,18,29.6,18,29.6,17.9L29.6,17.9z"/>
<path class="st0" d="M49.7,13c-0.3,0.1-0.6,0.2-0.9,0.4c-0.6,0.3-1,0.8-1.5,1.3c-0.5,0.6-1,1.2-1.4,1.9c-0.4,0.6-0.7,1.2-1,1.8
	c-0.2,0.3-0.3,0.7-0.3,1.1c0,0.3,0,0.7,0.1,1c0.1,0.3,0.2,0.7,0.4,1c0.2,0.3,0.4,0.6,0.6,0.9c0.5,0.6,1.1,1,1.7,1.4
	c0.6,0.4,1.3,0.7,2,0.9c0.8,0.3,1.5,0.4,2.3,0.5c0.7,0.1,1.5,0.1,2.2,0c0.4,0,0.8-0.1,1.2-0.2c0.4-0.1,0.8-0.2,1.2-0.3
	c0.6-0.2,1-0.8,0.8-1.4c-0.2-0.6-0.8-0.9-1.4-0.8c-0.6,0.1-1.1,0.3-1.7,0.3c-0.9,0.1-1.9,0.1-2.8,0c-0.8-0.1-1.5-0.3-2.3-0.6
	c-0.5-0.2-0.9-0.5-1.3-0.8c-0.2-0.2-0.4-0.4-0.6-0.6c-0.2-0.2-0.3-0.5-0.4-0.7c-0.1-0.2-0.1-0.3-0.1-0.5c0,0,0-0.1,0-0.1
	c0-0.2,0.1-0.3,0.2-0.5c0.1-0.3,0.2-0.5,0.4-0.8c0.3,0,0.6,0,0.8,0c0.3,0,0.7-0.1,1-0.1c0.7-0.1,1.3-0.4,1.8-0.8s1-0.9,1.3-1.4
	c0.2-0.3,0.3-0.6,0.4-0.9c0.1-0.4,0-0.8-0.2-1.1c-0.1-0.3-0.4-0.6-0.6-0.7c-0.3-0.2-0.6-0.2-0.9-0.3c0,0-0.1,0-0.1,0
	C50.2,12.8,49.9,12.9,49.7,13L49.7,13z M50.5,14.4C50.6,14.4,50.6,14.4,50.5,14.4C50.6,14.4,50.6,14.4,50.5,14.4L50.5,14.4z
	 M50.6,14.5c0,0.1,0.1,0.1,0.1,0.2c0,0,0,0,0,0c0,0,0,0,0,0.1c-0.1,0.2-0.2,0.4-0.4,0.6c-0.2,0.2-0.4,0.4-0.6,0.6
	c-0.2,0.2-0.5,0.3-0.8,0.4c-0.3,0.1-0.5,0.1-0.8,0.2c-0.1,0-0.2,0-0.2,0c0.1-0.2,0.2-0.3,0.3-0.5c0.4-0.4,0.8-0.9,1.2-1.2
	c0.1-0.1,0.3-0.2,0.5-0.3c0.2-0.1,0.3-0.1,0.5-0.1C50.5,14.5,50.6,14.5,50.6,14.5L50.6,14.5z M50.8,14.8
	C50.8,14.8,50.8,14.8,50.8,14.8C50.8,14.8,50.8,14.8,50.8,14.8L50.8,14.8z M46.6,19.1c0,0,0,0.1-0.1,0.1
	C46.6,19.2,46.6,19.1,46.6,19.1L46.6,19.1z"/>
<path class="st0" d="M86.8,11.2c0,0.9,0.8,1.7,1.7,1.7c0.9,0,1.7-0.8,1.7-1.7s-0.8-1.7-1.7-1.7C87.6,9.6,86.8,10.3,86.8,11.2
	L86.8,11.2z"/>
<path class="st0" d="M86.3,16.9c0,2.7,0,5.5,0.2,8.2c0,0.4,0.1,0.7,0.4,0.9c0.2,0.2,0.6,0.4,0.9,0.4c0.7,0,1.3-0.6,1.3-1.3
	c0-2.7,0-5.5,0-8.2c0-0.8-0.7-1.4-1.4-1.4S86.3,16.1,86.3,16.9L86.3,16.9z"/>
<path class="st0" d="M112.6,12c-0.4,0.1-0.8,0.3-1.1,0.5c-0.3,0.2-0.5,0.4-0.8,0.6c-0.3,0.2-0.6,0.5-0.9,0.8c-0.5,0.5-1,1.1-1.5,1.7
	c-0.1,0.2-0.3,0.3-0.4,0.5c-0.1-0.2-0.2-0.4-0.3-0.6c-0.1-0.2-0.3-0.4-0.5-0.6c-0.2-0.2-0.4-0.4-0.6-0.5c-0.5-0.4-1-0.5-1.6-0.6
	c-0.5-0.1-0.9,0-1.4,0.1c-0.3,0.1-0.5,0.2-0.7,0.3c-0.3,0.1-0.6,0.4-0.9,0.6c-0.4,0.3-0.7,0.6-1,1c-0.1,0.1-0.2,0.2-0.3,0.3
	c-0.1-0.7-0.8-1.3-1.5-1.3c-0.9,0-1.5,0.7-1.5,1.5c0,1.3-0.1,2.6-0.2,3.9c0,0.5,0,1-0.1,1.6c0,0.2,0,0.4,0,0.7c0,0.7-0.1,1.4,0,2
	c0.2,0.7,0.8,1.1,1.5,1.1c0.7,0,1.3-0.5,1.5-1.1c0.3-1.4,0.7-2.8,1.2-4.1c0.4-1,0.9-2,1.6-2.9c0.2-0.3,0.5-0.5,0.8-0.8
	c0.1-0.1,0.2-0.2,0.4-0.2c0.1,0,0.2,0,0.2-0.1c0.1,0,0.2,0,0.3,0c0.1,0,0.1,0,0.2,0.1c0,0,0.1,0,0.1,0.1c0.1,0.1,0.2,0.2,0.2,0.2
	c0.1,0.1,0.1,0.2,0.2,0.3c0.2,0.4,0.3,0.9,0.3,1.3c0,0.4,0.1,0.7,0.1,1.1c0,0.1-0.1,0.1-0.1,0.2c-0.2,0.4-0.3,0.9-0.3,1.3
	c0,0.4,0,0.8,0.1,1.2c0.1,0.4,0.5,0.8,0.9,0.9c0.5,0.1,0.9,0,1.3-0.3c0.4-0.4,0.6-0.8,0.7-1.4c0-0.4,0.1-0.8,0-1.2
	c0.5-1,1.1-2,1.8-2.9c0.7-0.9,1.4-1.7,2.3-2.4c0.1-0.1,0.2-0.1,0.4-0.2c0.1-0.1,0.3-0.1,0.4-0.1c0,0,0,0,0,0c0,0,0.1,0,0.1,0
	c0.1,0.1,0.3,0.2,0.4,0.3c0.1,0.1,0.2,0.2,0.3,0.3c0.2,0.2,0.3,0.5,0.4,0.8c0.2,0.6,0.4,1.1,0.5,1.7c0.1,1,0.1,2.1,0,3.1
	c0,0.5-0.1,1-0.2,1.5c-0.1,0.9-0.2,1.8-0.3,2.7c0-0.1,0-0.2,0-0.3c0,0.1,0,0.2,0,0.2c0,0.4-0.1,0.7,0.1,1c0.2,0.3,0.4,0.5,0.8,0.6
	c0.6,0.2,1.4-0.2,1.6-0.9c0.3-1.3,0.4-2.5,0.5-3.8c0.1-1,0.1-2,0.1-3c0-0.8-0.1-1.6-0.3-2.3c-0.1-0.7-0.4-1.4-0.7-2.1
	c-0.3-0.6-0.7-1.2-1.3-1.6c-0.3-0.2-0.5-0.4-0.8-0.5c-0.4-0.2-0.8-0.3-1.3-0.3c0,0-0.1,0-0.1,0C113.1,11.8,112.8,11.9,112.6,12
	L112.6,12z"/>
<path class="st0" d="M126.9,13.7c-0.3,0.3-0.4,0.6-0.4,1c-0.5,7-1,14-1.4,21c0,0.3,0,0.7-0.1,1c-0.1,0.8-0.2,1.7,0.1,2.5
	c0.1,0.5,0.5,0.8,0.9,0.9c0.5,0.2,1.2-0.1,1.5-0.6c0.1-0.2,0.2-0.5,0.2-0.7c0,0,0,0,0,0c0,0,0,0,0,0c0,0,0,0,0,0c0,0,0,0,0,0
	c0,0,0-0.1,0-0.1c0-0.1,0-0.1,0-0.2c0,0,0,0.1,0,0.1c0-0.2,0-0.4-0.1-0.7c0-0.4,0.1-0.9,0.1-1.3c0-0.4,0-0.8,0.1-1.2
	c0-0.7,0.1-1.4,0.1-2c0.1-1.8,0.2-3.5,0.3-5.3c0.2-3,0.4-5.9,0.6-8.9c0.1-1.5,0.2-3,0.3-4.5c0.1-0.7-0.7-1.4-1.4-1.4
	C127.5,13.3,127.2,13.4,126.9,13.7L126.9,13.7z M127.8,38.8C127.8,38.8,127.8,38.8,127.8,38.8C127.8,38.8,127.8,38.8,127.8,38.8
	C127.8,38.8,127.8,38.8,127.8,38.8L127.8,38.8z"/>
<path class="st0" d="M133.5,12.3c-0.6,0-1.3,0.1-1.9,0.3c-1.2,0.4-2.3,1-3.1,1.9c-0.5,0.4-0.8,0.9-1.1,1.5c-0.1,0.3-0.2,0.5-0.3,0.8
	c-0.1,0.3-0.2,0.6-0.2,1c0,0.2,0.1,0.5,0.3,0.6c0.2,0.2,0.4,0.3,0.6,0.3s0.5-0.1,0.6-0.3c0.2-0.2,0.2-0.4,0.3-0.6c0,0,0-0.1,0-0.1
	c0.1-0.3,0.2-0.5,0.2-0.8c0.1-0.2,0.2-0.4,0.4-0.6c0.3-0.3,0.5-0.6,0.9-0.8c0.5-0.3,1-0.6,1.5-0.9c0.4-0.2,0.9-0.3,1.4-0.4
	c0.4,0,0.8-0.1,1.3,0c0.3,0,0.5,0.1,0.8,0.2c0.3,0.1,0.5,0.3,0.8,0.5c0.2,0.1,0.3,0.3,0.5,0.5c0.1,0.2,0.3,0.4,0.4,0.6
	c0.1,0.2,0.1,0.4,0.2,0.6c0,0.4,0,0.7,0,1.1c-0.1,0.5-0.2,1-0.4,1.4c-0.2,0.5-0.5,0.9-0.8,1.3c-0.4,0.4-0.7,0.9-1.1,1.2
	c-0.5,0.4-1,0.9-1.5,1.3c-0.1,0.1-0.3,0.2-0.4,0.3c-0.3,0.2-0.5,0.4-0.8,0.5c-0.1,0-0.2,0.1-0.3,0.1c-0.1,0-0.2,0-0.2,0
	c-0.3,0-0.5,0.1-0.7,0.3c-0.2,0.2-0.3,0.4-0.3,0.7c0,0.5,0.4,1,1,1c0.3,0,0.6,0,0.9,0c0.3-0.1,0.6-0.2,0.8-0.3
	c0.6-0.3,1.1-0.7,1.6-1.1c0.4-0.4,0.9-0.7,1.3-1.1c0.5-0.4,0.9-0.9,1.3-1.5c0.8-1,1.3-2.1,1.5-3.4c0.1-0.6,0.2-1.2,0.1-1.8
	c-0.1-0.7-0.3-1.3-0.6-1.8c-0.6-1.1-1.7-1.8-2.9-2.2c-0.5-0.2-1-0.2-1.5-0.2C133.7,12.3,133.6,12.3,133.5,12.3L133.5,12.3z"/>
<path class="st0" d="M146,13.7c-0.4,0.1-0.6,0.4-0.9,0.6c-0.3,0.3-0.4,0.8-0.2,1.2c0.1,0.2,0.3,0.3,0.4,0.4c-0.4,0.4-0.7,0.9-1,1.3
	c-0.4,0.5-0.8,1.1-1.1,1.7c-0.2,0.3-0.3,0.6-0.4,0.9c-0.1,0.2-0.2,0.4-0.2,0.6c-0.1,0.2-0.1,0.4-0.1,0.6c0,0.3,0,0.6,0.1,0.9
	c0.1,0.4,0.3,0.7,0.6,1c0.2,0.2,0.5,0.4,0.7,0.6c0.3,0.2,0.7,0.3,1,0.4c0.7,0.1,1.5,0,2.2-0.2c0.7-0.2,1.3-0.6,1.9-1
	c0.6-0.4,1-0.9,1.6-1.4c0.3-0.2,0.5-0.5,0.7-0.8c0.2-0.3,0.4-0.7,0.6-1.1c0-0.1,0.1-0.3,0.1-0.5c0-0.2,0-0.3,0-0.5
	c0-0.4-0.1-0.8-0.3-1.2c-0.3-0.6-0.7-1.2-1.2-1.7c-0.1-0.1-0.1-0.1-0.2-0.2c0.1-0.5-0.2-1.2-0.8-1.3c-0.2,0-0.3-0.1-0.5-0.1
	c-0.1,0-0.2,0-0.4,0c-0.4-0.3-0.9-0.5-1.4-0.6c-0.2,0-0.3,0-0.5,0C146.5,13.6,146.3,13.6,146,13.7L146,13.7z M148.1,16.7
	c0.4,0.3,0.7,0.7,1,1.1c0.2,0.2,0.3,0.5,0.5,0.8c0,0.1,0,0.1,0.1,0.2c0,0.1,0,0.2,0,0.2c0,0.1,0,0.1,0,0.2c-0.1,0.1-0.1,0.2-0.2,0.3
	c-0.2,0.3-0.5,0.5-0.8,0.8c-0.3,0.2-0.5,0.5-0.8,0.7c-0.4,0.3-0.8,0.5-1.2,0.7c-0.2,0.1-0.4,0.1-0.7,0.2c-0.2,0-0.4,0-0.6,0
	c-0.1,0-0.2,0-0.2-0.1c-0.1,0-0.2-0.1-0.3-0.2c0,0-0.1-0.1-0.1-0.1c0-0.1,0-0.3,0-0.4c0-0.1,0.1-0.3,0.1-0.4c0.2-0.5,0.5-1,0.8-1.4
	c0.3-0.4,0.5-0.8,0.8-1.2c0.3-0.4,0.6-0.7,1-1C147.6,16.9,147.8,16.8,148.1,16.7L148.1,16.7z M144.7,21.3c0,0,0,0.1,0,0.1
	C144.7,21.4,144.7,21.3,144.7,21.3L144.7,21.3z M144.6,21.3C144.6,21.3,144.6,21.4,144.6,21.3C144.6,21.4,144.6,21.3,144.6,21.3
	L144.6,21.3z"/>
<path class="st0" d="M165.9,10.3c-1,0.2-1.9,0.5-2.9,1c-1.4,0.6-2.7,1.6-3.7,2.8c-0.8,0.9-1.5,2-2.1,3.1c-0.3-0.8-0.6-1.5-1-2.2
	c-0.3-0.6-1.1-0.8-1.7-0.4c-0.6,0.3-0.8,1.1-0.4,1.7c0.2,0.4,0.4,0.8,0.6,1.3c0.4,0.9,0.6,1.8,0.9,2.7c0.1,0.4,0.3,0.8,0.4,1.2
	c0,0.1,0,0.2,0,0.3c0,0.4,0.1,0.9,0.2,1.3c0.2,0.5,0.6,0.9,1.2,0.9c0.7,0,1.3-0.6,1.3-1.3c0-0.4,0-0.8-0.1-1.1c0,0,0-0.1,0-0.1
	c0-0.1,0-0.1,0-0.2c0.1-0.7,0.3-1.4,0.6-2.1c0.4-1,1-1.8,1.6-2.7c0.5-0.7,1.2-1.3,1.8-1.8c0.7-0.5,1.4-0.9,2.2-1.3
	c0.6-0.2,1.1-0.4,1.7-0.6c0.6-0.2,1-0.9,0.9-1.5c-0.2-0.6-0.7-0.9-1.2-0.9C166.1,10.2,166,10.2,165.9,10.3L165.9,10.3z"/>
<path class="st0" d="M175.1,2.6c-0.3,0.3-0.5,0.7-0.5,1.2c-0.3,3.7-0.6,7.5-0.8,11.2c0,0.5-0.1,1-0.1,1.5c-0.1,1.2-0.3,2.5-0.2,3.7
	c0,0.4,0.1,0.8,0.2,1.2c0.1,0.4,0.3,0.8,0.5,1.2c0.3,0.7,0.9,1.3,1.6,1.7c0.8,0.3,1.6,0.5,2.4,0.4c0.5,0,1-0.1,1.4-0.2
	c0.4-0.1,0.8-0.3,1.1-0.5c0.5-0.3,0.8-1,0.6-1.6c-0.2-0.7-1-1.2-1.7-1c-0.2,0-0.3,0.1-0.5,0.1c-0.3,0-0.7,0-1,0
	c-0.3-0.1-0.6-0.1-0.9-0.2c-0.1-0.1-0.1-0.2-0.2-0.4c-0.1-0.3-0.2-0.6-0.2-0.9c-0.1-1.2,0.1-2.3,0.2-3.5c0-0.2,0-0.4,0-0.7
	c0.1-1.2,0.2-2.4,0.3-3.6c0.2-2.9,0.4-5.7,0.6-8.6c0.1-0.9-0.8-1.7-1.7-1.7C175.8,2.1,175.4,2.3,175.1,2.6L175.1,2.6z M177.1,21.2
	C177.1,21.2,177.1,21.2,177.1,21.2C177.1,21.2,177.1,21.2,177.1,21.2L177.1,21.2z M177.1,21.2c0,0,0.1,0.1,0.1,0.1
	C177.1,21.3,177.1,21.2,177.1,21.2L177.1,21.2z"/>
<path class="st0" d="M183.3,7.4c-1.6,0.8-3,1.9-4.5,2.9c-0.6,0.4-1.2,0.9-1.8,1.3c-1,0.7-2,1.4-3,2.2c-0.2,0.2-0.4,0.3-0.5,0.6
	c-0.1,0.3,0,0.6,0.1,0.8c0.1,0.2,0.4,0.4,0.6,0.5c0.2,0.1,0.6,0.1,0.8-0.1c1.6-1.2,3.1-2.3,4.7-3.5c1.4-1.1,2.9-2.2,4.4-3.2
	c0.4-0.3,0.6-0.8,0.3-1.2c-0.2-0.3-0.5-0.4-0.8-0.4C183.6,7.3,183.5,7.3,183.3,7.4L183.3,7.4z"/>
<path class="st0" d="M192.8,11.5c-0.2,0-0.3,0-0.5,0.1c-0.3,0.1-0.5,0.2-0.8,0.3c-0.3,0.1-0.5,0.3-0.8,0.5c-0.6,0.4-1,0.9-1.5,1.4
	c-0.5,0.5-0.9,1-1.3,1.6c-0.4,0.5-0.8,1.1-1.2,1.7c-0.4,0.6-0.7,1.2-0.8,1.9c-0.1,0.3-0.1,0.6-0.1,1c0,0.4,0.1,0.8,0.3,1.2
	c0.1,0.3,0.4,0.5,0.6,0.7c0.3,0.3,0.7,0.4,1.1,0.5c0.7,0.2,1.5,0.1,2.1-0.2c0.7-0.3,1.3-0.7,1.9-1.2c0.5-0.4,0.9-1,1.3-1.6
	c0.4-0.6,0.8-1.3,1.1-2c0,0,0,0.1,0.1,0.1c0.3,0.7,0.7,1.4,1.2,2.1c0.5,0.6,1,1.2,1.6,1.8c0.2,0.2,0.5,0.4,0.9,0.4
	c0.3,0,0.6-0.1,0.9-0.4c0.5-0.5,0.5-1.2,0-1.7c-0.6-0.6-1.1-1.2-1.6-1.8c-0.6-0.8-1-1.6-1.4-2.5c-0.2-0.6-0.4-1.1-0.9-1.5
	c0-0.1-0.1-0.2-0.1-0.4c-0.3-0.5-0.5-1.1-0.9-1.5c-0.1-0.1-0.1-0.1-0.2-0.2c-0.1-0.1-0.3-0.3-0.5-0.3
	C193.1,11.5,193,11.5,192.8,11.5C192.8,11.5,192.8,11.5,192.8,11.5L192.8,11.5z M192.9,13.3c0,0,0.1,0,0.1,0
	C193,13.3,193,13.3,192.9,13.3L192.9,13.3z M192.7,13.3C192.8,13.4,192.8,13.4,192.7,13.3C192.8,13.4,192.8,13.4,192.7,13.3
	C192.7,13.3,192.7,13.3,192.7,13.3L192.7,13.3z M192.7,13.3c0.1,0.1,0.2,0.2,0.2,0.4c0.1,0.2,0.2,0.4,0.3,0.6c0,0,0,0.1-0.1,0.1
	c-0.1,0.2-0.1,0.3-0.2,0.5c-0.2,0.4-0.3,0.7-0.5,1.1c-0.5,0.9-0.9,1.8-1.5,2.6c-0.3,0.3-0.6,0.6-0.9,0.9c-0.3,0.2-0.6,0.4-0.9,0.5
	c-0.2,0.1-0.3,0.1-0.5,0.1c-0.1,0-0.2,0-0.4,0c-0.1,0-0.1,0-0.2,0c0,0-0.1-0.1-0.1-0.1c0,0,0,0,0-0.1c0-0.1,0-0.1-0.1-0.2
	c0-0.1,0-0.3,0-0.4c0-0.2,0.1-0.5,0.2-0.7c0.2-0.5,0.5-0.9,0.8-1.4c0.3-0.5,0.6-1,1-1.4c0.5-0.7,1-1.3,1.7-1.9
	c0.3-0.2,0.6-0.4,1-0.6C192.7,13.4,192.7,13.4,192.7,13.3L192.7,13.3z M195.9,15.5C195.9,15.5,195.9,15.5,195.9,15.5
	C195.9,15.5,195.9,15.5,195.9,15.5L195.9,15.5z M188.3,20.2C188.3,20.2,188.3,20.2,188.3,20.2C188.3,20.2,188.3,20.2,188.3,20.2
	L188.3,20.2z"/>
<path class="st0" d="M206.5,10.4c-0.1,0.1-0.3,0.2-0.4,0.3c-0.1,0.1-0.2,0.2-0.3,0.3c-0.2,0.2-0.3,0.4-0.5,0.5
	c-0.1-0.1-0.2-0.1-0.4-0.1c-0.4-0.1-0.8,0-1.1,0.1c-0.3,0.2-0.6,0.5-0.7,0.9c-0.2,1.3-0.4,2.5-0.6,3.8c-0.1,0.4-0.1,0.8-0.2,1.2
	c-0.1,0.5-0.3,0.9-0.4,1.4c-0.2,0.7-0.2,1.3-0.3,2c0,0.6,0.5,1.2,1.1,1.4c0.4,0.1,0.8,0,1.1-0.1c0.3-0.2,0.5-0.5,0.7-0.9
	c0.1-0.2,0.2-0.4,0.2-0.7c0.1-0.3,0.1-0.7,0.2-1c0.1-0.4,0.1-0.7,0.2-1.1c0-0.3,0.1-0.5,0.1-0.8c0.2-0.8,0.5-1.5,0.8-2.2
	c0.4-0.8,0.8-1.6,1.3-2.3c0.2-0.2,0.3-0.4,0.5-0.6c0.1,0,0.1,0,0.2,0c0,0,0.1,0,0.1,0c0,0,0.1,0.1,0.1,0.1c0.2,0.2,0.4,0.4,0.6,0.6
	c0.3,0.4,0.5,0.9,0.7,1.4c0.7,1.6,1,3.4,1.2,5.2c0,0.1,0,0.2,0,0.4c0,0.3,0.1,0.6,0.4,0.9c0.2,0.2,0.5,0.4,0.9,0.4
	c0.6,0,1.3-0.6,1.2-1.2c-0.1-1.1-0.3-2.2-0.5-3.3c-0.2-1.1-0.6-2.3-1.1-3.3c-0.3-0.6-0.5-1.1-0.9-1.6c-0.4-0.5-0.8-1-1.3-1.4
	c-0.5-0.3-1-0.5-1.5-0.5c-0.1,0-0.2,0-0.3,0C207.4,10,206.9,10.2,206.5,10.4L206.5,10.4z"/>
<path class="st0" d="M223.7,9.4c-0.6,0.2-1,0.6-1.5,0.9c-0.5,0.4-0.9,0.9-1.3,1.3c-0.4,0.5-0.9,1-1.3,1.6c-0.4,0.6-0.8,1.1-1.2,1.7
	c-0.2,0.3-0.4,0.5-0.5,0.8c-0.2,0.3-0.3,0.6-0.4,1c-0.1,0.3-0.2,0.6-0.2,0.9c-0.1,0.4-0.1,0.7-0.1,1.1c0,0.7,0.2,1.3,0.5,1.9
	c0.2,0.3,0.4,0.6,0.6,0.8c0.2,0.2,0.4,0.4,0.6,0.6c0.5,0.4,1.1,0.8,1.7,1.1c0.6,0.3,1.3,0.5,2,0.6c0.4,0.1,0.8,0.1,1.1,0.1
	c0.4,0,0.7,0,1.1,0c0.8-0.1,1.6-0.1,2.4-0.3c0.2-0.1,0.4-0.2,0.6-0.3c0.2-0.2,0.4-0.6,0.4-0.9c0-0.3-0.1-0.7-0.4-0.9
	c-0.2-0.2-0.6-0.4-0.9-0.4c-0.5,0.1-1.1,0.1-1.6,0.2c-0.7,0-1.3,0.1-2,0c-0.5-0.1-0.9-0.2-1.3-0.3c-0.5-0.2-1-0.5-1.4-0.8
	c-0.2-0.2-0.5-0.4-0.7-0.6c-0.1-0.1-0.2-0.3-0.2-0.4c-0.1-0.2-0.1-0.4-0.2-0.7c0-0.2,0-0.4,0-0.7c0.1-0.3,0.1-0.5,0.2-0.8
	c0.3-0.6,0.6-1.1,0.9-1.6c0.3-0.6,0.7-1.2,1.1-1.7c0.6-0.7,1.2-1.5,1.9-2.1c0.3-0.2,0.6-0.4,0.9-0.5c0.2-0.1,0.3-0.1,0.5-0.2
	c0,0,0,0,0,0c0,0.1,0,0.1,0,0.2c0,0.1,0,0.3,0,0.4c0,0.5,0.4,0.9,0.9,0.9c0.5,0,0.9-0.4,0.9-0.9c0-0.3,0-0.6-0.1-0.8
	c-0.1-0.3-0.2-0.5-0.3-0.8c-0.2-0.5-0.8-0.9-1.3-0.9c0,0,0,0-0.1,0C224.7,9,224.2,9.1,223.7,9.4L223.7,9.4z M225.2,11.1
	C225.2,11.1,225.2,11.1,225.2,11.1C225.2,11.1,225.2,11.1,225.2,11.1L225.2,11.1z"/>
<path class="st0" d="M237.9,10.5c-0.4,0.1-0.9,0.3-1.3,0.5c-0.8,0.5-1.6,1.1-2.2,1.9c-0.6,0.7-1,1.4-1.4,2.2
	c-0.4-0.1-0.7-0.1-1.1-0.3c-0.1,0-0.1-0.1-0.2-0.1c-0.5-0.3-1.2-0.1-1.5,0.4c-0.3,0.5-0.1,1.2,0.4,1.5c0.6,0.3,1.3,0.5,1.9,0.6
	c0,0.3,0,0.6,0.1,0.9c0.1,0.4,0.2,0.8,0.4,1.2c0.2,0.4,0.4,0.7,0.7,1c0.2,0.3,0.5,0.6,0.9,0.8c0.4,0.3,0.8,0.6,1.2,0.9
	c0.7,0.4,1.6,0.7,2.4,1c1,0.3,1.9,0.4,2.9,0.4c1,0,1.9-0.1,2.9-0.3c1-0.2,2-0.4,3-0.7c2.1-0.6,4.2-1.1,6.3-1.8
	c0.3-0.1,0.6-0.3,0.8-0.6c0.2-0.3,0.2-0.7,0.1-1c-0.2-0.7-1-1.2-1.7-0.9c-1.1,0.4-2.2,0.6-3.3,0.9c-0.8,0.2-1.5,0.4-2.3,0.6
	c-0.7,0.2-1.5,0.4-2.3,0.6c-0.7,0.2-1.4,0.3-2.1,0.4c-0.9,0.1-1.8,0.1-2.7,0c-0.8-0.1-1.6-0.3-2.3-0.6c-0.5-0.2-1-0.6-1.5-0.9
	c-0.2-0.2-0.4-0.4-0.6-0.6c-0.1-0.1-0.1-0.2-0.2-0.3c-0.1-0.2-0.1-0.4-0.2-0.6c0-0.1,0-0.1,0-0.2c0.4,0,0.7-0.1,1-0.2
	c0.9-0.2,1.7-0.6,2.4-1.1c0.4-0.2,0.7-0.5,1-0.8c0.3-0.3,0.6-0.7,0.9-1c0.3-0.3,0.6-0.7,0.7-1.1c0.1-0.4,0.1-0.8,0-1.2
	c-0.1-0.4-0.4-0.8-0.7-1.1c-0.4-0.3-0.8-0.3-1.3-0.4c-0.1,0-0.2,0-0.2,0C238.5,10.4,238.2,10.5,237.9,10.5L237.9,10.5z M239,12.7
	C239,12.7,239,12.7,239,12.7L239,12.7C239,12.7,239,12.7,239,12.7C239,12.7,239,12.7,239,12.7L239,12.7z M238.8,12.7
	c-0.4,0.5-0.8,1-1.3,1.5c-0.4,0.3-0.8,0.5-1.2,0.7c-0.2,0.1-0.3,0.1-0.5,0.2c0.1-0.2,0.3-0.4,0.4-0.6c0.3-0.3,0.6-0.6,0.9-0.9
	c0.3-0.2,0.7-0.4,1-0.6c0.2-0.1,0.3-0.1,0.5-0.1C238.7,12.7,238.8,12.7,238.8,12.7L238.8,12.7z M239.2,12.7
	C239.2,12.7,239.2,12.7,239.2,12.7C239.2,12.7,239.2,12.7,239.2,12.7L239.2,12.7z"/>
<path class="st0" d="M280.7,11.3c-0.1,0-0.2,0-0.3,0c-0.4,0-0.8,0-1.1,0.1c-0.5,0.1-1,0.2-1.4,0.5c-1.5,0.7-2.8,1.9-3.4,3.4
	c-0.2,0.4-0.3,0.8-0.4,1.2c-0.1,0.6-0.1,1.1,0,1.7c0.1,0.8,0.4,1.6,0.9,2.3c0.5,0.7,1,1.2,1.7,1.6c0.7,0.5,1.6,0.7,2.5,0.8
	c0.9,0.1,1.9,0,2.8-0.4c0.8-0.4,1.5-1,2.1-1.8c0.5-0.7,0.9-1.5,1.1-2.3c0.2-1,0.2-1.9-0.1-2.9c-0.2-0.9-0.7-1.7-1.3-2.4
	c-0.5-0.6-1.1-1.2-1.8-1.5c-0.3-0.1-0.5-0.2-0.8-0.2C281,11.3,280.8,11.3,280.7,11.3L280.7,11.3z M280.5,14.4c0,0,0.1,0,0.1,0
	c0.1,0.1,0.1,0.1,0.2,0.2c0.1,0.1,0.1,0.2,0.2,0.3c0,0.1,0.1,0.2,0.1,0.4c0,0.1,0,0.3,0,0.4c0,0.1,0,0.2-0.1,0.3
	c-0.2,0.7,0.1,1.4,0.7,1.7c0,0.1-0.1,0.2-0.1,0.3c-0.1,0.2-0.3,0.5-0.4,0.7c-0.1,0.1-0.3,0.3-0.4,0.4c-0.1,0.1-0.3,0.2-0.4,0.2
	c-0.1,0-0.2,0.1-0.3,0.1c-0.3,0-0.5,0-0.8,0c-0.2,0-0.4-0.1-0.6-0.2c-0.2-0.1-0.4-0.2-0.5-0.3c-0.1-0.1-0.3-0.3-0.4-0.4
	c-0.1-0.2-0.2-0.3-0.3-0.5c-0.1-0.2-0.1-0.4-0.2-0.6c0-0.2,0-0.4,0-0.5c0-0.1,0.1-0.3,0.1-0.4c0.1-0.3,0.3-0.5,0.5-0.8
	c0.2-0.2,0.4-0.4,0.6-0.6c0.3-0.2,0.5-0.4,0.8-0.5c0.2-0.1,0.4-0.1,0.7-0.2C280.1,14.4,280.3,14.4,280.5,14.4L280.5,14.4z
	 M281.1,15.4c0,0,0,0.1,0,0.1C281.1,15.5,281.1,15.5,281.1,15.4L281.1,15.4z"/>
<path class="st0" d="M294.4,2.1c-0.3,0.2-0.6,0.4-0.9,0.7c-0.3,0.3-0.6,0.7-0.9,1.1c-0.5,0.7-0.8,1.4-1.2,2.2
	c-0.4,0.9-0.7,1.8-1,2.7c-0.2,0.9-0.5,1.8-0.6,2.7c-0.2,1.1-0.4,2.2-0.5,3.3c-0.2,2.1-0.3,4.2-0.4,6.3c-0.1,1.4-0.2,2.9-0.4,4.3
	c0,0.2-0.1,0.5-0.1,0.7c-0.2,0.8,0.2,1.6,1.1,1.9c0.8,0.2,1.6-0.3,1.9-1.1c0.4-1.1,0.5-2.2,0.5-3.4c0.1-0.8,0.1-1.7,0.1-2.5
	c0-0.8,0-1.6,0-2.4c0-1.9,0.1-3.8,0.4-5.7c0.1-1,0.4-1.9,0.6-2.9c0.2-0.9,0.5-1.8,0.8-2.6c0.4-0.8,0.8-1.7,1.3-2.4
	c0.1-0.1,0.2-0.3,0.4-0.4c0,0,0.1-0.1,0.1-0.1c0,0,0.1,0,0.1,0c0.2,0,0.3,0.1,0.5,0.1c0.1,0,0.1,0.1,0.2,0.1
	c0.9,0.8,1.7,1.7,2.4,2.7c0.2,0.3,0.6,0.4,0.9,0.4c0.3,0,0.7-0.1,0.9-0.4c0.2-0.2,0.4-0.6,0.4-0.9c0-0.4-0.2-0.6-0.4-0.9
	c-0.5-0.7-1.1-1.3-1.7-2c-0.3-0.3-0.5-0.5-0.8-0.8c-0.4-0.4-0.8-0.6-1.3-0.8c-0.4-0.1-0.8-0.2-1.2-0.2c-0.1,0-0.1,0-0.2,0
	C295.2,1.7,294.8,1.9,294.4,2.1L294.4,2.1z M296,4.3c-0.1,0-0.1,0-0.2,0C295.9,4.4,295.9,4.4,296,4.3L296,4.3z"/>
<path class="st0" d="M297.5,12.4c-1.3,0.1-2.5,0.3-3.8,0.5c-2.5,0.4-5,1.2-7.3,2.5c-0.5,0.3-0.7,1-0.4,1.5c0.3,0.5,1,0.7,1.5,0.4
	c0.6-0.3,1.1-0.6,1.7-0.8c1.1-0.5,2.3-0.8,3.5-1.1c0.7-0.2,1.4-0.3,2.1-0.4c1-0.2,2-0.4,3-0.5c0.2,0,0.3-0.1,0.5-0.3
	c0.2-0.2,0.3-0.5,0.3-0.7c0-0.3-0.1-0.5-0.3-0.7C298.1,12.5,297.8,12.4,297.5,12.4C297.5,12.4,297.5,12.4,297.5,12.4L297.5,12.4z
	 M289.2,16.5c0,0-0.1,0-0.1,0C289.2,16.5,289.2,16.5,289.2,16.5L289.2,16.5z"/>
<path class="st0" d="M318.5,2.9c-0.4,0.4-0.5,0.8-0.6,1.4c-0.4,4.5-0.8,9-1.2,13.5c-0.3,3.9-0.7,7.8-0.9,11.6
	c-0.1,1,0.9,1.9,1.9,1.9c0.5,0,1-0.2,1.3-0.6c0.4-0.4,0.5-0.8,0.6-1.3c0.7-8.4,1.5-16.8,2.2-25.2c0-0.5-0.2-1-0.6-1.4
	c-0.4-0.4-0.9-0.6-1.4-0.6C319.4,2.3,318.9,2.5,318.5,2.9L318.5,2.9z"/>
<path class="st0" d="M320.9,11c-0.2,0.1-0.4,0.3-0.6,0.5c-0.3,0.2-0.6,0.4-0.8,0.7c-0.5,0.4-0.9,1-1.2,1.5c-0.2,0.2-0.3,0.5-0.4,0.8
	c-0.2,0.3-0.3,0.7-0.4,1.1c-0.1,0.6,0.2,1.2,0.7,1.3c0.5,0.2,1.2-0.2,1.3-0.7c0-0.2,0.1-0.4,0.1-0.5c0.2-0.4,0.4-0.8,0.6-1.1
	c0.3-0.4,0.7-0.7,1.1-1.1c0.3-0.2,0.6-0.4,0.9-0.6c0.1,0,0.2,0,0.2,0.1c0.2,0.1,0.3,0.2,0.5,0.3c0.1,0.1,0.2,0.2,0.3,0.3
	c0.1,0.1,0.2,0.2,0.2,0.4c0.1,0.4,0.2,0.8,0.3,1.2c0.1,0.5,0.1,0.9,0,1.4c-0.1,0.6-0.3,1.2-0.5,1.8c-0.4,1-1,1.9-1.7,2.8
	c-0.7,0.9-1.5,1.9-2.4,2.7c-0.1,0.1-0.3,0.2-0.5,0.3c-0.7,0.4-0.9,1.3-0.5,1.9c0.2,0.3,0.5,0.5,0.8,0.6c0.4,0.1,0.7,0,1.1-0.1
	c0.3-0.1,0.5-0.3,0.7-0.5c0.2-0.2,0.4-0.3,0.6-0.5c0.4-0.4,0.7-0.8,1-1.2c0.3-0.4,0.6-0.9,1-1.3c1.5-2.1,2.8-4.5,2.7-7.1
	c0-0.5-0.1-1.1-0.2-1.6c-0.1-0.6-0.3-1.1-0.6-1.6c-0.3-0.5-0.7-0.8-1.1-1.2c-0.2-0.2-0.4-0.3-0.7-0.4c-0.3-0.2-0.7-0.3-1.1-0.3
	c0,0-0.1,0-0.1,0C321.8,10.5,321.3,10.7,320.9,11L320.9,11z M322.1,12.7C322.1,12.7,322.1,12.7,322.1,12.7
	C322.1,12.7,322.1,12.7,322.1,12.7L322.1,12.7z M322.2,12.7c0,0-0.1,0-0.1,0.1C322.1,12.7,322.1,12.7,322.2,12.7L322.2,12.7z"/>
<path class="st0" d="M335,10.2c-0.7,0.2-1.4,0.8-1.9,1.2c-0.5,0.5-1,1.1-1.4,1.7c-0.2,0-0.3,0.1-0.5,0.2c-0.3,0.2-0.4,0.4-0.5,0.7
	c-0.1,0.3,0,0.6,0.1,0.9c-0.3,0.9-0.5,1.7-0.5,2.7c0,0.7,0.1,1.5,0.4,2.2c0.3,0.7,0.7,1.4,1.3,1.9c0.5,0.5,1.1,0.8,1.8,1
	c0.7,0.2,1.4,0.3,2.1,0.4c0.8,0.1,1.6,0,2.4,0c0.4,0,0.7-0.1,0.9-0.4c0.2-0.2,0.4-0.6,0.4-0.9c0-0.7-0.6-1.3-1.3-1.3
	c-0.9,0-1.7,0-2.6-0.1c-0.5-0.1-0.9-0.2-1.4-0.4c-0.2-0.1-0.3-0.2-0.5-0.3c-0.2-0.1-0.3-0.3-0.5-0.5c-0.1-0.2-0.2-0.3-0.3-0.5
	c-0.1-0.3-0.2-0.6-0.2-0.9c0-0.4,0-0.8,0-1.2c0.1-0.3,0.1-0.7,0.3-1c0.1,0,0.2,0,0.2,0c0.8-0.1,1.5-0.3,2.2-0.6
	c0.6-0.2,1.1-0.6,1.5-1.1c0.3-0.3,0.5-0.6,0.6-0.9c0.1-0.3,0.2-0.6,0.2-0.9c0-0.3-0.1-0.5-0.1-0.8c0-0.1-0.1-0.3-0.2-0.4
	c-0.1-0.2-0.3-0.4-0.5-0.5c-0.3-0.2-0.7-0.3-1-0.3c-0.1,0-0.1,0-0.2,0C335.5,10.1,335.2,10.2,335,10.2L335,10.2z M335.5,12
	c0,0,0,0.1,0.1,0.1C335.5,12,335.5,12,335.5,12L335.5,12z"/>
<path class="st0" d="M343.9,11.5c-0.3,0.1-0.7,0.2-1,0.3c-0.3,0.1-0.6,0.3-0.9,0.4c-0.3,0.2-0.4,0.6-0.2,0.9
	c0.2,0.3,0.6,0.4,0.9,0.2c0.3-0.1,0.5-0.3,0.8-0.4c0.2-0.1,0.5-0.2,0.7-0.2c0.4-0.1,0.6-0.5,0.5-0.9c-0.1-0.3-0.4-0.5-0.7-0.5
	C344,11.5,344,11.5,343.9,11.5L343.9,11.5z"/>
<path class="st0" d="M342.5,15.5c-0.2,1.1-0.5,2.2-0.7,3.3c-0.2,1.1-0.5,2.3-0.5,3.4c0,0.6,0.5,1.1,1.1,1.1c0.6,0,1.1-0.5,1.1-1.1
	c0-0.2,0-0.4,0-0.6c0.1-0.8,0.3-1.6,0.4-2.4c0.2-1,0.4-2,0.6-3.1c0.1-0.3,0-0.6-0.1-0.9c-0.2-0.3-0.4-0.4-0.7-0.5
	c-0.1,0-0.2,0-0.3,0C343.2,14.7,342.6,15,342.5,15.5L342.5,15.5z"/>
<path class="st0" d="M353.5,12.4c-0.5,0.4-1,0.8-1.5,1.3c-0.3,0.3-0.6,0.6-0.9,0.9c-0.1,0.1-0.1,0.1-0.2,0.2
	c-0.3-0.5-0.8-0.8-1.3-0.8c-0.8,0-1.6,0.7-1.6,1.6c0,0.9,0.2,1.7,0.3,2.6c0.1,0.4,0.4,0.7,0.7,0.9c0.5,0.3,1.1,0.3,1.6,0
	c0.5-0.3,1-0.6,1.4-1c0.4-0.4,0.7-0.8,1-1.2c0.3-0.4,0.6-0.7,0.9-1c0.4-0.5,0.9-1,1.4-1.4c0,0,0,0,0,0c0,0,0,0,0.1,0
	c0,0,0.1,0,0.1,0c0,0,0.1,0.1,0.1,0.1c0.1,0.1,0.3,0.3,0.4,0.4c0.2,0.3,0.4,0.6,0.5,1c0.3,0.7,0.4,1.4,0.5,2.2
	c0.1,0.6,0.1,1.1,0.1,1.7c0,0.7,0.6,1.3,1.3,1.3c0.7,0,1.3-0.6,1.3-1.3c0.1-1.3-0.1-2.6-0.5-3.9c-0.5-1.6-1.5-3.5-3.3-3.9
	c-0.2-0.1-0.4-0.1-0.6-0.1C354.7,11.8,354,12,353.5,12.4L353.5,12.4z M355.4,14.3C355.4,14.4,355.4,14.4,355.4,14.3
	C355.4,14.4,355.4,14.4,355.4,14.3L355.4,14.3z M355.5,14.4C355.5,14.4,355.5,14.4,355.5,14.4C355.5,14.4,355.5,14.4,355.5,14.4
	L355.5,14.4z M355.5,14.5c0,0,0.1,0,0.1,0.1C355.6,14.5,355.5,14.5,355.5,14.5L355.5,14.5z M355.1,14.5
	C355.1,14.5,355.1,14.6,355.1,14.5C355.1,14.6,355.1,14.5,355.1,14.5L355.1,14.5z"/>
<path class="st0" d="M368.3,11c-0.6,0.2-1.2,0.5-1.8,0.8c-0.3,0.2-0.5,0.4-0.7,0.5c-0.3,0.2-0.5,0.4-0.7,0.7c-0.5,0.6-0.7,1.2-0.8,2
	c0,0.3,0,0.6,0,0.9c0.1,0.4,0.2,0.7,0.4,1c0.1,0.3,0.4,0.5,0.6,0.8c0.2,0.3,0.6,0.5,0.9,0.7c0.3,0.2,0.6,0.3,0.9,0.4
	c0.4,0.1,0.8,0.2,1.2,0.3c0.9,0.1,1.7-0.1,2.5-0.4c0.2,1.1,0.4,2.1,0.6,3.2c0.1,0.9,0.1,1.7,0,2.6c-0.1,0.7-0.3,1.3-0.5,1.9
	c-0.2,0.5-0.5,0.9-0.8,1.4c-0.5,0.6-1.1,1.2-1.7,1.7c-1.1,0.8-2.2,1.4-3.4,1.9c-1.3,0.6-2.7,1.1-4.1,1.5c-1.5,0.4-3,0.7-4.5,1
	c-1.1,0.1-2.2,0.3-3.3,0.4c-1.4,0.2-2.8,0.4-4.3,0.4c-0.4,0-0.7,0.1-0.9,0.4c-0.3,0.2-0.4,0.6-0.4,0.9c0,0.7,0.6,1.4,1.3,1.3
	c1.5-0.1,3.1-0.2,4.6-0.4c1.7-0.2,3.4-0.4,5.1-0.7c1.9-0.3,3.9-0.9,5.7-1.6c0.9-0.3,1.7-0.7,2.6-1.1c0.9-0.4,1.7-0.8,2.5-1.3
	c0.8-0.5,1.5-1.1,2.1-1.7c0.7-0.7,1.3-1.4,1.8-2.3c0.4-0.8,0.7-1.7,1-2.5c0.2-1,0.3-2,0.3-3c-0.1-1.9-0.6-3.7-0.9-5.6
	c0-0.2-0.1-0.4-0.1-0.6c0.1-0.2,0.2-0.4,0.3-0.7c0.1-0.3,0.1-0.7,0.1-1c0.1-0.3,0.2-0.6,0.2-0.9c0.1-0.3,0.1-0.6,0.1-0.8
	c0-0.2,0-0.3,0-0.5c0-0.2-0.1-0.4-0.2-0.6c-0.1-0.2-0.3-0.5-0.5-0.7c-0.2-0.2-0.5-0.4-0.9-0.6c-0.6-0.3-1.4-0.4-2.1-0.4
	C369.5,10.8,368.9,10.9,368.3,11L368.3,11z M370.8,13c0.2,0,0.4,0.1,0.6,0.2c0,0,0.1,0,0.1,0.1c0.1,0.1,0.1,0.1,0.2,0.2
	c0,0.2-0.1,0.3-0.1,0.5c0,0,0,0,0,0c-0.3,0.1-0.6,0.3-0.8,0.6c-0.1,0.2-0.2,0.5-0.3,0.7c0,0.1-0.1,0.3-0.1,0.4
	c-0.2,0.2-0.5,0.3-0.8,0.4c-0.3,0.1-0.5,0.2-0.8,0.2c-0.2,0-0.5,0-0.7,0c-0.2,0-0.4-0.1-0.6-0.2c-0.1,0-0.2-0.1-0.3-0.1
	c-0.1-0.1-0.2-0.2-0.3-0.3c-0.1-0.1-0.1-0.2-0.2-0.3c0,0,0,0,0-0.1c0-0.1,0-0.2,0-0.3c0-0.1,0-0.2,0.1-0.3c0-0.1,0.1-0.2,0.1-0.2
	c0.2-0.3,0.5-0.5,0.7-0.7c0.3-0.2,0.6-0.4,0.9-0.5c0.4-0.1,0.7-0.2,1.1-0.3C370.1,13,370.4,13,370.8,13L370.8,13z M365,31.3
	c-0.1,0-0.2,0.1-0.3,0.1C364.8,31.4,364.9,31.3,365,31.3L365,31.3z"/>
<path class="st0" d="M390.9,2.1c-0.1,2.8-0.2,5.6-0.3,8.4c0,1.3-0.1,2.5-0.1,3.8c0,1.3,0.2,2.6,0.6,3.9c0.2,0.6,0.4,1.2,0.7,1.8
	c0.1,0.3,0.3,0.5,0.4,0.7c0.2,0.4,0.4,0.7,0.7,1c0.1,0,0.1,0.1,0.2,0.2c0.2,0.2,0.4,0.3,0.6,0.4c0.3,0.2,0.6,0.2,0.9,0.3
	c0.3,0.1,0.7,0.1,1,0.1c0.3,0,0.7-0.1,1-0.1c0.6-0.1,1.2-0.4,1.7-0.7c0.6-0.3,1.2-0.8,1.7-1.3c0.8-0.8,1.4-1.8,2.1-2.7
	c0.3-0.5,0.6-1,0.8-1.6c0.3-0.7,0.2-1.4,0-2c-0.2-0.6-0.5-1.1-1-1.5c-0.4-0.4-0.9-0.7-1.4-0.9c-1.1-0.6-2.4-0.8-3.6-1.1
	c-0.6-0.1-1.3-0.2-1.9-0.3c-0.2,0-0.5,0-0.8-0.1c0-0.5,0-1,0.1-1.4c0.1-2.3,0.2-4.5,0.3-6.8c0-0.9-0.8-1.7-1.7-1.7
	C391.7,0.3,391,1.1,390.9,2.1L390.9,2.1z M394.3,13.7c1.4,0.2,2.9,0.4,4.2,0.9c0.3,0.1,0.6,0.3,0.8,0.5c0,0,0,0,0.1,0.1
	c-0.2,0.3-0.3,0.5-0.5,0.8c-0.3,0.4-0.6,0.8-0.9,1.2c-0.4,0.4-0.8,0.8-1.2,1.2c-0.2,0.2-0.5,0.3-0.7,0.4c-0.2,0.1-0.4,0.1-0.5,0.2
	c-0.1,0-0.2,0-0.2,0c-0.2-0.3-0.4-0.7-0.5-1c-0.3-0.8-0.5-1.7-0.7-2.6c-0.1-0.5-0.1-1-0.1-1.6C394.1,13.8,394.2,13.8,394.3,13.7
	L394.3,13.7z M399.6,15.4C399.6,15.4,399.6,15.5,399.6,15.4C399.6,15.5,399.6,15.4,399.6,15.4L399.6,15.4z M395.3,18.9
	C395.3,19,395.3,19,395.3,18.9C395.3,19,395.3,19,395.3,18.9C395.3,19,395.3,19,395.3,18.9L395.3,18.9z M395.4,19
	C395.4,19,395.4,19,395.4,19C395.4,19,395.4,19,395.4,19C395.4,19,395.4,19,395.4,19L395.4,19z M395.4,19
	C395.4,19,395.5,19,395.4,19C395.5,19,395.4,19,395.4,19C395.4,19,395.4,19,395.4,19L395.4,19z M395.5,19.2c0,0,0.1,0.1,0.1,0.1
	C395.6,19.3,395.5,19.2,395.5,19.2C395.5,19.2,395.5,19.2,395.5,19.2L395.5,19.2z"/>
<path class="st0" d="M411.6,9.6c-0.4,0-0.8,0.1-1.2,0.2c-1.3,0.4-2.4,1.4-3.5,2.3c-0.4,0.4-0.8,0.8-1.2,1.3
	c-0.4,0.5-0.9,0.9-1.3,1.4c-0.2,0.2-0.4,0.5-0.6,0.7c-0.2,0.3-0.4,0.6-0.5,1c-0.1,0.3-0.1,0.6,0,0.9c0,0.2,0,0.5,0.1,0.7
	c0.1,0.2,0.2,0.4,0.3,0.6c0.3,0.5,0.7,0.9,1.3,1.2c0.6,0.3,1.3,0.5,2,0.6c1.4,0.1,2.8-0.3,4-1c0.9-0.6,1.6-1.4,2.2-2.3
	c0.5,0.9,1.1,1.8,1.8,2.6c0.5,0.6,1.6,0.6,2.2,0c0.3-0.3,0.4-0.7,0.4-1.1c0-0.4-0.2-0.8-0.4-1.1c-0.1-0.1-0.2-0.2-0.2-0.3
	c-0.8-1.1-1.4-2.3-2-3.5c-0.1-0.3-0.2-0.5-0.3-0.8c0-0.2,0-0.4-0.1-0.6c0,0,0-0.1,0.1-0.1c0.2-0.4,0.3-0.9,0.2-1.3
	c-0.1-0.5-0.4-0.8-0.8-1c-0.2-0.1-0.5-0.3-0.7-0.3c-0.3-0.1-0.6-0.1-0.9-0.1c-0.1,0-0.1,0-0.2,0C412,9.5,411.8,9.6,411.6,9.6
	L411.6,9.6z M411.7,13.1C411.7,13.1,411.7,13.1,411.7,13.1c0,0.1-0.1,0.3-0.1,0.4c-0.3,0.7-0.7,1.3-1.1,2c-0.3,0.3-0.6,0.6-0.9,0.9
	c-0.2,0.1-0.4,0.3-0.6,0.4c-0.3,0.1-0.6,0.2-0.9,0.2c-0.3,0-0.5,0-0.8,0c0,0,0,0,0,0c0.5-0.6,1-1.1,1.5-1.7c0.5-0.6,1.1-1,1.7-1.5
	c0.3-0.2,0.6-0.4,0.9-0.6C411.5,13.2,411.6,13.1,411.7,13.1L411.7,13.1z M407,17.4C407,17.4,407,17.4,407,17.4
	C407,17.4,407,17.4,407,17.4C407,17.4,407,17.4,407,17.4L407,17.4z M406.9,17.5C406.9,17.5,406.9,17.5,406.9,17.5
	C406.9,17.5,406.9,17.5,406.9,17.5C406.9,17.5,406.9,17.5,406.9,17.5L406.9,17.5z"/>
<path class="st0" d="M423.1,0.9c-0.4,0.4-0.5,0.8-0.5,1.3c-0.3,3.6-0.7,7.2-0.9,10.8c-0.1,1.3-0.2,2.7-0.3,4
	c-0.1,0.8-0.1,1.6-0.2,2.4c0,0.7-0.1,1.4,0,2.1c0.1,0.4,0.2,0.7,0.4,1c0.3,0.5,0.8,0.7,1.3,0.9c0.7,0.2,1.5-0.1,1.8-0.7
	c0.4-0.6,0.3-1.3-0.2-1.9c0-0.7,0.1-1.5,0.2-2.2c0.1-0.6,0.1-1.1,0.2-1.7c0.1-1.3,0.2-2.6,0.3-3.9c0.3-3.6,0.6-7.2,0.9-10.8
	c0-0.5-0.2-1-0.5-1.3c-0.3-0.3-0.8-0.5-1.3-0.5C423.9,0.3,423.4,0.5,423.1,0.9L423.1,0.9z"/>
<path class="st0" d="M435,9.2c-0.8,0.2-1.5,0.5-2.2,0.9c-0.7,0.5-1.4,1.1-2,1.7c-0.6,0.6-1.1,1.3-1.7,1.9c-0.5,0.6-1,1.1-1.4,1.8
	c-0.1,0.1-0.2,0.3-0.2,0.4c-0.1,0.3-0.3,0.6-0.3,1c0,0.5,0.1,0.9,0.2,1.4c0.6,1.7,2.2,3,4,3.3c0.8,0.1,1.7,0.1,2.5-0.2
	c0.9-0.3,1.6-0.9,2.2-1.5c0.3-0.3,0.6-0.7,0.8-1c0.2-0.3,0.5-0.7,0.7-1c0.2-0.3,0.3-0.6,0.5-0.9c0.4,0.3,0.8,0.7,1.2,1
	c0.6,0.5,1.3,1,1.9,1.5c1.2,0.9,2.5,1.8,3.7,2.7c0.6,0.4,1.5,0.2,1.9-0.2c0.3-0.3,0.5-0.7,0.5-1.1c0-0.4-0.2-0.9-0.5-1.1
	c-1.2-0.9-2.4-1.9-3.7-2.8c-1-0.7-2-1.5-3-2.2c-0.3-0.3-0.6-0.6-1-0.8c-0.4-0.2-0.7-0.4-1.2-0.5c-0.3-0.1-0.6-0.1-0.9,0
	c0.1-0.3,0.2-0.6,0.2-0.9c0.1-0.4,0.1-0.8,0.1-1.2c0-0.4-0.2-0.9-0.4-1.3c-0.2-0.3-0.6-0.6-0.9-0.7c-0.2-0.1-0.5-0.1-0.7-0.1
	C435.4,9.2,435.2,9.2,435,9.2L435,9.2z M434.8,11.2c0,0,0,0.1,0.1,0.1C434.9,11.2,434.9,11.2,434.8,11.2L434.8,11.2z M434.8,12.1
	c-0.2,1-0.5,1.9-0.8,2.8c-0.2,0.6,0.2,1.3,0.8,1.5c-0.2,0.3-0.3,0.5-0.5,0.7c-0.2,0.3-0.5,0.5-0.8,0.8c-0.2,0.1-0.3,0.2-0.5,0.3
	c-0.2,0.1-0.3,0.1-0.5,0.1c-0.2,0-0.3,0-0.5,0c-0.2,0-0.4-0.1-0.6-0.2c-0.2-0.1-0.3-0.2-0.4-0.3c-0.2-0.1-0.3-0.3-0.5-0.5
	c-0.1-0.1-0.1-0.2-0.2-0.3c0-0.1,0-0.1-0.1-0.2c0.2-0.4,0.4-0.7,0.7-1.1c0.2-0.3,0.4-0.5,0.6-0.8c0,0,0,0,0,0c0.8-1,1.6-1.9,2.5-2.7
	C434.4,12.4,434.6,12.2,434.8,12.1L434.8,12.1z M430.4,16.9C430.4,16.9,430.4,17,430.4,16.9C430.4,17,430.4,16.9,430.4,16.9
	L430.4,16.9z M430.3,17.2c0,0,0,0.1,0,0.1C430.3,17.3,430.3,17.3,430.3,17.2L430.3,17.2z"/>
<path class="st0" d="M455.4,10.6c-0.3,0-0.6,0-0.8,0.1c-0.4,0.1-0.6,0.3-0.9,0.5c-0.4,0.4-0.8,0.7-1.2,1.1c-0.2,0.2-0.4,0.4-0.5,0.5
	c-0.3-0.6-0.9-1-1.6-1c-1,0-1.8,0.8-1.8,1.8c0,0.8,0,1.6-0.1,2.3c0,0.4,0,0.9,0,1.3c0,0.4,0.1,0.9,0.1,1.3c0,0.3,0.1,0.6,0.2,0.9
	c0.2,0.4,0.6,0.7,1.1,0.8c0.3,0.1,0.6,0.1,1,0c0.4-0.1,0.9-0.4,1.1-0.8c0.3-0.6,0.6-1.3,0.9-1.9c0.3-0.7,0.8-1.4,1.3-2
	c0.5-0.6,1-1.2,1.6-1.8c0.1,0.1,0.1,0.1,0.2,0.2c0.1,0.2,0.3,0.4,0.4,0.6c0.2,0.6,0.4,1.1,0.4,1.7c0.2,1.7,0.2,3.3,0,5
	c0,0.4,0.2,0.9,0.5,1.2c0.3,0.3,0.7,0.5,1.2,0.5c0.4,0,0.8-0.2,1.2-0.5c0.3-0.3,0.4-0.7,0.5-1.2c0.1-1,0.1-1.9,0.1-2.9
	c0-1.1-0.2-2.2-0.4-3.3c-0.2-1.1-0.7-2.3-1.4-3.2c-0.3-0.4-0.6-0.6-1-0.9c-0.2-0.2-0.5-0.3-0.8-0.4C456,10.7,455.7,10.6,455.4,10.6
	C455.4,10.6,455.4,10.6,455.4,10.6L455.4,10.6z M455.6,13.9C455.6,13.9,455.6,13.9,455.6,13.9C455.6,13.9,455.6,13.9,455.6,13.9
	L455.6,13.9z"/>
<path class="st0" d="M469.4,10.9c-1.1,0.2-2.1,0.8-2.8,1.7c-0.4,0.4-0.7,0.8-1,1.3c-0.4,0.5-0.6,1.2-0.7,1.8
	c-0.1,1.1,0.2,2.2,0.6,3.3c0.2,0.4,0.6,0.8,0.9,1.2c0.4,0.4,0.8,0.7,1.2,1c0.7,0.6,1.5,1,2.3,1.5c0.4,0.2,0.8,0.4,1.1,0.6
	c0.6,0.3,1.2,0.6,1.9,0.8c0.7,0.3,1.6-0.3,1.8-1c0.1-0.4,0.1-0.8-0.1-1.1c-0.2-0.4-0.5-0.5-0.9-0.7c-0.1,0-0.1,0-0.2-0.1
	c-0.5-0.2-0.9-0.5-1.4-0.7c-0.8-0.5-1.7-1-2.5-1.5c-0.5-0.4-1-0.8-1.4-1.3c-0.1-0.1-0.2-0.3-0.2-0.4c-0.1-0.3-0.2-0.5-0.2-0.8
	c0-0.2,0-0.3,0-0.5c0-0.1,0-0.2,0.1-0.3c0.2-0.3,0.3-0.6,0.5-0.9c0.2-0.2,0.4-0.5,0.7-0.7c0.1-0.1,0.3-0.2,0.4-0.2
	c0.1,0,0.2-0.1,0.4-0.1c0.1,0,0.2,0,0.3,0c0.2,0,0.3,0.1,0.4,0.1c0.1,0.1,0.3,0.1,0.4,0.2c0.7,0.4,1.6,0.2,2-0.5
	c0.4-0.7,0.2-1.6-0.5-2c-0.4-0.2-0.9-0.4-1.3-0.6c-0.2-0.1-0.6-0.1-0.8-0.2c-0.1,0-0.1,0-0.2,0C469.9,10.8,469.7,10.8,469.4,10.9
	L469.4,10.9z M470.8,13.9c0,0,0.1,0,0.1,0C470.9,13.9,470.9,13.9,470.8,13.9L470.8,13.9z"/>
<path class="st0" d="M481.7,11.3c-0.4,0.1-0.8,0.2-1.2,0.3c-0.7,0.3-1.4,0.7-1.9,1.2c-0.5,0.5-0.9,1.2-1.2,1.9c0,0-0.1,0-0.1,0
	c-0.1,0-0.1,0-0.2,0c-0.4-0.1-0.8-0.1-1.2,0.2c-0.3,0.2-0.6,0.5-0.7,0.9c-0.2,0.8,0.2,1.7,1.1,1.9c0.2,0,0.5,0.1,0.7,0.1
	c0.1,0.3,0.2,0.6,0.3,1c0.2,0.4,0.4,0.8,0.7,1.2c0.4,0.7,1,1.2,1.6,1.7c0.6,0.5,1.4,0.8,2.1,1.1c0.9,0.3,1.9,0.6,2.8,0.8
	c0.8,0.2,1.6-0.2,1.8-1c0.2-0.8-0.3-1.5-1-1.8c-0.8-0.3-1.7-0.6-2.5-0.9c-0.4-0.2-0.8-0.4-1.2-0.7c-0.2-0.2-0.4-0.4-0.6-0.6
	c-0.2-0.3-0.4-0.5-0.5-0.8c0.3,0,0.5-0.1,0.8-0.1c0.8-0.1,1.5-0.2,2.3-0.4c0.4-0.1,0.8-0.2,1.1-0.4c0.4-0.2,0.8-0.4,1.1-0.7
	c0.5-0.5,0.9-1.2,0.8-1.9c0-0.4-0.2-0.8-0.4-1.2c-0.1-0.2-0.2-0.3-0.4-0.5c-0.2-0.2-0.4-0.4-0.6-0.5c-0.3-0.2-0.7-0.3-1-0.5
	c-0.4-0.1-0.8-0.2-1.1-0.2c-0.1,0-0.2,0-0.3,0C482.3,11.2,482,11.3,481.7,11.3L481.7,11.3z M483.5,14.6
	C483.5,14.7,483.5,14.7,483.5,14.6C483.5,14.7,483.5,14.7,483.5,14.6L483.5,14.6z"/>
<path class="st0" d="M494.2,13.5c-0.7,0.1-1.3,0.4-1.9,0.8c-0.7,0.4-1.2,1-1.7,1.6c-0.2,0.3-0.3,0.6-0.5,0.9c-0.1,0.3-0.2,0.7-0.2,1
	c0,0.3,0,0.7,0.1,1.1c0.1,0.4,0.3,0.8,0.5,1.2c0.4,0.6,0.9,1.1,1.5,1.5c0.3,0.2,0.6,0.3,1,0.5c0.3,0.1,0.6,0.2,0.9,0.3
	c0.8,0.2,1.6,0.2,2.3,0c0.8-0.2,1.5-0.5,2.2-0.8c0.5-0.2,1-0.5,1.4-0.8c0.3-0.2,0.6-0.4,0.9-0.6c0.6-0.4,1.1-0.8,1.7-1.2
	c0.2-0.2,0.3-0.4,0.3-0.6c0.1-0.3,0-0.7-0.1-1c-0.4-0.6-1.2-0.9-1.8-0.5c-0.1,0.1-0.2,0.1-0.3,0.2c0,0,0-0.1,0-0.1
	c-0.1-0.6-0.3-1.2-0.6-1.7c-0.2-0.3-0.4-0.6-0.7-0.8c-0.2-0.2-0.5-0.4-0.8-0.6c-0.6-0.3-1.3-0.4-2-0.5c-0.2,0-0.4,0-0.5,0
	C495.3,13.3,494.8,13.4,494.2,13.5L494.2,13.5z M496.5,16c0.2,0,0.4,0.1,0.6,0.1c0.1,0,0.2,0.1,0.3,0.2c0.1,0.1,0.2,0.2,0.3,0.3
	c0,0,0,0,0,0.1c0.1,0.3,0.2,0.7,0.3,1c0.1,0.3,0.2,0.5,0.4,0.7c-0.5,0.2-0.9,0.5-1.4,0.7c-0.5,0.2-1,0.3-1.5,0.4c-0.3,0-0.5,0-0.8,0
	c-0.3-0.1-0.6-0.1-0.9-0.3c-0.2-0.1-0.4-0.2-0.5-0.3c-0.1-0.1-0.2-0.2-0.3-0.3c-0.1-0.1-0.1-0.2-0.2-0.4c0,0,0,0,0-0.1
	c0-0.1,0-0.2,0-0.3c0-0.1,0.1-0.2,0.1-0.3c0.1-0.1,0.1-0.2,0.2-0.3c0.2-0.2,0.3-0.4,0.5-0.5c0.3-0.2,0.5-0.3,0.8-0.5
	c0.3-0.1,0.7-0.2,1-0.3C495.8,15.9,496.2,15.9,496.5,16L496.5,16z M497.6,16.4C497.6,16.4,497.6,16.4,497.6,16.4
	C497.6,16.4,497.6,16.4,497.6,16.4L497.6,16.4z"/>
<path class="st0" d="M501.5,0.1c-0.2,0.1-0.4,0.3-0.5,0.6c0,0.1-0.1,0.2-0.1,0.4c0,0.1,0,0.2,0,0.3c0,0.1,0,0.3,0,0.4
	c0,0.3,0,0.6,0,0.9c0,0.4-0.1,0.8-0.1,1.2c-0.1,0.6-0.1,1.1-0.2,1.7c-0.1,1.3-0.3,2.6-0.4,3.8c-0.3,2.7-0.5,5.4-0.8,8.2
	c-0.1,1.4-0.3,2.9-0.4,4.3c0,0.4,0.2,0.8,0.4,1.1c0.3,0.3,0.7,0.4,1.1,0.4c0.8,0,1.5-0.7,1.5-1.5c0-2.7,0-5.3,0.2-8
	c0.1-2.2,0.2-4.4,0.4-6.6c0.3-0.1,0.5-0.4,0.5-0.8c-0.1-0.9-0.2-1.9-0.3-2.8c0-0.3,0-0.7,0.1-1c0-0.6,0-1.2,0-1.9c0-0.5-0.5-1-1-1
	C501.8,0,501.6,0,501.5,0.1L501.5,0.1z"/>
<path class="st1" d="M258.1,22.1c-5.4,0.1-10.9,0.3-16.3,0.4c-5.1,0.1-10.1,0.1-15.2,0.3c-5.4,0.2-10.7,0.6-16.1,0.9
	c-5.3,0.3-10.5,0.5-15.8,0.8c-5.4,0.3-10.7,0.5-16.1,0.6c-5.2,0.2-10.4,0.5-15.6,0.8c-10.5,0.7-21,1.8-31.5,3
	c-5.3,0.6-10.6,1.1-15.9,1.6c-5.2,0.5-10.5,0.3-15.7,0.3c-10.5,0-21,0-31.6-0.4c-2.4-0.1-4.8-0.2-7.2-0.3c-2.2-0.1-4.4-0.2-6.6-0.3
	c-4.8-0.4-9.7-0.8-14.5-1.1c-4.9-0.3-9.8-0.3-14.7,0c-5.3,0.4-10.6,1.3-15.9,2.2c-0.4,0.1-0.7,0.3-1,0.6c-0.7,0.5-1.4,1.2-2,1.9
	c-0.1,0.1-1.7,2.1-0.8,1.9c3.2-0.5,6.5-1,9.7-1.5c2.5-0.3,5.1-0.6,7.7-0.7c5.2-0.3,10.3,0,15.5,0.4c5,0.4,9.9,1.1,14.8,1.3
	c5.3,0.3,10.6,0.6,15.9,0.7c10.7,0.2,21.5,0.3,32.2,0.3c2.4,0,4.7,0,7.1-0.2c2.7-0.2,5.4-0.4,8.1-0.7c5.5-0.5,11-1.2,16.5-1.8
	c5.1-0.5,10.2-1.1,15.3-1.5c5.4-0.5,10.8-0.8,16.2-1.2c5.2-0.3,10.3-0.5,15.5-0.6c5.4-0.1,10.8-0.4,16.2-0.7
	c10.4-0.5,20.7-1.3,31.1-1.5c5.3-0.1,10.6-0.1,15.9-0.3c5.2-0.1,10.4-0.3,15.6-0.4c10.5-0.2,21-0.3,31.6-0.3c2.6,0,5.1,0,7.7,0.2
	c2.6,0.1,5.3,0.3,7.9,0.5c5.3,0.4,10.6,0.5,15.8,0.5c10.5,0,21.1,0,31.6,0c5.3,0,10.7-0.1,16-0.3c5.2-0.2,10.3-0.6,15.5-0.7
	c5.3-0.1,10.7-0.1,16,0.1c5.2,0.2,10.5,0.4,15.7,0.5c5.3,0.1,10.5,0.1,15.8,0.1c5.3,0,10.6,0,15.8,0.1c9.3,0,18.6,0.5,27.9,0.6
	c4.5,0.1,9,0.1,13.5,0.3c4.8,0.2,9.7,0.4,14.5,0.6c0.5-0.2,0.9-0.4,1.3-0.7c0.6-0.5,1.2-1,1.7-1.5c0.5-0.5,1.1-1.1,1.5-1.7
	c0,0,1.1-1.5,0.7-1.6c-2.6-0.3-5.1-0.3-7.7-0.3c-2.6,0-5.2-0.1-7.7-0.1c-5.4-0.1-10.7-0.1-16.1-0.2c-5.1,0-10.2-0.2-15.4-0.3
	c-5.3-0.1-10.7,0-16,0c-10.4,0-20.8,0.1-31.3-0.2c-5.2-0.2-10.4-0.4-15.6-0.5c-2.7,0-5.4,0-8.2,0c-2.4,0-4.8,0.1-7.2,0.2
	c-5.4,0.3-10.8,0.5-16.2,0.7c-5.3,0.2-10.6,0.2-15.9,0.2c-5.1,0-10.2,0-15.3,0c-5.3,0-10.5,0-15.8-0.1c-2.8,0-5.6-0.1-8.4-0.3
	c-2.6-0.1-5.2-0.4-7.8-0.5c-5-0.3-10.1-0.3-15.1-0.4c-0.8,0-1.6,0-2.4,0C277.5,21.8,267.8,21.9,258.1,22.1L258.1,22.1z M508.6,25.3
	C508.6,25.3,508.6,25.3,508.6,25.3C508.6,25.3,508.6,25.3,508.6,25.3L508.6,25.3z"/>
</svg>
