<?xml version="1.0" encoding="utf-8"?>
<!-- Generator: Adobe Illustrator 20.1.0, SVG Export Plug-In . SVG Version: 6.00 Build 0)  -->
<svg version="1.1" id="Layer_1" xmlns="http://www.w3.org/2000/svg" xmlns:xlink="http://www.w3.org/1999/xlink" x="0px" y="0px"
	 viewBox="0 0 52 22.3" style="enable-background:new 0 0 52 22.3;" xml:space="preserve">
<path d="M1.5,9.8c0,0.2,0.1,0.3,0.3,0.3S2.1,10,2.1,9.8c0-0.2-0.1-0.3-0.3-0.3S1.5,9.6,1.5,9.8L1.5,9.8z"/>
<path d="M0.4,6.6c-0.1,2.6-0.2,5.2-0.3,7.7c0,1.1-0.1,2.3-0.1,3.4c0,1.2-0.1,2.3,0.2,3.5c0.1,0.7,0.8,1.1,1.5,1.1
	c0.8,0,1.5-0.7,1.5-1.5c0-1,0.1-2.1,0.2-3.1c0.1-1.1,0.1-2.3,0.2-3.4c0.1-2.6,0.2-5.2,0.3-7.7c0-0.9-0.8-1.7-1.7-1.7
	C1.2,4.9,0.5,5.7,0.4,6.6L0.4,6.6z"/>
<path d="M3.7,4.9C3.3,4.9,3,5.1,2.7,5.3C2.4,5.4,2.2,5.7,2,6.1C1.8,6.7,2.1,7.4,2.3,8c0.1,0.4,0.6,0.7,1.1,0.6C3.8,8.5,4.1,8,4,7.5
	C3.9,7.3,3.8,7,3.7,6.8c0,0,0,0,0,0c0.2-0.1,0.4-0.1,0.5-0.1c0.2,0,0.4,0,0.6,0c0.2,0,0.4,0.1,0.6,0.2C5.7,6.9,5.9,7,6,7.1
	c0.1,0.1,0.2,0.2,0.3,0.3c0,0.1,0.1,0.1,0.1,0.2c0,0.1,0.1,0.2,0.1,0.3c0,0.1,0,0.2,0,0.2c0,0.2-0.1,0.4-0.2,0.5
	C6.2,9,6,9.3,5.8,9.6c-0.1,0.2-0.3,0.3-0.5,0.5c-0.1,0-0.1,0.1-0.2,0.1c-0.4-0.1-0.8,0-1.1,0.3c-0.4,0.4-0.5,1.2,0,1.6
	c0.1,0.1,0.2,0.2,0.4,0.3c0.2,0.1,0.5,0.2,0.7,0.2c0.4,0,0.8-0.1,1.2-0.4c0.3-0.2,0.6-0.4,0.8-0.7c0.3-0.3,0.6-0.7,0.8-1.1
	c0.2-0.3,0.3-0.6,0.5-1c0.2-0.4,0.2-0.8,0.3-1.2c0-0.2,0-0.4,0-0.6c0-0.2-0.1-0.3-0.1-0.5C8.4,6.7,8.2,6.3,7.9,6
	C7.6,5.7,7.3,5.5,7,5.3C6.7,5.1,6.3,5,6,4.9C5.6,4.7,5.3,4.7,4.9,4.7C4.5,4.7,4.1,4.8,3.7,4.9L3.7,4.9z M5.4,6.7
	C5.4,6.7,5.4,6.7,5.4,6.7C5.4,6.7,5.4,6.7,5.4,6.7L5.4,6.7z"/>
<path d="M18.8,5.5c-0.9,0.2-1.7,0.6-2.6,1c-0.4,0.2-0.8,0.4-1.1,0.6c-0.3,0.2-0.7,0.4-1,0.7c-0.3,0.3-0.5,0.7-0.6,1.1
	c-0.1,0.5-0.1,1,0.2,1.5c0.5,0.8,1.3,1.3,2.2,1.4c0.9,0.2,1.9,0,2.7-0.3c0.5-0.2,0.9-0.4,1.3-0.7c0.4-0.3,0.8-0.6,1.1-0.9
	c0.2-0.2,0.4-0.5,0.7-0.7c0.4,0.5,0.7,0.9,1.1,1.4c0.4,0.4,0.8,0.9,1.2,1.3c0.7,0.7,1.6,1.4,2.4,2c0.6,0.4,1.5,0.1,1.8-0.5
	c0.2-0.3,0.2-0.7,0.1-1c-0.1-0.4-0.3-0.6-0.6-0.8c-0.1-0.1-0.3-0.2-0.4-0.3c-1.4-1.1-2.7-2.4-3.8-3.8c-0.2-0.2-0.3-0.5-0.5-0.7
	c-0.1-0.1-0.2-0.3-0.3-0.4c0,0-0.1-0.1-0.1-0.1c0,0-0.1-0.1-0.1-0.1c-0.2-0.3-0.4-0.5-0.7-0.6c-0.4-0.1-0.9-0.1-1.3-0.1
	C19.8,5.3,19.3,5.4,18.8,5.5L18.8,5.5z M19.2,7.9c-0.2,0.2-0.4,0.3-0.5,0.5c-0.3,0.2-0.6,0.4-1,0.6c-0.2,0.1-0.5,0.2-0.7,0.2
	c-0.2,0-0.4,0-0.6,0c0,0,0,0,0,0c0.2-0.1,0.4-0.2,0.6-0.3c0.5-0.3,1-0.5,1.5-0.7C18.7,8.1,18.9,8,19.2,7.9L19.2,7.9z M18.7,8.1
	c-0.1,0-0.1,0-0.2,0.1C18.6,8.1,18.6,8.1,18.7,8.1L18.7,8.1z M18.9,8.3c0,0-0.1,0.1-0.1,0.1C18.8,8.3,18.8,8.3,18.9,8.3L18.9,8.3z
	 M15.9,9.5C15.9,9.5,15.9,9.5,15.9,9.5C15.9,9.5,15.9,9.5,15.9,9.5C15.9,9.5,15.9,9.5,15.9,9.5L15.9,9.5z"/>
<path d="M33,1.5c-0.1,2.4-0.3,4.8-0.4,7.2c0,1-0.1,2-0.1,3c-0.1,1.1-0.1,2.3-0.2,3.4c-0.1,0.6,0.4,1.1,1,1.2
	c0.7,0.2,1.4-0.2,1.6-0.9c0.3-1.2,0.4-2.4,0.6-3.6c0.1-1,0.2-2,0.2-3.1c0.2-2.4,0.3-4.9,0.4-7.3C36,0.7,35.3,0,34.5,0
	C33.6,0,33,0.7,33,1.5L33,1.5z"/>
<path d="M41.2,4.1c-3.6,1-7.1,2.1-10.6,3.2c-0.5,0.1-0.7,0.6-0.6,1.1C30.1,8.8,30.6,9.1,31,9c3.5-1.1,7-2.3,10.6-3.4
	c0.4-0.1,0.7-0.5,0.6-1C42.1,4.3,41.7,4,41.4,4C41.3,4,41.2,4,41.2,4.1L41.2,4.1z"/>
<path d="M41.7,1c-0.3,0.1-0.5,0.3-0.6,0.5c-0.1,0.2-0.2,0.4-0.4,0.6c-0.3,0.5-0.1,1.1,0.4,1.4c0.1,0.1,0.2,0.1,0.3,0.1
	c0,0.3,0,0.6,0,0.9c0,0.4,0,0.9,0,1.3c0,0.7,0,1.3,0,2c0,0.7,0,1.4,0,2c0,0.3,0,0.6,0,0.9c0,0.2,0,0.4,0,0.6c0,0.2,0,0.5,0,0.7
	c0,0.3,0.2,0.5,0.3,0.8c0.4,0.8,1.5,0.8,2,0.3c0.5-0.5,1.1-1.1,1.7-1.6c0.3-0.2,0.7-0.4,1-0.6c0.2-0.1,0.4-0.1,0.6-0.2
	c0.1,0,0.2,0,0.4,0c0.1,0,0.3,0.1,0.4,0.1c0.1,0.1,0.3,0.2,0.4,0.2c0.3,0.2,0.5,0.5,0.8,0.8c0.1,0.1,0.2,0.2,0.2,0.4
	c0,0.1,0.1,0.3,0.1,0.4c0,0.2,0,0.4,0,0.7c0,0.1,0,0.1,0,0.2c-0.1,0.4-0.1,0.7,0.1,1c0.2,0.3,0.5,0.5,0.8,0.6c0.3,0.1,0.7,0,1-0.1
	c0.2-0.1,0.4-0.3,0.5-0.5c0.1-0.2,0.2-0.4,0.2-0.7c0-0.3,0.1-0.5,0.1-0.8c0-0.3-0.1-0.6-0.1-0.9c-0.1-0.6-0.4-1.1-0.8-1.6
	c-0.3-0.4-0.7-0.8-1.1-1.1c-0.5-0.4-1.1-0.7-1.7-1c-0.6-0.2-1.3-0.2-1.9-0.1c-0.6,0.1-1.2,0.4-1.8,0.7c-0.3,0.2-0.6,0.3-0.8,0.5
	c0,0,0,0,0,0c0-0.7-0.1-1.4-0.1-2.2c0-0.7,0-1.3-0.1-2c0-0.4,0-0.7,0-1.1c0-0.4,0-0.9-0.1-1.3c0-0.2-0.1-0.5-0.1-0.7
	c0-0.2-0.1-0.5-0.2-0.7c-0.2-0.5-0.6-0.8-1-0.8C42.1,0.9,41.9,0.9,41.7,1L41.7,1z"/>
</svg>
