<?xml version="1.0" encoding="utf-8"?>
<!-- Generator: Adobe Illustrator 20.0.0, SVG Export Plug-In . SVG Version: 6.00 Build 0)  -->
<svg version="1.1" id="Layer_1" xmlns="http://www.w3.org/2000/svg" xmlns:xlink="http://www.w3.org/1999/xlink" x="0px" y="0px"
	 viewBox="0 0 434.3 80.2" style="enable-background:new 0 0 434.3 80.2;" xml:space="preserve">
<style type="text/css">
	.st0{fill:#150000;}
</style>
<path class="st0" d="M26.9,0.3c-0.4,0.2-0.8,0.4-1.2,0.6c-0.7,0.4-1.4,1-2,1.6c-1.4,1.4-2.6,3-3.7,4.6c-2.1,3.3-3.7,6.9-4.9,10.7
	c-0.8,2.5-1.3,5.1-1.7,7.6c-0.2,1-0.3,2-0.4,3c-0.1,1.2-0.3,2.4-0.4,3.6c-0.1,0.9-0.1,1.9-0.2,2.8c-0.1,1.9-0.2,3.9-0.1,5.8
	c0,1.4,0.2,2.8,0.5,4.1c0.2,1.1,0.6,2.2,1,3.2c-0.9,1-1.8,1.9-2.8,2.7c-0.5,0.4-1,0.7-1.6,1c-0.2,0.1-0.5,0.2-0.7,0.2
	c-0.2,0-0.3,0-0.5,0c-0.1,0-0.2-0.1-0.3-0.1c0,0,0,0-0.1,0c-0.2-0.2-0.5-0.5-0.7-0.7c-0.4-0.5-0.7-1.1-0.9-1.6
	c-0.3-0.7-0.4-1.4-0.6-2.2c-0.2-2.2-0.2-4.4-0.2-6.6c0-1.5-1.2-2.7-2.7-2.7C1.2,37.8,0,39,0,40.5c0,1.9-0.1,3.9,0.1,5.8
	c0.1,1,0.2,1.9,0.4,2.8c0.2,1,0.6,2,1,2.9c0.4,0.8,0.9,1.5,1.4,2.2C3.5,54.9,4,55.6,4.8,56c1.8,1.2,4,1.3,6,0.7
	c1.8-0.6,3.3-1.8,4.7-3c0.5-0.4,0.9-0.9,1.4-1.4c0.8,0.7,1.7,1.2,2.6,1.6c3.7,1.8,8,2.1,12,1.1c1-0.2,1.7-1.2,1.7-2.2
	c0-0.6-0.2-1.2-0.7-1.6c-0.4-0.4-1.1-0.7-1.6-0.7c-2,0.2-4,0.3-6,0c-1-0.2-1.9-0.4-2.8-0.8c-0.7-0.3-1.3-0.7-2-1.1
	c-0.1-0.1-0.1-0.1-0.2-0.2c2.1-2.9,3.5-6.3,4.9-9.6c1.1-2.7,2.1-5.4,3-8.1c0.9-2.5,1.7-5,2.4-7.6c0.4-1.4,0.8-2.8,1.1-4.2
	c0.1-0.6,0.3-1.1,0.4-1.7c0.1-0.9,0.3-1.7,0.4-2.6c0.2-1.4,0.4-2.7,0.5-4.1c0.1-1.4,0.1-2.7,0-4.1c0-1.1-0.2-2.2-0.5-3.3
	c-0.2-0.8-0.6-1.5-1.1-2.1c-0.2-0.3-0.5-0.6-0.9-0.8C29.5,0.1,28.9,0,28.2,0c0,0-0.1,0-0.1,0C27.7,0,27.3,0.1,26.9,0.3L26.9,0.3z
	 M27.7,5.1c0,0.1,0,0.2,0.1,0.3c0.2,2,0,3.9-0.2,5.9c-0.3,2-0.6,4-1.1,6c-0.5,2.2-1.2,4.4-1.9,6.5c-1.6,4.8-3.2,9.7-5.2,14.4
	c-0.7,1.6-1.4,3.1-2.2,4.6c0-0.1,0-0.2-0.1-0.4c-0.4-3.2-0.1-6.3,0.1-9.5c0.1-1.6,0.3-3.1,0.4-4.7c0.2-1.2,0.4-2.3,0.5-3.5
	c0.5-3.2,1.5-6.4,2.7-9.5c1.2-2.8,2.7-5.4,4.5-7.8C26.1,6.6,26.9,5.8,27.7,5.1C27.7,5.1,27.7,5.1,27.7,5.1L27.7,5.1z M25.7,7.2
	c0,0.1-0.1,0.1-0.1,0.2C25.6,7.3,25.6,7.2,25.7,7.2L25.7,7.2z M21.1,15c0,0,0,0.1-0.1,0.1C21,15.1,21.1,15,21.1,15L21.1,15z"/>
<path class="st0" d="M42.2,37.3c-0.8,0.4-1.4,1-2,1.5c-0.8,0.7-1.4,1.5-1.9,2.4c-0.5,0.8-0.9,1.6-1.1,2.5c-0.3,1-0.2,1.9,0,2.9
	c0.1,0.9,0.6,1.7,1.1,2.4c0.6,0.8,1.2,1.5,1.9,2.1c0.7,0.6,1.3,1.2,2.2,1.6c0.9,0.4,1.8,0.6,2.8,0.5c0.9-0.1,1.8-0.4,2.5-0.9
	c0.9-0.6,1.5-1.4,2.1-2.3c0.2-0.4,0.4-0.8,0.5-1.2c0.2-0.5,0.3-0.9,0.4-1.4c0.3-1,0.3-2.1,0.2-3.2c-0.1-0.8-0.3-1.6-0.6-2.4
	c-0.2-0.4-0.4-0.9-0.6-1.3c-0.3-0.4-0.6-0.8-0.9-1.1c0,0,0,0-0.1-0.1c0-0.4-0.1-0.9-0.3-1.3c-0.3-0.5-0.8-0.8-1.3-1
	c-0.7-0.3-1.5-0.4-2.2-0.4c0,0-0.1,0-0.1,0C43.7,36.6,42.9,36.9,42.2,37.3L42.2,37.3z M44.7,41c0.1,0,0.2,0,0.4,0
	c0.2,0,0.3,0.1,0.5,0.1c0,0.2,0.1,0.3,0.2,0.5c0.2,0.3,0.3,0.6,0.4,0.8c0.2,0.5,0.4,1.1,0.5,1.7c0,0.5,0,1,0,1.5
	c-0.1,0.6-0.3,1.1-0.5,1.7c-0.1,0.3-0.3,0.5-0.4,0.8c-0.2,0.2-0.3,0.3-0.5,0.5c0,0-0.1,0.1-0.1,0.1c-0.1,0-0.2,0.1-0.3,0.1
	c0,0-0.1,0-0.1,0c-0.1,0-0.3-0.1-0.4-0.1c-0.1,0-0.2-0.1-0.2-0.1c-0.7-0.6-1.5-1.3-2.1-2c-0.1-0.2-0.3-0.4-0.4-0.6
	c0-0.2-0.1-0.3-0.1-0.5c0-0.2,0-0.3,0-0.5c0.1-0.2,0.1-0.5,0.2-0.7c0.2-0.5,0.5-0.9,0.8-1.4c0.4-0.5,0.8-0.9,1.3-1.2
	c0.3-0.2,0.5-0.3,0.8-0.5C44.6,41,44.6,41,44.7,41L44.7,41z"/>
<path class="st0" d="M64.3,35.4c-0.7,0.2-1.4,0.5-2.1,0.9c-1.3,0.7-2.4,1.9-2.9,3.2c-0.5,1.3-0.4,2.7,0.1,4c0.5,1.2,1.2,2.3,2.2,3.2
	c0.5,0.4,1,0.8,1.6,1c0.7,0.3,1.5,0.3,2.2,0.2c0.2,0,0.4-0.1,0.6-0.1c-0.1,0.5-0.2,1.1-0.2,1.6c-0.4,2.3-0.7,4.6-1.1,6.9
	c-0.3,1.4-0.5,2.7-0.8,4.1c-0.2,0.9-0.4,1.8-0.6,2.7c-3.3,0.6-6.7,1.8-8.9,4.3c-0.6,0.7-1.1,1.5-1.4,2.3c-0.3,0.8-0.4,1.5-0.5,2.3
	c-0.1,0.8,0.1,1.7,0.3,2.5c0.1,0.5,0.4,1,0.6,1.4c0.2,0.5,0.5,0.9,0.8,1.4c0.3,0.4,0.5,0.7,0.9,1c0.3,0.3,0.7,0.6,1.1,0.8
	c0.3,0.3,0.9,0.5,1.3,0.6c0.5,0.2,1,0.3,1.5,0.3c1,0,1.8-0.2,2.6-0.7c0.9-0.5,1.4-1.3,1.9-2.1c1.3-2.2,2.2-4.6,2.9-7.1
	c0.2-0.8,0.4-1.6,0.6-2.4c0.4-0.1,0.9-0.2,1.3-0.3c1.6-0.4,3.2-0.9,4.7-1.5c0.6-0.2,1.2-0.6,1.5-1.2c0.3-0.6,0.4-1.3,0.3-2
	c-0.4-1.3-1.8-2.2-3.1-1.8c-1.1,0.4-2.3,0.8-3.5,1c1-5.6,1.6-11.2,2.3-16.8c0.1-0.5,0.2-1,0.3-1.6c0.2-0.3,0.3-0.7,0.4-1
	c0.3-1.1-0.6-2.3-1.8-2.3c-0.4,0-0.7,0.1-1,0.3c-0.4,0.2-0.6,0.5-0.8,0.8c-0.2,0.2-0.3,0.7-0.3,1c-0.1,0.2-0.1,0.4-0.2,0.6
	c0,0-0.1,0.1-0.1,0.1c-0.2,0.2-0.4,0.4-0.5,0.5c-0.2,0.1-0.4,0.2-0.6,0.3c-0.2,0.1-0.4,0.1-0.6,0.2c-0.1,0-0.2,0-0.4,0
	c0,0,0,0-0.1,0c-0.1,0-0.2-0.1-0.3-0.2c-0.3-0.2-0.5-0.5-0.7-0.8c-0.2-0.3-0.4-0.7-0.6-1c-0.1-0.2-0.1-0.4-0.2-0.7
	c0-0.1,0-0.2,0-0.3c0-0.2,0.1-0.4,0.1-0.6c0-0.1,0.1-0.2,0.2-0.3c0.2-0.2,0.4-0.4,0.6-0.6c0.3-0.2,0.6-0.4,0.9-0.5
	c0.5-0.2,0.9-0.3,1.4-0.4c0.2,0,0.4,0,0.5,0c0.3,0.1,0.5,0.2,0.7,0.2c0.2,0.1,0.4,0.2,0.7,0.4c0.9,0.6,2.1,0.2,2.6-0.7
	c0.5-0.9,0.2-2-0.7-2.6c-1.1-0.7-2.4-1.1-3.7-1.1c0,0,0,0,0,0C65.5,35.1,64.9,35.3,64.3,35.4L64.3,35.4z M64.2,44.1
	c0.1,0,0.1,0,0.2,0.1c0,0,0,0,0,0C64.3,44.2,64.3,44.1,64.2,44.1L64.2,44.1z M64.4,44.2C64.4,44.2,64.4,44.2,64.4,44.2
	C64.4,44.2,64.4,44.2,64.4,44.2C64.4,44.2,64.4,44.2,64.4,44.2L64.4,44.2z M61.5,69.1c-0.2,0.7-0.4,1.3-0.7,1.9
	c-0.6,1.3-1.2,2.5-2,3.6c-0.1-0.1-0.2-0.2-0.3-0.3c-0.2-0.3-0.4-0.6-0.5-0.9c-0.1-0.2-0.1-0.4-0.2-0.7c0-0.2,0-0.4,0-0.6
	c0-0.2,0.1-0.4,0.2-0.6c0.1-0.2,0.2-0.3,0.3-0.5c0.3-0.3,0.5-0.5,0.8-0.8c0.6-0.4,1.2-0.8,1.9-1.1C61.1,69.2,61.3,69.1,61.5,69.1
	L61.5,69.1z M58.7,74.7C58.7,74.7,58.8,74.7,58.7,74.7C58.8,74.7,58.8,74.7,58.7,74.7C58.8,74.7,58.7,74.7,58.7,74.7L58.7,74.7z
	 M58.7,74.9C58.7,74.9,58.7,74.9,58.7,74.9c-0.1,0-0.2,0-0.3,0C58.5,74.9,58.6,74.9,58.7,74.9L58.7,74.9z M58.5,75
	c0,0-0.1,0-0.1,0.1C58.4,75,58.5,75,58.5,75L58.5,75z"/>
<path class="st0" d="M96.7,33.3c-0.5,0-1.1,0.2-1.5,0.5c-0.3,0.2-0.6,0.5-0.8,0.8c-0.1,0.1-0.2,0.3-0.2,0.4
	c-0.2,0.3-0.3,0.6-0.5,0.8c-0.2,0.4-0.4,0.8-0.6,1.2c-0.4,1-0.8,2-1.1,3c-0.4,1.1,0.4,2.4,1.5,2.7c1.2,0.3,2.3-0.4,2.7-1.5
	c0.2-0.7,0.5-1.4,0.8-2.1c0.1-0.2,0.2-0.4,0.3-0.6c0.3,0.6,0.6,1.2,0.9,1.8c0.4,1,0.8,2,1.2,3.1c0.5,1.2,1,2.3,1.7,3.3
	c0.9,1.3,2,2.3,3.4,3.1c0.8,0.4,1.8,0.4,2.5-0.3c0.4-0.4,0.6-0.9,0.6-1.5c0-0.5-0.2-1.1-0.6-1.5c-0.6-0.5-1.2-1.1-1.7-1.7
	c-1-1.4-1.6-2.9-2.3-4.4c-0.2-0.5-0.4-1-0.6-1.5c-0.4-0.9-0.7-1.7-1.2-2.5c-0.5-0.9-1.1-1.8-1.9-2.3c-0.7-0.5-1.5-0.7-2.3-0.7
	C96.8,33.3,96.7,33.3,96.7,33.3L96.7,33.3z M96.4,37.5c0.1,0,0.2,0.1,0.2,0.1c0,0,0,0,0,0C96.6,37.6,96.5,37.5,96.4,37.5L96.4,37.5z
	"/>
<path class="st0" d="M108.4,32.6c-2,2.1-4,4.2-6,6.3c-1.2,1.3-2.4,2.5-3.6,3.9c-1.3,1.5-2.7,3-4,4.6c-1.4,1.7-2.7,3.5-4,5.3
	c-0.5,0.8-0.3,1.9,0.3,2.5c0.4,0.4,0.9,0.6,1.5,0.6c0.5,0,1.1-0.2,1.5-0.6c5.5-6.8,11.5-13.1,17.5-19.4c0.9-0.9,0.9-2.3,0-3.2
	c-0.4-0.4-1-0.7-1.6-0.7C109.4,32,108.8,32.2,108.4,32.6L108.4,32.6z"/>
<path class="st0" d="M126.7,34.2c0,0.1,0,0.1-0.1,0.2c-0.5,1-1,1.9-1.6,2.8c-0.7,1.1-1.4,2.1-2.2,3.1c-1,1.2-2.1,2.4-3.3,3.4
	c-0.2,0.2-0.5,0.3-0.8,0.5c0.2-1.1,0.5-2.2,0.8-3.3c0.3-1.5,0.7-2.9,1-4.4c0.4-1.5-0.4-3-2-3.5c-1.4-0.4-3.1,0.5-3.5,2
	c-0.5,2.2-1,4.5-1.6,6.7c-0.3,1.1-0.5,2.2-0.6,3.4c-0.1,1.2,0.1,2.5,0.7,3.6c0.6,1.2,1.7,1.8,2.9,1.9c1.2,0.1,2.4-0.3,3.5-0.8
	c1-0.4,1.8-1.1,2.7-1.8c0.6-0.5,1.1-1,1.6-1.5c-0.3,1.9-0.5,3.7-0.8,5.6c-0.3,2.2-0.7,4.3-1.1,6.4c-0.1,0.1-0.2,0.1-0.3,0.2
	c-1.5,0.8-3,1.9-4.2,3.1c-1.4,1.5-2.4,3.3-2.7,5.3c-0.2,1.1-0.2,2-0.1,3.1c0.1,0.9,0.5,1.7,0.9,2.5c0.5,0.8,1.1,1.5,1.9,2
	c0.4,0.3,1.2,0.5,1.7,0.4c0.6,0,1.5-0.1,2.1-0.5c0.4-0.3,0.8-0.6,1.1-0.9c0.3-0.4,0.6-0.7,0.8-1.2c0.3-0.5,0.5-1.2,0.7-1.7
	c0.2-0.6,0.5-1.3,0.7-1.9c0.2-0.6,0.4-1.3,0.6-1.9c0.2-0.8,0.4-1.7,0.7-2.5c0.2-0.7,0.3-1.4,0.5-2.1c0.2-0.1,0.4-0.2,0.6-0.3
	c2.4-1,4.8-1.7,7.2-2.6c2-0.7,3.9-1.4,5.9-2.1c0.6-0.2,1.1-0.5,1.4-1.1c0.3-0.5,0.4-1.2,0.2-1.8c-0.3-1.2-1.6-2-2.9-1.6
	c-2.8,0.8-5.6,1.6-8.4,2.4c-1,0.3-2,0.6-3,0.9c0-0.1,0-0.2,0-0.3c0.2-1.5,0.4-3,0.6-4.5c0.4-3,0.7-6.1,1.1-9.1c0.3-2,0.6-4,1.1-6
	c0.1-0.4,0.2-0.7,0.3-1.1c0.3-1.2-0.4-2.4-1.6-2.8c-0.2-0.1-0.4-0.1-0.6-0.1C127.8,32.5,127,33.2,126.7,34.2L126.7,34.2z"/>
<path class="st0" d="M169.4,30c-3.2,0.2-6.3,0.6-9.5,1c-0.6,0.1-1.2,0.2-1.6,0.7c-0.4,0.4-0.7,1-0.7,1.6c0,0.6,0.2,1.2,0.7,1.6
	c0.4,0.4,1.1,0.7,1.6,0.7c3.4-0.4,6.7-0.9,10-1.4c0.9-0.2,1.6-1.2,1.6-2.1c0-1.1-0.9-2.1-2-2.1C169.5,30,169.5,30,169.4,30L169.4,30
	z"/>
<path class="st0" d="M171,38.6c-0.6,0.1-1.2,0.2-1.8,0.3c-1.5,0.2-3,0.2-4.5,0.2c-1.2,0-2.3-0.1-3.5-0.1c-1.1,0-2,0.9-2,2
	c0,1.1,0.9,1.9,2,2c1.4,0,2.9,0.1,4.3,0.1c2.2,0,4.4-0.3,6.4-0.8c1-0.2,1.5-1.3,1.3-2.2c-0.1-0.5-0.4-0.9-0.8-1.1
	c-0.3-0.2-0.6-0.2-0.9-0.2C171.3,38.5,171.1,38.5,171,38.6L171,38.6z"/>
<path class="st0" d="M201.6,12.9c-0.7,0.4-1.1,1-1.4,1.8c-1.3,3.3-2.5,6.6-3.7,9.9c-0.7,2-1.5,4-2.1,6c-0.4,1.4-0.9,2.8-1.3,4.2
	c-0.3,1-0.5,2-0.8,2.9c-0.1,0.5-0.3,1.1-0.4,1.6c-0.2,0.9-0.3,1.8-0.5,2.8c0,0.3-0.1,0.6-0.1,0.9c0,0.5,0.1,1.1,0.2,1.6
	c0.1,0.4,0.3,0.8,0.5,1.1c0.3,0.5,0.6,0.9,1,1.4c0.3,0.2,0.6,0.5,0.9,0.7c0.3,0.2,0.6,0.4,1,0.6c1.6,0.8,3.3,1,5.1,1.2
	c0.4,0,0.9-0.1,1.3-0.3c0.6-0.3,1-0.9,1.1-1.5c0.4-1.3-0.4-2.7-1.7-3.1c-0.7-0.2-1.3-0.4-2-0.6c-0.4-0.2-0.9-0.4-1.3-0.7
	c0,0,0,0,0,0c0-0.2,0-0.5,0-0.7c0.2-1.3,0.5-2.5,0.9-3.7c0.2-0.8,0.4-1.6,0.6-2.3c0.6-2,1.2-4,1.8-6c0.2-0.7,0.5-1.3,0.7-2
	c0.5-1.3,1-2.6,1.4-3.9c1-2.8,2.1-5.6,3.2-8.3c0.3-0.7,0.1-1.7-0.3-2.3c-0.4-0.7-1-1.2-1.8-1.4c-0.3-0.1-0.5-0.1-0.8-0.1
	C202.6,12.5,202.1,12.6,201.6,12.9L201.6,12.9z M197.3,42.8c0,0,0,0.1,0,0.1C197.3,42.9,197.3,42.8,197.3,42.8L197.3,42.8z
	 M197.6,43.5C197.6,43.5,197.6,43.5,197.6,43.5C197.6,43.5,197.6,43.5,197.6,43.5L197.6,43.5z M197.5,43.5c0,0,0.1,0.1,0.1,0.1
	C197.6,43.6,197.5,43.5,197.5,43.5L197.5,43.5z"/>
<path class="st0" d="M213.6,31c-1.8,0.5-3.2,1.9-4.2,3.4c-0.5,0.7-0.8,1.6-1,2.4c-0.2,0.9-0.2,1.9,0.1,2.8c0.6,1.8,2.1,3.2,3.9,3.9
	c1.7,0.6,3.5,0.6,5.2,0.2c0.8-0.2,1.6-0.5,2.4-0.9c0.8-0.4,1.5-1,2.1-1.5c0.6-0.6,1.1-1.3,1.4-2c0.4-0.8,0.6-1.6,0.7-2.5
	c0.1-1.6-0.4-3.2-1.3-4.6c-0.5-0.8-1.4-1.2-2.3-0.9c-0.5,0.1-0.9,0.5-1.2,0.9c-0.2,0.4-0.4,1.1-0.2,1.6c0.2,0.5,0.4,1,0.5,1.5
	c0,0.3,0,0.6,0,0.9c0,0.2-0.1,0.4-0.2,0.6c-0.1,0.2-0.2,0.3-0.3,0.4c-0.2,0.2-0.3,0.3-0.5,0.5c-0.3,0.2-0.7,0.4-1,0.6
	c-0.5,0.2-1,0.3-1.5,0.4c-0.4,0-0.9,0-1.3,0c-0.3-0.1-0.5-0.1-0.8-0.2c-0.2-0.1-0.3-0.2-0.5-0.3c0,0,0,0-0.1-0.1
	c0-0.1-0.1-0.1-0.1-0.2c0-0.2,0.1-0.3,0.1-0.5c0.1-0.2,0.2-0.4,0.4-0.6c0.2-0.2,0.4-0.4,0.6-0.6c0.9,1,2.7,0.8,3.6-0.1
	c0.5-0.5,0.8-1.2,0.8-1.8c0-0.7-0.3-1.3-0.8-1.8c-0.6-0.6-1.3-1.2-2.1-1.5c-0.4-0.1-0.8-0.2-1.2-0.2C214.6,30.7,214.1,30.8,213.6,31
	L213.6,31z M213.7,37.4c0,0,0,0.1,0,0.1C213.7,37.5,213.7,37.5,213.7,37.4L213.7,37.4z"/>
<path class="st0" d="M239.6,27.4c-1.4,0.1-2.8,0.6-4.1,1.2c-0.5,0.2-0.9,0.5-1.4,0.8c-0.7,0.4-1.5,0.9-1.9,1.6
	c-0.4,0.8-0.6,1.5-0.7,2.3c0,0.8,0.1,1.7,0.5,2.4c1.4,2.8,4.8,4.6,7.9,3.9c0.2,0,0.3-0.1,0.5-0.1c0,0.1,0,0.3-0.1,0.4
	c-0.4,2.4-0.9,4.8-1.3,7.3c-0.2,1-0.4,1.9-0.7,2.8c-0.2,1-0.4,1.9-0.7,2.9c-0.2,0.8-0.5,1.6-0.7,2.4c-0.4,0.2-0.7,0.4-1.1,0.6
	c-1.6,0.9-3,2-4.1,3.5c-0.6,0.9-1.1,1.9-1.2,2.9c-0.1,1.2,0.4,2.6,1.3,3.4c0.2,0.1,0.4,0.3,0.6,0.4c0.3,0.1,0.7,0.3,1,0.4
	c0.5,0.2,1.4,0.1,1.9,0c0.5-0.1,1-0.3,1.5-0.5c0.4-0.2,0.9-0.5,1.2-0.9c1.3-1.3,2-2.9,2.5-4.6c0.3-0.8,0.5-1.5,0.8-2.3
	c0.4-0.3,0.7-0.5,1.1-0.8c0.5-0.4,0.9-0.8,1.1-1.4c0.2-0.6,0.1-1.3-0.2-1.8c-0.2-0.3-0.4-0.5-0.6-0.7c0.1-0.3,0.1-0.5,0.2-0.8
	c0.3-1.4,0.7-2.7,0.9-4.1c0.5-3.1,1-6.1,1.5-9.2c0.3-1.8,0.6-3.5,1.1-5.3c0.2-0.9-0.1-1.9-0.8-2.5c0,0,0-0.1,0-0.1
	c0.2-0.7,0.1-1.5-0.3-2.1c-0.4-0.7-0.9-1-1.6-1.3c-1.2-0.5-2.5-0.8-3.8-0.8C239.8,27.4,239.7,27.4,239.6,27.4L239.6,27.4z
	 M240.2,32.9c0.4,0.1,0.8,0.2,1.1,0.3c-0.1,0.1-0.2,0.2-0.3,0.3c-0.4,0.3-0.9,0.6-1.3,0.8c-0.3,0.1-0.6,0.2-0.8,0.2
	c-0.1,0-0.2,0-0.3,0c-0.2,0-0.4-0.1-0.6-0.2c-0.2-0.1-0.3-0.2-0.4-0.3c-0.1-0.1-0.2-0.1-0.2-0.2c0.3-0.2,0.7-0.4,1-0.6
	c0.4-0.1,0.8-0.3,1.3-0.4C239.8,32.9,240,32.9,240.2,32.9L240.2,32.9z M237,34.1C237,34.1,237,34.1,237,34.1
	C237,34.1,237,34.1,237,34.1C237,34.1,237,34.1,237,34.1L237,34.1z M234.2,61.2c-0.1,0-0.2,0-0.3,0C234,61.3,234.1,61.3,234.2,61.2
	L234.2,61.2z"/>
<path class="st0" d="M268.6,23.2c-0.5,0.1-1,0.5-1.3,0.8c-0.7,0.8-1,1.8-1.2,2.8c-0.3,1.1,0.4,2.4,1.5,2.7c0.7,0.2,1.4,0,1.9-0.4
	c0.7,1.8,1.5,3.5,2.3,5.2c0.8,1.8,1.6,3.5,2.7,5.1c0.6,0.8,1.2,1.7,1.9,2.3c0.5,0.4,1,0.7,1.6,0.9c0.6,0.2,1.2,0.3,1.8,0.3
	c1,0.1,2-0.8,2.2-1.7c0.2-0.6,0.1-1.3-0.2-1.8c-0.3-0.5-0.8-1-1.4-1.1c-0.2,0-0.4-0.1-0.7-0.1c-0.1,0-0.1-0.1-0.1-0.1
	c-0.3-0.3-0.5-0.6-0.8-0.9c-1.4-1.9-2.5-4-3.5-6.1c-0.6-1.2-1.1-2.4-1.7-3.7c-0.7-1.7-1.4-3.4-3.1-4.2c-0.4-0.2-0.9-0.3-1.4-0.3
	C268.9,23.1,268.7,23.1,268.6,23.2L268.6,23.2z M278.4,36.9c0.1,0.1,0.2,0.3,0.3,0.4C278.7,37.2,278.5,37.1,278.4,36.9L278.4,36.9z"
	/>
<path class="st0" d="M286.7,19.4c-0.9,0.2-1.7,0.7-2.4,1.2c-0.8,0.5-1.5,1.2-2.2,1.8c-1.3,1.1-2.4,2.4-3.5,3.7
	c-1.1,1.3-2.2,2.6-3.3,3.9c-1.8,2.1-3.6,4.2-5.4,6.2c-3.8,4.4-7.5,8.8-11.2,13.2c-0.4,0.5-0.7,1-0.7,1.7c0,0.6,0.2,1.2,0.7,1.7
	c0.9,0.9,2.5,0.9,3.3,0c3.7-3.9,7.2-8,10.8-12.1c1.7-1.9,3.4-3.9,5-5.8c0.9-1.1,1.8-2.1,2.7-3.2c0.9-1.1,1.8-2.2,2.8-3.3
	c1.1-1.2,2.2-2.4,3.5-3.4c0.4-0.3,0.7-0.5,1.1-0.7c0,0,0.1,0,0.1,0c1.3-0.3,2.1-1.8,1.8-3.1c-0.3-1.1-1.4-1.9-2.5-1.9
	C287.1,19.3,286.9,19.3,286.7,19.4L286.7,19.4z"/>
<path class="st0" d="M318.3,25.6c-3,0.5-6,0.9-9,1.4c-3.4,0.5-6.7,1-10.1,1.5c-0.7,0.1-1.4,0.7-1.7,1.3c-0.4,0.7-0.5,1.5-0.3,2.2
	c0.2,0.7,0.7,1.3,1.3,1.7c0.2,0.1,0.5,0.2,0.7,0.3c0.5,0.1,1,0.1,1.5,0c2-0.3,4.1-0.6,6.1-1c1.3-0.2,2.5-0.4,3.8-0.6
	c3-0.6,6-1.2,8.9-2.1c1.3-0.4,2.1-1.7,1.7-3.1c-0.2-0.6-0.6-1.2-1.1-1.5c-0.4-0.2-0.8-0.3-1.2-0.3C318.8,25.6,318.6,25.6,318.3,25.6
	L318.3,25.6z"/>
<path class="st0" d="M311.3,20.3c-0.7,0.4-1.1,1-1.4,1.8c-1.1,3.2-2.3,6.5-3.3,9.8c-0.9,2.9-1.8,5.7-2.2,8.7
	c-0.1,0.8-0.1,1.4,0.3,2.1c0.4,0.6,0.9,1.1,1.6,1.2c1.4,0.4,3-0.5,3.3-1.9c0.7-2.8,1.7-5.6,2.6-8.3c1.1-3.3,2.3-6.7,3.5-10
	c0.5-1.5-0.6-3.2-2.1-3.6c-0.3-0.1-0.5-0.1-0.8-0.1C312.3,19.9,311.8,20,311.3,20.3L311.3,20.3z"/>
<path class="st0" d="M343.2,5.1c-4,7.5-8.4,15-9.9,23.5c-0.2,1.1-0.3,2.1-0.4,3.2c-0.1,1.1,0,2.1,0.2,3.2c0.2,0.9,0.6,1.8,1.1,2.5
	c0.6,1,1.5,1.7,2.5,2.3c0.8,0.5,1.6,0.8,2.5,1c1,0.2,2,0.1,3.1-0.1c0.6-0.1,1.2-0.3,1.8-0.5c0.6-0.2,1.2-0.4,1.8-0.7
	c0.6-0.3,1.2-0.5,1.5-1.2c0.3-0.6,0.4-1.3,0.3-2c-0.4-1.3-1.8-2.2-3.1-1.8c-1,0.3-2,0.6-3,0.7c-0.3,0-0.6,0-0.8,0
	c-0.1,0-0.2-0.1-0.3-0.1c-0.4-0.2-0.7-0.4-1-0.6c0,0-0.1-0.1-0.1-0.1c-0.1-0.2-0.3-0.4-0.4-0.6c-0.1-0.2-0.1-0.4-0.2-0.7
	c-0.1-1,0-2,0.1-3c0.6-3.4,1.7-6.8,3-10c0.9-2,1.9-4,2.9-5.9c1.1-2.2,2.3-4.3,3.4-6.5c0.7-1.4,0.4-3.1-1-3.9
	c-0.4-0.3-0.9-0.4-1.4-0.4C344.7,3.7,343.7,4.1,343.2,5.1L343.2,5.1z"/>
<path class="st0" d="M358.2,22.3c-0.5,0-1,0.1-1.5,0.2c-0.5,0.2-1,0.4-1.4,0.7c-0.5,0.2-0.9,0.6-1.3,0.9c-0.5,0.4-0.9,0.7-1.3,1.2
	c-0.7,0.7-1.2,1.5-1.8,2.3c-0.6,0.9-1.2,1.8-1.6,2.8c-0.3,1-0.5,1.9-0.5,2.9c0,1.3,0.6,2.5,1.1,3.6c0.5,0.9,1.2,1.7,2,2.5
	c0.8,0.8,1.8,1.4,2.9,1.7c1,0.3,2,0.3,3,0.1c1.1-0.2,2.2-0.6,3.2-1.2c0.9-0.5,1.8-1.3,2.5-2.1c0.7-0.9,1.3-1.8,1.7-2.8
	c0.4-1,0.7-1.9,0.8-3c0.1-1.2,0-2.3-0.2-3.4c-0.1-0.5-0.4-1-0.6-1.5c-0.2-0.5-0.5-0.9-0.8-1.4c-0.6-0.9-1.2-1.6-2-2.2
	c-0.5-0.4-1-0.7-1.6-0.7c-0.2,0-0.5,0-0.7,0.1C359.5,22.5,358.9,22.3,358.2,22.3C358.2,22.3,358.2,22.3,358.2,22.3L358.2,22.3z
	 M359.6,27.5c0.3,0.5,0.6,1,0.8,1.5c0.2,0.4,0.3,0.8,0.4,1.3c0,0.4,0,0.7,0,1.1c-0.1,0.4-0.2,0.7-0.3,1.1c-0.3,0.5-0.6,1.1-0.9,1.6
	c-0.3,0.3-0.6,0.7-1,1c-0.3,0.2-0.6,0.4-0.9,0.5c-0.3,0.1-0.5,0.2-0.8,0.2c-0.1,0-0.3,0-0.4,0c-0.1,0-0.2-0.1-0.4-0.1
	c-0.4-0.3-0.7-0.7-1-1c-0.2-0.3-0.4-0.6-0.5-1c-0.1-0.2-0.1-0.4-0.2-0.6c0-0.1,0-0.1,0-0.2c0.1-0.3,0.1-0.5,0.2-0.7
	c0.4-0.8,1-1.6,1.5-2.3c0.4-0.5,0.8-0.9,1.3-1.4c0.3-0.2,0.5-0.3,0.8-0.5C358.8,27.9,359.2,27.7,359.6,27.5L359.6,27.5z M356.4,35.7
	c0.1,0,0.2,0.1,0.2,0.1C356.5,35.8,356.5,35.7,356.4,35.7L356.4,35.7z"/>
<path class="st0" d="M379.1,21.8c-1.1,0.4-2,1-2.9,1.6c-0.9,0.7-1.7,1.4-2.4,2.2c-0.8,0.8-1.4,1.7-2.1,2.6c-0.7,0.9-1.1,1.9-1.5,3
	c-0.4,1-0.2,2.3,0,3.4c0.1,0.4,0.3,1,0.5,1.4c0.3,0.6,0.7,1.1,1.1,1.6c0.6,0.7,1.4,1.3,2.3,1.6c1.2,0.4,2.4,0.5,3.6,0.3
	c1.1-0.2,2.2-0.5,3.2-1.1c-0.3,2.1-0.7,4.2-1,6.2c-0.3,0.1-0.6,0.3-1,0.4c-0.8,0.4-1.5,0.7-2.3,1.1c-0.8,0.4-1.6,0.8-2.3,1.3
	c-1,0.6-1.9,1.3-2.8,2c-1.4,1.1-2.6,2.7-3.5,4.3c-0.5,0.9-0.9,1.9-1.1,2.9c-0.3,1.1-0.3,2.4-0.2,3.6c0.1,1.1,0.3,2.2,0.8,3.2
	c0.4,0.9,1,1.7,1.8,2.4c1.7,1.6,4.3,2.3,6.6,1.6c2-0.7,3.6-2.3,4.6-4.2c0.7-1.2,1.1-2.6,1.6-3.9c0.9-2.7,1.7-5.5,2.2-8.3
	c0.1-0.9,0.3-1.7,0.4-2.6c1.5-0.7,3.1-1.5,4.6-2.1c-0.1,0-0.2,0.1-0.3,0.1c0,0,0,0,0,0c0.6-0.3,1.1-0.5,1.5-1.1
	c0.3-0.6,0.4-1.3,0.2-1.9c-0.3-1.2-1.8-2.2-3.1-1.7c-0.7,0.2-1.4,0.5-2.1,0.7c0.2-1,0.3-2.1,0.4-3.1c0.4-3,0.7-6,1-9.1
	c0.4-0.9,0.6-2,0.7-3c0-0.5,0-0.8,0-1.2c-0.1-0.6-0.4-1-0.8-1.4c-0.1-0.1-0.2-0.2-0.3-0.3c-0.1-0.8-0.5-1.6-1.3-2.1
	c-0.9-0.5-1.8-0.8-2.8-0.9c-0.2,0-0.4,0-0.6,0C380.8,21.3,379.9,21.5,379.1,21.8L379.1,21.8z M381.8,26.6
	C381.8,26.6,381.8,26.6,381.8,26.6c0.2,0,0.4,0.1,0.5,0.1c0,0,0.1,0,0.1,0.1c-0.1,0.6-0.2,1.3-0.3,1.9c0,0.1,0,0.2,0,0.3
	c-0.1,0.2-0.3,0.5-0.4,0.7c-0.4,0.7-0.9,1.4-1.3,2.1c-0.4,0.5-0.8,1-1.3,1.4c-0.3,0.2-0.5,0.3-0.8,0.5c-0.4,0.2-0.9,0.3-1.3,0.4
	c-0.3,0-0.6,0-0.9,0c0,0,0,0,0,0c-0.1-0.1-0.2-0.2-0.3-0.3c-0.1-0.1-0.2-0.3-0.2-0.4c0-0.1-0.1-0.3-0.1-0.4c0,0,0-0.1,0-0.1
	c0-0.1,0-0.1,0-0.2c0.4-0.7,0.8-1.4,1.2-2c0.8-1,1.6-1.9,2.6-2.7c0.5-0.4,1.1-0.7,1.7-1C381.2,26.7,381.5,26.6,381.8,26.6
	L381.8,26.6z M382,26.6C382,26.6,382,26.6,382,26.6C382.1,26.6,382.1,26.6,382,26.6C382.1,26.6,382,26.6,382,26.6L382,26.6z
	 M382.1,26.6c0.1,0,0.1,0,0.2,0C382.2,26.6,382.1,26.6,382.1,26.6C382.1,26.6,382.1,26.6,382.1,26.6L382.1,26.6z M375.4,33.8
	c0.1,0,0.2,0.1,0.3,0.1C375.6,33.9,375.5,33.8,375.4,33.8L375.4,33.8z M378.3,51.6c-0.1,0.4-0.2,0.8-0.3,1.2
	c-0.2,1.1-0.6,2.1-0.9,3.2c-0.2,0.5-0.4,1.1-0.6,1.6c-0.2,0.6-0.4,1.2-0.7,1.8c-0.3,0.6-0.6,1.1-0.9,1.7c-0.2,0.2-0.4,0.4-0.5,0.5
	c-0.1,0.1-0.3,0.2-0.4,0.2c0,0,0,0-0.1,0c0,0,0,0,0,0c-0.1,0-0.3-0.1-0.4-0.1c-0.1,0-0.1-0.1-0.2-0.1c-0.1-0.1-0.3-0.3-0.4-0.4
	c-0.1-0.2-0.2-0.3-0.3-0.5c-0.1-0.3-0.2-0.7-0.3-1c0-0.5-0.1-1,0-1.5c0.1-0.4,0.2-0.7,0.3-1.1c0.3-0.7,0.7-1.3,1.2-2
	c0.6-0.7,1.3-1.3,2-1.9C376.6,52.7,377.5,52.1,378.3,51.6L378.3,51.6z M373.6,61.9c-0.1,0-0.2,0-0.3,0
	C373.4,62,373.5,61.9,373.6,61.9L373.6,61.9z"/>
<path class="st0" d="M401.2,19.4c-0.6,0.6-0.7,1.2-0.8,1.9c-0.1,1-0.2,2.1-0.3,3.1c-0.1,1.3-0.2,2.7,0.1,4c0.2,1.3,0.9,2.5,1.9,3.3
	c0.6,0.5,1.1,0.8,1.8,0.9c0.7,0.2,1.5,0.1,2.2,0c1.1-0.2,2.1-0.6,3.1-1.1c0,0.2-0.1,0.5-0.1,0.7c-0.3,1.8-0.5,3.5-0.8,5.3
	c-1.3,0.9-2.5,2-3.6,3.1c-1.4,1.4-2.7,3.1-3.6,4.9c-1.1,2.1-1.4,4.4-1.2,6.6c0.2,2.1,0.7,4.1,1.7,5.9c0.6,0.9,1.5,1.7,2.5,2
	c0.4,0.1,0.9,0.2,1.4,0.2c0.9,0,1.7-0.4,2.3-1c1.3-1,1.8-2.6,2.3-4.1c0.2-0.7,0.5-1.5,0.7-2.2c0.4-1.4,0.9-2.8,1.2-4.3
	c0.2-1.2,0.5-2.3,0.7-3.5c0.2-1.4,0.4-2.7,0.6-4.1c2.2-1.5,4.4-2.9,6.8-4.1c1.7-0.9,3.5-1.7,5.3-2.5c2.2-1,4.3-2,6.5-2.9
	c0.1-0.1,0.3-0.1,0.4-0.2c0.7-0.3,1.3-0.6,1.7-1.3c0.4-0.6,0.5-1.4,0.3-2.2c-0.2-0.7-0.7-1.3-1.3-1.7c-0.6-0.4-1.5-0.5-2.2-0.3
	c-3,1.1-5.9,2.4-8.8,3.7c-2.4,1.1-4.8,2.2-7.1,3.4c-0.2,0.1-0.4,0.2-0.6,0.4c0.1-1,0.3-2.1,0.4-3.1c0.1-0.7,0.3-1.4,0.4-2.2
	c0.2-0.9,0.4-1.9,0.7-2.8c0.1-0.2,0.2-0.3,0.3-0.5c0.3-0.6,0.5-1.2,0.5-1.9c0-1.1-0.8-2.2-1.9-2.5c-1.1-0.3-2.3,0.2-2.9,1.2
	c-0.3,0.5-0.6,1-0.8,1.5c-0.7,0.7-1.4,1.4-2.1,2c-0.8,0.6-1.7,1.2-2.6,1.7c-0.3,0.1-0.5,0.2-0.8,0.3c-0.1-2,0.2-4,0.4-6
	c0.1-0.7-0.3-1.5-0.8-1.9c-0.5-0.5-1.2-0.8-1.9-0.8C402.4,18.6,401.7,18.9,401.2,19.4L401.2,19.4z M405.4,27.1c0,0.1,0,0.1,0,0.2
	C405.4,27.2,405.4,27.1,405.4,27.1L405.4,27.1z M405.6,27.9C405.6,27.9,405.6,27.9,405.6,27.9C405.6,27.9,405.6,27.9,405.6,27.9
	L405.6,27.9z M406.2,48.6c-0.1,0.5-0.3,1-0.4,1.5c0,0,0,0,0,0c0.1-0.5,0.2-0.9,0.4-1.3C406.1,48.7,406.1,48.7,406.2,48.6L406.2,48.6
	z"/>
</svg>
