<?xml version="1.0" encoding="utf-8"?>
<!-- Generator: Adobe Illustrator 20.1.0, SVG Export Plug-In . SVG Version: 6.00 Build 0)  -->
<svg version="1.1" id="Layer_1" xmlns="http://www.w3.org/2000/svg" xmlns:xlink="http://www.w3.org/1999/xlink" x="0px" y="0px"
	 viewBox="0 0 134.2 20.4" style="enable-background:new 0 0 134.2 20.4;" xml:space="preserve">
<style type="text/css">
	.st0{fill:#010101;}
</style>
<path class="st0" d="M131.3,10c-2.9,0.1-5.8,0.4-8.7,0.7c-2.9,0.3-5.8,0.6-8.7,0.7c-1.4,0-2.7,0-4.1-0.1c-1.3,0-2.6-0.1-4-0.1
	c-2.8-0.1-5.6-0.2-8.4-0.2c-3.1,0-6.1,0-9.2,0c-2.7,0-5.4-0.1-8.1-0.1c-2.9,0-5.7,0-8.6,0c-3,0-6-0.1-9-0.1c-1.4,0-2.8,0-4.1,0.1
	c-1.3,0-2.7,0.1-4,0.1c-1.5,0.1-2.9,0.2-4.3,0.3c-0.6,0.1-1.2,0.1-1.9,0.2c-0.9,0.1-1.7,0.2-2.6,0.3c-1.5,0.2-2.9,0.4-4.4,0.7
	c-1.5,0.2-3.1,0.5-4.6,0.7c-1.4,0.2-2.8,0.3-4.2,0.4c-1.3,0.1-2.7,0.2-4,0.3c-2.7,0.2-5.5,0.3-8.2,0.6c-0.9,0.1-1.9,0.2-2.8,0.3
	c-0.5,0.1-1,0.1-1.5,0.2c-1.7,0.2-3.3,0.5-5,0.8c-0.3,0.1-0.7,0.1-1,0.2c-1,0.2-1.9,0.4-2.9,0.6c-2.1,0.5-4.2,0.9-6.3,1.4
	c-0.5,0.1-0.8,0.7-0.7,1.2s0.7,0.8,1.2,0.7c1.7-0.4,3.3-0.8,5-1.1c1.5-0.3,3-0.6,4.5-1c0.8-0.2,1.5-0.3,2.3-0.4
	c1.2-0.2,2.3-0.4,3.5-0.5c2.8-0.3,5.5-0.6,8.3-0.8c2.9-0.2,5.8-0.3,8.6-0.6c2.1-0.2,4.2-0.5,6.3-0.8c1-0.1,2.1-0.3,3.1-0.5
	c0.9-0.1,1.9-0.3,2.8-0.4c1.4-0.2,2.7-0.4,4.1-0.5c0.7-0.1,1.3-0.1,2-0.2c0.9-0.1,1.8-0.1,2.6-0.2c1.3-0.1,2.5-0.1,3.8-0.1
	c1.5,0,2.9-0.1,4.4-0.1c3,0,5.9,0.1,8.9,0.1c2.8,0,5.6,0,8.4,0c2.7,0,5.5,0.1,8.2,0.1c3.1,0,6.1,0,9.2,0c2.8,0,5.6,0.1,8.5,0.2
	c1.4,0.1,2.8,0.1,4.2,0.1c1.3,0,2.6,0.1,3.9,0.1c2.9-0.1,5.8-0.3,8.6-0.6c2.7-0.3,5.5-0.5,8.2-0.7c0.3,0,0.5,0,0.8,0
	c0.5,0,1-0.4,1-1C132.3,10.5,131.9,10,131.3,10L131.3,10L131.3,10z"/>
<path class="st0" d="M126.2,0c-0.2,0.1-0.5,0.2-0.6,0.5c-0.1,0.2-0.2,0.5-0.1,0.8c0.1,0.3,0.2,0.4,0.5,0.6s0.6,0.5,1,0.7l0,0
	c1.3,1,2.6,2,3.8,3c0,0,0,0-0.1,0c0.4,0.3,0.9,0.7,1.2,1.1c0.1,0.1,0.1,0.2,0.2,0.3c0.1,0.2,0.1,0.4,0.1,0.5s0,0.3,0,0.4
	c-0.1,0.4-0.2,0.7-0.3,1.1c-0.4,0.9-0.9,1.7-1.5,2.4c-0.7,0.8-1.4,1.6-2.1,2.4c-0.4,0.4-0.9,0.9-1.3,1.3c-0.5,0.4-0.9,0.9-1.4,1.3
	c-0.6,0.6-1.2,1.2-1.9,1.7c-0.2,0.1-0.4,0.3-0.6,0.4c-0.2,0.2-0.4,0.3-0.4,0.6c-0.1,0.3,0,0.5,0.1,0.8c0.3,0.4,0.9,0.6,1.3,0.4
	c0.5-0.4,1-0.7,1.5-1.1c0.2-0.2,0.4-0.4,0.7-0.6c0.3-0.3,0.7-0.6,1-0.9c0.8-0.7,1.5-1.5,2.2-2.2c1.4-1.4,2.7-2.9,3.7-4.6
	c0.3-0.6,0.6-1.2,0.8-1.9c0.1-0.3,0.2-0.6,0.2-0.9c0-0.4,0-0.7-0.1-1.1c-0.1-0.7-0.5-1.3-0.9-1.8c-0.4-0.4-0.8-0.8-1.3-1.2l0,0
	c-0.7-0.5-1.3-1.1-2-1.6c-1-0.8-2-1.5-3-2.3C126.8,0,126.6,0,126.4,0C126.4-0.1,126.3,0,126.2,0L126.2,0z"/>
</svg>
