<?xml version="1.0" encoding="utf-8"?>
<!-- Generator: Adobe Illustrator 20.1.0, SVG Export Plug-In . SVG Version: 6.00 Build 0)  -->
<svg version="1.1" id="Layer_1" xmlns="http://www.w3.org/2000/svg" xmlns:xlink="http://www.w3.org/1999/xlink" x="0px" y="0px"
	 viewBox="0 0 47.6 49.9" style="enable-background:new 0 0 47.6 49.9;" xml:space="preserve">
<style type="text/css">
	.st0{fill:#010101;}
</style>
<path class="st0" d="M4.2,0C3.5,0.1,2.9,0.4,2.4,0.9c-0.5,0.6-0.7,1.3-0.8,2C1.5,3.6,1.4,4.3,1.3,5.1C1.2,5.9,1.2,6.7,1.2,7.6
	c0,0.4,0,0.9,0,1.3c0,2.3,0,4.6,0,6.9s0,4.6,0,6.9c0,2.3,0,4.7-0.1,7c0,0.9-0.1,1.8-0.1,2.7c0,1-0.1,2-0.1,3.1
	c-0.2,2.3-0.3,4.5-0.5,6.8c-0.1,1.2-0.2,2.4-0.3,3.6C0,46.6,0,47.3,0.2,48c0.3,0.8,0.9,1.3,1.7,1.6c0.7,0.2,1.4,0.3,2,0.3
	c0.7,0,1.4,0,2.1-0.1s1.3-0.1,2-0.2c0.7-0.1,1.4-0.2,2.1-0.4c0.3-0.1,0.7-0.3,1-0.5s0.6-0.5,0.9-0.7c0.3-0.3,0.3-0.8,0.1-1.1
	c-0.2-0.4-0.9-0.6-1.3-0.3c-0.2,0.2-0.4,0.3-0.6,0.5c-0.2,0.1-0.4,0.2-0.6,0.3c-0.5,0.2-1,0.3-1.5,0.3c-0.6,0.1-1.3,0.1-1.9,0.2
	C5.8,47.9,5.4,48,5,48c-0.6,0-1.3,0.1-1.9,0c-0.2,0-0.4-0.1-0.6-0.2c-0.1,0-0.1-0.1-0.2-0.1l-0.1-0.1l-0.1-0.1c0-0.1,0-0.1,0-0.2
	c0-0.3,0-0.6,0-0.9c0-0.2,0-0.5,0.1-0.7c0-0.3,0.1-0.7,0.1-1c0-0.5,0.1-1,0.1-1.5c0.1-1.2,0.2-2.4,0.3-3.6c0.2-2.1,0.3-4.1,0.4-6.2
	c0-1,0.1-2,0.1-3c0-1.4,0-2.9,0.1-4.3c0-2.1,0-4.3,0-6.4s0-4.1,0-6.2c0-1.3,0-2.5,0-3.8c0-0.6,0-1.1,0-1.7c0-0.3,0-0.7,0-1.1
	c0-0.8,0.1-1.5,0.1-2.3c0.1-0.3,0.1-0.7,0.2-1S3.7,3,3.8,2.7c0-0.1,0.1-0.2,0.1-0.2L4,2.4c0.1-0.1,0.2-0.1,0.3-0.1h0.1
	c0.1,0,0.1,0,0.2,0C5,2.4,5.4,2.5,5.9,2.6c0.4,0.1,0.8,0.2,1.3,0.3c0.5,0.1,1,0.2,1.5,0.3c1.9,0.4,3.7,0.8,5.6,1.2
	c0.5,0.1,1.1-0.2,1.2-0.7s-0.2-1.1-0.7-1.2c-2.6-0.6-5.3-1.1-7.9-1.7c-0.2,0-0.4-0.1-0.6-0.1C5.7,0.6,5.2,0.4,4.6,0.4
	C4.4,0,4.3,0,4.2,0L4.2,0z"/>
<path class="st0" d="M26.7,8.3c-1.8,1.8-3.5,3.6-5.3,5.4c-0.4,0.4-0.9,0.9-1.3,1.3s-0.8,0.8-1.2,1.3c-0.3,0.4-0.7,0.7-1,1.1
	c0,0-0.1,0-0.1,0.1c-0.1,0-0.1,0-0.2,0c-0.5,0.1-0.8,0.6-0.6,1.1c0.1,0.2,0.2,0.4,0.4,0.6c0.2,0.1,0.5,0.1,0.7,0.1
	c0.1,0,0.2,0,0.3,0c0.2,0,0.3-0.1,0.5-0.2s0.5-0.3,0.6-0.5c0.2-0.2,0.3-0.3,0.5-0.5c0.4-0.4,0.8-0.8,1.1-1.1c0.5-0.5,1-1,1.5-1.5
	c1.8-1.9,3.6-3.7,5.5-5.6c0.4-0.4,0.4-1,0-1.4c-0.2-0.2-0.5-0.3-0.7-0.3C27.2,8,26.9,8.1,26.7,8.3L26.7,8.3z"/>
<path class="st0" d="M16.9,7.8c-0.5,0.1-0.8,0.7-0.7,1.2c0.1,0.4,0.2,0.7,0.3,1c0.2,0.4,0.4,0.9,0.6,1.3c0.5,0.8,1.2,1.5,1.8,2.1
	c0.9,0.9,1.9,1.7,3,2.4c1.2,0.9,2.5,1.7,3.7,2.6c0.3,0.2,0.8,0.1,1.1-0.1c0.2-0.2,0.3-0.4,0.3-0.6s-0.1-0.5-0.3-0.6
	c-1.5-1.2-3-2.3-4.6-3.4c-0.5-0.4-1.1-0.8-1.6-1.3s-1-1-1.5-1.6c-0.3-0.4-0.6-0.9-0.8-1.3c-0.1-0.3-0.2-0.6-0.3-0.9
	c-0.1-0.4-0.5-0.7-1-0.7C17.1,7.8,17,7.8,16.9,7.8L16.9,7.8z"/>
<path class="st0" d="M20.3,29.6c-0.2,0.1-0.4,0.2-0.6,0.4c-0.1,0.2-0.1,0.5-0.1,0.7c0.1,0.7,0.2,1.3,0.3,2c0,0.3,0.1,0.6,0.1,0.9
	c0.1,0.6,0.2,1.3,0.5,1.9c0.1,0.3,0.2,0.5,0.4,0.7c0.2,0.2,0.5,0.4,0.8,0.6c0.3,0.1,0.6,0.2,0.9,0.2s0.7,0,1-0.1s0.6-0.2,0.8-0.4
	c0.3-0.2,0.6-0.4,0.9-0.6c0.5-0.4,1-0.8,1.5-1.2c0.3-0.2,0.3-0.7,0.1-1c-0.1-0.2-0.3-0.3-0.5-0.4c-0.2-0.1-0.5,0-0.6,0.1
	c-0.2,0.2-0.4,0.3-0.6,0.5c0.1,0,0.1-0.1,0.2-0.1c-0.3,0.2-0.6,0.5-1,0.7c-0.3,0.2-0.6,0.4-0.9,0.5c-0.2,0.1-0.4,0.1-0.5,0.2
	c-0.1,0-0.1,0-0.2,0h-0.1c-0.1,0-0.1-0.1-0.2-0.1l0,0c-0.1-0.1-0.1-0.2-0.2-0.4c-0.2-0.5-0.3-1.1-0.3-1.6c0-0.3-0.1-0.6-0.1-0.9
	c-0.1-0.7-0.2-1.3-0.3-2c0-0.2-0.2-0.5-0.4-0.6c-0.1-0.1-0.3-0.1-0.5-0.1C20.4,29.6,20.3,29.6,20.3,29.6L20.3,29.6z M22.1,34.6
	L22.1,34.6L22.1,34.6L22.1,34.6z M22.5,35.2L22.5,35.2L22.5,35.2L22.5,35.2z"/>
<path class="st0" d="M28.2,30.9c-0.2,0.1-0.5,0.2-0.6,0.5c-0.7,1.5-1.4,3-2,4.6c-0.5,1.1-1,2.3-1.5,3.4c-0.8,2-1.7,4.1-2.5,6.1
	c-0.3,0.7-0.5,1.3-0.7,2c-0.1,0.4,0.1,0.8,0.4,1c0.2,0.1,0.5,0.2,0.7,0.1c0.2-0.1,0.4-0.2,0.5-0.4c0.7-1.5,1.3-3,1.9-4.6
	c0.5-1.2,1-2.4,1.5-3.6v0.1V40c0,0,0-0.1,0.1-0.1V40c1.1-2.5,2.2-5.1,3.4-7.6c0.1-0.3,0.2-0.5,0.1-0.8c-0.1-0.2-0.2-0.5-0.5-0.6
	c-0.2-0.1-0.3-0.1-0.5-0.1C28.4,30.9,28.3,30.9,28.2,30.9L28.2,30.9z M25.9,40L25.9,40C25.9,40,26,40,25.9,40C26,40,25.9,40,25.9,40
	L25.9,40z"/>
<path class="st0" d="M43.5,1.7c-0.3,0-0.6,0.1-0.9,0.1C42.4,1.9,42.2,2,41.9,2c-0.6,0.2-1.1,0.4-1.7,0.6c-0.5,0.2-0.9,0.7-0.7,1.2
	c0.1,0.5,0.7,0.9,1.2,0.7c0.4-0.1,0.8-0.3,1.2-0.4C42.1,4,42.2,4,42.4,3.9c0.3-0.1,0.6-0.2,0.9-0.3c0.1,0,0.2,0,0.4,0
	c0,0,0,0,0.1,0.1c0.1,0.2,0.2,0.4,0.3,0.5c0.2,0.5,0.4,1.1,0.5,1.6c0.3,0.8,0.4,1.6,0.5,2.5c0.3,2.4,0.5,4.7,0.5,7.1
	c0,1.4,0,2.8,0,4.2c0,1.9,0,3.9-0.1,5.8c0,2.2-0.1,4.5-0.1,6.7c0,2.3,0,4.6,0,6.9c0,0.3,0,0.6,0,0.9c0,0.2-0.1,0.5-0.2,0.7
	c-0.1,0.1-0.2,0.3-0.3,0.4c-0.2,0.2-0.4,0.4-0.7,0.6c-0.7,0.5-1.4,0.9-2.2,1.2c-0.9,0.3-1.7,0.7-2.6,0.9c-0.1,0-0.3,0-0.4,0h-0.1
	c-0.3,0-0.5,0-0.7,0.1s-0.4,0.3-0.4,0.6c-0.1,0.5,0.2,1.1,0.7,1.2c0.3,0.1,0.6,0.1,1,0.1s0.8-0.1,1.1-0.2c0.5-0.1,1-0.3,1.5-0.5
	c1-0.4,2.1-0.8,3-1.4c0.6-0.4,1.2-0.9,1.6-1.5c0.5-0.6,0.7-1.4,0.8-2.2c0.1-0.7,0-1.4,0-2.1c0-2.1,0-4.2,0-6.3c0-2.3,0-4.7,0.1-7
	c0-2.1,0-4.1,0-6.2c0-1.1,0-2.2,0-3.4c0-2.2-0.2-4.5-0.5-6.7c-0.1-0.6-0.2-1.3-0.3-1.9c-0.1-0.6-0.3-1.1-0.4-1.7
	c-0.3-1-0.6-2.1-1.4-2.8c-0.2-0.2-0.5-0.3-0.8-0.4c-0.2-0.1-0.3-0.1-0.5-0.1C43.7,1.7,43.6,1.7,43.5,1.7L43.5,1.7z M43.6,3.7
	C43.7,3.7,43.7,3.7,43.6,3.7C43.7,3.7,43.7,3.7,43.6,3.7L43.6,3.7z M43.8,3.7L43.8,3.7L43.8,3.7L43.8,3.7L43.8,3.7z M44,4.1
	C44,4.1,44.1,4.2,44,4.1C44.1,4.2,44,4.1,44,4.1L44,4.1z"/>
</svg>
