<?xml version="1.0" encoding="utf-8"?>
<!-- Generator: Adobe Illustrator 20.1.0, SVG Export Plug-In . SVG Version: 6.00 Build 0)  -->
<svg version="1.1" id="Layer_1" xmlns="http://www.w3.org/2000/svg" xmlns:xlink="http://www.w3.org/1999/xlink" x="0px" y="0px"
	 viewBox="0 0 347.2 376.3" style="enable-background:new 0 0 347.2 376.3;" xml:space="preserve">
<style type="text/css">
	.st0{fill:#190B0C;}
	.st1{fill:#ED1C24;}
</style>
<path class="st0" d="M37.8,35.4c-0.1,4.3-0.1,8.6-0.2,12.9c-0.1,3.2-0.1,6.4-0.2,9.5c0,1.5-0.1,2.9-0.1,4.4c0,1.4-0.1,2.8-0.1,4.2
	c-0.1,3.5-0.2,6.9-0.4,10.4c-0.2,6.5-0.3,12.9-0.4,19.4c0,2.8-0.1,5.7-0.1,8.5c0,1.7,0,3.4,0,5.1c0,1.8,0.1,3.6,0.1,5.4
	c0,1.5,0.1,3.1,0.1,4.6s0.1,2.9,0.2,4.4c0.1,1.4,0.1,2.8,0.2,4.2c0.1,1.5,0.2,3,0.3,4.4c0.2,2,0.3,3.9,0.5,5.9
	c0.1,1.6,0.3,3.2,0.5,4.8c0.3,3,0.6,6,0.9,9c0.3,3,0.7,6.1,1,9.1c0.2,2,0.4,3.9,0.7,5.9c0.2,1.5,0.3,3,0.5,4.6
	c0.1,1.3,0.3,2.6,0.4,3.8c0.2,2.1,0.4,4.2,0.5,6.4c0.3,3.1,0.5,6.3,0.7,9.4c0.1,1.5,0.2,2.9,0.2,4.4c0.1,1.3,0.1,2.5,0.2,3.8
	c0.1,3.3,0.3,6.6,0.4,9.8c0.1,3.4,0.2,6.8,0.3,10.2s0.2,6.7,0.4,10c0.3,6.3,0.6,12.5,0.9,18.8c0.1,2.9,0.3,5.8,0.4,8.8
	c0.1,1.7,0.1,3.5,0.2,5.2c0.1,1.8,0.1,3.7,0.1,5.5c0,1.4,0.1,2.7,0.1,4.1s0,2.9,0.1,4.3c0,3.4,0,6.8,0.1,10.1c0,6.4,0,12.8,0,19.2
	c0,3.4,0,6.7,0,10.1s0,6.8,0.2,10.2c0,0.4,0.3,0.7,0.7,0.7s0.7-0.3,0.7-0.7c-0.1-3.3-0.1-6.5-0.1-9.8c0-3.1,0-6.1,0-9.2
	c0-6.4,0-12.7,0-19.1c0-3.5,0-7.1,0-10.6c0-1.3,0-2.5,0-3.8c0-1.6,0-3.2-0.1-4.9c0-1.9-0.1-3.7-0.1-5.6c0-1.5-0.1-2.9-0.2-4.4
	c-0.1-3.3-0.3-6.6-0.4-9.8c-0.3-5.9-0.6-11.9-0.9-17.8c-0.1-3.3-0.3-6.6-0.4-9.9c-0.1-3.4-0.2-6.8-0.3-10.2s-0.2-6.7-0.4-10.1
	c-0.1-3-0.3-6-0.4-9c0-0.5-0.1-1.1-0.1-1.6c-0.1-1.2-0.2-2.4-0.2-3.5c-0.1-1.2-0.2-2.4-0.3-3.6c-0.3-3.3-0.5-6.6-0.9-9.9
	c-0.2-1.9-0.4-3.8-0.6-5.7c-0.2-1.6-0.4-3.2-0.5-4.8c-0.4-3.3-0.7-6.6-1.1-9.9c-0.2-1.4-0.3-2.8-0.4-4.2c-0.1-1.4-0.3-2.8-0.4-4.1
	c-0.2-1.9-0.4-3.8-0.6-5.8c-0.2-1.7-0.3-3.3-0.4-5c-0.1-1.4-0.2-2.8-0.3-4.1c-0.1-1.4-0.2-2.9-0.3-4.3c-0.1-1.1-0.1-2.2-0.2-3.2
	c0-0.5-0.1-1.1-0.1-1.6c-0.1-1.7-0.1-3.4-0.2-5.1c0-0.6,0-1.3,0-1.9c0-1.1,0-2.2-0.1-3.3c0-1.4,0-2.9,0-4.3c0-3.2,0-6.3,0-9.5
	S38,90.2,38,87c0.1-3,0.1-6,0.2-9c0.2-6.7,0.4-13.4,0.6-20c0.1-3.2,0.1-6.4,0.2-9.6c0.1-4.3,0.1-8.7,0.2-13c0-0.4-0.3-0.7-0.7-0.7
	C38.1,34.7,37.8,35,37.8,35.4L37.8,35.4z"/>
<path class="st0" d="M160.8,34.5c-6.3,0-12.6,0-18.9,0c-3.2,0-6.4,0-9.5,0.1c-2.1,0-4.2,0.1-6.3,0.1c-1.2,0-2.4,0.1-3.6,0.1
	c-1.7,0.1-3.4,0.1-5.2,0.2c-1.6,0.1-3.2,0.2-4.8,0.2c-3.2,0.2-6.4,0.3-9.6,0.5c-1.3,0.1-2.6,0.1-3.9,0.2c-2,0.1-3.9,0.2-5.9,0.2
	c-1.3,0.1-2.6,0.1-4,0.1s-2.8,0.1-4.2,0.1c-2,0-3.9,0.1-5.9,0.1c-1.4,0-2.9,0-4.3,0c-3.3,0-6.7,0.1-10,0.1c-3.5,0-7.1,0.1-10.6,0.1
	c-4,0.1-8.1,0.1-12.1,0.2c-0.4,0-0.7,0.3-0.7,0.7s0.3,0.7,0.7,0.7c3.8,0,7.5-0.1,11.3-0.1c3.2,0,6.4-0.1,9.7-0.1
	c3.1,0,6.2-0.1,9.3-0.1c2,0,3.9,0,5.9-0.1c1.4,0,2.8-0.1,4.2-0.1c1.3,0,2.6,0,3.9-0.1c2-0.1,3.9-0.1,5.9-0.2c1.5,0,3-0.1,4.5-0.2
	c1.2-0.1,2.4-0.1,3.6-0.2c3.1-0.2,6.3-0.3,9.4-0.5c3.2-0.2,6.5-0.3,9.7-0.4c1.9-0.1,3.9-0.1,5.8-0.2c1.4-0.1,2.8-0.1,4.2-0.1
	c1.5,0,3.1-0.1,4.6-0.1c1.7,0,3.4,0,5.1,0c6.2,0,12.5-0.1,18.7-0.1c6.5,0,13,0,19.5,0c3.1,0,6.3,0,9.4,0c1.3,0,2.6,0,3.9,0
	c1.9,0,3.8,0.1,5.7,0.1c1.1,0,2.3,0,3.4,0.1c2.1,0.1,4.2,0.1,6.3,0.2c3.2,0.1,6.4,0.2,9.6,0.3c6.1,0.2,12.2,0.3,18.4,0.5
	s12.4,0.3,18.6,0.5c6.4,0.2,12.8,0.5,19.2,0.8c2.9,0.1,5.9,0.3,8.8,0.4c3.2,0.2,6.3,0.3,9.5,0.4c3.3,0.1,6.6,0.2,9.8,0.2
	c3,0,5.9,0.1,8.9,0.2c3.4,0.1,6.8,0.2,10.2,0.3c1.8,0,3.5,0.1,5.3,0.1c1.5,0,3.1,0.1,4.6,0.3c0.2,0,0.3,0.1,0.5,0.1s0.4,0,0.5-0.1
	c0.2-0.1,0.3-0.2,0.3-0.4c0.1-0.4-0.1-0.7-0.5-0.8c-0.2-0.1-0.5-0.1-0.7-0.2c-0.2,0-0.4-0.1-0.6-0.1s-0.4,0-0.5-0.1
	c-0.2,0-0.4,0-0.6-0.1c-0.4,0-0.7,0-1.1-0.1c-0.4,0-0.9,0-1.3,0c-1.4,0-2.9,0-4.3-0.1c-3.1-0.1-6.2-0.1-9.2-0.2
	c-1.6,0-3.2-0.1-4.9-0.1c-1.6,0-3.2-0.1-4.9-0.1c-2.9,0-5.8-0.1-8.7-0.1c-3.2-0.1-6.4-0.2-9.6-0.3c-3.1-0.2-6.2-0.3-9.4-0.5
	c-6.3-0.3-12.6-0.6-18.8-0.8c-6.8-0.2-13.5-0.4-20.2-0.6c-3.2-0.1-6.3-0.1-9.5-0.2c-3-0.1-6.1-0.2-9.1-0.3c-3.1-0.1-6.2-0.2-9.3-0.3
	c-1.6-0.1-3.2-0.1-4.8-0.2c-1.3,0-2.6-0.1-3.9-0.1c-3.1-0.1-6.1-0.1-9.2-0.2c-3.2,0-6.4-0.1-9.6-0.1
	C173.5,34.4,167.1,34.4,160.8,34.5L160.8,34.5z"/>
<path class="st0" d="M338.6,42.6c0,13.9,0,27.8-0.1,41.6c0,6.4-0.2,12.8-0.5,19.2c-0.2,6.2-0.5,12.4-0.7,18.6
	c-0.1,2.8-0.2,5.7-0.2,8.6c-0.1,3.4-0.1,6.8-0.1,10.3c0,3.4,0,6.8-0.1,10.2c0,2.9,0,5.8,0,8.7c0,3,0.1,6,0.1,9
	c0.1,3.1,0.1,6.3,0.2,9.4c0.1,6.6,0.2,13.1,0.2,19.7c0,6.6,0,13.1,0,19.7c0,2.8,0,5.5,0,8.3c0,3.5,0,6.9-0.1,10.4
	c-0.1,6.4-0.3,12.9-0.5,19.3c-0.1,2.9-0.1,5.8-0.2,8.7c0,1.7,0,3.4-0.1,5.2c0,1.2,0,2.5,0,3.7c0,3.4,0,6.9,0,10.3
	c0,2.9,0.1,5.9,0.2,8.8c0.1,3.5,0.2,6.9,0.3,10.4c0.1,3,0.1,6,0.1,9.1c0,1.7,0,3.3,0,5s-0.1,3.4-0.2,5.1c-0.1,1.5-0.2,3-0.2,4.5
	c-0.1,1.8-0.2,3.7-0.2,5.5c0,0.7,0.6,1.3,1.3,1.3c0.4,0,0.7-0.1,0.9-0.4c0.3-0.3,0.4-0.6,0.4-0.9c0.3-3.3,0.4-6.5,0.5-9.8
	c0.1-2.9,0.1-5.9,0.1-8.8c-0.1-3.3-0.1-6.6-0.2-9.9s-0.2-6.6-0.3-9.9c-0.1-2.8-0.2-5.6-0.2-8.5c0-1.8-0.1-3.5-0.1-5.3
	c0-1.7,0-3.5,0-5.2c0-3.3,0-6.5,0-9.8c0-1.3,0-2.6,0.1-3.9c0-1.5,0-3.1,0.1-4.6c0.1-3,0.2-5.9,0.2-8.9c0.1-3.2,0.2-6.4,0.2-9.6
	c0-3.5,0.1-6.9,0.1-10.4c0-3.2,0-6.3,0-9.5c0-12.7,0-25.3-0.3-38c-0.1-3.2-0.1-6.3-0.2-9.5c-0.1-3.3-0.1-6.6-0.1-9.9
	c0-2.7,0-5.5,0-8.2c0-3.2,0-6.4,0-9.6c0-3.5,0.1-6.9,0.1-10.4c0-3.2,0.1-6.5,0.2-9.7c0.1-5.9,0.4-11.8,0.6-17.7
	c0.2-6.5,0.5-12.9,0.5-19.4c0-6.6,0-13.3,0.1-19.9c0-7.6,0-15.2,0-22.8c0-0.6-0.5-1-1-1C339,41.6,338.6,42,338.6,42.6L338.6,42.6z"
	/>
<path class="st0" d="M223.3,327c-6.5,0-13,0-19.5,0.1c-3.2,0-6.5,0-9.7,0.1c-1.8,0-3.6,0.1-5.4,0.1c-1.4,0-2.8,0.1-4.2,0.1
	c-1.9,0.1-3.8,0.1-5.7,0.2c-1.3,0-2.6,0.1-3.8,0.2c-1.9,0.1-3.9,0.2-5.8,0.3c-1.3,0.1-2.7,0.2-4,0.3c-3.2,0.3-6.4,0.5-9.6,0.8
	c-3.2,0.3-6.4,0.6-9.6,0.8c-1.9,0.2-3.8,0.3-5.7,0.5c-1.4,0.1-2.9,0.2-4.3,0.3c-3.4,0.2-6.8,0.5-10.2,0.7c-3.3,0.2-6.7,0.4-10,0.6
	c-3.1,0.2-6.2,0.3-9.4,0.4c-2.9,0.1-5.7,0.2-8.6,0.3c-2.1,0.1-4.1,0.2-6.2,0.3c-1.4,0.1-2.8,0.2-4.3,0.3c-1.3,0.1-2.7,0.2-4,0.3
	c-2.1,0.2-4.2,0.4-6.2,0.6c-1.1,0.1-2.2,0.2-3.3,0.3c-2.1,0.2-4.2,0.3-6.2,0.5c-1.3,0.1-2.6,0.2-3.9,0.3c-0.7,0.1-1.4,0-2.1,0
	c-1.7,0-3.4,0-5.2,0c-0.6,0-1.1,0-1.7,0c-1,0-2.1-0.1-3.1-0.1c-0.6,0-1.1,0.5-1.1,1.1s0.5,1,1.1,1.1c1.1,0.1,2.2,0.1,3.4,0.1
	c1,0,2,0,3,0c1.8,0,3.5,0,5.3,0c0.4,0,0.7-0.1,1.1-0.1c1.1-0.1,2.1-0.2,3.2-0.2c2.1-0.2,4.2-0.3,6.2-0.5c1.1-0.1,2.2-0.2,3.3-0.3
	c2.1-0.2,4.2-0.4,6.2-0.6c1.3-0.1,2.7-0.2,4-0.3c1.4-0.1,2.8-0.2,4.3-0.3c3.4-0.2,6.7-0.3,10.1-0.5c3.5-0.1,7-0.3,10.6-0.4
	c6.3-0.3,12.6-0.7,18.9-1c1.6-0.1,3.2-0.2,4.8-0.3c1.4-0.1,2.9-0.2,4.3-0.3c3.1-0.3,6.2-0.5,9.3-0.8c3.4-0.3,6.7-0.6,10.1-0.9
	c1.8-0.2,3.7-0.3,5.5-0.5c1.3-0.1,2.7-0.3,4-0.3c1.9-0.1,3.9-0.2,5.8-0.3c1.3-0.1,2.6-0.2,3.8-0.2c1.9-0.1,3.8-0.1,5.7-0.2
	c1.4,0,2.8-0.1,4.2-0.1c3.3,0,6.5-0.1,9.8-0.1s6.5,0,9.8-0.1c3.3,0,6.6,0,9.8,0c3,0,6.1,0,9.1,0c2.1,0,4.2,0,6.2,0.1
	c0.6,0,1.2,0,1.8,0c0.5,0,1,0,1.5,0.1c2.2,0.1,4.3,0.2,6.5,0.3c1.1,0,2.2,0.1,3.3,0.2c2.2,0.2,4.3,0.4,6.5,0.5
	c1.2,0.1,2.3,0.2,3.5,0.4c3.4,0.4,6.8,0.7,10.2,1.1c6.6,0.7,13.2,1.5,19.8,2.3c2.8,0.3,5.6,0.7,8.3,1.1c3.5,0.5,7,0.9,10.5,1.3
	c1.6,0.2,3.2,0.3,4.9,0.5c1.5,0.2,3,0.3,4.5,0.4c3.2,0.3,6.3,0.6,9.5,0.9c3.9,0.4,7.9,0.7,11.8,1c2,0.1,3.9,0.3,5.9,0.4
	c0.9,0,1.9,0.1,2.8,0c1-0.1,2.7-0.6,2.4-1.9c-0.1-0.4-0.5-0.7-1-0.7c-0.4,0-0.6,0.2-0.9,0.4c-0.1,0.1-0.2,0.1-0.3,0.2
	c-0.2,0.1-0.3,0.1-0.5,0.1c-1.6,0.2-3.1,0-4.7-0.1c-1.5-0.1-2.9-0.2-4.4-0.3c-3.1-0.2-6.2-0.5-9.3-0.8c-3.2-0.3-6.3-0.6-9.5-0.9
	c-1.8-0.2-3.6-0.4-5.4-0.5c-1.8-0.2-3.6-0.4-5.3-0.6c-2-0.2-4-0.5-6-0.8c0.1,0,0.2,0,0.3,0c-3.1-0.4-6.3-0.8-9.4-1.3
	c-3.5-0.5-7-0.9-10.4-1.3c-3.2-0.4-6.3-0.7-9.5-1.1c-2.9-0.3-5.8-0.7-8.8-1c-1.9-0.2-3.7-0.4-5.6-0.6c-1.2-0.1-2.3-0.3-3.5-0.4
	c-2.2-0.2-4.3-0.4-6.5-0.5c-1.1-0.1-2.2-0.2-3.3-0.2c-2.2-0.1-4.3-0.2-6.5-0.3c-0.5,0-1,0-1.5-0.1c-0.4,0-0.8,0-1.2,0
	c-0.2,0-0.4,0-0.7,0c-2.8,0-5.7,0-8.5,0C224.4,327,223.8,327,223.3,327L223.3,327z"/>
<path class="st0" d="M338.9,319.1c-0.3,0.1-0.4,0.4-0.4,0.7c0.5,2.3,0.8,4.6,1.2,7c0.2,1.8,0.4,3.7,0.6,5.5c0,0.4,0.1,0.8,0.1,1.2
	c0,0.4,0.1,0.8,0.2,1.2c0.2,1.3,0.4,2.5,0.6,3.8c0,0.2,0.2,0.3,0.3,0.4c0.1,0.1,0.3,0.1,0.5,0.1s0.3-0.2,0.4-0.3
	c0.1-0.2,0.1-0.3,0.1-0.5c-0.3-1.6-0.5-3.1-0.7-4.7c-0.1-1.1-0.3-2.3-0.4-3.4s-0.3-2.1-0.4-3.2c-0.1-0.5-0.2-1-0.3-1.6
	c-0.1-0.5-0.2-1-0.2-1.5c-0.2-1.2-0.4-2.4-0.7-3.6c0-0.2-0.1-0.4-0.1-0.7c-0.1-0.2-0.3-0.4-0.5-0.4C339,319,338.9,319.1,338.9,319.1
	L338.9,319.1z"/>
<path class="st0" d="M341,322.9c0,0.3,0.2,0.6,0.6,0.6s0.6-0.2,0.6-0.6s-0.2-0.6-0.6-0.6S341,322.6,341,322.9L341,322.9z"/>
<path class="st0" d="M44.6,326.5c-0.3,0.1-0.5,0.3-0.7,0.5c-0.2,0.3-0.2,0.6-0.1,0.9c0.3,1.8,0.6,3.5,1,5.3c0.1,0.8,0.3,1.5,0.4,2.3
	c0.1,0.4,0.2,0.9,0.3,1.3c0.1,0.5,0.2,1,0.5,1.4c0.2,0.3,0.4,0.5,0.6,0.7c0.2,0.1,0.3,0.2,0.5,0.3c0.5,0.3,1.1,0.1,1.4-0.4
	c0.3-0.5,0.1-1.1-0.4-1.4c-0.1,0-0.1-0.1-0.2-0.1c0,0,0-0.1-0.1-0.1c-0.2-0.5-0.2-0.9-0.3-1.4c-0.1-0.4-0.1-0.8-0.2-1.2
	c-0.1-0.7-0.3-1.4-0.4-2.2c-0.3-1.7-0.6-3.3-0.9-5c-0.1-0.5-0.6-0.9-1.1-0.9C44.8,326.4,44.7,326.4,44.6,326.5L44.6,326.5z"/>
<path class="st0" d="M121.1,0.1C121,0.2,121,0.3,121,0.5c-0.3,2.9-0.5,5.9-0.8,8.8c-0.2,2.1-0.4,4.2-0.6,6.3
	c-0.1,0.6-0.1,1.1-0.2,1.6c0,0.2-0.1,0.5-0.1,0.7c0,0.1,0,0.3,0,0.4c0,0.2,0,0.3,0,0.5c0,0.1,0.1,0.3,0.1,0.4
	c0.1,0.2,0.3,0.4,0.6,0.3c0.1,0,0.2-0.1,0.3-0.2c0.1-0.1,0.1-0.2,0-0.3c0-0.1,0-0.1,0-0.1V19c0-0.1,0-0.2,0-0.3
	c0.1-0.6,0.2-1.2,0.2-1.8c0.1-0.6,0.1-1.1,0.2-1.7c0.1-0.9,0.2-1.8,0.3-2.8c0.2-2.4,0.4-4.9,0.6-7.3c0.1-1.5,0.3-3.1,0.4-4.6
	c0-0.3-0.2-0.5-0.5-0.5C121.3-0.1,121.2,0,121.1,0.1L121.1,0.1z"/>
<path class="st0" d="M132.6,9.7c-0.1,0.1-0.2,0.2-0.3,0.3c-0.4,0.6-0.7,1.3-0.9,2c-0.1,0.3-0.2,0.5-0.3,0.8c0-0.3,0.1-0.6,0.1-0.8
	c0-0.1-0.1-0.2-0.1-0.3c-0.1-0.1-0.2-0.1-0.3-0.1s-0.2,0-0.3,0.1s-0.1,0.2-0.1,0.3c-0.1,1.4-0.3,2.7-0.5,4.1c0,0.1,0,0.3,0,0.4
	c0,0.2-0.1,0.5-0.1,0.7v0.1v0.1c0,0.1,0,0.2,0,0.3l0,0l0,0v0.1c0,0.1,0,0.1,0.1,0.2s0.1,0.2,0.3,0.2c0.2,0.1,0.5-0.1,0.5-0.3
	c0.1-0.4,0.2-0.8,0.3-1.2c0.1-0.3,0.2-0.7,0.3-1c0.1-0.2,0.1-0.4,0.2-0.7c0.1-0.3,0.2-0.5,0.3-0.8c0.2-0.5,0.3-1,0.5-1.5
	c0.1-0.2,0.1-0.4,0.2-0.6c0.1-0.3,0.2-0.6,0.3-0.8c0.1-0.3,0.3-0.6,0.4-0.9c0,0,0,0,0.1,0l0,0c0,0.1,0.1,0.1,0.1,0.2
	c0.5,1.2,0.6,2.5,0.8,3.7c0.1,0.4,0.1,0.9,0.2,1.3c0,0.3,0.1,0.6,0.1,0.9c0,0.2,0,0.3,0,0.5s0,0.3,0,0.5c0,0.1,0,0.1,0,0.2
	s0.1,0.2,0.1,0.2c0,0.1,0.1,0.1,0.1,0.2c0.1,0.1,0.2,0.1,0.3,0.1s0.1,0,0.2-0.1c0.1-0.1,0.2-0.1,0.2-0.3c0.1-0.2,0.1-0.3,0.2-0.5
	c0-0.1,0.1-0.3,0.1-0.4c0.1-0.2,0.1-0.4,0.2-0.7c0.1-0.5,0.3-0.9,0.4-1.4c0.2-0.5,0.3-1,0.5-1.5c0.1-0.2,0.2-0.5,0.3-0.7
	c0.1-0.3,0.2-0.5,0.3-0.7c0.1-0.1,0.1-0.3,0.2-0.4c0.1-0.2,0.2-0.4,0.3-0.6c0,0,0.1-0.1,0.2-0.1l0,0c0,0-0.1,0-0.1,0.1
	c0,0,0.1,0,0.1-0.1c0,0,0,0,0.1,0l0,0l0,0l0,0l0,0c0.1,0,0.1,0.1,0.2,0.1c0.2,0.1,0.4,0.3,0.5,0.5c0.4,0.5,0.7,1.1,1,1.7l0,0
	c0.1,0.3,0.2,0.6,0.3,0.9c0.1,0.2,0.1,0.5,0.2,0.7c0.1,0.2,0.1,0.4,0.1,0.5c0.1,0.3,0.1,0.6,0.2,1c0,0.2,0.3,0.4,0.5,0.3
	c0.1,0,0.2-0.1,0.3-0.2s0.1-0.2,0-0.3c-0.1-0.6-0.2-1.1-0.4-1.7c-0.1-0.2-0.1-0.5-0.2-0.7c-0.1-0.2-0.2-0.5-0.3-0.7
	c-0.1-0.3-0.3-0.7-0.5-1c-0.1-0.3-0.3-0.5-0.4-0.8c-0.1-0.2-0.3-0.4-0.5-0.6c-0.2-0.2-0.4-0.3-0.6-0.5c-0.1-0.1-0.2-0.1-0.4-0.1
	h-0.1c-0.1,0-0.2,0-0.2,0c-0.1,0-0.2,0.1-0.2,0.1c-0.1,0.1-0.2,0.1-0.3,0.2c-0.1,0.1-0.2,0.2-0.2,0.3c0,0,0,0.1-0.1,0.1
	c-0.1,0.1-0.1,0.2-0.2,0.3c-0.2,0.3-0.3,0.7-0.5,1c-0.4,0.9-0.6,1.7-0.9,2.6c-0.1,0.4-0.2,0.8-0.4,1.2c0-0.2,0-0.3-0.1-0.5
	c-0.1-0.5-0.1-1.1-0.2-1.6c-0.1-0.9-0.3-1.8-0.5-2.6c0-0.1-0.1-0.3-0.1-0.4c0-0.1-0.1-0.3-0.1-0.4c-0.1-0.2-0.2-0.4-0.4-0.6
	c-0.1-0.1-0.2-0.1-0.3-0.2c0,0-0.1,0-0.1-0.1c-0.1,0-0.2,0-0.2,0C132.8,9.6,132.7,9.6,132.6,9.7L132.6,9.7z M132.8,10.4L132.8,10.4
	C132.9,10.4,132.9,10.4,132.8,10.4L132.8,10.4L132.8,10.4z M132.9,10.5C133,10.5,133,10.5,132.9,10.5C133,10.5,133,10.5,132.9,10.5
	C133,10.5,133,10.5,132.9,10.5L132.9,10.5L132.9,10.5z M133,10.5L133,10.5L133,10.5L133,10.5L133,10.5L133,10.5z M133,10.5L133,10.5
	L133,10.5L133,10.5L133,10.5z M138,10.8L138,10.8C138.1,10.8,138.1,10.8,138,10.8L138,10.8L138,10.8z M138,10.8L138,10.8L138,10.8
	L138,10.8z M137.9,10.9L137.9,10.9L137.9,10.9L137.9,10.9L137.9,10.9z M137.8,11C137.8,11,137.7,11.1,137.8,11
	C137.7,11.1,137.8,11,137.8,11L137.8,11z M137.3,12.1L137.3,12.1L137.3,12.1L137.3,12.1z M139.7,13.2L139.7,13.2L139.7,13.2
	L139.7,13.2z"/>
<path class="st0" d="M152.1,10.7c-0.2,0.1-0.4,0.3-0.5,0.4c-0.2,0.2-0.3,0.4-0.4,0.6c-0.2,0.3-0.3,0.5-0.4,0.8
	c-0.2,0.5-0.4,1.1-0.5,1.7c-0.1,0.3-0.1,0.6-0.1,0.8c0,0.3,0,0.6,0,0.9c0,0.3,0.1,0.5,0.2,0.8c0.1,0.2,0.2,0.4,0.3,0.6
	s0.3,0.4,0.5,0.5s0.4,0.2,0.6,0.3c0.2,0,0.5,0,0.7,0c0.1,0,0.2-0.1,0.3-0.1c0.2-0.1,0.3-0.1,0.4-0.2c0.4-0.3,0.8-0.7,1.1-1.1
	c0.2-0.2,0.3-0.4,0.5-0.7c0.2-0.2,0.3-0.5,0.4-0.7c0.1-0.2,0.2-0.4,0.3-0.6c0.2-0.4,0.4-0.9,0.6-1.3l0,0c0.1,0.1,0.1,0.3,0.2,0.4
	c0,0,0,0,0-0.1c0.3,0.8,0.6,1.7,1,2.5c0.2,0.4,0.3,0.8,0.5,1.2c0.1,0.3,0.3,0.5,0.4,0.8c0.2,0.4,0.6,0.8,0.9,1.2
	c0.2,0.2,0.6,0.2,0.8,0c0.1-0.1,0.2-0.2,0.2-0.4c0-0.2-0.1-0.3-0.2-0.4l-0.1-0.1l0,0c-0.3-0.4-0.6-0.9-0.8-1.4
	c-0.1-0.2-0.2-0.4-0.3-0.7c-0.1-0.3-0.2-0.5-0.3-0.8v0.1c-0.3-0.7-0.5-1.3-0.8-2l0,0c-0.1-0.3-0.3-0.7-0.5-1
	c-0.1-0.1-0.1-0.3-0.2-0.4c-0.1-0.1-0.2-0.2-0.4-0.3c-0.1-0.1-0.2-0.1-0.4-0.1c-0.1,0-0.2,0-0.3,0.1c-0.1,0-0.1,0.1-0.2,0.1
	c-0.1,0.2-0.2,0.3-0.3,0.5s-0.1,0.3-0.2,0.5c-0.2,0.3-0.3,0.7-0.5,1c-0.1,0.2-0.2,0.4-0.3,0.6c-0.3,0.5-0.6,0.9-0.9,1.4l0.1-0.1
	c-0.1,0.1-0.2,0.2-0.3,0.4c-0.1,0.1-0.3,0.3-0.4,0.4c-0.1,0.1-0.3,0.2-0.4,0.3h-0.1c-0.1,0-0.2,0-0.2,0c-0.1,0-0.1,0-0.2,0l0,0
	l-0.1-0.1c-0.1-0.2-0.2-0.3-0.3-0.5s-0.1-0.4-0.1-0.6c0-0.1,0-0.3,0-0.4c0-0.2,0-0.4,0-0.6c0-0.3,0.1-0.6,0.2-0.8
	c0.1-0.3,0.2-0.7,0.3-1c0.2-0.4,0.4-0.8,0.7-1.2c0.1-0.1,0.1-0.1,0.2-0.2l0,0l0,0c0,0.1,0.1,0.2,0.1,0.3c0.1,0.3,0.1,0.5,0.1,0.8
	v-0.1c0.1,0.6,0.1,1.3,0.2,2c0,0.3,0.2,0.5,0.5,0.5s0.5-0.2,0.5-0.5c0-0.5-0.1-1.1-0.1-1.6c0-0.3-0.1-0.5-0.1-0.8s-0.1-0.5-0.2-0.8
	c0-0.1,0-0.2-0.1-0.3c0,0,0-0.1-0.1-0.1c-0.1-0.1-0.1-0.1-0.2-0.2c-0.1-0.1-0.1-0.1-0.2-0.1c-0.1-0.1-0.2-0.1-0.4-0.1
	C152.5,10.6,152.2,10.6,152.1,10.7L152.1,10.7z M155.8,12.9C155.8,13,155.8,13,155.8,12.9C155.8,13,155.8,13,155.8,12.9L155.8,12.9z
	 M154.9,13.2C154.9,13.3,154.9,13.3,154.9,13.2C154.9,13.3,154.9,13.3,154.9,13.2L154.9,13.2z M158.6,16.4
	C158.6,16.5,158.6,16.5,158.6,16.4C158.6,16.5,158.6,16.5,158.6,16.4L158.6,16.4z M151.5,16.8L151.5,16.8L151.5,16.8L151.5,16.8z
	 M151.5,16.9C151.6,16.9,151.6,16.9,151.5,16.9C151.6,16.9,151.6,16.9,151.5,16.9L151.5,16.9z M151.7,17L151.7,17L151.7,17L151.7,17
	z M151.8,17L151.8,17L151.8,17L151.8,17z M152.1,17H152C152,17,152,17,152.1,17L152.1,17z M151.9,17L151.9,17L151.9,17L151.9,17z
	 M159.7,18.4L159.7,18.4L159.7,18.4L159.7,18.4z"/>
<path class="st0" d="M175,13.3c-0.2,0.1-0.3,0.1-0.5,0.2c-0.1,0.1-0.1,0.1-0.2,0.2c-0.1,0.1-0.1,0.1-0.2,0.2c0,0.1-0.1,0.1-0.1,0.2
	c-0.1-0.1-0.2-0.1-0.2-0.2c-0.2-0.1-0.3-0.2-0.5-0.3s-0.4-0.1-0.6-0.2c-0.4,0-0.8,0-1.1,0.1c-0.4,0.1-0.8,0.3-1.1,0.5
	s-0.6,0.4-0.9,0.7c-0.3,0.3-0.5,0.7-0.7,1.1c-0.1,0.3-0.1,0.7-0.1,1.1c0,0.1,0,0.2,0,0.3c0,0.1,0,0.2,0,0.3c0.1,0.2,0.1,0.4,0.2,0.6
	c0.1,0.1,0.2,0.2,0.3,0.3c0.1,0.1,0.3,0.2,0.5,0.2c0.2,0.1,0.4,0.1,0.6,0.1c0.2,0,0.4,0,0.6-0.1c0.2,0,0.3-0.1,0.4-0.2
	c0.2-0.1,0.4-0.2,0.6-0.3c0.4-0.2,0.8-0.5,1.1-0.8c0.5-0.5,0.9-1,1.3-1.6c0.1-0.2,0.2-0.4,0.3-0.5s0.1-0.3,0.2-0.4
	c0,0.1,0.1,0.1,0.1,0.2c0.2,0.6,0.3,1.3,0.4,2c0.1,0.8,0.2,1.6,0.3,2.3c0,0.3,0.1,0.6,0.1,0.9c0,0.4,0.1,0.8,0.1,1.2
	c0,0.4,0,0.7,0,1.1c0,0.2,0,0.5,0,0.7c0,0.1,0,0.2,0,0.3c0,0.1,0,0.3,0,0.4c-0.1,0-0.1,0-0.2,0c-0.6,0.1-1.1,0.4-1.7,0.6
	c-0.6,0.3-1.1,0.7-1.6,1.2c-0.2,0.2-0.4,0.5-0.6,0.8c-0.2,0.3-0.3,0.7-0.2,1.1c0,0.3,0.1,0.6,0.3,0.9s0.4,0.5,0.6,0.7
	c0.5,0.4,1.1,0.8,1.8,0.9c0.3,0,0.6,0,0.9-0.1c0.3-0.1,0.6-0.3,0.8-0.5c0.1-0.1,0.2-0.2,0.3-0.4c0.1-0.1,0.1-0.3,0.2-0.4
	c0.1-0.4,0.2-0.8,0.3-1.1c0.1-0.9,0.2-1.8,0.2-2.7c0.1,0,0.1,0,0.2-0.1c0.3-0.1,0.5-0.4,0.4-0.7c-0.1-0.3-0.3-0.4-0.6-0.4v-0.1
	c0-0.2,0-0.4,0-0.6c0-0.4,0-0.8-0.1-1.1c0-0.2,0-0.3,0-0.5c-0.1-0.7-0.1-1.3-0.2-2c-0.1-0.7-0.2-1.4-0.3-2c-0.1-0.4-0.1-0.8-0.2-1.1
	c-0.1-0.4-0.1-0.9-0.3-1.3c-0.1-0.4-0.4-0.8-0.6-1.2c-0.1-0.2-0.3-0.3-0.5-0.3C175.1,13.2,175.1,13.2,175,13.3L175,13.3z
	 M172.6,14.5h0.1c0.2,0.1,0.3,0.2,0.5,0.3l-0.1-0.1c0.1,0.1,0.2,0.2,0.4,0.3c-0.2,0.3-0.4,0.6-0.6,0.8c-0.2,0.3-0.5,0.5-0.8,0.8
	c-0.4,0.3-0.8,0.5-1.2,0.6c-0.2,0.1-0.3,0.1-0.5,0.1c-0.1,0-0.3,0-0.4,0h-0.1l0,0l0,0c0,0,0-0.1-0.1-0.1v-0.1c0-0.3,0-0.5,0-0.8
	c0-0.1,0.1-0.3,0.1-0.4c0.1-0.1,0.1-0.2,0.2-0.3c0.1-0.1,0.2-0.2,0.3-0.3c0.4-0.3,0.7-0.5,1.1-0.7c0.2-0.1,0.4-0.1,0.6-0.2
	C172.3,14.4,172.5,14.4,172.6,14.5L172.6,14.5z M169.9,17.2C169.9,17.3,169.9,17.3,169.9,17.2C169.9,17.3,169.9,17.3,169.9,17.2
	L169.9,17.2z M170.9,17.3L170.9,17.3L170.9,17.3L170.9,17.3z M170,17.4L170,17.4L170,17.4L170,17.4z M170.1,17.4h0.1H170.1
	L170.1,17.4z M176,25c0,0.6-0.1,1.2-0.1,1.7c-0.1,0.4-0.2,0.9-0.3,1.3c0,0,0,0.1-0.1,0.1c-0.1,0.1-0.1,0.2-0.2,0.2
	c-0.1,0-0.1,0.1-0.2,0.1c-0.1,0-0.2,0.1-0.3,0.1s-0.2,0-0.3,0s-0.2-0.1-0.4-0.1c-0.2-0.1-0.3-0.2-0.5-0.3c-0.2-0.2-0.4-0.3-0.5-0.5
	c0,0,0-0.1-0.1-0.1c0-0.1,0-0.1-0.1-0.2v-0.1c0,0,0,0,0-0.1c0.1-0.2,0.2-0.3,0.3-0.4c0.2-0.2,0.5-0.5,0.7-0.7
	c0.4-0.3,0.9-0.6,1.4-0.8C175.6,25.1,175.8,25.1,176,25L176,25z M174.1,25.9C174.1,26,174.1,26,174.1,25.9
	C174.1,26,174.1,26,174.1,25.9L174.1,25.9z M173.1,27C173,27,173,27.1,173.1,27C173,27.1,173,27,173.1,27L173.1,27z M173,27.3v0.1
	V27.3L173,27.3z M175.6,27.9C175.6,27.9,175.6,28,175.6,27.9C175.6,28,175.6,27.9,175.6,27.9L175.6,27.9z"/>
<path class="st0" d="M189.4,12.9c-0.6,0.1-1.1,0.5-1.4,0.9c-0.2,0.2-0.4,0.5-0.6,0.8c-0.1,0.1-0.2,0.2-0.2,0.4c-0.2,0-0.3,0-0.5,0
	s-0.4,0.2-0.4,0.4c0,0.1,0,0.2,0.1,0.3s0.2,0.1,0.3,0.1c0,0,0,0,0.1,0c-0.3,0.6-0.5,1.2-0.7,1.9c-0.1,0.3-0.2,0.7-0.3,1
	c-0.1,0.4-0.1,0.8-0.2,1.2c-0.1,0.7,0,1.4,0.2,2.1s0.5,1.3,1,1.8c0.2,0.2,0.5,0.4,0.7,0.6c0.3,0.2,0.6,0.3,0.9,0.4
	c0.3,0.1,0.6,0.1,0.9,0.2c0.2,0,0.4,0,0.5,0c0.2,0,0.5-0.1,0.7-0.1c0.7-0.2,1.4-0.5,2-0.8c0.3-0.2,0.6-0.4,0.9-0.6
	c0.3-0.2,0.7-0.4,1-0.7c0.6-0.4,1.1-0.9,1.5-1.4c0.5-0.6,1-1.2,1.4-1.8c0.9-1.3,1.8-2.5,2.7-3.8c0.2-0.3,0.1-0.7-0.2-0.8
	c-0.3-0.2-0.6-0.1-0.8,0.2c-0.4,0.7-0.9,1.3-1.3,1.9c-0.6,0.9-1.2,1.7-1.9,2.6c-0.6,0.8-1.2,1.5-2,2.1c-0.4,0.3-0.8,0.5-1.2,0.8
	c-0.5,0.3-1,0.6-1.5,0.9c-0.5,0.2-1,0.4-1.6,0.5c-0.2,0-0.4,0-0.6,0c-0.2,0-0.5-0.1-0.7-0.2s-0.4-0.2-0.6-0.3
	c-0.2-0.1-0.3-0.3-0.4-0.4c-0.2-0.3-0.4-0.5-0.5-0.8s-0.2-0.7-0.3-1.1c-0.1-0.5,0-1,0-1.5c0.1-0.5,0.2-1,0.4-1.6
	c0.2-0.5,0.3-1,0.5-1.5v0.1c0.1-0.2,0.2-0.4,0.3-0.6c0.3,0,0.7,0,1-0.1c0.3,0,0.6-0.1,0.9-0.2c0.1,0,0.2-0.1,0.4-0.1
	c0.2-0.1,0.3-0.2,0.4-0.3c0.1-0.1,0.2-0.2,0.2-0.3s0.1-0.2,0.1-0.4c0-0.1,0-0.2,0-0.3s0-0.2-0.1-0.4c-0.1-0.1-0.1-0.2-0.2-0.3
	c-0.1-0.1-0.2-0.2-0.3-0.2s-0.2-0.1-0.4-0.2c-0.1,0-0.2,0-0.2,0l0,0C189.5,12.8,189.4,12.8,189.4,12.9L189.4,12.9z M189.5,13.6
	C189.5,13.6,189.6,13.6,189.5,13.6C189.6,13.7,189.6,13.7,189.5,13.6C189.5,13.7,189.5,13.6,189.5,13.6L189.5,13.6z M189.6,13.7
	L189.6,13.7L189.6,13.7L189.6,13.7L189.6,13.7z M189.6,13.7L189.6,13.7c0.1,0,0.2,0.1,0.2,0.1s0,0,0.1,0.1c0,0,0,0.1,0.1,0.1v0.1
	v0.1c0,0,0,0,0,0.1l0,0l0,0c0,0.1-0.1,0.1-0.1,0.2c0,0,0-0.1,0.1-0.1c0,0.1-0.1,0.1-0.2,0.2c0,0-0.1,0-0.1,0.1
	c-0.4,0.2-0.9,0.3-1.3,0.3c0,0,0,0,0.1,0c-0.1,0-0.2,0-0.3,0c0.1-0.2,0.2-0.3,0.3-0.4c0.1-0.2,0.3-0.3,0.5-0.5
	c0.1-0.1,0.3-0.2,0.4-0.2C189.4,13.7,189.5,13.7,189.6,13.7C189.5,13.7,189.6,13.7,189.6,13.7L189.6,13.7z M189.7,13.7L189.7,13.7
	L189.7,13.7L189.7,13.7z M189.9,13.8L189.9,13.8L189.9,13.8L189.9,13.8L189.9,13.8z M189.9,13.8L189.9,13.8L189.9,13.8L189.9,13.8
	L189.9,13.8z M189,13.9L189,13.9L189,13.9L189,13.9z M190,13.9C190,14,190,14,190,13.9C190,14,190,14,190,13.9L190,13.9z M190,14.1
	L190,14.1L190,14.1L190,14.1L190,14.1z M190,14.1L190,14.1L190,14.1L190,14.1C190,14.2,190,14.2,190,14.1
	C190,14.2,190,14.2,190,14.1C190,14.2,190,14.2,190,14.1C190,14.2,190,14.2,190,14.1C190,14.2,190,14.2,190,14.1L190,14.1L190,14.1
	L190,14.1z M189.8,14.4C189.8,14.4,189.8,14.5,189.8,14.4C189.8,14.5,189.8,14.4,189.8,14.4L189.8,14.4z M189.7,14.6
	C189.6,14.6,189.6,14.6,189.7,14.6C189.6,14.6,189.6,14.6,189.7,14.6L189.7,14.6z M186.6,19.2C186.5,19.2,186.5,19.2,186.6,19.2
	C186.5,19.2,186.5,19.2,186.6,19.2L186.6,19.2z M193.9,21.4L193.9,21.4L193.9,21.4L193.9,21.4z M186.8,21.7
	C186.8,21.7,186.8,21.8,186.8,21.7C186.8,21.8,186.8,21.7,186.8,21.7L186.8,21.7z M187.8,23.1C187.8,23.1,187.8,23.2,187.8,23.1
	C187.8,23.2,187.8,23.1,187.8,23.1L187.8,23.1z M190,14.2L190,14.2L190,14.2L190,14.2L190,14.2L190,14.2z"/>
<path class="st0" d="M148.4,221.6c-0.3,0-0.6,0.1-0.8,0.2c-0.2,0.1-0.4,0.3-0.6,0.5c-0.2,0.2-0.3,0.4-0.5,0.6
	c-0.3,0.4-0.4,1-0.3,1.5c0,0.3,0.1,0.6,0.3,0.8s0.5,0.4,0.8,0.4s0.5-0.1,0.7-0.2c0,0.1,0,0.2,0.1,0.3c0.1,0.2,0.2,0.3,0.3,0.4
	c0.2,0.1,0.3,0.1,0.5,0.1s0.4-0.1,0.5-0.2c0.2-0.2,0.4-0.4,0.6-0.7c0.1-0.2,0.2-0.4,0.2-0.5c0.2-0.1,0.4-0.2,0.6-0.3
	c0.3-0.1,0.6-0.2,0.9-0.2c0.2,0,0.4,0,0.6,0c0.4,0,0.7-0.3,0.7-0.7s-0.3-0.7-0.7-0.7c-0.5,0-0.9,0.1-1.4,0.2c-0.2,0-0.4,0.1-0.5,0.2
	c0-0.1-0.1-0.2-0.1-0.3s-0.1-0.1-0.1-0.2c0-0.2-0.2-0.5-0.3-0.7c-0.1-0.1-0.2-0.2-0.3-0.2l-0.1-0.1c-0.1,0-0.2-0.1-0.3-0.1
	s-0.2,0-0.3-0.1c-0.1,0-0.1,0-0.2,0S148.5,221.6,148.4,221.6L148.4,221.6z"/>
<path class="st0" d="M164,201.5c-0.3,5.5-0.6,10.9-0.9,16.4c-0.1,1.2-0.1,2.4-0.2,3.6c0,0.8-0.1,1.6-0.1,2.4c0,0.3,0,0.5,0,0.8
	c0,0.2,0,0.5,0,0.8c0,0.2,0,0.4,0,0.5c0,0.2,0,0.5,0.1,0.7c0.1,0.3,0.4,0.6,0.8,0.6c0.5,0,0.8-0.4,0.8-0.8c0-0.2,0-0.5,0.1-0.7
	c0-0.1,0-0.2,0-0.3c0-0.2,0-0.5,0.1-0.7c0-0.2,0-0.4,0-0.7c0-0.8,0.1-1.5,0.1-2.3c0.1-0.9,0.1-1.9,0.2-2.8c0.1-2.1,0.2-4.2,0.3-6.3
	c0.2-3.7,0.4-7.5,0.6-11.2c0-0.5-0.4-0.9-0.9-0.9C164.4,200.6,164.1,201,164,201.5L164,201.5z"/>
<path class="st0" d="M168.9,199.4c-0.5,0.2-0.9,0.5-1.2,0.9c-0.2,0.3-0.4,0.6-0.6,0.9c-0.2,0.5-0.5,0.9-0.7,1.4
	c-0.2,0.3-0.1,0.7,0.2,0.9s0.8,0.1,0.9-0.2c0.2-0.4,0.4-0.7,0.6-1.1c0.2-0.4,0.4-0.7,0.6-1.1c0.1-0.1,0.2-0.2,0.3-0.3
	s0.2-0.1,0.3-0.2c0.1,0,0.1,0,0.2,0h0.1c0.1,0,0.2,0.1,0.3,0.1c0.2,0.1,0.5,0.2,0.7,0.4s0.4,0.3,0.5,0.5s0.2,0.3,0.3,0.5
	c0.1,0.3,0.2,0.6,0.2,0.8c0,0.3,0,0.6,0,0.9c-0.1,0.3-0.1,0.7-0.3,1c-0.1,0.2-0.2,0.4-0.3,0.5c-0.1,0.2-0.2,0.3-0.3,0.5
	c-0.3,0.3-0.5,0.6-0.8,0.9c-0.1,0.1-0.2,0.2-0.4,0.2c-0.2,0.1-0.3,0.1-0.5,0.1c-0.3,0-0.6,0-0.9,0c-0.2,0-0.4-0.1-0.6-0.2
	c-0.1-0.1-0.2-0.1-0.4-0.2c-0.1-0.1-0.1-0.1-0.2-0.2c0-0.1-0.1-0.1-0.1-0.2c-0.1-0.3-0.5-0.4-0.8-0.3c-0.3,0.1-0.6,0.5-0.5,0.8
	c0.1,0.2,0.1,0.4,0.2,0.5c0.1,0.2,0.3,0.4,0.4,0.5c0.4,0.3,0.9,0.5,1.3,0.6c0.5,0.1,1,0.1,1.5,0s1.1-0.2,1.5-0.5s0.8-0.7,1.1-1.1
	c0.3-0.4,0.6-0.9,0.9-1.4c0.2-0.5,0.4-1,0.4-1.5c0-0.2,0.1-0.5,0.1-0.7c0-0.3,0-0.6-0.1-0.8c-0.1-0.4-0.2-0.9-0.4-1.3
	c-0.2-0.4-0.6-0.8-1-1.1s-0.8-0.6-1.3-0.7c-0.2-0.1-0.4-0.1-0.6-0.1h-0.1C169.3,199.3,169.1,199.3,168.9,199.4L168.9,199.4z
	 M169.4,200.6C169.4,200.7,169.4,200.7,169.4,200.6C169.4,200.7,169.4,200.7,169.4,200.6L169.4,200.6z M171.6,203v0.1
	C171.6,203.1,171.6,203,171.6,203L171.6,203z M171.6,203.8v0.1C171.6,203.8,171.6,203.8,171.6,203.8L171.6,203.8z"/>
<path class="st1" d="M149.6,229c-0.1,0-0.2,0.1-0.2,0.2c-0.1,0.5-0.2,1.1-0.3,1.6c0,0.2-0.1,0.5-0.1,0.8s0,0.6-0.1,1
	c0,0.3,0,0.6,0,0.9c0,0.2,0.2,0.4,0.4,0.4s0.4-0.2,0.4-0.4c0-0.3,0-0.7,0-1c0-0.4,0.1-0.8,0.1-1.1c0.1-0.6,0.2-1.2,0.3-1.8
	c0-0.1,0-0.2,0-0.3c-0.1-0.1-0.1-0.1-0.2-0.2h-0.1C149.7,229,149.7,229,149.6,229L149.6,229z"/>
<path class="st1" d="M148.8,242.1c-0.1,0.1-0.2,0.2-0.2,0.3c-0.1,0.8-0.2,1.6-0.4,2.4c-0.1,0.5-0.2,1-0.2,1.6l0,0l0,0v0.1l0,0l0,0
	l0,0c0,0,0,0,0-0.1c0,0.1,0,0.1,0,0.2c0,0.4-0.1,0.8-0.2,1.1v-0.1c0,0.2,0,0.4-0.1,0.5l0,0c0,0.3-0.1,0.7-0.1,1c0,0.2,0,0.4,0,0.6
	c0,0.4,0,0.8,0,1.2c0,0.3,0.2,0.5,0.5,0.5s0.5-0.2,0.5-0.5c0-0.5,0-1,0.1-1.5c0-0.3,0.1-0.6,0.1-1c0.3-1.9,0.6-3.7,0.8-5.6
	c0-0.1,0-0.3-0.1-0.4c-0.1-0.1-0.2-0.2-0.3-0.2h-0.1C149,242,148.9,242,148.8,242.1L148.8,242.1z M148.7,248.3
	C148.7,248.3,148.7,248.4,148.7,248.3C148.7,248.4,148.7,248.3,148.7,248.3L148.7,248.3z M147.7,248.1L147.7,248.1L147.7,248.1
	L147.7,248.1z M147.7,248L147.7,248L147.7,248L147.7,248L147.7,248z M147.7,248L147.7,248c0-0.1,0-0.1,0-0.2
	C147.8,247.9,147.7,248,147.7,248L147.7,248z M148,246.4v0.1C147.9,246.5,147.9,246.5,148,246.4C148,246.5,148,246.4,148,246.4
	L148,246.4L148,246.4z"/>
<path class="st1" d="M149.1,256.9c-0.1,0.1-0.2,0.3-0.2,0.5c-0.1,1.8-0.3,3.7-0.4,5.5c0,0.4,0,0.9-0.1,1.3c0,0.3,0,0.7,0,1
	c0,1,0,1.9,0.1,2.9c0,0.3,0.2,0.5,0.6,0.5c0.3,0,0.6-0.2,0.5-0.5c0-0.9,0-1.9,0-2.8c0-0.4,0-0.8,0-1.1c0-0.4,0.1-0.9,0.1-1.3
	c0.1-1.8,0.2-3.7,0.4-5.5c0-0.3-0.3-0.6-0.6-0.6C149.4,256.7,149.2,256.8,149.1,256.9L149.1,256.9z"/>
<path class="st1" d="M149.7,274.7c-0.1,0.1-0.1,0.2-0.2,0.4c-0.2,1.5-0.4,3-0.6,4.4c-0.1,0.6-0.1,1.3-0.2,1.9
	c-0.1,0.7-0.1,1.5-0.2,2.2c0,0.3,0.2,0.5,0.5,0.5c0.1,0,0.3-0.1,0.4-0.1c0.1-0.1,0.1-0.2,0.1-0.4c0.1-1.4,0.3-2.8,0.5-4.1
	c0.2-1.5,0.4-3,0.6-4.4c0-0.1-0.1-0.3-0.2-0.4c-0.1-0.1-0.2-0.2-0.4-0.2C149.9,274.6,149.8,274.6,149.7,274.7L149.7,274.7z"/>
<path class="st1" d="M148.7,291.9c-0.1,0.1-0.2,0.2-0.2,0.4c-0.1,1.2-0.2,2.5-0.3,3.7s-0.1,2.3-0.1,3.5c0,0.3,0.2,0.5,0.5,0.5
	s0.5-0.2,0.5-0.5c0.1-1.2,0.1-2.3,0.2-3.5c0.1-1.2,0.2-2.5,0.3-3.7c0-0.3-0.3-0.6-0.6-0.6C149,291.8,148.9,291.8,148.7,291.9
	L148.7,291.9z"/>
<path class="st1" d="M148.4,304.9c-0.1,0.1-0.2,0.2-0.2,0.4c-0.1,1.1-0.2,2.3-0.3,3.4c0,0.5-0.1,1-0.1,1.6c0,0.3,0,0.6,0,0.8
	c0,0.4,0,0.9,0,1.3c0,0.3,0.2,0.5,0.5,0.5s0.5-0.2,0.5-0.5c0-0.4,0-0.8,0-1.2c0-0.3,0-0.6,0.1-0.9c0-0.5,0.1-1.1,0.1-1.6
	c0.1-1.1,0.2-2.3,0.3-3.4c0-0.3-0.3-0.6-0.6-0.6C148.6,304.8,148.5,304.8,148.4,304.9L148.4,304.9z"/>
<path class="st1" d="M147.7,319.4c0,0.3,0.2,0.5,0.5,0.5s0.5-0.2,0.5-0.5s-0.2-0.5-0.5-0.5S147.7,319.1,147.7,319.4L147.7,319.4z"/>
<path class="st1" d="M148.1,325.4c-0.1,1.2-0.2,2.3-0.2,3.5c0,0.5-0.1,0.9-0.1,1.4c0,0.6-0.1,1.1,0,1.7c0,0.2,0,0.5,0.1,0.7
	s0.2,0.4,0.3,0.6c0.2,0.3,0.6,0.4,0.9,0.2c0.1-0.1,0.3-0.2,0.3-0.4c0-0.2,0-0.3-0.1-0.5c0,0,0-0.1-0.1-0.1v-0.1c0-0.4,0-0.9,0-1.3
	c0-0.5,0.1-0.9,0.1-1.4c0-0.3,0-0.7,0.1-1c0.1-1.1,0.1-2.1,0.2-3.2c0-0.4-0.3-0.7-0.7-0.7C148.4,324.7,148.1,325,148.1,325.4
	L148.1,325.4z"/>
<path class="st1" d="M140.4,223c-0.4,0-0.7,0-1.1,0c-0.5,0-1,0-1.6,0.1c-0.5,0-0.9,0.4-0.9,0.9s0.4,0.9,0.9,0.9
	c2.9,0,5.8,0.1,8.7,0.2c0.5,0,1-0.5,1-1c0-0.6-0.5-1-1-1c-1.4-0.1-2.8-0.1-4.2-0.2c-0.5,0-1,0-1.6,0C140.6,223,140.5,223,140.4,223
	L140.4,223z"/>
<path class="st1" d="M50.9,224.9c0,0-0.1,0.1-0.1,0.2c0,0.1,0,0.1,0.1,0.2c0.1,0.1,0.1,0.1,0.2,0.1c0.8,0.1,1.6,0.2,2.4,0.3h0.1
	c0.1,0,0.1-0.1,0.1-0.1c0-0.1,0-0.1,0-0.2c0-0.1-0.1-0.1-0.2-0.1C52.7,225.2,51.8,225.1,50.9,224.9L50.9,224.9
	C51,224.8,50.9,224.8,50.9,224.9L50.9,224.9z"/>
<path class="st1" d="M75.6,223c-2.5,0.2-5.1,0.5-7.6,0.8c-0.3,0-0.5,0.1-0.7,0.3s-0.3,0.4-0.3,0.7s0.1,0.5,0.3,0.7
	c0.2,0.2,0.5,0.3,0.7,0.3c1.3-0.1,2.6-0.3,4-0.4c0.6-0.1,1.2-0.1,1.8-0.2c0.7-0.1,1.4-0.2,2.1-0.4c0.4-0.1,0.6-0.5,0.6-0.8
	C76.4,223.5,76.1,223,75.6,223L75.6,223L75.6,223z"/>
<path class="st1" d="M82.7,224.6c0,0.5,0.4,0.9,0.9,0.9c1.2,0,2.3,0.1,3.5,0.1s2.4-0.1,3.6-0.1c0.4,0,0.8-0.3,0.8-0.8
	c0-0.4-0.4-0.8-0.8-0.8c-2.4-0.1-4.7-0.1-7.1-0.2l0,0C83.1,223.7,82.7,224.1,82.7,224.6L82.7,224.6z"/>
<path class="st1" d="M109.8,224.9c-1.6,0-3.3,0.1-4.9,0.2c-0.5,0-0.9,0.4-0.9,0.9s0.4,0.9,0.9,0.9c0.8,0,1.5-0.1,2.3-0.1
	c0.9-0.1,1.8-0.1,2.6-0.2c0.2,0,0.4-0.1,0.6-0.2c0.2-0.2,0.2-0.4,0.2-0.6C110.6,225.3,110.3,224.9,109.8,224.9L109.8,224.9
	L109.8,224.9z"/>
<path class="st1" d="M119.9,224c-0.5,0-1,0.4-1,1c0,0.5,0.5,1,1,1c1.1,0,2.1,0,3.2,0c1,0,2-0.1,3-0.2c0.2,0,0.5-0.1,0.6-0.3
	c0.2-0.2,0.3-0.4,0.3-0.6c0-0.5-0.4-0.9-0.9-0.9c-0.2,0-0.3,0-0.5,0C123.8,224,121.9,224,119.9,224L119.9,224z"/>
<path class="st1" d="M26.5,222.1c0,0.7,0,1.4-0.1,2.1c0,0.3,0,0.7,0,1c0,0.6,0.1,1.2,0.2,1.7c0.1,0.3,0.3,0.5,0.6,0.7
	c0.3,0.2,0.7,0.2,1,0.2c0.4-0.1,0.7-0.3,1-0.5s0.6-0.5,0.8-0.7c0.5-0.5,0.9-1,1.3-1.6c0,0.3,0,0.6,0,0.9c0,1.1,0,2.2,0,3.3
	s0,2.3-0.1,3.4c0,0.5,0,1-0.1,1.5c0,0.4,0,0.8-0.1,1.1c-0.1,0.1-0.3,0.2-0.4,0.3c-0.2,0.2-0.5,0.4-0.7,0.6c-0.9,0.8-1.8,1.7-2.4,2.8
	c-0.3,0.6-0.5,1.3-0.6,2c0,0.1,0,0.1,0,0.2c0,0.1,0,0.2,0.1,0.4c0,0.1,0.1,0.3,0.2,0.4c0.1,0.1,0.2,0.3,0.3,0.4
	c0.1,0.2,0.3,0.3,0.5,0.4c0.1,0.1,0.3,0.1,0.4,0.2c0.2,0.1,0.3,0.1,0.5,0.1c0.3,0,0.7,0,1-0.1c0.7-0.2,1.2-0.8,1.5-1.5
	c0.2-0.7,0.4-1.4,0.5-2.1c0.1-0.4,0.1-0.8,0.2-1.2c0.1-0.5,0.1-1.1,0.2-1.6c0-0.1,0-0.1,0-0.2l0,0c0.1-0.1,0.3-0.2,0.4-0.3
	c0.1-0.1,0.2-0.2,0.4-0.2c0.7-0.4,1.4-0.8,2.1-1.2c0.3-0.2,0.5-0.6,0.3-1c-0.2-0.3-0.6-0.4-1-0.3c-0.6,0.3-1.1,0.6-1.7,0.9
	c-0.1,0.1-0.3,0.1-0.4,0.2c0-0.3,0-0.7,0-1c0-0.6,0-1.2,0-1.9s0-1.2,0-1.9c0-2.1,0-4.3,0-6.4c0-0.3,0-0.6,0-0.8
	c0-0.3-0.2-0.5-0.4-0.6c-0.3-0.1-0.6,0-0.7,0.3c-0.1,0.2-0.2,0.4-0.2,0.6c-0.1,0.2-0.1,0.4-0.2,0.6c-0.2,0.5-0.5,1-0.9,1.5
	c-0.2,0.3-0.4,0.5-0.6,0.8s-0.5,0.5-0.8,0.8c-0.2,0.2-0.4,0.3-0.7,0.4c0,0,0,0-0.1,0c0,0,0,0-0.1,0h-0.1l0,0
	c-0.1-0.2-0.1-0.4-0.1-0.6c0-0.4,0-0.7-0.1-1.1c0-0.2,0-0.5,0-0.7c0-0.7,0-1.4,0.1-2.1c0-0.3-0.3-0.6-0.6-0.6
	C26.8,221.5,26.5,221.8,26.5,222.1L26.5,222.1z M30.2,224.7C30.2,224.7,30.1,224.8,30.2,224.7C30.1,224.8,30.2,224.7,30.2,224.7
	L30.2,224.7z M27.8,226.5C27.8,226.5,27.8,226.6,27.8,226.5C27.8,226.6,27.8,226.5,27.8,226.5L27.8,226.5z M28.2,226.6L28.2,226.6
	L28.2,226.6L28.2,226.6z M27.8,226.6C27.9,226.6,27.9,226.6,27.8,226.6c0.1,0,0.1,0,0.1,0S27.9,226.6,27.8,226.6
	C27.9,226.6,27.9,226.6,27.8,226.6C27.9,226.6,27.9,226.6,27.8,226.6C27.9,226.6,27.9,226.6,27.8,226.6
	C27.9,226.6,27.9,226.6,27.8,226.6C27.9,226.6,27.9,226.6,27.8,226.6L27.8,226.6L27.8,226.6z M27.9,226.6
	C27.9,226.7,27.9,226.7,27.9,226.6C27.9,226.7,27.9,226.7,27.9,226.6L27.9,226.6z M28,226.7L28,226.7L28,226.7L28,226.7z M31,237.3
	c0,0.3-0.1,0.7-0.1,1c-0.1,0.9-0.3,1.7-0.6,2.5c-0.1,0.1-0.1,0.2-0.2,0.3s-0.2,0.2-0.2,0.2s-0.1,0-0.1,0.1c-0.1,0-0.2,0.1-0.3,0.1
	c-0.1,0-0.1,0-0.2,0s-0.2-0.1-0.3-0.1c0,0-0.1,0-0.1-0.1l0,0l-0.1-0.1v-0.1c0-0.1,0-0.2,0-0.3c0.1-0.3,0.1-0.6,0.3-0.9
	c0.2-0.4,0.4-0.7,0.6-1C30,238.3,30.5,237.8,31,237.3L31,237.3z M28.9,239.8L28.9,239.8L28.9,239.8L28.9,239.8z M28.6,240.9
	L28.6,240.9L28.6,240.9L28.6,240.9z M28.7,241.2C28.7,241.2,28.7,241.3,28.7,241.2C28.7,241.3,28.7,241.3,28.7,241.2
	C28.7,241.3,28.7,241.2,28.7,241.2L28.7,241.2z M28.7,241.3L28.7,241.3L28.7,241.3L28.7,241.3L28.7,241.3z M29.9,241.3L29.9,241.3
	L29.9,241.3L29.9,241.3z M27.9,226.6L27.9,226.6L27.9,226.6L27.9,226.6L27.9,226.6L27.9,226.6z"/>
<path class="st1" d="M156.9,337.8c-0.1,0-0.2,0.1-0.3,0.1c-0.1,0.1-0.2,0.2-0.4,0.3c-0.2,0.2-0.4,0.4-0.5,0.6
	c-0.4,0.4-0.7,0.9-1,1.3c-0.3,0.5-0.5,1-0.8,1.5c-0.2,0.5-0.4,1-0.5,1.5c-0.1,0.1-0.1,0.1-0.2,0.2c-0.3,0.3-0.6,0.6-0.9,0.9
	c-0.2,0.2-0.4,0.4-0.7,0.6c0-0.2,0-0.3,0-0.5c0-0.5,0-1-0.1-1.5c-0.1-1-0.3-2-0.5-2.9c-0.1-0.5-0.6-0.7-1.1-0.6
	c-0.2,0.1-0.4,0.2-0.5,0.4c-0.1,0.2-0.1,0.4-0.1,0.7c0.1,0.7,0.3,1.3,0.4,2c0.1,0.5,0.1,1,0.1,1.5c0,0.3,0,0.6,0,0.8
	c0,0.3,0,0.5,0,0.8c0,0.2,0,0.3,0,0.5v0.1c0,0.1,0,0.2,0,0.3c0,0.1,0,0.2,0.1,0.3c0.1,0.3,0.4,0.6,0.7,0.6c0.2,0,0.3,0,0.5,0
	c0.2-0.1,0.3-0.2,0.4-0.3c0.2-0.2,0.4-0.4,0.7-0.6c0.1-0.1,0.3-0.3,0.4-0.5c0.3-0.3,0.5-0.6,0.8-0.9l0,0c0.1,0.3,0.2,0.5,0.3,0.8
	s0.3,0.5,0.4,0.7c0.6,0.9,1.4,1.6,2.4,2.1c0.4,0.2,0.8,0.1,1-0.3c0.2-0.3,0.1-0.9-0.3-1c-0.3-0.2-0.7-0.4-1-0.6s-0.6-0.5-0.8-0.8
	s-0.4-0.6-0.6-1c-0.1-0.2-0.1-0.4-0.2-0.6c0-0.2,0-0.5,0-0.7c0-0.1,0-0.1,0-0.2c0.4-0.5,0.7-1,1.1-1.5c0.3-0.5,0.6-0.9,0.9-1.4
	c0.4-0.6,0.7-1.2,1-1.9v-0.1c0-0.1,0-0.2,0-0.2c0-0.1-0.1-0.2-0.1-0.3c-0.1-0.2-0.2-0.2-0.4-0.2C157,337.8,157,337.8,156.9,337.8
	L156.9,337.8z M149.8,342.4c0,0.1,0,0.1,0,0.2C149.8,342.5,149.8,342.5,149.8,342.4L149.8,342.4z"/>
<path class="st1" d="M148.2,340c-0.4,0.2-0.5,0.7-0.3,1.1c0.3,0.7,0.7,1.4,1,2.1c0.2,0.4,0.3,0.8,0.4,1.2c0.1,0.4,0.2,0.9,0.3,1.4
	c0.1,1,0.2,1.9,0,2.9c-0.1,0.4-0.2,0.7-0.3,1.1c-0.1,0.3-0.3,0.5-0.4,0.8c-0.2,0.3-0.5,0.5-0.7,0.7c-0.1,0.1-0.2,0.1-0.3,0.2
	c-0.4,0.4-0.4,0.9,0,1.3c0.2,0.2,0.4,0.3,0.6,0.3c0.2,0,0.3-0.1,0.5-0.1l0,0c0.2-0.1,0.5-0.3,0.7-0.5c0.1-0.1,0.2-0.2,0.3-0.3
	c0.4-0.4,0.7-0.8,1-1.2c0.2-0.2,0.4-0.4,0.5-0.7c0.3-0.5,0.6-1,0.9-1.5c0.4-0.9,0.7-1.8,0.9-2.7c0.2-0.9,0.1-1.9-0.1-2.8
	c0-0.2-0.1-0.4-0.2-0.6c-0.1-0.3-0.3-0.7-0.5-1c-0.1-0.1-0.3-0.2-0.5-0.2c-0.3,0-0.5,0.1-0.6,0.4c-0.2,0.2-0.1,0.5-0.1,0.8
	c0,0.1,0,0.2,0,0.3c0,0.3,0,0.6,0,0.9c-0.1,0.4-0.2,0.9-0.3,1.3c-0.1-0.3-0.1-0.7-0.2-1c-0.4-1.3-1-2.4-1.6-3.6
	c-0.1-0.3-0.4-0.4-0.7-0.4C148.5,339.9,148.4,339.9,148.2,340L148.2,340z M151.3,342.3c0,0.1,0,0.1,0,0.2
	C151.4,342.4,151.4,342.3,151.3,342.3L151.3,342.3z M149.7,345.5C149.7,345.5,149.7,345.6,149.7,345.5
	C149.7,345.6,149.7,345.5,149.7,345.5L149.7,345.5z M148.2,351.2L148.2,351.2L148.2,351.2L148.2,351.2z"/>
<path class="st1" d="M44.8,305c0,4.5-0.1,9-0.1,13.5c0,2.2,0,4.4,0,6.6c0,1.1,0,2.1-0.1,3.2s-0.1,2.2-0.2,3.3c0,0.6,0,1.1,0,1.6
	c0,0.6,0.1,1.3,0.1,1.9c0,0.3,0.2,0.6,0.5,0.7c0.4,0.1,0.8-0.1,0.8-0.5c0.3-1.1,0.4-2.3,0.5-3.4s0.1-2.1,0.2-3.2
	c0.1-2.2,0.1-4.3,0.1-6.5c0-4.3-0.1-8.6,0-12.9c0-1.5,0-2.9,0-4.4c0-0.5-0.4-0.9-0.9-0.9C45.2,304.1,44.8,304.5,44.8,305L44.8,305z"
	/>
<path class="st1" d="M46.6,304c-0.1,0.1-0.1,0.1-0.2,0.2c-0.3,0.1-0.5,0.2-0.7,0.4c-0.3,0.2-0.5,0.5-0.7,0.8s-0.4,0.5-0.6,0.8l0,0
	c0,0,0,0,0,0.1c0,0,0,0,0,0.1c0,0,0,0,0-0.1c-0.2,0.2-0.3,0.4-0.5,0.6c-0.7,0.7-1.3,1.4-2,2.1s-1.3,1.4-2,2.1
	c-0.4,0.4-0.8,0.8-1.1,1.2c-0.1,0.1-0.3,0.3-0.4,0.4c-0.1,0.1-0.2,0.2-0.3,0.3s-0.2,0.2-0.3,0.3c-0.1,0.1-0.1,0.3-0.1,0.5
	s0.1,0.5,0.3,0.7c0.3,0.3,1,0.4,1.3,0l0.1-0.1c0.1-0.1,0.2-0.2,0.3-0.3c0.2-0.2,0.3-0.3,0.5-0.5c0.4-0.4,0.7-0.8,1.1-1.2
	c0.7-0.7,1.3-1.4,2-2.1c1.6-1.6,3.1-3.3,4.7-4.9l0.1-0.1l0,0c1.2,0.2,2.4,0.6,3.5,1c0.4,0.1,0.8,0.3,1.1,0.4
	c0.4,0.2,0.9,0.3,1.4,0.4c0.4,0.1,0.8-0.1,0.9-0.5c0.1-0.4-0.1-0.8-0.5-0.9c-0.6-0.2-1.3-0.4-1.9-0.7c-0.6-0.2-1.1-0.3-1.7-0.5
	c-0.7-0.2-1.4-0.4-2.1-0.4c-0.2,0-0.4,0-0.7-0.1l-0.1-0.1c-0.2-0.2-0.4-0.3-0.7-0.3C47.1,303.7,46.8,303.8,46.6,304L46.6,304z
	 M44.4,306.2L44.4,306.2L44.4,306.2L44.4,306.2L44.4,306.2z"/>
<path class="st1" d="M72.4,333.6c-1.1,0.1-2.1,0.2-3.2,0.3c-2.1,0.2-4.2,0.4-6.3,0.5c-1.7,0.1-3.4,0.2-5.1,0.3
	c-0.9,0.1-1.7,0.2-2.6,0.3c-1,0.1-1.9,0.3-2.9,0.5c-0.5,0.1-1,0.3-1.5,0.5c-0.6,0.2-1.1,0.5-1.7,0.8c-0.5,0.2-0.6,0.9-0.4,1.4
	c0.3,0.5,0.9,0.6,1.4,0.4c0.4-0.2,0.7-0.3,1.1-0.5c1.3-0.5,2.6-0.7,3.9-0.9c1.1-0.1,2.2-0.2,3.3-0.3c1.1-0.1,2.2-0.1,3.3-0.2
	c2.2-0.1,4.3-0.3,6.4-0.5c0.8-0.1,1.7-0.2,2.5-0.3c0.5,0,0.9-0.1,1.4-0.1c0.6-0.1,1.1-0.1,1.7-0.1c0.8,0.1,1.5,0.4,2.3,0.6
	c0.4,0.1,0.8-0.1,1-0.4c0.1-0.2,0.2-0.5,0.1-0.7s-0.2-0.5-0.4-0.5c-0.6-0.3-1.2-0.5-1.9-0.7c-0.5-0.1-0.9-0.2-1.4-0.2
	c-0.1,0-0.2,0-0.3,0C72.9,333.5,72.6,333.5,72.4,333.6L72.4,333.6z"/>
<path class="st1" d="M72.8,327.5c-0.4,0.3-0.7,0.9-0.4,1.4c0.8,1.2,1.6,2.4,2.5,3.6c0.4,0.5,0.7,1,1.1,1.5c0.2,0.2,0.3,0.4,0.5,0.6
	c0.3,0.4,0.7,0.9,0.9,1.3l0,0c0,0.1,0,0.1,0,0.2v0.1c-0.3,0.6-0.6,1.1-1,1.6c0,0,0-0.1,0.1-0.1l-0.1,0.1l0,0l0,0
	c-0.8,1-1.6,1.9-2.5,2.8c-0.3,0.3-0.7,0.7-1,1c-0.2,0.2-0.5,0.4-0.7,0.7c-0.2,0.2-0.4,0.4-0.6,0.7c-0.2,0.2-0.3,0.5-0.3,0.8
	s0,0.5,0.1,0.7s0.3,0.4,0.5,0.4c0.5,0.1,1-0.2,1.1-0.6l0,0c0.3-0.3,0.7-0.6,1-0.9c0.2-0.2,0.4-0.4,0.6-0.6c0.4-0.4,0.8-0.8,1.2-1.2
	c0.7-0.8,1.4-1.5,2-2.3c0.4-0.6,0.8-1.1,1.2-1.7c0.4-0.7,0.5-1.7,0.1-2.4c-0.4-0.7-0.9-1.3-1.3-1.9c-0.3-0.4-0.6-0.8-0.9-1.2
	c-0.7-1-1.4-2-2.1-3c-0.2-0.4-0.5-0.7-0.7-1.1c-0.2-0.3-0.5-0.5-0.9-0.5C73.2,327.4,73,327.4,72.8,327.5L72.8,327.5z M77.4,335.8
	C77.4,335.8,77.4,335.9,77.4,335.8C77.4,335.9,77.4,335.8,77.4,335.8L77.4,335.8z M73.2,344.2L73.2,344.2L73.2,344.2L73.2,344.2z
	 M73.1,344.4L73.1,344.4L73.1,344.4L73.1,344.4z M76.4,338L76.4,338C76.4,337.9,76.4,337.9,76.4,338C76.4,337.9,76.4,337.9,76.4,338
	L76.4,338z"/>
<path class="st1" d="M5.8,278.5c-0.4,0.1-0.8,0.4-1.2,0.7c-0.3,0.2-0.5,0.6-0.6,0.9c-0.2,0.3-0.3,0.7-0.4,1
	c-0.2,0.6-0.3,1.2-0.4,1.8c-0.1,0.6-0.2,1.2-0.3,1.9c-0.1,0.6-0.1,1.2-0.2,1.8c-0.2,2.2-0.2,4.5-0.3,6.8c-0.1,2.1-0.2,4.1-0.3,6.2
	c-0.2,4.4-0.4,8.8-0.7,13.2c-0.2,2.2-0.3,4.5-0.4,6.7c-0.1,2.1-0.3,4.1-0.5,6.2c-0.1,1-0.2,2.1-0.3,3.1c0,0.5-0.1,1.1-0.1,1.6
	c0,0.2,0,0.5-0.1,0.8c0,0.5-0.1,1.1,0,1.6c0.1,0.3,0.2,0.6,0.5,0.8c0.2,0.3,0.6,0.4,1,0.5c0.3,0.1,0.7,0.1,1,0.1c0.4,0,0.9,0,1.3,0
	c0.6,0,1.1,0,1.7,0c1,0,2.1-0.1,3.1-0.2c0.4,0,0.8-0.1,1.2-0.2c0.2,0,0.3-0.1,0.4-0.2c0.2-0.2,0.3-0.4,0.3-0.7c0-0.5-0.4-1-0.9-0.9
	c-0.6,0-1.1,0-1.7,0.1c-0.5,0-1,0-1.5,0.1c-0.5,0-1.1,0-1.6,0.1c-0.8,0-1.7,0.1-2.5,0c-0.1,0-0.2,0-0.3-0.1c0-0.3,0-0.7,0.1-1
	c0-0.3,0-0.5,0.1-0.8c0-0.5,0.1-1.1,0.1-1.6c0.1-1.1,0.2-2.1,0.3-3.2c0.2-2.1,0.4-4.1,0.5-6.2c0.2-2.2,0.3-4.5,0.4-6.7
	c0.1-2.1,0.3-4.2,0.4-6.4c0.1-2.3,0.2-4.5,0.3-6.8c0.1-2.1,0.2-4.2,0.3-6.3c0.1-1.4,0.1-2.8,0.2-4.2c0-0.6,0-1.2,0.1-1.8
	c0.1-0.7,0.1-1.4,0.2-2.2c0.2-1.3,0.3-2.6,0.8-3.9c0.1-0.2,0.2-0.4,0.3-0.6c0.1-0.1,0.1-0.1,0.2-0.2c0,0,0.1,0,0.1-0.1
	c0.1,0,0.2-0.1,0.3-0.1c0.8,0,1.5,0.1,2.3,0.2c-0.1,0-0.2,0-0.3,0c2.1,0.3,4.3,0.7,6.4,1.1c0.3,0.1,0.5,0,0.8-0.1
	c0.2-0.1,0.4-0.3,0.5-0.6c0.1-0.5-0.2-1.1-0.7-1.2c-2.4-0.4-4.8-0.9-7.2-1.2c-0.5-0.1-0.9-0.1-1.4-0.2c-0.1,0-0.1,0-0.2,0
	C6.4,278.4,6.1,278.4,5.8,278.5L5.8,278.5z"/>
<path class="st1" d="M17,288.6c-0.6,0-1.1,0.2-1.6,0.5c-0.4,0.2-0.8,0.6-1.2,1s-0.7,0.9-0.9,1.4s-0.4,1.1-0.4,1.7s0.1,1.1,0.3,1.6
	s0.4,0.9,0.7,1.3c0.1,0.2,0.3,0.4,0.5,0.5c0.3,0.1,0.5,0.2,0.8,0.3c1.1,0.2,2.2-0.1,3.2-0.7c0.5-0.3,0.9-0.7,1.3-1.1
	c0.3-0.4,0.5-0.9,0.7-1.4c0.4-1,0.4-2.1,0.1-3.1c-0.2-0.5-0.5-1-0.9-1.3c-0.2-0.2-0.5-0.4-0.8-0.5s-0.5-0.1-0.8-0.1h-0.1
	c-0.3-0.1-0.5-0.1-0.8-0.1C17.1,288.6,17.1,288.6,17,288.6L17,288.6z M17.2,290.6c0.3,0.1,0.6,0.2,0.9,0.3c0.1,0,0.2,0,0.3,0
	c0.1,0.1,0.1,0.2,0.2,0.3c0.1,0.2,0.1,0.4,0.2,0.6c0,0.2,0,0.4,0,0.6c-0.1,0.3-0.1,0.6-0.2,0.9s-0.3,0.5-0.4,0.7
	c-0.1,0.1-0.2,0.2-0.3,0.3c-0.2,0.2-0.5,0.3-0.8,0.4s-0.5,0.2-0.8,0.2c-0.2,0-0.3,0-0.5,0c-0.1,0-0.1,0-0.2,0
	c-0.1-0.2-0.3-0.4-0.4-0.6c-0.1-0.2-0.2-0.5-0.2-0.7s0-0.4,0-0.6s0.1-0.5,0.2-0.7c0.1-0.2,0.3-0.5,0.4-0.7c0.2-0.2,0.4-0.4,0.6-0.6
	c0.1-0.1,0.2-0.2,0.4-0.2c0.1,0,0.3-0.1,0.4-0.1C17.1,290.6,17.2,290.6,17.2,290.6L17.2,290.6z M15.6,295l0.1,0.1L15.6,295L15.6,295
	z"/>
<path class="st1" d="M15.1,309.9c0,1.3,0,2.7,0,4c0,0.5,0,1,0,1.5c0,0.6,0,1.3,0.1,1.9c0,0.3,0.1,0.6,0.1,0.9
	c0.1,0.3,0.2,0.6,0.4,0.9c0.3,0.4,0.8,0.6,1.3,0.3c0.2-0.1,0.4-0.3,0.4-0.5c0.1-0.3,0-0.5-0.1-0.7c0-0.1-0.1-0.1-0.1-0.2
	s0-0.2-0.1-0.3c-0.1-1,0-1.9,0-2.9c0-0.4,0-0.9,0-1.3c0-1.2,0-2.4,0-3.7c0-0.5-0.5-1-1-1C15.5,308.9,15.1,309.4,15.1,309.9
	L15.1,309.9z"/>
<path class="st1" d="M27.1,281.9c-0.2,0.1-0.4,0.3-0.5,0.6c-0.1,0.3,0,0.5,0.1,0.8c0.1,0.2,0.3,0.4,0.6,0.5c0,0,0.1,0,0.1,0.1
	c-0.1,0-0.2-0.1-0.2-0.1c0.2,0.1,0.5,0.3,0.7,0.4c0.1,0.1,0.3,0.3,0.4,0.4c0.2,0.3,0.3,0.5,0.5,0.8c0.2,0.6,0.3,1.2,0.4,1.8
	c0.3,2.4,0.3,4.8,0.3,7.2c0,1,0,1.9-0.1,2.9c0,1.2-0.1,2.3-0.2,3.5c-0.2,4.4-0.6,8.8-1,13.1c-0.2,2.1-0.4,4.2-0.7,6.3
	c-0.3,2.3-0.6,4.5-0.8,6.8c-0.2,2-0.4,3.9-0.7,5.9c-0.1,0.7-0.2,1.5-0.5,2.2c0,0.1-0.1,0.2-0.1,0.3l-0.1,0.1c-0.1,0-0.1,0.1-0.2,0.1
	c-0.3,0.1-0.7,0.2-1,0.3c-0.1,0-0.2,0-0.4,0c-0.2-0.1-0.5-0.1-0.8,0.1c-0.1,0.1-0.2,0.1-0.2,0.2c-0.5,0.5-0.3,1.5,0.4,1.6
	c0.2,0,0.4,0.1,0.6,0.1c0.1,0,0.3,0,0.4,0c0.3,0,0.6-0.1,1-0.2c0.7-0.2,1.3-0.5,1.8-1c0.6-0.7,0.7-1.6,0.9-2.4
	c0.1-0.6,0.2-1.2,0.2-1.7c0.1-0.5,0.1-1.1,0.2-1.6c0.2-2.2,0.5-4.4,0.7-6.6c0.2-2.1,0.5-4.1,0.7-6.2c0.2-2.3,0.4-4.6,0.6-6.8
	c0.4-4.3,0.7-8.6,0.9-12.9c0.1-2.1,0.2-4.2,0.1-6.3c0-0.6,0-1.3-0.1-1.9c0-0.6-0.1-1.2-0.1-1.8c-0.1-1.1-0.2-2.2-0.6-3.3
	c-0.2-0.7-0.6-1.3-1.1-1.9s-1.2-0.9-1.8-1.2c-0.1,0-0.2,0-0.2,0C27.4,281.8,27.2,281.9,27.1,281.9L27.1,281.9z M28.7,285.2
	L28.7,285.2L28.7,285.2L28.7,285.2z M24.4,337.3L24.4,337.3L24.4,337.3L24.4,337.3L24.4,337.3z M24.3,337.5L24.3,337.5L24.3,337.5
	L24.3,337.5z"/>
<path class="st1" d="M87.8,340.3c-0.7,0.1-1.3,0.4-1.8,0.9c-0.3,0.2-0.5,0.6-0.6,0.9c-0.2,0.4-0.4,0.8-0.5,1.2
	c-0.3,0.9-0.4,1.9-0.6,2.8c-0.1,0.6-0.2,1.1-0.2,1.7c-0.2,2.3-0.4,4.6-0.6,6.9c-0.2,2.2-0.3,4.3-0.4,6.5c-0.1,2.1-0.1,4.2-0.1,6.3
	c0,1.5,0,3.1,0,4.6c0,0.6,0,1.3,0.2,1.9c0.1,0.5,0.5,1.1,1,1.4c0.4,0.3,0.9,0.5,1.4,0.6c0.5,0.2,1.1,0.3,1.7,0.3c0.2,0,0.4,0,0.6,0
	c0.3,0,0.6,0,0.9-0.1c0.2,0,0.4-0.1,0.6-0.3c0.2-0.2,0.3-0.4,0.3-0.6c0-0.5-0.4-0.9-0.9-0.9c-0.3,0-0.6,0-1-0.1
	c-0.7-0.1-1.5-0.2-2.2-0.5c-0.1,0-0.2-0.1-0.3-0.2c0,0,0,0-0.1-0.1c0-0.1-0.1-0.1-0.1-0.2s0-0.2-0.1-0.2c-0.1-0.6,0-1.2,0-1.9
	c0-0.5,0-1,0-1.6c0-1.1,0-2.1,0-3.2c0-2.1,0-4.2,0.1-6.3c0.2-4.3,0.5-8.5,1-12.8c0.1-0.5,0.1-1,0.2-1.4c0.1-0.9,0.3-1.7,0.6-2.6
	c0.1-0.3,0.3-0.6,0.5-0.8c0.1-0.1,0.1-0.1,0.2-0.2c0.1,0,0.2-0.1,0.2-0.1c0.1-0.1,0.3-0.1,0.5-0.1c0.5,0,1,0,1.4,0.1
	c0.8,0.1,1.5,0.3,2.3,0.4c0.3,0.1,0.5,0,0.8-0.1c0.2-0.1,0.4-0.3,0.5-0.6c0.1-0.5-0.2-1.1-0.7-1.2c-0.7-0.1-1.5-0.3-2.2-0.4
	c-0.4-0.1-0.8-0.1-1.2-0.1c-0.1,0-0.3,0-0.4,0C88.4,340.2,88.1,340.3,87.8,340.3L87.8,340.3z"/>
<path class="st1" d="M96,346.6c-0.1,1.6-0.2,3.3-0.2,4.9c0,0.5,0.5,1,1,1c0.6,0,1-0.4,1-1c0.1-1.6,0.2-3.3,0.2-4.9c0-0.5-0.5-1-1-1
	S96.1,346.1,96,346.6L96,346.6z"/>
<path class="st1" d="M98.6,360.5c-0.7,0.2-1.4,0.5-2.1,0.9s-1.3,1-1.7,1.6c-0.2,0.3-0.3,0.6-0.4,0.9c-0.1,0.4-0.1,0.8,0,1.2
	c0,0.1,0.1,0.3,0.2,0.5s0.2,0.4,0.4,0.5c0.1,0.1,0.3,0.2,0.4,0.3c0.2,0.1,0.4,0.2,0.6,0.2s0.4,0.1,0.5,0.1s0.3,0,0.4,0
	c0.4,0,0.8-0.2,1.2-0.3c0.2-0.1,0.3-0.2,0.5-0.3c0.2-0.1,0.4-0.3,0.5-0.5c0.3-0.3,0.5-0.7,0.6-1.1c0.1-0.2,0.1-0.4,0.1-0.6
	s0-0.5-0.1-0.7c-0.1-0.4-0.3-0.7-0.6-1c-0.1-0.1-0.1-0.1-0.2-0.2H99c0.4-0.1,0.7-0.6,0.6-1s-0.4-0.6-0.8-0.6
	C98.7,360.5,98.6,360.5,98.6,360.5L98.6,360.5z M96.7,363.3c0.1,0.1,0.3,0.1,0.4,0.1s0.2,0,0.3,0c0.1,0,0.3,0.1,0.4,0.1
	s0.1,0.1,0.2,0.1l0.1,0.1c0,0,0,0,0,0.1v0.1v0.1v0.1c0,0.1-0.1,0.2-0.1,0.2c-0.1,0.1-0.2,0.2-0.3,0.3c-0.1,0.1-0.3,0.2-0.4,0.2
	s-0.2,0.1-0.3,0.1c-0.2,0-0.3,0-0.5,0c-0.1,0-0.2,0-0.3-0.1c0,0-0.1,0-0.1-0.1c0,0,0,0,0-0.1s0-0.1,0-0.2s0-0.1,0-0.2
	s0.1-0.2,0.1-0.3c0.1-0.2,0.2-0.3,0.3-0.5C96.4,363.6,96.6,363.4,96.7,363.3L96.7,363.3z M98.1,363.9L98.1,363.9L98.1,363.9
	L98.1,363.9z M98.1,364L98.1,364L98.1,364L98.1,364L98.1,364z M98.1,364L98.1,364L98.1,364L98.1,364L98.1,364z"/>
<path class="st1" d="M106.6,341.5c-0.2,0.1-0.4,0.3-0.5,0.6c-0.1,0.3,0,0.5,0.1,0.8c0.2,0.5,0.4,0.9,0.6,1.4
	c0.5,1.3,0.8,2.6,1.1,3.9c0.1,0.9,0.2,1.9,0.3,2.8c0.1,1.1,0.1,2.2,0.1,3.3c0,2.1,0,4.3-0.1,6.4s-0.2,4.2-0.4,6.3
	c-0.1,1-0.2,2-0.3,3c-0.1,0.9-0.2,1.9-0.3,2.8c0,0.2-0.1,0.5-0.1,0.7c-0.4,0-0.8,0-1.2-0.1c-0.2,0-0.4-0.1-0.7-0.1l0,0
	c-0.3-0.3-0.8-0.4-1.1-0.1c-0.5,0.3-0.6,0.8-0.3,1.3c0.2,0.3,0.4,0.5,0.7,0.7c0.2,0.1,0.5,0.2,0.7,0.2c0.3,0.1,0.7,0.1,1,0.2
	c0.4,0.1,0.9,0,1.4,0c0.3-0.1,0.7-0.2,0.9-0.4c0.3-0.3,0.5-0.7,0.6-1.1c0.2-1,0.3-2.1,0.4-3.2c0.2-2.1,0.4-4.1,0.6-6.2
	c0.1-2.2,0.2-4.3,0.2-6.5c0-2.1,0-4.2-0.1-6.3c0-1-0.1-2-0.2-3s-0.3-1.9-0.5-2.9c-0.4-1.4-0.9-2.7-1.5-4.1c-0.1-0.2-0.4-0.4-0.6-0.5
	c-0.1,0-0.2,0-0.3,0C106.9,341.4,106.8,341.4,106.6,341.5L106.6,341.5z M106.8,344.1C106.8,344.1,106.8,344.2,106.8,344.1
	C106.8,344.2,106.8,344.1,106.8,344.1L106.8,344.1z M107.9,347.9v0.1C107.9,348,107.9,348,107.9,347.9L107.9,347.9z M107.2,373.5
	L107.2,373.5C107.2,373.6,107.2,373.6,107.2,373.5C107.2,373.6,107.2,373.6,107.2,373.5L107.2,373.5L107.2,373.5z"/>
<path class="st1" d="M106.6,342.6c0,0.5,0.5,1,1,1s1-0.5,1-1s-0.5-1-1-1S106.6,342,106.6,342.6L106.6,342.6z"/>
</svg>
