<?xml version="1.0" encoding="utf-8"?>
<!-- Generator: Adobe Illustrator 20.1.0, SVG Export Plug-In . SVG Version: 6.00 Build 0)  -->
<svg version="1.1" id="Layer_3" xmlns="http://www.w3.org/2000/svg" xmlns:xlink="http://www.w3.org/1999/xlink" x="0px" y="0px"
	 viewBox="0 0 79.6 31.8" style="enable-background:new 0 0 79.6 31.8;" xml:space="preserve">
<path d="M13.8,13.7c-0.2,0.1-0.4,0.2-0.5,0.4c-0.9,1.2-1.7,2.4-2.6,3.6c0-0.1,0.1-0.1,0.1-0.2c-0.9,1.1-1.7,2.1-2.6,3.2
	c-0.2,0.2-0.4,0.4-0.5,0.6c-0.3,0.4-0.7,0.8-1,1.1c-0.3,0.3-0.6,0.7-0.9,1c-0.5,0.5-1,1-1.5,1.5l0,0c-0.2-0.1-0.4-0.1-0.6-0.1
	c-0.2,0.1-0.3,0.2-0.5,0.4c-0.3,0.4-0.5,0.8-0.7,1.2c-0.2,0.3-0.1,0.7,0.1,0.9c0.2,0.2,0.7,0.3,0.9,0.1C4.1,27,4.7,26.5,5.3,26
	c0.5-0.5,1.1-1,1.6-1.5s1-1.1,1.5-1.6c0.3-0.4,0.7-0.7,1-1.1c0.4-0.5,0.9-1,1.3-1.5c0.7-0.8,1.3-1.6,1.9-2.4
	c0.3-0.4,0.6-0.8,0.9-1.2c0.4-0.6,0.8-1.1,1.1-1.7c0.2-0.4,0.1-0.9-0.3-1.1C14.2,13.8,14,13.8,13.8,13.7
	C13.9,13.7,13.8,13.7,13.8,13.7L13.8,13.7z"/>
<path d="M1,0C0.7,0,0.5,0.1,0.3,0.3S0,0.7,0,1s0.1,0.5,0.3,0.7S0.8,2,1,2s0.4,0,0.6-0.1c0.2,0,0.5,0,0.7,0c0.4,0,0.7,0,1.1,0.1
	C3.7,2.1,4,2.1,4.3,2.3c0.6,0.3,1.2,0.6,1.7,1C6.6,3.8,7.2,4.4,7.7,5c0.8,1.1,1.5,2.3,2.2,3.6c0.8,1.3,1.4,2.7,2,4.1
	c0.6,1.2,1.1,2.4,1.6,3.6c0.4,1,0.9,1.9,1.3,2.9c0.4,1,0.9,1.9,1.4,2.9c0.7,1.3,1.3,2.7,2,4c0.4,0.7,0.7,1.4,1.1,2.1
	c0.2,0.4,0.5,0.8,0.7,1.2c0.2,0.4,0.4,0.7,0.6,1c0.2,0.2,0.3,0.5,0.5,0.7s0.5,0.4,0.7,0.6c0.3,0.2,0.8,0.1,1.1-0.1
	c0.3-0.3,0.3-0.9,0-1.2c-0.1-0.1-0.2-0.2-0.3-0.3c-0.3-0.5-0.6-1-0.9-1.6c-0.1-0.3-0.3-0.5-0.4-0.8c-0.2-0.4-0.5-0.9-0.7-1.3
	c-0.6-1.1-1.1-2.1-1.7-3.2c-1-1.9-1.9-3.9-2.8-5.8c-1-2.2-2-4.5-3.1-6.7c-0.3-0.7-0.6-1.3-1-2c-0.3-0.6-0.7-1.3-1.1-1.9
	c-0.7-1.2-1.5-2.4-2.4-3.5c-0.4-0.5-1-1-1.5-1.4C6.4,1.5,5.8,1.1,5.2,0.7c-0.3-0.2-0.7-0.3-1-0.4C3.8,0.2,3.5,0.1,3.1,0.1S2.4,0,2,0
	C1.8-0.1,1.4-0.1,1,0L1,0z M3.2,2C3.2,2,3.3,2,3.2,2C3.3,2,3.2,2,3.2,2L3.2,2z M7.6,4.9L7.6,4.9L7.6,4.9L7.6,4.9z"/>
<path d="M34.4,7.5c-0.6,0-1.1,0-1.7,0c-0.5,0-1,0.4-1,1c0,0.5,0.5,1,1,1c1.7,0,3.4,0,5.1,0c1.1,0,2.1,0,3.2,0c2.3,0,4.6,0.1,6.9,0.1
	c0.4,0,0.8,0,1.2,0c0.5,0,1-0.4,1-1c0-0.5-0.4-0.9-1-0.9c-2.5-0.2-5-0.2-7.5-0.2c-0.6,0-1.2,0-1.8,0C38,7.5,36.2,7.5,34.4,7.5
	L34.4,7.5z"/>
<path d="M52.6,16.4c-2,0.1-3.9,0.2-5.9,0.5c-1.2,0.1-2.4,0.2-3.6,0.4c-1.4,0.2-2.7,0.4-4,0.8s-2.6,0.9-3.7,1.5
	c-0.5,0.3-0.6,0.9-0.4,1.4c0.3,0.5,0.9,0.6,1.4,0.4c0.3-0.2,0.6-0.3,0.9-0.5c1-0.4,2.1-0.8,3.2-1.1c1.1-0.3,2.2-0.4,3.3-0.5
	c1.4-0.2,2.7-0.3,4.1-0.4c1.6-0.1,3.1-0.3,4.7-0.4c0.3,0,0.5-0.1,0.7-0.3c0.2-0.2,0.3-0.4,0.3-0.7C53.6,16.9,53.1,16.4,52.6,16.4
	L52.6,16.4L52.6,16.4z"/>
<path d="M38.6,0c-0.2,0.1-0.4,0.4-0.5,0.6C38,1,38,1.3,37.9,1.7c0,0.4-0.1,0.8-0.1,1.1c0,0.8,0,1.7,0,2.5c0.1,1.6,0.3,3.3,0.6,4.9
	c0.3,1.7,0.7,3.5,1.1,5.2c0.3,1.2,0.6,2.4,0.8,3.7c0.3,1.1,0.6,2.3,0.8,3.4c0.1,0.4,0.2,0.8,0.3,1.2c0.1,0.5,0.3,1,0.4,1.5
	c0.2,0.6,0.3,1.1,0.5,1.6c0.1,0.3,0.2,0.7,0.4,1c0.1,0.3,0.3,0.7,0.4,1c0.1,0.2,0.2,0.3,0.3,0.4s0.3,0.3,0.4,0.3
	c0.2,0.1,0.3,0.2,0.5,0.2s0.4,0,0.6,0.1c0.4,0,0.8-0.3,0.9-0.7c0.1-0.2,0-0.5-0.1-0.7S45.4,28,45.1,28c-0.1,0-0.2,0-0.3,0
	c0-0.1-0.1-0.1-0.1-0.2c-0.5-1.3-0.8-2.6-1.2-3.9c-0.3-1.1-0.6-2.2-0.9-3.3c-0.2-0.9-0.5-1.9-0.7-2.8c-0.3-1.4-0.6-2.8-1-4.3
	c-0.1-0.6-0.2-1.2-0.4-1.7c-0.3-1.3-0.5-2.6-0.7-3.9V8c-0.1-1.1-0.2-2.2-0.3-3.3c0-1,0-2.1,0.1-3.2c0-0.2,0.1-0.3,0.1-0.5
	c0-0.3,0-0.5-0.1-0.8C39.5,0,39.3-0.2,39-0.3c-0.1,0-0.2,0-0.3,0C39-0.1,38.8-0.1,38.6,0L38.6,0z"/>
<path d="M67.4-0.1c-0.3,0-0.6,0.1-0.9,0.3c-0.1,0.1-0.2,0.1-0.3,0.2c-0.1,0.1-0.3,0.2-0.3,0.4c-0.1,0.1-0.1,0.2-0.2,0.4
	c0,0.1,0,0.3-0.1,0.4l0,0c0,0.1,0,0.2,0,0.3c-0.9,0.6-1.7,1.5-2.3,2.4C62.5,5.5,62,7,61.7,8.5c-0.1,0.8-0.2,1.5-0.2,2.3
	s0.2,1.5,0.4,2.3c0.2,0.6,0.5,1.3,0.9,1.8c0.5,0.6,1,1.1,1.6,1.5s1.2,0.7,1.8,0.9c0.7,0.3,1.5,0.4,2.3,0.5c1.5,0.1,3.1,0,4.6-0.5
	c1.5-0.4,2.8-1.3,4-2.2c0.4-0.3,0.8-0.7,1.1-1.1c0.3-0.4,0.7-0.9,0.9-1.4c0.5-1,0.5-2.1,0.4-3.1c-0.1-1.1-0.4-2.1-0.8-3.1
	c-0.4-0.9-1.2-1.7-1.9-2.4c-0.4-0.4-0.8-0.7-1.2-1c-0.4-0.3-0.9-0.5-1.3-0.7c-1-0.5-2-0.9-3.1-1.3c-0.5-0.2-1.1-0.3-1.6-0.5
	c-0.5-0.1-1.1-0.2-1.6-0.3C67.9-0.1,67.7-0.1,67.4-0.1L67.4-0.1L67.4-0.1z M70.5,3.6c0.2-0.1,0.5-0.2,0.6-0.5
	c0.1-0.1,0.1-0.2,0.1-0.4c0.3,0.1,0.7,0.3,1,0.4c1,0.4,2,0.9,2.8,1.5c0.6,0.5,1.1,0.9,1.5,1.5c0.3,0.4,0.5,0.7,0.7,1.1
	c0.2,0.6,0.4,1.2,0.5,1.8c0.1,0.5,0.1,1.1,0,1.6c0,0.3-0.1,0.5-0.2,0.8s-0.3,0.5-0.5,0.8c-0.4,0.5-0.8,0.9-1.3,1.3
	c-0.7,0.5-1.4,1-2.2,1.3c-0.8,0.3-1.6,0.5-2.4,0.6c-0.9,0.1-1.9,0.1-2.8,0c-0.5-0.1-1.1-0.2-1.6-0.4s-1-0.5-1.4-0.8
	c-0.3-0.2-0.5-0.4-0.7-0.7s-0.4-0.7-0.6-1c-0.2-0.5-0.3-0.9-0.4-1.4c-0.1-0.6,0-1.3,0-1.9c0.1-1,0.4-1.9,0.8-2.9
	c0.3-0.6,0.6-1.2,1-1.8c0.3-0.4,0.6-0.7,1-1c0.2-0.2,0.4-0.3,0.7-0.4C67.4,3,67.7,2.9,68,2.9c0.1,0,0.3,0,0.4,0
	c0.3,0.1,0.7,0.2,1,0.3c0.1,0,0.2,0.1,0.3,0.1c0.2,0.3,0.3,0.3,0.5,0.3C70.3,3.6,70.4,3.6,70.5,3.6L70.5,3.6z"/>
</svg>
