<?xml version="1.0" encoding="utf-8"?>
<!-- Generator: Adobe Illustrator 20.1.0, SVG Export Plug-In . SVG Version: 6.00 Build 0)  -->
<svg version="1.1" id="Layer_1" xmlns="http://www.w3.org/2000/svg" xmlns:xlink="http://www.w3.org/1999/xlink" x="0px" y="0px"
	 viewBox="0 0 62.8 79.9" style="enable-background:new 0 0 62.8 79.9;" xml:space="preserve">
<style type="text/css">
	.st0{fill:#010101;}
</style>
<path class="st0" d="M3.3,5.4C3,5.5,2.7,5.7,2.4,5.9C2.3,6,2.2,6.2,2,6.3C1.9,6.4,1.8,6.6,1.7,6.7C1.5,7.1,1.3,7.5,1.2,7.9
	C1,8.6,0.8,9.3,0.7,10.1c-0.1,0.7-0.2,1.4-0.3,2S0.3,13.4,0.3,14c0,0.5-0.1,0.9-0.1,1.4c0,0.6,0,1.2-0.1,1.8c0,1.1-0.1,2.1-0.1,3.1
	c0,2.2,0,4.4,0,6.5c0.1,4.5,0.1,9.1,0.1,13.6c0,4.3,0.1,8.5,0.2,12.8c0.1,2.3,0.2,4.6,0.3,6.9c0.1,2.1,0.2,4.2,0.2,6.3
	c0,1.1,0,2.2,0.1,3.2C1,70.7,1,71.9,1.1,73c0.1,1.2,0.3,2.4,0.4,3.5c0,0.2,0.1,0.5,0.1,0.7s0.1,0.4,0.1,0.7c0,0.2,0.1,0.3,0.2,0.5
	C2,78.6,2.1,78.8,2.3,79c0.3,0.3,0.6,0.4,1,0.6c0.3,0.1,0.7,0.1,1,0.2c0.5,0.1,1,0.1,1.6,0.1c1.1,0,2.2,0,3.3-0.1
	c0.6,0,1.2-0.1,1.8-0.1c0.5,0,1.1-0.1,1.6-0.2c0.8-0.1,1.4-0.5,2.1-0.8c0.1-0.1,0.3-0.2,0.3-0.3c0.1-0.2,0.2-0.5,0.1-0.7
	c-0.1-0.2-0.2-0.4-0.4-0.6C14.5,77,14.2,76.9,14,77c-0.3,0.1-0.6,0.3-1,0.4c-0.3,0.1-0.7,0.2-1,0.2c-1.1,0.1-2.3,0.2-3.4,0.2
	c-0.6,0-1.1,0-1.6,0.1c-0.8,0-1.7,0-2.5-0.1c-0.2,0-0.4-0.1-0.6-0.1c0,0,0,0-0.1,0l0,0c-0.2-0.7-0.3-1.5-0.4-2.3
	c-0.2-2.1-0.4-4.1-0.5-6.2c-0.1-2.3-0.1-4.6-0.2-6.8c-0.1-2.2-0.2-4.4-0.3-6.5c-0.1-2.2-0.1-4.4-0.2-6.6c-0.1-4.3-0.1-8.7-0.1-13
	c0-4.5-0.1-9-0.2-13.5c0-1.8,0-3.6,0.1-5.4c0-0.9,0-1.7,0.1-2.6c0.1-1.3,0.2-2.7,0.3-4c0.1-0.4,0.1-0.9,0.2-1.3C2.7,9,2.8,8.5,3,8.1
	c0.1-0.2,0.2-0.4,0.3-0.6c0-0.1,0.1-0.1,0.1-0.1l0.1-0.1l0,0c0.1,0,0.3,0,0.4,0C5.3,7.5,6.6,7.8,8,8c1.5,0.3,3.1,0.5,4.6,0.8
	c0.2,0,0.4,0,0.6-0.1c0.2-0.1,0.3-0.3,0.3-0.5c0.1-0.4-0.1-0.9-0.5-0.9C10.7,6.9,8.3,6.5,6.1,6C5.8,5.9,5.6,5.9,5.3,5.8
	C4.9,5.7,4.4,5.6,4,5.5c-0.2,0-0.4,0-0.5-0.1l0,0C3.6,5.3,3.5,5.4,3.3,5.4L3.3,5.4z M4.1,7.1H4C4,7.1,4,7.1,4.1,7.1L4.1,7.1z
	 M2.6,10.8C2.6,10.9,2.6,10.9,2.6,10.8C2.6,10.9,2.6,10.9,2.6,10.8L2.6,10.8z M4,77.6c0,0,0,0.1,0.1,0.1C4,77.7,4,77.6,4,77.6
	L4,77.6z M4.1,77.8L4.1,77.8L4.1,77.8L4.1,77.8z"/>
<path class="st0" d="M26.4,12.2c-0.3,0.1-0.4,0.2-0.6,0.4c-2,2.6-3.9,5.2-5.8,7.9c-0.2,0.2-0.2,0.5-0.1,0.8c0.1,0.2,0.2,0.5,0.5,0.6
	c0.2,0.1,0.5,0.2,0.8,0.1s0.4-0.2,0.6-0.5c1.9-2.6,3.9-5.2,5.7-7.9c0.3-0.4,0.1-1-0.3-1.3c-0.1-0.1-0.3-0.1-0.5-0.1
	C26.6,12.1,26.5,12.1,26.4,12.2L26.4,12.2z"/>
<path class="st0" d="M22.2,6.5c-0.5,0.3-0.6,0.9-0.4,1.4c1.3,2.3,2.7,4.6,4,7c1.1,2,2.2,4,3.4,5.9c0.1,0.1,0.2,0.3,0.2,0.4
	c0.1,0.2,0.2,0.3,0.4,0.5s0.3,0.4,0.5,0.6c0.3,0.3,0.7,0.3,1.1,0.1c0.2-0.1,0.3-0.3,0.4-0.5c0.1-0.2,0-0.5-0.1-0.7
	c-0.5-0.7-0.8-1.4-1.2-2.1c-0.2-0.5-0.5-0.9-0.8-1.4c-0.5-0.9-1-1.8-1.5-2.7c-1.1-2-2.3-4-3.4-6c-0.4-0.7-0.8-1.4-1.2-2.1
	c-0.2-0.3-0.5-0.5-0.9-0.5C22.6,6.4,22.4,6.4,22.2,6.5L22.2,6.5z"/>
<path class="st0" d="M39,7.5c-0.4,0.3-0.7,0.9-0.4,1.4c1,1.5,2,3,3,4.4c0.9,1.3,1.8,2.6,2.7,3.9c0.1,0.2,0.3,0.3,0.5,0.4
	s0.5,0,0.7-0.1c0.4-0.2,0.5-0.8,0.3-1.2c-0.7-1.4-1.6-2.7-2.5-3.9c-1-1.5-2-3-3.1-4.5c-0.1-0.2-0.3-0.4-0.6-0.5c-0.1,0-0.2,0-0.3,0
	C39.3,7.4,39.1,7.4,39,7.5L39,7.5z"/>
<path class="st0" d="M47.6,5.2C47,6,46.4,6.7,45.8,7.4c0.1-0.1,0.1-0.1,0.2-0.2c-1.3,1.6-2.5,3.2-3.8,4.9c-0.6,0.8-1.2,1.6-1.9,2.5
	c-0.3,0.4-0.6,0.7-0.8,1.1c-0.2,0.3-0.4,0.5-0.6,0.8c-0.2,0.3-0.4,0.7-0.7,1.1c-0.2,0.4-0.1,1,0.3,1.2c0.2,0.1,0.5,0.2,0.7,0.1
	s0.4-0.2,0.5-0.4c1.5-2.1,3.1-4.2,4.7-6.3c0,0,0,0.1-0.1,0.1c1-1.3,2-2.6,3-3.9l-0.1,0.1c0.5-0.7,1-1.3,1.5-2
	C48.9,6.3,49,6.1,49,5.8c0-0.3-0.1-0.5-0.3-0.7S48.3,4.8,48,4.8C48,4.9,47.7,5,47.6,5.2L47.6,5.2z"/>
<path class="st0" d="M24.2,38.8c-0.1,0.5-0.3,0.9-0.5,1.4c-0.1,0.3-0.2,0.6-0.3,0.9c-0.1,0.5-0.3,1-0.4,1.4
	c-0.2,0.9-0.4,1.7-0.5,2.6c0,0.2,0.1,0.5,0.3,0.7s0.4,0.3,0.7,0.3s0.5-0.1,0.7-0.3s0.3-0.4,0.3-0.7c0-0.1,0-0.2,0-0.3
	c0.1-0.7,0.3-1.4,0.5-2.1c0.1-0.4,0.3-0.8,0.4-1.3c0.1-0.3,0.2-0.5,0.2-0.8c0-0.1,0.1-0.3,0.1-0.4c0.1-0.4,0.2-0.8,0.2-1.2
	s-0.3-0.8-0.7-0.9c-0.1,0-0.2,0-0.2,0C24.7,38.2,24.3,38.4,24.2,38.8L24.2,38.8z"/>
<path class="st0" d="M21.7,30.7c-0.2,0.2-0.3,0.4-0.3,0.7c0,0.3,0.1,0.5,0.3,0.7c1.3,1.6,2.5,3.2,3.8,4.7c1.6,2.1,3.1,4.2,4.5,6.4
	c0.3,0.4,0.8,0.6,1.3,0.3c0.4-0.3,0.6-0.8,0.3-1.3c-0.2-0.4-0.4-0.8-0.7-1.1c-0.2-0.3-0.4-0.6-0.6-0.9c-0.2-0.4-0.5-0.7-0.8-1.1
	c-0.6-0.9-1.3-1.7-1.9-2.6c-0.6-0.8-1.2-1.6-1.8-2.3c-0.9-1.2-1.9-2.4-2.8-3.5c-0.2-0.2-0.5-0.3-0.7-0.3
	C22.1,30.4,21.9,30.5,21.7,30.7L21.7,30.7z M25.5,36.9l0.1,0.1L25.5,36.9L25.5,36.9z"/>
<path class="st0" d="M48.2,30.6c-0.5,0.4-0.7,1.2-0.8,1.8c-0.1,0.3-0.1,0.7-0.2,1c-0.3,0.5-0.7,1-1.1,1.5c-0.3,0.4-0.6,0.7-0.9,1.1
	c-0.3,0.4-0.7,0.7-1.1,1.1c-0.2,0.1-0.4,0.3-0.6,0.4h-0.1l0,0c-0.1,0-0.1,0-0.2,0c-0.4-0.7-0.8-1.4-1.2-2.1
	c-0.3-0.5-0.9-0.6-1.4-0.4c-0.5,0.3-0.6,0.9-0.4,1.4c0.2,0.3,0.3,0.6,0.5,1c0.1,0.1,0.1,0.3,0.2,0.4c0.2,0.4,0.4,0.7,0.7,1
	c0.2,0.3,0.5,0.5,0.9,0.6s0.8,0.2,1.3,0.1c0.8-0.2,1.4-0.7,1.9-1.2c0.4-0.3,0.7-0.7,1-1c0,0.6-0.1,1.3-0.1,2
	c-0.1,1.2-0.1,2.4-0.1,3.5s-0.1,2.3-0.2,3.4c-0.8,0.3-1.7,0.5-2.4,1c-0.6,0.4-1.1,0.8-1.6,1.3c-0.5,0.6-0.9,1.3-1.1,2
	c-0.2,0.7-0.1,1.5,0.3,2.1c0.2,0.3,0.5,0.5,0.8,0.7c0.4,0.2,0.8,0.2,1.3,0.3c0.7,0.1,1.4-0.1,2-0.4c0.2-0.1,0.3-0.2,0.5-0.3
	c0.1-0.1,0.2-0.2,0.4-0.4c0.3-0.3,0.5-0.7,0.7-1.1c0.6-1.4,1-2.8,1.2-4.3c0-0.1,0-0.1,0-0.2c0.1-0.9,0.2-1.8,0.2-2.7
	c0.1-1,0.1-2.1,0.1-3.1c0.1-2.3,0.2-4.6,0.5-6.9c0.3-0.5,0.5-1,0.7-1.6c0.1-0.3,0.2-0.7,0.2-1c0-0.2-0.1-0.5-0.1-0.6
	c-0.1-0.2-0.3-0.3-0.5-0.5c-0.2-0.1-0.3-0.1-0.5-0.1C48.6,30.3,48.4,30.4,48.2,30.6L48.2,30.6z M44.2,37
	C44.2,37.1,44.2,37.1,44.2,37C44.2,37.1,44.2,37.1,44.2,37L44.2,37z M43.2,37.4L43.2,37.4C43.2,37.5,43.2,37.5,43.2,37.4
	C43.2,37.5,43.2,37.5,43.2,37.4L43.2,37.4L43.2,37.4z M43.6,37.5L43.6,37.5L43.6,37.5L43.6,37.5z M43.3,37.5
	C43.3,37.5,43.4,37.5,43.3,37.5C43.4,37.5,43.4,37.5,43.3,37.5C43.4,37.5,43.3,37.5,43.3,37.5L43.3,37.5z M43.3,37.5L43.3,37.5
	L43.3,37.5L43.3,37.5z M43.4,37.5L43.4,37.5L43.4,37.5L43.4,37.5L43.4,37.5z M46,48.3c-0.2,0.8-0.4,1.6-0.8,2.3
	c-0.1,0.1-0.1,0.3-0.2,0.4c-0.1,0.1-0.2,0.2-0.3,0.3c-0.1,0-0.1,0.1-0.2,0.1c-0.1,0-0.3,0.1-0.4,0.1c-0.2,0-0.4,0-0.6,0
	c-0.1,0-0.2,0-0.4-0.1l0,0v-0.1c0-0.1,0-0.1,0-0.2c0-0.1,0.1-0.3,0.1-0.4c0.1-0.3,0.3-0.5,0.4-0.7c0.3-0.3,0.6-0.6,0.9-0.9
	c0.4-0.3,0.8-0.5,1.2-0.7C45.8,48.4,45.9,48.4,46,48.3L46,48.3z M44.4,49.2L44.4,49.2L44.4,49.2L44.4,49.2z M43,51.4
	C43,51.4,43.1,51.5,43,51.4C43.1,51.5,43.1,51.5,43,51.4C43.1,51.5,43,51.4,43,51.4L43,51.4z"/>
<path class="st0" d="M31.7,65.8c-0.7,0.5-1.3,0.9-2,1.4c-0.5,0.3-1,0.7-1.5,1c-0.8,0.5-1.7,0.9-2.6,1.3c-0.2,0.1-0.4,0.4-0.5,0.6
	c-0.1,0.3,0,0.5,0.1,0.8c0.1,0.2,0.3,0.4,0.6,0.5s0.5,0,0.8-0.1c0.8-0.4,1.6-0.8,2.4-1.2c0.6-0.3,1.1-0.7,1.6-1.1
	c0.3-0.2,0.6-0.4,0.9-0.7c0.4-0.3,0.8-0.7,1.2-1c0.3-0.3,0.3-0.8,0.1-1.1c-0.2-0.3-0.5-0.5-0.8-0.5C32,65.7,31.8,65.7,31.7,65.8
	L31.7,65.8z"/>
<path class="st0" d="M27.2,58.2c-0.4,0.4-0.4,1,0,1.4c1.6,1.7,3.2,3.4,4.8,5.1c1.5,1.6,3.1,3.3,4.5,5c0.4,0.4,1,0.4,1.4,0
	c0.2-0.2,0.3-0.4,0.3-0.7c0-0.3-0.1-0.5-0.3-0.7c-3-3.5-6.2-6.8-9.4-10.1c-0.2-0.2-0.4-0.3-0.7-0.3C27.6,57.9,27.4,58,27.2,58.2
	L27.2,58.2z"/>
<path class="st0" d="M60.6,1.7c0,1.6,0,3.1,0,4.6c0,1.1,0,2.2,0,3.4c0,2.2-0.1,4.3-0.2,6.5c-0.1,2.2-0.1,4.4-0.1,6.6
	s-0.1,4.4-0.2,6.6c-0.1,2.2-0.2,4.4-0.3,6.7c-0.1,2-0.1,4-0.2,6c-0.2,4.5-0.3,9-0.3,13.5c0,2.1-0.1,4.2-0.2,6.3
	c-0.1,2.3-0.1,4.5-0.2,6.8c0,1.1,0,2.2-0.1,3.3c0,1.1,0,2.1-0.1,3.2c-0.1,0.6-0.2,1.2-0.4,1.8c0,0.1-0.1,0.2-0.1,0.3
	c-0.1,0-0.1,0.1-0.2,0.1c-0.6,0.2-1.2,0.4-1.8,0.5c-0.4,0-0.9,0-1.3,0c-0.1,0-0.2,0-0.3-0.1c-0.5-0.1-1,0.2-1.2,0.7
	c-0.1,0.2,0,0.5,0.1,0.7s0.3,0.3,0.6,0.4c0.6,0.2,1.3,0.3,1.9,0.3c0.4,0,0.8-0.1,1.2-0.1c0.3-0.1,0.6-0.1,0.8-0.2s0.4-0.1,0.7-0.2
	c0.4-0.2,0.8-0.4,1.1-0.7c0.3-0.4,0.5-0.8,0.7-1.3c0.1-0.2,0.2-0.5,0.2-0.8c0.1-0.6,0.2-1.1,0.3-1.7c0.1-1,0.1-2.1,0.1-3.1
	c0-1.1,0-2.1,0-3.2c0-2.3,0.1-4.5,0.2-6.8c0.1-2.1,0.1-4.2,0.2-6.3c0.1-4.5,0.1-9,0.3-13.5c0.1-2,0.1-4,0.2-6
	c0.1-2.2,0.2-4.4,0.3-6.7c0.1-2.2,0.2-4.4,0.2-6.6s0.1-4.4,0.1-6.6c0.1-2.2,0.1-4.3,0.2-6.5c0-1.1,0-2.2,0-3.4c0-1.6,0-3.1,0-4.6
	c0-0.5-0.4-1-1-1C61,0.7,60.6,1.2,60.6,1.7L60.6,1.7z"/>
<path class="st0" d="M61.2,0c-1.5,0.1-3,0.2-4.5,0.2c-0.8,0-1.7,0.1-2.5,0.1c-0.2-0.1-0.4-0.2-0.6-0.2c-0.2,0-0.3,0-0.5,0
	c-0.1,0-0.3,0-0.4,0.1c-0.1,0.1-0.3,0.1-0.4,0.2c-0.4,0.2-0.6,0.7-0.5,1.1c0.1,0.5,0.5,0.7,1,0.7c1.3,0.1,2.6,0,3.9,0
	c1.5-0.1,3-0.1,4.5-0.2c0.5,0,1-0.4,1-1C62.2,0.5,61.8,0,61.2,0L61.2,0L61.2,0z"/>
</svg>
