<?xml version="1.0" encoding="utf-8"?>
<!-- Generator: Adobe Illustrator 20.0.0, SVG Export Plug-In . SVG Version: 6.00 Build 0)  -->
<svg version="1.1" id="Layer_3" xmlns="http://www.w3.org/2000/svg" xmlns:xlink="http://www.w3.org/1999/xlink" x="0px" y="0px"
	 viewBox="0 0 232.5 80" style="enable-background:new 0 0 232.5 80;" xml:space="preserve">
<path d="M174,5.4c-0.3,0.1-0.6,0.3-0.9,0.5c-0.1,0.1-0.2,0.3-0.4,0.4c-0.1,0.1-0.2,0.3-0.3,0.4c-0.2,0.4-0.4,0.8-0.5,1.2
	c-0.2,0.7-0.4,1.4-0.5,2.2c-0.1,0.7-0.2,1.4-0.3,2c-0.1,0.6-0.1,1.3-0.1,1.9c0,0.5-0.1,0.9-0.1,1.4c0,0.6,0,1.2-0.1,1.8
	c0,1.1-0.1,2.1-0.1,3.1c0,2.2,0,4.4,0,6.5c0.1,4.5,0.1,9.1,0.1,13.6c0,4.3,0.1,8.5,0.2,12.8c0.1,2.3,0.2,4.6,0.3,6.9
	c0.1,2.1,0.2,4.2,0.2,6.3c0,1.1,0,2.2,0.1,3.2c0.1,1.1,0.1,2.3,0.2,3.4c0.1,1.2,0.3,2.4,0.4,3.5c0,0.2,0.1,0.5,0.1,0.7
	c0,0.2,0.1,0.4,0.1,0.7c0,0.2,0.1,0.3,0.2,0.5c0.1,0.2,0.2,0.4,0.4,0.6c0.3,0.3,0.6,0.4,1,0.6c0.3,0.1,0.7,0.1,1,0.2
	c0.5,0.1,1,0.1,1.6,0.1c1.1,0,2.2,0,3.3-0.1c0.6,0,1.2-0.1,1.8-0.1c0.5,0,1.1-0.1,1.6-0.2c0.8-0.1,1.4-0.5,2.1-0.8
	c0.1-0.1,0.3-0.2,0.3-0.3c0.1-0.2,0.2-0.5,0.1-0.7c-0.1-0.2-0.2-0.4-0.4-0.6c-0.2-0.1-0.5-0.2-0.7-0.1c-0.3,0.1-0.6,0.3-1,0.4
	c-0.3,0.1-0.7,0.2-1,0.2c-1.1,0.1-2.3,0.2-3.4,0.2c-0.6,0-1.1,0-1.6,0.1c-0.8,0-1.7,0-2.5-0.1c-0.2,0-0.4-0.1-0.6-0.1c0,0,0,0-0.1,0
	c0,0,0,0,0,0c-0.2-0.7-0.3-1.5-0.4-2.3c-0.2-2.1-0.4-4.1-0.5-6.2c-0.1-2.3-0.1-4.6-0.2-6.8c-0.1-2.2-0.2-4.4-0.3-6.5
	c-0.1-2.2-0.1-4.4-0.2-6.6c-0.1-4.3-0.1-8.7-0.1-13c0-4.5-0.1-9-0.2-13.5c0-1.8,0-3.6,0.1-5.4c0-0.9,0-1.7,0.1-2.6
	c0.1-1.3,0.2-2.7,0.3-4c0.1-0.4,0.1-0.9,0.2-1.3c0.1-0.5,0.2-1,0.4-1.4c0.1-0.2,0.2-0.4,0.3-0.6c0-0.1,0.1-0.1,0.1-0.1
	c0,0,0.1-0.1,0.1-0.1c0,0,0,0,0,0c0.1,0,0.3,0,0.4,0c1.4,0.2,2.7,0.5,4.1,0.7c1.5,0.3,3.1,0.5,4.6,0.8c0.2,0,0.4,0,0.6-0.1
	c0.2-0.1,0.3-0.3,0.3-0.5c0.1-0.4-0.1-0.9-0.5-0.9c-2.3-0.4-4.7-0.8-6.9-1.3c-0.3-0.1-0.5-0.1-0.8-0.2c-0.4-0.1-0.9-0.2-1.3-0.3
	c-0.2,0-0.4,0-0.5-0.1c0,0,0,0,0,0C174.3,5.3,174.2,5.4,174,5.4L174,5.4z M174.8,7.1c0,0-0.1,0-0.1,0C174.7,7.1,174.7,7.1,174.8,7.1
	L174.8,7.1z M173.3,10.8C173.3,10.9,173.3,10.9,173.3,10.8C173.3,10.9,173.3,10.9,173.3,10.8L173.3,10.8z M174.7,77.6
	c0,0,0,0.1,0.1,0.1C174.7,77.7,174.7,77.6,174.7,77.6L174.7,77.6z M174.8,77.8C174.8,77.8,174.8,77.8,174.8,77.8
	C174.8,77.8,174.8,77.8,174.8,77.8L174.8,77.8z"/>
<path d="M197.1,12.2c-0.3,0.1-0.4,0.2-0.6,0.4c-2,2.6-3.9,5.2-5.8,7.9c-0.2,0.2-0.2,0.5-0.1,0.8c0.1,0.2,0.2,0.5,0.5,0.6
	c0.2,0.1,0.5,0.2,0.8,0.1c0.3-0.1,0.4-0.2,0.6-0.5c1.9-2.6,3.9-5.2,5.7-7.9c0.3-0.4,0.1-1-0.3-1.3c-0.1-0.1-0.3-0.1-0.5-0.1
	C197.3,12.1,197.2,12.1,197.1,12.2L197.1,12.2z"/>
<path d="M192.9,6.5c-0.5,0.3-0.6,0.9-0.4,1.4c1.3,2.3,2.7,4.6,4,7c1.1,2,2.2,4,3.4,5.9c0.1,0.1,0.2,0.3,0.2,0.4
	c0.1,0.2,0.2,0.3,0.4,0.5c0.2,0.2,0.3,0.4,0.5,0.6c0.3,0.3,0.7,0.3,1.1,0.1c0.2-0.1,0.3-0.3,0.4-0.5c0.1-0.2,0-0.5-0.1-0.7
	c-0.5-0.7-0.8-1.4-1.2-2.1c-0.2-0.5-0.5-0.9-0.8-1.4c-0.5-0.9-1-1.8-1.5-2.7c-1.1-2-2.3-4-3.4-6c-0.4-0.7-0.8-1.4-1.2-2.1
	c-0.2-0.3-0.5-0.5-0.9-0.5C193.3,6.4,193.1,6.4,192.9,6.5L192.9,6.5z"/>
<path d="M209.7,7.5c-0.4,0.3-0.7,0.9-0.4,1.4c1,1.5,2,3,3,4.4c0.9,1.3,1.8,2.6,2.7,3.9c0.1,0.2,0.3,0.3,0.5,0.4
	c0.2,0.1,0.5,0,0.7-0.1c0.4-0.2,0.5-0.8,0.3-1.2c-0.7-1.4-1.6-2.7-2.5-3.9c-1-1.5-2-3-3.1-4.5c-0.1-0.2-0.3-0.4-0.6-0.5
	c-0.1,0-0.2,0-0.3,0C210,7.4,209.8,7.4,209.7,7.5L209.7,7.5z"/>
<path d="M218.3,5.2c-0.6,0.8-1.2,1.5-1.8,2.2c0.1-0.1,0.1-0.1,0.2-0.2c-1.3,1.6-2.5,3.2-3.8,4.9c-0.6,0.8-1.2,1.6-1.9,2.5
	c-0.3,0.4-0.6,0.7-0.8,1.1c-0.2,0.3-0.4,0.5-0.6,0.8c-0.2,0.3-0.4,0.7-0.7,1.1c-0.2,0.4-0.1,1,0.3,1.2c0.2,0.1,0.5,0.2,0.7,0.1
	c0.2-0.1,0.4-0.2,0.5-0.4c1.5-2.1,3.1-4.2,4.7-6.3c0,0,0,0.1-0.1,0.1c1-1.3,2-2.6,3-3.9c0,0-0.1,0.1-0.1,0.1c0.5-0.7,1-1.3,1.5-2
	c0.2-0.2,0.3-0.4,0.3-0.7c0-0.3-0.1-0.5-0.3-0.7s-0.4-0.3-0.7-0.3C218.7,4.9,218.4,5,218.3,5.2L218.3,5.2z"/>
<path d="M194.9,38.8c-0.1,0.5-0.3,0.9-0.5,1.4c-0.1,0.3-0.2,0.6-0.3,0.9c-0.1,0.5-0.3,1-0.4,1.4c-0.2,0.9-0.4,1.7-0.5,2.6
	c0,0.2,0.1,0.5,0.3,0.7c0.2,0.2,0.4,0.3,0.7,0.3s0.5-0.1,0.7-0.3c0.2-0.2,0.3-0.4,0.3-0.7c0-0.1,0-0.2,0-0.3
	c0.1-0.7,0.3-1.4,0.5-2.1c0.1-0.4,0.3-0.8,0.4-1.3c0.1-0.3,0.2-0.5,0.2-0.8c0-0.1,0.1-0.3,0.1-0.4c0.1-0.4,0.2-0.8,0.2-1.2
	c0-0.4-0.3-0.8-0.7-0.9c-0.1,0-0.2,0-0.2,0C195.4,38.2,195,38.4,194.9,38.8L194.9,38.8z"/>
<path d="M192.4,30.7c-0.2,0.2-0.3,0.4-0.3,0.7c0,0.3,0.1,0.5,0.3,0.7c1.3,1.6,2.5,3.2,3.8,4.7c1.6,2.1,3.1,4.2,4.5,6.4
	c0.3,0.4,0.8,0.6,1.3,0.3c0.4-0.3,0.6-0.8,0.3-1.3c-0.2-0.4-0.4-0.8-0.7-1.1c-0.2-0.3-0.4-0.6-0.6-0.9c-0.2-0.4-0.5-0.7-0.8-1.1
	c-0.6-0.9-1.3-1.7-1.9-2.6c-0.6-0.8-1.2-1.6-1.8-2.3c-0.9-1.2-1.9-2.4-2.8-3.5c-0.2-0.2-0.5-0.3-0.7-0.3
	C192.8,30.4,192.6,30.5,192.4,30.7L192.4,30.7z M196.2,36.9c0,0,0.1,0.1,0.1,0.1C196.3,37,196.2,36.9,196.2,36.9L196.2,36.9z"/>
<path d="M218.9,30.6c-0.5,0.4-0.7,1.2-0.8,1.8c-0.1,0.3-0.1,0.7-0.2,1c-0.3,0.5-0.7,1-1.1,1.5c-0.3,0.4-0.6,0.7-0.9,1.1
	c-0.3,0.4-0.7,0.7-1.1,1.1c-0.2,0.1-0.4,0.3-0.6,0.4c0,0-0.1,0-0.1,0c0,0,0,0,0,0c-0.1,0-0.1,0-0.2,0c-0.4-0.7-0.8-1.4-1.2-2.1
	c-0.3-0.5-0.9-0.6-1.4-0.4c-0.5,0.3-0.6,0.9-0.4,1.4c0.2,0.3,0.3,0.6,0.5,1c0.1,0.1,0.1,0.3,0.2,0.4c0.2,0.4,0.4,0.7,0.7,1
	c0.2,0.3,0.5,0.5,0.9,0.6c0.4,0.1,0.8,0.2,1.3,0.1c0.8-0.2,1.4-0.7,1.9-1.2c0.4-0.3,0.7-0.7,1-1c0,0.6-0.1,1.3-0.1,2
	c-0.1,1.2-0.1,2.4-0.1,3.5c0,1.1-0.1,2.3-0.2,3.4c-0.8,0.3-1.7,0.5-2.4,1c-0.6,0.4-1.1,0.8-1.6,1.3c-0.5,0.6-0.9,1.3-1.1,2
	c-0.2,0.7-0.1,1.5,0.3,2.1c0.2,0.3,0.5,0.5,0.8,0.7c0.4,0.2,0.8,0.2,1.3,0.3c0.7,0.1,1.4-0.1,2-0.4c0.2-0.1,0.3-0.2,0.5-0.3
	c0.1-0.1,0.2-0.2,0.4-0.4c0.3-0.3,0.5-0.7,0.7-1.1c0.6-1.4,1-2.8,1.2-4.3c0-0.1,0-0.1,0-0.2c0.1-0.9,0.2-1.8,0.2-2.7
	c0.1-1,0.1-2.1,0.1-3.1c0.1-2.3,0.2-4.6,0.5-6.9c0.3-0.5,0.5-1,0.7-1.6c0.1-0.3,0.2-0.7,0.2-1c0-0.2-0.1-0.5-0.1-0.6
	c-0.1-0.2-0.3-0.3-0.5-0.5c-0.2-0.1-0.3-0.1-0.5-0.1C219.3,30.3,219.1,30.4,218.9,30.6L218.9,30.6z M214.9,37
	C214.9,37.1,214.9,37.1,214.9,37C214.9,37.1,214.9,37.1,214.9,37L214.9,37z M213.9,37.4C213.9,37.4,213.9,37.4,213.9,37.4
	C213.9,37.5,213.9,37.5,213.9,37.4C213.9,37.5,213.9,37.5,213.9,37.4C213.9,37.4,213.9,37.4,213.9,37.4L213.9,37.4z M214.3,37.5
	C214.3,37.5,214.3,37.5,214.3,37.5C214.3,37.5,214.3,37.5,214.3,37.5L214.3,37.5z M214,37.5C214,37.5,214.1,37.5,214,37.5
	C214.1,37.5,214.1,37.5,214,37.5C214.1,37.5,214,37.5,214,37.5L214,37.5z M214,37.5C214,37.5,214,37.5,214,37.5
	C214,37.5,214,37.5,214,37.5L214,37.5z M214.1,37.5C214.1,37.5,214.1,37.5,214.1,37.5C214.1,37.5,214.1,37.5,214.1,37.5
	C214.1,37.5,214.1,37.5,214.1,37.5L214.1,37.5z M216.7,48.3c-0.2,0.8-0.4,1.6-0.8,2.3c-0.1,0.1-0.1,0.3-0.2,0.4
	c-0.1,0.1-0.2,0.2-0.3,0.3c-0.1,0-0.1,0.1-0.2,0.1c-0.1,0-0.3,0.1-0.4,0.1c-0.2,0-0.4,0-0.6,0c-0.1,0-0.2,0-0.4-0.1c0,0,0,0,0,0
	c0,0,0-0.1,0-0.1c0-0.1,0-0.1,0-0.2c0-0.1,0.1-0.3,0.1-0.4c0.1-0.3,0.3-0.5,0.4-0.7c0.3-0.3,0.6-0.6,0.9-0.9
	c0.4-0.3,0.8-0.5,1.2-0.7C216.5,48.4,216.6,48.4,216.7,48.3L216.7,48.3z M215.1,49.2C215.1,49.2,215.1,49.2,215.1,49.2
	C215.1,49.2,215.1,49.2,215.1,49.2L215.1,49.2z M213.7,51.4C213.7,51.4,213.8,51.5,213.7,51.4C213.8,51.5,213.8,51.5,213.7,51.4
	C213.8,51.5,213.7,51.4,213.7,51.4L213.7,51.4z"/>
<path d="M202.4,65.8c-0.7,0.5-1.3,0.9-2,1.4c-0.5,0.3-1,0.7-1.5,1c-0.8,0.5-1.7,0.9-2.6,1.3c-0.2,0.1-0.4,0.4-0.5,0.6
	c-0.1,0.3,0,0.5,0.1,0.8c0.1,0.2,0.3,0.4,0.6,0.5c0.3,0.1,0.5,0,0.8-0.1c0.8-0.4,1.6-0.8,2.4-1.2c0.6-0.3,1.1-0.7,1.6-1.1
	c0.3-0.2,0.6-0.4,0.9-0.7c0.4-0.3,0.8-0.7,1.2-1c0.3-0.3,0.3-0.8,0.1-1.1c-0.2-0.3-0.5-0.5-0.8-0.5
	C202.7,65.7,202.5,65.7,202.4,65.8L202.4,65.8z"/>
<path d="M197.9,58.2c-0.4,0.4-0.4,1,0,1.4c1.6,1.7,3.2,3.4,4.8,5.1c1.5,1.6,3.1,3.3,4.5,5c0.4,0.4,1,0.4,1.4,0
	c0.2-0.2,0.3-0.4,0.3-0.7c0-0.3-0.1-0.5-0.3-0.7c-3-3.5-6.2-6.8-9.4-10.1c-0.2-0.2-0.4-0.3-0.7-0.3C198.3,57.9,198.1,58,197.9,58.2
	L197.9,58.2z"/>
<path d="M231.3,1.7c0,1.6,0,3.1,0,4.6c0,1.1,0,2.2,0,3.4c0,2.2-0.1,4.3-0.2,6.5c-0.1,2.2-0.1,4.4-0.1,6.6c0,2.2-0.1,4.4-0.2,6.6
	c-0.1,2.2-0.2,4.4-0.3,6.7c-0.1,2-0.1,4-0.2,6c-0.2,4.5-0.3,9-0.3,13.5c0,2.1-0.1,4.2-0.2,6.3c-0.1,2.3-0.1,4.5-0.2,6.8
	c0,1.1,0,2.2-0.1,3.3c0,1.1,0,2.1-0.1,3.2c-0.1,0.6-0.2,1.2-0.4,1.8c0,0.1-0.1,0.2-0.1,0.3c-0.1,0-0.1,0.1-0.2,0.1
	c-0.6,0.2-1.2,0.4-1.8,0.5c-0.4,0-0.9,0-1.3,0c-0.1,0-0.2,0-0.3-0.1c-0.5-0.1-1,0.2-1.2,0.7c-0.1,0.2,0,0.5,0.1,0.7
	c0.1,0.2,0.3,0.3,0.6,0.4c0.6,0.2,1.3,0.3,1.9,0.3c0.4,0,0.8-0.1,1.2-0.1c0.3-0.1,0.6-0.1,0.8-0.2c0.2-0.1,0.4-0.1,0.7-0.2
	c0.4-0.2,0.8-0.4,1.1-0.7c0.3-0.4,0.5-0.8,0.7-1.3c0.1-0.2,0.2-0.5,0.2-0.8c0.1-0.6,0.2-1.1,0.3-1.7c0.1-1,0.1-2.1,0.1-3.1
	c0-1.1,0-2.1,0-3.2c0-2.3,0.1-4.5,0.2-6.8c0.1-2.1,0.1-4.2,0.2-6.3c0.1-4.5,0.1-9,0.3-13.5c0.1-2,0.1-4,0.2-6
	c0.1-2.2,0.2-4.4,0.3-6.7c0.1-2.2,0.2-4.4,0.2-6.6c0-2.2,0.1-4.4,0.1-6.6c0.1-2.2,0.1-4.3,0.2-6.5c0-1.1,0-2.2,0-3.4
	c0-1.6,0-3.1,0-4.6c0-0.5-0.4-1-1-1C231.7,0.7,231.3,1.2,231.3,1.7L231.3,1.7z"/>
<path d="M231.9,0c-1.5,0.1-3,0.2-4.5,0.2c-0.8,0-1.7,0.1-2.5,0.1c-0.2-0.1-0.4-0.2-0.6-0.2c-0.2,0-0.3,0-0.5,0c-0.1,0-0.3,0-0.4,0.1
	c-0.1,0.1-0.3,0.1-0.4,0.2c-0.4,0.2-0.6,0.7-0.5,1.1c0.1,0.5,0.5,0.7,1,0.7c1.3,0.1,2.6,0,3.9,0c1.5-0.1,3-0.1,4.5-0.2
	c0.5,0,1-0.4,1-1C232.9,0.5,232.5,0,231.9,0C231.9,0,231.9,0,231.9,0L231.9,0z"/>
<path d="M13.8,60.1c-0.2,0.1-0.4,0.2-0.5,0.4c-0.9,1.2-1.7,2.4-2.6,3.6c0-0.1,0.1-0.1,0.1-0.2C9.9,65,9.1,66,8.2,67.1
	c-0.2,0.2-0.4,0.4-0.5,0.6c-0.3,0.4-0.7,0.8-1,1.1c-0.3,0.3-0.6,0.7-0.9,1c-0.5,0.5-1,1-1.5,1.5c0,0,0,0,0,0
	c-0.2-0.1-0.4-0.1-0.6-0.1c-0.2,0.1-0.3,0.2-0.5,0.4c-0.3,0.4-0.5,0.8-0.7,1.2c-0.2,0.3-0.1,0.7,0.1,0.9c0.2,0.2,0.7,0.3,0.9,0.1
	c0.6-0.4,1.2-0.9,1.8-1.4c0.5-0.5,1.1-1,1.6-1.5c0.5-0.5,1-1.1,1.5-1.6c0.3-0.4,0.7-0.7,1-1.1c0.4-0.5,0.9-1,1.3-1.5
	c0.7-0.8,1.3-1.6,1.9-2.4c0.3-0.4,0.6-0.8,0.9-1.2c0.4-0.6,0.8-1.1,1.1-1.7c0.2-0.4,0.1-0.9-0.3-1.1c-0.1-0.1-0.3-0.1-0.4-0.1
	C13.9,60.1,13.8,60.1,13.8,60.1L13.8,60.1z"/>
<path d="M1,46.4c-0.3,0-0.5,0.1-0.7,0.3C0.1,46.9,0,47.1,0,47.4s0.1,0.5,0.3,0.7c0.2,0.2,0.5,0.3,0.7,0.3c0.2,0,0.4,0,0.6-0.1
	c0.2,0,0.5,0,0.7,0c0.4,0,0.7,0,1.1,0.1c0.3,0.1,0.6,0.1,0.9,0.3c0.6,0.3,1.2,0.6,1.7,1c0.6,0.5,1.2,1.1,1.7,1.7
	c0.8,1.1,1.5,2.3,2.2,3.6c0.8,1.3,1.4,2.7,2,4.1c0.6,1.2,1.1,2.4,1.6,3.6c0.4,1,0.9,1.9,1.3,2.9c0.4,1,0.9,1.9,1.4,2.9
	c0.7,1.3,1.3,2.7,2,4c0.4,0.7,0.7,1.4,1.1,2.1c0.2,0.4,0.5,0.8,0.7,1.2c0.2,0.4,0.4,0.7,0.6,1c0.2,0.2,0.3,0.5,0.5,0.7
	c0.2,0.2,0.5,0.4,0.7,0.6c0.3,0.2,0.8,0.1,1.1-0.1c0.3-0.3,0.3-0.9,0-1.2c-0.1-0.1-0.2-0.2-0.3-0.3c-0.3-0.5-0.6-1-0.9-1.6
	c-0.1-0.3-0.3-0.5-0.4-0.8c-0.2-0.4-0.5-0.9-0.7-1.3c-0.6-1.1-1.1-2.1-1.7-3.2c-1-1.9-1.9-3.9-2.8-5.8c-1-2.2-2-4.5-3.1-6.7
	c-0.3-0.7-0.6-1.3-1-2c-0.3-0.6-0.7-1.3-1.1-1.9c-0.7-1.2-1.5-2.4-2.4-3.5c-0.4-0.5-1-1-1.5-1.4c-0.6-0.4-1.2-0.8-1.8-1.2
	c-0.3-0.2-0.7-0.3-1-0.4c-0.4-0.1-0.7-0.2-1.1-0.2c-0.4,0-0.7-0.1-1.1-0.1C1.8,46.3,1.4,46.3,1,46.4L1,46.4z M3.2,48.4
	C3.2,48.4,3.3,48.4,3.2,48.4C3.3,48.4,3.2,48.4,3.2,48.4L3.2,48.4z M7.6,51.3C7.6,51.3,7.6,51.3,7.6,51.3
	C7.6,51.3,7.6,51.3,7.6,51.3L7.6,51.3z"/>
<path d="M34.4,53.9c-0.6,0-1.1,0-1.7,0c-0.5,0-1,0.4-1,1c0,0.5,0.5,1,1,1c1.7,0,3.4,0,5.1,0c1.1,0,2.1,0,3.2,0
	c2.3,0,4.6,0.1,6.9,0.1c0.4,0,0.8,0,1.2,0c0.5,0,1-0.4,1-1c0-0.5-0.4-0.9-1-0.9c-2.5-0.2-5-0.2-7.5-0.2c-0.6,0-1.2,0-1.8,0
	C38,53.9,36.2,53.9,34.4,53.9L34.4,53.9z"/>
<path d="M52.6,62.8c-2,0.1-3.9,0.2-5.9,0.5c-1.2,0.1-2.4,0.2-3.6,0.4c-1.4,0.2-2.7,0.4-4,0.8c-1.3,0.4-2.6,0.9-3.7,1.5
	c-0.5,0.3-0.6,0.9-0.4,1.4c0.3,0.5,0.9,0.6,1.4,0.4c0.3-0.2,0.6-0.3,0.9-0.5c1-0.4,2.1-0.8,3.2-1.1c1.1-0.3,2.2-0.4,3.3-0.5
	c1.4-0.2,2.7-0.3,4.1-0.4c1.6-0.1,3.1-0.3,4.7-0.4c0.3,0,0.5-0.1,0.7-0.3c0.2-0.2,0.3-0.4,0.3-0.7C53.6,63.3,53.1,62.8,52.6,62.8
	C52.6,62.8,52.6,62.8,52.6,62.8L52.6,62.8z"/>
<path d="M38.6,46.4c-0.2,0.1-0.4,0.4-0.5,0.6c-0.1,0.4-0.1,0.7-0.2,1.1c0,0.4-0.1,0.8-0.1,1.1c0,0.8,0,1.7,0,2.5
	c0.1,1.6,0.3,3.3,0.6,4.9c0.3,1.7,0.7,3.5,1.1,5.2c0.3,1.2,0.6,2.4,0.8,3.7c0.3,1.1,0.6,2.3,0.8,3.4c0.1,0.4,0.2,0.8,0.3,1.2
	c0.1,0.5,0.3,1,0.4,1.5c0.2,0.6,0.3,1.1,0.5,1.6c0.1,0.3,0.2,0.7,0.4,1c0.1,0.3,0.3,0.7,0.4,1c0.1,0.2,0.2,0.3,0.3,0.4
	c0.1,0.1,0.3,0.3,0.4,0.3c0.2,0.1,0.3,0.2,0.5,0.2c0.2,0,0.4,0,0.6,0.1c0.4,0,0.8-0.3,0.9-0.7c0.1-0.2,0-0.5-0.1-0.7
	c-0.1-0.2-0.3-0.4-0.6-0.4c-0.1,0-0.2,0-0.3,0c0-0.1-0.1-0.1-0.1-0.2c-0.5-1.3-0.8-2.6-1.2-3.9c-0.3-1.1-0.6-2.2-0.9-3.3
	c-0.2-0.9-0.5-1.9-0.7-2.8c-0.3-1.4-0.6-2.8-1-4.3c-0.1-0.6-0.2-1.2-0.4-1.7c-0.3-1.3-0.5-2.6-0.7-3.9c0,0,0,0.1,0,0.1
	c-0.1-1.1-0.2-2.2-0.3-3.3c0-1,0-2.1,0.1-3.2c0-0.2,0.1-0.3,0.1-0.5c0-0.3,0-0.5-0.1-0.8c-0.1-0.2-0.3-0.4-0.6-0.5
	c-0.1,0-0.2,0-0.3,0C39,46.3,38.8,46.3,38.6,46.4L38.6,46.4z"/>
<path d="M67.4,46.3c-0.3,0-0.6,0.1-0.9,0.3c-0.1,0.1-0.2,0.1-0.3,0.2c-0.1,0.1-0.3,0.2-0.3,0.4c-0.1,0.1-0.1,0.2-0.2,0.4
	c0,0.1,0,0.3-0.1,0.4c0,0,0,0,0,0c0,0.1,0,0.2,0,0.3c-0.9,0.6-1.7,1.5-2.3,2.4c-0.8,1.2-1.3,2.7-1.6,4.2c-0.1,0.8-0.2,1.5-0.2,2.3
	c0,0.8,0.2,1.5,0.4,2.3c0.2,0.6,0.5,1.3,0.9,1.8c0.5,0.6,1,1.1,1.6,1.5c0.6,0.4,1.2,0.7,1.8,0.9c0.7,0.3,1.5,0.4,2.3,0.5
	c1.5,0.1,3.1,0,4.6-0.5c1.5-0.4,2.8-1.3,4-2.2c0.4-0.3,0.8-0.7,1.1-1.1c0.3-0.4,0.7-0.9,0.9-1.4c0.5-1,0.5-2.1,0.4-3.1
	c-0.1-1.1-0.4-2.1-0.8-3.1c-0.4-0.9-1.2-1.7-1.9-2.4c-0.4-0.4-0.8-0.7-1.2-1c-0.4-0.3-0.9-0.5-1.3-0.7c-1-0.5-2-0.9-3.1-1.3
	c-0.5-0.2-1.1-0.3-1.6-0.5c-0.5-0.1-1.1-0.2-1.6-0.3C67.9,46.3,67.7,46.3,67.4,46.3C67.4,46.3,67.4,46.3,67.4,46.3L67.4,46.3z
	 M70.5,50c0.2-0.1,0.5-0.2,0.6-0.5c0.1-0.1,0.1-0.2,0.1-0.4c0.3,0.1,0.7,0.3,1,0.4c1,0.4,2,0.9,2.8,1.5c0.6,0.5,1.1,0.9,1.5,1.5
	c0.3,0.4,0.5,0.7,0.7,1.1c0.2,0.6,0.4,1.2,0.5,1.8c0.1,0.5,0.1,1.1,0,1.6c0,0.3-0.1,0.5-0.2,0.8c-0.1,0.3-0.3,0.5-0.5,0.8
	c-0.4,0.5-0.8,0.9-1.3,1.3c-0.7,0.5-1.4,1-2.2,1.3c-0.8,0.3-1.6,0.5-2.4,0.6c-0.9,0.1-1.9,0.1-2.8,0c-0.5-0.1-1.1-0.2-1.6-0.4
	c-0.5-0.2-1-0.5-1.4-0.8c-0.3-0.2-0.5-0.4-0.7-0.7c-0.2-0.3-0.4-0.7-0.6-1c-0.2-0.5-0.3-0.9-0.4-1.4c-0.1-0.6,0-1.3,0-1.9
	c0.1-1,0.4-1.9,0.8-2.9c0.3-0.6,0.6-1.2,1-1.8c0.3-0.4,0.6-0.7,1-1c0.2-0.2,0.4-0.3,0.7-0.4c0.3-0.1,0.6-0.2,0.9-0.2
	c0.1,0,0.3,0,0.4,0c0.3,0.1,0.7,0.2,1,0.3c0.1,0,0.2,0.1,0.3,0.1C69.9,50,70,50,70.2,50C70.3,50,70.4,50,70.5,50L70.5,50z"/>
</svg>
